<svg id="Layer_1" data-name="Layer 1" xmlns="http://www.w3.org/2000/svg" viewBox="0 0 300 300"><defs><style>.cls-1{fill:#0e90d0;}</style></defs><path class="cls-1" d="M158,160.56a18.09,18.09,0,0,1-10.41-2.78c-3.81-2.66-5.74-7-5.74-12.92,0-21.34,10.81-29.79,16-30.54,2.36-.33,18.19.39,32.79,2.23,28,3.53,32.82,8.4,34,11.76a6.18,6.18,0,0,1-.48,4.92c-5.26,10.23-40.95,21.18-45,22.4a2.47,2.47,0,0,1-1.42-4.73c14.53-4.36,38.79-13.62,42-19.93.34-.66.24-.95.2-1.07-.17-.5-2.46-5-29.77-8.44-15.71-2-30.15-2.44-31.63-2.25-1.94.27-11.79,5.85-11.79,25.65,0,4.26,1.18,7.17,3.62,8.87,5.18,3.63,15.24,1.17,18.68-.08a2.47,2.47,0,0,1,1.7,4.63A41.76,41.76,0,0,1,158,160.56Z"/><path class="cls-1" d="M217.56,140.82c-1.4,0-2.29,0-2.45-.06a2.47,2.47,0,1,1,.29-4.93c.19,0,18.93,1,27.91-7.46A14.79,14.79,0,0,0,248,117c0-5.28-1.68-9.57-5-12.75-7.68-7.36-21.7-6.86-21.84-6.85H221c-21.11-.61-34.34-4.71-39.31-12.17a11,11,0,0,1-1.52-9.56,2.46,2.46,0,0,1,4.61,1.73,6.15,6.15,0,0,0,1.11,5.22c2.32,3.36,10,9.1,35.17,9.85,1.49-.06,16.41-.36,25.36,8.2,4.34,4.15,6.53,9.64,6.53,16.33A19.71,19.71,0,0,1,246.68,132C238.18,140,223.41,140.82,217.56,140.82Z"/><path class="cls-1" d="M223.41,131.45A2.46,2.46,0,0,1,222,127a41.68,41.68,0,0,0,9.7-10c5.17-7.76,5.55-15.43,1.12-22.82a12.39,12.39,0,0,0-8.78-6.28c-12.79-2.28-30.71,12-30.89,12.19a4,4,0,0,1-.34.23c-41,23-52.22,5.92-52.68,5.19a2.47,2.47,0,0,1,4.17-2.63c.2.28,9.84,13.42,45.92-6.77,2.07-1.64,20.25-15.62,34.67-13.07a17.29,17.29,0,0,1,12.16,8.6C247.53,109,233.61,125,224.8,131A2.47,2.47,0,0,1,223.41,131.45Z"/><path class="cls-1" d="M230,167.55a2.45,2.45,0,0,1-1.9-.89l-12.66-15.18-14.25-4.25a2.47,2.47,0,0,1,1.41-4.73l15,4.46a2.53,2.53,0,0,1,1.19.79l13.13,15.76a2.47,2.47,0,0,1-1.89,4Z"/><path class="cls-1" d="M210.79,182a2.47,2.47,0,0,1-2.38-1.82l-5-18.36-13.51-10.27a2.46,2.46,0,1,1,3-3.92L207,158.39a2.46,2.46,0,0,1,.89,1.32l5.25,19.17a2.46,2.46,0,0,1-1.73,3A2.37,2.37,0,0,1,210.79,182Z"/><path class="cls-1" d="M139.75,159.14a12.14,12.14,0,0,1-6.1-1.6c-8.19-4.66-10.53-18.37-11.19-26.12-.85-9.89,1.32-16,14.94-18.15,12.66-2,18.62,2.09,18.87,2.26a2.47,2.47,0,0,1-2.81,4.06c-.14-.09-4.92-3-15.3-1.44-10.67,1.66-11.46,5-10.79,12.85.47,5.46,2.26,18.58,8.72,22.25,2.55,1.45,5.68,1.25,9.55-.63a2.47,2.47,0,0,1,2.15,4.44A18.48,18.48,0,0,1,139.75,159.14Z"/><path class="cls-1" d="M120.89,160.13a13.34,13.34,0,0,1-3.3-.42c-9.61-2.46-17.37-15-19-21.34-2.63-10.14.41-15.11,11.24-18.36s16.64-.61,17.26-.29a2.46,2.46,0,0,1-2.22,4.4c-.15-.06-4.7-2.06-13.63.61-9.32,2.8-9.55,5.93-7.87,12.4,2.31,8.91,10.84,16.62,15.47,17.8,3.17.81,6-.2,8.76-3.09a2.47,2.47,0,0,1,3.59,3.38C127.59,159,123.94,160.13,120.89,160.13Z"/><path class="cls-1" d="M104.63,162.77a23.38,23.38,0,0,1-7-1.14C89.19,159,80.8,152,79.27,146.39c-2.2-8.1-1.57-13.51,8.15-17.26,8.84-3.4,13.83-1,14.37-.72a2.47,2.47,0,0,1-2.27,4.39c-.22-.1-3.68-1.62-10.33.94-6.49,2.49-7,4.78-5.16,11.35.86,3.18,7.15,9.37,15,11.84,3.68,1.15,8.91,1.8,13-1.61a2.47,2.47,0,1,1,3.18,3.77A16.09,16.09,0,0,1,104.63,162.77Z"/><path class="cls-1" d="M91.8,167.29c-8,0-18.4-4-23.37-8.2-3.94-3.34-5.8-6.53-5.69-9.78.1-3.07,1.9-5.85,5.51-8.51,7.35-5.42,12.67-4.28,13.25-4.13a2.47,2.47,0,0,1-1.17,4.79c-.23,0-3.77-.65-9.15,3.31-2.28,1.68-3.46,3.27-3.51,4.71-.06,1.61,1.27,3.58,4,5.84,4.56,3.86,15.47,7.81,22.18,6.92,2-.27,3.42-.93,4.14-2a2.46,2.46,0,1,1,4,2.8c-1.54,2.24-4.08,3.6-7.55,4.06A20.46,20.46,0,0,1,91.8,167.29Z"/><path class="cls-1" d="M73.91,174.05c-4.64,0-9.14-.73-12-2-4.14-1.82-6.54-4-7.32-6.8-.7-2.46-.05-5.17,1.94-8.06,4.23-6.15,8.87-6.46,9.39-6.47a2.47,2.47,0,0,1,.2,4.93c-.2,0-2.79.36-5.53,4.33-1.11,1.62-1.54,2.94-1.26,3.92.35,1.22,1.92,2.48,4.56,3.63,4.6,2,15.47,2.23,20.72-.32,1.24-.6,2-1.3,2.19-2a2.47,2.47,0,1,1,4.78,1.23c-.56,2.15-2.18,3.9-4.81,5.18C83.38,173.32,78.58,174.05,73.91,174.05Z"/><path class="cls-1" d="M58.68,185.92c-.35,0-.68,0-1,0-3.56-.36-5.85-1.55-7-3.62s-1-4.94.67-8.48c3.06-6.47,6.83-8.08,7.25-8.24a2.47,2.47,0,0,1,1.83,4.58c-.14.07-2.49,1.26-4.62,5.77-1.29,2.73-1,3.71-.83,3.94s.68.88,3.23,1.14c5.54.56,18.52-5.16,19.18-9.27a2.47,2.47,0,1,1,4.87.77C81,180.27,65.52,185.92,58.68,185.92Z"/><path class="cls-1" d="M64.24,225.89a3.54,3.54,0,0,1-.85-.11c-3.71-.93-5.82-6.35-7-11.93a3.28,3.28,0,0,1-2.25,1.09c-3.43.32-5-4.3-5.61-6.27-4.5-13.48,3-27.14,3.33-27.72a2.47,2.47,0,1,1,4.31,2.41h0c-.07.12-6.76,12.37-3,23.75.18.57.36,1,.52,1.43A36.49,36.49,0,0,0,55,202.83a2.44,2.44,0,0,1,2.52-2.13A2.46,2.46,0,0,1,59.88,203c.54,7.72,2.2,14.38,3.68,16.92.7-4.46.2-16.87-2-32.95a2.47,2.47,0,0,1,4.89-.68c0,.09,1.16,8.48,1.85,17.18,1.29,16.39-.08,20-1.74,21.53A3.4,3.4,0,0,1,64.24,225.89Z"/><path class="cls-1" d="M153.28,179.63H153a2.47,2.47,0,0,1-2.22-2.69l1-10L144.06,158a2.47,2.47,0,1,1,3.73-3.23l8.4,9.72a2.45,2.45,0,0,1,.59,1.85l-1.05,11A2.46,2.46,0,0,1,153.28,179.63Z"/><path class="cls-1" d="M129.64,174.91a2.47,2.47,0,0,1-2.13-3.71l4.14-7.13-2.82-7.42a2.47,2.47,0,0,1,4.62-1.75l3.23,8.52a2.47,2.47,0,0,1-.18,2.12l-4.73,8.14A2.45,2.45,0,0,1,129.64,174.91Z"/><path class="cls-1" d="M109.16,174.64a2.47,2.47,0,0,1-1.26-4.59l4.78-2.82,1.22-7.86a2.46,2.46,0,0,1,4.87.76l-1.4,9a2.49,2.49,0,0,1-1.18,1.75l-5.78,3.41A2.45,2.45,0,0,1,109.16,174.64Z"/><circle class="cls-1" cx="194.66" cy="129.83" r="5.12"/></svg>