<svg id="Layer_1" data-name="Layer 1" xmlns="http://www.w3.org/2000/svg" viewBox="0 0 300 300"><defs><style>.cls-1{fill:#0e90d0;}</style></defs><path class="cls-1" d="M172.65,206.5a1.79,1.79,0,0,1-.87-.22,1.85,1.85,0,0,1-.93-1.26,47.36,47.36,0,0,1,1.5-21.28,1.82,1.82,0,0,1,3.47,1.13A43.69,43.69,0,0,0,174.13,202c13.14-6.64,18.81-20.6,18.87-20.75a1.82,1.82,0,1,1,3.39,1.35c-.28.69-6.94,17.08-23,23.77A1.75,1.75,0,0,1,172.65,206.5Z"/><path class="cls-1" d="M170.28,185.76c-22.82,0-44.06-5.62-54.88-14.67C90.59,150.34,64,175.77,63.68,176a1.83,1.83,0,0,1-2.65-.12c-15.16-17.68-7.67-49.61.11-57.14a1.83,1.83,0,0,1,2.27-.21c33.4,21.93,46.47,15.21,64.55,5.9,12-6.17,25.56-13.16,47.78-13.39h1.37c47.38,0,63.06,25.06,65.09,28.7,6.68,7.28,7.37,14.8,1.81,20.13-22.22,21.36-53.23,25.34-69.75,25.81C172.93,185.74,171.6,185.76,170.28,185.76ZM94.17,159.27c7.5,0,15.61,2.36,23.57,9,20,16.75,87.57,23.74,123.75-11,5.52-5.3,1-11.79-2.12-15.19a2.34,2.34,0,0,1-.29-.41c-1.52-2.81-16.24-27.38-63.3-26.94-21.36.21-34.53,7-46.15,13-18.23,9.38-32.68,16.82-66.9-5.23-6.29,8-11.59,34.21-.09,49.62C66.82,168.57,79.3,159.27,94.17,159.27Z"/><path class="cls-1" d="M112.5,133.89a1.82,1.82,0,0,1-1.51-.79c-.3-.33-1.78-1.86-8.86-8.58-4.08-3.88-5.93-7.5-5.49-10.76a7.15,7.15,0,0,1,3.49-5.11C155.7,83.39,189,97.2,190.38,97.8a1.72,1.72,0,0,1,.55.37c8.1,7.86,15.83,16.54,15.91,16.63a1.82,1.82,0,0,1-2.72,2.42c-.08-.08-7.56-8.48-15.47-16.18-3.36-1.28-35.68-12.38-86.82,10.84a3.44,3.44,0,0,0-1.58,2.41c-.17,1.4.46,3.85,4.39,7.59C115,131.7,115,131.7,114,133.11A1.81,1.81,0,0,1,112.5,133.89Z"/><path class="cls-1" d="M120.88,191.47a50.11,50.11,0,0,1-21.52-5.22,3.43,3.43,0,0,1-1.88-1.81c-.86-1.87-.4-4.53,1.4-8.14a131.28,131.28,0,0,1,7.31-12.65,1.82,1.82,0,1,1,3,2,131.75,131.75,0,0,0-7.08,12.26c-1.55,3.11-1.52,4.59-1.36,4.95l0,0c22.36,10.62,36.14.84,36.72.42a1.82,1.82,0,0,1,2.16,2.93C139.28,186.57,132.47,191.47,120.88,191.47Zm-20.4-8.69Zm0,0Z"/><path class="cls-1" d="M216.5,177a1.72,1.72,0,0,1-.66-.13c-7.42-2.89-12.31-7.4-14.55-13.4-3.91-10.51,1.86-21.63,2.11-22.1a1.82,1.82,0,0,1,3.22,1.7c-.05.1-5.25,10.19-1.9,19.15,1.86,5,6,8.76,12.44,11.25a1.83,1.83,0,0,1-.66,3.53Z"/><path class="cls-1" d="M89,163a1.84,1.84,0,0,1-1.64-1c-5.8-11.86-2.13-21.44-2-21.85a1.82,1.82,0,0,1,3.39,1.34c-.05.13-3.19,8.59,1.86,18.9a1.82,1.82,0,0,1-.84,2.44A1.77,1.77,0,0,1,89,163Z"/><path class="cls-1" d="M186.85,173.77a26.82,26.82,0,0,1-8.82-1.4c-9.48-3.33-12.66-10-12.79-10.3a1.85,1.85,0,0,1,0-1.46,1.81,1.81,0,0,1,1-1c20.54-7.83,34.51-2.62,35.09-2.39a1.82,1.82,0,1,1-1.31,3.4c-.13-.05-12.37-4.54-30.39,1.64a20.3,20.3,0,0,0,9.6,6.68c8.13,2.85,17.39-.33,17.48-.36a1.82,1.82,0,0,1,1.22,3.44A36.57,36.57,0,0,1,186.85,173.77Z"/><circle class="cls-1" cx="228.72" cy="143.81" r="3.66"/></svg>