<svg id="Layer_1" data-name="Layer 1" xmlns="http://www.w3.org/2000/svg" viewBox="0 0 300 300"><defs><style>.cls-1{fill:#fff;}</style></defs><path class="cls-1" d="M225.4,112.62a14,14,0,0,0-12.34-11.1c3.33-2.73,7-7.94,4.57-12.63l-.19-.3A8.09,8.09,0,0,0,211,85.31a.43.43,0,0,1-.32-.44v-.23a4.94,4.94,0,0,0-4.93-4.93h-2.38a.45.45,0,0,1-.45-.44A4.93,4.93,0,0,0,198,74.34h-4.77a4.93,4.93,0,0,0-4.93,4.93v12c-9.26,4.12-12.75,14.78-15.82,24.2-.51,1.55-1,3-1.5,4.46a42.74,42.74,0,0,0-6.5-.12H94.58l-15.29-5.48a3.42,3.42,0,0,0-2.59.1,3.36,3.36,0,0,0-1.76,1.89,3.16,3.16,0,0,0-.2.85,39,39,0,0,0,1.64,16.13,14.5,14.5,0,0,0,3.24,5.61,7.23,7.23,0,0,0,1.76,1.18l.57.31c-.06.17-.13.32-.19.48a6.71,6.71,0,0,0-.64,2.85c.12,6.9,4.82,9.1,9.45,10.16,2.08,8.44,15.13,53.24,57.17,54.25l3.8,10.47-9.92,2.71,1.18,4.32,22.15-6a1.06,1.06,0,0,1,1.22.71l2.46,5.09,4-1.95-2.41-5a5.49,5.49,0,0,0-6.41-3.21l-8,2.17-3.5-9.62c12.4-1.9,58.39-13.26,61.65-77.06a8.41,8.41,0,0,0,1.37-.7c5.2-3.39,2.49-9.09.24-12.86h5.9a3.79,3.79,0,0,0,3.94-3.57A4.17,4.17,0,0,0,225.4,112.62ZM192.79,79.27a.45.45,0,0,1,.45-.45H198a.45.45,0,0,1,.45.45,4.94,4.94,0,0,0,4.93,4.93h2.38a.45.45,0,0,1,.45.44v.21a4.9,4.9,0,0,0,4.39,4.93l.14,0h.14a3.4,3.4,0,0,1,2.83,1.3c.9,2.16-1.68,5.74-4.08,7.41a13.42,13.42,0,0,0-1.94-2.69,17.46,17.46,0,0,0-14.91-5.66Zm-28.18,45a39.62,39.62,0,0,1,15.23,2.1,11,11,0,0,1,6.43,6.76,13.45,13.45,0,0,1-1.34,11,57.28,57.28,0,0,1-12.1,14.11c-10.4,9-22.64,12.84-34.46,10.83a62.12,62.12,0,0,1-17.7-5.75,41.91,41.91,0,0,1-11-7.88c5-4.75,27.54-26.2,36.42-30.61l-.26-.52Zm-26.1,0c-10.88,7.8-27.51,23.59-31.91,27.82a40.71,40.71,0,0,1-3.35-4.76,47,47,0,0,1-5.76-23.06ZM85.6,143.65a2.57,2.57,0,0,1,.3-1.05,9.06,9.06,0,0,0,.55-1.67c.6-2.88-1.9-4.21-3-4.77l-.66-.35A10.06,10.06,0,0,1,80.65,132,34.57,34.57,0,0,1,79.08,119L93,124a51.51,51.51,0,0,0,6.34,25.57c.33.55.7,1.07,1,1.61l-3.33-.65-2.28-.4C88.46,149.09,85.68,148.16,85.6,143.65Zm63.6,60.06h-.12c-37.26,0-50.51-37.64-53.64-48.89l.79.14,8.3,1.6a46.17,46.17,0,0,0,14.15,10.77,66.05,66.05,0,0,0,18.95,6.15,40.65,40.65,0,0,0,6.94.59c10.9,0,21.76-4.29,31.17-12.42a61.66,61.66,0,0,0,13-15.23,18,18,0,0,0,1.74-14.68,15.64,15.64,0,0,0-9.08-9.51,44.48,44.48,0,0,0-5.93-1.61c.41-1.21.82-2.46,1.24-3.74,2.81-8.64,6-18.43,13.54-21.59a13,13,0,0,1,14.1,3.56,9.25,9.25,0,0,1,2.2,4.11,4.75,4.75,0,0,0-1.22,3v7.61a3.77,3.77,0,0,0,.85,2.24c-1.82,2.4-3.85,5.13-3.69,8.68a7,7,0,0,0,4,6,9.08,9.08,0,0,0,3,.89C205.6,199.86,151.42,203.59,149.2,203.71Zm63.74-77.4a4.62,4.62,0,0,1-4.41.15,2.52,2.52,0,0,1-1.53-2.2c-.08-2,1.36-3.87,2.88-5.88l.68-.9.47.76C214.14,123.26,214.61,125.22,212.94,126.31Zm-3.09-13.59v-6.63a.3.3,0,0,1,.37-.26c6.75-.12,9.48,3.52,10.56,6.89Zm11.75,0h0Zm-25.37-10.55a2.84,2.84,0,1,0,2.85,2.84h0A2.85,2.85,0,0,0,196.23,102.17Z"/></svg>