<svg id="btn_usuarios" xmlns="http://www.w3.org/2000/svg" width="23.401" height="25.953" viewBox="0 0 23.401 25.953">
  <path id="Trazado_61" data-name="Trazado 61" d="M774.961,97.8l-8.251-4.764a3.45,3.45,0,0,0-3.449,0L755.01,97.8a3.45,3.45,0,0,0-1.725,2.987v9.527a3.45,3.45,0,0,0,1.725,2.987l8.251,4.764a3.45,3.45,0,0,0,3.449,0l8.251-4.764a3.45,3.45,0,0,0,1.725-2.987V100.79a3.45,3.45,0,0,0-1.725-2.987m-4.769,13.154a2.111,2.111,0,0,1-2.1,1.823c-2.049.024-4.1.029-6.149,0a2.2,2.2,0,0,1-2.139-2.173,5.445,5.445,0,0,1,2.758-5.413,3.782,3.782,0,0,1-.168-5.481,3.74,3.74,0,0,1,5.121-.124c1.641,1.477,1.638,3.586.015,5.563a16.07,16.07,0,0,1,1.285,1.078,5.451,5.451,0,0,1,1.381,4.728" transform="translate(-753.285 -92.577)" fill="#fff"/>
</svg>
