<svg id="btn_email" xmlns="http://www.w3.org/2000/svg" width="21.977" height="16.177" viewBox="0 0 21.977 16.177">
  <path id="Trazado_59" data-name="Trazado 59" d="M580.24,101.794c.962.566,1.93,1.121,2.885,1.7,2.4,1.457,4.8,2.913,7.191,4.393a1.586,1.586,0,0,0,1.852-.023c3.191-1.968,6.4-3.913,9.6-5.865.119-.072.245-.134.434-.238v.534c0,2.522-.031,5.044.011,7.565a3.344,3.344,0,0,1-3.469,3.494c-5.06-.046-10.12-.015-15.179-.018a3.16,3.16,0,0,1-3.254-2.637.477.477,0,0,0-.075-.12Z" transform="translate(-580.24 -97.179)" fill="#fff"/>
  <path id="Trazado_60" data-name="Trazado 60" d="M580.343,100.276a3.166,3.166,0,0,1,3.333-2.5q6.977-.009,13.956,0c.39,0,.78,0,1.172,0a3.19,3.19,0,0,1,3.277,2.482c-.09.066-.184.147-.29.211q-5.111,3.125-10.221,6.247a.539.539,0,0,1-.656.049q-5.207-3.2-10.424-6.382a1.709,1.709,0,0,1-.148-.11" transform="translate(-580.225 -97.774)" fill="#fff"/>
</svg>
