<svg id="Layer_1" data-name="Layer 1" xmlns="http://www.w3.org/2000/svg" viewBox="0 0 300 300"><defs><style>.cls-1{fill:#fff;}</style></defs><path class="cls-1" d="M38.63,189.91h4c0,56.18,0,63.86,0,63.86H86.46v-8h-.1c0-4.6.47-8.82-4-12.84V201.88a15,15,0,0,1,4.8-10.78,36,36,0,0,0,8.47-13.16h46.57a33.64,33.64,0,0,0,8.19,7.46A15.22,15.22,0,0,1,158,198.17c0,46.81.09,55.6.09,55.6h43.52V240.38a11.07,11.07,0,0,0-3.83-7.45V184.08a15,15,0,0,1,4.77-10.78A38,38,0,0,0,213.65,146V131.87l13.61-24.58c20.34,9.79,21.12,10.74,26,10.74A16.2,16.2,0,0,0,266.4,92.55c-21.75-31.12-20.93-29.41-20.93-31.19V54.81a8.6,8.6,0,0,0-8.36-8.58h-.29A11.17,11.17,0,0,0,230.14,49a61.59,61.59,0,0,1-14.32,7.3A135.92,135.92,0,0,0,162,102.54a8,8,0,0,1-6.59,3.53c-36.1,0-35.14.4-37.56-1.13a43.05,43.05,0,0,0-53.27,5.24,35.94,35.94,0,0,0-33.87,35.45v36.52A8,8,0,0,0,38.63,189.91Zm23.86,55.87h-8a4,4,0,0,1-4-4v-4h8a4,4,0,0,1,4,4Zm15.91,0h-8a20.7,20.7,0,0,0-.73-8h4.71a4,4,0,0,1,4,4Zm3.29-60.42a22.83,22.83,0,0,0-7.26,16.52v27.94h-8V193.9a15,15,0,0,1,4.8-10.78h0a35.28,35.28,0,0,0,6-7.75,44.21,44.21,0,0,0,10,2.18A27.31,27.31,0,0,1,81.69,185.36Zm72-7.43h13.42a15.16,15.16,0,0,1,6.8,12.25v39.64h-8V198.17C165.92,188.57,160.57,182.83,153.65,177.93Zm16.24,67.85h0a4,4,0,0,1-4-4v-4h8a20.51,20.51,0,0,0,.74,8Zm23.87,0h-8a4,4,0,0,1-4-4v-4h7.95a4,4,0,0,1,4,4ZM64,123.1a36,36,0,0,1,49.58-11.42,16,16,0,0,0,8.6,2.37H155.4a15.94,15.94,0,0,0,13.19-7,127.6,127.6,0,0,1,50.5-43.45,74.52,74.52,0,0,0,17.79-9.36s.63,0,.63.6c0,6-.51,9.63,2.14,13.38,2,3,19.92,28.51,20.23,29a8.17,8.17,0,0,1-10.35,12L227.91,98.77,216.46,87.28a4,4,0,0,0-5.62,5.65l9.82,9.86c-13.75,24.82-15,26.6-15,28.05V146A30,30,0,0,1,197,167.56a22.89,22.89,0,0,0-7.23,16.52v45.74h-7.95V190.18a23.27,23.27,0,0,0-11.28-19.56A28.93,28.93,0,0,1,158,146h0a4,4,0,1,0-8,0A38.6,38.6,0,0,0,158.19,170c-68.29,0-69.95.62-77.74-1.89a40.31,40.31,0,0,0,1.93-12.24,4,4,0,0,0-8,0,30,30,0,0,1-8.68,21.56,22.89,22.89,0,0,0-7.23,16.52v35.92H50.56c0-43.47-.68-44.54,1.83-49.76,2.74-5.72,6-16.8,6.12-37.28A35.91,35.91,0,0,1,64,123.1ZM38.63,146a28,28,0,0,1,18.29-26.23,45.26,45.26,0,0,0-6.36,23c-.12,27.6-5.57,32.24-7.2,39.19H38.63Z"/></svg>