<svg id="Layer_1" data-name="Layer 1" xmlns="http://www.w3.org/2000/svg" viewBox="0 0 300 300"><defs><style>.cls-1{fill:#39ba9b;}</style></defs><path class="cls-1" d="M81,138a2,2,0,0,1-1.4-.59,15.06,15.06,0,0,1-3.15-17.2,2,2,0,0,1,2-1A1.93,1.93,0,0,1,80,120.64c1.4,6,11.89,6,12,6a2,2,0,0,1,2,1.9,1.93,1.93,0,0,1-1.89,2c-.46,0-8.71.11-13.23-4.33a11.42,11.42,0,0,0,3.5,8.52A1.93,1.93,0,0,1,81,138Z"/><path class="cls-1" d="M219.86,134.32c-5.12,0-8.52-5.73-9.82-9.52a1.94,1.94,0,0,1,3.66-1.26c0,.07,2.17,6,5.49,6.8l-.73-5.12a1.93,1.93,0,0,1,3.83-.55l1,7.21A1.94,1.94,0,0,1,222,134,7.43,7.43,0,0,1,219.86,134.32Z"/><path class="cls-1" d="M195.9,110.39a1.94,1.94,0,0,1-1.7-1c-9.93-18.17-30.77-20.63-31-20.65a1.94,1.94,0,0,1-.27-3.8c22-5.64,46,12.64,49.54,16.24a1.94,1.94,0,0,1-2.78,2.71c-3.75-3.85-19.12-14.61-34.85-16a44.05,44.05,0,0,1,22.74,19.63,2,2,0,0,1-.77,2.63A2,2,0,0,1,195.9,110.39Z"/><path class="cls-1" d="M177.59,113.29A25.77,25.77,0,0,1,166.66,111a3.18,3.18,0,0,1,.08-5.8l.19-.07,18.85-6a1.94,1.94,0,0,1,1.17,3.7L170,108.17c4.36,1.53,11.89,2.53,21.9-2.48a1.93,1.93,0,1,1,1.73,3.46A35.76,35.76,0,0,1,177.59,113.29Z"/><path class="cls-1" d="M224.69,116.87A111.29,111.29,0,0,0,211,99.49a9.18,9.18,0,0,1-2.76,3.21,109.72,109.72,0,0,1,12.32,15.53l-1,2.91a2.38,2.38,0,0,1-2.76,1.54,74.2,74.2,0,0,0-9.75-1.09c-6.64-.44-11.44-.75-14.92-6v0a2.07,2.07,0,0,0-2.88-.54,2.1,2.1,0,0,0-.56,2.92,16.09,16.09,0,0,0,3.89,4.13A57.65,57.65,0,0,0,189,133.05c-3,11.17-6.78,25.09-18.92,30.67a2.13,2.13,0,0,0-1.17,1.43l-4.08,17.26a2,2,0,0,0-.06.48v19.88a2.25,2.25,0,0,0,.16.81l-2.86,1L159.63,164h0a2.09,2.09,0,1,0-4.17.26l.22,3.58c-1.1.1-2.22.17-3.34.22a2.11,2.11,0,0,0,.08,4.21h.09c1.15-.06,2.3-.13,3.42-.22l2.51,42.12a2.08,2.08,0,0,0,2.08,2h11.14a2.11,2.11,0,0,0,1.76-.95,2.15,2.15,0,0,0,.17-2l-4.66-10.85V183.15l3.8-16C185.91,160.45,190,145.3,193,134.17a53.77,53.77,0,0,1,3.31-10,37.13,37.13,0,0,0,10.51,1.69,69.67,69.67,0,0,1,9.23,1,6.55,6.55,0,0,0,7.5-4.3l1.32-3.87A2.13,2.13,0,0,0,224.69,116.87Zm-62.21,95-.18-3,4.27-1.44,1.92,4.46Z"/><path class="cls-1" d="M143.74,167.85a102.52,102.52,0,0,1-27.88-6.56c.61-1.08,1.06-2,1.37-2.7a2.12,2.12,0,0,0-1.07-2.78h0a2.08,2.08,0,0,0-2.74,1.08c-1.53,3.49-6.69,12.68-21.45,22.47A2.13,2.13,0,0,0,91,181.4l3,21.66a1.91,1.91,0,0,0,.14.52l-3.63,1.22L87,180.36a27.38,27.38,0,0,0,5.79-11.52,30.88,30.88,0,0,0-1.48-14.55,40.46,40.46,0,0,1-1.92-11c0-6,2.41-14,13.9-17.83,6.26-2.11,17.75-2,29.92-1.85,16.14.18,32.83.37,40.86-4.7,1.92-1.2,3.1-3.45,4-6a12.92,12.92,0,0,1-4.34-.41,6.3,6.3,0,0,1-1.92,2.85c-7,4.41-23.78,4.22-38.6,4.06-12.53-.14-24.36-.28-31.29,2-10.8,3.65-16.74,11.39-16.74,21.83a43.6,43.6,0,0,0,2.07,12.15,26.94,26.94,0,0,1,1.4,12.65,24.14,24.14,0,0,1-5.41,10.19h0a2.13,2.13,0,0,0-.55,1.75l5,34.33a2.08,2.08,0,0,0,2.06,1.79h11.14a2.06,2.06,0,0,0,1.75-.95,2.13,2.13,0,0,0,.17-2l-4.72-11-2.75-20.06a70.49,70.49,0,0,0,18.21-17.21,106.43,106.43,0,0,0,29.93,7.14h.12a2.11,2.11,0,0,0,.12-4.21Zm-47.92,39.6,1.91,4.47H91.57l-.43-2.9Z"/></svg>