<svg id="Layer_1" data-name="Layer 1" xmlns="http://www.w3.org/2000/svg" viewBox="0 0 622.58 300"><defs><style>.cls-1{fill:#fff;}</style></defs><g id="dybkBv"><path class="cls-1" d="M425.09,227.64h-.76a2.73,2.73,0,0,1-.41,0l-1.25-.2c-.8-.13-1.61-.27-2.42-.34a6.46,6.46,0,0,1-6-4.85l-.08-.29c-.22-.75-.44-1.51-.6-2.27a3.78,3.78,0,0,1-2.36-3.85c0-1.2.07-2.4.1-3.6.1-3,.2-6.18,0-9.2a71.65,71.65,0,0,0-1-8q-.21-1.26-.39-2.52c-.2-1.3-.5-2.6-.82-4l-.17-.69a3.19,3.19,0,0,0-.14-.5c-2.48-3.32-3.73-7.09-4.93-10.74-.21-.64-.43-1.29-.65-1.94l-.31-1-.14-.43-.87,0c-1.73.11-3.45.34-5.27.59s-3.91.53-5.93.64a13.22,13.22,0,0,0-2.63.56,18.86,18.86,0,0,1-3.31.71c-3.5.33-6.93.48-10.11.58-3.72.12-7.12.15-10.4.08a12.24,12.24,0,0,1-3-.51c-.34-.09-.68-.18-1-.25l-2.08-.39-1.31-.24a7,7,0,0,1-1.59-.41l-1.6-.67c-1.6-.67-3.26-1.36-4.87-2.17-.93-.47-1.27-.34-1.82.09l-1.68,1.32c-1.67,1.33-3.35,2.65-5.08,3.9a18,18,0,0,1-2.74,1.56l-1,.52-.32.19a11.37,11.37,0,0,1-1,.55c-.74.33-1.5.63-2.27.91l-1.36.46c-.49.16-1,.32-1.45.5a5.2,5.2,0,0,0-.53.26,8.39,8.39,0,0,1-1.83.73l-.29,1.39a54.84,54.84,0,0,0-1.06,6.16,31.86,31.86,0,0,0,.63,9.51,7.42,7.42,0,0,0,2,3.73c1.49,1.55,2.85,3.2,4,4.62a3.77,3.77,0,0,1,.89,3.88,3.2,3.2,0,0,1-1.56,1.7l2,2.93a2.81,2.81,0,0,1-.36,3.62,7.46,7.46,0,0,1-5.16,2,38.32,38.32,0,0,1-5,0,6,6,0,0,1-4-2A30.68,30.68,0,0,1,313.55,209l-.52-1.95c-1.19-4.43-2.42-9-3.49-13.58a40.32,40.32,0,0,1-.72-4.45c-.12-1-.24-2-.42-3a43.34,43.34,0,0,1-.55-9.89,6.62,6.62,0,0,1,1.62-4,7.85,7.85,0,0,0,1.39-2.78c.09-.26.19-.53.29-.8a26.17,26.17,0,0,1-3.54-7.83c-.22-.9-.43-1.81-.63-2.71-.27-1.19-.55-2.38-.86-3.55a7,7,0,0,0-.49-1.12c-.15-.28-.29-.56-.42-.85a2.8,2.8,0,0,1-.25-1.17v-2.66a2.44,2.44,0,0,1,0-.27l.18-1.84c.13-1.32.27-2.64.38-4,.28-3.14.55-6.25.77-9.37a4,4,0,0,0-.09-.72c0-.33-.1-.66-.12-1l0-.26a4.94,4.94,0,0,1,.17-2.52c.49-1.3,1-2.6,1.54-3.89.4-1,.81-2,1.19-3a10.62,10.62,0,0,1,3.64-4.81,11.81,11.81,0,0,0,1.8-1.85l.36-.43c.41-.47.78-1,1.15-1.46s.72-.94,1.09-1.39a10.88,10.88,0,0,1,5.21-3.48c1.44-.45,2.85-1,4.26-1.54l2.16-.81,2.45-.89c1.53-.54,3.06-1.09,4.57-1.69a25.93,25.93,0,0,1,14.54-1.39,9,9,0,0,0,2.09,0l.66,0a21.8,21.8,0,0,1,5.09.52l.51.09a3.57,3.57,0,0,0,2.25-.11,13.08,13.08,0,0,1,8.62-.46,2.07,2.07,0,0,0,1.38,0,7.86,7.86,0,0,1,3.5-.17l.68.08c1,.06,1.92.14,2.88.22,1.36.1,2.71.21,4.07.28,2,.11,4.06.19,6.09.28,2.46.1,4.91.2,7.36.34a54.46,54.46,0,0,0,14-1.13c4.61-.94,10.11-1.75,15.87-.62a11.67,11.67,0,0,0,1.45.14l.79.06a3.1,3.1,0,0,0,2.12-.6l.52-.36a11.88,11.88,0,0,1,1.93-1.2,39.48,39.48,0,0,1,4.22-1.69,1.59,1.59,0,0,0,.38-.16c1-1.56,2.08-3,3.13-4.39-1.06-1.56-2.12-3.12-3.16-4.69a16.78,16.78,0,0,1-1.11-2A3.68,3.68,0,0,1,437.71,81a2.88,2.88,0,0,1,1.05-.2h1.89a2.8,2.8,0,0,1,1.07.21l3.09,1.26c2.44,1,4.87,2,7.33,2.93,1.66.62,3.38,1.1,5.2,1.61l.78.22c.59-.22,1.14-.45,1.69-.68A35,35,0,0,1,463.39,85a13,13,0,0,1,11.2,1.71l3,2a138.77,138.77,0,0,1,15.23,11.43c1.81,1.63,3.52,3.55,3.84,6.49,0,.1,0,.2,0,.3v2.66a2.92,2.92,0,0,1-.34,1.36c-.24.43-.47.87-.7,1.32a37.61,37.61,0,0,1-1.85,3.28,7.14,7.14,0,0,1-6.19,3.31h-.07a16,16,0,0,1-1.7-.08,13.54,13.54,0,0,0-5.29.45,34.4,34.4,0,0,1-4.22.87,9,9,0,0,1-.23,1.2c-1.28,4.91-4,8.18-8.19,9.71-.24,1.46-.36,2.92-.44,4.07a7.79,7.79,0,0,1-1.79,4.69,3.4,3.4,0,0,0-.52.75c-.42,1-.82,2-1.22,3s-.84,2.11-1.28,3.15a5.73,5.73,0,0,1-1.08,1.63l-.19.24-.2.23a7.72,7.72,0,0,1-2.92,3.4c-.49.6-1,1.17-1.57,1.75a14.06,14.06,0,0,0-2.54,3.27l-.72,1.54c-.57,1.25-1.15,2.51-1.8,3.71a24.42,24.42,0,0,1-2.11,3.13l-.3.4a8.92,8.92,0,0,1-.93,1,2.65,2.65,0,0,0-.33.34,8.17,8.17,0,0,1-6.39,3.65l-2.5.28c-2,.21-4,.43-6,.69a14.06,14.06,0,0,0-2.73.66,1.55,1.55,0,0,0-.51.33c-1.63,1.87-2.76,3.52-3,5.5-.18,1.67-.4,3.34-.62,5-.35,2.67-.71,5.44-.92,8.14-.31,3.91.79,7.89,3.35,12.17,1,1.76,2.16,3.47,3.28,5.19.54.83,1.08,1.66,1.61,2.49.14.24.28.47.42.74l.16.3a2.84,2.84,0,0,1-2.29,4.19l-1.92.13,2.44,5a2.83,2.83,0,0,1-2.36,4.06l-.67.05c-.52,0-1,.08-1.47.08a3.49,3.49,0,0,1-.95.92A2.52,2.52,0,0,1,425.09,227.64Zm3.12-2.41ZM416.94,215a5.35,5.35,0,0,1,2.21,3.49c.13.62.32,1.24.5,1.86l.08.3c.16.53.27.71,1,.78.94.09,1.88.24,2.81.39l.17,0a4.11,4.11,0,0,1,1.7-1.1l-2.52-5.2a2.82,2.82,0,0,1,2.36-4.05l1.38-.1c-1-1.54-2-3.08-2.93-4.66-3.19-5.33-4.54-10.41-4.13-15.53.22-2.84.59-5.68.95-8.42.21-1.64.42-3.28.61-4.92.4-3.64,2.32-6.28,4.34-8.59a6.91,6.91,0,0,1,2.9-1.95,19.35,19.35,0,0,1,3.86-.93c2-.27,4.09-.49,6.14-.71l2.48-.28c1.57-.17,1.95-.58,2.22-1a7.41,7.41,0,0,1,1.18-1.4,2.81,2.81,0,0,0,.34-.35l.31-.42a20.25,20.25,0,0,0,1.66-2.43c.6-1.09,1.11-2.23,1.64-3.37.24-.54.49-1.08.74-1.61a18.77,18.77,0,0,1,3.53-4.72c.53-.56,1.05-1.11,1.53-1.71a3.57,3.57,0,0,1,.9-.78c.73-.49.9-.77,1-1a3.54,3.54,0,0,1,1-1.58c.06-.08.18-.23.32-.38l.22-.26c.34-.87.75-1.89,1.15-2.9s.83-2.11,1.27-3.15a8.59,8.59,0,0,1,1.44-2.25,2.15,2.15,0,0,0,.44-1.4,47.14,47.14,0,0,1,.64-5.4,4.86,4.86,0,0,1,3.11-3.46c2.64-.84,4.2-2.68,5.05-6a7.49,7.49,0,0,0,.15-1.51c0-.33,0-.64.05-.91a2.83,2.83,0,0,1,2.3-2.55l2-.34a33.59,33.59,0,0,0,3.85-.77,19.18,19.18,0,0,1,7.45-.65,8.62,8.62,0,0,0,1.14.06,1.44,1.44,0,0,0,1.46-.74c.56-.86,1.05-1.8,1.58-2.81l.4-.77v-1.77c-.13-.84-.65-1.57-2-2.77a134.15,134.15,0,0,0-14.62-11l-3-2a7.21,7.21,0,0,0-6.4-.94,29.32,29.32,0,0,0-3,1.12c-.67.28-1.34.55-2,.81a5,5,0,0,1-3,.2l-1.15-.32c-1.86-.52-3.78-1.06-5.67-1.77-2.47-.92-4.92-1.93-7.37-2.94.7,1,1.41,2.09,2.13,3.13,1.63,2.37,1.18,3.79-.23,5.58q-1.67,2.11-3.26,4.52a6,6,0,0,1-3.33,2.43,32.91,32.91,0,0,0-3.6,1.44,9.18,9.18,0,0,0-1,.67c-.21.16-.43.31-.65.46a8.85,8.85,0,0,1-5.75,1.54l-.67-.05a15.22,15.22,0,0,1-2.19-.24c-4.78-.93-9.58-.21-13.65.62a59.79,59.79,0,0,1-15.48,1.23c-2.43-.13-4.86-.23-7.28-.33l-6.16-.28c-1.41-.07-2.82-.19-4.22-.3l-2.81-.22c-.32,0-.65-.06-1-.1a5.36,5.36,0,0,0-1.05-.07,7.65,7.65,0,0,1-4.6.08,7.43,7.43,0,0,0-4.94.2,9.26,9.26,0,0,1-5.49.47l-.53-.1a18.31,18.31,0,0,0-3.77-.43l-.59,0a13.18,13.18,0,0,1-3.5-.11,20.35,20.35,0,0,0-11.41,1.1c-1.57.62-3.16,1.19-4.74,1.76l-2.41.86-2.09.79c-1.51.58-3,1.16-4.57,1.65a5.15,5.15,0,0,0-2.55,1.67c-.32.4-.63.8-.93,1.21-.45.6-.9,1.19-1.39,1.75l-.33.39a17.29,17.29,0,0,1-2.74,2.74,4.91,4.91,0,0,0-1.74,2.31c-.39,1-.81,2-1.22,3.07s-.93,2.27-1.37,3.42c0,0,0,.07,0,.1q0,.28.06.54c0,.2,0,.39.08.59a9,9,0,0,1,.14,2c-.22,3.15-.5,6.3-.77,9.45-.12,1.38-.26,2.72-.39,4.06l-.17,1.69v1.87l.06.12a11.19,11.19,0,0,1,.91,2.19c.33,1.25.62,2.51.91,3.77.2.86.39,1.73.61,2.59A20.71,20.71,0,0,0,316,165.7a4.49,4.49,0,0,1,.69,4.21c-.2.45-.37.92-.54,1.39a12.75,12.75,0,0,1-2.57,4.73,1.84,1.84,0,0,0-.1.41,37.37,37.37,0,0,0,.46,8.61c.2,1.1.34,2.22.47,3.33a35.29,35.29,0,0,0,.61,3.83c1.06,4.48,2.27,9,3.45,13.41l.52,2a25.25,25.25,0,0,0,5.06,9,2.14,2.14,0,0,0,.27.06,27.7,27.7,0,0,0,3.16.05l-2.26-3.3a2.84,2.84,0,0,1-.24-2.8,2.88,2.88,0,0,1,1.48-1.42c-.49-.56-1-1.12-1.51-1.66a13.12,13.12,0,0,1-3.46-6.48,37.6,37.6,0,0,1-.73-11.22A60.66,60.66,0,0,1,322,183l.32-1.59a5,5,0,0,1,4.23-4.16A3.66,3.66,0,0,0,327,177a12,12,0,0,1,1.1-.5c.56-.22,1.13-.4,1.69-.59.4-.13.81-.26,1.21-.41q1-.34,1.89-.75c.15-.07.28-.16.42-.24s.36-.22.54-.31q.62-.33,1.23-.63a12.89,12.89,0,0,0,1.91-1.06c1.66-1.2,3.28-2.47,4.89-3.75l1.7-1.34a7,7,0,0,1,7.86-.69c1.43.72,2.92,1.34,4.49,2l2.08.75,1.26.23c.72.13,1.45.26,2.17.41.45.09.91.2,1.36.32a7.72,7.72,0,0,0,1.65.33c3.18.06,6.48,0,10.1-.08,3.09-.1,6.41-.24,9.74-.56a14.5,14.5,0,0,0,2.32-.52,17.39,17.39,0,0,1,3.85-.76c1.8-.1,3.59-.35,5.49-.6s3.74-.51,5.68-.63c4.14-.24,5.58.67,6.75,4.31l.28.88c.22.66.45,1.33.67,2,1.11,3.37,2.16,6.55,4.13,9.2a6.55,6.55,0,0,1,1.08,2.54l.16.68c.33,1.43.68,2.91.91,4.44.12.82.25,1.64.38,2.46a79.44,79.44,0,0,1,1,8.61c.15,3.24.05,6.49-.05,9.64C417,213.26,417,214.13,416.94,215ZM324,216.53Zm-12.47-48.89h0Zm155.69-36.42h0ZM458.51,87.1Z"/></g><path class="cls-1" d="M132.64,132.89a2.17,2.17,0,0,1-1.56-.66c-7-7.28-5.38-15.77-3.52-19.24a2.19,2.19,0,0,1,2.19-1.13,2.16,2.16,0,0,1,1.83,1.65c1.57,6.75,13.31,6.74,13.41,6.69a2.19,2.19,0,0,1,2.21,2.12,2.15,2.15,0,0,1-2.12,2.21c-.51,0-9.74.13-14.8-4.83a12.79,12.79,0,0,0,3.92,9.52,2.16,2.16,0,0,1-1.56,3.67Z"/><path class="cls-1" d="M288,128.83c-5.73,0-9.54-6.42-11-10.66a2.17,2.17,0,0,1,4.1-1.41c0,.08,2.42,6.68,6.13,7.61l-.81-5.73a2.17,2.17,0,0,1,4.29-.62l1.15,8.08a2.16,2.16,0,0,1-1.54,2.38A8.19,8.19,0,0,1,288,128.83Z"/><path class="cls-1" d="M261.22,102.05a2.17,2.17,0,0,1-1.9-1.13c-11.11-20.33-34.42-23.08-34.65-23.11a2.17,2.17,0,0,1-.31-4.25c24.59-6.3,51.49,14.15,55.42,18.17a2.17,2.17,0,1,1-3.1,3c-4.2-4.31-21.4-16.35-39-17.88a49.15,49.15,0,0,1,25.43,22,2.17,2.17,0,0,1-1.9,3.21Z"/><path class="cls-1" d="M240.74,105.29a28.85,28.85,0,0,1-12.23-2.6,3.56,3.56,0,0,1,.09-6.49l.21-.08,21.09-6.67a2.17,2.17,0,0,1,1.31,4.13l-18.91,6c4.86,1.72,13.29,2.83,24.49-2.77a2.16,2.16,0,1,1,1.94,3.87A40,40,0,0,1,240.74,105.29Z"/><path class="cls-1" d="M293.44,109.3a124.3,124.3,0,0,0-15.27-19.44,10.25,10.25,0,0,1-3.09,3.58,124.87,124.87,0,0,1,13.79,17.38l-1.12,3.25a2.65,2.65,0,0,1-3.08,1.73,81.8,81.8,0,0,0-10.92-1.22c-7.42-.49-12.79-.84-16.69-6.66v0a2.32,2.32,0,0,0-3.22-.61,2.37,2.37,0,0,0-.63,3.27,18,18,0,0,0,4.35,4.62,65,65,0,0,0-4.08,12.22c-3.38,12.5-7.58,28.07-21.17,34.32a2.39,2.39,0,0,0-1.31,1.6l-4.57,19.3a2.57,2.57,0,0,0-.06.55v22.25a2.37,2.37,0,0,0,.18.9l-3.2,1.07L220.64,162h0a2.33,2.33,0,1,0-4.66.29l.25,4c-1.23.11-2.49.19-3.75.24a2.36,2.36,0,0,0,.1,4.71h.1c1.28-.06,2.57-.14,3.82-.24l2.81,47.12a2.34,2.34,0,0,0,2.33,2.21h12.47a2.33,2.33,0,0,0,2-1.07,2.39,2.39,0,0,0,.19-2.23l-5.21-12.14V183.46l4.25-18c14.75-7.45,19.33-24.4,22.7-36.85a61.74,61.74,0,0,1,3.7-11.25,41.61,41.61,0,0,0,11.77,1.89,78.1,78.1,0,0,1,10.33,1.15,8,8,0,0,0,1.47.14,7.28,7.28,0,0,0,6.92-5l1.47-4.33A2.38,2.38,0,0,0,293.44,109.3Zm-69.6,106.34-.21-3.38,4.78-1.61,2.14,5Z"/><path class="cls-1" d="M202.87,166.34a114.33,114.33,0,0,1-31.2-7.34,33.2,33.2,0,0,0,1.53-3,2.36,2.36,0,0,0-1.19-3.1h0a2.33,2.33,0,0,0-3.06,1.2c-1.71,3.91-7.49,14.19-24,25.15a2.37,2.37,0,0,0-1,2.29l3.33,24.24a2.31,2.31,0,0,0,.16.57l-4.06,1.37-4-27.35a30.62,30.62,0,0,0,6.47-12.88,34.5,34.5,0,0,0-1.66-16.28A45.32,45.32,0,0,1,142,138.84c0-6.72,2.7-15.63,15.55-20,7-2.36,19.86-2.21,33.48-2.06,18.06.2,36.73.41,45.71-5.26,2.15-1.35,3.47-3.86,4.52-6.71a14.76,14.76,0,0,1-4.85-.46,7,7,0,0,1-2.15,3.18c-7.82,4.94-26.61,4.73-43.18,4.54-14-.15-27.27-.3-35,2.3-12.08,4.08-18.73,12.75-18.73,24.43a48.65,48.65,0,0,0,2.31,13.59,30,30,0,0,1,1.57,14.15A26.89,26.89,0,0,1,135.17,178h0a2.34,2.34,0,0,0-.61,2l5.61,38.4a2.34,2.34,0,0,0,2.31,2h12.46a2.3,2.3,0,0,0,2-1.06,2.39,2.39,0,0,0,.19-2.23l-5.28-12.31-3.08-22.44a78.76,78.76,0,0,0,20.37-19.26,118.9,118.9,0,0,0,33.5,8h.13a2.35,2.35,0,0,0,.14-4.7Zm-53.63,44.31,2.15,5h-6.9l-.48-3.24Z"/></svg>