<svg id="Layer_1" data-name="Layer 1" xmlns="http://www.w3.org/2000/svg" viewBox="0 0 622.58 300"><defs><style>.cls-1{fill:#fff;}</style></defs><g id="Grupo_1304" data-name="Grupo 1304"><g id="Unión_2" data-name="Unión 2"><path class="cls-1" d="M71.72,238a4.1,4.1,0,0,1-3.93-2.88l-16.39-53a4.09,4.09,0,0,1,.12-2.72L57.3,165a12.15,12.15,0,0,0,0-9.18l-5.78-14.26a4,4,0,0,1-.3-1.52v-8.57a16.37,16.37,0,0,1-12.8-15.9V111.5a4.11,4.11,0,0,1,4.11-4.11h0a4.11,4.11,0,0,1,4.11,4.11v4.07a8.15,8.15,0,0,0,4.6,7.33V95.16A28.66,28.66,0,0,1,79.92,66.59H211.08v.15L218.22,64a24.11,24.11,0,0,1,22.25,2.15l10.66-3.52A23.45,23.45,0,0,1,269.4,66a20.45,20.45,0,0,1,11.65-3.47h12a4.09,4.09,0,0,1,4.09,4.09c0,7.7-1.17,17.15-10.55,22.17l-1.22.57,9.56,17.14a17,17,0,0,1-14.84,25.38H256.46a4.13,4.13,0,0,0-3.18,1.51l-29,35.55a4,4,0,0,0-.92,2.56v62.38a4.09,4.09,0,0,1-4.1,4.08h-16.4a4.09,4.09,0,0,1-4-3.29L188,180a4.09,4.09,0,0,0-4.19-3.21H93.91l-9.6,9.55,7.86,46.89a4.1,4.1,0,0,1-3.38,4.7,5,5,0,0,1-.67,0Zm-12.3-98.71,5.48,13.49a20.23,20.23,0,0,1,0,15.29l-5.24,13L74.74,229.8h8.53l-7.39-44.21A4.08,4.08,0,0,1,77,182L98.5,160.64a20.46,20.46,0,0,0,6-14.45V140h8.22v6.16a28.68,28.68,0,0,1-8.42,20.22l-2.18,2.18h81.56A12.4,12.4,0,0,1,196,178.33l10.25,51.47h8.93V171.49a12.26,12.26,0,0,1,2.76-7.7l29-35.53a12.24,12.24,0,0,1,9.53-4.53h23.64a8.84,8.84,0,0,0,7.7-13.24L269.13,77a15.24,15.24,0,0,0-15.77-6.53l-12.3,4.07a4,4,0,0,1-3.81-.66,15.93,15.93,0,0,0-16-2.29l-7.18,2.75c3.42,6.79,7,8.22,9.59,8.57h7.93v8.17h-8.22l-.58,0c-7.66-1-13.42-6.3-17.55-16.28H79.9a20.48,20.48,0,0,0-20.48,20.4v27.16a8.13,8.13,0,0,0,3.6-6.75v-4.08a16.37,16.37,0,0,1,16.4-16.32h8.21a4.07,4.07,0,0,1,4.08,4.08h0a4.08,4.08,0,0,1-4.08,4.08H79.41a8.19,8.19,0,0,0-8.21,8.16v4.08a16.35,16.35,0,0,1-11.78,15.66ZM275.48,71.83c.23.31.45.63.66,1l5.25,9.41,1.52-.71c3.57-1.91,5.36-5.07,5.88-10.81h-8.4A11,11,0,0,0,275.48,71.83Z"/></g></g><path class="cls-1" d="M572.39,89.35l1.21-.57c9.38-5,10.56-14.47,10.56-22.17a4.1,4.1,0,0,0-4.1-4.09h-12A20.44,20.44,0,0,0,556.41,66a23.45,23.45,0,0,0-18.27-3.36l-10.66,3.52A24.12,24.12,0,0,0,505.23,64l-7.14,2.74v-.15H366.93a28.68,28.68,0,0,0-28.69,28.57V122.9a8.16,8.16,0,0,1-4.59-7.33V111.5a4.11,4.11,0,1,0-8.22,0v4.07a16.36,16.36,0,0,0,12.8,15.9V140a4,4,0,0,0,.3,1.52l5.78,14.26a12.15,12.15,0,0,1,0,9.18l-5.78,14.33a4,4,0,0,0-.12,2.72l16.39,53a4.09,4.09,0,0,0,3.93,2.88h16.4a5.16,5.16,0,0,0,.67,0,4.09,4.09,0,0,0,3.37-4.7l-7.85-46.89,9.6-9.55h89.86A4.09,4.09,0,0,1,475,180l10.89,54.69a4.08,4.08,0,0,0,4,3.29h16.4a4.1,4.1,0,0,0,4.1-4.08V171.49a4,4,0,0,1,.92-2.56l29-35.55a4.13,4.13,0,0,1,3.18-1.51H567.1A17,17,0,0,0,582,106.49Zm-5-18.68h8.41c-.52,5.74-2.31,8.9-5.88,10.81l-1.52.71-5.25-9.41c-.22-.32-.43-.64-.66-1A11,11,0,0,1,567.39,70.67Zm-.29,53.06H543.46a12.27,12.27,0,0,0-9.54,4.53l-29,35.53a12.2,12.2,0,0,0-2.76,7.7V229.8h-8.93L483,178.33a12.34,12.34,0,0,0-2-4.47h.09c-.78-6-5.67-7.27-5.05-12.9.82-7.37,20.09-11.82,18.62-23.6-.64-5.05-12.5-12.17-21.1-11.17-11.86,1.4-16.14,16.5-27.29,23-7.14,4.12-19.47,5.54-19.86,15.49a8.05,8.05,0,0,0,.8,3.95H389.14l2.18-2.18a28.63,28.63,0,0,0,7.93-15.16c7.2.22,15.87-2,18-4.38,1.85-2.07.76-5.59,2.59-9.83,1.48-3.45,5.63-6,6.21-8.82,2.4-11.39-8.32-22.48-12.43-22.3-5.24.22-7.37,4-13,4.15-8.83.28-19.52-3.15-20.2,4.67-.28,2.92,2.48,5,2.57,5.18,1.39,2,2.46,3.28,3.12,5.19,3.14,9.17-.23,19.83,4.66,23.84.15.11.33.2.49.31a20.48,20.48,0,0,1-5.75,11.37L364,182a4.05,4.05,0,0,0-1.14,3.57l7.39,44.21h-8.53L346.67,181l5.23-13a20.14,20.14,0,0,0,0-15.29l-5.47-13.49v-8a16.36,16.36,0,0,0,11.78-15.66v-4.08a8.18,8.18,0,0,1,8.21-8.16h8.22a4.08,4.08,0,1,0,0-8.16h-8.21A16.37,16.37,0,0,0,350,111.49v4.08a8.13,8.13,0,0,1-3.6,6.75V95.16a20.48,20.48,0,0,1,20.48-20.4h48.7c0,1.76-2.52,2.86-2.32,6.33.62,9.84,20.13,8,23.31,17,1.12,3.21.17,7.21,1.15,10.21,4.54,14.24,34.31,9.71,39.2-.54,1.42-3,1.42-7.45,3.41-11.37,3.13-6.16,9.32-8.07,9.67-13.06.26-4-1.58-6.57-4.08-8.62h6.29c4.14,10,9.9,15.31,17.55,16.28l.59,0h8.21V82.91h-7.92c-2.59-.35-6.17-1.78-9.59-8.57l7.18-2.75a15.94,15.94,0,0,1,16,2.29,4,4,0,0,0,3.81.66l12.3-4.07A15.24,15.24,0,0,1,556.14,77l18.66,33.49a8.84,8.84,0,0,1-7.7,13.24Z"/></svg>