<svg xmlns="http://www.w3.org/2000/svg" width="60.1" height="44.239" viewBox="0 0 60.1 44.239"><path d="M507.309,41.68c2.63,1.552,5.279,3.07,7.89,4.651,6.567,3.988,13.131,7.969,19.661,12.016a4.346,4.346,0,0,0,5.068-.063c8.726-5.386,17.5-10.7,26.257-16.038.33-.2.672-.368,1.191-.65v1.461c0,6.9-.085,13.795.031,20.686a9.148,9.148,0,0,1-9.49,9.559c-13.835-.129-27.671-.041-41.509-.05a8.646,8.646,0,0,1-8.9-7.211,1.368,1.368,0,0,0-.2-.33Z" transform="translate(-507.309 -29.062)" fill="#fff"/><path d="M507.411,44.449c1.106-4.377,4.343-6.828,9.119-6.834q19.08-.028,38.163,0c1.068,0,2.137,0,3.208,0,4.522.006,7.648,2.35,8.959,6.784-.245.182-.5.4-.792.581Q552.1,53.529,538.12,62.068a1.474,1.474,0,0,1-1.794.135q-14.239-8.753-28.51-17.452c-.145-.091-.277-.211-.405-.3" transform="translate(-507.09 -37.606)" fill="#fff"/></svg>