<svg xmlns="http://www.w3.org/2000/svg" width="62.192" height="62.189" viewBox="0 0 62.192 62.189"><path d="M544.686,44.316c1.16-3,3.651-4.924,5.961-6.866,3.513-2.944,9.659-.826,11.209,3.755a75.088,75.088,0,0,1,2.354,8.638,6.757,6.757,0,0,1-1.738,5.885,3.5,3.5,0,0,1-.685.679c-2.143,1.376-2.08,3.051-1.141,5.244A29.624,29.624,0,0,0,578.89,78.739a1.781,1.781,0,0,0,2.256-.553c1.615-1.879,3.441-3.472,6.087-3.676a3.044,3.044,0,0,1,.961-.053c3.406.924,6.985,1.471,10.162,2.907a7.275,7.275,0,0,1,1.731,12.179,16.938,16.938,0,0,0-1.763,1.757,8.193,8.193,0,0,1-4.16,2.768h-4.145c-1.857-.273-3.739-.434-5.568-.842-20.227-4.49-33.116-16.714-38.433-36.78-.666-2.508-.9-5.134-1.332-7.7Z" transform="translate(-544.686 -31.879)" fill="#fff"/><path d="M557.393,34.752c1.873.393,3.771.685,5.615,1.2a30.982,30.982,0,0,1,22.348,26.225,4,4,0,0,0,.229.77V65.71h-3.831A27.483,27.483,0,0,0,554.625,38.6V34.752Z" transform="translate(-523.394 -34.752)" fill="#fff"/><path d="M554.609,42.153V38.489a19.244,19.244,0,0,1,19.3,19.215h-3.67c-1.087-9.32-6.259-14.511-15.626-15.551" transform="translate(-523.428 -26.756)" fill="#fff"/><path d="M562.311,49.7h-3.733c-.44-1.889-1.367-3.359-3.51-3.7-.2-.031-.434-.54-.453-.836-.053-.958-.022-1.926-.022-2.878,3.2-.628,7.736,2.7,7.718,7.409" transform="translate(-523.482 -18.765)" fill="#fff"/></svg>