<svg xmlns="http://www.w3.org/2000/svg" viewBox="0 0 264 264"><defs><style>.cls-1{fill:#fff;}.cls-2{fill:#00d95f;}</style></defs><title>Asset 2</title><g id="Layer_2" data-name="Layer 2"><g id="Layer_1-2" data-name="Layer 1"><circle class="cls-1" cx="132" cy="132" r="131.5"/><path class="cls-1" d="M132,1a131,131,0,0,1,92.63,223.63A131,131,0,1,1,39.37,39.37,130.15,130.15,0,0,1,132,1m0-1A132,132,0,1,0,264,132,132,132,0,0,0,132,0Z"/><path class="cls-2" d="M199.56,155.34A9.79,9.79,0,0,0,196.05,142a141.09,141.09,0,0,0-45-16.43,190.79,190.79,0,0,0-41.75-3c-24.78.81-42.6,5.65-43.35,5.86a9.78,9.78,0,0,0,5.19,18.86,186.92,186.92,0,0,1,39.3-5.19c20.38-.62,50.07,1.79,75.76,16.81a9.8,9.8,0,0,0,13.38-3.51Z"/><path class="cls-2" d="M177.08,191.3a8.25,8.25,0,0,0,4.17-15.38,118.89,118.89,0,0,0-38-13.87A160.93,160.93,0,0,0,108,159.5a172.62,172.62,0,0,0-36.59,4.94,8.26,8.26,0,0,0,4.38,15.92A159.46,159.46,0,0,1,109,176c17.21-.52,42.27,1.52,64,14.19A8.17,8.17,0,0,0,177.08,191.3Z"/><path class="cls-2" d="M61.83,110.46c.79-.22,80-21.45,141.12,14.26A12,12,0,0,0,215.06,104a172.65,172.65,0,0,0-55.23-20.16,234.17,234.17,0,0,0-51.21-3.71c-30.39,1-52.25,6.94-53.17,7.19a12,12,0,0,0,6.38,23.13Z"/></g></g></svg>