<svg xmlns="http://www.w3.org/2000/svg" width="73.529" height="81.55" viewBox="0 0 73.529 81.55"><path d="M748.466,48.831l-25.927-14.97a10.845,10.845,0,0,0-10.841,0l-25.927,14.97a10.843,10.843,0,0,0-5.417,9.383V88.151a10.849,10.849,0,0,0,5.417,9.389L711.7,112.506a10.83,10.83,0,0,0,10.841,0L748.466,97.54a10.843,10.843,0,0,0,5.417-9.389V58.214a10.837,10.837,0,0,0-5.417-9.383M733.48,90.162a6.634,6.634,0,0,1-6.611,5.731c-6.438.075-12.883.091-19.322-.006a6.9,6.9,0,0,1-6.721-6.828c-.424-7.318,2.115-13.1,8.663-17.009a11.882,11.882,0,0,1-.528-17.22,11.752,11.752,0,0,1,16.091-.39c5.16,4.638,5.15,11.268.05,17.477a51.19,51.19,0,0,1,4.035,3.387c4.047,4.164,5.031,9.336,4.342,14.857" transform="translate(-680.354 -32.41)" fill="#fff"/></svg>