<svg id="Layer_1" data-name="Layer 1" xmlns="http://www.w3.org/2000/svg" viewBox="0 0 300 300"><defs><style>.cls-1{fill:#ba6831;}</style></defs><g id="jdii5L"><path class="cls-1" d="M109.81,233.9a8,8,0,0,1-2.9-.55,5.24,5.24,0,0,1-2.66-2.32,13.76,13.76,0,0,1-1.53-5.24,32.14,32.14,0,0,0-3.08-10c-1.32-2.81-2.59-5.64-3.86-8.47L95.2,206a73.43,73.43,0,0,1-4.26-12.89,16.42,16.42,0,0,0-1.14-3.31c-.11.2-.22.42-.34.68a41.61,41.61,0,0,0-2.21,6.66A110.19,110.19,0,0,0,85,209.24c-.29,2-.61,4-1,6.06a23.41,23.41,0,0,1-.68,2.41c-.13.39-.25.79-.37,1.19l-.09.32c-.25.9-.51,1.81-.69,2.72a2.64,2.64,0,0,0,.53,2.58,5.88,5.88,0,0,1,1.16,1.85,3.3,3.3,0,0,1-1.57,4.37,9,9,0,0,1-6,1A5.21,5.21,0,0,1,72.15,227a8.49,8.49,0,0,1,.86-4.43,20.45,20.45,0,0,0,1.55-5.43c.52-2.9.89-5.52,1.15-8,.38-3.73.67-7.47,1-11.2q.27-3.49.57-7c.16-1.69.38-3.39.64-5.07a12.15,12.15,0,0,1,2.57-5.81c.37-.46.76-.91,1.16-1.36h0a3.37,3.37,0,0,1-2.5-2.81,20.32,20.32,0,0,1-.35-5.93c.07-1.51.17-3,.28-4.54a21.26,21.26,0,0,1,1-5.87,10.71,10.71,0,0,1,1.5-3,10.07,10.07,0,0,0,2-5c.33-2.86.62-5.73.92-8.59l.05-.53A38.7,38.7,0,0,1,86.68,132a23.53,23.53,0,0,1,13.41-13.21,38.67,38.67,0,0,1,8.66-2.25,87.71,87.71,0,0,1,9.33-.71h.33c4.68-.19,8.82-.22,12.68-.1a174.27,174.27,0,0,1,26.2,2.49c1.19.21,2.37.47,3.55.73,1,.22,2,.44,3,.63a17.22,17.22,0,0,0,6.65.11,8.23,8.23,0,0,0,6.11-4.42,42.6,42.6,0,0,0,4.08-10.66,13.53,13.53,0,0,0,.26-5.33,6.55,6.55,0,0,0-1.72-3.35l-.6-.63c-1.13-1.19-2.27-2.39-3.33-3.64A25,25,0,0,1,170,80.35l-.06-.28a26.68,26.68,0,0,1-.84-6.36,10.43,10.43,0,0,1,.21-1.81,5,5,0,0,1,4.91-3.9h0a13,13,0,0,1,3.78.64,19.07,19.07,0,0,1,9.19,6.18A24.93,24.93,0,0,1,192.5,85.6a24.24,24.24,0,0,1,5.4.43l.27-1c.74-2.66,1.46-5.33,2.18-8A18.21,18.21,0,0,1,206,68a9.21,9.21,0,0,1,2.44-1.55,3.48,3.48,0,0,1,3.4.12,3.56,3.56,0,0,1,1.58,3.09,12.12,12.12,0,0,1-.09,1.48l-.15,1.8c-.12,1.68-.25,3.36-.36,5a13.75,13.75,0,0,1-3.11,8.07c-1.86,6.27,1.87,9.12,8,13.2,4.55,3,9.71,6.41,10.13,12.44a2.34,2.34,0,0,1-.11.87c-.53,1.62-1.63,5-5,6.69-2.68,1.32-6.17,1.25-10.39-.21-2-.45-3.86-1-5.55-1.43-2.49-.69-5.89-1.62-6.69-1.27l-.38,1.85c-1.67,6.45-3.4,13.11-7.12,19l-1.25,2c-4.5,7.15-9.14,14.55-15.32,20.7a25.21,25.21,0,0,1-4.45,3.73,22.91,22.91,0,0,1-2.7,1.42l-.15,1.15c-.1.78-.2,1.57-.28,2.35l-.24,2.32c-.36,3.4-.71,6.8-1,10.21q-.52,5.85-.89,11.71c-.28,4.56-.57,9.4-.73,14.17-.12,3.49-.08,7.06,0,10.39a46.33,46.33,0,0,0,.44,4.83,9.36,9.36,0,0,0,.3,1.24c.09.3.17.6.25.91l.09.37a11.13,11.13,0,0,1,.36,1.79,3.5,3.5,0,0,1-2.67,3.81c-.19.05-.39.09-.58.12a9.62,9.62,0,0,1-5.83-.78,5.51,5.51,0,0,1-3-3.35,4.88,4.88,0,0,1,.59-4l.23-.4a5.84,5.84,0,0,1-3.33.56,4,4,0,0,1-3.5-3.68,9.77,9.77,0,0,1,.13-2.14,10.81,10.81,0,0,1,.62-2.22,16.42,16.42,0,0,0,1-4.89c.44-4.5.73-8,1-11.2.34-5.12.48-10.1.43-14.81,0-3.06-.09-5.82-.25-8.61a43.47,43.47,0,0,0-1.06-8.07,33.37,33.37,0,0,1-7.54,2.44,49.26,49.26,0,0,1-10,1h0a29.13,29.13,0,0,1-10.55-2.12,17,17,0,0,0-4.79-1.18,6.68,6.68,0,0,0-1.47.07,1.09,1.09,0,0,0-.66.4q-2.27,2.59-4.54,5.16a48.68,48.68,0,0,0-4.52,5.75,23.06,23.06,0,0,0-3.27,8.92,37.52,37.52,0,0,0-.45,8.07,31.61,31.61,0,0,0,2.72,11.47,62.22,62.22,0,0,1,3.4,10.83c.39,1.62.81,3.23,1.29,4.82a9.13,9.13,0,0,0,.81,1.74,1.2,1.2,0,0,0,.45.47,13.29,13.29,0,0,1,1.9,1.39,6,6,0,0,1,1.22,1.54,4.1,4.1,0,0,1,.37,3.39,4,4,0,0,1-2.39,2.36A7.75,7.75,0,0,1,109.81,233.9ZM107.56,227a7.32,7.32,0,0,0,.67,1.77.59.59,0,0,0,.33.29,3.3,3.3,0,0,0,1.74.21,7.75,7.75,0,0,0-1-.72A5.68,5.68,0,0,1,107.56,227Zm-28,1.09h0Zm-2.1-4.44c-.12.3-.25.59-.39.88a3.79,3.79,0,0,0-.41,2,.7.7,0,0,0,.49.66,3.68,3.68,0,0,0,1.73-.09A6.65,6.65,0,0,1,77.5,223.68Zm83.61-4.08a12.24,12.24,0,0,1-1.7,5.13c-.11.18-.09.27-.08.3a1,1,0,0,0,.55.52,4.77,4.77,0,0,0,2.38.47s0-.09,0-.14l-.12-.45c-.06-.25-.13-.49-.19-.73a11.61,11.61,0,0,1-.44-1.9C161.34,221.74,161.2,220.68,161.11,219.6Zm-6.58-5.23a13.08,13.08,0,0,1-.64,1.85,6.21,6.21,0,0,0-.33,1.23l-.06.47a1,1,0,0,0,.58-.49A4.59,4.59,0,0,0,154.53,214.37ZM89.94,184.55a3.58,3.58,0,0,1,2.71,1.31,8.56,8.56,0,0,1,1.16,1.78,21.54,21.54,0,0,1,1.57,4.44,68.24,68.24,0,0,0,4,12.09l.58,1.3q1.23,2.73,2.47,5.46c-.28-.77-.58-1.53-.91-2.28a36.2,36.2,0,0,1-3.12-13.12,42,42,0,0,1,.51-9,27.72,27.72,0,0,1,4-10.65,53.7,53.7,0,0,1,4.93-6.28q2.27-2.55,4.5-5.12a5.64,5.64,0,0,1,3.35-1.91,11.16,11.16,0,0,1,2.57-.12,21.52,21.52,0,0,1,6.1,1.48,24.71,24.71,0,0,0,8.9,1.81h0a44.46,44.46,0,0,0,9.09-.87,26,26,0,0,0,8.33-3.06,3.28,3.28,0,0,1,.92-.34,2.44,2.44,0,0,1,2.7,1.42l.16.43c.16.41.31.81.44,1.22a43.53,43.53,0,0,1,1.53,10.17c.17,2.88.22,5.7.26,8.81,0,.46,0,.92,0,1.37h0a2.31,2.31,0,0,1,1.82-1.44,2.29,2.29,0,0,1,2.14.89,5.31,5.31,0,0,1,1,3.28c0,1.83.1,3.57.12,5.29l0-.33q.38-5.92.89-11.84c.31-3.43.67-6.85,1-10.28l.24-2.31c.09-.83.19-1.64.3-2.46.08-.62.16-1.23.23-1.85a3.24,3.24,0,0,1,2-2.64,17,17,0,0,0,2.73-1.38,21.08,21.08,0,0,0,3.64-3.08c5.81-5.79,10.32-13,14.68-19.9l1.26-2c3.33-5.29,4.9-11.32,6.56-17.7l.5-2a4.35,4.35,0,0,1,2-2.72c2.33-1.33,5.62-.43,10.17.83,1.67.46,3.5,1,5.47,1.41l.26.07c3,1.07,5.44,1.23,7,.47a5.7,5.7,0,0,0,2.56-3.57c-.49-3.54-4-5.86-8-8.54-5.83-3.85-13.08-8.64-9.74-18.84a2.29,2.29,0,0,1,.46-.8,9.13,9.13,0,0,0,2.31-5.74c.11-1.69.24-3.38.36-5.07l.07-.91a13.44,13.44,0,0,0-3.93,6.48c-.72,2.68-1.45,5.35-2.19,8L202,88.43l-.22.71-.11.32a2.27,2.27,0,0,1-2.86,1.5,19.74,19.74,0,0,0-8-.69,2.31,2.31,0,0,1-2.49-2l-.08-.68a2.89,2.89,0,0,0,0-.29l0-.28a20,20,0,0,0-4.42-9.3,14.59,14.59,0,0,0-7-4.72,8.77,8.77,0,0,0-2.45-.44c-.1,0-.43.15-.46.32a4.73,4.73,0,0,0-.11.93,23.46,23.46,0,0,0,.74,5.3l.06.28a20.79,20.79,0,0,0,4.26,9.33c1,1.18,2.09,2.31,3.16,3.44l.61.64a11.09,11.09,0,0,1,2.9,5.7,18.17,18.17,0,0,1-.29,7.09,47.34,47.34,0,0,1-4.49,11.8,12.72,12.72,0,0,1-9.26,6.78,21.47,21.47,0,0,1-8.4-.1c-1.05-.19-2.09-.42-3.13-.65s-2.25-.5-3.38-.7A170.66,170.66,0,0,0,131,120.29c-3.75-.11-7.79-.08-12.36.11h-.33a81.42,81.42,0,0,0-8.84.67,33.55,33.55,0,0,0-7.63,2,19,19,0,0,0-10.86,10.63,34.3,34.3,0,0,0-2,9.18l0,.53c-.3,2.88-.6,5.77-.93,8.65a15.33,15.33,0,0,1-1.61,5.33,3,3,0,0,1,.89-.47,3.21,3.21,0,0,1,2.58.32,4,4,0,0,1,1,.73,9.67,9.67,0,0,1,2.88,6.54,14,14,0,0,1-.86,4.65,34.42,34.42,0,0,1-7.18,12c-.57.61-1.12,1.22-1.63,1.86a7.57,7.57,0,0,0-1.6,3.63c-.24,1.58-.46,3.18-.6,4.77-.21,2.32-.39,4.63-.57,7-.3,3.77-.6,7.54-1,11.3,0,.4-.08.79-.13,1.19.12-.74.23-1.48.34-2.22A114.37,114.37,0,0,1,82.84,196a44.84,44.84,0,0,1,2.47-7.39,8.83,8.83,0,0,1,2.19-3.1A3.74,3.74,0,0,1,89.94,184.55ZM85,159.43a7.54,7.54,0,0,0-.75,1.65,17,17,0,0,0-.68,4.43c-.13,1.72-.22,3.2-.29,4.67,0,.27,0,.55,0,.83a28.79,28.79,0,0,0,1.41-7.53c0-.47.06-1,.08-1.44s0-1.1.09-1.64A5.35,5.35,0,0,1,85,159.43Z"/></g></svg>