<svg id="Layer_1" data-name="Layer 1" xmlns="http://www.w3.org/2000/svg" viewBox="0 0 300 300"><defs><style>.cls-1{fill:#ba6831;}</style></defs><g id="T5VKi6"><path class="cls-1" d="M162.57,245.73a4.12,4.12,0,0,1-1.71-.39,22.18,22.18,0,0,1-6.25-4.8c-1.11-1.11-2.26-2.25-3.45-3.22a7.83,7.83,0,0,0-4.5-1.73,3.94,3.94,0,0,1-3.08-1.93,25.53,25.53,0,0,0-7.75-8.41c-2.36-1.66-4.87-3.27-7.29-4.81l-3.33-2.14-1.14-.74c-.92-.6-1.84-1.21-2.77-1.79a3.53,3.53,0,0,1-1.28-4.84l.45-.88c1.81-3.43,3.62-6.86,5.38-10.32a59.54,59.54,0,0,0,5.28-14.25,51.67,51.67,0,0,0,1.13-9.56,28.19,28.19,0,0,1-9.53-4.39,26.82,26.82,0,0,1-9.47-12.91,40.85,40.85,0,0,1-2.23-10,44.65,44.65,0,0,0-6.72-3.7,30,30,0,0,1-7.62-4.82,21.51,21.51,0,0,1-5.2-8q-.48-1.17-.93-2.34c-.66-1.67-1.32-3.34-2.07-5a13.69,13.69,0,0,0-4.9-5.4c-.92-.64-1.86-1.27-2.79-1.9-1.23-.83-2.46-1.66-3.67-2.52a17.44,17.44,0,0,1-4.94-5.35,4,4,0,0,1-.46-3.08,28.16,28.16,0,0,0,.64-9.43c-.11-1.85-.33-3.69-.57-5.63l-.2-1.78a3.78,3.78,0,0,1,1.92-3.86,5.85,5.85,0,0,1,1.62-.64A26,26,0,0,1,85.77,66.54a74.94,74.94,0,0,1,9.42-5.88l2-1.15c1.83-1,3.63-2.13,5.43-3.22l2.53-1.52a4.27,4.27,0,0,1,.61-.29,3.11,3.11,0,0,1,3.21.58,3,3,0,0,1,.9,3.06,19.73,19.73,0,0,1-3,5.87,37.69,37.69,0,0,1-7.64,7.4l-.66.51a55.44,55.44,0,0,0-5.11,4.34,7.14,7.14,0,0,1,.81-.47,15.62,15.62,0,0,1,7.92-1.52,56.63,56.63,0,0,1,9.21,1.25l2.12.4a37.52,37.52,0,0,0,8,.87c.66,0,1.33-.09,2-.17l1.11-.11a3,3,0,0,1,2.77,1.33,3,3,0,0,1,.17,3.07A11.78,11.78,0,0,1,122,86.25a19.4,19.4,0,0,1-8,1.58c-1.58,0-3.16,0-4.75,0-1.41,0-2.82,0-4.23,0a14.22,14.22,0,0,0-5.94,1,8.88,8.88,0,0,0-5.17,7,23.26,23.26,0,0,0,.86,10l.15.54a35.39,35.39,0,0,1,4-12.59,25.13,25.13,0,0,1,1.41-2.17l.57-.84a3,3,0,0,1,3.82-1,3.22,3.22,0,0,1,1.78,3.57l-.66,2.55a59.37,59.37,0,0,0-2.08,17.42c.26,6.69,1.88,12.15,4.92,16.68A23.36,23.36,0,0,0,120.54,139q.66.24,1.35.45A118.2,118.2,0,0,1,120.21,125c-.37-6.15-.51-12.78.93-19.54a3,3,0,0,1,2.36-2.32l.25-.06a3,3,0,0,1,3.44,2l.44,1.22c.35,1,.69,1.94,1,2.92A59.54,59.54,0,0,1,130.34,120l.27,2.85c.32,3.36.65,6.83,1.1,10.21a18.51,18.51,0,0,0,2.85,8.31,7.82,7.82,0,0,0,3.66,3,12.16,12.16,0,0,0,1.36-4.45,27,27,0,0,0-1.22-10.26c-.65-2.31-1.34-4.62-2-6.93-.44-1.45-.87-2.9-1.3-4.35a25.27,25.27,0,0,1-1-8.14,3,3,0,0,1,4.4-2.48,2.67,2.67,0,0,1,1.4,1.33l1.89,3.72c1.48,2.88,3,5.86,4.4,8.87a45.28,45.28,0,0,1,4,13.8,21.66,21.66,0,0,1-1,10.24,14.28,14.28,0,0,0-.57,2.25,3,3,0,0,0,1.13,3,31,31,0,0,0,3.23,2.47l1.06.74a22.84,22.84,0,0,1,3.69,3.07l.14,0a8.33,8.33,0,0,0,1.85.14c.25,0,.58-.45.7-.64.31-.44.61-.91.91-1.37.44-.68.88-1.37,1.36-2a26.11,26.11,0,0,1,5.9-5.47q2.46-1.83,4.93-3.63c1.74-1.29,3.49-2.57,5.22-3.87,3.72-2.79,5.94-6.77,6.78-12.16a49.18,49.18,0,0,0-.1-13.26c-.34-2.91-.71-5.82-1.09-8.74l-.59-4.82a3.3,3.3,0,0,1,1.5-3.07,3.23,3.23,0,0,1,4,.6l.48.55a17.82,17.82,0,0,1,1.3,1.6,20.84,20.84,0,0,1,3.22,8.74,74.71,74.71,0,0,1,.69,12.24l1.92-3a59.41,59.41,0,0,0,6-11.8,20.19,20.19,0,0,0,1.35-6.35c.08-3.38-1.06-5.74-3.59-7.44a8.8,8.8,0,0,0-4.2-1.29c-2.84-.28-5.74-.49-8.6-.61-5.7-.25-10.19-1.55-14.13-4.09a40.13,40.13,0,0,1-7.7-6.69,3,3,0,0,1,3.47-4.78l.62.29,1.15.53a40.85,40.85,0,0,0,10.34,2.9,98.38,98.38,0,0,0,13.5,1l-.17-.28a28.88,28.88,0,0,0-5.78-6l-.93-.79a45.79,45.79,0,0,1-6.09-5.78,30.53,30.53,0,0,1-2-2.84,3,3,0,0,1,3.57-4.46,51.86,51.86,0,0,1,18.8,12.13,61.71,61.71,0,0,1,7.17,8.71c-.34-2-.63-4-.92-6a7.86,7.86,0,0,1,0-1.39v-.34a3,3,0,0,1,4.84-2.39,3.68,3.68,0,0,1,.72.61A22,22,0,0,1,219.61,84c.76,5.7.07,11.49-2.24,18.78a68.79,68.79,0,0,1-2.81,7.35,2.79,2.79,0,0,1,.57.4c1.35-2.14,2.55-4.43,3.75-6.76l3.23-6.33c.08-.16.16-.3.28-.5l.16-.25a3,3,0,0,1,5.58,1.22l.29,2.74c0,.11,0,.22,0,.32s0,.45,0,.54l-.08,1c-.07.77-.14,1.55-.25,2.32a36.87,36.87,0,0,1-15.84,24.1c-.68.43-1.38.8-2.09,1.16l-.18.1a35,35,0,0,1-1.3,5l-.22.69c-.12.4-.24.8-.35,1.2-.17.6-.35,1.21-.55,1.81a5.13,5.13,0,0,1-1.42,2.23,31.51,31.51,0,0,1-8.37,5c-1,.45-2,.89-3.05,1.32l-2.36,1a24.89,24.89,0,0,1,7.8-.19l.49.08a3.26,3.26,0,0,1,2.09,1.35,3.19,3.19,0,0,1,.5,2.37,30.64,30.64,0,0,1-17.45,21.28,6.19,6.19,0,0,1-.33,3.88c-.38.9-.81,1.79-1.24,2.67l-.12.23a5,5,0,0,0,.34,5.27c.51.81,1.08,1.57,1.65,2.34.31.4.61.8.9,1.21a12.45,12.45,0,0,1,2.54,5.72A13.11,13.11,0,0,1,186,205.34a13,13,0,0,1-11,4.34,37.64,37.64,0,0,1,.78,8.38,42.3,42.3,0,0,1-3.88,17.6,26.42,26.42,0,0,1-6.76,9.12A3.82,3.82,0,0,1,162.57,245.73Zm-14.32-16a13.73,13.73,0,0,1,6.72,2.94,52.41,52.41,0,0,1,3.89,3.62,23.14,23.14,0,0,0,3.35,2.94,21.29,21.29,0,0,0,4.14-6.11A36.38,36.38,0,0,0,169.67,218a29.21,29.21,0,0,0-1.78-10.91l-.3-.83a3,3,0,0,1,.79-3.23,3,3,0,0,1,3.27-.54l.95.42c3.41,1.5,6.58.93,8.9-1.62a7.06,7.06,0,0,0,2.05-5.92,6.86,6.86,0,0,0-1.45-3c-.27-.38-.55-.75-.83-1.13-.67-.9-1.35-1.81-1.94-2.76a11,11,0,0,1-.64-11.1l.12-.24c.38-.77.76-1.54,1.09-2.33,0-.14,0-.26-.16-.45l-.57-.73a3,3,0,0,1-.53-2.68,3,3,0,0,1,1.85-2c7.92-2.94,13.13-7.85,15.83-15a19.67,19.67,0,0,0-6.84,1.44,46.31,46.31,0,0,0-6.44,3.38l-1.07.62c-.52.3-1.05.59-1.62.89l-.83.45a3,3,0,0,1-4.39-3.27,16.62,16.62,0,0,1,2.41-5.87,19.43,19.43,0,0,1,8-6.78c2.24-1.07,4.53-2.06,6.82-3l3-1.3a26.8,26.8,0,0,0,6.57-3.75c.14-.45.27-.92.41-1.39s.25-.88.39-1.32l.23-.73a23.2,23.2,0,0,0,1.2-5.07,3.66,3.66,0,0,1,2-2.91l1.24-.66a18.51,18.51,0,0,0,1.64-.9l.89-.59a2.9,2.9,0,0,1-1.06-.61,3.35,3.35,0,0,1-1.06-3.06,3.84,3.84,0,0,1-1-.46,3.57,3.57,0,0,1-1.65-2.6c-.94,1.78-2,3.65-3.3,5.69-1.52,2.43-3.07,4.83-4.63,7.24L195,132.79c-.13.2-.26.41-.39.64l-.23.38a3,3,0,0,1-4.43.82,22.45,22.45,0,0,1-7.73,10.54c-1.74,1.32-3.51,2.61-5.27,3.9s-3.26,2.39-4.88,3.61a21.23,21.23,0,0,0-4.64,4.18c-.41.57-.79,1.17-1.17,1.76s-.67,1-1,1.54a6.88,6.88,0,0,1-5.11,3.2,13.71,13.71,0,0,1-3.3-.19,5.31,5.31,0,0,1-3.42-1.61,15.33,15.33,0,0,0-3-2.54l-1-.7a37.41,37.41,0,0,1-3.87-3,9.18,9.18,0,0,1-3.12-6.37,2.48,2.48,0,0,0-.19.26,3.75,3.75,0,0,1-3.71,1.46,14,14,0,0,1-9-5.95c-.24-.36-.48-.73-.7-1.11a3,3,0,0,1-3.86,3c-.69-.21-1.37-.39-2-.58-1.48-.41-3-.84-4.5-1.38a29.65,29.65,0,0,1-14.83-11.41,33.64,33.64,0,0,1-4.76-11,3.09,3.09,0,0,1-1.27.76A3,3,0,0,1,94.33,122a3.18,3.18,0,0,1-.57-1L93,119.05a104,104,0,0,1-4.07-11.78,29.1,29.1,0,0,1-1-12.53,15.67,15.67,0,0,1,3.15-7.18,6.87,6.87,0,0,1-5.86,1.63,3,3,0,0,1-2.46-2.33,6,6,0,0,1-.1-.85,5.35,5.35,0,0,1,0-.73,21.24,21.24,0,0,1,5.43-12.13A36.59,36.59,0,0,1,92,69.54c-.86.57-1.7,1.15-2.52,1.78a20,20,0,0,0-8.3,14.52c-.07.72-.12,1.44-.17,2.17l-.07.9a3,3,0,0,1-.36,1.22,3,3,0,0,1,1,1.2,48.47,48.47,0,0,1,4.47,15.89,3,3,0,0,1-.75,2.35c-1.08,1.21-3,1.13-4.44.66,1.09.77,2.19,1.52,3.3,2.26s1.93,1.3,2.88,2A19.59,19.59,0,0,1,94,122.28c.79,1.73,1.49,3.5,2.19,5.27.3.76.6,1.52.91,2.28a15.29,15.29,0,0,0,3.69,5.82,24.57,24.57,0,0,0,6.14,3.84,47.26,47.26,0,0,1,8.15,4.6,4.47,4.47,0,0,1,1.91,3.29,35.78,35.78,0,0,0,2,9.17,20.7,20.7,0,0,0,7.35,10.1,23.15,23.15,0,0,0,9.08,3.81,3.47,3.47,0,0,1,3,3.48A58.21,58.21,0,0,1,137,186.76a64.72,64.72,0,0,1-5.79,15.7c-1.6,3.14-3.24,6.26-4.88,9.38l1,.67,1.12.74,3.29,2.11c2.48,1.58,5,3.22,7.51,5A31.8,31.8,0,0,1,148.25,229.71Zm-1.15-.12h0Zm10.21-72.46Zm51.78-26.5h0Zm1.06-1.92ZM199.78,86.62a13,13,0,0,1,4,1.77A14.06,14.06,0,0,1,210.05,101a26.06,26.06,0,0,1-1.7,8.22h0a64.5,64.5,0,0,0,3.28-8.24A56.83,56.83,0,0,0,213.19,95a3,3,0,0,1-1.16.08,3.39,3.39,0,0,1-2.51-1.67,67.27,67.27,0,0,0-7.76-12.36c.21.58.4,1.18.56,1.79a3,3,0,0,1-.41,2.47A3,3,0,0,1,199.78,86.62Zm-98.36-6.36a8.73,8.73,0,0,0-4.27.83,9.35,9.35,0,0,0-2.75,2.63l-.46.58c-.44.55-.88,1.12-1.36,1.67a15.58,15.58,0,0,1,3.92-2.61A20.06,20.06,0,0,1,105,81.8c1.45,0,2.89,0,4.33,0h3.17l-2.12-.4a51.67,51.67,0,0,0-8.23-1.15Z"/><path class="cls-1" d="M83.06,110.57a6.65,6.65,0,0,1-6.46-4.69,17.58,17.58,0,0,1-.82-4.67c0-1.73,0-3.45,0-5.18l0-3.39a3,3,0,0,1,5.72-1.31,48.47,48.47,0,0,1,4.47,15.89,3,3,0,0,1-3,3.35Z"/></g></svg>