<svg xmlns="http://www.w3.org/2000/svg" viewBox="0 0 264 264"><defs><style>.cls-1{fill:#fff;}.cls-2{fill:red;}</style></defs><title>Asset 3</title><g id="Layer_2" data-name="Layer 2"><g id="Layer_1-2" data-name="Layer 1"><circle class="cls-1" cx="132" cy="132" r="131.5"/><path class="cls-1" d="M132,1a131,131,0,0,1,92.63,223.63A131,131,0,1,1,39.37,39.37,130.15,130.15,0,0,1,132,1m0-1A132,132,0,1,0,264,132,132,132,0,0,0,132,0Z"/><path class="cls-2" d="M203.68,96A18.76,18.76,0,0,0,190.5,82.86c-11.7-3.2-58.5-3.2-58.5-3.2s-46.8,0-58.5,3.08A19.13,19.13,0,0,0,60.32,96c-3.08,11.7-3.08,36-3.08,36s0,24.38,3.08,36A18.77,18.77,0,0,0,73.5,181.14c11.82,3.2,58.5,3.2,58.5,3.2s46.8,0,58.5-3.08a18.74,18.74,0,0,0,13.18-13.18c3.08-11.7,3.08-36,3.08-36S206.88,107.74,203.68,96Z"/><path class="cls-1" d="M117.1,154.41,156,132,117.1,109.59Z"/></g></g></svg>