<?xml version="1.0" encoding="utf-8"?>
<!-- Generator: Adobe Illustrator 23.1.1, SVG Export Plug-In . SVG Version: 6.00 Build 0)  -->
<svg version="1.1" id="Layer_1" xmlns="http://www.w3.org/2000/svg" xmlns:xlink="http://www.w3.org/1999/xlink" x="0px" y="0px"
	 viewBox="0 0 533 77" style="enable-background:new 0 0 533 77;" xml:space="preserve">
<style type="text/css">
	.st0{fill-rule:evenodd;clip-rule:evenodd;fill:#E0E31C;}
	.st1{fill-rule:evenodd;clip-rule:evenodd;fill:#231F20;}
	.st2{fill:#231F20;}
</style>
<g>
	<polygon class="st0" points="232,53.6 244.3,23.6 237.4,23.6 225,53.6 	"/>
	<polygon class="st1" points="256.7,53.6 249.8,53.6 237.4,23.6 244.3,23.6 	"/>
	<polygon class="st2" points="274.2,35.7 296,35.7 296,38.3 286.9,38.3 286.9,53.6 283.5,53.6 283.5,38.3 274.2,38.3 	"/>
	<polygon class="st2" points="322.9,45.5 322.9,50.9 337.9,50.9 337.9,53.6 319.6,53.6 319.6,35.7 337.9,35.7 337.9,38.3 
		322.9,38.3 322.9,42.8 333.5,42.8 332.2,45.5 	"/>
	<polygon class="st2" points="363.3,35.7 366.7,35.7 366.7,50.9 381.2,50.9 380.1,53.6 363.3,53.6 	"/>
	<g>
		<path class="st2" d="M404.9,36.1h3.4V54h-3.4V36.1z"/>
	</g>
	<g>
		<path class="st2" d="M476.5,54V36.1h14.2c4.3,0,6.4,1.3,6.4,3.9v2.2c0,2.2-1.5,3.4-4.4,3.8l4.2,8.1h-3.6l-4.2-8h-9.2v8H476.5z
			 M479.9,38.8v4.6h10.8c2,0,3-0.4,3-1.2V40c0-0.8-1-1.2-3-1.2H479.9z"/>
	</g>
	<polygon class="st2" points="438.3,45.5 438.3,50.9 453.3,50.9 453.3,53.6 434.9,53.6 434.9,35.7 453.3,35.7 453.3,38.3 
		438.3,38.3 438.3,42.8 448.9,42.8 447.6,45.5 	"/>
</g>
<g>
	<g>
		<path d="M41,44.8h-4.7v-12H41c3.8,0,6.4,2.6,6.4,6v0C47.4,42.2,44.8,44.8,41,44.8z M44.6,38.8c0-2.1-1.5-3.6-3.6-3.6h-2v7.2h2
			C43.2,42.4,44.6,40.9,44.6,38.8L44.6,38.8z"/>
		<path d="M49.7,44.8v-12h9.1v2.3h-6.4v2.4H58v2.4h-5.7v2.5h6.5v2.3H49.7z"/>
		<path d="M65.5,45c-1.8,0-3.7-0.6-5.1-1.9l1.6-1.9c1.1,0.9,2.2,1.5,3.6,1.5c1.1,0,1.7-0.4,1.7-1.1v0c0-0.7-0.4-1-2.4-1.5
			c-2.4-0.6-4-1.3-4-3.7v0c0-2.2,1.7-3.6,4.2-3.6c1.7,0,3.2,0.5,4.5,1.5l-1.4,2c-1.1-0.7-2.1-1.2-3.1-1.2c-1,0-1.5,0.5-1.5,1v0
			c0,0.8,0.5,1,2.6,1.6c2.4,0.6,3.8,1.5,3.8,3.6v0C69.9,43.6,68.1,45,65.5,45z"/>
		<path d="M80.9,44.8l-1.1-2.7h-5.1l-1.1,2.7h-2.7L76,32.7h2.4l5.1,12.1H80.9z M77.2,35.9l-1.6,3.9h3.2L77.2,35.9z"/>
		<path d="M92.8,44.8l-2.6-3.8h-2.1v3.8h-2.6v-12H91c2.8,0,4.5,1.5,4.5,4v0c0,1.9-1,3.2-2.6,3.7l2.9,4.3H92.8z M92.8,36.9
			c0-1.1-0.8-1.7-2.1-1.7h-2.6v3.4h2.7C92.1,38.6,92.8,37.9,92.8,36.9L92.8,36.9z"/>
		<path d="M105.2,44.8l-2.6-3.8h-2.1v3.8h-2.6v-12h5.5c2.8,0,4.5,1.5,4.5,4v0c0,1.9-1,3.2-2.6,3.7l2.9,4.3H105.2z M105.2,36.9
			c0-1.1-0.8-1.7-2.1-1.7h-2.6v3.4h2.7C104.5,38.6,105.2,37.9,105.2,36.9L105.2,36.9z"/>
		<path d="M116.1,45c-3.7,0-6.4-2.8-6.4-6.2v0c0-3.4,2.7-6.2,6.4-6.2c3.7,0,6.4,2.8,6.4,6.2v0C122.5,42.2,119.8,45,116.1,45z
			 M119.7,38.8c0-2.1-1.5-3.8-3.6-3.8c-2.1,0-3.6,1.7-3.6,3.7v0c0,2.1,1.5,3.8,3.6,3.8C118.3,42.6,119.7,40.9,119.7,38.8L119.7,38.8
			z"/>
		<path d="M124.8,44.8v-12h2.6v9.6h6v2.4H124.8z"/>
		<path d="M135.5,44.8v-12h2.6v9.6h6v2.4H135.5z"/>
		<path d="M151.2,45c-3.7,0-6.4-2.8-6.4-6.2v0c0-3.4,2.7-6.2,6.4-6.2c3.7,0,6.4,2.8,6.4,6.2v0C157.6,42.2,154.9,45,151.2,45z
			 M154.9,38.8c0-2.1-1.5-3.8-3.6-3.8c-2.1,0-3.6,1.7-3.6,3.7v0c0,2.1,1.5,3.8,3.6,3.8C153.4,42.6,154.9,40.9,154.9,38.8L154.9,38.8
			z"/>
	</g>
	<g>
		<path d="M173.7,41.2h-2v3.6h-2.6v-12h4.9c2.9,0,4.6,1.7,4.6,4.2v0C178.6,39.7,176.4,41.2,173.7,41.2z M175.9,37
			c0-1.2-0.8-1.8-2.1-1.8h-2v3.7h2.1C175.1,38.8,175.9,38,175.9,37L175.9,37z"/>
		<path d="M186.4,45c-3.7,0-6.4-2.8-6.4-6.2v0c0-3.4,2.7-6.2,6.4-6.2c3.7,0,6.4,2.8,6.4,6.2v0C192.8,42.2,190.1,45,186.4,45z
			 M190,38.8c0-2.1-1.5-3.8-3.6-3.8c-2.1,0-3.6,1.7-3.6,3.7v0c0,2.1,1.5,3.8,3.6,3.8C188.5,42.6,190,40.9,190,38.8L190,38.8z"/>
		<path d="M202.4,44.8l-2.6-3.8h-2.1v3.8h-2.6v-12h5.5c2.8,0,4.5,1.5,4.5,4v0c0,1.9-1,3.2-2.6,3.7l2.9,4.3H202.4z M202.5,36.9
			c0-1.1-0.8-1.7-2.1-1.7h-2.6v3.4h2.7C201.7,38.6,202.5,37.9,202.5,36.9L202.5,36.9z"/>
		<path d="M207.2,38.3v-2.7h2.8v2.7H207.2z M207.2,44.8V42h2.8v2.7H207.2z"/>
	</g>
</g>
</svg>
