<?xml version="1.0" encoding="utf-8"?>
<!-- Generator: Adobe Illustrator 23.1.1, SVG Export Plug-In . SVG Version: 6.00 Build 0)  -->
<svg version="1.1" id="Layer_1" xmlns="http://www.w3.org/2000/svg" xmlns:xlink="http://www.w3.org/1999/xlink" x="0px" y="0px"
	 viewBox="0 0 635.9 635.9" style="enable-background:new 0 0 635.9 635.9;" xml:space="preserve">
<style type="text/css">
	.st0{fill:#003FA2;}
	.st1{fill:#5B677C;}
	.st2{fill:#FFFFFF;}
</style>
<g>
	<path class="st0" d="M318,611.5c-78.4,0-152.1-30.5-207.5-86c-55.4-55.4-86-129.1-86-207.5c0-78.4,30.5-152.1,86-207.5
		s129.1-86,207.5-86c78.4,0,152.1,30.5,207.5,86c55.4,55.4,86,129.1,86,207.5c0,78.4-30.5,152.1-86,207.5
		C470.1,580.9,396.4,611.5,318,611.5z"/>
	<path class="st1" d="M318,32c38.6,0,76.1,7.6,111.3,22.5c34.1,14.4,64.6,35,90.9,61.3c26.3,26.3,46.9,56.9,61.3,90.9
		C596.4,241.9,604,279.4,604,318s-7.6,76.1-22.5,111.3c-14.4,34.1-35,64.6-61.3,90.9c-26.3,26.3-56.9,46.9-90.9,61.3
		C394,596.4,356.6,604,318,604s-76.1-7.6-111.3-22.5c-34.1-14.4-64.6-35-90.9-61.3c-26.3-26.3-46.9-56.9-61.3-90.9
		C39.5,394,32,356.6,32,318s7.6-76.1,22.5-111.3c14.4-34.1,35-64.6,61.3-90.9c26.3-26.3,56.9-46.9,90.9-61.3
		C241.9,39.5,279.4,32,318,32 M318,17C151.7,17,17,151.7,17,318s134.8,301,301,301s301-134.8,301-301S484.2,17,318,17L318,17z"/>
</g>
<g>
	<g>
		<path class="st2" d="M126.7,402.6c-4.7,0-9.4-2.2-12.3-6.3c-5-6.8-3.5-16.3,3.3-21.3l190.2-138.7c6.8-5,16.4-3.5,21.3,3.3
			c5,6.8,3.5,16.3-3.3,21.3L135.7,399.7C133,401.6,129.9,402.6,126.7,402.6z"/>
	</g>
	<g>
		<path class="st2" d="M509.2,402.6c-3.1,0-6.3-1-9-2.9L310,260.9c-6.8-5-8.3-14.5-3.3-21.3c5-6.8,14.5-8.3,21.3-3.3L518.2,375
			c6.8,5,8.3,14.5,3.3,21.3C518.6,400.4,513.9,402.6,509.2,402.6z"/>
	</g>
</g>
</svg>
