<svg xmlns="http://www.w3.org/2000/svg" viewBox="0 0 438.61 513.03"><defs><style>.cls-1{fill:#fff;}</style></defs><title>logo_vimifos_blanco</title><g id="Layer_2" data-name="Layer 2"><g id="Layer_2-2" data-name="Layer 2"><path class="cls-1" d="M424.05,173.58l-87.23-159A28.06,28.06,0,0,0,326.38,4.16,28.06,28.06,0,0,0,312.27,0H138.62A28.16,28.16,0,0,0,124.5,4.16a28.33,28.33,0,0,0-10.43,10.37L26.82,173.58a31.94,31.94,0,0,0,0,28.4l87.25,159a29.91,29.91,0,0,0,24.55,14.53H312.27A29.95,29.95,0,0,0,336.82,361l87.23-159a31.69,31.69,0,0,0,0-28.4Zm-16.9,19.92L319.89,352.55c-1.08,2-1.1,2.59-3,3.69a9.35,9.35,0,0,1-4.59,1.7H138.62a12.75,12.75,0,0,1-9.1-5.39l-87.23-159a14.45,14.45,0,0,1,0-11.44L129.52,23a11.27,11.27,0,0,1,4-3.7,11.24,11.24,0,0,1,5.14-1.69H312.27a11.13,11.13,0,0,1,5.14,1.69,11.27,11.27,0,0,1,4,3.7l86.36,157.55a14.93,14.93,0,0,1,1.8,6.38C409.57,189.34,409.17,190.31,407.15,193.5Z"/><polygon class="cls-1" points="318.51 133.27 318.51 102 226.35 48.56 137.39 102.26 137.39 243.43 195.18 275.57 218.28 260.5 163.03 228.09 163.03 116.67 223.94 80.61 318.51 133.27"/><polygon class="cls-1" points="239.18 296.33 267.01 311.48 350.69 261.07 350.69 159.96 224.85 89.02 170.24 119.88 170.24 151.95 226.35 118.28 325.85 174.38 325.47 245.97 239.18 296.33"/><polygon class="cls-1" points="130.17 145.82 102.74 160.81 102.7 262.48 194.99 313.35 318.51 240.09 318.51 180.12 293.32 165.63 292.88 227.29 195.09 284.18 130.17 248.12 130.17 145.82"/><path class="cls-1" d="M14.35,421.1l24,59.25L62.78,421.1H77.15L38.12,513,0,421.1Z"/><path class="cls-1" d="M94.15,421.1v85.52H81.05V421.1Z"/><path class="cls-1" d="M105.11,506.62l18.29-91.93,29.85,66.44,30.94-66.44,16.44,91.93H187.17L178.77,455,153,510.54l-25-55.6-9.34,51.68Z"/><path class="cls-1" d="M225.23,421.1v85.52H212.11V421.1Z"/><path class="cls-1" d="M282.64,433.23h-30.3v20.54h29.22v12.14H252.34v40.71H239.22V421.1h43.42Z"/><path class="cls-1" d="M286.7,463.47c0-12,4.49-22.39,13.46-31a44.77,44.77,0,0,1,32.23-13,43.93,43.93,0,0,1,31.88,13.08A42.43,42.43,0,0,1,377.61,464a41.79,41.79,0,0,1-13.4,31.3,45.34,45.34,0,0,1-32.51,12.89c-11.2,0-21.3-3.81-30.23-11.47C291.65,488.26,286.7,477.17,286.7,463.47Zm13.23.14q0,14.16,9.71,23.3a32.17,32.17,0,0,0,54.74-23.07,31.75,31.75,0,0,0-32.15-32.21,31.31,31.31,0,0,0-22.94,9.28A30.61,30.61,0,0,0,299.93,463.61Z"/><path class="cls-1" d="M436.35,433.78,425.74,440c-2-3.39-3.9-5.61-5.71-6.64a15.27,15.27,0,0,0-16.34,1.29,9.35,9.35,0,0,0-3.6,7.52c0,4.18,3.15,7.53,9.48,10.09l8.66,3.48c7,2.83,12.21,6.24,15.49,10.29a22.84,22.84,0,0,1,4.89,14.88q0,11.82-8,19.52a27.76,27.76,0,0,1-20,7.75q-11.34,0-18.69-6.6c-4.85-4.43-7.87-10.61-9.08-18.59l13.29-2.89c.59,5,1.65,8.49,3.15,10.41q4.06,5.55,11.84,5.56a13.88,13.88,0,0,0,14.24-14.3,14.2,14.2,0,0,0-.69-4.56,11.59,11.59,0,0,0-2.21-3.82,17.28,17.28,0,0,0-3.85-3.25A38.08,38.08,0,0,0,413,467.2l-8.4-3.43q-17.88-7.42-17.85-21.7a20.38,20.38,0,0,1,7.5-16.1c5-4.35,11.2-6.54,18.64-6.54Q427.94,419.43,436.35,433.78Z"/><path class="cls-1" d="M364.84,356.72h3l4.47,13.16,4.45-13.16h3v15.56h-2V361.52c0-.74,0-1.52,0-2.37l-4.43,13.13h-2.09l-4.49-13.13v.49c0,.37,0,.95,0,1.74s0,1.35,0,1.71v9.19h-2Z"/><path class="cls-1" d="M383.22,356.72h7.07a7.26,7.26,0,0,1,2.89.51,3.7,3.7,0,0,1,2.16,3.68,4.2,4.2,0,0,1-.59,2.29,4,4,0,0,1-1.61,1.43,3.1,3.1,0,0,1,1.36,1,3.48,3.48,0,0,1,.51,2l.08,2.08a7.67,7.67,0,0,0,.15,1.33,1.3,1.3,0,0,0,.68.94v.36h-2.57a1.5,1.5,0,0,1-.17-.53,12,12,0,0,1-.12-1.23l-.11-2.58a2.19,2.19,0,0,0-1.1-2,4.35,4.35,0,0,0-1.84-.3h-4.66v6.68h-2.13Zm6.85,7.12a3.84,3.84,0,0,0,2.29-.6,2.41,2.41,0,0,0,.83-2.12,2.28,2.28,0,0,0-1.17-2.27,3.81,3.81,0,0,0-1.69-.33h-5v5.32Z"/></g></g></svg>