<?xml version="1.0" encoding="utf-8"?>
<!-- Generator: Adobe Illustrator 23.1.1, SVG Export Plug-In . SVG Version: 6.00 Build 0)  -->
<svg version="1.1" id="Layer_1" xmlns="http://www.w3.org/2000/svg" xmlns:xlink="http://www.w3.org/1999/xlink" x="0px" y="0px"
	 viewBox="0 0 448 453" style="enable-background:new 0 0 448 453;" xml:space="preserve">
<style type="text/css">
	.st0{fill:#EAEAEA;}
	.st1{fill:#1A2E7E;}
	.st2{fill:#B91F25;}
	.st3{fill:#FFFFFF;}
</style>
<g>
	<path class="st0" d="M381.9,213l-315.1-0.4c-23.2,0-42.2-19-42.1-42.2l0.2-111.2c0-23.2,19-42.2,42.2-42.1l315.1,0.4
		c23.2,0,42.2,19,42.1,42.2l-0.2,111.2C424.1,194.1,405.1,213,381.9,213z"/>
	<g>
		<path class="st1" d="M139,86.9c-0.6,1.5-1.8,2.4-3.4,2.4l-8.3,0c-1.6,0-2.8-1.2-3-2.7l-4.4-31.9l9.5,0l1.9,23.4
			c0.1,1.4,0.2,2.9,0.1,4.3l1.3,0c0.3-1.5,0.8-2.9,1.3-4.2l8.5-23.5l9.9,0L139,86.9z"/>
		<path class="st1" d="M166,61.8c-1.8,0-2.5,0.6-2.7,2.3l-0.5,4.1l13,0l-0.8,6.4l-13.1,0l-0.7,5.2c-0.2,1.6,0.4,2.2,2,2.2l12.4,0
			l-0.2,6.8c-4.7,0.6-10.9,0.5-16.1,0.5c-5.8,0-8.4-3.6-7.7-8.9l2.6-18.8c0.6-4.5,3.6-7.3,8.6-7.3c5.8,0,12.1,0,16.8,0.6l-1.1,6.7
			L166,61.8z"/>
		<path class="st1" d="M202.9,72.9l-0.1,0.4c1.8,0.3,3.9,1.5,4.4,5.4l1.5,10.5l-9.7,0l-1.2-10.6c-0.2-2.1-0.8-2.5-2.4-2.5l-4.7,0
			l-1.8,13l-9.2,0l4.8-34.6c4.3-0.5,7.4-0.5,13.4-0.5c8.9,0,13.7,2.6,12.7,10.8C210.1,69.1,208.3,72.3,202.9,72.9z M197.8,61l-5,0
			l-1.1,8.3l4.5,0c3.4,0,4.5-0.9,5.1-4.5C201.7,61.9,200.8,61,197.8,61z"/>
		<path class="st1" d="M264.5,54.5c2.2,0,3.4,1.4,3.2,3.5l-3.1,31.1l-8.6,0l2.8-27.4l-0.8,0l-6.9,19.5c-0.6,2-1.8,2.8-3.9,2.8
			l-5.3,0c-2.1,0-3.3-1.2-3.4-3.1l-1.7-19.2l-0.8,0l-4.7,27.4l-8.6,0l5.7-31.5c0.4-2.2,1.4-3.2,3.5-3.2l8.3,0c2,0,3.2,1.2,3.3,3.1
			l1.3,15.4c0.2,1.7,0.1,3.3,0.1,5.1h0.6c0.5-1.9,0.9-3.4,1.4-5l5.3-15.8c0.6-2,1.8-2.8,3.8-2.8L264.5,54.5z"/>
		<path class="st1" d="M279.7,81.1l-3.2,8.1l-9.8,0l13.9-32.4c0.6-1.5,1.8-2.3,3.3-2.3l8.7,0c1.5,0,2.9,1.2,3,2.6l4.9,32l-9.4,0
			l-0.9-8.1L279.7,81.1z M288.7,65.1c-0.2-1.2-0.2-2.5-0.2-3.6l-1.4,0c-0.2,1.1-0.6,2.3-1.1,3.6l-3.5,8.9l7,0L288.7,65.1z
			 M284.5,49.2l11.7-7.7l3.1,6.4L286.6,53L284.5,49.2z"/>
		<path class="st1" d="M331.7,55.5l-0.8,6.1c-3,0-7.5-0.1-11.5-0.1c-2.9,0-4.1,0.2-4.4,2.3c-0.2,1.5,0.2,2,2.5,3l6,2.6
			c5.6,2.5,6.8,5.4,6.2,10.5c-0.9,7.9-4.5,9.9-14,9.9c-2.7,0-7.7-0.3-12.8-1.5l0.9-6.6c6.1,0.1,10,0.2,11.4,0.2
			c3.7,0,4.9-0.5,5.2-2.4c0.2-1.5-0.3-2-2.1-2.7l-6.4-2.9c-5.6-2.6-6.7-6-6.2-10.4c0.9-7.7,5.4-9.5,14.2-9.5
			C323.6,53.9,328,54.3,331.7,55.5z"/>
		<path class="st1" d="M81.3,126.4c0,11.7-3.4,15-13.1,15.1c-4.7,0-8.5-0.2-12-0.4l0-29.2c3.6-0.2,7.2-0.4,12-0.4
			C77.9,111.4,81.3,114.7,81.3,126.4z M73,126.4c0-7.2-1-9.1-4.7-9.1l-4,0l0,18.1c1.2,0,2.6,0,4,0C71.9,135.5,73,133.6,73,126.4z"/>
		<path class="st1" d="M85.6,141l0-29.2l7.9,0l0,29.2L85.6,141z"/>
		<path class="st1" d="M119.1,112.5l-0.5,5.2c-2.5,0-6.4-0.1-9.7-0.1c-2.6,0-3.4,0.2-3.4,1.8c0,1.4,0.7,1.9,2.8,2.6l5.4,2.1
			c4.8,1.9,6.4,4.5,6.4,8.8c0,6.6-2.8,8.7-11.4,8.7c-1.9,0-5.9-0.1-10.7-1.3l0.5-5.6c5.2,0.1,8.5,0.2,10.2,0.2
			c2.8,0,3.5-0.3,3.5-1.8c0-1.4-0.6-1.8-2.3-2.5l-5.8-2.3c-4.6-1.9-6.3-4.4-6.3-8.7c0-6.7,3.1-8.3,11.4-8.4
			C111.9,111.2,115.7,111.4,119.1,112.5z"/>
		<path class="st1" d="M138.3,117.9l0,23.1l-8,0l0-23.1l-8.4,0l0-6.1l24.8,0l0,6.1L138.3,117.9z"/>
		<path class="st1" d="M166.1,141l-2.1-8.8c-0.4-1.7-1.1-2.2-2.8-2.2l-3.6,0l0,11l-7.8,0l0-29.2c3.7-0.4,6.3-0.4,11.8-0.4
			c8.2,0,11.7,2,11.7,8.8c0,3.8-1.4,6.6-5.8,7.1v0.3c1.6,0.3,3.8,1.1,4.5,4.5l2.4,9L166.1,141z M161.5,124.1c3,0,3.8-0.7,3.8-3.5
			c0-2.8-0.8-3.5-3.8-3.5l-3.8,0l0,7L161.5,124.1z"/>
		<path class="st1" d="M177.9,141l0-29.2l7.9,0l0,29.2L177.9,141z"/>
		<path class="st1" d="M208.3,125.9c4.6,0.4,6.2,3.1,6.2,7.8c0,6-3.1,7.6-10.3,7.6c-6,0-9.3,0-13.3-0.3l0-29.2
			c3.6-0.3,6.6-0.3,11.9-0.3c7.9,0,10.7,1.6,10.7,7.6c0,4.2-1.5,6.3-5.2,6.7V125.9z M202.4,117l-3.7,0l0,6.4l3.9,0
			c2.6,0,3.3-0.6,3.3-3.3C205.9,117.5,205.1,117,202.4,117z M202.8,135.7c3,0,3.7-0.7,3.7-3.6c0-3.1-0.8-3.9-3.8-3.9l-4,0l0,7.5
			L202.8,135.7z"/>
		<path class="st1" d="M243,129c0,9.1-3.2,12.5-11.9,12.5c-9.4,0-12.8-3.3-12.8-12.4l0-17.4l8,0l0,17.4c0,5,1,6.4,4.4,6.4
			s4.4-1.4,4.4-6.4l0-17.4l8,0L243,129z"/>
		<path class="st1" d="M247.9,140.9l0-29.2l7.9,0l0,29.2L247.9,140.9z"/>
		<path class="st1" d="M286,126.3c0,11.7-3.4,15-13.1,15.1c-4.7,0-8.5-0.2-12-0.4l0-29.2c3.6-0.2,7.2-0.4,12-0.4
			C282.5,111.2,286,114.5,286,126.3z M277.6,126.3c0-7.2-1-9.1-4.7-9.1l-4,0l0,18.1c1.2,0,2.6,0,4,0
			C276.6,135.3,277.6,133.5,277.6,126.3z"/>
		<path class="st1" d="M315.5,126.2c0,11.9-3.5,15.2-13.1,15.2c-9.7,0-13.1-3.3-13.1-15.2c0-11.9,3.4-15.2,13.1-15.2
			C312,111,315.5,114.3,315.5,126.2z M297.6,126.3c0,7.2,1,9.1,4.8,9.1c3.7,0,4.7-1.9,4.7-9.1c0-7.2-1-9.1-4.8-9.1
			C298.6,117.1,297.6,119.1,297.6,126.3z"/>
		<path class="st1" d="M336,140.9l-2.1-8.8c-0.4-1.7-1.1-2.2-2.8-2.2l-3.6,0l0,11l-7.8,0l0-29.2c3.7-0.4,6.3-0.4,11.8-0.4
			c8.2,0,11.7,2,11.7,8.8c0,3.8-1.4,6.6-5.8,7.1v0.3c1.6,0.3,3.8,1.1,4.5,4.5l2.4,9L336,140.9z M331.4,124c3,0,3.8-0.7,3.8-3.5
			c0-2.8-0.8-3.5-3.8-3.5l-3.8,0l0,7L331.4,124z"/>
		<path class="st1" d="M368.6,140.5c-4.2,0.5-9.7,0.5-14.5,0.5c-4,0-6.7-2.5-6.7-6.3l0-16.9c0-3.8,2.7-6.3,6.6-6.3
			c4.8,0,10.3,0,14.5,0.5l-0.4,5.7l-11,0c-1.2,0-1.8,0.6-1.8,1.8l0,3.6l11.2,0l0,5.5l-11.2,0l0,4.4c0,1.2,0.6,1.8,1.8,1.8l11,0
			L368.6,140.5z"/>
		<path class="st1" d="M393.1,112.3l-0.5,5.2c-2.5,0-6.4-0.1-9.7-0.1c-2.6,0-3.4,0.2-3.4,1.8c0,1.4,0.7,1.9,2.8,2.6l5.4,2.1
			c4.8,1.9,6.4,4.5,6.4,8.8c0,6.6-2.8,8.7-11.4,8.7c-1.9,0-5.9-0.1-10.7-1.3l0.5-5.6c5.2,0.1,8.5,0.2,10.2,0.2
			c2.8,0,3.5-0.3,3.5-1.8c0-1.4-0.6-1.8-2.3-2.5l-5.8-2.3c-4.6-1.9-6.3-4.4-6.3-8.7c0-6.7,3.1-8.3,11.4-8.4
			C385.9,111,389.7,111.2,393.1,112.3z"/>
	</g>
	<circle class="st2" cx="224.5" cy="295.5" r="131.5"/>
	<path class="st3" d="M224.5,435C147.6,435,85,372.4,85,295.5S147.6,156,224.5,156c76.9,0,139.5,62.6,139.5,139.5
		S301.4,435,224.5,435z M224.5,172C156.4,172,101,227.4,101,295.5S156.4,419,224.5,419c68.1,0,123.5-55.4,123.5-123.5
		S292.6,172,224.5,172z"/>
	<g>
		<path class="st1" d="M224.5,431C149.8,431,89,370.2,89,295.5S149.8,160,224.5,160S360,220.8,360,295.5S299.2,431,224.5,431z
			 M224.5,168C154.2,168,97,225.2,97,295.5S154.2,423,224.5,423S352,365.8,352,295.5S294.8,168,224.5,168z"/>
	</g>
	<g>
		<path class="st3" d="M224.5,332.9c1.3,0,2.5-0.4,3.5-1.3l80.1-46.2c2.5-1.4,3.3-4.6,1.9-7.1l-5.6-9.6c-1.4-2.5-4.6-3.3-7.1-1.9
			l-72.9,42.1l-72.8-42c-2.5-1.4-5.6-0.6-7.1,1.9l-5.5,9.6c-1.4,2.5-0.6,5.6,1.9,7.1l80.1,46.2C222,332.5,223.2,332.9,224.5,332.9z"
			/>
	</g>
</g>
</svg>
