<svg id="Layer_1" data-name="Layer 1" xmlns="http://www.w3.org/2000/svg" viewBox="0 0 300 300"><defs><style>.cls-1{fill:#6ab646;}</style></defs><path class="cls-1" d="M59.67,130.2h9.68L79.63,169H71.47l-1.79-8.21H59.34L57.55,169H49.39Zm1,24.2h7.62L64.57,137h-.11Z"/><path class="cls-1" d="M82.56,139.77h7.18v3.43h.11A8,8,0,0,1,97.3,139c4.73,0,7.45,2.5,7.45,8.32V169h-7.5V148.86c0-3-1-4.08-3.21-4.08-2.67,0-4,1.63-4,4.84V169H82.56Z"/><path class="cls-1" d="M124.27,150.33c0-2.83-.54-5.88-3.37-5.88-3.7,0-4.3,3.27-4.3,10,0,7.23.71,10.22,4,10.22,2.55,0,3.64-2.06,3.64-6.85h7.18c0,7.67-3.15,12-11.15,12-7.5,0-11.2-3.64-11.2-15.39,0-12,4.89-15.39,11.85-15.39s10.5,4.35,10.5,11.32Z"/><path class="cls-1" d="M146.29,139c9-.16,11.53,5.17,11.53,15.39,0,10-3,15.39-11.53,15.39-9,.17-11.53-5.16-11.53-15.39C134.76,144.4,137.76,139,146.29,139Zm0,25.67c3.05,0,4-2.93,4-10.28s-1-10.28-4-10.28c-3.69,0-4,4.3-4,10.28S142.6,164.68,146.29,164.68Z"/><path class="cls-1" d="M165.68,135.74a5.43,5.43,0,1,1-5.42,5.43A5.43,5.43,0,0,1,165.68,135.74Zm0,9.3a3.88,3.88,0,1,0-3.79-3.87A3.79,3.79,0,0,0,165.68,145Zm-2.12-6.79h2.28c1.52,0,2.25.64,2.25,1.81a1.54,1.54,0,0,1-1.44,1.62l1.44,2.41h-1.4l-1.38-2.35h-.46v2.35h-1.29Zm1.29,2.47h1c.57,0,1-.11,1-.74s-.63-.71-1.11-.71h-.85Z"/><path class="cls-1" d="M187.85,130.2h21.7v6.42H195.68v9.14h13.06v6.41H195.68V169h-7.83Z"/><path class="cls-1" d="M213.79,169V130.2h7.83V169Z"/><path class="cls-1" d="M250.61,130.2v6.42h-8.49V169h-7.83V136.62h-8.48V130.2Z"/></svg>