<svg id="Layer_1" data-name="Layer 1" xmlns="http://www.w3.org/2000/svg" viewBox="0 0 300 300"><defs><style>.cls-1{fill:#23a6de;}.cls-2{fill:#084e8d;}</style></defs><path class="cls-1" d="M32.1,162.15H50.23c5.92,0,11.56-3.06,12.3-9.07.35-2.85-.54-5.48-3.2-7,2.33-1.73,3.27-3.41,3.53-5.57.77-6.26-4.51-8.59-9.91-8.59H35.81a2.29,2.29,0,0,0-2.23,2l-3.23,26.26A1.72,1.72,0,0,0,32.1,162.15Zm9-24.52H52.34c1.77,0,2.8,1.08,2.56,3a3.17,3.17,0,0,1-3.31,3H40.32ZM39.64,149.2h12c2.25,0,3.19,1.47,2.93,3.62s-1.57,3.63-3.82,3.63h-12Zm230.75-17.27H216.1a2.3,2.3,0,0,0-2.22,1.93L210.68,160a1.72,1.72,0,0,0,1.72,2H232a2.3,2.3,0,0,0,2.22-2l.25-2a1.67,1.67,0,0,0-1.7-1.94H219.07l.76-6.19H231a2.34,2.34,0,0,0,2.22-2l.24-2a1.73,1.73,0,0,0-1.74-2H220.56l.75-6.11H238.1l.23,0h9.42L245,160.21a1.7,1.7,0,0,0,1.75,1.94h4a2.29,2.29,0,0,0,2.22-1.94l2.74-22.33h9.42C268.91,137.88,270.46,131.85,270.39,131.93ZM138.15,162.19c5.77,0,9.48-1.88,9.95-5.7a.86.86,0,0,0-.88-1h-2.45a2.52,2.52,0,0,0-2,1.21,4.57,4.57,0,0,1-3.71,1.54c-3.35,0-4.25-1.64-3.8-5.33s1.76-5.36,4.94-5.36c1.71,0,2.88.64,3.34,1.54a1.86,1.86,0,0,0,1.72,1.21h2.45a1.15,1.15,0,0,0,1.13-1c.47-3.82-2.79-5.69-8.55-5.69-6.17,0-10.11,3.15-10.86,9.31S131.79,162.19,138.15,162.19Zm18.83,0c5.36,0,9.09-1.21,9.52-4.69a.86.86,0,0,0-.88-1h-2.45a2.64,2.64,0,0,0-2,.87,4.69,4.69,0,0,1-3.35,1.11c-2.75,0-3.81-1.17-3.71-3.85h12.32a1.15,1.15,0,0,0,1.13-1l.11-.94c.73-5.89-2.46-9.07-8.43-9.07s-9.94,3.28-10.68,9.31S151,162.19,157,162.19Zm1.83-14.88c2.48,0,3.52,1.34,3.31,3.86h-7.6C155,148.65,156.4,147.31,158.81,147.31Zm-49.35,14.82h3.71a1.15,1.15,0,0,0,1.14-1L115.68,150c1.38-1.22,3.08-2.38,4.75-2.38,1.87,0,3,1.16,2.68,4l-1.17,9.53a.86.86,0,0,0,.89,1h3.71a1.16,1.16,0,0,0,1.15-1l1.17-9.53c.69-5.65-2.15-8-6.58-8a9.63,9.63,0,0,0-6.11,2.41l.13-1.05a.87.87,0,0,0-.9-1h-3.71a1.16,1.16,0,0,0-1.14,1l-2,16.16A.87.87,0,0,0,109.46,162.13Zm-38.3-11.4c-4.39,0-8,1.91-8.44,5.69s2.65,5.77,7,5.77a10.84,10.84,0,0,0,6.16-1.85l-.06.5a.86.86,0,0,0,.88,1h3.15a1.15,1.15,0,0,0,1.13-1l1.24-10.11c.63-5.13-2.91-7.14-7.73-7.14-5.43,0-9.06,1.21-9.49,4.69a.86.86,0,0,0,.88,1h2.45a2.64,2.64,0,0,0,2-.87,4.64,4.64,0,0,1,3.32-1.11c2.24,0,3.25.81,2.93,3.42ZM75.82,157a10.1,10.1,0,0,1-5,1.48c-1.74,0-2.54-.88-2.4-2.05a2.48,2.48,0,0,1,2.73-2h5Zm134.27-24.87h-8.52a3.33,3.33,0,0,0-2.77,2l-8.36,17.85-4-17.85a2.43,2.43,0,0,0-2.28-2h-8.53a2.29,2.29,0,0,0-2.17,2l-3.44,28s-.35,2.78-2,2.78H32.9A3.52,3.52,0,0,0,29.48,168H175.07a2.3,2.3,0,0,0,2.22-2l3.23-26.3,4.84,20.55a2.54,2.54,0,0,0,2.34,1.88h3a3.48,3.48,0,0,0,2.8-1.88l9.88-20.55-2.5,20.42a1.71,1.71,0,0,0,1.72,2h3.76a2.3,2.3,0,0,0,2.22-2l3.19-26A1.71,1.71,0,0,0,210.09,132.12ZM83,162.14h3.8a1.21,1.21,0,0,0,1.18-1l2.74-22.34a.89.89,0,0,0-.92-1H86a1.19,1.19,0,0,0-1.18,1L82.1,161.09A.89.89,0,0,0,83,162.14Zm14.74-11.41c-4.39,0-8,1.91-8.44,5.69s2.65,5.77,7,5.77a10.84,10.84,0,0,0,6.16-1.85l-.06.5a.86.86,0,0,0,.88,1h3.15a1.15,1.15,0,0,0,1.13-1l1.24-10.11c.63-5.13-2.91-7.14-7.73-7.14-5.43,0-9.06,1.21-9.49,4.69a.86.86,0,0,0,.88,1H95a2.64,2.64,0,0,0,2-.87,4.66,4.66,0,0,1,3.32-1.11c2.24,0,3.25.81,2.93,3.42Zm4.66,6.26a10.1,10.1,0,0,1-5,1.48c-1.74,0-2.54-.88-2.39-2.05a2.46,2.46,0,0,1,2.72-2h5Z"/><path class="cls-2" d="M158.81,147.28c-2.42,0-3.85,1.34-4.3,3.86h.16c.47-2.43,1.9-3.72,4.27-3.72a3.57,3.57,0,0,1,2.42.73A3.39,3.39,0,0,0,158.81,147.28Z"/><path class="cls-2" d="M138.28,162.29c5.77,0,9.48-1.88,9.95-5.7a.88.88,0,0,0-.31-.82.94.94,0,0,1,.18.69c-.47,3.82-4.19,5.69-9.95,5.69-3.11,0-5.44-.75-6.93-2.23C132.7,161.49,135.08,162.29,138.28,162.29Z"/><path class="cls-2" d="M157.11,162.29c5.36,0,9.09-1.21,9.52-4.69a.88.88,0,0,0-.31-.82.94.94,0,0,1,.18.69c-.43,3.48-4.16,4.68-9.52,4.68-2.79,0-5-.7-6.43-2.07C152,161.54,154.23,162.29,157.11,162.29Z"/><path class="cls-2" d="M219.07,156.07h.15L220,150h11.19a2.34,2.34,0,0,0,2.23-2l.24-2a1.72,1.72,0,0,0-.53-1.49,1.73,1.73,0,0,1,.4,1.36l-.24,2a2.34,2.34,0,0,1-2.23,2H219.83Z"/><path class="cls-2" d="M140.18,147.51c-3.18,0-4.49,1.64-4.94,5.36-.27,2.15-.06,3.6.81,4.44-.77-.86-.93-2.27-.68-4.31.45-3.72,1.76-5.36,4.94-5.36a4.24,4.24,0,0,1,2.82.88A4,4,0,0,0,140.18,147.51Z"/><path class="cls-2" d="M73.66,147.28a4.64,4.64,0,0,0-3.32,1.11,2.64,2.64,0,0,1-2,.87H65.91a.89.89,0,0,1-.57-.19.9.9,0,0,0,.7.32h2.45a2.64,2.64,0,0,0,2-.87,4.64,4.64,0,0,1,3.32-1.11,3.32,3.32,0,0,1,2.32.64A3.09,3.09,0,0,0,73.66,147.28Z"/><path class="cls-2" d="M69.88,162.29a10.78,10.78,0,0,0,6-1.75l0-.23a10.84,10.84,0,0,1-6.16,1.84A8.3,8.3,0,0,1,64,160.36C65.27,161.63,67.36,162.29,69.88,162.29Z"/><path class="cls-2" d="M68.92,157.89a1.68,1.68,0,0,1-.41-1.37,2.48,2.48,0,0,1,2.73-2h4.87l0-.13h-5a2.48,2.48,0,0,0-2.72,2A1.64,1.64,0,0,0,68.92,157.89Z"/><path class="cls-2" d="M95.52,157.89a1.68,1.68,0,0,1-.41-1.37,2.48,2.48,0,0,1,2.72-2h4.88l0-.13h-5a2.48,2.48,0,0,0-2.72,2A1.64,1.64,0,0,0,95.52,157.89Z"/><path class="cls-2" d="M32.09,162.12a1.73,1.73,0,0,1-1.22-.48,1.7,1.7,0,0,0,1.35.61H50.36c5.92,0,11.56-3.06,12.3-9.06a6.84,6.84,0,0,0-1.91-6.06,6.89,6.89,0,0,1,1.78,5.92c-.74,6-6.38,9.07-12.3,9.07Z"/><path class="cls-2" d="M186.47,134.06l4,17.86.07-.15-3.91-17.58a2.57,2.57,0,0,0-.82-1.4A2.6,2.6,0,0,1,186.47,134.06Z"/><path class="cls-2" d="M114.31,161.08a1.16,1.16,0,0,1-1.14,1h-3.71a.92.92,0,0,1-.59-.2.9.9,0,0,0,.72.33h3.71a1.16,1.16,0,0,0,1.14-1l1.37-11.13c1.37-1.22,3.08-2.38,4.75-2.38a2.69,2.69,0,0,1,1.9.64,2.62,2.62,0,0,0-2-.77c-1.67,0-3.38,1.16-4.75,2.38Z"/><path class="cls-2" d="M100.26,147.28a4.64,4.64,0,0,0-3.32,1.11,2.64,2.64,0,0,1-2,.87H92.51a.89.89,0,0,1-.57-.19.88.88,0,0,0,.7.32h2.45a2.64,2.64,0,0,0,2-.87,4.64,4.64,0,0,1,3.32-1.11,3.32,3.32,0,0,1,2.32.64A3.09,3.09,0,0,0,100.26,147.28Z"/><path class="cls-2" d="M96.48,162.29a10.78,10.78,0,0,0,6-1.75l0-.23a10.84,10.84,0,0,1-6.16,1.84,8.3,8.3,0,0,1-5.72-1.79C91.87,161.63,94,162.29,96.48,162.29Z"/><path class="cls-2" d="M52.33,137.59H41.06l-.74,6h.15l.73-5.91H52.47a2.71,2.71,0,0,1,1.85.6A2.63,2.63,0,0,0,52.33,137.59Z"/><path class="cls-2" d="M203.38,139.63l-9.89,20.55a3.47,3.47,0,0,1-2.8,1.88h-3a2.41,2.41,0,0,1-1.66-.73,2.44,2.44,0,0,0,1.79.86h3a3.45,3.45,0,0,0,2.8-1.88l9.69-20.14Z"/><path class="cls-2" d="M62.86,140.49c-.26,2.16-1.2,3.84-3.53,5.57l.16.1a7.61,7.61,0,0,0,3.5-5.54,6.77,6.77,0,0,0-1.78-5.91A6.79,6.79,0,0,1,62.86,140.49Z"/><path class="cls-2" d="M211.39,132.69a1.92,1.92,0,0,1,.38,1.41l-3.19,26a2.3,2.3,0,0,1-2.22,2H202.6a1.71,1.71,0,0,1-1.22-.48,1.7,1.7,0,0,0,1.35.61h3.76a2.3,2.3,0,0,0,2.22-2l3.19-26A1.83,1.83,0,0,0,211.39,132.69Z"/><path class="cls-2" d="M180.52,139.63l-3.23,26.3a2.3,2.3,0,0,1-2.22,2H29.63a1.11,1.11,0,0,1,0,.13H175.2a2.3,2.3,0,0,0,2.22-2l3.19-26Z"/><path class="cls-2" d="M270.52,132h-.16c-.21.87-1.81,5.82-5.26,5.82h-9.41L253,160.18a2.29,2.29,0,0,1-2.23,1.94h-4a1.72,1.72,0,0,1-1.22-.48,1.71,1.71,0,0,0,1.35.61h4a2.29,2.29,0,0,0,2.22-1.94L255.82,138h9.41C269,138,270.59,132,270.52,132Z"/><path class="cls-2" d="M234.08,156.66a1.77,1.77,0,0,1,.38,1.35l-.25,2a2.31,2.31,0,0,1-2.22,2H212.4a1.77,1.77,0,0,1-1.22-.48,1.74,1.74,0,0,0,1.35.61h19.59a2.3,2.3,0,0,0,2.22-2l.25-2A1.71,1.71,0,0,0,234.08,156.66Z"/><path class="cls-2" d="M247.74,137.85h-9.41l-.23,0H221.31l-.75,6.11h.14l.74-6h16.79l.23,0h9.27Z"/><path class="cls-2" d="M82.25,150.7,81,160.81a1.15,1.15,0,0,1-1.13,1H76.73a.89.89,0,0,1-.57-.19.85.85,0,0,0,.7.32H80a1.14,1.14,0,0,0,1.13-1l1.24-10.12a5.85,5.85,0,0,0-1.45-5.15A5.94,5.94,0,0,1,82.25,150.7Z"/><path class="cls-2" d="M148.82,149.25a1.15,1.15,0,0,1-1.13,1h-2.45a1.66,1.66,0,0,1-1.17-.44,1.67,1.67,0,0,0,1.3.57h2.45a1.15,1.15,0,0,0,1.13-1,4.15,4.15,0,0,0-1.1-3.59A4.19,4.19,0,0,1,148.82,149.25Z"/><path class="cls-2" d="M128.85,151.55l-1.17,9.53a1.15,1.15,0,0,1-1.14,1h-3.71a.87.87,0,0,1-.58-.2.88.88,0,0,0,.71.33h3.71a1.15,1.15,0,0,0,1.14-1l1.17-9.53c.36-2.91-.22-4.93-1.48-6.22C128.67,146.75,129.2,148.74,128.85,151.55Z"/><path class="cls-2" d="M38.75,156.42h.15l.87-7.12h12A3,3,0,0,1,54,150a2.91,2.91,0,0,0-2.26-.84h-12Z"/><path class="cls-2" d="M167.69,152.64l-.11.94a1.15,1.15,0,0,1-1.13,1H154.12a3.75,3.75,0,0,0,.89,3,3.92,3.92,0,0,1-.75-2.88h12.32a1.15,1.15,0,0,0,1.13-1l.11-.94c.37-3-.29-5.33-1.82-6.86C167.44,147.44,168.05,149.7,167.69,152.64Z"/><path class="cls-2" d="M90.74,138.72,88,161.06a1.21,1.21,0,0,1-1.18,1.05H83a1,1,0,0,1-.6-.2.94.94,0,0,0,.73.33H87a1.21,1.21,0,0,0,1.18-1.05l2.74-22.34a.92.92,0,0,0-.32-.84A.94.94,0,0,1,90.74,138.72Z"/><path class="cls-2" d="M108.85,150.7l-1.24,10.11a1.15,1.15,0,0,1-1.13,1h-3.15a.89.89,0,0,1-.57-.19.85.85,0,0,0,.7.32h3.15a1.14,1.14,0,0,0,1.13-1L109,150.83a5.85,5.85,0,0,0-1.45-5.15A5.94,5.94,0,0,1,108.85,150.7Z"/><path class="cls-2" d="M116.3,144.92l-.13,1.05.16-.12.1-.8a.9.9,0,0,0-.32-.83A.91.91,0,0,1,116.3,144.92Z"/><path class="cls-2" d="M135.52,151.3l-5.8-.08a14.3,14.3,0,0,0-.31,1.68c-.76,6.13,2.38,9.29,8.74,9.29,5.77,0,9.48-1.88,9.95-5.7a.86.86,0,0,0-.88-1h-2.45a2.52,2.52,0,0,0-2,1.21,4.57,4.57,0,0,1-3.71,1.54c-3.35,0-4.25-1.64-3.8-5.33A16,16,0,0,1,135.52,151.3Z"/><path class="cls-2" d="M76.73,161.85h3.15a1.15,1.15,0,0,0,1.13-1l1.24-10.11a9.44,9.44,0,0,0,.07-1.27l-5.74-.35a5.4,5.4,0,0,1,0,1.62H71.16c-4.39,0-8,1.91-8.44,5.69s2.65,5.77,7,5.77a10.84,10.84,0,0,0,6.16-1.85l-.06.5A.86.86,0,0,0,76.73,161.85ZM75.82,157a10.1,10.1,0,0,1-5,1.48c-1.74,0-2.54-.88-2.4-2.05a2.48,2.48,0,0,1,2.73-2h5Z"/><path class="cls-2" d="M30.35,160.17a1.72,1.72,0,0,0,1.75,2H50.23c5.92,0,11.56-3.06,12.3-9.07A7.24,7.24,0,0,0,61.47,148c-10.18-.81-20-1.77-29.28-2.84Zm21.34-11c2.25,0,3.19,1.47,2.93,3.62s-1.57,3.63-3.82,3.63h-12l.89-7.25Z"/><path class="cls-2" d="M166.45,154.62a1.15,1.15,0,0,0,1.13-1l.11-.94a11.87,11.87,0,0,0,.1-1.43q-9,.13-18.28.14h-.65a11.86,11.86,0,0,0-.28,1.53c-.75,6.06,2.44,9.28,8.4,9.28,5.36,0,9.09-1.21,9.52-4.69a.86.86,0,0,0-.88-1h-2.45a2.64,2.64,0,0,0-2,.87,4.69,4.69,0,0,1-3.35,1.11c-2.75,0-3.81-1.17-3.71-3.85Z"/><path class="cls-2" d="M103.33,161.85h3.15a1.15,1.15,0,0,0,1.13-1l1.24-10.11v0l-5.64-.2c0,.08,0,.15,0,.24H97.76c-4.39,0-8,1.91-8.44,5.69s2.65,5.77,7,5.77a10.84,10.84,0,0,0,6.16-1.85l-.06.5A.86.86,0,0,0,103.33,161.85Zm-.91-4.86a10.1,10.1,0,0,1-5,1.48c-1.74,0-2.54-.88-2.39-2.05a2.46,2.46,0,0,1,2.72-2h5Z"/><path class="cls-2" d="M191,150.66l-.6,1.28-.28-1.25-7,.22,2.19,9.3a2.54,2.54,0,0,0,2.34,1.88h3a3.48,3.48,0,0,0,2.8-1.88l4.72-9.82Q194.65,150.54,191,150.66Z"/><path class="cls-2" d="M171.4,151.18l-1.35,11s-.35,2.78-2,2.78H32.9A3.52,3.52,0,0,0,29.48,168H175.07a2.3,2.3,0,0,0,2.22-2L179.13,151C176.56,151.08,174,151.14,171.4,151.18Z"/><path class="cls-2" d="M202.09,150.22l-1.21,9.86a1.71,1.71,0,0,0,1.72,2h3.76a2.3,2.3,0,0,0,2.22-2l1.26-10.24Q206,150,202.09,150.22Z"/><path class="cls-2" d="M65.91,149.29h2.45a2.56,2.56,0,0,0,1.71-.62l-5-.37A.86.86,0,0,0,65.91,149.29Z"/><path class="cls-2" d="M246.6,147.25l-1.59,13a1.7,1.7,0,0,0,1.75,1.94h4a2.29,2.29,0,0,0,2.22-1.94l1.69-13.72C252,146.75,249.31,147,246.6,147.25Z"/><path class="cls-2" d="M232.76,156.1H219.07l.76-6.19H231a2.34,2.34,0,0,0,2.11-1.55c-6.9.53-14,1-21.2,1.37L210.68,160a1.72,1.72,0,0,0,1.72,2H232a2.3,2.3,0,0,0,2.22-2l.25-2A1.67,1.67,0,0,0,232.76,156.1Z"/><path class="cls-2" d="M83,162.14h3.8a1.21,1.21,0,0,0,1.18-1l1.38-11.23c-2-.11-3.92-.21-5.86-.33L82.1,161.09A.89.89,0,0,0,83,162.14Z"/><path class="cls-2" d="M109.46,162.13h3.71a1.15,1.15,0,0,0,1.14-1l1.26-10.21-5.73-.17-1.28,10.38A.87.87,0,0,0,109.46,162.13Z"/><path class="cls-2" d="M122.83,162.13h3.71a1.16,1.16,0,0,0,1.15-1l1.17-9.53,0-.37c-1.92,0-3.83-.07-5.74-.12,0,.16,0,.32,0,.49l-1.17,9.53A.86.86,0,0,0,122.83,162.13Z"/><path class="cls-2" d="M116.22,146.35a9.64,9.64,0,0,1,6.11-2.42c3.86,0,6.52,1.79,6.67,6,0-4.42-2.72-6.3-6.67-6.3a9.61,9.61,0,0,0-6.07,2.39Z"/><path class="cls-2" d="M162.17,151.51c0-.24,0-.47,0-.7,0,.14,0,.27,0,.41h-7.54a2.47,2.47,0,0,0-.06.29Z"/><path class="cls-2" d="M129.46,153.25c.75-6.17,4.69-9.32,10.86-9.32,5.32,0,8.49,1.6,8.58,4.86.1-3.45-3.1-5.15-8.58-5.15-6.17,0-10.11,3.15-10.86,9.31a13,13,0,0,0-.11,1.83A13.77,13.77,0,0,1,129.46,153.25Z"/><path class="cls-2" d="M70.83,158.81a10.21,10.21,0,0,0,5-1.47l.31-2.55h0L75.87,157a10.1,10.1,0,0,1-5,1.48c-1.51,0-2.3-.66-2.4-1.59C68.38,158,69.17,158.81,70.83,158.81Z"/><path class="cls-2" d="M50.85,156.8c2.25,0,3.55-1.47,3.81-3.63a5,5,0,0,0,0-.85,3.48,3.48,0,0,1,0,.55c-.26,2.16-1.56,3.63-3.81,3.63h-12l0,.3Z"/><path class="cls-2" d="M59.59,146.27l-.21.16a6.37,6.37,0,0,1,3.27,5.74A6.4,6.4,0,0,0,59.59,146.27Z"/><path class="cls-2" d="M51.64,144A3.18,3.18,0,0,0,55,141a4.12,4.12,0,0,0,0-.69,2.8,2.8,0,0,1,0,.4,3.18,3.18,0,0,1-3.31,3H40.41l0,.3Z"/><path class="cls-2" d="M203.43,140l-.05.1-2.46,20a3.23,3.23,0,0,0,0,.44v-.15Z"/><path class="cls-2" d="M247.8,138.23h0l-2.7,22a1.89,1.89,0,0,0,0,.41s0-.08,0-.12Z"/><path class="cls-2" d="M210.72,160.51v-.15l3.21-26.15a2.29,2.29,0,0,1,2.22-1.94h54.22a1,1,0,0,0,.07-.3H216.15a2.29,2.29,0,0,0-2.22,1.94l-3.21,26.15A2.25,2.25,0,0,0,210.72,160.51Z"/><path class="cls-2" d="M148.52,154.75a13.25,13.25,0,0,1,.11-1.5c.74-6,4.76-9.31,10.68-9.31,5.35,0,8.47,2.56,8.53,7.35.06-5-3.07-7.64-8.53-7.64-5.92,0-9.94,3.28-10.68,9.31A14.19,14.19,0,0,0,148.52,154.75Z"/><path class="cls-2" d="M165.67,156.54h-2.45a2.64,2.64,0,0,0-2,.87,4.73,4.73,0,0,1-3.35,1.11c-2.56,0-3.66-1-3.72-3.33,0,2.51,1.05,3.62,3.72,3.62a4.73,4.73,0,0,0,3.35-1.1,2.6,2.6,0,0,1,2-.87h2.45a.84.84,0,0,1,.87.73v0A.86.86,0,0,0,165.67,156.54Z"/><path class="cls-2" d="M147.27,155.53h-2.45a2.52,2.52,0,0,0-2,1.21,4.57,4.57,0,0,1-3.71,1.54c-2.72,0-3.83-1.08-3.91-3.47,0,2.59,1.08,3.76,3.91,3.76A4.54,4.54,0,0,0,142.8,157a2.53,2.53,0,0,1,2-1.2h2.45a.85.85,0,0,1,.88.73v0A.86.86,0,0,0,147.27,155.53Z"/><path class="cls-2" d="M231.8,144H220.64l0,.29H231.8a1.72,1.72,0,0,1,1.74,1.56A1.71,1.71,0,0,0,231.8,144Z"/><path class="cls-2" d="M62.74,157.32a5.21,5.21,0,0,1,0-.55c.47-3.79,4-5.7,8.44-5.7h5.43a7.46,7.46,0,0,0,0-1c0,.23,0,.47,0,.73H71.21c-4.39,0-8,1.91-8.44,5.69A6.2,6.2,0,0,0,62.74,157.32Z"/><path class="cls-2" d="M74.56,143.94c4.43,0,7.77,1.69,7.81,5.92.11-4.45-3.28-6.22-7.81-6.22-5.42,0-9,1.21-9.48,4.69a1.22,1.22,0,0,0,0,.27C65.53,145.14,69.15,143.94,74.56,143.94Z"/><path class="cls-2" d="M30.4,160.51l3.23-26.25a2.3,2.3,0,0,1,2.23-2H53c5,0,9.91,2,10,7.29.11-5.5-4.88-7.59-10-7.59H35.86a2.3,2.3,0,0,0-2.23,2L30.4,160.21a2.06,2.06,0,0,0,0,.43Z"/><path class="cls-2" d="M32.94,165.26H168.15c1.6,0,1.95-2.77,1.95-2.77l3.44-28a2.29,2.29,0,0,1,2.17-2h8.52a2.43,2.43,0,0,1,2.29,2l4,17.85,8.36-17.85a3.32,3.32,0,0,1,2.77-2h8.52a1.66,1.66,0,0,1,1.68,1.56,1.68,1.68,0,0,0-1.68-1.86h-8.52a3.32,3.32,0,0,0-2.77,2L190.49,152l-4-17.85a2.43,2.43,0,0,0-2.29-2h-8.52a2.29,2.29,0,0,0-2.17,2l-3.44,28s-.35,2.78-1.95,2.78H32.94A3.52,3.52,0,0,0,29.53,168h.06A3.42,3.42,0,0,1,32.94,165.26Z"/><path class="cls-2" d="M75.9,161.16l.06-.47,0,0,0,.18A1.22,1.22,0,0,0,75.9,161.16Z"/><path class="cls-2" d="M82.15,161.41l2.74-22.31a1.19,1.19,0,0,1,1.18-1h3.8a.88.88,0,0,1,.92.78v0a.9.9,0,0,0-.92-1.05h-3.8a1.2,1.2,0,0,0-1.18,1.05l-2.74,22.34A1.22,1.22,0,0,0,82.15,161.41Z"/><path class="cls-2" d="M232.81,156.15H219.16l0,.3h13.69a1.65,1.65,0,0,1,1.7,1.51A1.66,1.66,0,0,0,232.81,156.15Z"/><path class="cls-2" d="M102.5,161.16l.06-.47,0,0,0,.18A1.22,1.22,0,0,0,102.5,161.16Z"/><path class="cls-2" d="M97.43,158.81a10.24,10.24,0,0,0,5-1.47l.31-2.55h0l-.27,2.25a10.14,10.14,0,0,1-5,1.48c-1.51,0-2.3-.66-2.4-1.59C95,158,95.77,158.81,97.43,158.81Z"/><path class="cls-2" d="M123.21,150.83a7.63,7.63,0,0,1,0,.8L122,161.16a1.11,1.11,0,0,0,0,.26l1.17-9.49A8.63,8.63,0,0,0,123.21,150.83Z"/><path class="cls-2" d="M89.34,157.32a5.21,5.21,0,0,1,0-.55c.47-3.79,4-5.7,8.44-5.7h5.43a7.46,7.46,0,0,0,.05-1,6.4,6.4,0,0,1-.05.73H97.81c-4.39,0-8,1.91-8.44,5.69A6.2,6.2,0,0,0,89.34,157.32Z"/><path class="cls-2" d="M101.17,143.94c4.42,0,7.76,1.69,7.8,5.92.11-4.45-3.28-6.22-7.8-6.22-5.43,0-9.06,1.21-9.49,4.69a1.22,1.22,0,0,0,0,.27C92.13,145.14,95.75,143.94,101.17,143.94Z"/><path class="cls-2" d="M108.62,161.42l2-16.13a1.15,1.15,0,0,1,1.14-1h3.71a.85.85,0,0,1,.89.76v0a.87.87,0,0,0-.9-1h-3.71a1.15,1.15,0,0,0-1.14,1l-2,16.17A1.11,1.11,0,0,0,108.62,161.42Z"/></svg>