<svg id="Layer_1" data-name="Layer 1" xmlns="http://www.w3.org/2000/svg" viewBox="0 0 300 300"><defs><style>.cls-1{fill:#d9d8d6;}.cls-2{fill:#5f504d;}.cls-3{fill:#bbbcb6;}.cls-4{fill:#fff;}.cls-5{fill:#909288;}</style></defs><path class="cls-1" d="M248.88,134.11c-5.5-7-13.33-13.24-23.28-18.59-20.23-10.88-47.08-16.87-75.6-16.87s-55.37,6-75.6,16.87c-10,5.35-17.78,11.6-23.28,18.59-5.81,7.39-8.75,15.26-8.75,23.42s2.94,16,8.75,23.41c5.5,7,13.33,13.25,23.28,18.6,20.23,10.88,47.08,16.87,75.6,16.87s55.37-6,75.6-16.87c10-5.35,17.78-11.61,23.28-18.6,5.81-7.38,8.75-15.26,8.75-23.41S254.69,141.5,248.88,134.11Z"/><ellipse class="cls-2" cx="150" cy="157.53" rx="105.47" ry="56.72"/><ellipse class="cls-3" cx="150" cy="157.53" rx="103.56" ry="49.6"/><ellipse class="cls-4" cx="150" cy="157.53" rx="103.42" ry="47.95"/><path class="cls-4" d="M155,200.47l0-2.38-28.59-.29v-3.21L78.68,194v-1.57a3.47,3.47,0,0,1-1.46-.9,4.12,4.12,0,0,1-1-3V165.83a3.86,3.86,0,0,1,4.2-4.16h3.8a3.85,3.85,0,0,1,4.24,4.16v16.82h8a4.13,4.13,0,0,1,2.87.94l8-19.26a4.58,4.58,0,0,1,1.34-1.9,3.87,3.87,0,0,1,2.45-.76h3.57a3.9,3.9,0,0,1,2.46.76,4.71,4.71,0,0,1,1.34,1.89l7.13,17.08V165.79a4.12,4.12,0,0,1,1.1-3,4.27,4.27,0,0,1,3.14-1.1h3.09a4.57,4.57,0,0,1,2.05.41,4.22,4.22,0,0,1,1.66,1.51l5.12,7.36v-5.12a3.86,3.86,0,0,1,4.2-4.16h3.8a5.14,5.14,0,0,1,2,.36,5,5,0,0,1,2-.36h8.63c5,0,9,1.28,11.72,3.81a11.31,11.31,0,0,1,1.74,2v-1.69a3.86,3.86,0,0,1,4.2-4.16H194.8a3.94,3.94,0,0,1,3.12,1.19,3.55,3.55,0,0,1,.23.31c.09-.12.19-.23.29-.34a4.15,4.15,0,0,1,3.13-1.16h14.78a3.94,3.94,0,0,1,3.12,1.19l.1.12.05-.06a4.43,4.43,0,0,1,3.31-1.21h10.78c4.58,0,8.08,1,10.4,3.08s3.63,5.21,3.63,9.2c0,4.82-1.93,7.65-4,9.3L253,197.18l.06.12a3.7,3.7,0,0,1,.4,1.67,3,3,0,0,1-1,2.24,3.2,3.2,0,0,1-2.21.83h-.2Zm81.16-7.34-4.5-7v5.34a5.37,5.37,0,0,1-.24,1.66Zm-60.24-3.46a5.78,5.78,0,0,1-.11-1.13v-1.85a11.56,11.56,0,0,1-1.75,2.07,11.81,11.81,0,0,1-1.08.91Zm-33.74,0-4.35-6.25v5.16a5.37,5.37,0,0,1-.11,1.09Zm-26.09,0-.62-1.72h-5.2l-.61,1.72Zm78.67-7a4.36,4.36,0,0,1,2.61.73V171a4.41,4.41,0,0,1-2.57.7h-6.75v.46h4.71a4,4,0,0,1,3.1,1.16,4.23,4.23,0,0,1,1,3V178a4.25,4.25,0,0,1-1,3,4,4,0,0,1-3.1,1.15h-4.71v.5Zm21.56,0a4.68,4.68,0,0,1,2.18.47V171.27a4.71,4.71,0,0,1-2.15.45h-6.74v.46h4.71a4,4,0,0,1,3.1,1.16,4.25,4.25,0,0,1,1,3V178a4.21,4.21,0,0,1-1,3,4,4,0,0,1-3.1,1.16h-4.71v.5Zm-53.62,0c1.78,0,2.31-.66,2.49-.88s.88-1.46.88-4.6-.61-4.25-.87-4.58-.71-.87-2.5-.87h-.94v10.93Zm70.05-7.14c1.74,0,1.82-.52,1.82-1.52,0-1.27-.3-1.57-1.61-1.57h-1.3v3.09Z"/><path class="cls-1" d="M80.38,190.5h16a1.93,1.93,0,0,0,1.49-.45,2.23,2.23,0,0,0,.39-1.47v-1.81a2.34,2.34,0,0,0-.39-1.51,1.93,1.93,0,0,0-1.49-.45H86.26v-19a2.13,2.13,0,0,0-.47-1.51,2.17,2.17,0,0,0-1.61-.49h-3.8a1.74,1.74,0,0,0-2,2v22.71a2.09,2.09,0,0,0,.45,1.49A2.17,2.17,0,0,0,80.38,190.5Zm170.73,7.76L240.92,183a.41.41,0,0,1,.18-.53q4.49-2.41,4.48-8.45,0-5-2.89-7.58t-9-2.54H222.93a1.95,1.95,0,0,0-2.28,2.23s0,22.07,0,25.33a.4.4,0,0,1-.4.4H78.71l144.22,1.83h4.43a2.32,2.32,0,0,0,1.62-.52,2.26,2.26,0,0,0,.52-1.66v-7.14a.4.4,0,0,1,.4-.4h2.71a.4.4,0,0,1,.37.25l7.13,11.11H128.59v.37l112.5,1.15,1,1.5H155l95,1.58h.17a1.06,1.06,0,0,0,.77-.27.84.84,0,0,0,.29-.65A1.56,1.56,0,0,0,251.11,198.26Zm-18.36-20.59H229.5v-6.5l-3.7-.83h3.7v-.08H233c2.52,0,3.77,1.25,3.77,3.73S235.4,177.67,232.75,177.67ZM201.57,190.5h14.75a2,2,0,0,0,1.49-.45,2.23,2.23,0,0,0,.39-1.47v-1.81a2.34,2.34,0,0,0-.39-1.51,2,2,0,0,0-1.49-.45h-8.87V180h6.87a2,2,0,0,0,1.5-.45,2.2,2.2,0,0,0,.42-1.51V176.3a2.2,2.2,0,0,0-.42-1.51,2,2,0,0,0-1.5-.45h-6.87v-3.83l-4.29-1h13.19a1.92,1.92,0,0,0,1.49-.45,2.26,2.26,0,0,0,.4-1.51v-1.81a2.26,2.26,0,0,0-.4-1.51,1.92,1.92,0,0,0-1.49-.45H201.57a2.1,2.1,0,0,0-1.57.49,2.13,2.13,0,0,0-.47,1.51v22.71A2.09,2.09,0,0,0,200,190,2.17,2.17,0,0,0,201.57,190.5Zm-21.56,0h14.75a1.93,1.93,0,0,0,1.49-.45,2.23,2.23,0,0,0,.39-1.47v-1.81a2.34,2.34,0,0,0-.39-1.51,1.93,1.93,0,0,0-1.49-.45h-8.87V180h6.87a2,2,0,0,0,1.51-.45,2.25,2.25,0,0,0,.41-1.51V176.3a2.25,2.25,0,0,0-.41-1.51,2,2,0,0,0-1.51-.45h-6.87v-4.11l-3-.68h12a1.93,1.93,0,0,0,1.49-.45,2.32,2.32,0,0,0,.39-1.51v-1.81a2.32,2.32,0,0,0-.39-1.51,1.93,1.93,0,0,0-1.49-.45H180a2.11,2.11,0,0,0-1.57.49,2.13,2.13,0,0,0-.47,1.51v22.71a2.09,2.09,0,0,0,.45,1.49A2.17,2.17,0,0,0,180,190.5Zm-80,0h6a1.54,1.54,0,0,0,.9-.22,1.46,1.46,0,0,0,.51-.72l1.33-3.77H117l1.37,3.77a1.28,1.28,0,0,0,1.37.94h6.08a.83.83,0,0,0,.61-.2.71.71,0,0,0,.22-.54,2.1,2.1,0,0,0-.2-.75l-10-23.85a2.67,2.67,0,0,0-.69-1,1.83,1.83,0,0,0-1.12-.29h-3.57a1.8,1.8,0,0,0-1.11.29,2.67,2.67,0,0,0-.69,1L99.33,189a2.17,2.17,0,0,0-.2.78C99.13,190.27,99.41,190.5,100,190.5Zm12.9-16.71,2.39,6.67h-4.78Zm16.93,16.71h3.8a2.3,2.3,0,0,0,1.61-.45,2,2,0,0,0,.47-1.47v-12l9.06,13a2,2,0,0,0,.78.76,2.85,2.85,0,0,0,1.14.18h3.1a3.05,3.05,0,0,0,1.19-.19,1.29,1.29,0,0,1-.42-.28,2.09,2.09,0,0,1-.45-1.49V165.83a2.13,2.13,0,0,1,.47-1.51A1.35,1.35,0,0,1,151,164a2.93,2.93,0,0,0-1.2-.21H146a1.74,1.74,0,0,0-2,2v12l-9.06-13A2.18,2.18,0,0,0,134,164a2.64,2.64,0,0,0-1.12-.2h-3.09a2.24,2.24,0,0,0-1.61.47,2,2,0,0,0-.47,1.49v22.75a2.09,2.09,0,0,0,.45,1.49A2.17,2.17,0,0,0,129.79,190.5Zm23.93,0h8.63q6.71,0,10.24-3.31t3.53-10q0-6.87-3.51-10.1t-10.26-3.24h-8.63a2.11,2.11,0,0,0-1.57.49,2.13,2.13,0,0,0-.47,1.51v22.71a2.09,2.09,0,0,0,.45,1.49A2.17,2.17,0,0,0,153.72,190.5Zm7.93-20.95h1a5,5,0,0,1,4.18,1.68c.9,1.13,1.35,3.1,1.35,5.93s-.45,4.8-1.35,5.94a5,5,0,0,1-4.18,1.7h-3.1V170.39l-3.75-.84Z"/><path class="cls-4" d="M95.35,163.85l-.43,0H83v-.47l-.08,0a15.66,15.66,0,0,1-5.28-3l-.42-.38c-.18-.17-.38-.37-.59-.6s-.65-.71-.94-1.07l-.18-.23a3.24,3.24,0,0,1-.61-1.91,3,3,0,0,1,0-.42c0-.12,0-.25.07-.39.16-.7.31-1.42.47-2.13.29-1.38.58-2.79.87-4.15l.48-2.3q.06-.34.15-.69c0-.22.09-.43.13-.64l0,0a7.6,7.6,0,0,1-.78-1.46,6.94,6.94,0,0,1-.4-1.27,11,11,0,0,1-1.59.13q-.33,0-.66,0a4.92,4.92,0,0,1-3-1.43l-.25-.22a17.26,17.26,0,0,1-3-3.93c-.2-.33-.39-.66-.58-1a2.4,2.4,0,0,1,.72-3.27,3.1,3.1,0,0,1,.78-.36c.4-.11.76-.21,1.11-.29s.79-.17,1.16-.24a12.4,12.4,0,0,1,1.65-.18h.51a10.09,10.09,0,0,1,2.14.22l.32.06a9.68,9.68,0,0,0-3.23-1.2,27.75,27.75,0,0,1-10.39-3.58c-.67-.38-1.49-.76-2.36-1.15-3.13-1.42-7-3.2-9-7.58a22,22,0,0,0-3.6-5.21c-1.58-1.84-3.07-3.59-3.36-5.76,0-.26-.09-.55-.14-.88-.57-3.5-1.75-10.77,3.46-21.24v0a2.82,2.82,0,0,1,2.51-1.87,2.31,2.31,0,0,1,1.73.79c.77.88.77,2.11.49,4.21-.13,1-.38,2.18-.66,3.55-.12.56-.24,1.14-.37,1.76a2.35,2.35,0,0,1,.47-.41,2.38,2.38,0,0,1,1.37-.44,2.56,2.56,0,0,1,2.45,2,15.7,15.7,0,0,1,.4,1.58,17.79,17.79,0,0,0,.59,2.23l.13.35.54-.39a7.93,7.93,0,0,0,1.45-1.32l.17-.58c0-.06.49-1.65,1.15-3.27.93-2.29,2.08-4.4,4.14-4.4a2.58,2.58,0,0,1,1.12.25l.15.07.14.09a2.55,2.55,0,0,1,.82,3.22l0,.09a2.35,2.35,0,0,1,.79,1.62c0,.57.1,1.6-3,5.48a63.4,63.4,0,0,1-2.6,8,3.9,3.9,0,0,1,1.25,2.5c.14.69.29,1.56.41,2.26.08.43.17,1,.21,1.14.52,1.59,2.2,5.34,6.5,6.28a8.31,8.31,0,0,1-.6-3.71,38.41,38.41,0,0,1,.53-4.07c.21-1.08.61-3.1,2.56-3.1.23,0,2.26.08,2.26,2.73,0,.25,0,.52,0,.8-.11,1.79-.31,4.8,4,8.14a24.33,24.33,0,0,1,6.17,6.81c0,.07.07.13.1.19a24.14,24.14,0,0,1,6.27-7c4.29-3.34,4.09-6.35,4-8.14,0-.28,0-.55,0-.8,0-2.65,2-2.73,2.26-2.73,2,0,2.34,2,2.56,3.1a38.41,38.41,0,0,1,.53,4.07,8.45,8.45,0,0,1-.6,3.71c4.3-.94,6-4.69,6.5-6.28,0-.18.13-.71.21-1.14.12-.7.26-1.57.41-2.26a3.93,3.93,0,0,1,1.24-2.5,67,67,0,0,1-2.6-8c-3.08-3.88-3-4.91-3-5.48a2.31,2.31,0,0,1,.79-1.62l0-.09a2.66,2.66,0,0,1,.82-3.22l.14-.09.15-.07a2.58,2.58,0,0,1,1.12-.25c2.06,0,3.21,2.11,4.14,4.4.66,1.62,1.13,3.21,1.15,3.27l.17.58a7.93,7.93,0,0,0,1.45,1.32l.54.39.13-.35a17.79,17.79,0,0,0,.59-2.23,15,15,0,0,1,.4-1.58,2.56,2.56,0,0,1,2.44-2,2.38,2.38,0,0,1,1.38.44,2.28,2.28,0,0,1,.46.41c-.12-.62-.24-1.2-.36-1.76-.29-1.37-.53-2.56-.67-3.55-.27-2.1-.27-3.33.5-4.21a2.3,2.3,0,0,1,1.72-.79,2.83,2.83,0,0,1,2.52,1.87v0c5.21,10.47,4,17.74,3.46,21.24-.05.33-.1.62-.14.88-.3,2.17-1.78,3.92-3.36,5.77a21.78,21.78,0,0,0-3.61,5.2c-2,4.38-5.84,6.16-9,7.58-.87.39-1.69.77-2.36,1.15a26.45,26.45,0,0,1-7.26,3,9.69,9.69,0,0,1,7.36,10.12,8.81,8.81,0,0,1-1.31,4.7,8,8,0,0,1-.57.82,8.41,8.41,0,0,1,2.67,6.65,10.59,10.59,0,0,1-3.48,8.13l0,0,0,0a13.94,13.94,0,0,1-8.16,3.11Zm22.07-64.34a3.33,3.33,0,0,1,.89,1.87c0,.13,0,.28.08.44a30.49,30.49,0,0,0-.42-5A26.9,26.9,0,0,1,117.42,99.51ZM49.75,96.82a30.49,30.49,0,0,0-.42,5c0-.16.05-.31.08-.45a3.33,3.33,0,0,1,.89-1.86A26.9,26.9,0,0,1,49.75,96.82Z"/><path class="cls-4" d="M119.25,161.21a18.79,18.79,0,0,1-7.41-1.39,12,12,0,0,1-5.35-4.3,11.68,11.68,0,0,1-1.94-6.7v-15a4.18,4.18,0,0,1,1.07-3,4.11,4.11,0,0,1,3.12-1.15h3.81a3.85,3.85,0,0,1,4.23,4.16v15.13c0,1.27.42,1.65.56,1.78a2.68,2.68,0,0,0,1.91.58,2.45,2.45,0,0,0,1.89-.57c.13-.12.54-.51.54-1.79V133.8a3.86,3.86,0,0,1,4.2-4.16h3.81a4.27,4.27,0,0,1,3.15,1.12,4.12,4.12,0,0,1,1.12,3v15a11.65,11.65,0,0,1-2,6.71,12.17,12.17,0,0,1-5.34,4.29A18.76,18.76,0,0,1,119.25,161.21Z"/><path class="cls-1" d="M129.69,131.8h-3.81a1.74,1.74,0,0,0-2,2v15.13a4.42,4.42,0,0,1-1.21,3.36,4.72,4.72,0,0,1-3.38,1.16,4.79,4.79,0,0,1-3.39-1.16,4.39,4.39,0,0,1-1.23-3.36V133.8a2.12,2.12,0,0,0-.47-1.51,2.17,2.17,0,0,0-1.61-.49h-3.81a1.74,1.74,0,0,0-2,2v15a9.6,9.6,0,0,0,1.57,5.49,9.91,9.91,0,0,0,4.41,3.53,16.63,16.63,0,0,0,6.57,1.21,16.43,16.43,0,0,0,6.55-1.21,10,10,0,0,0,4.42-3.53,9.46,9.46,0,0,0,1.58-5.49v-15a2,2,0,0,0-.49-1.51A2.21,2.21,0,0,0,129.69,131.8Z"/><path class="cls-4" d="M149.14,160.62a4.17,4.17,0,0,1-1.84-.36,3.07,3.07,0,0,1-1.58-1.76l-2.11-5.14v3.14a4.1,4.1,0,0,1-1.1,3,4.26,4.26,0,0,1-3.13,1.1h-3.81a3.79,3.79,0,0,1-4.2-4.12V133.8a4.18,4.18,0,0,1,1.08-3,4.11,4.11,0,0,1,3.12-1.15h9.65c4.16,0,7.34.94,9.47,2.81s3.32,4.76,3.32,8.41c0,4.4-1.77,7-3.72,8.54l3.08,6.69a3.55,3.55,0,0,1,.36,1.55,2.94,2.94,0,0,1-.94,2.18,3.12,3.12,0,0,1-2.16.8ZM144.36,142c1.41,0,1.41-.35,1.41-1.13,0-1.08-.22-1.18-1.22-1.18h-.94V142Z"/><path class="cls-1" d="M155.85,140.86q0-4.52-2.59-6.79c-1.72-1.52-4.4-2.27-8-2.27h-9.65a1.74,1.74,0,0,0-2,2v22.7A2.09,2.09,0,0,0,134,158a2.13,2.13,0,0,0,1.59.48h3.81A2.21,2.21,0,0,0,141,158a2,2,0,0,0,.47-1.49v-6.74h3l3.25,8a1,1,0,0,0,.49.59,2.27,2.27,0,0,0,.92.16h5.49a1,1,0,0,0,.69-.24.77.77,0,0,0,.26-.59,1.47,1.47,0,0,0-.16-.63l-3.88-8.43Q155.85,146.46,155.85,140.86Zm-11.49,3.29h-2.9v-5.84l-3.55-.8h6.64q3.38,0,3.38,3.34T144.36,144.15Z"/><path class="cls-4" d="M177.25,160.62a3.41,3.41,0,0,1-3.39-2.33l-.87-2.38h-5.2l-.83,2.36v0a3.59,3.59,0,0,1-1.3,1.72,3.66,3.66,0,0,1-2.13.6h-6a2.83,2.83,0,0,1-3-2.87,4.21,4.21,0,0,1,.36-1.61l10-23.85a4.68,4.68,0,0,1,1.34-1.9,3.9,3.9,0,0,1,2.46-.76h3.57a3.85,3.85,0,0,1,2.45.76,4.5,4.5,0,0,1,1.34,1.9l10,23.85a4.19,4.19,0,0,1,.36,1.58,2.86,2.86,0,0,1-.92,2.14,3,3,0,0,1-2.06.76Z"/><path class="cls-1" d="M184,157l-10-23.85a2.65,2.65,0,0,0-.68-1,1.76,1.76,0,0,0-1.12-.3h-3.57a1.76,1.76,0,0,0-1.12.3,2.45,2.45,0,0,0-.68,1l-10,23.85a2.13,2.13,0,0,0-.19.78c0,.48.27.71.82.71h6a1.62,1.62,0,0,0,.9-.21,1.54,1.54,0,0,0,.51-.73l1.34-3.77h8.23l1.38,3.77a1.54,1.54,0,0,0,.51.73,1.5,1.5,0,0,0,.86.21h6.08a.85.85,0,0,0,.61-.2.7.7,0,0,0,.21-.54A1.9,1.9,0,0,0,184,157Zm-16-8.55,2.39-6.67,2.4,6.67Z"/><path class="cls-5" d="M201.57,190.5h14.75a2,2,0,0,0,1.49-.45,2.23,2.23,0,0,0,.39-1.47v-1.81a2.34,2.34,0,0,0-.39-1.51,2,2,0,0,0-1.49-.45h-8.87V180h6.86a2,2,0,0,0,1.52-.45,2.25,2.25,0,0,0,.41-1.51V176.3a2.25,2.25,0,0,0-.41-1.51,2,2,0,0,0-1.52-.45h-6.86v-3.83l-4.29-1h13.19a1.92,1.92,0,0,0,1.49-.45,2.26,2.26,0,0,0,.4-1.51v-1.81a2.26,2.26,0,0,0-.4-1.51,1.92,1.92,0,0,0-1.49-.45H201.57a2.1,2.1,0,0,0-1.57.49,2.13,2.13,0,0,0-.47,1.51v22.71A2.09,2.09,0,0,0,200,190,2.17,2.17,0,0,0,201.57,190.5Zm-21.56,0h14.75a1.93,1.93,0,0,0,1.49-.45,2.23,2.23,0,0,0,.39-1.47v-1.81a2.34,2.34,0,0,0-.39-1.51,1.93,1.93,0,0,0-1.49-.45h-8.87V180h6.87a2,2,0,0,0,1.51-.45,2.25,2.25,0,0,0,.41-1.51V176.3a2.25,2.25,0,0,0-.41-1.51,2,2,0,0,0-1.51-.45h-6.87v-4.11l-3-.68h12a1.93,1.93,0,0,0,1.49-.45,2.32,2.32,0,0,0,.39-1.51v-1.81a2.32,2.32,0,0,0-.39-1.51,1.93,1.93,0,0,0-1.49-.45H180a2.11,2.11,0,0,0-1.57.49,2.13,2.13,0,0,0-.47,1.51v22.71a2.09,2.09,0,0,0,.45,1.49A2.17,2.17,0,0,0,180,190.5Zm-26.29,0h8.63q6.71,0,10.24-3.31t3.53-10q0-6.87-3.51-10.1t-10.26-3.24h-8.63a2.11,2.11,0,0,0-1.57.49,2.13,2.13,0,0,0-.47,1.51v22.71a2.09,2.09,0,0,0,.45,1.49A2.17,2.17,0,0,0,153.72,190.5Zm7.93-20.95h1a5,5,0,0,1,4.18,1.68c.9,1.13,1.35,3.1,1.35,5.93s-.45,4.8-1.35,5.94a5,5,0,0,1-4.18,1.7h-3.1V170.39l-3.75-.84ZM80.38,190.5h16a1.93,1.93,0,0,0,1.49-.45,2.23,2.23,0,0,0,.39-1.47v-1.81a2.34,2.34,0,0,0-.39-1.51,1.93,1.93,0,0,0-1.49-.45H86.26v-19a1.74,1.74,0,0,0-2.08-2h-3.8a1.74,1.74,0,0,0-2,2v22.71a2.09,2.09,0,0,0,.45,1.49A2.17,2.17,0,0,0,80.38,190.5Zm170.73,7.76L240.92,183a.41.41,0,0,1,.18-.53q4.49-2.41,4.48-8.45,0-5-2.89-7.58t-9-2.54H222.93a1.95,1.95,0,0,0-2.28,2.23s0,22.07,0,25.33a.4.4,0,0,1-.4.4H78.71l144.22,1.83h4.43a2.32,2.32,0,0,0,1.62-.52,2.26,2.26,0,0,0,.52-1.66v-7.14a.4.4,0,0,1,.4-.4h2.71a.4.4,0,0,1,.37.25l7.13,11.11H128.59v.37l112.5,1.15,1,1.5H155l95,1.58h.17a1.06,1.06,0,0,0,.77-.27.84.84,0,0,0,.29-.65A1.56,1.56,0,0,0,251.11,198.26Zm-18.36-20.59H229.5v-6.5l-3.7-.83h3.7v-.08H233c2.52,0,3.77,1.25,3.77,3.73S235.4,177.67,232.75,177.67ZM100,190.5h6a1.54,1.54,0,0,0,.9-.22,1.46,1.46,0,0,0,.51-.72l1.33-3.77H117l1.37,3.77a1.28,1.28,0,0,0,1.37.94h6.08a.83.83,0,0,0,.61-.2.71.71,0,0,0,.22-.54,2.1,2.1,0,0,0-.2-.75l-10-23.85a2.67,2.67,0,0,0-.69-1,1.83,1.83,0,0,0-1.12-.29h-3.57a1.8,1.8,0,0,0-1.11.29,2.67,2.67,0,0,0-.69,1L99.33,189a2.17,2.17,0,0,0-.2.78C99.13,190.27,99.41,190.5,100,190.5Zm12.9-16.71,2.39,6.67h-4.78Zm16.93,16.71h3.8a2.3,2.3,0,0,0,1.61-.45,2,2,0,0,0,.47-1.47v-12l9.06,13a2,2,0,0,0,.78.76,2.82,2.82,0,0,0,1.14.18h3.1a3.05,3.05,0,0,0,1.19-.19,1.29,1.29,0,0,1-.42-.28,2.09,2.09,0,0,1-.45-1.49V165.83a2.13,2.13,0,0,1,.47-1.51A1.35,1.35,0,0,1,151,164a2.93,2.93,0,0,0-1.2-.21H146a1.74,1.74,0,0,0-2,2v12l-9.06-13A2.18,2.18,0,0,0,134,164a2.61,2.61,0,0,0-1.12-.2h-3.09a2.24,2.24,0,0,0-1.61.47,2,2,0,0,0-.47,1.49v22.75a2.09,2.09,0,0,0,.45,1.49A2.17,2.17,0,0,0,129.79,190.5Z"/><path class="cls-2" d="M82.75,145.41a1.84,1.84,0,0,1-.45,1.8,1.12,1.12,0,0,0-.24.84,2.44,2.44,0,0,0,.27.84l.94-1.35a1,1,0,0,1,0-.4,6.74,6.74,0,0,0,0-1.68c0-.33-.12-.65-.2-1l-.32.71A1.55,1.55,0,0,1,82.75,145.41Z"/><path class="cls-2" d="M85.17,151.32a8.13,8.13,0,0,0,1.16-.51c.2-.13.46-.51.4-.64a1.87,1.87,0,0,0-.73-.82,1.94,1.94,0,0,0-.83-.22Z"/><path class="cls-2" d="M86.05,148.21c-.09,0-.19.22-.2.34s.14.19.24.25l1.34.69a1.77,1.77,0,0,0,.28-2.57,1.5,1.5,0,0,1-.26-.81,4.24,4.24,0,0,1,2.41-4,2.77,2.77,0,0,0,1.44-2.39,2,2,0,0,0-2.24.83A20.15,20.15,0,0,0,87.72,143a7,7,0,0,0-.8,3.5C87,147.35,87,148,86.05,148.21Z"/><path class="cls-2" d="M155.85,140.86q0-4.52-2.59-6.79c-1.72-1.52-4.4-2.27-8-2.27h-9.65a1.74,1.74,0,0,0-2,2v22.7A2.09,2.09,0,0,0,134,158a2.13,2.13,0,0,0,1.59.48h3.81A2.21,2.21,0,0,0,141,158a2,2,0,0,0,.47-1.49v-6.74h3l3.25,8a1,1,0,0,0,.49.59,2.27,2.27,0,0,0,.92.16h5.49a1,1,0,0,0,.69-.24.77.77,0,0,0,.26-.59,1.47,1.47,0,0,0-.16-.63l-3.88-8.43Q155.85,146.46,155.85,140.86Zm-11.49,3.29h-2.9v-5.84l-3.55-.8h6.64q3.38,0,3.38,3.34T144.36,144.15Z"/><path class="cls-2" d="M184,157l-10-23.85a2.65,2.65,0,0,0-.68-1,1.76,1.76,0,0,0-1.12-.3h-3.57a1.76,1.76,0,0,0-1.12.3,2.45,2.45,0,0,0-.68,1l-10,23.85a2.13,2.13,0,0,0-.19.78c0,.48.27.71.82.71h6a1.62,1.62,0,0,0,.9-.21,1.54,1.54,0,0,0,.51-.73l1.34-3.77h8.23l1.38,3.77a1.54,1.54,0,0,0,.51.73,1.5,1.5,0,0,0,.86.21h6.08a.85.85,0,0,0,.61-.2.7.7,0,0,0,.21-.54A1.9,1.9,0,0,0,184,157Zm-16-8.55,2.39-6.67,2.4,6.67Z"/><path class="cls-2" d="M129.69,131.8h-3.81a1.74,1.74,0,0,0-2,2v15.13a4.42,4.42,0,0,1-1.21,3.36,4.72,4.72,0,0,1-3.38,1.16,4.79,4.79,0,0,1-3.39-1.16,4.39,4.39,0,0,1-1.23-3.36V133.8a2.12,2.12,0,0,0-.47-1.51,2.17,2.17,0,0,0-1.61-.49h-3.81a1.74,1.74,0,0,0-2,2v15a9.6,9.6,0,0,0,1.57,5.49,9.91,9.91,0,0,0,4.41,3.53,16.63,16.63,0,0,0,6.57,1.21,16.43,16.43,0,0,0,6.55-1.21,10,10,0,0,0,4.42-3.53,9.46,9.46,0,0,0,1.58-5.49v-15a2,2,0,0,0-.49-1.51A2.21,2.21,0,0,0,129.69,131.8Z"/><path class="cls-2" d="M105.11,125.43c3.16-1.82,8.3-3,10.43-7.74s6.39-7.37,6.8-10.38,2.29-10-3.11-20.87c0,0-1.25-2.44-.68,1.87s3.9,14.22.47,20-1.66,1.09-2.18-2-.62-6-1.09-5.08-.41,3.32-.52,3.89-.78-.31-.73-2.08,1.93-7.32,1.25-7.79-.78,2.24-1.56,4.37-1.24,3-4,.93-2.38-3-2.38-3-2-6.75-3.43-6.08c-.62.42,1.77,3.22,1.61,4.73s-2.18-2.29-2.23-1.45,2.8,4.36,2.8,4.36,2.13,8.62,4.62,11.94,2,8.25-7.84,12.1a13.41,13.41,0,0,0,5.25-10.49c.1-7-1,1.3-1.2,1.92s-2,6.49-8.2,7.79a16.69,16.69,0,0,0-5.91,2.18c1.63-1.68,4.24-4.86,4-7.84-.37-4.31-1-6.23-1-4.62s1.09,6.07-4.78,10.64-6.85,9-6.85,9l1,.12H82.2l.92-.12s-1-4.41-6.85-9-4.78-9-4.78-10.64-.68.31-1,4.62c-.25,3,2.36,6.16,4,7.84a16.69,16.69,0,0,0-5.91-2.18c-6.18-1.3-8-7.17-8.2-7.79s-1.3-8.93-1.2-1.92a13.41,13.41,0,0,0,5.25,10.49c-9.82-3.85-10.34-8.78-7.84-12.1s4.62-11.94,4.62-11.94S64,95.58,64,94.75s-2.08,3-2.23,1.45,2.23-4.31,1.61-4.73c-1.46-.67-3.43,6.08-3.43,6.08s.36.93-2.39,3-3.22,1.19-4-.93S52.64,94.8,52,95.26s1.19,6,1.24,7.79-.62,2.65-.72,2.08-.05-3-.52-3.89-.57,2-1.09,5.08,1.24,7.74-2.18,2-.11-15.68.46-20-.67-1.87-.67-1.87c-5.4,10.85-3.53,17.86-3.12,20.87s4.68,5.61,6.81,10.38,7.26,5.92,10.43,7.74a25.59,25.59,0,0,0,9.66,3.32,13.35,13.35,0,0,1,6.5,3.3v2.36l14.16.13c.69-.1,1.22-.19,1.76-.24a30.36,30.36,0,0,1,3.8-.28,14.28,14.28,0,0,1,2.93.61.5.5,0,0,1,.17.43c-1.1,1.85-2.12,3.77-4,5a2.68,2.68,0,0,1-1.53.47,31.55,31.55,0,0,1-3.19-.5l-.5-.11c0,.55-.06,1-.09,1.54a4.83,4.83,0,0,1-1.15,2.87,1.12,1.12,0,0,0-.26,1.07c.5,2.3,1,4.61,1.47,6.91.27,1.26.56,2.52.8,3.79a.77.77,0,0,1-.19.56,14,14,0,0,1-7.11,4.87,2.09,2.09,0,0,1-.72.12h9.89a11.52,11.52,0,0,0,7.06-2.58h0a8.45,8.45,0,0,0,2.78-6.53c0-3-1.17-5-3.53-6a.4.4,0,0,1,0-.7,5.66,5.66,0,0,0,1.81-1.86,6.75,6.75,0,0,0,1-3.57,8.13,8.13,0,0,0-2.45-6.29q-2.19-2-6.53-2.23v0h-6a13.29,13.29,0,0,1,6.26-3.08A25.65,25.65,0,0,0,105.11,125.43Zm4.77-22.59c4,2.29,3.79,7.22,3.79,7.22C112,108.71,109.88,102.84,109.88,102.84ZM54,110.06s-.15-4.93,3.79-7.22C57.83,102.84,55.76,108.71,54,110.06Z"/><path class="cls-2" d="M85.07,151.29a5.83,5.83,0,0,1-1.07-.45c-.23-.15-.55-.52-.5-.66a1.76,1.76,0,0,1,.73-.82,1.8,1.8,0,0,1,.84-.23V134.47l-5.59-.33s-2.34.33-2.37.37c-.9-.13-1.82-.19-2.71-.38a11.36,11.36,0,0,0-5.55.47c-.26.08-.35.23-.21.47a18.11,18.11,0,0,0,3.19,4.42,3.29,3.29,0,0,0,2,1.08,9,9,0,0,0,3.38-.47c.21-.07.43-.11.64-.16a.62.62,0,0,1,.07.18,5.87,5.87,0,0,0,1.36,4.51.83.83,0,0,1,.1.59c-.12.65-.28,1.29-.41,1.94-.6,2.87-1.18,5.75-1.83,8.62a1.21,1.21,0,0,0,.29,1.13,13.38,13.38,0,0,0,6.26,4.39,5.11,5.11,0,0,0,1.42.36Zm-3-3.24a1.12,1.12,0,0,1,.24-.84,1.84,1.84,0,0,0,.45-1.8A4.22,4.22,0,0,0,80.32,142a2.77,2.77,0,0,1-1.4-2.09c0-.08.17-.31.27-.31a2.09,2.09,0,0,1,2,.94,12.92,12.92,0,0,1,2,4.89,6.74,6.74,0,0,1,0,1.68.71.71,0,0,0,.45.84c.26.13.75.15.66.56,0,.18-.49.25-.73.41a9.57,9.57,0,0,0-.75.64A2.54,2.54,0,0,1,82.06,148.05Z"/></svg>