<svg id="Layer_1" data-name="Layer 1" xmlns="http://www.w3.org/2000/svg" viewBox="0 0 300 300"><defs><style>.cls-1{fill:#8c9091;}.cls-2{fill:#2e5894;}.cls-3{fill:#fff;}</style></defs><path class="cls-1" d="M76.78,198.56a1.78,1.78,0,0,1-.93,1.55,5.59,5.59,0,0,1-5.08,0,1.79,1.79,0,0,1-.93-1.55v-4.15h1v3.9a1.21,1.21,0,0,0,.63,1.1,4.6,4.6,0,0,0,3.66,0,1.22,1.22,0,0,0,.62-1.1v-3.9h1Z"/><path class="cls-1" d="M85.74,200.54H84.47l-4.67-5v5h-1v-6.13H80l4.68,5v-5h1Z"/><path class="cls-1" d="M96.07,200.54H90.33v-6.13h1v5.21h4.73Z"/><path class="cls-1" d="M103.68,200.54H97.26v-6.13h6.18v.91H98.28v1.58h3.59v.91H98.28v1.81h5.4Z"/><path class="cls-1" d="M112.73,197.38a3.06,3.06,0,0,1-1.07,2.42,4.23,4.23,0,0,1-2.84.92,4.32,4.32,0,0,1-2.7-.83,3,3,0,0,1,0-4.84,4.41,4.41,0,0,1,2.77-.83,4.2,4.2,0,0,1,3.32,1.48l-1,.47a3.21,3.21,0,0,0-2.45-1,3.27,3.27,0,0,0-2,.57,2.07,2.07,0,0,0-.91,1.75,2.05,2.05,0,0,0,.79,1.67,3.15,3.15,0,0,0,2.08.64,2.52,2.52,0,0,0,2.64-1.58h-2.85v-.91h4.12Z"/><path class="cls-1" d="M121.32,200.54h-1.11l-.71-1.37h-4.13l-.7,1.37h-1.11l3.24-6.13h1.28ZM119,198.25l-1.56-3-1.58,3Z"/><path class="cls-1" d="M126.34,194.41a3.61,3.61,0,0,1,2.54.85,3,3,0,0,1,.93,2.28,2.81,2.81,0,0,1-1,2.19,3.31,3.31,0,0,1-2.28.81h-4.07v-6.13Zm.28,5.21a2,2,0,0,0,2.09-2.1,2.09,2.09,0,0,0-.63-1.59,2.3,2.3,0,0,0-1.65-.61h-3v4.3Z"/><path class="cls-1" d="M139,197.47a2.89,2.89,0,0,1-1.24,2.43,4.83,4.83,0,0,1-5.4,0,3,3,0,0,1,0-4.84,4.77,4.77,0,0,1,5.38,0A2.9,2.9,0,0,1,139,197.47Zm-1.06,0a2.07,2.07,0,0,0-.91-1.75,3.27,3.27,0,0,0-2-.57,3.23,3.23,0,0,0-2.08.65,2.17,2.17,0,0,0,0,3.35,3.28,3.28,0,0,0,2.1.63,3.18,3.18,0,0,0,2.09-.64A2.07,2.07,0,0,0,138,197.47Z"/><path class="cls-1" d="M147.17,194.41a3.63,3.63,0,0,1,2.54.85,3,3,0,0,1,.93,2.28,2.81,2.81,0,0,1-1,2.19,3.33,3.33,0,0,1-2.28.81H143.3v-6.13Zm.28,5.21A2,2,0,0,0,149,199a2.06,2.06,0,0,0,.59-1.51,2.09,2.09,0,0,0-.63-1.59,2.3,2.3,0,0,0-1.65-.61h-2.95v4.3Z"/><path class="cls-1" d="M158.72,200.54h-6.41v-6.13h6.18v.91h-5.17v1.58h3.59v.91h-3.59v1.81h5.4Z"/><path class="cls-1" d="M169.75,200.54h-1.26l-4.68-5v5h-1v-6.13h1.26l4.69,5v-5h1Z"/><path class="cls-1" d="M178.7,198.56a1.78,1.78,0,0,1-.93,1.55,5.59,5.59,0,0,1-5.08,0,1.79,1.79,0,0,1-.93-1.55v-4.15h1v3.9a1.21,1.21,0,0,0,.63,1.1,4.6,4.6,0,0,0,3.66,0,1.22,1.22,0,0,0,.62-1.1v-3.9h1Z"/><path class="cls-1" d="M186.72,195.32h-2.93v5.22h-1v-5.22h-2.93v-.91h6.87Z"/><path class="cls-1" d="M194.86,200.54h-1.18L192,198.2h-3.09v2.34h-1v-6.13h4.83a2.11,2.11,0,0,1,1.52.52,1.85,1.85,0,0,1,.55,1.41,1.73,1.73,0,0,1-.45,1.25,1.93,1.93,0,0,1-1.14.56Zm-2.27-3.25c.79,0,1.18-.32,1.18-.95s-.42-1-1.27-1h-3.57v2Z"/><path class="cls-1" d="M197.46,200.54h-1v-6.13h1Z"/><path class="cls-1" d="M206.66,195.81l-.92.33a3.42,3.42,0,0,0-2.61-1,3.13,3.13,0,0,0-2.07.65,2.15,2.15,0,0,0,0,3.34,3.35,3.35,0,0,0,2.14.64,3.31,3.31,0,0,0,2.55-1l.88.48a3.77,3.77,0,0,1-1.5,1.11,5.17,5.17,0,0,1-2,.35,4.32,4.32,0,0,1-2.7-.82,3,3,0,0,1,0-4.85,4.28,4.28,0,0,1,2.68-.82A4.2,4.2,0,0,1,206.66,195.81Z"/><path class="cls-1" d="M209.37,200.54h-1v-6.13h1Z"/><path class="cls-1" d="M219,197.47a2.91,2.91,0,0,1-1.23,2.43,4.4,4.4,0,0,1-2.7.82,4.32,4.32,0,0,1-2.7-.83,3,3,0,0,1,0-4.84,4.31,4.31,0,0,1,2.69-.83,4.25,4.25,0,0,1,2.69.83A2.9,2.9,0,0,1,219,197.47Zm-1.06,0a2.07,2.07,0,0,0-.91-1.75,3.27,3.27,0,0,0-2-.57,3.23,3.23,0,0,0-2.08.65,2.16,2.16,0,0,0,0,3.35,3.24,3.24,0,0,0,2.09.63,3.18,3.18,0,0,0,2.09-.64A2.07,2.07,0,0,0,217.91,197.47Zm-1.82-4.94L215,193.94h-.52l.58-1.41Z"/><path class="cls-1" d="M227.65,200.54h-1.26l-4.68-5v5h-1v-6.13H222l4.68,5v-5h1Z"/><path class="cls-2" d="M261.48,101.23,248.67,115.4l-12.86-14.17H198.07v4.53h13.24v25.81h5V105.76h13.24v-4.48l16.55,18.31v12h5v-12l16.6-18.36ZM155.19,131.57h5.5l-16.05-30.34h-6.33l-16,30.34h5.5l3.5-6.79h20.43ZM133.7,120.26l7.82-14.7,7.73,14.7Zm-68-3.52q0-7.08-4.63-11.3t-12.55-4.21H29.36v30.34H49.52a16.49,16.49,0,0,0,11.31-4A13.81,13.81,0,0,0,65.74,116.74Zm-8.36,7.38a10.07,10.07,0,0,1-7.44,2.93H34.39V105.76H49a11.34,11.34,0,0,1,8.2,3,10.38,10.38,0,0,1,3.12,7.86A10.19,10.19,0,0,1,57.38,124.12Zm19.29-22.89h-5v30.34h5Zm110.21,24.7a18,18,0,0,1-7.87,1.4,27.54,27.54,0,0,1-14.63-4.16l-2.64,3.48q6.15,4.88,17.23,4.87,7.64,0,11.71-2.52a7.91,7.91,0,0,0,4.08-7.11,6.56,6.56,0,0,0-2.6-5.56c-1.73-1.3-4.41-2.2-8-2.68q-1.92-.24-7.92-.64a23.23,23.23,0,0,1-5.88-.88c-1.68-.58-2.52-1.52-2.52-2.8s.79-2.18,2.36-2.87a17.33,17.33,0,0,1,6.8-1,28.65,28.65,0,0,1,13.11,3.27l2.92-3.23q-6.31-4.29-15.67-4.28-7,0-10.78,2.36a7.24,7.24,0,0,0-3.81,6.43,5.83,5.83,0,0,0,3.35,5.64q2.88,1.44,10,1.92a77.07,77.07,0,0,1,9.91,1q3.53.91,3.52,3.68Q189.56,124.57,186.88,125.93ZM80.7,153.31H56.39V141h-5v30.34h5V157.84H80.7v13.49h5V141h-5ZM169,156.75a8.68,8.68,0,0,0,2.22-6.21,9.14,9.14,0,0,0-2.72-7A10.48,10.48,0,0,0,161,141H137.1v30.34h5V159.76h15.31l8.21,11.57h5.85l-8.13-11.82A9.65,9.65,0,0,0,169,156.75Zm-26.9-1.51v-9.72h17.68c4.19,0,6.29,1.67,6.29,5,0,3.12-1.95,4.69-5.83,4.69Zm-17.39-11.11a21.28,21.28,0,0,0-13.29-4.1,21.53,21.53,0,0,0-13.32,4.1,14.79,14.79,0,0,0-.09,24q5.37,4.06,13.41,4.07a21.61,21.61,0,0,0,13.33-4,14.85,14.85,0,0,0,0-24.06Zm-26.89,8.43s-.11.19-.27.52a9.58,9.58,0,0,1,1.87-3.27,15.1,15.1,0,0,1,13.06.9S104.39,147.22,97.85,152.56Zm4.63,12.87c-.36-1.35-.32-3.75,3-6.22a2.49,2.49,0,0,1,.42-.32c-.14.11-.29.21-.42.32-.9.79-2.44,2.47.33,7.64A14.07,14.07,0,0,1,102.48,165.43Zm19.3-1q-3.87,3.19-10.33,3.19a22,22,0,0,1-3.53-.27c-7.88-8.88,2.83-10.2,2.83-10.2.47,2.6,1.37,3.89,2.94,4.44s2.72,1.07,2.72,1.54.48,1.1,1.26,1.66a1.18,1.18,0,0,0,1.73-.32c.24-.39,1.34-.47,1.34-1.26a44.34,44.34,0,0,0-1.89-5.51,4.66,4.66,0,0,0-.08-1.8,17.91,17.91,0,0,0-1.24-2.84c1-1.07.61-3.33.53-3.44a7.05,7.05,0,0,1-.63,1.41,3.68,3.68,0,0,0-.07-2l-1.26,2a16.64,16.64,0,0,0-7.27-4.49,21.22,21.22,0,0,1,6.53,5.46,20.91,20.91,0,0,0-11.54-5.78,17.61,17.61,0,0,1,7.63-1.55,16,16,0,0,1,9.68,2.84,10.64,10.64,0,0,1,.65,16.93ZM219,157.84h17.77v-4.53H219v-7.79h25.56V141H214v30.34h31.77V166.8H219ZM118.91,131.57V101.23h-5v24.89L90.71,101.23H84.47v30.34h5V106.69l23.16,24.88Zm86.31,24.6q-2.62-2-8.1-2.7-1.94-.24-8-.64a23.44,23.44,0,0,1-5.92-.89c-1.69-.59-2.54-1.53-2.54-2.82s.79-2.2,2.38-2.9a17.54,17.54,0,0,1,6.85-1.05,28.85,28.85,0,0,1,13.21,3.31l2.94-3.26q-6.36-4.32-15.79-4.32-7,0-10.86,2.38a7.31,7.31,0,0,0-3.84,6.49,5.85,5.85,0,0,0,3.38,5.68q2.9,1.44,10.11,1.93a77.33,77.33,0,0,1,10,1q3.55.93,3.55,3.7,0,2.39-2.7,3.75a18.12,18.12,0,0,1-7.94,1.41,27.76,27.76,0,0,1-14.74-4.19l-2.66,3.51q6.21,4.91,17.36,4.91,7.7,0,11.81-2.54a8,8,0,0,0,4.1-7.17A6.62,6.62,0,0,0,205.22,156.17Z"/><path class="cls-1" d="M112,174.61a23.55,23.55,0,0,1-14.56-4.45,16.68,16.68,0,0,1,.09-27A23.44,23.44,0,0,1,112,138.62a23.19,23.19,0,0,1,14.44,4.5,16.74,16.74,0,0,1,0,27.08A23.49,23.49,0,0,1,112,174.61Zm-2.55-8.56a20.94,20.94,0,0,0,2.55.15,19,19,0,0,0,4-.39,4,4,0,0,1-.77-1.3,14.13,14.13,0,0,0-1.6-.64,6,6,0,0,1-3.69-4,3.76,3.76,0,0,0-2.35,1.71C107.17,162.58,107.85,164.17,109.4,166.05Zm11.89-8.13c.7,1.76,1.14,3,1.41,3.82a8.5,8.5,0,0,0,1.56-5.12,8.35,8.35,0,0,0-3.75-7.1l-.2-.14a5.64,5.64,0,0,1,.29,2.12,6,6,0,0,1-.41,2.1,13.61,13.61,0,0,1,.93,2.31A6.91,6.91,0,0,1,121.29,157.92Zm-7-10.75a18.35,18.35,0,0,1,2,1.37l.54-.85A15.66,15.66,0,0,0,114.28,147.17Zm78.14,26.71c-7.84,0-14.08-1.79-18.54-5.32l-1.46-1.16,4.82-6.36,1.47.9a26,26,0,0,0,13.75,3.91,16.47,16.47,0,0,0,7.09-1.21c1.64-.84,1.64-1.69,1.64-2s0-1.31-2.12-1.86c-.76-.2-3.06-.53-9.63-.95-5.11-.34-8.66-1-10.84-2.13a7.77,7.77,0,0,1-4.44-7.38,9.25,9.25,0,0,1,4.75-8.11c2.86-1.76,6.85-2.66,11.86-2.66,6.64,0,12.31,1.56,16.86,4.64l1.81,1.22-5.38,6-1.3-.66a27.14,27.14,0,0,0-12.35-3.09,15.89,15.89,0,0,0-6.08.88c-1.25.55-1.25,1-1.25,1.16s0,.58,1.27,1a21.65,21.65,0,0,0,5.4.78c4.12.27,6.77.49,8.1.65,4,.54,7,1.54,9,3.07a8.45,8.45,0,0,1,3.38,7.12,9.94,9.94,0,0,1-5,8.79C202.15,173,198,173.88,192.42,173.88Zm20.17-.15V139.59H247v8.33H221.42v4h17.77v8.33H221.42v5.16h26.74v8.33Zm-47.42,0L157,162.16H144.53v11.57H135.7V139.59h25.82a12.35,12.35,0,0,1,8.81,3.09,11,11,0,0,1,3.32,8.36A10.17,10.17,0,0,1,167,161.15l8.66,12.58Zm-4.4-19.9c3.92,0,3.92-1.74,3.92-2.79s0-3.12-4.38-3.12H144.53v5.91Zm-81.48,19.9V160.24H58.79v13.49H50V139.59h8.83v12.32h20.5V139.59h8.84v34.14ZM244.73,134V120.82L232,106.72v1.44H218.74V134h-8.83V108.16H196.67V99.83h40.48l12,13.23,12-13.23h11.4l-19,21V134Zm-90.2,0-3.5-6.79H132.92l-3.5,6.79H112.33L91.9,112V134H83.06V99.83h9l20.44,22v-22h8.83v30.91l16.36-30.91h8.62l14.08,26.62,4-5.3,1.47.89a25.7,25.7,0,0,0,13.64,3.88,16.17,16.17,0,0,0,7-1.2c1.63-.82,1.63-1.66,1.63-2s0-1.29-2.1-1.84c-.75-.2-3-.52-9.55-.94-5.08-.34-8.6-1-10.77-2.12a7.72,7.72,0,0,1-4.41-7.34,9.17,9.17,0,0,1,4.72-8c2.84-1.76,6.8-2.65,11.78-2.65,6.59,0,12.22,1.55,16.74,4.61l1.81,1.23L191,111.55l-1.3-.66a26.84,26.84,0,0,0-12.25-3.07,15.64,15.64,0,0,0-6,.88c-1.23.53-1.23,1-1.23,1.13s0,.57,1.25,1a21,21,0,0,0,5.36.77c4.09.27,6.71.49,8,.65,4,.53,6.93,1.53,8.94,3a8.39,8.39,0,0,1,3.36,7.08,9.86,9.86,0,0,1-5,8.73c-3.05,1.89-7.21,2.8-12.71,2.8-7.34,0-13.27-1.58-17.63-4.7l2.51,4.75Zm-7.93-15.12L142,110.12l-4.64,8.73ZM70.24,134V99.83h8.83V134ZM28,134V99.83H49.05c5.75,0,10.4,1.58,13.83,4.71s5.26,7.44,5.26,12.7a15.71,15.71,0,0,1-5.55,12.24A18.44,18.44,0,0,1,50,134Zm22.48-8.33a8.17,8.17,0,0,0,6.09-2.36,8.31,8.31,0,0,0,2.36-6.17,8.47,8.47,0,0,0-2.54-6.49,9.43,9.43,0,0,0-6.88-2.46H36.79v17.48Z"/><path class="cls-3" d="M111.45,174.11c-5.76,0-10.66-1.5-14.55-4.45a16.67,16.67,0,0,1,.08-27,23.4,23.4,0,0,1,14.47-4.5,23.17,23.17,0,0,1,14.44,4.5,16.75,16.75,0,0,1,0,27.09A23.54,23.54,0,0,1,111.45,174.11Zm-2.55-8.56a20.94,20.94,0,0,0,2.55.15,19,19,0,0,0,4-.39,4,4,0,0,1-.77-1.3,13.34,13.34,0,0,0-1.6-.64,6,6,0,0,1-3.69-4,3.76,3.76,0,0,0-2.35,1.71C106.67,162.08,107.35,163.67,108.9,165.55Zm11.89-8.13c.7,1.77,1.14,3,1.41,3.82a8.48,8.48,0,0,0,1.56-5.12A8.36,8.36,0,0,0,120,149l-.2-.14a5.67,5.67,0,0,1,.29,2.12,6.13,6.13,0,0,1-.4,2.1,14.41,14.41,0,0,1,.92,2.31A6.29,6.29,0,0,1,120.79,157.42Zm-7-10.74a17,17,0,0,1,2,1.37l.55-.86A15,15,0,0,0,113.78,146.68Zm78.14,26.7c-7.84,0-14.08-1.79-18.54-5.32l-1.46-1.16,4.82-6.36,1.47.9A26,26,0,0,0,192,165.35a16.47,16.47,0,0,0,7.09-1.21c1.65-.84,1.65-1.68,1.65-2s0-1.31-2.13-1.86c-.76-.2-3-.53-9.63-.95-5.11-.34-8.66-1-10.84-2.13a7.76,7.76,0,0,1-4.44-7.38,9.26,9.26,0,0,1,4.75-8.11c2.86-1.76,6.85-2.66,11.86-2.66,6.64,0,12.31,1.56,16.86,4.64l1.81,1.23-5.38,6-1.3-.67a27.14,27.14,0,0,0-12.35-3.09,16.09,16.09,0,0,0-6.08.88c-1.25.55-1.25,1-1.25,1.16s0,.59,1.27,1a21.65,21.65,0,0,0,5.4.78c4.12.27,6.77.49,8.1.66,4,.53,7,1.53,9,3.06a8.45,8.45,0,0,1,3.38,7.12,9.94,9.94,0,0,1-5,8.79C201.65,172.46,197.46,173.38,191.92,173.38Zm20.17-.15V139.09h34.4v8.33H220.92v4h17.77v8.33H220.92v5.16h26.74v8.33Zm-47.42,0-8.21-11.56H144v11.56H135.2V139.09H161a12.34,12.34,0,0,1,8.8,3.09,11,11,0,0,1,3.32,8.36,10.18,10.18,0,0,1-6.68,10.11l8.65,12.58Zm-4.4-19.9c3.92,0,3.92-1.74,3.92-2.78s0-3.13-4.38-3.13H144v5.91Zm-81.48,19.9V159.74H58.29v13.49H49.46V139.09h8.83v12.32h20.5V139.09h8.84v34.14Zm165.44-39.76V120.32l-12.75-14.1v1.44H218.24v25.81h-8.83V107.66H196.17V99.33h40.48l12,13.24,12-13.24H272l-19,21v13.15Zm-90.2,0-3.5-6.78H132.42l-3.5,6.78H111.83L91.4,111.53v21.94H82.56V99.33h9l20.44,22v-22h8.83v30.91l16.36-30.91h8.62L159.87,126l4-5.31,1.47.89A25.7,25.7,0,0,0,179,125.42a16.17,16.17,0,0,0,7-1.2c1.63-.82,1.63-1.66,1.63-2s0-1.29-2.1-1.84c-.75-.2-3-.52-9.55-.94-5.08-.34-8.6-1-10.77-2.12a7.72,7.72,0,0,1-4.41-7.34,9.19,9.19,0,0,1,4.72-8c2.84-1.75,6.8-2.64,11.78-2.64,6.59,0,12.23,1.55,16.74,4.6l1.81,1.23-5.36,5.94-1.3-.66A26.81,26.81,0,0,0,177,107.32a15.64,15.64,0,0,0-6,.88c-1.22.54-1.22,1-1.22,1.13s0,.57,1.24,1a21,21,0,0,0,5.36.77c4.09.28,6.71.49,8,.65,4,.53,6.93,1.53,8.95,3a8.41,8.41,0,0,1,3.35,7.08,9.86,9.86,0,0,1-5,8.73c-3.05,1.89-7.21,2.81-12.71,2.81-7.34,0-13.27-1.58-17.63-4.7l2.51,4.74Zm-7.93-15.12-4.59-8.72-4.64,8.72ZM69.74,133.47V99.33h8.84v34.14Zm-42.28,0V99.33h21.1c5.74,0,10.39,1.58,13.83,4.71s5.25,7.44,5.25,12.7A15.7,15.7,0,0,1,62.09,129a18.44,18.44,0,0,1-12.57,4.49Zm22.48-8.33A8.17,8.17,0,0,0,56,122.78a8.27,8.27,0,0,0,2.36-6.17,8.48,8.48,0,0,0-2.54-6.49A9.43,9.43,0,0,0,49,107.66H36.29v17.48Z"/><path class="cls-2" d="M155.19,131.57h5.5l-16.05-30.34h-6.33l-16,30.34h5.5l3.5-6.79h20.43ZM133.7,120.26l7.82-14.7,7.73,14.7Zm-68-3.52q0-7.08-4.63-11.3t-12.55-4.21H29.36v30.34H49.52a16.49,16.49,0,0,0,11.31-4A13.81,13.81,0,0,0,65.74,116.74Zm-8.36,7.38a10.07,10.07,0,0,1-7.44,2.93H34.39V105.76H49a11.34,11.34,0,0,1,8.2,3,10.38,10.38,0,0,1,3.12,7.86A10.19,10.19,0,0,1,57.38,124.12Zm67.36,20a21.28,21.28,0,0,0-13.29-4.1,21.53,21.53,0,0,0-13.32,4.1,14.79,14.79,0,0,0-.09,24q5.37,4.06,13.41,4.07a21.61,21.61,0,0,0,13.33-4,14.85,14.85,0,0,0,0-24.06Zm-26.89,8.43s-.11.19-.27.52a9.58,9.58,0,0,1,1.87-3.27,15.1,15.1,0,0,1,13.06.9S104.39,147.22,97.85,152.56Zm4.63,12.87c-.36-1.35-.32-3.75,3-6.22a2.49,2.49,0,0,1,.42-.32c-.14.11-.29.21-.42.32-.9.79-2.44,2.47.33,7.64A14.07,14.07,0,0,1,102.48,165.43Zm19.3-1q-3.87,3.19-10.33,3.19a22,22,0,0,1-3.53-.27c-7.88-8.88,2.83-10.2,2.83-10.2.47,2.6,1.37,3.89,2.94,4.44s2.72,1.07,2.72,1.54.48,1.1,1.26,1.66a1.18,1.18,0,0,0,1.73-.32c.24-.39,1.34-.47,1.34-1.26a44.34,44.34,0,0,0-1.89-5.51,4.66,4.66,0,0,0-.08-1.8,17.91,17.91,0,0,0-1.24-2.84c1-1.07.61-3.33.53-3.44a7.05,7.05,0,0,1-.63,1.41,3.68,3.68,0,0,0-.07-2l-1.26,2a16.64,16.64,0,0,0-7.27-4.49,21.22,21.22,0,0,1,6.53,5.46,20.91,20.91,0,0,0-11.54-5.78,17.61,17.61,0,0,1,7.63-1.55,16,16,0,0,1,9.68,2.84,10.64,10.64,0,0,1,.65,16.93ZM76.67,101.23h-5v30.34h5Zm4,52.08H56.39V141h-5v30.34h5V157.84H80.7v13.49h5V141h-5Zm106.18-27.38a18,18,0,0,1-7.87,1.4,27.54,27.54,0,0,1-14.63-4.16l-2.64,3.48q6.15,4.88,17.23,4.87,7.64,0,11.71-2.52a7.91,7.91,0,0,0,4.08-7.11,6.56,6.56,0,0,0-2.6-5.56c-1.73-1.3-4.41-2.2-8-2.68q-1.92-.24-7.92-.64a23.23,23.23,0,0,1-5.88-.88c-1.68-.58-2.52-1.52-2.52-2.8s.79-2.18,2.36-2.87a17.33,17.33,0,0,1,6.8-1,28.65,28.65,0,0,1,13.11,3.27l2.92-3.23q-6.31-4.29-15.67-4.28-7,0-10.78,2.36a7.24,7.24,0,0,0-3.81,6.43,5.83,5.83,0,0,0,3.35,5.64q2.88,1.44,10,1.92a77.07,77.07,0,0,1,9.91,1q3.53.91,3.52,3.68Q189.56,124.57,186.88,125.93Zm18.34,30.24q-2.62-2-8.1-2.7-1.94-.24-8-.64a23.44,23.44,0,0,1-5.92-.89c-1.69-.59-2.54-1.53-2.54-2.82s.79-2.2,2.38-2.9a17.54,17.54,0,0,1,6.85-1.05,28.85,28.85,0,0,1,13.21,3.31l2.94-3.26q-6.36-4.32-15.79-4.32-7,0-10.86,2.38a7.31,7.31,0,0,0-3.84,6.49,5.85,5.85,0,0,0,3.38,5.68q2.9,1.44,10.11,1.93a77.33,77.33,0,0,1,10,1q3.55.93,3.55,3.7,0,2.39-2.7,3.75a18.12,18.12,0,0,1-7.94,1.41,27.76,27.76,0,0,1-14.74-4.19l-2.66,3.51q6.21,4.91,17.36,4.91,7.7,0,11.81-2.54a8,8,0,0,0,4.1-7.17A6.62,6.62,0,0,0,205.22,156.17Zm-36.19.58a8.68,8.68,0,0,0,2.22-6.21,9.14,9.14,0,0,0-2.72-7A10.48,10.48,0,0,0,161,141H137.1v30.34h5V159.76h15.31l8.21,11.57h5.85l-8.13-11.82A9.65,9.65,0,0,0,169,156.75Zm-26.9-1.51v-9.72h17.68c4.19,0,6.29,1.67,6.29,5,0,3.12-1.95,4.69-5.83,4.69Zm-23.22-23.67V101.23h-5v24.89L90.71,101.23H84.47v30.34h5V106.69l23.16,24.88ZM219,157.84h17.77v-4.53H219v-7.79h25.56V141H214v30.34h31.77V166.8H219Zm42.46-56.61L248.67,115.4l-12.86-14.17H198.07v4.53h13.24v25.81h5V105.76h13.24v-4.48l16.55,18.31v12h5v-12l16.6-18.36Z"/><path class="cls-1" d="M115.79,163.26a2.6,2.6,0,0,0,.92,1.54,2.48,2.48,0,0,1-.76-1.41Z"/><polygon class="cls-1" points="117.89 148.33 117.95 148.5 117.97 148.43 117.89 148.33"/><path class="cls-1" d="M111.94,161.25a6.68,6.68,0,0,1-1.52-3.22l-.12,0A6.3,6.3,0,0,0,111.94,161.25Z"/><path class="cls-1" d="M125.19,156.28a9.27,9.27,0,0,0-2.89-6.95,9.27,9.27,0,0,1,2.73,6.79,9.54,9.54,0,0,1-3.59,7.75,2,2,0,0,1-1.07,1,1.63,1.63,0,0,0-.27.15l-.19.24a11.64,11.64,0,0,0,1.64-1.13A9.54,9.54,0,0,0,125.19,156.28Z"/><path class="cls-1" d="M176.83,154.72a6.67,6.67,0,0,1-1.73-4.79,7.93,7.93,0,0,1,4.15-7c2.65-1.64,6.42-2.47,11.19-2.47,6.38,0,11.81,1.49,16.15,4.42l.4.27,0,0-.6-.41c-4.33-2.93-9.77-4.42-16.15-4.42-4.77,0-8.54.83-11.19,2.47a7.94,7.94,0,0,0-4.15,7A6.62,6.62,0,0,0,176.83,154.72Z"/><path class="cls-1" d="M193.36,116.54a8.27,8.27,0,0,0-.82-.72c-1.81-1.36-4.61-2.3-8.34-2.8-1.28-.16-4-.37-7.95-.64a22.9,22.9,0,0,1-5.71-.85,4.2,4.2,0,0,1-1.46-.8,3.84,3.84,0,0,0,1.63,1,22.89,22.89,0,0,0,5.7.85c4,.26,6.68.48,8,.64,3.72.49,6.53,1.44,8.34,2.8C192.94,116.17,193.16,116.35,193.36,116.54Z"/><polygon class="cls-1" points="154.88 132.21 151.48 125.58 151.39 125.58 154.8 132.21 154.88 132.21"/><polygon class="cls-1" points="141.69 107.08 141.65 107.16 148.2 119.62 135.01 119.62 134.93 119.79 148.37 119.79 141.69 107.08"/><path class="cls-1" d="M165.63,150.71a4,4,0,0,0-1.17-3.14,4.2,4.2,0,0,1,1,3c0,3.63-3,4-5.19,4H142.93v.17h17.51C162.67,154.77,165.63,154.35,165.63,150.71Z"/><rect class="cls-1" x="219.82" y="152.68" width="17.6" height="0.17"/><polygon class="cls-1" points="230.38 103.11 245.5 119.83 245.5 132.21 245.67 132.21 245.67 120 230.38 103.09 230.38 103.11"/><rect class="cls-1" x="219.82" y="166.17" width="26.57" height="0.17"/><polygon class="cls-1" points="248.84 114.62 261.37 100.77 269.03 100.77 269.18 100.6 261.2 100.6 248.68 114.45 248.84 114.62"/><path class="cls-1" d="M206.42,156.39a6.31,6.31,0,0,0-.82-.72c-1.83-1.38-4.65-2.33-8.4-2.83-1.3-.16-4-.38-8-.64a23.11,23.11,0,0,1-5.75-.86,4,4,0,0,1-1.47-.81,3.82,3.82,0,0,0,1.64,1,22.74,22.74,0,0,0,5.75.85c4,.27,6.72.49,8,.65,3.74.5,6.57,1.45,8.4,2.82A7.07,7.07,0,0,1,206.42,156.39Z"/><path class="cls-1" d="M103.2,165.19a15.62,15.62,0,0,0,1.48.72,10.12,10.12,0,0,1-1-3.6,2.1,2.1,0,0,0-.13.26,10.52,10.52,0,0,0,.92,3.17,13.43,13.43,0,0,1-1.32-.64S103.2,165.16,103.2,165.19Z"/><path class="cls-1" d="M100,150.5l-.23.29a13.64,13.64,0,0,1,1.74-.79A14,14,0,0,0,100,150.5Z"/><path class="cls-1" d="M109.19,146.07a17.65,17.65,0,0,1,7,4.08l1.45-2.28-.1-.28L116,150a17.69,17.69,0,0,0-7-4.08l-.38.9a18.64,18.64,0,0,0-2.11-.71l-.23.06a20,20,0,0,1,2.51.82Z"/><polygon class="cls-1" points="197.61 100.77 236.24 100.77 236.09 100.6 197.44 100.6 197.44 106.39 197.61 106.39 197.61 100.77"/><path class="cls-1" d="M111.62,167.13a17.57,17.57,0,0,0,7.1-1.32h-.15a2.09,2.09,0,0,1-.35,0,18,18,0,0,1-6.77,1.18,21.75,21.75,0,0,1-3.18-.22,2.09,2.09,0,0,1,.14.17A22.17,22.17,0,0,0,111.62,167.13Z"/><path class="cls-1" d="M91.46,156.28a15.11,15.11,0,0,1,6.45-12.49,22.22,22.22,0,0,1,13.71-4.23,21.92,21.92,0,0,1,13.67,4.24,19.58,19.58,0,0,1,2,1.78,18.1,18.1,0,0,0-2.2-2,21.92,21.92,0,0,0-13.67-4.24,22.2,22.2,0,0,0-13.7,4.24,15.06,15.06,0,0,0-6.46,12.49,14.84,14.84,0,0,0,4.35,10.77A14.83,14.83,0,0,1,91.46,156.28Z"/><path class="cls-1" d="M136.63,140.52h24.56a11.16,11.16,0,0,1,7.94,2.75l.19.19-.36-.35a11.1,11.1,0,0,0-7.93-2.75H136.46V172h.17Z"/><rect class="cls-1" x="80.06" y="158.64" width="0.17" height="13.33"/><path class="cls-1" d="M28.9,100.77H48.72c5.42,0,9.79,1.47,13,4.37l.48.46c-.21-.21-.42-.42-.65-.63-3.19-2.9-7.56-4.37-13-4.37H28.73v31.61h.17Z"/><polygon class="cls-1" points="50.9 140.52 57.03 140.52 57.03 140.36 50.73 140.36 50.73 171.96 50.9 171.96 50.9 140.52"/><polygon class="cls-1" points="213.53 140.52 245.22 140.52 245.22 140.36 213.36 140.36 213.36 171.96 213.53 171.96 213.53 140.52"/><rect class="cls-1" x="210.68" y="106.56" width="0.17" height="25.65"/><path class="cls-1" d="M177.23,162.39l.49.3a27.21,27.21,0,0,0,14.41,4.09,17.58,17.58,0,0,0,7.65-1.34c1.58-.8,2.35-1.84,2.35-3.18a2.62,2.62,0,0,0-.85-2,2.65,2.65,0,0,1,.68,1.84c0,1.34-.77,2.38-2.35,3.18a17.56,17.56,0,0,1-7.65,1.35,27.22,27.22,0,0,1-14.41-4.1l-.49-.3-3.38,4.46.18.14Z"/><polygon class="cls-1" points="157.28 160.56 157.23 160.56 165.32 171.96 165.37 171.96 157.28 160.56"/><polygon class="cls-1" points="138.1 100.77 145.11 100.77 145.02 100.6 137.93 100.6 121.21 132.21 121.47 132.21 138.1 100.77"/><path class="cls-1" d="M164,114.9a6.67,6.67,0,0,1-1.72-4.76,7.86,7.86,0,0,1,4.12-7c2.63-1.63,6.37-2.46,11.11-2.46,6.33,0,11.73,1.48,16,4.39l.41.27,0,0-.6-.41c-4.3-2.91-9.69-4.39-16-4.39-4.74,0-8.47.83-11.11,2.46a7.87,7.87,0,0,0-4.12,7A6.61,6.61,0,0,0,164,114.9Z"/><polygon class="cls-1" points="113.42 124.68 113.42 100.77 119.55 100.77 119.55 100.6 113.25 100.6 113.25 124.5 113.42 124.68"/><polygon class="cls-1" points="71.18 100.77 77.31 100.77 77.31 100.6 71.01 100.6 71.01 132.21 71.18 132.21 71.18 100.77"/><polygon class="cls-1" points="84 100.77 91.14 100.77 90.99 100.6 83.83 100.6 83.83 132.21 84 132.21 84 100.77"/><path class="cls-1" d="M164.38,122.49l.49.3a27,27,0,0,0,14.31,4.07,17.51,17.51,0,0,0,7.59-1.33c1.56-.8,2.33-1.83,2.33-3.15a2.64,2.64,0,0,0-.85-2,2.62,2.62,0,0,1,.68,1.83c0,1.32-.76,2.35-2.33,3.15a17.51,17.51,0,0,1-7.59,1.33,27.08,27.08,0,0,1-14.3-4.06l-.49-.3-3.36,4.43.18.14Z"/><path class="cls-1" d="M57.09,123.84a9.47,9.47,0,0,0,2.73-7.06,9.83,9.83,0,0,0-2.92-7.41h0a9.85,9.85,0,0,1,2.77,7.25,9.5,9.5,0,0,1-2.72,7.06,9.34,9.34,0,0,1-7,2.74H35.19v.17H50.11A9.36,9.36,0,0,0,57.09,123.84Z"/><polygon class="cls-1" points="112.38 132.21 112.39 132.21 90.3 108.47 90.3 108.48 112.38 132.21"/><polygon class="cls-1" points="57.19 152.84 80.23 152.84 80.23 140.52 86.36 140.52 86.36 140.36 80.06 140.36 80.06 152.68 57.19 152.68 57.19 152.84"/></svg>