<svg id="Layer_1" data-name="Layer 1" xmlns="http://www.w3.org/2000/svg" viewBox="0 0 300 300"><defs><style>.cls-1{fill:#111c4e;}</style></defs><path class="cls-1" d="M148.12,125.9c.11-.4,1.7-5.07.86-5-3,.34-4.19.47-7.24.85,1.07-3.89,1.06-5,2.15-8.92,3.05-.35,18.31,1.09,20.54,1.6.59.14,1.21.32,1.81.48a5.78,5.78,0,0,0,1.87.27,2.28,2.28,0,0,0,1.74-1s4.07-5.94,3.14-7c-.49-.59-13.69,1.48-36.7-2a57.27,57.27,0,0,0-34.79,5.56s6.43,2.47,5.68,6.18c0,0,13.72-7.75,28.67-4.45.3.1-1.08,6.94-2,10.46-2.56.36-6.37.32-8.92.7a1.42,1.42,0,0,0-1.15.82c-.44.9,0,6.77,0,6.81.09.21,0,.7.74.51,2.94-.7,4.58-1.1,7.52-1.78-1,3.78-2.4,9-3.37,12.76-.24.93.29,1.59,1.36,1.14,1.23-.53,1.91-1.42,5.56-2.93a3.14,3.14,0,0,0,1.74-2.43c1-3.91,1.72-6.41,2.79-10.32,3.12-.67,4.09-.92,7.22-1.53A.9.9,0,0,0,148.12,125.9Z"/><path class="cls-1" d="M195.29,126.37a1,1,0,0,0-1,.56c-2.34,3.64-4.42,5.49-5.94,5.42-.85,0-1-.93-.42-2.67,2-6,3.49-10.31,5.55-16.33.44-1.28,0-2-1.34-2.15-1.62-.16-2.44-.23-4.06-.35a1.06,1.06,0,0,0-1.22.76,1.93,1.93,0,0,0-.06.72,1.89,1.89,0,0,1-.06.72c-1.63,4.92-2.92,8.88-4.35,13.31-2.11,3.28-4,5-5.4,5-.86,0-1-.85-.45-2.63,2-6.16,3.56-11.49,5.57-17.64.43-1.3,0-2-1.36-2-1.64,0-2.45,0-4.09,0a1.12,1.12,0,0,0-1.21.84,2,2,0,0,0,0,.72,2.27,2.27,0,0,1-.05.73c-1.57,5-2.92,9.52-4.35,14.28-2.18,3.58-4,5.43-5.43,5.48-.85,0-1-.84-.47-2.65l2.07-6.87c.4-1.29,0-1.92-1.28-1.87-1.75.06-2.63.11-4.38.21a.79.79,0,0,0-.76.63,3.35,3.35,0,0,0-.12.89,3.55,3.55,0,0,1-.11.84c-.76,2.57-1.13,3.85-1.89,6.43q-2.22,2.92-3.6,3.05c-.85.07-1-.8-.49-2.63.8-2.78,1.93-8.66,2.74-11.44.38-1.31-.07-1.92-1.36-1.81-1.76.15-2.63.22-4.38.4a.77.77,0,0,0-.7.65,3.43,3.43,0,0,0-.11.9,4.32,4.32,0,0,1-.1.83c-1,3.48-2.2,9.71-3.17,13.19a8.3,8.3,0,0,0-.3,4.31c.39,1.4,1.46,2,3.11,1.86,2.42-.24,7-4.45,7.21-4.37,0,0,1.06,3.66,3.33,3.52,2.53-.15,5.12-1.66,7.72-4.51.2-.22.4-.44.59-.67a7,7,0,0,0-.07,3.08,2.8,2.8,0,0,0,3.07,2.15q3.85,0,7.82-4.06l.53-.57a6.83,6.83,0,0,0-.07,2.9,3,3,0,0,0,3,2.36q3.85.22,7.82-3.51a19.22,19.22,0,0,0,4.81-6.93C196.25,126.82,196,126.47,195.29,126.37Z"/><path class="cls-1" d="M93.39,136.7c0-.26,11.67-1.57,13.39-12.86.7-4.6-1-9.18-5.34-11.14s-10.31-1.54-15.59-.84c-2.95.38-7.11,2.38-9.37,1.63-.24-.07-1.63-2-4.07-1.85-3.7.27-7.42.44-11.13.5a1.6,1.6,0,0,0-1.64,1.53,9.92,9.92,0,0,0,0,2.21,6,6,0,0,1,0,2.22C57.61,120,53.73,121,50,122.42a15.63,15.63,0,0,0-7.69-1.66,14.53,14.53,0,0,1,5.82,2.39c-4.11,1.73-7.6,4.11-7.46,8.8a7.51,7.51,0,0,0,7.91,7.25A8.66,8.66,0,0,0,55,135.65c2.4-3.74,1.71-7.14-.45-9.75,1.29-.21,2.54-.36,3.63-.47-3.89,10.48-4.09,9.53-5.63,16.75-2.05,9.58,2.69,28.45-2.4,41.14-.66,1.66,2.83.14,5.15.33a42.37,42.37,0,0,0,5.27.14c2.23,0,3.79-3.08,4-3,3.3,1.36,5.58,3.24,15.28,2.9,6.06-.43,15.53-5.95,20.31-10,6.3-5.31,8.33-17.34,8.5-23.45C109.16,132.13,93.47,137.69,93.39,136.7Zm-41.68-7.53c.77,5-2.4,5.53-2.4,5.53-2.33.66-5-1.75-3.86-4.14.92-1.93,3.13-3.12,5.63-3.87A7.42,7.42,0,0,1,51.71,129.17Zm25.6-9.66c3.11-.48,6.61-.35,9.3,1.3,2.38,1.46,3.24,4.17,2.51,7.75a11.3,11.3,0,0,1-4.9,7,16.85,16.85,0,0,1-8.53,3.2,20.58,20.58,0,0,1-3.41,0L75.18,122c.15-.77.29-1.53.44-2.29Zm13.17,32.54c-.7,3.43-2.69,13.3-5,15.53a15,15,0,0,1-9.12,3.95c-3.25.27-7.41.47-9.21-2.06l4.3-25.67c2.19-.37,4.24-.62,6-.8a18.18,18.18,0,0,1,9.76,1.39C90.06,145.79,91.19,148.48,90.48,152.05Z"/><path class="cls-1" d="M211.77,152.23a1.15,1.15,0,0,0-1.44.55,53.08,53.08,0,0,1-3.38,4.38c-1.72,2-3.26,2.79-4.47,2.46-1.46-.4-1.78-1.81-.95-4.26q4.38-12.88,8.94-25.69c.65-1.82.09-3-1.69-3.58-2.42-.74-3.64-1.07-6.08-1.66-.49-.12-.84.13-1,.74a6.67,6.67,0,0,0-.26,1.24,7,7,0,0,1-.25,1.25q-2.62,7.71-5.18,15.44a7.24,7.24,0,0,0-5.31-3.4,11.85,11.85,0,0,0-9.4,3.22,19.11,19.11,0,0,0-4.84,6.93c-1,2.41-1.88,4.81-4.23,4.21-.54-.14-.84-1.4-.24-4.14a65.12,65.12,0,0,0,1.45-7.71c.11-2.76-.9-4.23-2.84-4.15-5.31.2-8.79,5.63-11.51,10.08l1.87-6.78c.56-2,0-3-1.84-2.86-2.44.17-3.66.27-6.1.51-.49,0-.82.37-1,1a6.11,6.11,0,0,0-.16,1.34,5.78,5.78,0,0,1-.14,1.26c-.39,1.51-.79,3-1.18,4.53a.31.31,0,0,0-.05.1c-.38.73-1,1.88-1.77,3.32-2.64,4.72-6.76,9-11.89,9.77a5.2,5.2,0,0,1-3.47-1.15c1.72-2.9,11.47-6.08,13.26-12a4.45,4.45,0,0,0-2-5.29,8,8,0,0,0-6-1.2,19.32,19.32,0,0,0-9.81,5.33,22.47,22.47,0,0,0-4.67,6.61c-1.74,3.43-1.7,3.7-4.88,6-.84.61-1.16-1.53-.51-4.32C122.51,138,121,122,120.6,117.71c-.31-3.54-1.32-2.76-3.18-2.45a48.09,48.09,0,0,0-5.63,1.35,2.31,2.31,0,0,0-1.68,1.73c-.06.28.11,2,.12,2.44,4,36.94-4.8,42.54-2.77,47.45.62,2.07,2.73,2.63,4.92,2.21,4.33-.84,6.63-4.22,9.3-7.84.31-.42.62-.85.91-1.29a8.64,8.64,0,0,0,1.55,3.79c1.68,2.29,4.27,3.17,7.7,2.58a21.55,21.55,0,0,0,9.7-4.51,35.7,35.7,0,0,0,6.62-7c-.66,2.6-1.34,5.19-2,7.78-.28,1.11.24,1.58,1.56,1.42,2-.23,2.95-.34,4.91-.53a2.67,2.67,0,0,0,2.51-2.16c.42-1.71.75-3,1-3.86a21.35,21.35,0,0,1,4.43-7.94,1.6,1.6,0,0,1,1-.62c.27,0,.42.21.39.62-.2,2.62-.84,5.66-1,8.32-.24,3.34,1.2,5.33,3.53,5.13,4-.34,7.31-3.7,10-6.82l.52-.63a11.33,11.33,0,0,0,.62,3.51,6.63,6.63,0,0,0,6.29,4.56c3,.09,6.13-1.64,9-3,0,0,2,4.62,4.34,4.84,4.12.39,7.15-.9,10.66-3.71a23.71,23.71,0,0,0,6.82-9.17C213.07,153.18,212.76,152.59,211.77,152.23ZM132,156.31c-.28-.22-.21-2.67.14-4.13a15.12,15.12,0,0,1,1.49-3.29c1-1.7,1.75-2.59,2.28-2.68s.95.32,1.13,1.12a4.47,4.47,0,0,1,0,2,14.79,14.79,0,0,1-1.84,4.05C134.12,155.16,132.31,156.53,132,156.31Zm59.91-.85a3,3,0,0,1-1.6,1.62,3.84,3.84,0,0,1-2.26.57,2.91,2.91,0,0,1-2.57-2.57,8.07,8.07,0,0,1,.28-4.09,8.54,8.54,0,0,1,2.09-3.48,4.17,4.17,0,0,1,3.64-1.44,3.65,3.65,0,0,1,2.78,2.09C193.35,151.07,192.88,152.53,191.94,155.46Z"/><path class="cls-1" d="M175.64,171.6c.11-.19.08-.17,0-.06s-.25.34-.39.55l-.11.45s.11-.24.24-.48Z"/><path class="cls-1" d="M174.64,173.8l-.09.61-.05.6s0-.21.05-.43.06-.44.06-.44c.14-.47.16-.43.13-.23s-.09.56-.1.74l0-.26,0-.21c0-.12,0-.21.05-.28s0-.16,0-.16S174.64,173.93,174.64,173.8Z"/><path class="cls-1" d="M174.37,176.18c0,.78,0,.56.07.24C174.41,176.36,174.41,175.86,174.37,176.18Z"/><path class="cls-1" d="M164.39,202.88c.2.11.43.24.38.24.12.06.19.09.15.06A3,3,0,0,0,164.39,202.88Z"/><path class="cls-1" d="M164.77,203.12l-.14-.06.13.06Z"/><path class="cls-1" d="M179.17,206.54a2.29,2.29,0,0,0,.69-.47,1.53,1.53,0,0,0,.37-.74A2.55,2.55,0,0,0,180,204l-.06-.25-.07-.25a2.42,2.42,0,0,0-.34-.56,1.83,1.83,0,0,1-.28-.36,12.34,12.34,0,0,0-.88-1.41l-.47-.66-.05-.07h0s0,0,0,0h0l0,0-.08-.11-.11-.17c-.06-.13,0-.06.08,0l.13.18,0,0,0,0h0s0,0,0,0h0l0,0,0,0,0,0h0s0,0,0,0h0l-.05-.08-.09-.13-.16-.22-.27-.34a4.2,4.2,0,0,1-.25-.38,5.13,5.13,0,0,1-.35-.63l0,0a11.41,11.41,0,0,1-1.12-3.09,11,11,0,0,1-.22-1.74c0-.15,0-.3,0-.45v-.44a7.67,7.67,0,0,1,.07-.87v-.12a8.58,8.58,0,0,1,0-1.68,3.64,3.64,0,0,1,.38-1.49.53.53,0,0,1-.14.18,1.07,1.07,0,0,1,.89-.72l.39,0-.14-.37a46.32,46.32,0,0,1-2.36-8.91,34.37,34.37,0,0,0,.54,3.62,24,24,0,0,0,1,3.55c.14.58.46,1.36.61,1.81l0,.11h-.28a.25.25,0,0,1-.12,0,1.43,1.43,0,0,0-.85.87,3.88,3.88,0,0,0-.26,1.07,8.26,8.26,0,0,0,.05,2h0v0a11.39,11.39,0,0,0,0,2.35c0,.39,0,.2-.06.32l0-.34c0-.2,0-.48-.06-.75,0-.55,0-1.09,0-1.09l0,.2,0,.46v.67a8.86,8.86,0,0,1,0-1.85h0a1.93,1.93,0,0,0-.07-.3l0,.3v0a12.06,12.06,0,0,0,.11,3.31,10.72,10.72,0,0,0,.91,2.92,14.27,14.27,0,0,1-.78-2.58c0-.2-.05-.46-.07-.66s0-.36,0-.34a14.74,14.74,0,0,0,1,3.58l.39.83.44.8.53.81.58.81a10.54,10.54,0,0,1,.91,1.5c-.24-.39-.1-.08-.31-.38.27.4.31.41.38.46a.91.91,0,0,1,.14.18,5.48,5.48,0,0,1,.33.64l-.2-.11a2.3,2.3,0,0,1,.43,1.15,1.25,1.25,0,0,1-.17.83,1.55,1.55,0,0,1-.66.54c-.19,0-.12,0,.08-.11a1.69,1.69,0,0,0,.37-.26.94.94,0,0,0,.28-.51,1,1,0,0,1-.28.49,1.84,1.84,0,0,1-.3.24,2.28,2.28,0,0,1-.74.29l.1,0,.22-.11.2-.11.09-.06a2,2,0,0,1-1,.29,6.87,6.87,0,0,1-.76,0c-.05,0,.35.08-.58.17-.4,0-.19,0-.29,0a3.54,3.54,0,0,1-1,.14c-.12,0,.4-.07.44-.12a8.12,8.12,0,0,1-1.18,0c-.82.05.06.05-.44.11-1.26,0-.13-.13-.6-.21.95-.06,2.16-.13,2.66-.21l-.28,0-.62,0-.9.05c.1,0-1.23-.05-.27-.11-1.8,0-4,0-5.72-.1.25,0,.56.06.51.09-.9,0-.79-.08-1-.13a3.4,3.4,0,0,0-.63,0l.18.14a3.1,3.1,0,0,1-.23-.31l-.1-.23a1.28,1.28,0,0,0-.11-.2l-.19-.34-.38-.49-.39-.43c-.15-.15-.32-.32-.55-.52v.11a3.94,3.94,0,0,0-.41-.32l-.35-.19a4,4,0,0,0-.36-.18l-.5-.26a2.08,2.08,0,0,1,.55.21c-.37-.18-.53-.27-.69-.36a3.14,3.14,0,0,0-.7-.3l.31.07.31.08c-.58-.26-1.49-.49-1.15-.47l-.77-.16.29.37a22.61,22.61,0,0,0-.18-3.59l.08.08c-.07-.35-.15-1-.24-1.61,0-.31-.1-.62-.15-.89a4.69,4.69,0,0,0-.16-.63v-.11s-.08-.34-.18-.67l-.18-.67c-.14-.61,0-.43,0-.47-.32-1.34-.6-2.38-.81-3.24a24.51,24.51,0,0,1-.94-2.66,82.65,82.65,0,0,0-2.94-7.94c-.28-.64-.56-1.29-.85-1.92l-.44-.95c-.17-.31-.33-.61-.51-.9a15.17,15.17,0,0,0-2.47-3.14,8.9,8.9,0,0,0-2.26-1.59,11.15,11.15,0,0,1,1,.67,7.94,7.94,0,0,1,.93.77c.15.15.27.29.37.41a2.59,2.59,0,0,1,.27.36l.24.35c.09.12.17.26.27.41l-.17-.34a5,5,0,0,1,.59.74l.46.62-.12,0a3.57,3.57,0,0,1,.41.6,6.23,6.23,0,0,1,.32.66l.22.23.1.24.09.21c0,.15.1.27.14.39a2.36,2.36,0,0,1,.14.51l0-.09c.08.27,1.12,2.6.66,1.85a5.4,5.4,0,0,1,.38.79l0,.1a10,10,0,0,1,.59,1.51,2.32,2.32,0,0,0-.3-.54c.51,1.33.62,1.46.72,1.53s.2.12.64,1.31h-.06l.27.59.16.65a14.06,14.06,0,0,1,.8,2.17c.27.93.56,1.93.8,2.65s.28,1.37.57,2.47l0-.09c.07.46.29,1.52.44,2.59a13.85,13.85,0,0,1,.19,2.56c.16.84,0-.1.07-.08a7.9,7.9,0,0,1,.15,1.61c0,.35,0,.6-.05,1,.06,1,0-.78.09-.23,0,.9,0,1.18,0,1.62l0,.43.36.06a5.62,5.62,0,0,1,1.46.43c.15.11-.47-.15-.67-.17a8,8,0,0,1,2.4,1.08,6.89,6.89,0,0,1,1.17,1,5.22,5.22,0,0,1,.45.6c.06.1.13.2.19.31l.15.32.06.16.12.27.28,0a68.19,68.19,0,0,0,8.5.31l0,0a14.59,14.59,0,0,0,1.83-.13,7.25,7.25,0,0,0,1-.21,2.76,2.76,0,0,0,.56-.21,2,2,0,0,0,.6-.44l0,0-.09.09-.28.2A3,3,0,0,1,179.17,206.54Z"/><path class="cls-1" d="M174.89,191l-.06.23a5.69,5.69,0,0,0,.07.71v-.06a5.87,5.87,0,0,0-.05.59c0-.22.07-.39.1-.58v0A7.26,7.26,0,0,1,174.89,191Z"/><path class="cls-1" d="M175.1,191.24l0-.33c0-.16,0-.33,0-.33s0,.27,0,.54,0,.53,0,.53v-.41Z"/><path class="cls-1" d="M179.07,205.87l.14-.07.08-.06a1,1,0,0,0,.18-.18,1,1,0,0,0,.14-.74,3,3,0,0,0-.24-.76c-.09-.21-.16-.34-.16-.34l0,.1.12.26a3.05,3.05,0,0,1,.23.82.88.88,0,0,1,0,.43.69.69,0,0,1-.19.32,1.31,1.31,0,0,1-.22.17Z"/><path class="cls-1" d="M164.51,202.86a7.54,7.54,0,0,1,.89.46l-.16-.09-.35-.2-.53-.26Z"/><path class="cls-1" d="M161.6,194c-.21-.4-.18-.84-.17-.26C161.61,194.35,161.52,193.77,161.6,194Z"/><path class="cls-1" d="M160.82,191.51c.1.38.18.58.24.78A2.16,2.16,0,0,0,160.82,191.51Z"/><path class="cls-1" d="M205,202.38c-.25-.19,0,.11.25.37l.29.16-.27-.27Z"/><path class="cls-1" d="M206.14,203.63l.32.29.31.3-.22-.23-.22-.22c-.41-.55.15,0,.33.19C205.9,203.11,206.3,203.73,206.14,203.63Z"/><path class="cls-1" d="M207.25,204.89c.32.46.28.3.17.09C207.37,205,207.14,204.69,207.25,204.89Z"/><path class="cls-1" d="M189.07,194.71c.07.14.16.31.13.29C189.3,195.14,189.34,195.17,189.07,194.71Z"/><path class="cls-1" d="M189.2,195l-.07-.09.06.09Z"/><path class="cls-1" d="M192.25,205.49a13.44,13.44,0,0,1,.16,1.5l0,.1-.06.26.47.27.19.12c.62.16.29,0,.74.1s1.73.52,2,.6-.24,0-.34,0c.72.19.69.1,1.58.36v0l.11,0-.11-.05a12.06,12.06,0,0,0,3.53,1.21,15.55,15.55,0,0,0,3.83.2c-.17,0-.12,0-.19,0a20.87,20.87,0,0,0,4.84-.76l.16-.05v-.16a4.15,4.15,0,0,0-.25-1.52,5.92,5.92,0,0,0-.59-1.21,7.54,7.54,0,0,1,.49,1.22,4.68,4.68,0,0,1,.17,1.5v0h0c-.86.22-1.71.37-2.36.53a10.27,10.27,0,0,1-1.57.11c-1,0-1.74.07-2.45.07a11.15,11.15,0,0,1-2.39-.25c-.28-.08-.13-.09-.2-.15s.38.09.77.14c.19,0,.38.06.53.08l.24,0-.47-.08-.46-.1.86.11a2,2,0,0,0,.65,0,9.93,9.93,0,0,1-2.38-.35,14.82,14.82,0,0,1-2.15-.77,8.72,8.72,0,0,0,1.77.73c.26.12.7.24.66.28a9.68,9.68,0,0,1-1.5-.41,9,9,0,0,1-1.36-.65l0,0-2.27-.67a6.61,6.61,0,0,1-1.16-.38c.31.08.08,0,.34,0-.67-.16-.11.12-1.05-.18l.16-.09-.27,0-.1,0,0-.13a13,13,0,0,0-.13-1.64c0-.26.11.2.16.74,0-.61-.12-.66-.17-1.15l.08.23.09.22a3.56,3.56,0,0,1-.11-1.23s-.07.25-.17-.39c0-.28,0-.15,0-.21a2.12,2.12,0,0,1-.23-.68c0-.08.13.27.17.29-.07-.32-.14-.58-.17-.82-.18-.55,0,.05-.17-.28-.21-.86.11-.12.1-.46a18.51,18.51,0,0,1,.54,1.83l0-.2c0-.11-.06-.27-.11-.43l-.11-.43-.05-.2c.06.07-.16-.87.07-.22a11.27,11.27,0,0,0-.67-1.95,8.44,8.44,0,0,0-1.08-1.76l0,.11,0-.06,0,.06-.06-.1c.09.14.19.3.15.29l-.19-.26,0,.08a1,1,0,0,1-.06-.4c-.19-.45-.25-.36-.41-.61a9.05,9.05,0,0,0-.38-1c-.11-.24-.2-.47-.36-.86l0,.09a12.37,12.37,0,0,0-.67-1.13s.14.16.26.31c-.32-.46-.21-.48-.54-.92l.32.31c-.25-.36-.63-.88-.45-.74l-.43-.51-.49-.63c-.37-.41-.72-.87-1.08-1.19h.09c-.2-.15-.5-.5-.82-.81a6.56,6.56,0,0,0-.84-.72l0-.07-.12-.09-.28-.2-.41-.28c-.34-.29-.16-.28-.2-.28-.19-.15-.38-.29-.56-.41l-.5-.37-.45-.34c-.15-.09-.28-.19-.41-.28a5.35,5.35,0,0,1-1.05-.54l.05,0a5.87,5.87,0,0,1-.43-.67,6.49,6.49,0,0,1-.31-.65c-.08-.22-.18-.45-.24-.68a13,13,0,0,1-.35-1.43,19.38,19.38,0,0,1-.28-3,36.48,36.48,0,0,1,.4-5.73c.09-.53.13-1.29.25-2-.22.81-.18.9-.34,1.7-.13.6-.26.81-.39,1.33l.11-.25c0,.83-.12.56-.12,1.22l-.13,0a3.78,3.78,0,0,1-.13,1.05l.07.22a4.67,4.67,0,0,1-.21,1l.08-.05a8.44,8.44,0,0,0-.06,1c0,.4,0,.71-.1.39a3.6,3.6,0,0,1,.06.64l-.07.05c0,.24,0,.5,0,.72a1.82,1.82,0,0,1,0,.46,1.35,1.35,0,0,0-.12-.44,4.39,4.39,0,0,0,.13,1c0,.16.08.21.12.24a.39.39,0,0,1,.13.2,7.55,7.55,0,0,1,.2.81h0a1.66,1.66,0,0,0,.08.22l.08.22s0,.12,0,.25l0,.24a18.47,18.47,0,0,0,1.12,2.16l0,0,0,0c.38.25.75.49,1.06.65s.75.63,1.4,1.09v-.09c.12.1.32.29.55.52s.52.47.79.74.51.56.71.8a3,3,0,0,1,.42.6c.46.4,0-.06,0-.09a4.41,4.41,0,0,1,.77.85c.13.2.21.36.39.61.48.53-.33-.44,0-.18l.38.5.27.3.3.35c.11.16.24.36.42.65s-.22-.28-.32-.38a16.52,16.52,0,0,1,2,3.63l.15.42c0,.15.1.31.14.46l0,.08.06.09a8.26,8.26,0,0,1,1.08,2.12,13.69,13.69,0,0,1,.62,2.4l0,0c.08.79.28,1.63.33,2.55v-.45Z"/><path class="cls-1" d="M202.51,209.66l-.15-.08h-.44l-.3,0h-.14A5.4,5.4,0,0,0,202.51,209.66Z"/><path class="cls-1" d="M202.31,209.85h.47l-.38,0-.38,0Z"/><path class="cls-1" d="M192.91,205.53v.12c.06.47.11.95.15,1.43L193,207l.27.07L193,207l.08.1C193,206.56,193,206.05,192.91,205.53Z"/><path class="cls-1" d="M189.16,194.73a5.87,5.87,0,0,1,.39.58s-.1-.18-.22-.35l-.22-.33Z"/><path class="cls-1" d="M184.23,188.66c-.32-.11-.47-.4-.23,0S184.1,188.6,184.23,188.66Z"/><path class="cls-1" d="M182.67,187.69a3.54,3.54,0,0,0,.49.32A1.31,1.31,0,0,0,182.67,187.69Z"/><path class="cls-1" d="M73.13,186.82c.26-.15-.11,0-.42.11l-.23.22Z"/><path class="cls-1" d="M71.67,187.57l-.32.26-.22.19-.1.08.23-.18.24-.18c.59-.31,0,.14-.21.29.44-.3.51-.38.48-.4S71.61,187.64,71.67,187.57Z"/><path class="cls-1" d="M70.36,188.54c-.42.32-.26.28-.07.16C70.3,188.66,70.55,188.42,70.36,188.54Z"/><path class="cls-1" d="M60.88,212.78c.14,0,.32.06.29.07C61.34,212.85,61.38,212.84,60.88,212.78Z"/><path class="cls-1" d="M61.17,212.85h0A0,0,0,0,0,61.17,212.85Z"/><path class="cls-1" d="M64.26,208c-.05-.13-.1-.25-.13-.35l0-.08,0,0v0h0s0,0,0,0h0l0-.17a7,7,0,0,1-.14-.69l0-.3c-.09-.57-.1-.24-.18-.66s0-.69,0-1.07,0-.74,0-.87.05.23.07.31c0-.34,0-.51,0-.69a5,5,0,0,1,0-.83h0a24.8,24.8,0,0,1,.4-3.43,18.19,18.19,0,0,1,1-3.44c-.07.15-.07.1-.11.15a18.92,18.92,0,0,1,1.78-3.35c.34-.53.72-1,1.07-1.48s.71-.87,1-1.24a20.74,20.74,0,0,0-1.7,1.81A10.31,10.31,0,0,0,66,193.65c-.31.4-.58,1.14-.74,1.29a11.92,11.92,0,0,0-.83,2.19c-.17.65-.32,1.3-.48,2.22-.07.26-.08.12-.14.19l.12-.73c.07-.37.15-.73.15-.73l-.12.44c-.06.22-.11.44-.11.44,0-.4.3-1.32.27-1.44-.07.32-.16.68-.24,1.07,0,.2-.08.4-.11.6s-.07.41-.1.61a14.36,14.36,0,0,0-.24,2.19c.07-.53.14-1.19.25-1.82.06-.27.16-.69.2-.65-.11.89-.21,1.71-.29,2.54a23.25,23.25,0,0,0-.13,2.57c0,.23,0,.5,0,.73a2,2,0,0,1,0,.43c0-.3-.05-.07-.08-.31,0,.32.08.33.11.38a2,2,0,0,1,.1.6l-.15-.1a1.28,1.28,0,0,1,.11.33,4.14,4.14,0,0,0,.07.45c0,.16,0,.34.09.5a3.8,3.8,0,0,0,.18.47c0,.25-.16-.16-.29-.65a2.44,2.44,0,0,0,.18.56c.06.14.13.25.21.46l-.13-.18-.1-.13,0-.06a2.92,2.92,0,0,1,.27.62c.06.18.09.36.14.49s0-.25.3.3c.13.23,0,.13,0,.19a2.39,2.39,0,0,1,.44.52c0,.08-.2-.19-.25-.19a5.37,5.37,0,0,1,.44.66c.36.43,0-.06.26.19.47.72-.06.15,0,.45l-.64-.79c-.21-.26-.38-.5-.49-.64l.11.16.25.35.38.49c-.07,0,.41.72,0,.22a4.49,4.49,0,0,1,.58,1.07,1.62,1.62,0,0,1-.09,1.12l.3-.2-1.17,0c.17,0,.39,0,.35.05-.61,0-.54,0-.67-.05a2.15,2.15,0,0,0-.67.18h-.12l-.27-.1-.22-.06-.37-.09c-.23,0-.45-.09-.81-.18l0,.08c-.55-.13-.65,0-1.25-.13a1.4,1.4,0,0,1,.39,0c-.53,0-.48-.12-1-.14l.42-.05c-.41,0-1-.06-.8-.12-.68,0-1.8-.09-2.68-.12h0a.83.83,0,0,1-.18,0l.07,0a1.62,1.62,0,0,1-.77-.51,8.94,8.94,0,0,1-.54-.78V211l-.06-.12a1.7,1.7,0,0,1-.12-.29l-.2-.44c-.18-.42,0-.33-.07-.35a2.16,2.16,0,0,0-1-.93A3.67,3.67,0,0,0,53,208.6a5.51,5.51,0,0,1-.74.11,7.81,7.81,0,0,1-1.17.1,3.52,3.52,0,0,1-1.74-.69l0,.22a3.33,3.33,0,0,0,.2-.61c0-.2.08-.39.11-.59.07-.39.11-.79.16-1.18.09-.79.16-1.58.22-2.36.11-1.56.18-3.09.23-4.52,0-.52,0-1.25,0-1.9-.07.79,0,.87-.07,1.65a12.31,12.31,0,0,1-.27,1.3l.1-.25c0,.8-.08.55,0,1.18l-.12,0a3.47,3.47,0,0,1-.1,1l.07.21a3.73,3.73,0,0,1-.23,1l.09,0c-.07.18-.18,1.92-.25,1.31a2.6,2.6,0,0,1,0,.6l-.08,0a5.22,5.22,0,0,1-.14,1.08,1,1,0,0,0,0-.41c-.12.95-.09,1.05,0,1.13a.31.31,0,0,1,.06.21,2.51,2.51,0,0,1-.11.75l0,0,0,.15,0,.12-.05.28.12.08.09.06.18.16.2.16a6.89,6.89,0,0,0,1.65.39c.38,0,.71,0,1,0s.61,0,.86,0a2,2,0,0,1,1.31.62l0-.09a2,2,0,0,1,.14.23c0,.05.06.09.08.15l.07.18a1.66,1.66,0,0,1,.06.21l.06.25.07.26.09.3a4.36,4.36,0,0,0,.55,1.05,6.45,6.45,0,0,0,.56.65c.68.31-.06-.05,0-.1l.38.19.18.07.2,0h.06a9.59,9.59,0,0,1,1.17.21c.71,0-.53-.07-.15-.1,1.07.15.89,0,2.21.15.13.05-.35,0-.49,0a15.73,15.73,0,0,1,1.72.13c.33,0,.67.08,1,.14.17,0,.33.06.49.09l.23.05a.84.84,0,0,1,.17,0l.18,0h.31l2.05,0h.35l.12-.31.1-.26a1.29,1.29,0,0,0,.08-.28l.06-.3c0-.1,0-.21,0-.31a2.61,2.61,0,0,0-.32-1.17,7.7,7.7,0,0,0-.55-.87c-.18-.27-.35-.51-.49-.75l0,0a8.78,8.78,0,0,1-1-2.12Z"/><path class="cls-1" d="M64.15,197.09l-.11.12-.1.43-.1.42C64,197.74,64,197.55,64.15,197.09Z"/><path class="cls-1" d="M64.29,197.33l.06-.22.05-.22s-.06.17-.11.35l-.1.35,0-.13Z"/><path class="cls-1" d="M63.61,208.1l0-.12-.08-.24a4.74,4.74,0,0,1-.15-.55,5.07,5.07,0,0,1-.12-.55l-.05-.26.05.27a5.77,5.77,0,0,0,.12.6,4.58,4.58,0,0,0,.17.58Z"/><path class="cls-1" d="M61,212.72c.19,0,.45,0,.65,0l-.76-.06Z"/><path class="cls-1" d="M55.57,209.83a1.46,1.46,0,0,1-.16-.21l-.1-.15c0-.06,0,0,.06.2C55.63,210.16,55.47,209.7,55.57,209.83Z"/><path class="cls-1" d="M53.88,208.57l.36.12.27.12a1,1,0,0,0-.37-.2Z"/><path class="cls-1" d="M94.22,183.47c.26-.3-.12.05-.44.36l-.2.36Z"/><path class="cls-1" d="M92.78,185.08l-.1.14-.19.33-.28.46.42-.66c.29-.32.3-.28.2-.13l-.36.57c.41-.58.48-.69.44-.7S92.73,185.19,92.78,185.08Z"/><path class="cls-1" d="M91.62,186.88c-.35.61-.19.47,0,.22C91.59,187.05,91.78,186.64,91.62,186.88Z"/><path class="cls-1" d="M95.42,212.49c.2,0,.43,0,.39,0C96,212.52,96.08,212.51,95.42,212.49Z"/><path class="cls-1" d="M95.81,212.54h0S95.81,212.55,95.81,212.54Z"/><path class="cls-1" d="M105.49,209.64a6.26,6.26,0,0,0-.84-.64,5.83,5.83,0,0,0-.84-.49l.1.06-.1-.08-.27-.31a7.88,7.88,0,0,0-.79-.5c-.54-.5-1.72-1.47-2-1.7s.26.16.36.22c-.71-.6-.72-.5-1.57-1.29v0a31.79,31.79,0,0,1-6.13-7,.62.62,0,0,1,.09.23,11.2,11.2,0,0,1-.9-1.84c-.25-.67-.5-1.34-.71-2s-.41-1.34-.57-2c-.08-.32-.14-.64-.2-1l-.06-.46a3,3,0,0,1,0-.42v-.09l0,0a.76.76,0,0,1-.14-.27,1.73,1.73,0,0,1-.07-.31l0-.17v-.48a3,3,0,0,0,0,.31v.16c0,.06,0,.11,0,.17a1.48,1.48,0,0,0,.19.65l0,0v0a5.28,5.28,0,0,0,.08,1.3,12,12,0,0,0,.28,1.35,14.32,14.32,0,0,0,.79,2.35,7.92,7.92,0,0,0,.36,1.07l.19.47a1.34,1.34,0,0,1,.11.32,12.08,12.08,0,0,0,.82,1.47c.28.41.55.77.82,1.12.56.7,1.14,1.36,2,2.28.22.27.08.17.12.27l-.67-.72c-.33-.36-.65-.74-.65-.74s.18.24.37.47l.38.47c-.37-.36-1.15-1.36-1.29-1.43.56.65,1.28,1.5,2,2.29a25,25,0,0,0,2.09,2c-.5-.5-1.14-1.11-1.71-1.72-.23-.28-.6-.71-.54-.71,1.69,1.67,3.08,3.06,5,4.63a13.82,13.82,0,0,1,1.16,1c-.32-.25-.1,0-.37-.23.69.53.15-.05,1.12.75h-.21a2.29,2.29,0,0,1,.5.32l0,0a8.54,8.54,0,0,1,1.55,1.08c.18.29-.24-.18-.82-.55l.65.48a2.07,2.07,0,0,1,.48.52l-.07-.07a1.17,1.17,0,0,0-.16-.15l-.17-.12L105,210a1.34,1.34,0,0,1,.53.69l0,0a4.27,4.27,0,0,1,.43.58s0-.07,0-.07.14.07.38.42.05.17.08.25a.61.61,0,0,1,.16.21,1.61,1.61,0,0,1,.1.25.84.84,0,0,1,0,.39l-.11-.12s0,0,0,0,0,0,0,0,0,0,0,0a.08.08,0,0,0,0,.06h0a.06.06,0,0,1,0-.08l0,0h0l.07.08c0-.12,0-.36-.07-.37a.55.55,0,0,1,0,.18.88.88,0,0,1,0,.17h0l.05,0h-.32l-.32,0c-.74,0,0,.06-.4.1-1.13,0-.12-.14-.53-.22l.82,0h.82l0,0h0a.35.35,0,0,1,.07.09.18.18,0,0,1,0,.19.25.25,0,0,1-.09.09h-.1l-.3.06,0-.33a.9.9,0,0,0-.15-.58.94.94,0,0,1,.14.57l-.07.35.33-.05h0l0,0,.07,0,0,0v-.05a.2.2,0,0,0,0-.14.27.27,0,0,0-.07-.12l0,0h0l-.06,0h-.86c.1,0-1.11-.08-.25-.13-1.62,0-3.58.07-5.13.15.22,0,.5,0,.46,0-.81.05-.72,0-.88,0a4.45,4.45,0,0,0-.89.19c-1.23,0-1.4,0-2.45-.07l.07.08c-.74-.06-.85.06-1.64,0a2.51,2.51,0,0,1,.5,0c-.7,0-.64-.07-1.32-.08l.27,0,.27,0c-.54,0-1.33,0-1-.11a6.37,6.37,0,0,1-1.74-.21,2.06,2.06,0,0,1-.8-.39,1.48,1.48,0,0,1-.42-.68l.09,0a12,12,0,0,0-.59-1.4l0-.06-.06,0a6,6,0,0,0-1.22-.67l-.07-.07-.18-.08a4.15,4.15,0,0,0-.4-.16l-.4-.16-.19-.07c-.52-.22-.3-.24-.36-.23a10.1,10.1,0,0,0-1.64-.47c-.26,0-.47-.06-.71-.1a1.94,1.94,0,0,1-.54-.13,1.91,1.91,0,0,1-.82-.32,4.41,4.41,0,0,1-.59-.45,5.6,5.6,0,0,1-.54-.55,12.52,12.52,0,0,1-1.82-3.21,18.55,18.55,0,0,1-.62-1.77c-.09-.31-.17-.6-.24-.91s-.17-.62-.25-.92-.2-.61-.3-.91-.25-.58-.37-.87a11.8,11.8,0,0,0-1-1.61,17.39,17.39,0,0,0-2.41-2.63c-.24-.24-.55-.51-.85-.82a6.3,6.3,0,0,1-.86-1,5.32,5.32,0,0,0,.65.91l.31.33.45.46a16,16,0,0,1,1.08,1.36l-.09-.15-.09-.15c.76.71.47.55,1,1.12l-.11,0a3,3,0,0,1,.41.5c.13.21.26.43.33.56l.21.18c.07.15.14.28.19.4l.14.33a1.8,1.8,0,0,1,.13.45l0-.09c0,.13.29.69.42,1.16s.21.84.06.49a5.79,5.79,0,0,1,.24.72l-.06.08.24.88a5.21,5.21,0,0,1,.13.56,2.77,2.77,0,0,0-.24-.51,7.45,7.45,0,0,0,.39,1.17c.09.19.15.24.2.27s.16.12.62,1.17H80.6l.15.26.15.25.11.29.12.28c.28.33.69,1,1.27,1.72a5.51,5.51,0,0,0,1,.94,3.15,3.15,0,0,0,1.14.55,4.24,4.24,0,0,0,.47.1l.13,0,.11,0,.27.05.55.14.32.09.34.1,0-.09c.28.12.85.35,1.46.68a13,13,0,0,1,1.71,1.11l-.13-.14a2.29,2.29,0,0,1,.21.77c.27.72,0-.09,0-.08.13.33.21.64.34.91a2.4,2.4,0,0,0,.43.62,2.59,2.59,0,0,0,1,.63c.26.07.34.08.32.07l-.24-.08c-.25-.09-.56-.24-.28-.16a3.42,3.42,0,0,0,.87.26,3.94,3.94,0,0,0,.55.07l1.63.11c.17.06-.47,0-.66,0,.64,0,1.54,0,2.52,0s2,0,2.94-.05l3.55,0h1.94l1,0h.69l-.07,0-.07,0,0,0s0,0-.13-.13a.56.56,0,0,1-.11-.4.58.58,0,0,1,.08-.26.64.64,0,0,1,.16-.17l.09-.06h0l0,0h.09l.67.75a1.88,1.88,0,0,0,0-.31,2.17,2.17,0,0,0,0-.26l0-.07a2.61,2.61,0,0,0-.51-1.1,6,6,0,0,0-.77-.84l.17.25a2.69,2.69,0,0,0-.49-.76,4.83,4.83,0,0,0-.58-.54l.24.22C105.38,209.51,105.49,209.64,105.49,209.64Z"/><path class="cls-1" d="M94.25,200.08l.07.2.11.14.26.3c.18.22.37.43.37.43a4.16,4.16,0,0,0-.36-.49C94.58,200.51,94.44,200.34,94.25,200.08Z"/><path class="cls-1" d="M94.56,200.15l-.37-.46.28.39c.14.19.3.38.3.38l-.11-.16Z"/><path class="cls-1" d="M104.92,210l0-.06-.06-.05a6.32,6.32,0,0,0-1.29-.8h0l-.49-.37.49.37h0A5.85,5.85,0,0,1,104.92,210Z"/><path class="cls-1" d="M95.51,212.43c.24,0,.59,0,.85,0h-1Z"/><path class="cls-1" d="M87.86,207.91c-.42,0-.75-.28-.29,0S87.68,207.88,87.86,207.91Z"/><path class="cls-1" d="M85.5,207.43c.16,0,.32,0,.45.06l.33,0a1.54,1.54,0,0,0-.47-.11C85.7,207.42,85.62,207.43,85.5,207.43Z"/><path class="cls-1" d="M225.13,109.06c-.52,0,.17,0,.73.13h.54l-.2,0-.43-.07-.24,0h-.4Z"/><path class="cls-1" d="M227.88,109.78l.21.08.46.21.44.23.21.1-.46-.25-.33-.16a.66.66,0,0,0-.15-.07c-1-.56.2,0,.58.19-.84-.47-1-.49-1-.46S228,109.82,227.88,109.78Z"/><path class="cls-1" d="M230.34,111.23c.73.58.56.37.27.11C230.54,111.32,230,111,230.34,111.23Z"/><path class="cls-1" d="M249.57,145.16a2.7,2.7,0,0,1,.46-.27C250.27,144.72,250.31,144.66,249.57,145.16Z"/><path class="cls-1" d="M250,144.89l-.15.11.14-.1S250,144.89,250,144.89Z"/><path class="cls-1" d="M258.76,132.11a5.86,5.86,0,0,0-.27-1.44,11.1,11.1,0,0,0-.5-1.24l-.07-.27,0,0v0h0v0h0l0-.08,0-.09,0,0,0,0-.06-.1a1.11,1.11,0,0,0-.12-.16,1.81,1.81,0,0,0-.17-.19l-.18-.16-.51-.33a3.51,3.51,0,0,0-.91-.45,5.25,5.25,0,0,0-1.11-.25,9.09,9.09,0,0,0-1.65,0c-.34,0,.42-.07.59-.08a5.77,5.77,0,0,0-.85.06c-.22,0-.39,0-.61.1h0a7.82,7.82,0,0,0-1.35.55h0c-.22.12-.43.26-.63.39a2.41,2.41,0,0,1-.55.31.77.77,0,0,1-.5,0l-.14-.05-.07,0-.09,0-.35-.16a25.69,25.69,0,0,1-2.78-1.47c-1.85-1.11-3.63-2.42-5.33-3.63a.86.86,0,0,1,.24.22c-.34-.25-.7-.51-1.05-.75l-.27-.19-.23-.2c-.08-.06-.15-.14-.23-.21l-.22-.23a11.83,11.83,0,0,1-1.45-2.14c-.43-.77-.83-1.55-1.25-2.3s-.82-1.46-1.24-2.14h0a22.82,22.82,0,0,0-1.85-1.84,24.8,24.8,0,0,1,1.77,1.91h0c.53.92,1.06,1.93,1.56,2.89a23.28,23.28,0,0,0,1.47,2.54,6.1,6.1,0,0,0,.88,1.21c.34.37.66.64.8.78a75.48,75.48,0,0,0,6.76,4.55c.41.25.19.17.29.27l-.36-.21-.78-.45-1.11-.7.21.14.45.31.46.3.21.14c-.61-.33-2-1.29-2.19-1.35,1,.62,2.22,1.44,3.49,2.14.64.35,1.29.67,1.9.93a1.67,1.67,0,0,0,.91.19,2.1,2.1,0,0,0,.74-.34,2.35,2.35,0,0,1-.67.29,1.33,1.33,0,0,1-.76-.1l-.77-.34-.75-.38-.69-.41c-.2-.14-.35-.24-.32-.24l.77.4c.26.14.51.26.76.38l.76.34a2.1,2.1,0,0,0,.71.23c.47,0,.89-.33,1.37-.61a5.81,5.81,0,0,1,1.58-.66h0a9.4,9.4,0,0,1,2.49,0,5.79,5.79,0,0,1,1.3.34,2.27,2.27,0,0,1,.7.43c-.24-.16-.28-.16-.3-.16s0,0-.24-.1c.27.13.4.21.49.26l.17.07a.82.82,0,0,1,.23.17,1.46,1.46,0,0,1,.24.25,2.54,2.54,0,0,1,.28.47l-.21-.13a1.24,1.24,0,0,1,.17.24c0,.09.1.2.15.31s.2.47.31.75a7,7,0,0,1,.26.88,7.62,7.62,0,0,1,.14.94c0,.22,0,.12-.07-.14a5.29,5.29,0,0,0-.22-1.14,7.61,7.61,0,0,1,.21,1.06,5.6,5.6,0,0,1,.05.91s0-.2-.05-.39l-.06-.4a7.78,7.78,0,0,1-.08,2.09c0,.06.12-.4.07.71,0,.48-.05.23-.07.34a2.06,2.06,0,0,1,0,.46v0c.06.17.14.41.23.71,0,.14-.19-.46-.24-.49a8.82,8.82,0,0,1,.35,1.36c.23.95,0-.07.19.51.11.75.07.79,0,.71s-.11-.26-.12,0a16.72,16.72,0,0,0-.71-2.73v0c.18.58.36,1.16.48,1.75a3.48,3.48,0,0,0,.05.53c0,.24,0,.35-.09-.2l.09.65c0,.23,0,.45,0,.68a5.62,5.62,0,0,1-.07,1.36,2.73,2.73,0,0,1-.49,1.2,2.18,2.18,0,0,1-1,.73l.11,0a8,8,0,0,0-1.22.08,2.4,2.4,0,0,1,.63,0c-.55,0-.79.09-.92.09s-.17,0-.28,0a4,4,0,0,0-1.15.44,11.61,11.61,0,0,0-1.64.59c-.4.18-.78.35-1.41.66l.11,0a5.89,5.89,0,0,0-.93.56c-.24.17-.49.35-.93.64a4.28,4.28,0,0,1,.53-.43c-.77.56-.76.45-1.48,1l.26-.26.28-.25c-.6.44-1.42,1.16-1.17.86-.47.44-1.11,1-1.75,1.67l0,0v0a8.55,8.55,0,0,1-1.93,1.79l.05-.11a9.48,9.48,0,0,1-1.61,1c-.65.35-1.32.63-1.63.81l-.12,0-.23.11-.52.23c-.37.16-.76.3-.76.3-.7.23-.49,0-.54.1a20.65,20.65,0,0,1-3.84.86,5.73,5.73,0,0,1-1.24.24,19.48,19.48,0,0,1-2.07.13,16.83,16.83,0,0,1-4.76-.7l-.06,0-.07,0a61.19,61.19,0,0,1-7.79,3.66h0l0,0a3,3,0,0,1-.6.51,3.87,3.87,0,0,1-.34.21,2.31,2.31,0,0,1-.35.18,2.43,2.43,0,0,1-.37.16c-.12,0-.24.1-.37.13a7.27,7.27,0,0,1-.77.2,10.65,10.65,0,0,1-3.08.1,23.26,23.26,0,0,1-3.29-.61,16,16,0,0,0,2.86.66l.67.12.54.08a8.47,8.47,0,0,0,1.13.1l-.47-.06.46,0,.31,0,.4,0a2.55,2.55,0,0,0,.34,0l.24-.06a2.26,2.26,0,0,0,.35-.09l0,.12.38-.13c.15,0,.31-.11.48-.16a7.05,7.05,0,0,0,.86-.37l.05,0,.1-.09.14-.14a3.41,3.41,0,0,0,.61-.48l-.1.07a6.85,6.85,0,0,1,1-.28l-.11,0c.17,0,1-.36,1.59-.62s1.1-.45.64-.19c.23-.11.43-.24.95-.47l.1,0c.74-.36,1.55-.78,1.77-.85a5.24,5.24,0,0,0-.62.4,6.83,6.83,0,0,0,1.74-1c.1-.12.06-.15.84-.62l-.2,0,.73.2,0,0,.39.07.26,0,.12,0,.4.1.4.09c.57,0,1.64.13,2.81.13a17.66,17.66,0,0,0,3.34-.28,23.91,23.91,0,0,0,3-.58l-.11,0a24.16,24.16,0,0,0,3.06-.92c.61-.24,1.22-.49,1.73-.72l.68-.32.49-.22c.88-.62-.1,0-.11,0a20.38,20.38,0,0,0,1.67-1.19,5.72,5.72,0,0,0,1-.91l.14-.19-.05.06c.17-.19.11-.13,0,0l0-.06c-.21.28-.64.73-.38.39a4.09,4.09,0,0,0,.35-.42l0,.06,1-1a12.89,12.89,0,0,1,1.5-1.26c.21-.11-.46.39-.62.56A18.48,18.48,0,0,1,251,145a15.32,15.32,0,0,1,3.46-1.58,8.55,8.55,0,0,1,2.56-.32h.08l.08,0a2.86,2.86,0,0,0,1.65-1.41,4.73,4.73,0,0,0,.48-2.09,13.07,13.07,0,0,0-.6-3.86l0-.05,0-.2,0,.17c0-.65.07-1.33.09-2,0-.36,0-.72,0-1.11a7.49,7.49,0,0,0-.08-1.22.94.94,0,0,1,0,.14,2.33,2.33,0,0,1,0,.3C258.76,131.91,258.76,132.11,258.76,132.11Z"/><path class="cls-1" d="M242.53,125.25l.18.2.64.42.64.4C243.5,125.89,243.22,125.75,242.53,125.25Z"/><path class="cls-1" d="M242.9,125.29l-.66-.44.52.37.53.37Z"/><path class="cls-1" d="M258.17,131.94v-.19a2.88,2.88,0,0,0-.07-.44,5.94,5.94,0,0,0-.31-.93c-.14-.33-.29-.66-.4-.91l-.07-.16-.07-.13a.34.34,0,0,0-.06-.1.33.33,0,0,1,.06.11l.07.13.08.18c.12.27.28.62.42,1a5,5,0,0,1,.3,1c0,.14,0,.26.05.34Z"/><path class="cls-1" d="M249.62,145c.26-.21.67-.46,1-.66,0,0-.29.18-.57.38l-.56.39Z"/><path class="cls-1" d="M238.94,151.94c-.44.26-.95.29-.29.2C239.4,151.88,238.74,152.05,238.94,151.94Z"/><path class="cls-1" d="M236.1,152.85a6.61,6.61,0,0,0,.93-.24A4.56,4.56,0,0,0,236.1,152.85Z"/><path class="cls-1" d="M220.73,101.56c-.11.25.09,0,.26-.28l.06-.28Z"/><path class="cls-1" d="M221.52,100.34l0-.1.13-.22.18-.32-.28.45c-.2.22-.2.2-.15.09s.18-.3.24-.4c-.29.4-.31.49-.28.5S221.54,100.27,221.52,100.34Z"/><path class="cls-1" d="M222.35,99.16c.31-.35.18-.28,0-.15C222.38,99.05,222.21,99.31,222.35,99.16Z"/><path class="cls-1" d="M236.39,95.47c0-.12-.11-.26-.08-.25S236.2,95.08,236.39,95.47Z"/><path class="cls-1" d="M236.31,95.22l.05.08,0-.08Z"/><path class="cls-1" d="M231.71,86.91c-.36-.4-.52-.65-.85-1l-.12-.26c-.37-.41-.2-.15-.49-.43l-.75.49h0c.06.2.19.55.29.86a7.39,7.39,0,0,1,.19.72c0,.16-.08-.18-.12-.24.07.29.12.42.16.57a2.82,2.82,0,0,1,.12.7h0a6.27,6.27,0,0,1-.31,2.9,6.78,6.78,0,0,1-.68,1.41,9.48,9.48,0,0,1-.95,1.22c.1-.1.08-.06.13-.09a8.77,8.77,0,0,1-1.24,1.1c-.22.17-.46.32-.7.48s-.48.34-.71.51A14.69,14.69,0,0,0,223.4,98a18,18,0,0,1,1.68-1.45l.95-.72c.3-.22.6-.43.83-.62a4.7,4.7,0,0,0,.63-.43,2.18,2.18,0,0,1,.45-.33,6.41,6.41,0,0,0,1.34-1.57A8.46,8.46,0,0,0,230.1,91c.08-.22.08-.1.14-.15l-.05.19-.15.43-.17.42-.08.19a3.44,3.44,0,0,0,.18-.36l.12-.25,0-.12a2,2,0,0,1-.11.32,3.17,3.17,0,0,1-.17.38l-.15.32a.49.49,0,0,0-.07.19,8.63,8.63,0,0,0,.75-1.93,5.71,5.71,0,0,0,.16-1.94,7.78,7.78,0,0,1-.15,1.61c-.07.24-.19.6-.22.56a9,9,0,0,0,.23-2.21,8.52,8.52,0,0,0-.37-2.23c-.1-.32-.25-.72-.3-.88l.31-.2a.78.78,0,0,1,0,.07l-.06-.05-.27.17c.07.12,0,0,.13.17a1.15,1.15,0,0,0-.1-.18l.22-.14c.18.16.08-.08.52.48h-.17c.32.18.64.82,1.06,1.25.1.21-.17-.09-.46-.46.31.43.39.42.65.76l-.33-.25a2.34,2.34,0,0,1,.6.87s0-.23.29.22c.14.2,0,.12.06.18a1.48,1.48,0,0,1,.42.44c0,.07-.19-.17-.23-.17a5.63,5.63,0,0,1,.4.59c.31.38,0-.06.23.17.41.63-.06.13,0,.4-.36-.44-.81-1-1-1.25l.66.87c-.07,0,.37.64,0,.19.59.91,1.36,2,1.94,2.84-.06-.13-.16-.3-.12-.28.31.44.23.42.26.53.24.32.28.25.45.43.36.74.45.82.72,1.48l0-.07c.18.46.31.47.52,1,0,0-.11-.14-.2-.28.24.41.15.41.37.82l-.23-.3c.16.33.42.8.28.66a16.07,16.07,0,0,1,1,2.34l-.08,0a4.19,4.19,0,0,1,.3.91c0,.17.08.35.13.51a1.79,1.79,0,0,0,.1.36l0,.06a4,4,0,0,1,.1.4l.07.4c0,.38-.09.25-.06.28a14.74,14.74,0,0,1,0,2,7,7,0,0,1,.06,1.69,47.86,47.86,0,0,1-.59,5,20.67,20.67,0,0,1-.56,2.44,8.5,8.5,0,0,1-.43,1.13,2.9,2.9,0,0,1-.66,1,.87.87,0,0,1-.74.22,1.53,1.53,0,0,1-.77-.48,1.58,1.58,0,0,0,.6.5,1.13,1.13,0,0,0,.34.08.92.92,0,0,0,.45-.11,2.37,2.37,0,0,0,.54-.38,2.19,2.19,0,0,0,.4-.44.66.66,0,0,1-.09.09l-.09.08c.17-.33.22-.44.28-.53a1.49,1.49,0,0,0,.17-.44l.1.06a5.22,5.22,0,0,1,.32-.86l0-.2a4.44,4.44,0,0,1,.36-.82l-.08,0c0-.08.14-.5.22-.84s.14-.59.15-.31a2.84,2.84,0,0,1,.06-.54l.07,0a6.12,6.12,0,0,1,.17-1,.93.93,0,0,0,0,.38c.13-.86.08-1,0-1s-.1-.12,0-.89l0,0v-.4l.09-.4c-.1-.56.17-2.15.09-3.09,0-.36.08-.84,0-1.54l-.07,0a5.39,5.39,0,0,0,0-.66c0-.17,0-.3,0-.47v-.24l0-.25c0-.35-.09-.68-.12-1a4,4,0,0,1-.07-.66c-.22-.5,0,.06-.06.07a10.11,10.11,0,0,1-.33-1,5.21,5.21,0,0,0-.15-.64c-.28-.58.16.47,0,.17a3.52,3.52,0,0,0-.37-.84,8.06,8.06,0,0,1-.48-1c0-.13.16.27.24.37-.42-.74-1.13-2.16-1.79-3.22-.7-1.26-1.86-3-2.8-4.43h0c-.36-.6-.86-1.17-1.34-1.83Z"/><path class="cls-1" d="M229.5,92.94l.07,0,.06,0,.19-.35.11-.24,0-.11C229.8,92.42,229.75,92.58,229.5,92.94Z"/><path class="cls-1" d="M229.44,92.7l0,.06-.07.11-.1.18.18-.27.17-.28Z"/><path class="cls-1" d="M231.19,87.18l-.05-.08-.47-.56-.48-.55.51.6Z"/><path class="cls-1" d="M236.32,95.45c-.11-.13-.2-.35-.31-.49l.18.29.16.29Z"/><path class="cls-1" d="M238,101.54c.12.25,0,.5.1.16S238.08,101.65,238,101.54Z"/><path class="cls-1" d="M238.23,103a4.88,4.88,0,0,0,0-.49A1,1,0,0,0,238.23,103Z"/><path class="cls-1" d="M222.51,109.14c.05.46.06-.14,0-.66l-.15-.45s0,.27.07.55S222.51,109.14,222.51,109.14Z"/><path class="cls-1" d="M222.17,106.64s-.08-.31-.18-.62l-.12-.42-.06-.19.12.44.12.45c.15,1-.11-.12-.22-.49C222.2,107.44,222.06,106.39,222.17,106.64Z"/><path class="cls-1" d="M221.51,104.22c-.22-.79-.22-.55-.13-.22C221.42,104.05,221.59,104.55,221.51,104.22Z"/><path class="cls-1" d="M196.84,112.87a1.26,1.26,0,0,1,0-.48c0-.14,0-.22,0-.17s0,.09,0,.2v.19A1.38,1.38,0,0,0,196.84,112.87Z"/><path class="cls-1" d="M196.84,112.39v0S196.85,112.39,196.84,112.39Z"/><path class="cls-1" d="M204.87,98c.21-.92.35-1.43.48-2.31l.15-.49a3.64,3.64,0,0,0,0-.66,1.92,1.92,0,0,1,0-.47,11.9,11.9,0,0,0,.05-1.75c0-.63-.1-1.2-.13-1.41s0,0,0,.09.06.34.08.41a8.12,8.12,0,0,0-.21-1.12c-.08-.29-.14-.62-.34-1.31v0a3,3,0,0,0-.11-.31l-.45.6a18.66,18.66,0,0,1,5,1,17.42,17.42,0,0,1,4.7,2.58.73.73,0,0,1-.19-.19A18.93,18.93,0,0,1,218,97a30.07,30.07,0,0,1,2.58,4.65A27.25,27.25,0,0,0,219,98.14,16.35,16.35,0,0,0,216.7,95c-.12-.15-.27-.32-.42-.49s-.31-.34-.47-.49a7.72,7.72,0,0,1-.68-.7l-.8-.69-.74-.55a8.28,8.28,0,0,0-.71-.45c-.23-.14-.45-.28-.68-.4l-.71-.35a3,3,0,0,0-.36-.18l-.38-.16c-.26-.1-.53-.23-.83-.34l-.95-.33c-.38-.15-.19-.12-.29-.19l.1,0,.24.08.75.25c.27.09.53.21.73.29l.33.14-.63-.3a4.67,4.67,0,0,0-.45-.18l-.2-.08.55.19.66.28.57.24a1.12,1.12,0,0,0,.32.13l-.36-.17-.38-.16-.82-.35-.88-.31c-.16,0-.3-.11-.46-.15l-.46-.13c-.31-.08-.61-.17-.92-.23l-.88-.17-.42-.07-.4,0-.72-.06.65.09a5.74,5.74,0,0,1,.69.1l.72.14a5.77,5.77,0,0,1,.72.16,5.55,5.55,0,0,1,1,.35,26.59,26.59,0,0,0-4.24-.74l.19-.26a9.62,9.62,0,0,1,.43,1.76,16,16,0,0,1,.19,1.88,9,9,0,0,1-.08,1.83c0-.47,0-.12,0-.51-.05,1,.15.12,0,1.59l-.09-.2a13.11,13.11,0,0,1-.53,2.81c-.16.35,0-.32.2-1.11-.23.89-.19,1-.41,1.68l.05-.34c0-.18,0-.35,0-.35a5.93,5.93,0,0,1-.62,1.72c0,.06.23-.29-.14.61-.17.38-.12.17-.17.26a4,4,0,0,1-.37,1c-.08.09.15-.4.12-.46a9.25,9.25,0,0,1-.56,1.1c-.39.76.07,0-.15.45s-.38.58-.37.5.06-.25-.1-.06a27.51,27.51,0,0,0,1.18-2.52l-.12.27c-.07.17-.16.38-.26.59l-.28.59-.14.26c0-.12-.68,1.08-.23.19a33.8,33.8,0,0,1-3.41,4.86c.18-.18.4-.43.38-.37s-.28.35-.36.44h0a1.42,1.42,0,0,1-.3.36,3.41,3.41,0,0,0-.27.57,4.33,4.33,0,0,1-.13.42l-.25.42c-.07.13-.12.25-.18.36s-.2.4-.27.58l-.22.56c-.08.2-.14.44-.24.74l.09-.06a2.16,2.16,0,0,0-.08.29c0,.09,0,.18,0,.25a1.5,1.5,0,0,0,0,.42c0,.13,0,.27,0,.43s0,.35.06.59a3.74,3.74,0,0,1-.12-.61c.06.43.06.63.11.83l.07.32a4.61,4.61,0,0,0,.2.45l-.17-.29a1.12,1.12,0,0,1-.11-.22l0-.1a3.69,3.69,0,0,0,.46,1l.1.16.07.1s0,.06,0,0a5.84,5.84,0,0,0,1.82,1.36,8.84,8.84,0,0,0,2.3.73l-.1,0c.37,0,1,.17,1.7.23a7.86,7.86,0,0,0,1.64,0l.1,0,.37,0-.06-.47-1,.26c-.64.08-.43,0-.48,0a7.63,7.63,0,0,1-1.88.07,6.58,6.58,0,0,1-1.46-.31,5.1,5.1,0,0,1-1.06-.28l-.83-.33a3.82,3.82,0,0,1-.81-.4,3.32,3.32,0,0,1-1.22-1.65,5.22,5.22,0,0,1-.23-2.12,9.39,9.39,0,0,1,1.41-4.09c.2-.31.39-.61.62-.9s.44-.6.63-.91c.4-.61.76-1.24,1.1-1.87.69-1.26,1.31-2.51,1.89-3.72.36-.72.77-1.76,1.17-2.68-.55,1.1-.57,1.22-1.11,2.3-.42.81-.65,1.07-1.06,1.74l.25-.32c-.52,1.11-.43.73-.82,1.62l-.08-.09a8.15,8.15,0,0,1-.77,1.34l-.09.31a7.19,7.19,0,0,1-.9,1.21l.1,0-.89,1.18c-.36.5-.6.88-.4.45-.11.2-.2.4-.45.84l-.09,0c-.33.66-.6,1.44-.69,1.64a6.19,6.19,0,0,0,.15-.66,5.81,5.81,0,0,0-.41,1.42.89.89,0,0,0,0,.39.92.92,0,0,1,0,.33,10.22,10.22,0,0,0,0,1.26l0,0s0,.18,0,.35l0,.24,0,.11v.11c0,.07,0,.17,0,.26a2.59,2.59,0,0,0,.07.37,8.59,8.59,0,0,0,.53.94,3.87,3.87,0,0,0,1.08,1,6,6,0,0,0,.72.36l.71.3a10.29,10.29,0,0,0,1.33.44c.31.08.67.19,1.12.27a6.17,6.17,0,0,0,1.6.08l-.09-.07a13.8,13.8,0,0,0,2.36-.25l-.08-.64a12.77,12.77,0,0,1-1.79-.13,6.73,6.73,0,0,1-1.23-.27c-.87-.11.09,0,.07.08a6.83,6.83,0,0,1-1.63-.38l-.44-.2-.49-.25c-.45-.22-.29-.12-.06,0s.51.24.24.16-.59-.3-.78-.41-.32-.21-.47-.3a1.74,1.74,0,0,1-.22-.18,1.31,1.31,0,0,1-.25-.23l-.14-.16-.07-.09-.07-.1-.14-.24a2.73,2.73,0,0,1-.13-.29c0-.09,0,0,.11.16a1,1,0,0,0,.13.22l.12.17a2.68,2.68,0,0,1-.27-.45c0-.08-.09-.17-.13-.26l-.09-.31a3.75,3.75,0,0,1-.05-1.43,8.88,8.88,0,0,1,1.14-3c.09-.17.2-.34.32-.52l.37-.57,0,0a33.23,33.23,0,0,0,2.41-3,26.57,26.57,0,0,0,2-3.43v-.06a18.39,18.39,0,0,0,1.37-3.76l-.11.33C204.93,97.87,204.87,98,204.87,98Z"/><path class="cls-1" d="M212.25,91l-.17-.16-.6-.3c-.15-.08-.31-.14-.42-.19l-.2-.08C211.34,90.53,211.6,90.65,212.25,91Z"/><path class="cls-1" d="M211.91,91l.32.15.21.12.09,0-.15-.09-.34-.19-.49-.26Z"/><path class="cls-1" d="M204.36,97.72l.06-.17.09-.38c.05-.23.11-.54.17-.85.11-.62.17-1.24.17-1.24s-.07.66-.19,1.32S204.36,97.72,204.36,97.72Z"/><path class="cls-1" d="M196.76,112.78a2.86,2.86,0,0,1,0-.53V112l0-.25,0,.19a3,3,0,0,0,0,.43,2,2,0,0,0,0,.44l0,.19Z"/><path class="cls-1" d="M204,116.63c-.42.17-.85.1-.27.13S203.8,116.69,204,116.63Z"/><path class="cls-1" d="M201.49,116.84a3.39,3.39,0,0,0,.8,0l-.48,0Z"/><path class="cls-1" d="M227.07,123.12s0,0,0-.06l-.05,0Z"/><path class="cls-1" d="M227.06,122.91l0,0,0,0,0,.07c0,.09-.05,0-.07,0C227,123,227,122.89,227.06,122.91Z"/><path class="cls-1" d="M227,122.72c0-.07,0,0-.05,0S227,122.75,227,122.72Z"/><path class="cls-1" d="M224.68,123.87s0-.05,0-.05S224.64,123.8,224.68,123.87Z"/><path class="cls-1" d="M224.67,123.82h0Z"/><path class="cls-1" d="M225,122.63c0-.07,0-.08.07-.13h0s0,0,0-.09.13-.11.16-.12,0,0,0,0,0-.08.11-.12h0a.58.58,0,0,1,.33-.13H226l.18,0s0,0,0,0a1.8,1.8,0,0,1,.72.43c0-.06-.1-.16-.17-.25a.49.49,0,0,0-.26-.16c0-.06-.15-.06-.16-.11a1,1,0,0,0-.55,0s0,0,0,0l.18,0-.11,0s.17,0,.18,0c-.16,0-.44,0-.55.15l.22-.07s.09,0,.08,0a1.89,1.89,0,0,0-.53.27c-.05,0-.1.09-.12.08s0,0,0,0,0,0,0,.13l0-.06c0,.08-.1.1-.11.19s0,0,0-.1,0,.09-.05.13l0-.07c0,.08-.07.09-.1.11s.06,0,0,.07,0,0,0,0a.1.1,0,0,1,0,.1s0,0,0,0a.25.25,0,0,1,0,.09c0,.07,0,0,0,0s-.07,0-.12,0a1,1,0,0,1,0-.26l0,.09,0,.08s-.06.11-.06,0a.66.66,0,0,0,0,.15v.13a.82.82,0,0,0,.05.28s0-.06,0-.06,0,.08,0,.1.07,0,.11.07a2,2,0,0,0,0,.26l0,0c0,.08.06.06.09.14s0,0-.05,0,0,.08.06.13l-.07,0s.1.1.06.1a2.38,2.38,0,0,0,.35.24l0,0c.08,0,.22.13.29.09v0h.14c.05,0,0,.07,0,0l.18,0,.14,0s.15-.06.25-.09a1.09,1.09,0,0,0,.66-.38,1.17,1.17,0,0,0,.28-.66.85.85,0,0,0,0-.25c0,.1,0,.12,0,.21s-.08.08-.12.13l0,0c0,.1,0,0,0,.14l-.06,0s0,.08-.06.09l0,.05s-.08.06-.12,0l0,0s-.13.16-.14.07a.06.06,0,0,1,0,.06l0,0s-.06.07-.09.06,0,0,0-.06-.07.09-.06.12,0,.07-.06.12v0l0,.05h-.06c0,.11-.26.07-.37.11s-.12,0-.19-.06v0a1.5,1.5,0,0,1-.17-.11.22.22,0,0,1-.12-.16c-.07,0,0,0,0,0s-.09-.09-.12-.14,0,0,0,0-.1,0-.17-.15,0,0,0,0-.17-.22-.21-.35a1.31,1.31,0,0,1,0-.28V123l0-.06.06-.13h0c.05-.06.06-.14.12-.21Z"/><path class="cls-1" d="M226,121.82l0,0-.11,0S225.92,121.8,226,121.82Z"/><polygon class="cls-1" points="225.96 121.92 226.02 121.91 225.93 121.9 225.96 121.92"/><path class="cls-1" d="M224.75,122.45h0l.11-.19A1.32,1.32,0,0,0,224.75,122.45Z"/><path class="cls-1" d="M224.64,123.88s0,0-.06-.07l.07.09Z"/><path class="cls-1" d="M225.46,124.61c.06,0,.09,0,0,0S225.49,124.6,225.46,124.61Z"/><path class="cls-1" d="M225.74,124.56a.19.19,0,0,0-.08,0C225.71,124.61,225.71,124.57,225.74,124.56Z"/></svg>