<?xml version="1.0" encoding="utf-8"?>
<!-- Generator: Adobe Illustrator 23.1.1, SVG Export Plug-In . SVG Version: 6.00 Build 0)  -->
<svg version="1.1" id="Layer_1" xmlns="http://www.w3.org/2000/svg" xmlns:xlink="http://www.w3.org/1999/xlink" x="0px" y="0px"
	 viewBox="0 0 700 700" style="enable-background:new 0 0 700 700;" xml:space="preserve">
<style type="text/css">
	.st0{fill:url(#SVGID_1_);}
	.st1{fill:#891A1C;}
	.st2{fill:#C4122F;}
</style>
<g>
	
		<linearGradient id="SVGID_1_" gradientUnits="userSpaceOnUse" x1="389.1099" y1="377.0461" x2="545.3049" y2="533.241" gradientTransform="matrix(1 0 0 -1 0 702)">
		<stop  offset="0" style="stop-color:#79242F;stop-opacity:0"/>
		<stop  offset="2.801925e-02" style="stop-color:#79242F;stop-opacity:2.801925e-02"/>
		<stop  offset="1" style="stop-color:#79242F"/>
	</linearGradient>
	<path class="st0" d="M377.6,258.4c9.2,10.6,22.8,19,30.7,30.3l8.6-1.8c0.3-0.1,0.7-0.2,1-0.2c-3.1-3.1-6.4-6.2-9.7-9
		c-7.8-6.5-14.2-14-22.4-19.3c-3.5-2.3-7.3-5.2-10.7-5C373.3,255.7,376.5,257.1,377.6,258.4z M328.8,255.3c-2,4,2.4,6.5,4.4,8.5
		c2.6,2.6,5.3,5.1,7.7,7.3c8.8,8.5,15,19.9,24,27.4c0.3,0,0.4,0,0.6,0c0.3,0,0.6,0,0.9,0c2.2,0.2,4.2,1,5.8,2.4
		c1.6,1.4,2.6,3.2,3.1,5.3c0.1,0.4,0.2,0.9,0.3,1.4c0.2,0.2,0.3,0.3,0.4,0.4c-0.1-0.3,0-0.7,0-1.1l1.4-6.9c-2.3-2.1-4.5-4.2-6.9-6.2
		C356.1,281.8,345.1,264.6,328.8,255.3z M396.8,264.5c3.9,3.6,8.2,6.5,11.9,10.3c3.6,3.7,6.6,7.9,10.1,11.7c1.7-0.3,3-0.4,4.1-0.4
		c0.3,0,0.6,0,0.9,0c1.9,0.2,3.8,0.9,5.5,2.2c0.3,0.2,0.4,0.3,0.7,0.6l0.1-1.9c-1-1-2.2-2.1-3.3-3.1c-5-4.6-10.5-9.5-14.7-14.7
		c-5.6-6.7-11.4-15.2-18.6-18.4c-3.8,4.4,4.8,6.6,4.6,9.6c-1.7-1.4-3-3.1-4.6-4.6c-1.5-1.2-3.6-3.6-6.1-3.2
		C388.4,257.5,393.3,261.2,396.8,264.5z M372.6,272.3c-5.9-5.9-10.6-12.9-18.2-16.7c0.3,1.4-0.6,2.1-1,3.1c1.7,4.1,4.8,5.8,7.2,7.9
		c9,7.9,15.4,17.9,23,27l0.8-0.4l-0.1,0.9l0,0l8.3-1.7c-0.7-0.8-1.5-1.6-2.2-2.4C384.7,283.7,378.3,278.2,372.6,272.3z M383.6,293.9
		L383.6,293.9C383.7,293.9,383.7,293.9,383.6,293.9L383.6,293.9z M399.7,288.9c0.5,0.4,1.1,0.9,1.7,1.3l6.2-1.3
		c-3.9-3.8-8.3-6.9-11.7-11.4c-11.2-6-18.9-17-30.3-22.6c-1,5.8,5.4,9.9,9.2,13.7c4.2,4.2,8.2,9.1,12.9,11.8c-0.4,0.2-1.1,0.3-1,0.8
		c3.5,3.1,6.9,6.5,10.2,10.1l4.3-0.9C400.6,289.8,400.1,289.3,399.7,288.9z M343.1,255.7c-2.8,4.5,2.8,8.3,5.6,11.1
		c3.3,3.3,7.2,6.9,10.5,9c6.1,7.4,13,14,19.5,20.3c0.5-0.7,1.2-1.2,2.1-1.4l2.3-0.4l0.1-0.6C368.7,282.4,359,264.5,343.1,255.7z
		 M441.3,251.9c5.8,5.9,13.1,11.2,18.4,17c0.8,0,1.6,0.3,2.2,0.8c0.9,0.7,1.3,1.7,1.2,2.9v0.7c0.3,0.4,0.5,0.8,0.8,1.2
		c-0.3-0.3-0.5-0.5-0.8-0.8l-0.2,3.4l10.3-2.2c-9.9-10.1-20-20.3-30.7-28.3c-1.7-1.2-3.4-3.8-6.1-3.1
		C434.9,247.2,439.2,249.7,441.3,251.9z M401.9,255.7c9.5,10.6,19.4,20.3,28.9,29.5c0.4-0.8,1.3-1.4,2.3-1.7l3.2-0.7
		c-1.9-2.2-3.9-4.4-6.2-6.3c-3.6-3.1-7.3-5.7-10.5-9c-6.3-6.6-10.6-15.4-19.9-18.7C397,252,400.1,253.6,401.9,255.7z M462.2,309.2
		l2.4-0.5c-1.1-1-2.3-2-3.4-3.1l-0.1,2c-0.1,0.8-0.1,1.3-0.1,1.7C461.3,309.4,461.7,309.4,462.2,309.2z M442,273.4l5.2-1.3
		c-8.3-10.1-17.2-19.8-28.2-26.6c-1.3,0.4-0.9,1.9-1.7,2.6c4.3,5.3,9.1,9.9,13.6,15C434.3,266.7,438.3,270,442,273.4z M414.6,256.9
		c4.5,4.5,8.2,10.4,12.2,14.1c3.2,3,6.5,6,9.8,8.9l0.2-2.9c0.1-1,0.6-2,1.5-2.6c-3.8-3.1-7.8-5.8-11-9.2
		c-5.4-5.7-10.4-13.3-16.4-16.6C406.2,252.2,412.4,254.6,414.6,256.9z M433.7,301.7c0.5,0.5,1,1.1,1.5,1.7l0.3-5.9l-1.7,0.3
		c0,0.4,0,0.9-0.1,1.3L433.7,301.7z M460.4,324c0.6,0.7,1.2,1.5,1.9,2.2l7-1.5c-0.3-0.8-0.8-1.6-1.2-2.4L460.4,324z M445.3,326.7
		c-0.2,0-0.3,0-0.4,0c-2.4-0.1-4.6-0.9-6.5-2.4c-1.9-1.6-3.1-3.5-3.5-5.8c-0.3-1.8-0.3-4.7-0.1-9.2l0.3-4.2c-0.5-0.5-1-1.1-1.5-1.7
		l-0.9,14c-0.1,2.1-0.2,3.5-0.2,4.4c2.6,2.7,5.2,5.4,7.8,8.1c0.3,0.4,0.7,0.8,1.1,1.2c0.4-0.4,1-0.8,1.7-1l5.3-1.1
		c-0.7-0.9-1.4-1.7-2.1-2.5C446,326.7,445.7,326.7,445.3,326.7z M430.5,246.3c-1.2-0.8-2.4-3.4-4-1.9c-1,0.3,0,1.8-1.3,1.9
		c7.9,9.1,16.6,16.9,25.2,24.9l8.1-2.1C449.6,260.7,440,252.2,430.5,246.3z M454.2,325.3c-1.4,0.3-2.6,0.5-3.8,0.7
		c0.8,0.7,1.6,1.4,2.4,2.1l7-1.5c-0.6-0.7-1.1-1.5-1.7-2.2L454.2,325.3z M572.2,198c0.1,0.8,0.6,1.9-0.1,2.3c-2-0.6-3.5-2-6.3-1.5
		c-1.7,4.2,4.7,5.1,4.6,6.8c-3.5-1-4.8-5.4-9.4-4.7c-1.8,2.8,1.6,4.3,3.2,6c-2.9-0.8-4.4-3.7-8.4-2.7c-0.7,1,0.2,2.8,0.4,4.4
		c-1.9,0.6-2.8-2.3-4.2-0.3c-1.1,4.9,6.7,6.3,6,10.5c-3.6-5.1-9.2-8.5-13.9-11c-5.1-2.7-10.5-5.8-16.8-5.9c0.5,1.6-0.9,1.9-0.4,3.4
		c6.2,2.8,13.5,7.8,17.1,12c-2.7-1.7-5-3.6-7.8-5.1c-2.8-1.5-6.3-2.4-8.7-4.3c-2.7-2.1-4.9-5.3-9.3-4.2c0.5,3.9,5.4,5.2,8.4,7.8
		c4.4,3.8,8.4,8.8,13,12.3c-9.4-4.2-14.1-15.5-24.9-17.6c-1.9,6.7,9.6,9,10.5,14c-2-1.9-5.1-3.4-7.8-5.1c-2.4-1.5-5.1-4.7-7.9-3.3
		c0,5.3,8,8.6,9.3,11.9c-4-2.3-8.2-7.9-12.9-6.8c-0.3,3.6,3.2,6.1,5.5,8.3c7.5,7.2,16.3,12.3,23.1,19.7l0.9,0.1l-0.1,0.9
		c0,0,3,2,2.9,2.2c-0.3,0.3-3.3-1.5-2.9-2.2l-0.9-0.1l0.1-0.9c-3.5-1.4-6.2-5.4-9.5-7.5c-1.8-1.2-4.6-1.4-6.5-2.5
		c-2-1.1-4-3.1-5.8-4.4c-4.1-3.1-7.8-8.7-13.6-7.2c-0.1,3.2,4,4.4,6.3,6.5c2.7,2.4,4.6,5.9,7.3,8.5c3.8,3.5,8.9,4.8,10.9,8.3
		c-12.4-7.1-22.2-17.9-34.9-24.4c-1,1.2-1,2.8-1,3.6c-2.4-1-4.5-2.4-7.2-3c-0.4,0.9-0.5,1.8-1.2,2.4c-1.9,0.2-1.8-2.6-4-1.9
		c-1.4,0.9,0.2,3.5-0.7,4.6c-0.8-2-2.3-2.9-4.7-2.4c-0.3,2.8,2.5,5.8,4.3,8c1.9,2.4,4.2,5.8,7.3,5.8c2.3-1.7-2.5-4-1.8-5.1
		c3.1,1.9,4.6,6.1,9.1,5.9c2.4-2-2.2-3.8-1.2-5.3c3,2.5,5,6.5,9.3,7c2.2-1.5,0-3.6,0.2-4.5c1,1.3,2.7,1.3,3.6,2.6l0.8-0.4l0.4,0.7
		c2.1-0.1,1.3-1.9,1-3.5c2.2,0.9,3.4,3.1,5.7,3.8l1,0.1l-0.1,0.9c8.5,6.9,21,11.9,26,21.9l-0.4,1h-1.1c0.3,1.2-3.9-0.3-2.1-1.2
		l0.5-0.9l0.9-0.6c-8.2-5.9-15.7-13.2-23.6-19.5l-1-0.1l0.1-0.9c-1.7,0.3-3.1,0.6-2.4,2.2l0.9,0.1l-0.1,0.9c0.8,0.1,1.3,0.4,1.5,1.4
		c-0.8-0.1-1.3-0.4-1.5-1.4l-0.9-0.1l0.1-0.9c-1.6-0.5-3-1.4-4.2-2.4l-0.8,0.4l-0.4-0.8c-3.1,2.5,2.1,5.6,4.9,7.9
		c6.3,5.2,15.5,10.6,19.8,15.9c-5.8-4.6-13.3-9.4-19.5-14.3c-3.1-2.4-6.5-8-11.5-5.9c-0.5,3.2,3.1,4.8,5.1,6.7
		c6.9,6.5,13.4,12.5,20.3,18.1c-12.7-7.9-23.1-19.4-36.1-27c-1.2,0.8-0.8,2.5-1.5,3.7c-2-1-4.2-2.7-6.4-4.3c-2-1.4-4.2-4.4-6.6-3.1
		c0.5,7,7.7,10.1,11.7,14.2c-6.6-2.9-11-9.2-18.1-11.3c-1.2,1.3-1.2,3.5-1.4,4.2c-2.3-0.3-2.9-2.9-5.8-2.1c-2.2,3.1,1.7,5,3.3,6.5
		c3.3,3.1,6.3,5.8,9.2,8.6c7.2,6.8,14.9,13.2,21.9,19.9c4,3.8,9,7.2,11.2,12.1c-18.8-15.2-33.6-36.4-55.2-47.4
		c-1.8,2.8,1,5.4,2.9,7.2c2.2,2.1,5.4,3.9,7.3,5.7c6.2,5.9,12.8,12.5,19.3,19.1c0.8,0,1.6,0.3,2.3,0.9c0.8,0.7,1.2,1.7,1.2,2.6
		c3.7,3.8,7.3,7.5,10.8,11.1c3.6,3.7,8.5,6.6,10.4,11.2c-1.6-2.7-4.4-3.8-6.7-5.8c-5-4.3-9.9-8.9-14.7-13.7l-0.3,5
		c-0.1,0.7-0.3,1.4-0.8,1.9c3.5,2.6,7.1,7.5,10.6,10.1c-3.5-1.1-7.4-5.9-11.1-9.6c-0.4,0.3-0.9,0.5-1.4,0.6l-6,1.3
		c3.5,3.7,6.8,7.5,9.9,11.6c-4.1-3.8-8.6-7.3-13.2-11l-4.7,1l-0.2,2.7c1.6,1.5,3.2,3,4.9,4.4c-1.7-1-3.4-2.2-5-3.4l-0.4,6.6
		c1.7,2,3.3,4.1,4.9,6.2l1.2-0.3c2.8-0.6,5-1.6,6.4-3c0.6-0.6,1.5-1,2.4-1c0.6,0,1.1,0.2,1.7,0.4c1.3,0.7,2,2.3,1.7,3.7l-1.2,5.8
		c1,0.9,2,1.7,3.1,2.3c3.7,2.4,5.6,7.4,11.6,6.5c0-3.4-5.8-7.3-6-10.4c1.7,2.6,5.1,4.1,8,6.1c2.4,1.7,5.3,5.7,9.1,3.1
		c-5-8.6-13.5-12-19-20c6.7,5.1,14.3,11.6,20.6,16.8c2.1,1.7,4.7,6,8.4,2.7c-1-3.3-3.9-3.8-4.7-7.3c0.8-0.2,0.8,0.8,1.4,0.8l0.8-0.4
		l0.9,0.1c2.2-7.3-5.3-11.9-8.1-16.7c4.4,3.1,8.6,6.4,12.5,10.2c2.5-0.8,4.3-0.6,6.4-0.8c-2.6-5-7.9-9.7-10.2-12.9
		c4.9,4.4,10.5,7.9,15.4,12.4c2-0.6,5.1-0.6,6.1-1.8c-3.1-5.5-8.6-7.3-11.9-12.6c1.8,1.6,5,3.5,8,6.1c3.7,3.1,5.8,7.9,11.1,4.4
		c-1.3-3.4,1.6-2.2,2.8-3.3c-3.8-7.2-9.8-11.3-14.7-16.9c0.2,0,0.3-0.1,0.6-0.1l-0.5-0.7l1,0.1c-0.1-0.3-0.2-0.7-0.3-1
		c0.9,0.2,1.3,0.9,1.7,1.8l0.4,0.7l-0.9-0.1c4.4,3.1,9.2,10.6,14.8,7.5c-6.3-9.3-15.4-14.4-22.9-21.9c8.8,4,13.3,14.2,25.2,13.7
		c0-2.6-3.1-4.1-5.1-6.2c-2-2.1-3.8-4.5-5.8-6.6c0.9-0.1,1.1,0.7,2,0.7l0.1-0.9l0.7,0.7c0.3-0.1,0.6-0.1,0.9-0.2l-0.5-0.9l0.7-0.8
		c-0.2-0.7-0.9-0.6-1-1.5c-1.7-1,3.7,1.8,2.4,2.3l0.5,0.9l-0.7,0.8c1.1,2.1,8.5,6.4,5.6,6.1l0.1,0.5l-0.6,0.1c0.9,1.8,2.1,3.1,4.3,3
		c1.4-1.2,0.6-3.8,3.5-3c-0.3-2.8-2.3-2.8-3-5c1.8,0.4,2.6,2.4,5.6,1c-0.4-2.8-3.3-5.4-5.3-7.2c-7-6.5-15.7-11-21.5-18.3
		c6.1,4.1,14,8.5,19.7,13.1c1.7,1.4,3,4.8,5.7,3.8c2-3.3-1.9-5.7-3.6-7.6c-6.3-7.1-13.9-12.6-19.9-18.7c4.9,3.1,9.5,7.9,13.8,10.5
		c2.4,1.5,4.9,4.5,8,3.8c1.4-4.7-5.8-7.9-8.1-11.7c3.3,0.6,4.5,4.3,8.2,4.4c-0.1-7.5-9.7-11-11.5-16c3.5,0.9,5.1,4.4,9.3,4.2
		c-1.3-7.9-12.2-11.6-15.3-16.8c6.8,3.6,12.3,9.1,19.5,12.1c2.5-3.7-2-6.6-4.5-9.1c-2.9-2.9-6.2-5.8-8.5-8.3
		c7.6,3.3,12.3,10.9,19.1,15.5c2.1-2.3,0-5.8-1.5-8.6c2.6,0.9,4,3.6,6.9,4.1c3.8-3.5-4.2-9.2-4-11.9c2.6,2.9,6,4.5,9.2,6.5
		c4.1-2.7-3.3-5.7-2.4-7.9c1.7,1.6,3.6,2.9,6.1,3.1c1.5-1.5,0.2-3.6-0.7-5.4c1.4,1,3.1,0.6,4-0.9C579.3,202.4,576.6,198.9,572.2,198
		z M478.1,259.2c3.3,0.6,7.7,5.8,11.4,8.2C486.3,266.7,481.6,262,478.1,259.2z M534.9,293.6c-1.5,0.3-1.3-1.9-2.8-1.7
		C532.7,290.2,534.7,292.5,534.9,293.6z M501.5,267.8C498.4,267,500.1,264.6,501.5,267.8L501.5,267.8z M498.3,259l-0.9-0.1l0.1-0.9
		c-0.8-0.1-1.3-0.4-1.5-1.3c0.7,0,1,0.4,1.4,0.8l1,0.1l-0.1,0.9c1.5,1,2.9,2,4.3,3.1l0.1-0.9l0.7,0.7c0.9-0.2,1.1,0.5,1.7,0.8
		c0,0.3,0.1,0.6-0.3,0.6l0.2,0.2l-0.2,0.3c0.1,1,0.9,1,1,2C502.9,263.6,500.7,261.1,498.3,259z M505.5,272c0.2-1.8,1.2,0.3,1.8,0.2
		C507.3,273.7,506.2,271.4,505.5,272z M511.4,269.6c-1.9-0.3,1.5-1,1.3,0.3C512.5,271,512.2,269.3,511.4,269.6z M517.1,278.4
		l-0.9-0.1l0.1-0.9c-0.9-0.2-1.3-1-1.7-1.9l-0.9-0.1l0.1-0.9c-1-0.3-2-0.4-2.2-1.7c1.5-0.4,1.7,0.8,2.2,1.7l0.9,0.1l-0.1,0.9
		c0.8,0,0.9,1,1.5,1.4l0.9,0.1l-0.1,0.9c1,0.3,2,0.4,2.2,1.7C518.2,279.6,517.5,279.1,517.1,278.4z M519.6,274
		c0.2-1.8,1.3,0.3,1.8,0.2C521.5,275.8,520.3,273.5,519.6,274z M522.3,275.6l-0.9-0.1l0.1-0.9l0.9,0.1L522.3,275.6z M528.5,286.6
		c-1.1,1.7-3.4-1.2-4.2-2.4C526.3,284.2,526.6,286.5,528.5,286.6z M525.2,277.8c-1-0.3-2-0.4-2.2-1.7
		C521.5,275.2,525.1,276.7,525.2,277.8z M527.1,265.2c3.3,1.1,4.9,4.7,7.9,6.1C532.7,271.6,529.1,267.8,527.1,265.2z M557.8,209.9
		c1.8,0.7,3,2.3,4.4,3.6C561.4,214,558.6,211.6,557.8,209.9z M477.5,318.4c-0.3,1.3-1.3,2.4-2.6,2.6l-1.7,0.3c1.1,1,2.2,2.2,3.3,3.3
		c1.6-0.4,3.8-0.5,4.4-1.5c-1-2-2.1-3.8-3.2-5.5L477.5,318.4z M399.4,322c0,0.2,0,0.3,0,0.5c0,0,0.3-0.1,0.7-0.2
		c-0.2-0.3-0.4-0.4-0.6-0.7L399.4,322z M411,334.5L411,334.5c-0.8,0-1.4-0.2-2-0.6c-1.6,1-3.4,1.8-5.8,2.3l-0.3,0.1
		c4,4.4,7.7,8.7,11.4,13.1c0.1,0,0.2,0,0.3-0.1l8.5-1.7C418.9,343.4,415,339,411,334.5z M406.1,320.8c0,0,0.3-0.4,0.4-2.2l0.1-1.7
		c-0.2-0.2-0.4-0.3-0.6-0.5l-4.4,0.9c-1.4,0.3-1.7,0.7-1.7,0.7s-0.1,0.2-0.3,0.6c0.2,0.3,0.3,0.4,0.6,0.7c0.7,0.9,1.5,1.7,2.3,2.5
		c1-0.2,1.7-0.3,1.7-0.3C405.7,321.2,406.1,320.8,406.1,320.8z M437.1,344.6c-1.9-2.3-3.8-4.5-5.7-6.7c-2-2.3-3.8-4.4-5.9-6.5
		l-4.9,1c2,1.6,4.1,5.1,6.3,6.4c-2.1,0-4.6-3.8-7.1-6.2l-5.4,1.1c3.9,4.1,7.5,8.4,10.2,13.4l11.2-2.4
		C436.3,344.8,436.7,344.7,437.1,344.6z M440.8,335.2c-0.3-0.6-0.4-1.2-0.3-1.8c-2.4-2.7-4.7-5.3-7.1-8c0.5,1,0.5,2.1,0.1,3.1
		c-0.4,1-1.3,1.7-2.4,1.9l-3.8,0.8c4.7,4.6,9.5,9.2,14.1,13.6c0.3,0,0.4,0.1,0.6,0.2c0.2-3.6,0.1-5.3,0-6.1
		C441.7,337.6,441.4,336.3,440.8,335.2z M432.9,362.9c-1,0.3-1.7,0.6-2.2,1.1c-0.3,0.4-0.5,1-0.7,1.8c3.5,3.3,7.1,6.7,10.3,10.1
		l0.6-12.6c0.1-1,0.1-1.7,0.1-2.2c-0.3,0-0.6,0.1-1,0.2L432.9,362.9z"/>
	<g>
		<path class="st1" d="M432.9,362.9c-1,0.3-1.7,0.6-2.2,1.1c-0.4,0.6-0.8,1.7-0.9,3.1l-1.1,22.4c0,0.6,0,1,0,1.3h0.1
			c0.3,0,0.9,0,1.7-0.3l5.8-1.2c1.6-0.3,2.4-0.8,2.6-1.1c0.1-0.2,0.7-1.1,0.9-4.3l1-20.7c0.1-1,0.1-1.7,0.1-2.2
			c-0.3,0-0.6,0.1-1,0.2L432.9,362.9z M437.6,384c-0.1,1.6-0.3,2.4-0.3,2.8c-0.2,0.1-0.6,0.2-1.1,0.3l-4.8,1l1-20.8
			c0.1-1.1,0.3-1.7,0.3-1.7s0.2-0.2,0.8-0.3l5.1-1L437.6,384z"/>
		<path class="st1" d="M177.4,405.9c-0.5,0-1.9,0.2-5.8,1l-22.1,4.6l-1.3,27.6l19-4c4.4-1,7.5-2.4,8.9-4.2c0.4-0.6,0.7-1.1,0.8-1.8
			c0.1-0.5,0.3-2.1,0.5-6.3l0.3-6.2c0.3-5.5,0.3-7.8,0.2-8.7C177.9,407,177.6,406.4,177.4,405.9z M175.4,416.5l-0.3,6.2
			c-0.2,4.4-0.4,5.7-0.5,5.9c-0.1,0.3-0.2,0.6-0.3,0.9c-0.6,0.7-2.4,2.2-7.5,3.3l-16,3.3l1.1-22.6l20.2-4.3c1.6-0.3,2.7-0.5,3.5-0.7
			C175.5,409.6,175.5,411.9,175.4,416.5z"/>
		<path class="st1" d="M613.1,306.9c-1-0.9-2.4-1.4-3.8-1.4c-0.4,0-0.8,0-1.2,0.1l-13,2.7c-3.8,0.8-7.2,2-10,3.8
			c-1-0.6-2-0.9-3.1-0.9c-0.4,0-0.8,0-1.2,0.1l-25.6,5.3c-1.7,0.3-3.3,1.6-4.1,3.2c-0.8,1.7-0.7,3.6,0.1,5.2
			c0.4,0.9,0.8,1.7,0.9,2.7c0,0.3,0.1,0.8,0.1,1.6c-0.9-1.8-2-3.4-3.4-4.8c-2.4-2.3-5.3-3.6-8.6-3.8c-0.4,0-1-0.1-1.6-0.1
			c-2.4,0-5.6,0.4-9.7,1.3l-32.5,6.8c-8.9,1.6-15.5,5.8-19.5,12.3l0.6-13.2c0.1-1.8-0.7-3.6-2-4.7l0,0c2.2-0.5,3.9-2.3,4.4-4.4
			l2.1-10c0.5-2.5-0.6-5.1-2.9-6.3c-0.9-0.5-1.8-0.7-2.9-0.7c-1.5,0-2.9,0.6-4,1.6c-1,1-2.9,1.8-5.1,2.4l-3.6,0.8l0.9-12.6l12.1-2.6
			c2.5-0.5,4.4-2.7,4.6-5.3l0.4-7.6c0.1-1.8-0.6-3.6-2-4.8c-1-0.9-2.4-1.4-3.8-1.4c-0.4,0-0.8,0-1.2,0.1l-9,1.9l0.1-1.4
			c0.1-1.8-0.7-3.7-2.1-4.9c-1-0.9-2.4-1.3-3.8-1.3c-0.5,0-1,0.1-1.4,0.2l-19.5,5c-2.4,0.6-4.2,2.8-4.4,5.3l-0.3,3.8l-1.7,0.3
			c-2,0.4-3.6,1.8-4.3,3.7c-1.3-0.6-2.7-1-4.1-1c-0.3,0-0.7,0-1.1,0c-1.7,0-3.8,0.3-6.6,0.9l-36.3,7.7c-2.3,0.5-4,2.3-4.5,4.5
			l-0.7,3.6c-0.3-0.4-0.8-0.9-1.2-1.3c-2.1-1.8-4.5-2.8-7.2-3c-0.3,0-0.7,0-1,0c-1.9,0-4.4,0.3-7.7,1l-24.3,5.1
			c-4.9,0.9-9,2.7-12.1,5.5l0.1-1.3c0.3-2.4,0.8-4.4,1.7-5.6c1.4-1.9,1.5-4.6,0.2-6.5c-1-1.7-2.9-2.6-4.9-2.6c-0.4,0-0.8,0-1.2,0.1
			l-27.6,5.8c-1.9,0.4-3.6,1.7-4.3,3.7l-6.3,16.7l-3.5-11.9c-0.7-2.4-3.1-4.2-5.6-4.2c-0.4,0-0.8,0.1-1.2,0.1l-27.6,5.8
			c-2,0.4-3.6,1.8-4.3,3.8c-0.7,1.9-0.3,4,1,5.6c0,0,0.5,0.8,0.4,3.5l-2.4,37.9c-0.2,1.8-0.5,3.4-1.1,4.6c0.3-2,0.5-4.2,0.6-6.5
			l0.6-13.3c0.3-11.3-2.8-19.4-9.2-24.1c-3.5-2.7-7.7-4.2-12.4-4.4c-0.4,0-0.9,0-1.3,0c-3.9,0-9.2,0.7-16,2.2L96,338.2
			c-2,0.4-3.6,1.8-4.3,3.7c-0.7,1.9-0.3,4,0.9,5.6c2.1,2.8,3.2,7.9,3.1,14.7l-4.5,93c-0.6,7.5-2.4,13.5-5.2,18
			c-1.3,2-1.3,4.5,0.1,6.5c1,1.6,2.9,2.5,4.8,2.5c0.4,0,0.8,0,1.2-0.1l101.2-21.2c7.6-1.6,13.3-3.3,17.4-5.1c4.4-2,8.2-4.8,11.4-8.4
			c6.2-6.7,9.7-15.5,10.5-26.3l0.9-18.2c0.4-10.4-2.4-17.6-8.3-21.5c-0.1-0.1-0.3-0.2-0.3-0.3c0.1-0.1,0.2-0.1,0.3-0.2
			c3.8-2.9,6.5-6.3,8-10c0.2-0.4,0.3-1,0.6-1.5c0.2,0.5,0.4,1,0.7,1.6c1,1.7,2.9,2.6,4.9,2.6c0.4,0,0.8,0,1.2-0.2l13.3-2.9
			c2-0.4,3.7-1.9,4.3-3.8s0.3-4.1-1-5.6c0,0-0.5-0.8-0.4-3.3l1.8,6.3c0.7,2.4,3.1,4.2,5.6,4.2c0.4,0,0.8,0,1.2-0.1l14.5-3.1
			c1.9-0.4,3.6-1.7,4.3-3.7l0.9-2.4c0.2,0.3,0.3,0.7,0.5,1c1,1.7,2.9,2.6,4.9,2.6c0.4,0,0.8-0.1,1.2-0.1l24.9-5.3
			c2-0.4,3.7-1.9,4.3-3.8c0-0.1,0.1-0.2,0.1-0.3c1,0.4,1.9,0.8,3,1c-0.8,0.9-1.3,2.1-1.5,3.4l-0.7,8.5c-0.9,0.6-1.6,1.4-2.1,2.4
			c-0.1,0.2-0.2,0.4-0.3,0.6c-0.1-0.1-0.3-0.3-0.3-0.3c-1-0.9-2.4-1.4-3.8-1.4c-0.4,0-0.8,0-1.2,0.1l-29.7,6.3
			c-1.7,0.3-3.3,1.6-4.1,3.2c-0.8,1.7-0.7,3.6,0.1,5.2c0.5,1,0.9,2,1,3c0.1,0.8,0.2,3-0.1,8.5l-1.3,23c-0.1,1.4-0.3,2.2-0.3,2.6
			c-0.3,0.2-1,0.3-2.1,0.6l-5.2,1c0-0.1,0-0.1,0-0.2s0-0.1,2-37.5c0.1-1.8-0.7-3.6-2-4.7c-1-0.9-2.4-1.4-3.8-1.4
			c-0.4,0-0.8,0-1.2,0.1l-29.7,6.2c-1.7,0.3-3.3,1.6-4.1,3.2c-0.8,1.7-0.7,3.6,0.1,5.2c0.5,1,0.9,2,1,3c0.2,1.2,0.2,1.2-0.1,5
			l-1.2,24.4c-0.3,5.7-0.2,9.5,0.4,12c0.7,3.3,2.4,6,5,8.3c2.4,1.9,5.1,3.1,8.4,3.4c0.6,0.1,1.2,0.1,1.9,0.1c2.3,0,5.1-0.3,8.3-1
			l21.2-4.4c3.3-0.7,5.9-1.6,7.9-2.7c0.7,0.3,1.5,0.4,2.3,0.4c0.4,0,0.8,0,1.2-0.1l26-5.4c1.4-0.3,2.6-1.1,3.5-2.3
			c0.8,0.4,1.7,0.7,2.7,0.7c0.4,0,0.8,0,1.2-0.1l32-6.7c1-0.2,2-0.7,2.7-1.4c0.7,0.3,1.4,0.4,2.2,0.4c0.3,0,0.8,0,1.2-0.1l32-6.7
			c1.7-0.3,3.3-1.6,4.1-3.2s0.7-3.6-0.2-5.2c-0.5-1-0.9-1.9-1-3c0-0.1,0-0.2,0-0.3c1.4,2.4,3.2,4.4,5.7,5.8c2,1.2,4.4,1.8,7.6,1.8
			c2.2,0,4.6-0.3,7.5-0.9l18.3-3.8c3.6-0.8,6.4-1.7,8.5-2.9c0.8,0.3,1.6,0.5,2.4,0.5c0.4,0,0.8,0,1.2-0.1l24.4-5.1
			c1.7-0.3,3.3-1.6,4.1-3.2c0.8-1.7,0.7-3.6-0.2-5.2c-0.4-0.9-0.8-1.7-0.9-2.6v-0.1c0.9,1.4,2,2.6,3.2,3.6c2.4,1.9,5.4,3.1,8.6,3.2
			c0.3,0,0.7,0,1.1,0c2.4,0,5.6-0.4,9.6-1.2l47.4-9.9c2.2-0.4,3.9-2.2,4.4-4.3c1.1,1.3,2.7,2.1,4.4,2.1c0.4,0,0.8,0,1.2-0.1
			l30.1-6.3c1.7-0.3,3.3-1.6,4.1-3.2c0.8-1.7,0.7-3.6-0.2-5.2c-0.4-0.9-0.8-1.7-0.9-2.6c-0.1-0.7-0.2-2.7,0.1-7.9l0.9-18.3
			c0.1-1.3,0.4-2.3,1.1-3.1c0.8-0.9,1.8-1.4,3.4-1.7l5.3-1.1c2.4-0.5,3.8-0.6,4.5-0.6c0.2,0,0.3,0,0.3,0c0.3,0,0.6,0.1,0.9,0.3
			c1,0.9,2.4,1.3,3.8,1.3c0.8,0,1.6-0.2,2.4-0.5c2-0.9,3.3-2.8,3.5-5.1l0.9-18.5C615.1,309.9,614.4,308.2,613.1,306.9z M233.7,343.2
			l-0.6,13.3c-0.3,5.7-1,10-2.4,13.3c-1.4,3.4-3.8,6.5-7.3,9.1c-1,0.8-2.4,1.7-3.8,2.4c1.5,0.4,2.8,1,4,1.9
			c5.1,3.3,7.6,9.9,7.2,19.4l-0.9,18.2c-0.7,10.2-4,18.5-9.8,24.8c-3.1,3.3-6.6,5.9-10.6,7.9c-3.9,1.8-9.4,3.5-16.8,5L91.5,479.6
			c-0.3,0.1-0.4,0.1-0.7,0.1c-1.1,0-2.2-0.5-2.8-1.5c-0.8-1.1-0.8-2.6,0-3.8c3.1-4.7,5-11.2,5.6-19.1l4.5-93.1
			c0.2-7.5-1-13-3.6-16.2c-0.7-1-0.9-2.2-0.5-3.3c0.4-1.1,1.4-1.9,2.5-2.2l101.3-21.2c6.7-1.4,11.8-2.1,15.5-2.1c0.4,0,0.8,0,1.2,0
			c4.2,0.2,7.9,1.5,11.1,3.8C231.3,325.3,234.1,332.8,233.7,343.2z M320.2,349.9c-1.6-1.2-2.8-2.9-3.5-5c0,2.8,0.7,3.8,1,4.2
			c0.8,1,1,2.2,0.6,3.3c-0.3,1.1-1.3,2-2.5,2.3l-24.9,5.3c-0.3,0.1-0.4,0.1-0.7,0.1c-1.1,0-2.3-0.6-2.9-1.6
			c-0.8-1.2-0.7-2.7,0.1-3.8c1.1-1.6,1.8-3.8,2.1-6.8l0.6-10.1l-8.5,22.6c-0.4,1.1-1.3,1.9-2.5,2.2l-14.5,3.1
			c-0.3,0.1-0.4,0.1-0.7,0.1c-1.5,0-2.9-1-3.3-2.4l-5.7-19.5l-0.9,13.6c-0.1,3.5,0.6,4.7,1,5.1c0.8,1,1,2.2,0.6,3.3
			c-0.3,1.1-1.3,2-2.5,2.3l-13.3,2.9c-0.3,0.1-0.4,0.1-0.7,0.1c-1.1,0-2.2-0.5-2.9-1.6c-0.8-1.1-0.8-2.7,0-3.8
			c1.1-1.7,1.9-3.9,2.2-6.8l2.4-37.9c0.1-3.2-0.6-4.6-1-5.1c-0.8-1-1-2.2-0.6-3.3c0.4-1.1,1.3-1.9,2.5-2.2l27.6-5.8
			c0.3-0.1,0.4-0.1,0.7-0.1c1.5,0,2.9,1,3.3,2.4l5.5,18.8l8.8-23.5c0.4-1.1,1.3-1.9,2.5-2.2l27.6-5.8c0.3-0.1,0.4-0.1,0.7-0.1
			c1.1,0,2.3,0.6,2.9,1.6c0.8,1.2,0.7,2.7-0.1,3.8c-1.1,1.6-1.8,3.8-2.1,6.8l-0.6,9.4c2.6-5.9,7.9-9.7,15.4-11.1l24.3-5.1
			c3.1-0.7,5.4-1,7.2-1c0.3,0,0.6,0,0.9,0c2.2,0.2,4.2,1,5.8,2.4c1.6,1.4,2.6,3.2,3.1,5.3c0.4,1.8,0.6,4,0.4,6.9
			c0.4-0.8,1-1.5,1.7-2.1c0.2-0.2,0.3-0.3,0.4-0.4c-0.1,0-0.1-0.1-0.2-0.1c-1.2-0.8-1.8-2.2-1.6-3.6l1.9-9.8
			c0.3-1.3,1.3-2.4,2.6-2.7l36.3-7.7c2.6-0.5,4.5-0.8,6.1-0.8c0.3,0,0.6,0,0.9,0c1.9,0.2,3.8,0.9,5.5,2.2c0.3,0.2,0.4,0.3,0.7,0.6
			l0.2-2.3c0.1-1.6,1.2-2.8,2.7-3.1l3.5-0.7l0.3-5.6c0.1-1.5,1.1-2.7,2.5-3.1l19.5-5c0.3-0.1,0.5-0.1,0.9-0.1c0.8,0,1.6,0.3,2.2,0.8
			c0.9,0.7,1.3,1.7,1.2,2.9l-0.3,4.5l12-2.5c0.3-0.1,0.4-0.1,0.7-0.1c0.8,0,1.6,0.3,2.3,0.9c0.8,0.7,1.2,1.7,1.2,2.8l-0.4,7.6
			c-0.1,1.6-1.2,2.8-2.7,3.1l-14,3l-1,16c-0.1,0.8-0.1,1.3-0.1,1.7c0.3-0.1,0.8-0.1,1.3-0.3l5.3-1.1c2.8-0.6,5-1.6,6.4-3
			c0.6-0.6,1.5-1,2.4-1c0.6,0,1.1,0.2,1.7,0.4c1.3,0.7,2,2.3,1.7,3.7l-2.1,10c-0.3,1.3-1.3,2.4-2.6,2.6l-20.6,4.4
			c-4,0.9-6.9,1.2-8.9,1.2c-0.2,0-0.3,0-0.4,0c-2.4-0.1-4.6-0.9-6.5-2.4c-1.9-1.6-3.1-3.5-3.5-5.8c-0.3-1.8-0.3-4.7-0.1-9.2
			l0.7-11.9l-1.7,0.3c0,0.4,0,0.9-0.1,1.3l-1.1,18.5c-0.3,3.8-0.2,5.1-0.1,5.7c0.1,0.7,0.3,1.4,0.7,2.1c0.5,1,0.6,2.1,0.1,3.1
			c-0.4,1-1.3,1.7-2.4,1.9l-19.4,4.1c-0.3,0.1-0.4,0.1-0.7,0.1c-0.7,0-1.4-0.2-1.9-0.6c-1.6,1-3.4,1.8-5.8,2.3l-14.6,3.1
			c-2.5,0.5-4.4,0.8-6,0.8c-0.2,0-0.3,0-0.4,0c-1.8-0.1-3.6-0.6-5.1-1.5c-1.7-1.1-3-2.7-3.7-4.8c-0.1-0.2-0.1-0.3-0.2-0.4l-1.6,7.5
			c-0.3,1.3-1.3,2.4-2.6,2.6l-35.4,7.5c-3.1,0.6-5.4,1-7.2,1c-0.2,0-0.3,0-0.5,0C323.8,351.9,321.8,351.3,320.2,349.9z M438.7,336.3
			c0.4,0.9,0.8,1.7,0.9,2.7c0.1,0.4,0.1,1.3,0.1,3.1c-0.2,0-0.3,0-0.5,0c-1.1,0-2.4,0.2-3.8,0.4l-21.1,4.4c-5.6,1.1-10.2,4-13.7,8.3
			c-1,1.2-1.7,2.4-2.4,3.8l0.7-14.5c0.1-1.7-0.6-3.4-1.9-4.5l7-1.5c2.1-0.4,3.8-1,5.4-1.9c0.6,0.2,1.1,0.3,1.7,0.3
			c0.4,0,0.8,0,1.2-0.1l19.4-4.1c1.8-0.3,3.3-1.6,4.1-3.3c0.6-1.3,0.7-2.9,0.3-4.3c0.3,0.3,0.7,0.7,1.1,1c1.3,1,2.7,1.7,4.2,2.3
			c-1.1,0.6-2.1,1.6-2.6,2.7C437.7,332.8,437.8,334.7,438.7,336.3z M377.8,341.6l-3.8,0.8c0.2-0.3,0.3-0.7,0.3-1l0.3-1.7
			c0.4,0.3,0.9,0.7,1.3,1C376.6,341,377.2,341.3,377.8,341.6z M317.5,430.5c-0.4,1-1.3,1.7-2.4,1.9l-26,5.4
			c-0.3,0.1-0.4,0.1-0.7,0.1c-0.7,0-1.4-0.2-1.9-0.6c-0.2-0.1-0.3-0.2-0.4-0.3L286,437c-1.8,1.3-4.5,2.4-8.2,3.1l-21.2,4.4
			c-3.1,0.6-5.7,1-7.9,1c-0.6,0-1.1,0-1.7-0.1c-2.7-0.3-5.1-1.2-7.1-2.9c-2.2-1.8-3.6-4.2-4.2-6.9c-0.5-2.4-0.6-6.1-0.3-11.4
			l1.2-24.4c0.2-4,0.2-4,0-5.4c-0.2-1.3-0.5-2.5-1.2-3.8c-0.5-1-0.5-2.1-0.1-3.1c0.4-1,1.3-1.7,2.4-1.9l29.7-6.3
			c0.3-0.1,0.4-0.1,0.7-0.1c0.8,0,1.6,0.3,2.3,0.8c0.8,0.7,1.2,1.7,1.2,2.8l-2,37.4c-0.2,2,0.1,2.9,0.2,3.2h0.1c0.2,0,0.5,0,1-0.2
			c0.1,0,0.1,0,0.2,0l6.6-1.4c2.9-0.6,3.5-1.3,3.6-1.4c0,0,0.7-0.9,0.9-4.1l1.3-23c0.3-5.4,0.2-7.8,0.1-8.9
			c-0.2-1.3-0.5-2.5-1.2-3.8c-0.5-1-0.5-2.1-0.1-3.1c0.4-1,1.3-1.7,2.4-1.9l29.7-6.3c0.3-0.1,0.4-0.1,0.7-0.1c0.8,0,1.6,0.3,2.3,0.8
			c0.8,0.7,1.2,1.7,1.2,2.8l-2.2,41.5c-0.3,5.4-0.2,7.8-0.1,8.9c0.2,1.3,0.5,2.5,1.2,3.8C317.9,428.4,318,429.5,317.5,430.5z
			 M393.9,398.4c-0.3,5.4-0.2,7.9-0.1,8.9c0.2,1.3,0.5,2.5,1.2,3.8c0.5,1,0.5,2.1,0.1,3.1c-0.4,1-1.3,1.7-2.4,1.9l-32,6.7
			c-0.3,0.1-0.4,0.1-0.7,0.1c-1,0-2.1-0.5-2.7-1.3l-0.1-0.1c-0.1,0.2-0.1,0.3-0.2,0.6c-0.4,1-1.3,1.7-2.4,1.9l-32,6.7
			c-0.3,0.1-0.4,0.1-0.7,0.1c-1,0-2.1-0.5-2.7-1.3c-0.8-1-1-2.4-0.3-3.7c0.9-1.7,1.5-3.4,1.8-5c0.3-2.6,2.4-41.5,2.4-44.7
			c-0.2-1.3-0.5-2.5-1.2-3.8c-0.5-1-0.5-2.1-0.1-3.1c0.4-1,1.3-1.7,2.4-1.9c-0.1-0.3-0.2-0.8-0.1-1.1l0.7-8.6
			c0.1-1.5,1.2-2.7,2.7-3.1l27.5-5.8c0.3-0.1,0.4-0.1,0.7-0.1c0.9,0,1.7,0.3,2.3,0.9c0.8,0.7,1.2,1.7,1.1,2.9l-0.7,8.6
			c-0.1,0.7-0.3,1.3-0.7,1.8c0.3,0.5,0.4,1.2,0.4,1.8l-2.2,41.5c-0.3,5.4-0.2,7.9-0.1,8.9c0.1,1.1,0.4,2.3,1,3.4
			c0.1-0.3,0.2-0.4,0.3-0.6c0.9-1.7,1.5-3.4,1.8-5c0.3-1.1,0.5-3.7,0.8-9.1l1.7-39c0.3-5.4,0.2-7.9,0.1-8.9
			c-0.2-1.3-0.5-2.6-1.2-3.8c-0.5-1-0.5-2.1-0.1-3.1c0.4-1,1.3-1.7,2.4-1.9l29.7-6.3c0.3-0.1,0.4-0.1,0.7-0.1c0.8,0,1.6,0.3,2.2,0.8
			c0.8,0.7,1.2,1.7,1.2,2.8L393.9,398.4z M473.6,397.7c-0.4,1-1.3,1.7-2.4,1.9l-24.4,5.1c-0.3,0.1-0.4,0.1-0.7,0.1
			c-0.7,0-1.3-0.2-1.9-0.6c-0.2-0.1-0.3-0.3-0.5-0.4c-0.3,0.2-0.4,0.3-0.7,0.5c-1.8,1.2-4.5,2.2-8.2,3l-18.3,3.8
			c-2.8,0.5-5.1,0.9-7.1,0.9c-2.6,0-4.7-0.5-6.3-1.5c-2.5-1.5-4.4-3.6-5.5-6.4c-1-2.5-1.5-5.7-1.3-9.2l1.1-24.2
			c0.3-5.5,1.9-10.2,5-14c3.1-3.9,7.2-6.4,12.3-7.4l21.1-4.4c1.1-0.3,2.3-0.3,3.2-0.3c1,0,2,0.1,2.9,0.3c0.2-3.6,0.1-5.3,0-6.1
			c-0.2-1.2-0.5-2.4-1.1-3.5c-0.5-1-0.5-2.1-0.1-3.1c0.4-1,1.3-1.7,2.4-1.9l27.9-5.8c0.3-0.1,0.4-0.1,0.7-0.1c0.8,0,1.6,0.3,2.2,0.8
			c0.8,0.7,1.2,1.7,1.2,2.8l-2.7,55c-0.3,5.1-0.2,7.3-0.1,8.3c0.2,1.2,0.5,2.4,1.1,3.5C473.9,395.6,474,396.8,473.6,397.7z
			 M506.9,369.5l-0.1,2c-0.1,1.4,0,2.2,0.1,2.6c0.1,0,0.1,0,0.2,0c0.5,0,1.6-0.1,3.3-0.4l23.6-5c4.6-1,8-2.4,9.9-4.2
			c0.6-0.5,1.4-0.9,2.3-0.9c0.6,0,1.1,0.2,1.7,0.4c1.3,0.7,1.9,2.2,1.7,3.6l-2.5,13.6c-0.3,1.4-1.3,2.4-2.7,2.7l-47.4,10.1
			c-3.8,0.8-6.9,1.2-9.2,1.2c-0.3,0-0.7,0-1,0c-2.8-0.2-5.2-1-7.3-2.7c-3.9-3.1-5.8-8.6-5.5-16.8l0.9-18.3
			c0.5-14.7,8.2-23.7,22-26.1l32.6-6.8c3.9-0.8,6.9-1.2,9.2-1.2c0.5,0,1,0,1.3,0.1c2.7,0.3,5.1,1.3,7.2,3.2c1.9,1.8,3.2,4.1,3.8,6.8
			c0.6,2.4,0.8,5.6,0.6,9.6l-0.7,14.7c-0.1,1.6-1.2,2.9-2.7,3.1L506.9,369.5z M534.6,366.1c-0.3,0.1-0.8,0.2-1.1,0.3l-23.6,5
			c-0.3,0.1-0.4,0.1-0.6,0.1l0,0L534.6,366.1z M550.8,362.2l-0.1,1.3c-0.3-0.3-0.5-0.6-0.8-0.8C550.3,362.6,550.5,362.4,550.8,362.2
			z M611.7,330.1c-0.1,1.3-0.9,2.4-2,3c-0.4,0.2-0.9,0.3-1.4,0.3c-0.8,0-1.6-0.3-2.2-0.8c-0.6-0.5-1.3-0.8-2.2-0.9
			c-0.2,0-0.3,0-0.6,0c-1.2,0-2.9,0.3-5.1,0.7l-5.3,1.1c-2.1,0.4-3.6,1.2-4.7,2.4c-1,1.2-1.7,2.7-1.7,4.5l-0.9,18.3
			c-0.3,5.1-0.2,7.2-0.1,8.3c0.2,1.2,0.5,2.4,1.1,3.5c0.5,1,0.5,2.1,0.1,3.1c-0.4,1-1.3,1.7-2.4,1.9l-30.1,6.3
			c-0.3,0.1-0.4,0.1-0.7,0.1c-1,0-2.1-0.5-2.7-1.3c-0.8-1-1-2.4-0.3-3.7c0.9-1.7,1.4-3.1,1.7-4.6c0.3-1.6,0.5-4.4,0.8-8.5l1.4-27.8
			c0.3-5.1,0.2-7.3,0.1-8.3c-0.2-1.2-0.5-2.4-1.1-3.6c-0.5-1-0.5-2.1-0.1-3.1c0.4-1,1.3-1.7,2.4-1.9l25.6-5.3
			c0.3-0.1,0.4-0.1,0.7-0.1c0.8,0,1.5,0.3,2.1,0.7c0.3,0.3,0.5,0.5,0.8,0.9c0.2-0.2,0.4-0.3,0.6-0.4c2.6-1.8,6-3.2,10-4l13-2.7
			c0.3-0.1,0.4-0.1,0.7-0.1c0.8,0,1.6,0.3,2.2,0.8c0.8,0.7,1.2,1.7,1.2,2.8L611.7,330.1z"/>
		<path class="st1" d="M178.7,352c-0.6,0-1.3,0.1-2.1,0.3l-24.5,5.1l-1.2,25.2l21.5-4.5c3-0.6,5-1.6,5.8-2.8
			c0.5-0.8,1.6-3.1,1.8-8.8l0.3-5.3c0.3-7.2-0.5-8.7-0.6-8.9C179.8,352.2,179.6,352,178.7,352z M178.1,361l-0.3,5.3
			c-0.3,5.8-1.3,7.4-1.4,7.6c-0.3,0.5-1.7,1.3-4.4,1.8l-18.5,3.8l1-20.2l22.7-4.8c0.3-0.1,0.5-0.1,0.8-0.2
			C178.1,355.6,178.2,357.6,178.1,361z"/>
		<path class="st1" d="M518.8,344.2l-8.5,1.7c-1.1,0.3-1.7,0.3-1.9,0.4c0,0.1-0.4,1-0.6,3.8l-0.1,1.5l11.3-2.4l0.2-3.4
			c0-0.8,0-1.4,0-1.8C519,344.2,518.9,344.2,518.8,344.2z"/>
	</g>
	<path class="st2" d="M369.9,303.5c-1.1-1-2.4-1.5-3.8-1.6c-1.5-0.1-3.8,0.2-7.1,0.9l-24.5,5.2c-9.2,1.7-14,7.1-14.5,16.4l-0.8,12.9
		c-0.2,5,0.8,8.2,3.1,9.9c1.1,0.9,2.4,1.3,4,1.3c1.6,0.1,3.8-0.3,6.9-0.9l35.4-7.5l2-9.7c-1.8,1.5-4.7,2.7-8.6,3.7l-17.6,3.8
		c-2.4,0.5-4.1,0.5-4.8,0s-1-1.8-0.9-4l0.2-3.3l32.9-7l0.6-10.5c0.2-2.6,0.1-4.6-0.3-6.1C371.6,305.6,370.9,304.4,369.9,303.5z
		 M353.1,315.8l-0.3,4.3l-13.6,2.9l0.3-4.3c0.2-2,0.5-3.4,1-4c0.3-0.3,0.6-0.6,0.9-0.7c0.3-0.1,1-0.3,2.1-0.5l6.3-1.3
		c1.5-0.3,2.5-0.3,2.9,0.2C353.1,312.8,353.3,313.9,353.1,315.8z M278.3,336.3l-8.4-28.6l-27.6,5.8c1.3,1.6,1.8,4.1,1.7,7.5l-2.4,38
		c-0.3,3.5-1.2,6.3-2.7,8.5l13.3-2.9c-1.3-1.5-1.8-4-1.7-7.5l2-33.1l11.2,38.1l14.5-3.1l16.5-44l-2,33.1c-0.3,3.6-1.2,6.4-2.7,8.5
		l24.9-5.3c-1.3-1.5-1.8-4-1.7-7.5l2.4-38c0.3-3.6,1.2-6.4,2.7-8.5l-27.6,5.8L278.3,336.3z M468.3,311.5l-5.3,1.1
		c-2.4,0.5-3.9,0.5-4.6-0.1c-0.4-0.3-0.6-0.8-0.7-1.5c-0.1-0.6-0.1-1.8,0-3.6l1.1-18.6l16.5-3.5l0.4-7.6l-16.5,3.5l0.5-9.1l-19.5,5
		l-0.5,8.2l-5.9,1.4l-0.4,7.6l6-1.3l-1,16.4c-0.3,4.1-0.3,6.9,0.1,8.4c0.3,1.5,1,2.7,2.3,3.8c1.2,1,2.7,1.6,4.4,1.6
		c1.7,0.1,4.5-0.3,8.5-1.2l20.6-4.4l2.1-10C474.4,309.4,471.7,310.7,468.3,311.5z M427.4,291c-1.2-0.9-2.4-1.4-3.7-1.5
		c-1.3-0.1-3.3,0.2-6,0.7l-36.3,7.7l-1.9,9.8c2.4-1.8,5.2-3.1,8.5-3.7l18.9-4c1.7-0.3,2.8-0.4,3.3-0.2c0.6,0.3,0.9,0.9,0.8,1.8
		c-0.1,1.4-0.6,2.4-1.6,2.9c-0.5,0.3-1.6,0.6-3.3,1l-18.5,3.9c-3.3,0.7-5.8,2-7.7,3.9c-1.8,1.9-2.9,4.4-3.1,7.4l-0.4,6.7
		c-0.1,2.1,0,3.8,0.4,5.1c0.4,1.3,1.1,2.3,2.2,3c1,0.6,2.1,1,3.4,1c1.3,0.1,3.1-0.2,5.6-0.7l14.6-3.1c2-0.4,3.7-1.1,4.9-2
		c1.2-1,2.1-2.2,2.5-3.7c0.1,1.7,0.4,3.1,1,4l19.4-4.1c-0.6-1.1-1-2.2-1.1-3.4c-0.1-1.1-0.1-3.2,0.1-6.3l1.1-18.5
		C430.7,295.4,429.7,292.8,427.4,291z M410,318.9c-0.1,1.9-0.5,3.3-1.2,4.2c-0.7,0.9-1.9,1.5-3.7,1.8l-4.8,1
		c-1.7,0.3-2.9,0.3-3.5-0.3c-0.6-0.6-0.9-1.8-0.8-3.8l0.1-1.7c0.1-1.9,0.5-3.3,1.2-4.2c0.7-0.9,1.9-1.5,3.7-1.8l9.4-2L410,318.9z"/>
	<path class="st1" d="M223.4,323.9c-2.5-1.9-5.6-3.1-9.2-3.1c-3.5-0.2-8.8,0.5-15.9,2L97.2,343.8c3.1,3.9,4.4,10,4.3,18.5L97,455.5
		c-0.7,8.5-2.7,15.4-6.2,20.7L191.9,455c7.1-1.5,12.5-3.1,16-4.8c3.7-1.7,6.8-4,9.6-7.1c5.3-5.8,8.3-13.3,8.9-22.6l0.9-18.2
		c0.3-8.3-1.6-13.7-5.7-16.4c-2.2-1.5-5-2.2-8.3-2.3c-3.3,0-8.3,0.6-14.7,2c10.6-3.1,18.1-6.4,22.6-9.6c3-2.3,5.1-4.9,6.2-7.7
		c1.2-2.9,1.9-6.9,2.2-12.1l0.6-13.2C230.6,333.8,228.3,327.4,223.4,323.9z M181.1,416.8l-0.3,6.2c-0.2,3.4-0.3,5.7-0.6,6.8
		c-0.3,1.1-0.7,2.2-1.4,3.1c-2,2.5-5.7,4.4-11,5.5l-23.4,4.9l1.7-34.6l24.6-5.1c3.4-0.7,5.7-1,6.7-1s1.9,0.5,2.5,1.4
		c0.7,1,1,2.2,1.1,3.7C181.5,409.1,181.4,412.1,181.1,416.8z M183.8,361.3l-0.3,5.3c-0.3,5.1-1,8.6-2.4,10.6c-1.4,2-4,3.4-7.9,4.2
		l-25.9,5.4l1.6-32.3l27.1-5.7c3.4-0.7,5.7-0.3,6.7,1.4C183.7,352,184.1,355.7,183.8,361.3z M315,373l-29.7,6.3
		c0.9,1.7,1.4,3.3,1.6,5.1c0.2,1.7,0.2,4.9-0.1,9.4l-1.3,23c-0.2,3-0.7,5-1.6,6.1c-0.9,1.1-2.7,2-5.5,2.5l-6.6,1.4
		c-4.2,1.1-6-1.1-5.6-6.6l2-37.3l-29.7,6.3c0.9,1.7,1.4,3.3,1.6,5.1c0.2,1.7,0.2,1.8-0.1,6.5l-1.1,24c-0.3,5.1-0.2,8.5,0.3,10.6
		c0.4,2,1.5,3.7,3.1,5.1c1.4,1.2,3.1,1.8,5.1,2.1c2,0.2,4.9-0.1,8.5-0.9l21.2-4.4c3.2-0.7,5.5-1.5,6.9-2.5c1.4-1,2.6-2.7,3.7-5.1
		l0.9,5.3l26-5.4c-0.9-1.7-1.4-3.3-1.6-5.1c-0.2-1.7-0.2-4.9,0.1-9.4L315,373z M596.2,314.1c-3.6,0.7-6.5,1.8-8.7,3.4
		c-1.3,1-2.4,2.1-3.1,3.3c-0.7,1.2-1.5,3-2.2,5.3l-0.3-9.1l-25.6,5.3c0.8,1.6,1.3,3.1,1.5,4.8c0.2,1.7,0.2,4.6,0,8.8l-1.4,27.8
		c-0.2,4.3-0.5,7.2-0.8,9c-0.3,1.7-1,3.6-2,5.5l30.1-6.3c-0.8-1.6-1.3-3.1-1.5-4.8c-0.2-1.7-0.2-4.5,0-8.8l0.9-18.3
		c0.1-2.7,1-4.9,2.6-6.6c1.6-1.7,3.8-3,6.5-3.6l5.3-1.1c3-0.6,5.1-0.9,6.6-0.7c1.5,0.2,2.9,0.7,4,1.7l0.9-18.5L596.2,314.1z
		 M392.9,344.3l-29.7,6.3c0.9,1.7,1.4,3.3,1.6,5.1s0.2,4.9-0.1,9.4l-1.7,39c-0.3,4.5-0.5,7.8-0.9,9.6c-0.3,1.8-1,3.8-2.1,5.8l32-6.7
		c-0.9-1.7-1.4-3.3-1.6-5.1s-0.2-4.9,0.1-9.4L392.9,344.3z M471.7,327.8l-27.9,5.8c0.8,1.6,1.3,3.1,1.5,4.7c0.2,1.7,0.2,4.5,0,8.8
		l-0.3,4.4c-1.4-3.1-4.3-4.2-8.5-3.3l-21.1,4.4c-4.3,0.9-7.7,3-10.3,6.3c-2.6,3.2-4,7.3-4.3,12l-1.1,24.2c-0.2,3.1,0.2,5.7,1,7.8
		c0.9,2.1,2.3,3.7,4.1,4.7c1.9,1.2,5.6,1.3,10.9,0.3L434,404c3.2-0.7,5.6-1.5,7.1-2.4c1.5-1,2.8-2.6,4.1-4.9l0.9,4.8l24.4-5.1
		c-0.8-1.6-1.3-3.1-1.5-4.7c-0.2-1.7-0.2-4.5,0.1-8.8L471.7,327.8z M444.5,363.6l-1,20.7c-0.2,2.9-0.6,4.9-1.5,6.1
		c-0.9,1.2-2.4,2-4.6,2.4l-5.8,1.2c-2.3,0.4-3.9,0.3-4.8-0.3c-0.9-0.7-1.3-2.2-1.2-4.3l1.1-22.3c0.1-2.2,0.6-3.9,1.6-5.1
		c1-1.2,2.4-2,4.2-2.4l7.1-1.5c1.2-0.3,2.1-0.3,2.7-0.3c0.6,0.1,1.1,0.3,1.6,0.9s0.7,1,0.8,1.5C444.5,360.6,444.5,361.7,444.5,363.6
		z M354.4,364.5l-29.7,6.3c0.9,1.7,1.4,3.3,1.6,5.1s-2,43.8-2.4,45.6c-0.3,1.8-1,3.8-2.1,5.8l32-6.7c-0.9-1.7-1.4-3.3-1.6-5.1
		c-0.2-1.7-0.2-4.9,0.1-9.4L354.4,364.5z M544.8,329c-1.5-1.4-3.2-2.2-5.2-2.4c-2-0.2-5.1,0.2-9.5,1.1l-32.7,6.9
		c-12.3,2.1-18.7,9.8-19.2,22.9l-0.9,18.2c-0.2,7,1.2,11.6,4.2,14c1.5,1.2,3.3,1.8,5.4,2c2.1,0.1,5.1-0.3,9.2-1.1l47.4-9.9l2.5-13.6
		c-2.4,2.1-6.2,3.8-11.5,5l-23.6,5c-3.3,0.7-5.4,0.7-6.5-0.1c-1-0.7-1.4-2.6-1.2-5.7l0.3-4.6l43.9-9.2l0.7-14.7
		c0.2-3.7,0-6.5-0.5-8.6C547.2,332.1,546.2,330.3,544.8,329z M522.6,346.1l-0.3,6.1l-18.1,3.8l0.3-5.9c0.2-2.9,0.6-4.8,1.3-5.7
		c0.3-0.5,0.8-0.8,1.1-1c0.4-0.2,1.3-0.4,2.8-0.7l8.5-1.7c2-0.4,3.3-0.3,3.8,0.3C522.5,341.8,522.7,343.4,522.6,346.1z M327.2,366.6
		l27.5-5.8l0.7-8.6l-27.5,5.8L327.2,366.6z"/>
</g>
</svg>
