<svg id="Layer_1" data-name="Layer 1" xmlns="http://www.w3.org/2000/svg" viewBox="0 0 300 300"><defs><style>.cls-1{fill:#f4aa1c;}.cls-2{fill:#b3ca35;}.cls-3{fill:#3b559e;}</style></defs><path class="cls-1" d="M71.58,184.35l17-8.61s18.11,29.81,40.19,18.77,15.46-28,15.46-28,5.74,4.64,6.19,8.84-3.32,24.95-31.58,27.38S71.58,184.35,71.58,184.35Z"/><path class="cls-2" d="M132.31,97.12S121,137.76,125,154.54s26.72,14.57,27.82-3.53S134.07,119,132.31,97.12Z"/><path class="cls-2" d="M161,151.23s-26.27-41.74,92.53-49.69c0,0-37.76,22.52-48.36,42.4S171.61,168.67,161,151.23Z"/><path class="cls-2" d="M157.26,173.31S148,178.17,159,185.23s17.44,11.05,54.32,5.08c0,0-9.27-4.19-15.9-11.26S171.84,169.56,157.26,173.31Z"/><path class="cls-3" d="M51.27,194.18V154.32H64.71l8.07,27.19,8-27.19H94.23v39.86H85.88V162.8l-8.83,31.38H68.41l-8.8-31.38v31.38Z"/><path class="cls-3" d="M121.74,185l8.5,1.28a12.73,12.73,0,0,1-5.18,6.38,16.48,16.48,0,0,1-8.84,2.19q-8.4,0-12.44-4.92a15.36,15.36,0,0,1-3.18-10q0-7.17,4.18-11.24a14.58,14.58,0,0,1,10.59-4.07q7.18,0,11.35,4.26t4,13H109.33a7.26,7.26,0,0,0,2.07,5.29,6.81,6.81,0,0,0,4.91,1.89,5.64,5.64,0,0,0,3.37-1A5.94,5.94,0,0,0,121.74,185Zm.49-7.72a6.9,6.9,0,0,0-1.91-5,6.18,6.18,0,0,0-4.43-1.73,6.29,6.29,0,0,0-4.62,1.82,6.61,6.61,0,0,0-1.78,5Z"/><path class="cls-3" d="M152.41,165.3v6.1h-5.82V183a24.72,24.72,0,0,0,.17,4.12,1.67,1.67,0,0,0,.75,1,2.66,2.66,0,0,0,1.44.38,12,12,0,0,0,3.43-.73l.73,5.93a18.7,18.7,0,0,1-6.73,1.14,11.6,11.6,0,0,1-4.16-.7,6,6,0,0,1-2.71-1.79,6.57,6.57,0,0,1-1.2-3A32,32,0,0,1,138,184V171.4h-3.91v-6.1H138v-5.73l8.56-4.46V165.3Z"/><path class="cls-3" d="M166.82,154.32V169a13.14,13.14,0,0,1,9.86-4.33,13.77,13.77,0,0,1,5.31,1,8.62,8.62,0,0,1,3.57,2.5,8.75,8.75,0,0,1,1.64,3.37,27.4,27.4,0,0,1,.44,5.74v16.94h-8.53V178.93a20.6,20.6,0,0,0-.48-5.77,3.93,3.93,0,0,0-1.72-1.94,6,6,0,0,0-3.08-.72,7.76,7.76,0,0,0-3.79.92,5.49,5.49,0,0,0-2.44,2.79,14.94,14.94,0,0,0-.78,5.51v14.46H158.3V154.32Z"/><path class="cls-3" d="M191.48,173.43V163.07H179.83v-7.15h11.65V145.56h7.76v10.36h11.68v7.15H199.24v10.36Z"/></svg>