<?xml version="1.0" encoding="utf-8"?>
<!-- Generator: Adobe Illustrator 26.0.0, SVG Export Plug-In . SVG Version: 6.00 Build 0)  -->
<svg version="1.1" id="Layer_1" xmlns="http://www.w3.org/2000/svg" xmlns:xlink="http://www.w3.org/1999/xlink" x="0px" y="0px"
	 viewBox="0 0 700 700" style="enable-background:new 0 0 700 700;" xml:space="preserve">
<style type="text/css">
	.st0{fill:#00833E;}
	.st1{fill:#76BC21;}
	.st2{fill:#FFFFFF;}
</style>
<g>
	<g>
		<g>
			<path class="st0" d="M82.4,398.3c4.4-12.9,12.1-25.8,22.6-38.6c-0.1-0.4-0.2-0.8-0.3-1.2c-12.3,14.2-21.3,28.7-26.3,43
				c-9.9,29-2.5,54,20.9,72.6c16.8,9.6,39,16.4,65.5,19.9C100.1,481.2,66,446.3,82.4,398.3z"/>
			<path class="st1" d="M539.5,181.2c-30.5,1.5-49.8,7-84.7,19.3c29.4-9.5,56.1-15,78.6-16.1c46.6-2.3,69.4,14.5,64.2,47.2
				c-0.7,4.1-1.8,8.4-3.3,12.8c1.3,1.1,2.5,2.2,3.7,3.3c2.8-6.8,4.7-13.2,5.7-19.3C608.8,195.6,586.1,178.8,539.5,181.2z"/>
			<g>
				<path class="st1" d="M141.1,282.3c4.8-2.5,3.9,1.1,4,2.1c0,1,0.1,18,13.5,19.4c6,0.6,10.8-1.3,12.5-2.8c0.2,0.3,0.5,0.6,1,1
					c4.3,3.2,17.4,3.2,19.1,1.5c1.7-1.6-2.9-2.3-2.9-2.3s6.7-1.6,7.4-5.7c-0.5-6.4-19.8,1.3-19.8,1.3s-0.8,0.2-1.8,0.6
					c2.1-3.3,3-7.1,2.2-10.8c-9.4-4.2-17.2-17-18.7-20.6c-5.4,0.3-20.3-10.7-22.5-13.1c-3.3-3.5-3.1-6.2-2.3-7.8
					c-1.1,0.2-2.6,0.8-4.7,2.4c-4,3-8.6,7.7-10,9.6c0,0-7.8,5.4-2.1,11.1C121.8,273.8,136.3,284.9,141.1,282.3z"/>
				<path class="st1" d="M215.5,237c-1,5.1,2.1,21.8,18.6,19.4c8.1-1.2,13.5-1.9,19.6-5.3c0.2,0.4,0.5,0.9,1.1,1.4
					c4.9,4.5,21.5,6,24,4.1c2.5-1.9-3.3-3.3-3.3-3.3s8.8-1.3,10.5-6.4c0.6-8.2-25.4-0.5-25.4-0.5s-0.5,0.1-1.3,0.2
					c3.1-3.3,2.1-6.5,2.1-12.3c-7.8-3.3-20.6-13.1-16.3-27.9c0,0-5.8-0.3-8.9-7.5c-0.2-1.5-1.8-1.8-3.6-0.8c-1.8,0.9-6,2.2-10.9,3.4
					c-4.9,1.3-15.8,4.6-14.9,11.2C207.8,219.2,216.5,231.9,215.5,237z"/>
				<path class="st1" d="M126.4,368.2c-0.8,0.4-5.1-1-6.4-1.9c-1.3-0.9-1.8,0.1-2.9,0.6c-1.1,0.5-6.4-1.3-7-0.4
					c-0.1,0.2-0.3,0.4-0.5,0.7c1.3,6.6,6.7,23.2,30.1,44c-1.3-3.9-11.8-28.9-11.6-35.5C128.1,372.5,127.5,370.1,126.4,368.2z"/>
				<path class="st1" d="M156.4,409.3c-3.8-19.2-15-28.4-21.1-32.1c-0.1,1-0.5,1.8-1.1,2.4c-1.1,1-2.8,1.1-4.6,0.3
					c1.5,6.9,6.1,18.7,8.9,25.9c10.4,14.9,15.3,12.6,15.3,12.6S158,418.4,156.4,409.3z"/>
				<path class="st1" d="M137.6,250.4c2.3,2.4,17.2,13.4,22.5,13.1c1.9,4.7,14,24.1,26.7,21.9c4.7-0.8,6.7-0.1,9.3-1.8
					c0.2,0.3,0.5,0.7,1,1.1c4.8,3.7,19.8,3.8,21.8,2c2-1.8-3.3-2.7-3.3-2.7s7.7-1.7,8.6-6.4c-0.4-7.3-22.5,1.3-22.5,1.3
					s-0.5,0.1-1.2,0.3c1-1.8,1.3-3.7,0.8-5.6c-0.6,0-1.1,0-1.7,0c-13.1-0.5-17.6-20.6-17.9-25.5c-5.3-0.8-15.4-14.7-17.4-17.3
					c-2-2.6,0.6-5.5,0.6-5.5c0.2-0.2,0.6-0.5,0.9-0.7c-1-0.3-3.7,1.9-5,3c-1.8,1.5-21.4,8.4-24.2,13
					C136.9,240.6,131.8,244.2,137.6,250.4z"/>
				<path class="st1" d="M167.8,229c2,2.6,12.1,16.5,17.4,17.3c0.2,4.9,4.8,24.9,17.9,25.5c11.1,0.4,21.3-0.4,25-4.7
					c5.9,3.4,18.6,4.5,20.8,3c2.4-1.7-3-3.1-3-3.1s8.4-1.1,10.1-5.9c0.7-7.7-24-0.9-24-0.9s-1.6,0.2-3.2,0.7
					c-0.5-1.3-1.2-2.1-1.8-2.6c-13.5-0.2-16.1-14.9-15.1-19.6c1-5.1-7.7-17.7-8.5-24.3c-0.2-1.6,0.3-3.1,1.3-4.3
					c-0.4-1.1-4.3,0.7-6.1,1.6c-2.2,1.1-25.6,8-29.9,11.9C168.4,223.4,165.9,226.4,167.8,229z"/>
				<path class="st1" d="M130.9,319.3c-5.1-1.2-4.2-5.3-8.3-5.9c-4.1-0.6-3.4,2.8-5,2.9c-5.1-0.3-15.2,1.5-16.5,2.5
					c-0.8,0.6-1.6,0.5-2.2-0.2c-0.4,1-0.6,2.2-0.3,3.8c0.9,5.1,3.5,34.8,7.2,41.4c0.9,1.4,2.8-0.7,3.7-1.8c0.9-1,6.9,1.4,8.4,0.8
					c1.5-0.6,2.2-1.8,3.6-0.6c1.4,1.2,6.5,3.1,7.5,2.5c0.9-0.5,1.9-2.1,3.9-3.1c2-1,2.9-1.5,3.6-2c0.7-0.5,5.8,0.8,5.8-0.4
					c0,0,5.2-12.3,7.1-16.4c1.5-3.3,0.8-13.9-0.7-18.7C144.6,324.2,134.9,320.2,130.9,319.3z"/>
				<path class="st1" d="M173,316.7c-0.3,1.3-1.2,2.3-2.4,3.1c1.1,1,2.4,1.8,2.3,2c-0.3,0.3,1.1,3.4,4.2,7.8
					c3.2,4.4,2.4,13.3,0.5,14.3c-1.9,1-2.7,0.6-3.4-0.5c-0.6-1.1-2-1.1-2-1.1c-0.9,0.5-0.4,7.2,7.5,3c9.2-4.9-0.5-21.4-4.5-25
					c6.8,2.6,9.8,5.8,11.6,13.7C189.7,323.3,178.5,318.4,173,316.7z"/>
				<path class="st1" d="M196.7,295.5c-0.3,1.5-1.4,2.6-2.6,3.5c1.3,1.1,2.8,2,2.6,2.2c-0.3,0.3,1.2,3.8,4.9,8.7
					c3.6,4.9,2.9,15,0.8,16.2c-2.1,1.1-3,0.7-3.8-0.5c-0.8-1.3-2.3-1.2-2.3-1.2c-1,0.6-0.3,8.2,8.6,3.3c10.3-5.6-0.9-24.1-5.5-28.2
					c7.8,2.8,11.2,6.5,13.3,15.4C215.6,302.8,202.9,297.4,196.7,295.5z"/>
				<path class="st1" d="M168.2,323.7c1.6-1.4-2.6-2.1-2.6-2.1s6-1.4,6.7-5c-0.4-5.7-17.5,1-17.5,1s0,0-0.1,0c1-0.7,1.9-1.2,2.4-1.6
					c1.2-1,4.4-6.3,3.8-9.9c-1.7,0.3-3.6,0.4-5.5,0.2c-13.5-1.3-13.5-18.4-13.6-19.4c0-1,1.2-4.2-3.5-1.7c-4.8,2.6-19.8-9-25.4-14.7
					c-0.9-0.9-1.5-1.9-1.8-2.8c-0.7,0.4-1.4,1-2.1,2.1c-2,3.5-12.4,22.3-10.1,37.4c0.5,2.4,1.4,4.2,2.9,3.4c1.6-0.8,12-1.9,17-0.9
					c1.6,0.2,1.6-3.3,5.6-2.2c3.9,1.1,2.2,5,7,6.8c4.8,1.9,18.1,9.9,18.5,6.1c0.1-0.5,0.7,1.4,0.9,1c0.1,0.2,0.3,0.3,0.5,0.5
					C155,325.1,166.6,325.2,168.2,323.7z"/>
				<path class="st1" d="M144.5,376.7c-1.1,1-2.5,1.5-4,1.4c-1.9-0.2-3.6-1.2-5.3-2.6c0.1,0.3,0.1,0.7,0.1,1
					c5.7,3.3,18,12.4,22,32.6c0.8,4.5,0.2,6.8-0.7,7.9c6.8,7.8,10,6.8,10,6.8s4.7,0.7,2.9-9.5c-4.3-22-17.2-34.2-23.8-39.1
					C145.3,375.8,144.9,376.3,144.5,376.7z"/>
				<path class="st1" d="M247.7,204.2c-3.6-3.8-0.1-7.4-2.6-9.5c-2.4-2.1-5.6,1.2-6.6,2.4C238.6,197.1,242.6,204.7,247.7,204.2z"/>
				<path class="st1" d="M301.2,239.1c-1.4,0.4-2.8,0.7-4,0.9c0.3,0.6,1.4,2.5,3.7,3.8c1.8,1,3.1,2.6,3.8,3.5c0.3,0,0.9,0.3,2.4,1
					c4.2,2.2,4.9,7.3,6,8c1.1,0.8,3-2.9,3.8-4.9c0.8-2-5.3-6.6-9.4-8.1C303.7,242.1,301.7,239.7,301.2,239.1z"/>
				<path class="st1" d="M400.1,215.8c1.3-0.1,18.8,2.3,17.5,0.5c-1.3-1.8-10.9-2.8-10.9-2.8s16.4-1.1,11.8-3
					c-4.6-1.9-14.5,0-14.5,0l-4.4,3.6C399.5,214.2,398.8,216,400.1,215.8z"/>
				<path class="st1" d="M268.3,182.9c-1.7,1.6-5,6.2-4.8,7.1c0.2,0.9-9.5,5.1-11,13.9c-1.5,8.8,2.1,14.9,2.1,14.9
					s5.5,17.2,33.6,18.1c28,0.9,96.3-23.8,107.9-20.8c-10.3-4.8-18.4-16.7,2.2-21.1c20.6-4.4-14.5-0.7-21.8,3
					c-7.3,3.7-8.9,7.8-13.6,8c3.2-2.3,3.4-2.1,7.4-6.1c4-4,13.2-8,23.2-7.7c-2-3.8-0.1-10.3,6.8-10.6c6.9-0.3,27.3,1.5,26.9-1
					c-0.4-2.4,7.8,1.9,6.7-0.5c12.4-0.3,13.6-0.3,13.6-0.3s-11.1-1.7-13-1.7c-1.9-0.1-1.4-1.2-8.7-1.4c-1.4-1.5-7.1-2.1-10.4-2
					c0.5-1.7-5.2-0.9-6.9-0.8c-0.9-1.7-4-1.4-5.9-1.1c0.3-1.5-6.2-1-8.1-0.8c-0.2-1.3-11.4-0.2-13.3,0.3c-1.9,0.5,1.7-1.4-0.2-1.7
					c-1.9-0.2-14.6,1.4-14.6,1.4s1.3-2.6-0.2-2.3c-1.4,0.3-22,3.8-23.7,3.7c-1.7-0.1,0.5-1.9-1.8-1.7c-2.4,0.1-60.8,3.6-71.5,8.3
					C269.2,179.9,270.1,181.3,268.3,182.9z"/>
				<path class="st1" d="M421.2,194.5c5.3,0.2,9.7-2.3,9.9-5.5c0.1-3.2-4.1-5.9-9.4-6.1c-5.3-0.2-9.7,2.3-9.8,5.5
					C411.7,191.6,415.9,194.4,421.2,194.5z"/>
				<path class="st1" d="M454.6,199.3c0,0-24.4,6.7-52.5,3.5c-3.9,2.1-3.6,2.4-2.7,3.4c0.9,1,3.9,2.8,3.7,3.3
					C402.8,210,442.9,205.1,454.6,199.3z"/>
				<path class="st1" d="M281,254.7c0,0.9,3.5-0.2,5.3-0.8c1.8-0.7,1.9-5.5,0.9-8c-1-2.5-0.1-4.8-0.1-4.8l-0.5-0.2
					c-0.8-0.3-1.6-0.6-2.3-0.9c-0.3,0.4-1,1.9-0.8,3.4c0.2,1.3-0.2,2.6-0.5,3.3c0.1,0.1,0.3,0.6,0.5,1.5
					C284.2,251.1,281,253.9,281,254.7z"/>
				<path class="st1" d="M392.8,198c0,0-4.5,2.1-4.1,6.6c0.5,4.5,9.5,8.6,9.5,8.6s6.1-2.8,1.1-4.7c-5-1.9-1.8-3.6-0.1-6.2
					C401,199.5,392.8,198,392.8,198z"/>
				<path class="st1" d="M440.4,193.7c-0.3,1.3-1.4-1.9-4.3,1c-3,2.9-8.5,4.6-13.7,4.2c-5.2-0.4-13.6-6.1-16.2-5.6
					c-2.6,0.5-10.3,2.3-11.6,3.5c5.6,1.7,8,2.7,7.7,4.2c-0.3,1.5,27.2,3.5,52-2.6c24.8-6.1,28.1-11.8,28.1-11.8s-21.4,6.4-25.7,7
					C452.2,194.3,440.7,192.4,440.4,193.7z"/>
				<path class="st1" d="M365.1,252.2c-2-1.1-18.8-10.4-21-11.2l0.7,5.9c0,0,3.4,3.8,6.4,4.5c3,0.7,11,3.3,11.9,4
					c0.9,0.7,0.7-1,1.5-1.1C365.4,254.3,367.1,253.4,365.1,252.2z"/>
				<path class="st1" d="M342.3,240.4c-0.3-2.2-8.7-4.6-13.4-4.7c-2.3,0-4.3-0.6-5.8-1.1c-1.7,0.6-3.4,1.2-5.1,1.7
					c1,0.7,2.7,1.6,4.9,2c2.3,0.4,4.4,1.5,5.5,2.2c0.3-0.1,1.1,0,2.8,0.2c5.2,0.7,8.6,5.4,10.1,5.8
					C342.9,246.8,342.7,242.6,342.3,240.4z"/>
				<path class="st1" d="M370,235.4c0,0,2.5-3.7,0.9-3.9c-1.7-0.2-20.7-1.6-28.8-0.8c-1,0.1-2,0.2-2.8,0.3
					c-3.4,0.9-6.8,1.7-10.1,2.5c4.3,0.6,10.8,1.3,17.4,0.6C357.7,232.9,370,235.4,370,235.4z"/>
				<path class="st1" d="M225.3,277.7c-0.4,1.7-1.6,3-3.1,3.9c1.5,1.3,3.1,2.4,3,2.5c-0.3,0.4,1.3,4.3,5.4,10c4,5.7,3,17.1,0.6,18.4
					c-2.4,1.3-3.5,0.8-4.3-0.7c-0.8-1.5-2.5-1.4-2.5-1.4c-1.2,0.6-0.5,9.3,9.7,3.9c11.9-6.3-0.6-27.5-5.8-32.2
					c8.8,3.3,12.7,7.5,14.8,17.6C246.7,286.2,232.4,279.9,225.3,277.7z"/>
				<path class="st1" d="M329.4,258.1c1.7,0.9,3.4-4.3,4-7.1c0.6-2.8-8.6-8.2-14.3-9.7c-4-1-6.9-3.1-8.3-4.3c-2,0.5-3.8,1-5.7,1.5
					c0.7,1,2.6,3.1,5.4,4.3c2.6,1.1,4.7,3.1,5.8,4.2c0.4,0,1.3,0.3,3.4,1.1C325.8,250.5,327.7,257.3,329.4,258.1z"/>
				<path class="st1" d="M355.1,275.2c-1.5,0.6-2.8,1.9-3.3,3.9c-0.5,2-3.8,14.5-3.6,15.8c0.3,1.3,0.4,1.7,2,2
					c1.6,0.2,1.8-1,3.4-3.3c1.6-2.3,2.7-14.4,2.8-16.1C356.5,277.4,356.6,274.5,355.1,275.2z"/>
				<path class="st1" d="M132,363.7c-0.5,0.5-1.2,0.9-2.7,1.8c-1.1,0.6-1.7,1.5-2.2,2.1c0.1,0,0.2,0,0.3-0.1
					c1.1,1.9,1.8,4.3,1.7,7.5c0,1,0.2,2.3,0.5,3.9c4.6,2.4,6.4-2.3,2.7-7.9c2.9,3.3,8.6,9.6,12.5,3.7c2.7-4.1-4.6-8.6-9.3-11
					C134.2,363.7,132.3,363.4,132,363.7z"/>
				<path class="st1" d="M368,271.8c1.2-0.1,1.1-1.1,1.6-3.1c0.5-2-2.1-11.3-2.5-12.6c0,0-0.7-2.2-1.7-1.5c-0.9,0.7-1.6,1.9-1.3,3.5
					c0.2,1.6,1.3,11.6,1.9,12.5C366.5,271.6,366.7,271.9,368,271.8z"/>
				<path class="st1" d="M366.4,283.7c-0.9,0.6-0.4,2.8-0.4,8.3c1.9-0.8,2.4-8.8,2.4-8.8S367.4,283.1,366.4,283.7z"/>
				<path class="st1" d="M347.9,297.5c0,0-13.6,14.3-11.7,22.3c2.6-6.9,7-10.9,8.3-10.7c1.3,0.2,3.3-0.3,4.7-3.3
					C350.7,303,351.3,298,347.9,297.5z"/>
				<path class="st1" d="M329.9,270.6c-1.2,0.4-2.3,1.2-2.9,2.6c-0.6,1.4-4.4,10.3-4.4,11.3c0,1,0.1,1.3,1.2,1.6
					c1.1,0.3,1.4-0.6,2.9-2.1c1.4-1.6,3.6-10.4,3.9-11.6C330.7,272.4,331.1,270.3,329.9,270.6z"/>
				<path class="st1" d="M354.2,274.6c1,0.2,3.6-0.5,1.6-2.5c-1.9-2-18.3-18.2-20.6-19.8l-2,7.4c0,0,2.5,5.6,5.8,7.3
					c3.3,1.8,12,7.2,12.8,8.4C352.7,276.7,353.2,274.4,354.2,274.6z"/>
				<path class="st1" d="M342.8,311c-1.4,0.4-1.8,3.3-4.4,10c2.8-0.4,7.1-10,7.1-10S344.2,310.6,342.8,311z"/>
				<path class="st1" d="M367.2,282c1-0.1,2.3-0.8,2.6-3.3c0.3-2.5-0.7-6.3-3.4-6c0,0-6.1,13.1-2.4,18.8
					C364.1,285.8,366.2,282.1,367.2,282z"/>
				<path class="st1" d="M426.9,259.7c0,0-0.1-0.1-0.2-0.4C426.8,259.4,426.8,259.6,426.9,259.7z"/>
				<path class="st1" d="M393.7,236.9c-1.6-1.2-19.8-4.6-19.8-4.6c-1.7,0.7-1.8,2.8-0.1,3.2c1.7,0.4,16.3,4.5,18.1,5.1
					c1.9,0.6,3.4-0.6,3.6-1.4C395.8,238.4,395.3,238.1,393.7,236.9z"/>
				<path class="st1" d="M416.5,245.9c-1.6-1-18.1-7.1-18.1-7.1c-2.8,0.1-2.9,2.3-1.3,2.8c1.7,0.4,12.4,4.5,15,6.3
					c2.6,1.8,3.7,1.6,6.1,1.1C420.6,248.4,418.1,246.9,416.5,245.9z"/>
				<path class="st1" d="M419.7,249.1c-2.6,0.5-3.6,0.8-2.9,1.2c0.7,0.4,8.1,5,10,8.9C425.9,257.4,422,248.7,419.7,249.1z"/>
				<path class="st1" d="M248.4,276.4c4.8-1.2,8.4-1,8.7-0.4c0.3,0.5,1.3,1,3.4,0.6c2.1-0.4,5.1-1.7,4.3-3.1
					C264.8,273.5,252.3,273.2,248.4,276.4z"/>
				<path class="st1" d="M296,244c-3-1.6-4.3-4.1-4.3-4.1l-0.4,0c-1,0.1-2,0.3-3,0.3c0.1,0.2,0.6,2.1,2.3,3.5c1.3,1,2.1,2.4,2.5,3.2
					c0.2,0.1,0.7,0.3,1.7,1.1c3,2.1,2.8,6.2,3.5,7c0.8,0.7,2.8-2,3.8-3.6C303.2,249.8,299.1,245.5,296,244z"/>
				<path class="st1" d="M279.7,269.1c-0.8-0.3-2-0.4-3.3,0.1c-1.3,0.5-9.4,3.2-10.1,3.7c-0.6,0.5-0.9,0.7-0.5,1.3
					c0.4,0.6,1.1,0.3,2.9,0.2c1.8-0.2,9.1-3.6,10-4C278.9,270.2,280.6,269.4,279.7,269.1z"/>
				<path class="st1" d="M281.4,256.6c0,0-2.4,2.6-2.3,4.3c0.1,1.7-0.2,6.4-0.6,7.1c-0.4,0.6,1,0.1,1.3,0.5c0.2,0.4,1.4,1.1,1.9-0.2
					c0.5-1.3,4.4-12.1,4.6-13.4L281.4,256.6z"/>
				<path class="st1" d="M253.1,265c1.3,1.5,2.9,2.8,2.7,3c-0.4,0.3,0.7,4.7,4,11.1c3.3,6.4,0.4,18.3-2.3,19.4
					c-2.7,1.1-3.8,0.5-4.4-1.1c-0.6-1.6-2.4-1.8-2.4-1.8c-1.4,0.6-2,9.7,9.6,5.1c13.5-5.4,3.8-29-0.9-34.5
					c8.7,4.4,12.1,9.2,12.8,20.1c5.9-14-8.2-22-15.3-25.1C256.3,262.9,254.8,264.2,253.1,265z"/>
				<path class="st1" d="M255.5,275.9c-0.7-0.4-2.5,0.4-7.1,1.6c1.1,0.8,8-0.7,8-0.7S256.2,276.3,255.5,275.9z"/>
				<path class="st1" d="M289.9,252.4c9.3,4.5,13.1,9.5,14.1,21c5.9-14.9-9.3-23.1-16.8-26.2c-0.6,1.8-2.2,3.2-4,4.1
					c1.5,1.6,3.2,2.9,3,3.1c-0.4,0.4,0.9,4.9,4.6,11.6c3.7,6.7,1,19.4-1.9,20.6c-2.9,1.2-4,0.6-4.7-1.1c-0.7-1.7-2.6-1.8-2.6-1.8
					c-1.4,0.6-1.9,10.3,10.3,5.2C305.9,282.8,295,258.1,289.9,252.4z"/>
				<path class="st1" d="M322.1,286.5c0,0-11.6,9.5-11.1,15.5c2.7-4.9,6.4-7.5,7.3-7.2c0.9,0.2,2.5,0,3.9-2.1
					C323.5,290.7,324.5,287.1,322.1,286.5z"/>
				<path class="st1" d="M329.3,270.2c0.7,0.2,2.7-0.1,1.5-1.7c-1.2-1.6-11.3-14.6-12.9-15.9l-2.3,5.3c0,0,1.2,4.3,3.4,5.8
					c2.2,1.5,8,6.1,8.4,7C327.9,271.6,328.6,270,329.3,270.2z"/>
				<path class="st1" d="M309.8,267.8c-1,0.2-2,0.7-2.7,1.8c-0.7,1.1-5.2,7.8-5.3,8.6c-0.1,0.8-0.1,1,0.7,1.4
					c0.8,0.3,1.3-0.3,2.6-1.4c1.4-1.1,4.5-7.9,4.9-8.8C310.2,269.3,310.8,267.7,309.8,267.8z"/>
				<path class="st1" d="M316.8,296c-1.1,0.2-1.7,2.3-4.4,7c2.1-0.1,6.3-6.8,6.3-6.8S317.9,295.8,316.8,296z"/>
				<path class="st1" d="M295.4,286.7c-0.9,0.1-1.7,1.7-4.6,5.2c1.7,0.1,6.1-4.8,6.1-4.8S296.3,286.7,295.4,286.7z"/>
				<path class="st1" d="M302.3,261.2c1.6,1.4,5.4,5.6,5.6,6.4c0.2,0.8,1-0.4,1.5-0.2c0.5,0.2,2.2,0.2,1.4-1.2
					c-0.7-1.4-6.8-12.7-7.8-13.9l-2.6,4C300.4,256.3,300.7,259.8,302.3,261.2z"/>
				<path class="st1" d="M301.1,279.7c0,0-10.8,6.4-11.3,11.3c2.9-3.6,6.2-5.3,6.9-5.1c0.7,0.3,2,0.2,3.4-1.3
					C301.6,283.1,303,280.4,301.1,279.7z"/>
			</g>
			<path class="st0" d="M572.7,226.2c-37-15.5-89.1-20.5-148.8-14.6c53.6-3.9,100.3,1.3,134.2,15.3c44.6,18.3,61.9,49.3,48.6,87.1
				c-26.4,75.4-168.9,155.2-317.6,177.8c-46.6,7.1-88.1,7.3-124.2,2.2c39,8,86,8.8,139.4,0.7c148.7-22.6,291-103.3,317.2-179.9
				C634.7,276.5,617.4,245,572.7,226.2z"/>
			<path class="st2" d="M567.8,317.6c-6,0.6-10.6-0.8-13.7-4c-1-1.1-1.8-2.3-2.4-3.7c-5,6.1-12.9,9.5-24.6,10.7
				c-0.3,0-0.6,0.1-0.9,0.1c-10.8,1-17.7-0.4-21.7-4.6c-1.9-2-4.1-5.7-3.2-11.8c0.5-3.5,1.7-6.4,3.5-8.8c-0.6,0-1.1,0-1.7-0.2l0,0
				c0,0-1.4-0.4-2.9-0.2c-2,0.2-4,1.4-5.6,3.4l-2.9,20.9c-0.3,2.2-2.1,3.9-4.3,4.2c0,0-17.8,1.9-17.8,1.9c-1.5,0.1-2.9-0.4-4-1.5
				c0,0,0,0,0,0c-3.1,1.8-6.4,3.1-10.7,3.5l-0.3,0c-5.4,0.5-9.1-0.6-11.6-2.3c-4.5,2.8-9.5,4.5-15.1,5.1l-0.4,0
				c-6.5,0.6-11.2-0.7-14.3-4c-0.1-0.1-0.1-0.1-0.2-0.2c-0.2,0.2-0.5,0.5-0.7,0.7c-5.9,4.3-11.4,6.5-17.8,7.2l-0.4,0
				c-6.2,0.6-11-0.7-14.1-4c-1.4-1.5-2.5-3.3-3.1-5.5c-4.6,7.6-12.5,11.7-25,13.3c0,0-4.6,0.4-4.6,0.4c-1.2,0.1-2.4,0.1-3.5,0.1
				c-0.1,0-0.1,0-0.2,0l-3.8-0.1c-0.1,0-0.2,0-0.3,0c-5.8-0.5-9.9-2.4-12.5-5.6c-0.1-0.2-0.3-0.3-0.4-0.5l-0.5,3.6
				c-0.1,0.4-0.2,0.8-0.3,1.2c0,0.1-0.1,0.2-0.1,0.3c-0.5,2-2.2,3.4-4.2,3.6l-17.7,1.7c-1.9,0.2-3.8-0.8-4.7-2.5l-9.8-17.7l-2.2,18
				c-0.3,2.3-2.1,4-4.4,4.3l-19.4,1.8c-1.5,0.1-2.9-0.4-3.9-1.4c-1-1.1-1.5-2.5-1.3-4l5-42.3c0,0-0.9,0.1-1,0.1
				c-1.5,0.1-2.9-0.4-4-1.5c-1-1.1-1.5-2.6-1.3-4l1.2-8.9c0.3-2.1,1.9-3.8,4-4.1l28.4-4.5c0.1,0,0.2,0,0.3,0c2-0.2,4,0.9,4.9,2.8
				l6.5,14.1l2.3-16c0.3-2,1.8-3.6,3.8-4.1l20.3-4.4c0.2,0,0.4-0.1,0.6-0.1c1.4-0.1,2.7,0.3,3.8,1.3c1.2,1.1,1.7,2.6,1.5,4.2
				l-5.1,37.8c1.5-1.5,3.2-2.8,5-3.9c-0.7-0.7-1.2-1.6-1.4-2.7l-1.1-7c-0.4-2.2,0.8-4.4,2.9-5.3c6.4-2.7,14.8-4.9,22-5.6l0.7-0.1
				c8-0.8,14,0.3,18,3.4c0.6-1.4,1.9-2.4,3.5-2.8l1.4-0.3l0.8-5.6c0.3-2,1.8-3.6,3.7-4.1l18.1-4.2c0.2,0,0.4-0.1,0.6-0.1
				c1.4-0.1,2.7,0.3,3.7,1.3c1.2,1.1,1.7,2.7,1.5,4.3l-0.7,5.1c0,0,3.1-0.3,3.1-0.3c1.3-0.1,2.6,0.3,3.6,1.2
				c0.5-0.4,1.1-0.6,1.7-0.8l18.1-4.2c0.2,0,0.4-0.1,0.6-0.1c1.4-0.1,2.7,0.3,3.7,1.3c1.2,1.1,1.8,2.7,1.5,4.3l-3.4,24.6
				c0,0,0,0,0.1,0c0.1-0.6,0.2-1.2,0.2-1.8l3.2-23c0.3-2,1.8-3.6,3.7-4.1l18.1-4.2c0.2,0,0.4-0.1,0.6-0.1c1.4-0.1,2.7,0.3,3.7,1.3
				c1.2,1.1,1.8,2.7,1.5,4.3l-3.5,25.1c0.4,0,0.8,0,1.2,0.1l3.5-25.1c0.3-2,1.8-3.6,3.7-4.1l18.1-4.2c0.2,0,0.4-0.1,0.6-0.1
				c1.4-0.1,2.7,0.3,3.7,1.3c0.2,0.2,0.4,0.4,0.5,0.6c2.5-1.6,5.2-2.6,7.9-2.8l0.2,0c3.6-0.3,6,0.7,7.7,1.8
				c6.4-2.6,14.6-4.7,21.7-5.5l0.7-0.1c9.3-0.9,15.8,0.7,19.8,4.9c0,0,0.5-3.8,0.5-3.8c-1.4,0-2.7-0.5-3.6-1.5c-1-1.1-1.5-2.6-1.3-4
				l1.1-7.6c0.3-2.1,1.9-3.7,3.9-4.1l23.8-4.3c0.1,0,0.3,0,0.4-0.1c1.4-0.1,2.8,0.3,3.8,1.3c1.1,1.1,1.7,2.6,1.4,4.2l-6,42.6
				c0,0.1,0,0.2,0,0.3c0.5-0.2,1.1-0.4,1.9-0.8c0.5-0.2,0.9-0.3,1.4-0.4c0.9-0.1,1.7,0.1,2.5,0.4c1.3,0.6,2.2,1.7,2.6,3l1.6,5.4
				c0.6,1.9-0.1,4-1.7,5.2c-5.2,4-11.9,6.6-18.3,7.3L567.8,317.6z M352.2,318.3c-0.8,0.5-1.4,1.1-1.7,2
				C351.1,320.2,351.6,319.8,352.2,318.3z M529,300.8c-0.8,0.5-1.4,1.1-1.7,2C527.9,302.7,528.5,302.3,529,300.8z M403.9,313.5
				c0,0.1,0,0.2,0,0.3c0.5-0.2,1.1-0.4,1.9-0.8c0.5-0.2,0.9-0.3,1.4-0.4c0.7-0.1,1.5,0,2.2,0.3c0.1-0.7,0.1-1.4,0.2-2.1l1.4-9.8
				c-0.3,0.1-0.6,0.1-0.9,0.2l-4.6,0.5L403.9,313.5z M509.7,290.8c0.5-0.3,1-0.6,1.5-0.9c-0.3-0.2-0.5-0.5-0.7-0.8L509.7,290.8z"/>
			<path class="st0" d="M357.2,291.7c-6.9,0.7-14.7,2.8-20.6,5.3l1.1,7c4.2-1.5,8.9-2.6,12.4-3c5.7-0.6,8,0.9,8.4,5.2l-2.3,0.2
				c-18.6,2-25.8,7.5-27,16c-1,7.1,3,10.4,10.7,11.1c1.3,0.1,2.5,0.1,3.8,0.1c1,0,2.1-0.1,3.2-0.1l4.3-0.4
				c17.1-2.1,23.2-8.9,25.1-22.6C378.2,296.9,374.2,289.9,357.2,291.7z M358.1,313.6c-1,6.9-2.3,11.1-7.6,11.6
				c-3.9,0.4-5.5-1.7-5-4.9c0.6-4.3,4.2-7.6,11.6-8.4l1.2-0.1L358.1,313.6z M401.3,297.3l8.4-0.9l2-8.1l-9.3,1l1.6-11.3l-18.1,4.2
				l-1.3,9l-4.8,1l-1,7.5l4.7-0.5l-2.3,16.1c-1.6,11.4,3.4,15,12.6,14c6.2-0.7,11-3,15.5-6.3l-1.6-5.4c-2.3,1-3.5,1.4-4.8,1.5
				c-3.7,0.4-4.4-2-3.8-6.2L401.3,297.3z M309.2,277.4l-4.6,32.4l-13.4-29.2l-28.4,4.5l-1.2,8.9l7-0.7l-5.8,48.3l19.4-1.8l4-32.9
				l17.1,30.9l17.7-1.7c0.1-0.5,0.2-0.9,0.3-0.9l8.3-62.2L309.2,277.4z M463.5,281.5l-18.1,4.2l-3.2,22.9c-0.2,1.3-0.4,2.7-0.4,3.8
				c-1.4,1.3-3.5,2.4-5.8,2.7c-3.2,0.3-4.4-1.5-3.7-6l3.4-24.7l-18.1,4.2l-3.2,22.9c-1.5,11,2.9,15,12.8,14c6.8-0.7,12.1-3.3,16-6.7
				c1.9,3.2,5.6,4.4,11,3.8c5.1-0.5,8.4-2.4,12.2-5.2l-1.6-5.3c-1.2,0.7-2,1-2.8,1c-1.9,0.2-3-0.9-2.6-3.6L463.5,281.5z
				 M577.1,302.5c-3.7,0.4-4.4-2-3.8-6.2l6-42.6l-23.8,4.3l-1.1,7.6l5.8-0.6l-4.7,33.8c-1.6,11.2,3.4,15,12.2,14
				c6.2-0.7,12-3.4,15.8-6.3l-1.6-5.4C579.6,302,578.4,302.4,577.1,302.5z M509.7,279.2c-1.1-0.8-2.5-1.6-5.1-1.3
				c-5.2,0.6-10.2,4.8-13.4,9.9l1.2-8.9l-18.1,4.2l-5.2,37.5l17.8-1.9l3.1-22.2c2.7-3.9,6.3-6,9.7-6.4c2.6-0.3,4.9,0.4,4.9,0.4
				L509.7,279.2z M534.1,274.2c-6.9,0.7-14.7,2.8-20.6,5.3l1.1,7c4.3-1.5,8.9-2.6,12.4-3c5.7-0.6,8,0.9,8.4,5.2l-2.3,0.2
				c-18.6,2-25.8,7.5-27,16c-1.3,9.7,6.5,12.4,20.5,10.9c18.2-1.9,24.6-8.7,26.6-22.8C555.1,279.3,551,272.4,534.1,274.2z M535,296
				c-1,6.9-2.3,11.1-7.6,11.6c-3.9,0.4-5.5-1.7-5-4.9c0.6-4.3,4.2-7.6,11.6-8.4l1.2-0.1L535,296z"/>
			<path class="st1" d="M454.7,200.5c-10.2,3.3-20.8,7.1-31.7,11.3C435.1,207.5,445.4,203.7,454.7,200.5z"/>
			<path class="st1" d="M423,211.8C413.4,215.4,433.4,208.1,423,211.8L423,211.8z"/>
			<path class="st1" d="M101.4,490.8c-1.6-5.2-2.4-10.4-2.5-17.3c-0.7,0.2-1.4-0.5-2.1-0.2c-0.3,9.3,0.4,17.3,2.4,23.9
				c7.6,25.2,31.5,27,68.7,5.8c24.3-16.8,52.7-41.7,83.6-73.3C173.1,505.2,114.1,532.5,101.4,490.8z"/>
			<path class="st2" d="M108.8,466.4c-1.9,0-3.7-0.8-4.9-2.1c-1.5-1.5-2.1-3.6-1.8-5.7l16.6-113.1l-8.6,0.8c-0.2,0-0.4,0-0.6,0
				c-1.9,0-3.7-0.8-4.9-2.1c-1.5-1.5-2.1-3.6-1.8-5.7l3.2-21.9c0.5-3.1,3-5.5,6.1-5.8l136.9-13c0.2,0,0.4,0,0.6,0
				c1.9,0,3.7,0.8,4.9,2.1c1.5,1.5,2.1,3.6,1.8,5.7l-3.2,21.9c-0.5,3.1-3,5.5-6.1,5.8l-65.4,6.2l-3.1,21.4l41.4-3.9
				c0.2,0,0.4,0,0.6,0c2.1,0,4,0.9,5.3,2.5c11.1-7.1,25.1-11.6,41.5-13.3c0.5-0.1,1-0.1,1.4-0.1c3.8-0.4,7.4-0.5,10.7-0.5
				c15.4,0,26.6,3.8,34,11.5c1.6,1.7,3,3.5,4.2,5.6l1.6-11.7c0.4-2.8,2.5-5.1,5.2-5.7l41.3-9.5c0.3-0.1,0.6-0.1,0.9-0.1
				c0.2,0,0.4,0,0.7,0c1.7,0,3.3,0.6,4.6,1.8c1.3,1.2,2.1,2.9,2.2,4.7c6.5-5,13.5-8,20.4-8.7l0.3,0c0.9-0.1,1.9-0.1,2.7-0.1
				c6.3,0,10.4,2.3,13.2,4.4c0,0,0,0,0,0c8.5-4.7,18.6-7.7,29.8-8.9l1-0.1c2.9-0.3,5.7-0.4,8.5-0.4c9.5,0,18.2,1.6,26.6,5
				c1.7,0.7,3.1,2,3.8,3.7c0.3,0.7,0.5,1.5,0.5,2.3c12-11.3,29.3-18.3,51.7-20.6c0.5-0.1,1-0.1,1.6-0.2c3.9-0.4,7.6-0.6,11-0.6
				c14.7,0,25.3,3.4,31.7,10.1c5.6,5.8,7.7,13.6,6.4,23.1c-1.9,13.6-10.3,24.3-24.9,31.8c-7.4,3.8-16.5,6.9-27.5,9.3
				c7.6-1.2,16.7-3.7,23.9-6.4c0.6-0.2,1.2-0.4,1.8-0.4c0.2,0,0.4,0,0.6,0c1.1,0,2.2,0.3,3.1,0.8c1.7,0.9,3,2.5,3.5,4.4l3.5,13.7
				c0.7,2.9-0.5,5.9-3,7.5c-12.7,7.9-32.6,14.2-50.8,16.1c0,0-0.9,0.1-1.2,0.1c-3.2,0.3-6.3,0.5-9.2,0.5c-13.5,0-24-3.3-31.1-9.8
				c-0.4,0.6-0.9,1.1-1.5,1.5c-12.8,9.5-27.6,15.2-43.9,16.9c-0.3,0-0.7,0.1-1,0.1c-2.7,0.3-5.3,0.4-7.8,0.4
				c-13.2,0-23.5-3.7-30.4-10.9c-8.2-8.6-11.2-21.6-8.8-38.6c0.6-4.2,1.4-8.3,2.6-12.1c-4.6,1.5-9.1,4.8-12.7,9.6l-6.9,49.1
				c-0.4,3.1-2.9,5.5-6,5.8l-40.7,4.3c-0.2,0-0.5,0-0.7,0c-1.8,0-3.6-0.8-4.9-2.1c-1.5-1.5-2.1-3.6-1.9-5.7l1.6-11.3
				c-2.8,3.8-6.1,7.3-9.8,10.5c-12.3,10.6-28.8,17-48.8,19.1c-0.4,0-0.9,0.1-1.3,0.1c-3.4,0.3-6.7,0.5-9.8,0.5
				c-15.2,0-26.7-3.9-34.1-11.7c-8.1-8.4-11-20.8-8.8-36.8c0.6-4.6,1.6-9,3-13.1l-26,2.5l-8.7,59.4c-0.5,3.1-3,5.5-6.1,5.8
				l-48.9,4.7C109.2,466.3,109,466.4,108.8,466.4z M454.4,359.1c-1,0-1.9,0-2.9,0.1l-0.3,0c-7.4,0.8-14.3,3.3-17.5,25.7
				c-1.8,12.8,0.1,15.5,0.5,16c0.2,0.2,1,0.8,3.8,0.8c0.7,0,1.5,0,2.4-0.1l0.4,0c5.7-0.6,11.8-2.5,18.8-5.9c0.5-0.2,1-0.4,1.5-0.5
				c-0.5-4.9-0.3-10.4,0.5-16.3c0.9-6.6,2.5-12.8,4.8-18.4l-1.3-0.2C461.3,359.6,457.9,359.1,454.4,359.1z M530.7,350.4
				c-0.3,0-0.5,0-0.8,0l-0.1,0c-6.6,0.7-9.9,8.2-11.6,15.4c11.5-3.2,13.7-7.7,14.2-11.8c0.3-2.3-0.1-3.3-0.2-3.4
				C532,350.6,531.6,350.4,530.7,350.4z"/>
			<path class="st2" d="M248.6,453.2c-19.5,1.9-33.8-1.7-42.3-10.6c-7.6-8-10.4-19.8-8.2-35.2c0.8-5.7,2.1-11,4-16
				c-0.5,0.3-1.1,0.5-1.7,0.5l-29,2.8l-9,61c-0.3,2.2-2.1,3.9-4.3,4.1l-48.9,4.7c-1.5,0.1-3-0.4-4-1.5c-1-1.1-1.5-2.6-1.3-4.1
				l17-115.5l-11.1,1.1c-1.5,0.1-3-0.4-4-1.5c-1-1.1-1.5-2.6-1.3-4.1l3.2-21.9c0.3-2.2,2.1-3.9,4.3-4.1l136.9-13
				c1.5-0.1,3,0.4,4,1.5c1,1.1,1.5,2.6,1.3,4.1l-3.2,21.9c-0.3,2.2-2.1,3.9-4.3,4.1l-66.9,6.4l-3.7,25.4l43.9-4.2
				c2.3-0.2,4.4,1.2,5.1,3.3c11.1-7.6,25.3-12.4,42.4-14.2c0.5-0.1,0.9-0.1,1.4-0.1c20.5-1.9,34.5,1.4,43.1,10.4
				c3,3.1,5.2,6.9,6.6,11.2l2.6-18.4c0.3-2,1.8-3.6,3.7-4.1l41.3-9.5c0.2,0,0.4-0.1,0.6-0.1c1.4-0.1,2.7,0.3,3.7,1.3
				c1.2,1.1,1.7,2.7,1.5,4.3l-0.5,3.6c7.2-6.5,15.2-10.6,23.1-11.4l0.3,0c7.2-0.7,11.4,1.6,14.5,3.9c0.3,0.2,0.6,0.5,0.9,0.8
				c8.5-4.9,18.7-8.1,30.3-9.3c0.3,0,0.7-0.1,1-0.1c12.6-1.2,23.7,0.3,34.1,4.4c1.2,0.5,2.2,1.4,2.7,2.7c0.5,1.2,0.5,2.6,0,3.8
				l-2.7,6.3c11.5-15.3,30.6-24.5,56.9-27.3c0.5-0.1,1-0.1,1.5-0.2c19.8-1.9,33.7,1.1,41.1,8.9c5.1,5.3,7.1,12.6,5.9,21.4
				c-4,28.9-37.8,38.1-65.4,42.1c1.3,2,4,2.5,10,1.9l0.7-0.1c8.5-0.9,20-3.8,28.8-7.2c0.4-0.2,0.9-0.3,1.3-0.3
				c0.9-0.1,1.8,0.1,2.7,0.5c1.2,0.6,2.1,1.8,2.5,3.1l3.5,13.7c0.5,2.1-0.3,4.2-2.1,5.3c-12.4,7.7-32.1,13.9-50,15.8
				c-0.4,0-0.8,0.1-1.2,0.1c-18.6,1.8-32.2-1.7-40.3-10.2c-0.2-0.2-0.4-0.4-0.6-0.6c-0.1,1.3-0.8,2.6-1.9,3.4
				c-12.5,9.3-27,14.9-43,16.5c-0.3,0-0.7,0.1-1,0.1c-16.5,1.6-28.8-1.8-36.5-9.9c-7.8-8.1-10.6-20.6-8.3-36.9
				c0.8-5.6,2-10.8,3.7-15.6c-0.5,0.4-1.2,0.7-1.9,0.9c-5.8,1.3-11.4,5.3-15.8,11.2l-6.9,49.6c-0.3,2.2-2.1,3.9-4.3,4.2
				c0,0-40.7,4.3-40.7,4.3c-1.5,0.1-2.9-0.4-4-1.5c-1-1.1-1.5-2.6-1.3-4l2.8-20.1c-3.6,6.6-8.4,12.5-14.3,17.5
				c-12,10.3-28.1,16.6-47.8,18.7C249.5,453.1,249.1,453.1,248.6,453.2z M451,357.3c-9.6,1-16.2,6-19.2,27.4
				c-1.7,11.9-0.3,16.1,1,17.6c1.2,1.2,3.8,1.7,7.8,1.3l0.4,0c5.9-0.6,12.3-2.6,19.4-6c0.5-0.3,1.1-0.4,1.6-0.5c0.4,0,0.8,0,1.2,0
				c-0.8-5.3-0.7-11.3,0.2-17.9c1.1-7.6,3-14.5,5.8-20.7c-0.3,0.1-0.7,0.2-1,0.2c-0.4,0-0.8,0-1.3,0l-1.7-0.3
				c-4.7-0.8-9.1-1.5-14-1.1L451,357.3z M529.5,348.5c-8.6,0.9-12.4,11.1-14,20c15.1-3.5,18-9.1,18.7-14.2c0.3-2.3,0-4.2-0.8-5
				c-0.9-0.9-2.8-0.9-3.9-0.8L529.5,348.5z"/>
			<path class="st1" d="M268,352.8c-39.4,4.2-60.7,24.4-65,55.2c-4,28.4,9.7,44.1,46.5,40.2c37.4-4,61.1-24,65.6-56.5
				C319.3,360.9,302.3,349.2,268,352.8z M220.4,363.7l-50.1,4.8l5.2-35.3l70.7-6.7l3.2-21.9l-136.9,13l-3.2,21.9l17.2-1.6
				l-17.9,121.7l48.9-4.7l9.5-64.7l32.7-3.1C205.2,377.1,209.6,369.5,220.4,363.7z M441.5,408.3c-13.3,1.4-17.3-4.4-14.5-24.3
				c2.9-21,9.6-30.1,23.5-31.5c6.3-0.7,11.8,0.5,17.3,1.4l6.3-14.6c-8-3.2-18.3-5.5-32.8-4c-33.1,3.5-51.9,23.4-56.1,53.4
				c-4.1,29.1,8.9,44.6,40.5,41.2c16.3-1.7,29.8-7.6,40.6-15.6l-3.7-12.4C454.5,405.6,447.6,407.7,441.5,408.3z M533.2,325
				c-40,4.2-60.6,23.3-65,54.7c-4,28.8,8.6,44.6,44.4,40.8c18-1.9,36.7-8.2,48-15.1l-3.5-13.7c-9.1,3.5-21,6.5-30,7.5
				c-10.6,1.1-16-0.7-17.4-10.8c40.3-5.1,63.6-16.4,66.7-38.7C578.9,332.2,566.9,321.5,533.2,325z M539.1,355
				c-1.6,11.5-12,16.9-29.3,19.6c1.7-17.9,8-29.7,19.2-30.9C536.8,342.8,540.1,347.6,539.1,355z M406.7,342.8
				c-2.5-1.8-5.7-3.6-11.5-2.9c-11.8,1.3-23.3,11-30.7,22.7l2.8-20.4l-41.3,9.5l-12,85.9l40.6-4.3l7.1-50.8
				c5.5-7.9,12.5-12.5,19.4-14.1C386.5,357.2,395,348.5,406.7,342.8z"/>
			<path class="st2" d="M238.3,435.6c8.2-6.7,23.5-18.8,27.7-32.6c1.2,11.5-9.1,26.4-18.1,32.9c49.2-1.7,54.7-55.7,24.7-73.8
				c-2.9,14.1-38.6,25.4-44.5,41.6C221.7,421.1,238.2,434.8,238.3,435.6z"/>
		</g>
		<g>
			<path class="st0" d="M177,508.7c2,0.5,3.4,1.7,4.5,3.3c1,1.7,1.3,3.5,0.8,5.4c-0.5,1.9-1.6,3.3-3.4,4.2c-1.7,0.9-3.6,1.1-5.5,0.6
				c-2-0.5-3.5-1.6-4.5-3.3c-1-1.7-1.3-3.5-0.8-5.4c0.5-1.9,1.6-3.3,3.4-4.2C173.2,508.4,175.1,508.2,177,508.7z M176.4,511.1
				c-1.2-0.3-2.4-0.2-3.5,0.4c-1.1,0.6-1.9,1.5-2.2,2.7c-0.3,1.2-0.2,2.4,0.5,3.5c0.7,1.1,1.6,1.8,2.8,2.1c1.2,0.3,2.3,0.2,3.5-0.4
				c1.1-0.6,1.9-1.5,2.2-2.7c0.3-1.2,0.2-2.4-0.5-3.5C178.5,512.1,177.6,511.4,176.4,511.1z"/>
			<path class="st0" d="M185.4,511l5.3,1c0.3,0.1,0.6,0.2,0.9,0.3c0.4,0.2,0.8,0.5,1.2,0.9c0.3,0.4,0.6,0.7,0.8,1.1
				c0.2,0.4,0.3,0.9,0.4,1.3c0.1,0.5,0,1-0.1,1.5l0,0.1c-0.1,0.5-0.3,1-0.5,1.3c-0.2,0.4-0.5,0.7-0.7,1c-0.4,0.4-0.8,0.7-1.3,0.8
				c-0.3,0.1-0.7,0.2-1.1,0.3c-0.4,0-0.8,0-1.2-0.1l-2.5-0.5l-0.9,4.5c-0.1,0.3-0.2,0.4-0.5,0.3l-1.7-0.3c-0.3-0.1-0.4-0.2-0.3-0.5
				l2.1-10.5l-0.4-0.1c-0.3-0.1-0.4-0.2-0.3-0.5l0.3-1.7C185,511.1,185.1,511,185.4,511z M187.8,514l-0.7,3.6l2.5,0.5
				c0.4,0.1,0.8,0,1.2-0.3c0.4-0.3,0.6-0.6,0.7-1.1c0.1-0.5,0-1-0.3-1.4c-0.3-0.5-0.6-0.7-1.1-0.8L187.8,514z"/>
			<path class="st0" d="M198.2,526.7l1.5-10.6l-1.7-0.2l-0.1,0.4c0,0.3-0.2,0.4-0.5,0.3l-1.7-0.2c-0.3,0-0.4-0.2-0.3-0.5l0.3-1.8
				c0-0.3,0.2-0.5,0.4-0.7c0.2-0.2,0.5-0.3,0.8-0.2l8.6,1.2c0.3,0,0.6,0.2,0.7,0.4c0.2,0.3,0.3,0.5,0.2,0.8l-0.3,1.8
				c0,0.3-0.2,0.4-0.5,0.3l-1.7-0.2c-0.3,0-0.4-0.2-0.3-0.5l0.1-0.4l-1.7-0.2l-1.5,10.6c0,0.3-0.2,0.4-0.5,0.3l-1.7-0.2
				C198.3,527.2,198.2,527,198.2,526.7z"/>
			<path class="st0" d="M208.7,517.3l-0.5-0.1c-0.3,0-0.4-0.2-0.4-0.4l0.2-1.7c0-0.3,0.2-0.4,0.4-0.4l3.6,0.4c0.3,0,0.4,0.2,0.4,0.4
				l-0.2,1.7c0,0.3-0.2,0.4-0.4,0.4l-0.5-0.1l-0.9,8.5l0.5,0.1c0.3,0,0.4,0.2,0.4,0.4l-0.2,1.7c0,0.3-0.2,0.4-0.4,0.4l-3.6-0.4
				c-0.3,0-0.4-0.2-0.4-0.4l0.2-1.7c0-0.3,0.2-0.4,0.4-0.4l0.5,0.1L208.7,517.3z"/>
			<path class="st0" d="M212.3,528.6l0.1-1.7c0-0.3,0.2-0.4,0.4-0.4l0.4,0l1.6-10.7c0-0.2,0.2-0.4,0.4-0.3l2.1,0.2
				c0.2,0,0.3,0.1,0.4,0.3l2.4,7.4l3.4-7c0.1-0.2,0.2-0.2,0.4-0.2l2.1,0.2c0.3,0,0.4,0.2,0.4,0.4l0,10.8l0.4,0
				c0.3,0,0.4,0.2,0.4,0.4l-0.1,1.7c0,0.3-0.2,0.4-0.4,0.4l-1.7-0.1c-0.3,0-0.5-0.1-0.7-0.3c-0.2-0.2-0.3-0.5-0.3-0.8l0-7.2
				l-2.6,5.3c-0.1,0.2-0.2,0.2-0.4,0.2l-2-0.1c-0.2,0-0.3-0.1-0.4-0.3l-1.8-5.6l-1,7.1c0,0.3-0.2,0.5-0.4,0.7
				c-0.2,0.2-0.5,0.3-0.8,0.2l-1.7-0.1C212.4,529,212.3,528.8,212.3,528.6z"/>
			<path class="st0" d="M229.6,518.9l-0.5,0c-0.3,0-0.4-0.1-0.4-0.4l0.1-1.7c0-0.3,0.1-0.4,0.4-0.4l3.6,0.1c0.3,0,0.4,0.2,0.4,0.4
				l-0.1,1.7c0,0.3-0.1,0.4-0.4,0.4l-0.5,0l-0.3,8.6l0.5,0c0.3,0,0.4,0.2,0.4,0.4l-0.1,1.7c0,0.3-0.1,0.4-0.4,0.4l-3.6-0.1
				c-0.3,0-0.4-0.1-0.4-0.4l0.1-1.7c0-0.3,0.1-0.4,0.4-0.4l0.5,0L229.6,518.9z"/>
			<path class="st0" d="M243.9,517.3l-1,1.9l-4.6,8.5l4.7,0.1c0.3,0,0.4,0.1,0.4,0.4l0,1.7c0,0.3-0.1,0.4-0.4,0.4l-8.3-0.1
				c-0.2,0-0.3-0.1-0.3-0.2c0-0.1-0.1-0.1-0.1-0.2c0-0.1,0-0.1,0.1-0.2l5.7-10.5l-3.3,0l0,0.4c0,0.3-0.1,0.4-0.4,0.4l-1.7,0
				c-0.3,0-0.4-0.1-0.4-0.4l0-1.8c0-0.3,0.1-0.6,0.3-0.8c0.2-0.2,0.5-0.3,0.8-0.3l8.3,0.1c0.1,0,0.3,0.1,0.3,0.2
				c0,0.1,0.1,0.1,0.1,0.2C244,517.2,244,517.3,243.9,517.3z"/>
			<path class="st0" d="M252.7,526.6l-3.8,0.1l-0.9,2.9c-0.2,0.5-0.5,0.8-1.1,0.8l-1.4,0c-0.3,0-0.4-0.1-0.4-0.4l0-1.7
				c0-0.3,0.1-0.4,0.4-0.4l0.4,0l3.2-10.9c0.1-0.2,0.2-0.3,0.4-0.3l2,0c0.2,0,0.3,0.1,0.4,0.3l3.9,10.8l0.4,0c0.3,0,0.4,0.1,0.4,0.4
				l0,1.7c0,0.3-0.1,0.4-0.4,0.4l-1.5,0c-0.6,0-0.9-0.2-1.1-0.7L252.7,526.6z M249.7,524.1l2.2,0l-1.2-3.3L249.7,524.1z"/>
			<path class="st0" d="M263,516.2l8.5-0.6c0.3,0,0.6,0.1,0.8,0.3c0.2,0.2,0.4,0.5,0.4,0.8l0.1,1.8c0,0.3-0.1,0.4-0.4,0.4l-1.6,0.1
				c-0.3,0-0.4-0.1-0.4-0.4l0-0.4l-4.2,0.3l0.2,3.1l3.8-0.3c0.3,0,0.4,0.1,0.4,0.4l0.1,1.7c0,0.3-0.1,0.4-0.4,0.4l-3.8,0.3l0.2,3
				l4.2-0.3l0-0.4c0-0.3,0.1-0.4,0.4-0.4l1.6-0.1c0.3,0,0.4,0.1,0.4,0.4l0.1,1.8c0,0.3-0.1,0.6-0.3,0.8c-0.2,0.2-0.5,0.4-0.8,0.4
				l-6.9,0.5c-0.3,0-0.6-0.1-0.8-0.3c-0.2-0.2-0.4-0.5-0.4-0.8l-0.7-10l-0.4,0c-0.3,0-0.4-0.1-0.4-0.4l-0.1-1.7
				C262.6,516.3,262.7,516.2,263,516.2z"/>
			<path class="st0" d="M275.6,527.8l-1-10l-0.4,0c-0.3,0-0.4-0.1-0.4-0.4l-0.2-1.7c0-0.3,0.1-0.4,0.4-0.4l1.8-0.2
				c0.3,0,0.6,0.1,0.8,0.3c0.2,0.2,0.4,0.5,0.4,0.8l1,10l4.2-0.4l0-0.4c0-0.3,0.1-0.4,0.4-0.4l1.6-0.2c0.3,0,0.4,0.1,0.4,0.4
				l0.2,1.8c0,0.3-0.1,0.6-0.3,0.8c-0.2,0.2-0.5,0.4-0.8,0.4l-6.9,0.7c-0.3,0-0.6,0-0.8-0.2C275.7,528.4,275.6,528.2,275.6,527.8z"
				/>
			<path class="st0" d="M290.2,513.7l5.4-0.7c0.3,0,0.6,0,1,0c0.5,0.1,1,0.2,1.4,0.4c0.4,0.2,0.8,0.5,1.1,0.8
				c0.3,0.3,0.6,0.7,0.8,1.1c0.2,0.4,0.4,0.9,0.4,1.5l0,0.1c0.1,0.5,0.1,1,0,1.4c-0.1,0.5-0.2,0.9-0.4,1.2c-0.2,0.5-0.6,0.9-1,1.2
				c-0.3,0.2-0.6,0.4-0.9,0.6c-0.4,0.2-0.8,0.3-1.2,0.3l-2.5,0.3l0.6,4.5c0,0.3-0.1,0.4-0.3,0.4l-1.7,0.2c-0.3,0-0.4-0.1-0.5-0.3
				l-1.5-10.6l-0.4,0.1c-0.3,0-0.4-0.1-0.5-0.3l-0.2-1.7C289.8,513.9,289.9,513.7,290.2,513.7z M293.4,515.8l0.5,3.6l2.5-0.3
				c0.4-0.1,0.8-0.3,1.1-0.6c0.3-0.4,0.4-0.8,0.3-1.3c-0.1-0.5-0.3-0.9-0.7-1.3c-0.4-0.3-0.8-0.5-1.3-0.4L293.4,515.8z"/>
			<path class="st0" d="M307.8,510.8c2-0.3,3.8,0,5.4,1.2c1.6,1.1,2.6,2.6,3,4.5c0.3,1.9-0.1,3.7-1.3,5.3c-1.2,1.6-2.8,2.5-4.8,2.9
				c-2,0.3-3.8,0-5.4-1.1c-1.6-1.1-2.6-2.6-2.9-4.5c-0.3-1.9,0.1-3.7,1.3-5.3C304.2,512.2,305.7,511.2,307.8,510.8z M308.2,513.3
				c-1.2,0.2-2.2,0.8-3,1.8c-0.8,1-1,2.2-0.8,3.4c0.2,1.3,0.9,2.2,1.9,2.9c1.1,0.7,2.2,1,3.4,0.7c1.2-0.2,2.2-0.8,3-1.8
				c0.8-1,1-2.2,0.8-3.4c-0.2-1.2-0.8-2.2-1.9-2.9C310.5,513.4,309.4,513.1,308.2,513.3z"/>
			<path class="st0" d="M318.5,522.6l-0.3-1.7c-0.1-0.3,0.1-0.4,0.3-0.5l0.4-0.1l-1.7-8.4l-0.4,0.1c-0.3,0.1-0.4-0.1-0.5-0.3
				L316,510c-0.1-0.3,0.1-0.4,0.3-0.5l2.9-0.6c2.1-0.3,3.9,0,5.3,1.1c1.4,1.1,2.3,2.5,2.6,4.2l0,0c0.3,1.8,0.1,3.5-0.6,5
				c-0.8,1.5-2.3,2.5-4.6,3l-2.9,0.6C318.7,523,318.6,522.9,318.5,522.6z M321.4,519.8c0.1,0,0.1,0,0.3,0c1.2-0.2,2.1-0.8,2.6-1.7
				c0.5-0.9,0.7-2,0.4-3.2l0-0.1c-0.3-1.4-0.9-2.4-1.7-3c-0.8-0.6-1.8-0.7-3-0.5l-0.2,0L321.4,519.8z"/>
			<path class="st0" d="M327.1,507.3l8.3-1.9c0.3-0.1,0.6,0,0.8,0.1c0.3,0.2,0.4,0.4,0.5,0.7l0.4,1.8c0.1,0.3,0,0.4-0.3,0.5
				l-1.6,0.4c-0.3,0.1-0.4,0-0.5-0.3l-0.1-0.4l-4.1,0.9l0.7,3l3.7-0.9c0.3-0.1,0.4,0,0.5,0.3l0.4,1.7c0.1,0.3,0,0.4-0.3,0.5
				l-3.7,0.9l0.7,3l4.1-0.9l-0.1-0.4c-0.1-0.3,0-0.4,0.3-0.5l1.6-0.4c0.3-0.1,0.4,0,0.5,0.3l0.4,1.8c0.1,0.3,0,0.6-0.1,0.8
				c-0.2,0.3-0.4,0.4-0.7,0.5l-6.8,1.5c-0.3,0.1-0.6,0-0.9-0.1c-0.3-0.2-0.4-0.4-0.5-0.7l-2.2-9.8l-0.4,0.1c-0.3,0.1-0.4,0-0.5-0.3
				l-0.4-1.7C326.8,507.5,326.9,507.4,327.1,507.3z"/>
			<path class="st0" d="M337.9,504.8l5.3-1.3c0.4-0.1,0.8-0.1,1.2-0.2c0.6,0,1.2,0.1,1.7,0.3c0.5,0.2,1,0.5,1.4,1
				c0.4,0.5,0.7,1,0.8,1.7l0,0.1c0.1,0.5,0.2,1.1,0.1,1.6c-0.1,0.5-0.2,0.9-0.4,1.3c-0.2,0.3-0.4,0.7-0.7,0.9l2.8,3.1l0.4-0.1
				c0.3-0.1,0.4,0,0.5,0.3l0.4,1.7c0.1,0.3,0,0.4-0.3,0.5l-1.7,0.4c-0.2,0-0.3,0-0.4-0.1l-4-4.5l-2.2,0.5l1.3,5
				c0.1,0.3,0,0.4-0.3,0.5l-1.7,0.4c-0.3,0.1-0.4,0-0.5-0.3l-2.6-10.4l-0.4,0.1c-0.3,0.1-0.4,0-0.5-0.3l-0.4-1.7
				C337.6,505.1,337.7,504.9,337.9,504.8z M341.4,506.6l0.7,2.9l2.4-0.6c0.4-0.1,0.7-0.3,1-0.6c0.3-0.3,0.3-0.7,0.2-1.2
				c-0.1-0.4-0.3-0.7-0.7-0.9c-0.4-0.2-0.8-0.3-1.2-0.2L341.4,506.6z"/>
			<path class="st0" d="M357.9,513.3l-0.5-1.7c-0.1-0.3,0-0.4,0.3-0.5l0.4-0.1l-2.4-8.3l-0.4,0.1c-0.3,0.1-0.4,0-0.5-0.3l-0.5-1.6
				c-0.1-0.3,0-0.4,0.3-0.5l2.8-0.8c2.1-0.5,3.9-0.3,5.4,0.6c1.5,0.9,2.5,2.3,3,4l0,0c0.5,1.8,0.4,3.4-0.2,5
				c-0.6,1.6-2.1,2.7-4.3,3.4l-2.8,0.8C358.1,513.7,358,513.6,357.9,513.3z M360.5,510.3c0.1,0,0.1,0,0.3-0.1c1.2-0.3,2-1,2.4-1.9
				c0.4-1,0.5-2.1,0.1-3.3l0-0.1c-0.4-1.4-1.1-2.3-2-2.8c-0.9-0.5-1.9-0.6-3.1-0.2l-0.2,0L360.5,510.3z"/>
			<path class="st0" d="M365.3,497.4l8.1-2.6c0.3-0.1,0.6-0.1,0.9,0.1c0.3,0.1,0.5,0.4,0.6,0.7l0.5,1.7c0.1,0.3,0,0.4-0.3,0.5
				l-1.5,0.5c-0.3,0.1-0.4,0-0.5-0.3l-0.1-0.4l-4,1.3l0.9,2.9l3.7-1.2c0.3-0.1,0.4,0,0.5,0.3l0.5,1.6c0.1,0.3,0,0.4-0.3,0.5
				l-3.7,1.2l0.9,2.9l4-1.3l-0.1-0.4c-0.1-0.3,0-0.4,0.3-0.5l1.5-0.5c0.3-0.1,0.4,0,0.5,0.3l0.5,1.7c0.1,0.3,0.1,0.6-0.1,0.9
				c-0.1,0.3-0.4,0.5-0.7,0.5l-6.6,2.1c-0.3,0.1-0.6,0.1-0.9-0.1c-0.3-0.1-0.5-0.4-0.6-0.7l-3-9.6l-0.4,0.1c-0.3,0.1-0.4,0-0.5-0.3
				l-0.5-1.6C364.9,497.6,365,497.4,365.3,497.4z"/>
			<path class="st0" d="M385.5,504l-3.3-9.5l-0.4,0.1c-0.3,0.1-0.4,0-0.5-0.2l-0.6-1.6c-0.1-0.3,0-0.4,0.2-0.5l1.7-0.6
				c0.3-0.1,0.6-0.1,0.9,0.1c0.3,0.1,0.5,0.3,0.6,0.6l3.3,9.5l4-1.4l-0.1-0.4c-0.1-0.3,0-0.4,0.3-0.5l1.5-0.5c0.3-0.1,0.4,0,0.5,0.3
				l0.6,1.7c0.1,0.3,0.1,0.6-0.1,0.9c-0.1,0.3-0.4,0.5-0.6,0.6l-6.6,2.3c-0.3,0.1-0.6,0.1-0.9,0C385.7,504.5,385.6,504.3,385.5,504z
				"/>
			<path class="st0" d="M401.7,495.5l-3.5,1.3l0.1,3c0,0.5-0.2,0.9-0.7,1.1l-1.3,0.5c-0.3,0.1-0.4,0-0.5-0.2l-0.6-1.6
				c-0.1-0.3,0-0.4,0.2-0.5l0.4-0.1l-0.5-11.4c0-0.2,0.1-0.3,0.3-0.4l1.9-0.7c0.2-0.1,0.3,0,0.5,0.1l7.2,8.9l0.4-0.1
				c0.3-0.1,0.4,0,0.5,0.2l0.6,1.6c0.1,0.2,0,0.4-0.2,0.5l-1.4,0.5c-0.5,0.2-0.9,0.1-1.3-0.3L401.7,495.5z M398,494.1l2-0.8
				l-2.2-2.7L398,494.1z"/>
			<path class="st0" d="M412.8,494.7l-0.7-1.6c-0.1-0.3,0-0.4,0.2-0.5l0.4-0.2l-4.1-9.9c-0.1-0.3,0-0.4,0.2-0.5l1.8-0.7
				c0.1-0.1,0.3,0,0.4,0l8.3,6l-2.9-7.2c-0.1-0.3-0.1-0.6,0-0.9c0.1-0.3,0.3-0.5,0.6-0.6l1.8-0.7c0.2-0.1,0.4,0,0.5,0.2l0.7,1.6
				c0.1,0.2,0,0.4-0.2,0.5l-0.4,0.2l4.1,9.9c0.1,0.2,0,0.4-0.2,0.5l-1.8,0.7c-0.1,0.1-0.3,0-0.4,0l-8.3-6l2.9,7.2
				c0.1,0.3,0.1,0.6,0,0.9c-0.1,0.3-0.3,0.5-0.6,0.6l-1.7,0.7C413.1,495,412.9,494.9,412.8,494.7z"/>
			<path class="st0" d="M431.2,483.4l-3.5,1.5l0.3,3c0.1,0.5-0.2,0.9-0.7,1.1l-1.3,0.6c-0.2,0.1-0.4,0-0.5-0.2l-0.7-1.6
				c-0.1-0.2,0-0.4,0.2-0.5l0.4-0.2l-1.2-11.3c0-0.2,0.1-0.3,0.2-0.4l1.8-0.8c0.2-0.1,0.3,0,0.5,0.1l7.7,8.5l0.4-0.2
				c0.2-0.1,0.4,0,0.5,0.2l0.7,1.6c0.1,0.2,0,0.4-0.2,0.5l-1.4,0.6c-0.5,0.2-0.9,0.1-1.3-0.3L431.2,483.4z M427.4,482.3l2-0.9
				l-2.3-2.6L427.4,482.3z"/>
			<path class="st0" d="M439.3,483.4l-4.4-9.8l-1.5,0.7l0.2,0.4c0.1,0.2,0,0.4-0.2,0.5l-1.6,0.7c-0.2,0.1-0.4,0-0.5-0.2l-0.7-1.6
				c-0.1-0.3-0.1-0.6,0-0.9c0.1-0.3,0.3-0.5,0.6-0.6l8-3.6c0.3-0.1,0.6-0.1,0.9,0c0.3,0.1,0.5,0.3,0.6,0.6l0.7,1.6
				c0.1,0.2,0,0.4-0.2,0.5l-1.6,0.7c-0.2,0.1-0.4,0-0.5-0.2l-0.2-0.4l-1.6,0.7l4.4,9.8c0.1,0.2,0,0.4-0.2,0.5l-1.6,0.7
				C439.6,483.7,439.4,483.6,439.3,483.4z"/>
			<path class="st0" d="M441.3,467.9l1.6-0.8c0.3-0.1,0.6-0.2,0.9,0c0.3,0.1,0.5,0.3,0.6,0.6l3.2,6.6c0.3,0.5,0.6,1,0.9,1.3
				c0.4,0.3,0.7,0.5,1.2,0.5c0.5,0.1,1,0,1.6-0.3c0.5-0.3,0.9-0.6,1.2-1c0.2-0.4,0.3-0.9,0.3-1.4c0-0.4-0.2-0.9-0.4-1.3l-3.2-6.6
				c-0.1-0.3-0.1-0.6,0-0.9c0.1-0.3,0.3-0.5,0.6-0.6l1.7-0.8c0.2-0.1,0.4-0.1,0.5,0.2l0.7,1.5c0.1,0.2,0.1,0.4-0.2,0.5l-0.4,0.2
				l2.6,5.4l0,0.1c0.2,0.4,0.3,0.8,0.5,1.3c0.1,0.5,0.2,1,0.2,1.5c0,0.6-0.1,1.2-0.3,1.7c-0.3,0.6-0.6,1.1-1.1,1.5
				c-0.5,0.4-1,0.8-1.6,1.1c-0.6,0.3-1.2,0.5-1.7,0.6c-0.5,0.1-1,0.1-1.5,0c-0.5-0.1-1.1-0.3-1.6-0.6c-0.4-0.3-0.8-0.6-1.2-1
				c-0.4-0.4-0.7-1-1-1.6l-2.6-5.4l-0.4,0.2c-0.2,0.1-0.4,0.1-0.5-0.2l-0.7-1.5C441,468.2,441.1,468,441.3,467.9z"/>
			<path class="st0" d="M453.1,462.2l4.9-2.4c0.3-0.2,0.7-0.3,1.1-0.4c0.6-0.1,1.2-0.1,1.7,0c0.6,0.1,1.1,0.3,1.5,0.6
				c0.5,0.4,0.9,0.9,1.2,1.5l0,0.1c0.2,0.5,0.4,1,0.4,1.5c0,0.5,0,0.9-0.2,1.3c-0.1,0.4-0.3,0.7-0.5,1.1l3.4,2.4l0.4-0.2
				c0.2-0.1,0.4-0.1,0.5,0.2l0.8,1.5c0.1,0.2,0.1,0.4-0.2,0.5l-1.5,0.8c-0.2,0.1-0.3,0.1-0.4,0l-4.9-3.5l-2,1l2.3,4.6
				c0.1,0.2,0.1,0.4-0.2,0.5L460,474c-0.2,0.1-0.4,0.1-0.5-0.2l-4.8-9.6l-0.4,0.2c-0.2,0.1-0.4,0.1-0.5-0.2l-0.8-1.5
				C452.8,462.5,452.9,462.3,453.1,462.2z M456.9,463.1l1.4,2.7l2.2-1.1c0.3-0.2,0.6-0.5,0.8-0.8c0.2-0.4,0.2-0.8-0.1-1.2
				c-0.2-0.4-0.5-0.6-0.9-0.8c-0.4-0.1-0.8-0.1-1.2,0.1L456.9,463.1z"/>
			<path class="st0" d="M474.9,462.2l-3.3,1.8l0.5,3c0.1,0.5-0.1,0.9-0.6,1.2l-1.3,0.7c-0.2,0.1-0.4,0.1-0.5-0.2l-0.8-1.5
				c-0.1-0.2-0.1-0.4,0.2-0.5l0.4-0.2l-2-11.2c0-0.2,0-0.3,0.2-0.4l1.8-0.9c0.2-0.1,0.3-0.1,0.5,0.1l8.3,7.9l0.4-0.2
				c0.2-0.1,0.4-0.1,0.5,0.2l0.8,1.5c0.1,0.2,0.1,0.4-0.2,0.5l-1.3,0.7c-0.5,0.3-0.9,0.2-1.3-0.2L474.9,462.2z M471.1,461.4l1.9-1
				l-2.5-2.4L471.1,461.4z"/>
			<path class="st0" d="M481.4,461.6l-4.8-8.8l-0.4,0.2c-0.2,0.1-0.4,0.1-0.5-0.2l-0.8-1.5c-0.1-0.2-0.1-0.4,0.2-0.6l1.6-0.9
				c0.3-0.1,0.6-0.2,0.9-0.1c0.3,0.1,0.5,0.3,0.7,0.5l4.8,8.8l3.7-2l-0.2-0.4c-0.1-0.2-0.1-0.4,0.2-0.6l1.4-0.8
				c0.2-0.1,0.4-0.1,0.5,0.2l0.9,1.6c0.1,0.3,0.2,0.6,0.1,0.9c-0.1,0.3-0.3,0.5-0.5,0.7l-6.1,3.3c-0.3,0.2-0.6,0.2-0.9,0.1
				C481.8,462.1,481.6,461.9,481.4,461.6z"/>
			<path class="st0" d="M484.8,445.5l7.4-4.2c0.3-0.2,0.6-0.2,0.9-0.1c0.3,0.1,0.5,0.3,0.7,0.5l0.9,1.6c0.1,0.2,0.1,0.4-0.2,0.5
				l-1.4,0.8c-0.2,0.1-0.4,0.1-0.6-0.1l-0.2-0.4l-3.7,2.1l1.5,2.7l3.3-1.9c0.2-0.1,0.4-0.1,0.5,0.1l0.8,1.5c0.1,0.2,0.1,0.4-0.2,0.5
				l-3.3,1.9l1.5,2.6l3.7-2.1l-0.2-0.4c-0.1-0.2-0.1-0.4,0.2-0.6l1.4-0.8c0.2-0.1,0.4-0.1,0.6,0.2l0.9,1.6c0.2,0.3,0.2,0.6,0.1,0.9
				c-0.1,0.3-0.3,0.5-0.5,0.7l-6.1,3.4c-0.3,0.2-0.6,0.2-0.9,0.1c-0.3-0.1-0.5-0.3-0.7-0.5l-5-8.7l-0.4,0.2
				c-0.2,0.1-0.4,0.1-0.5-0.1l-0.8-1.5C484.6,445.8,484.6,445.6,484.8,445.5z"/>
			<path class="st0" d="M502.9,435.7l0.1,2.2l0.5,9.7l4.1-2.4c0.2-0.1,0.4-0.1,0.6,0.1l0.9,1.5c0.1,0.2,0.1,0.4-0.1,0.5l-7.1,4.2
				c-0.1,0.1-0.3,0.1-0.4,0c-0.1,0-0.1-0.1-0.2-0.2c0,0,0-0.1-0.1-0.2l-0.6-11.9l-2.8,1.7l0.2,0.4c0.1,0.2,0.1,0.4-0.2,0.6l-1.5,0.9
				c-0.2,0.1-0.4,0.1-0.6-0.1l-0.9-1.6c-0.2-0.3-0.2-0.5-0.1-0.9c0.1-0.3,0.3-0.5,0.5-0.7l7.1-4.2c0.1-0.1,0.3-0.1,0.4,0
				c0.1,0,0.1,0.1,0.2,0.1C502.9,435.5,502.9,435.6,502.9,435.7z"/>
			<path class="st0" d="M515.4,439.1l-3.2,2l0.7,2.9c0.1,0.5,0,0.9-0.5,1.2l-1.2,0.7c-0.2,0.1-0.4,0.1-0.6-0.1l-0.9-1.5
				c-0.1-0.2-0.1-0.4,0.1-0.6l0.4-0.2l-2.7-11.1c0-0.2,0-0.3,0.2-0.4l1.7-1c0.2-0.1,0.3-0.1,0.5,0l8.8,7.4l0.4-0.2
				c0.2-0.1,0.4-0.1,0.6,0.1l0.9,1.5c0.1,0.2,0.1,0.4-0.1,0.5l-1.3,0.8c-0.5,0.3-0.9,0.3-1.3-0.1L515.4,439.1z M511.6,438.5l1.8-1.1
				l-2.7-2.3L511.6,438.5z"/>
		</g>
	</g>
	<g>
		<path class="st0" d="M583.9,384.3c4.9,0,8.9,3.8,8.9,8.7c0,4.9-3.9,8.8-8.9,8.8s-9-3.9-9-8.8C574.8,388.2,578.8,384.3,583.9,384.3
			L583.9,384.3z M583.8,386.1c-3.8,0-6.7,3.1-6.7,7c0,3.9,2.9,7,6.8,7c3.8,0.1,6.6-3.1,6.6-6.9C590.5,389.2,587.6,386.1,583.8,386.1
			L583.8,386.1z M582.4,397.6h-2v-8.7c0.8-0.1,1.9-0.3,3.3-0.3c1.6,0,2.4,0.3,3,0.7c0.5,0.4,0.9,1,0.9,1.9c0,1.1-0.8,1.8-1.8,2.1
			v0.1c0.8,0.3,1.3,1,1.5,2.1c0.3,1.3,0.5,1.8,0.6,2.1h-2.1c-0.3-0.3-0.4-1.1-0.7-2.1c-0.2-0.9-0.7-1.3-1.8-1.3h-1V397.6z
			 M582.5,392.7h1c1.1,0,2-0.4,2-1.3c0-0.8-0.6-1.3-1.9-1.3c-0.5,0-0.9,0.1-1.1,0.1V392.7z"/>
	</g>
</g>
</svg>
