<svg id="Layer_1" data-name="Layer 1" xmlns="http://www.w3.org/2000/svg" viewBox="0 0 300 300"><defs><style>.cls-1{fill:#00b3e6;}.cls-2{fill:#135eab;}</style></defs><path class="cls-1" d="M29.93,145.42a1,1,0,1,0,1.21.68,1,1,0,0,0-1.21-.68"/><path class="cls-2" d="M29.42,142.58a1,1,0,0,0-.81,1.13,1,1,0,0,0,1.94-.31,1,1,0,0,0-1.13-.82"/><path class="cls-2" d="M29.33,141.67a1,1,0,1,0-.1-2,1,1,0,0,0,.1,2"/><path class="cls-1" d="M30,154.92a1,1,0,1,0,1.35.32,1,1,0,0,0-1.35-.32"/><path class="cls-2" d="M28.69,152.34a1,1,0,0,0-.47,1.31,1,1,0,0,0,1.32.47,1,1,0,0,0-.85-1.78"/><path class="cls-2" d="M28.34,151.5a1,1,0,0,0,.61-1.26,1,1,0,0,0-1.86.65,1,1,0,0,0,1.25.61"/><path class="cls-2" d="M30.17,161.2a1,1,0,1,0-1.38-.23,1,1,0,0,0,1.38.23"/><path class="cls-2" d="M177,137.22l-7.18,17.23L162,137.22H148.24a12.75,12.75,0,0,0-2.19-.19,10,10,0,0,0-8,3.36,12.33,12.33,0,0,0-2.93,8.41,12.13,12.13,0,0,0,2.86,8.35,10.08,10.08,0,0,0,1.4,1.31h-5.07c-1.59,0-2.39-.76-2.39-2.29V145.43a9.21,9.21,0,0,0-2.29-6.43,8,8,0,0,0-6.25-2.53q-5.15,0-8.06,5v-4.22h-4.88v18.95c0,1.53-.8,2.29-2.39,2.29h-.52v2h7.79v-12.9a8.83,8.83,0,0,1,2-6.05,6,6,0,0,1,4.69-2.11,5,5,0,0,1,3.68,1.39,5.1,5.1,0,0,1,1.38,3.77v15.9h17.45a12.38,12.38,0,0,0,1.51.09,10.13,10.13,0,0,0,8-3.42,13.6,13.6,0,0,0,0-16.69,10.64,10.64,0,0,0-1.34-1.27h3.56c.91,0,1.83,1,2.77,2.95l8.67,18.39h1.6l10.46-23.31Zm-30.78,21.24h-.58c-3.5-.17-5.27-3.32-5.27-9.5q0-9.5,5.56-9.49t5.56,9.49c0,6.18-1.76,9.33-5.27,9.5"/><path class="cls-2" d="M189,137a10,10,0,0,0-7.95,3.36,12.33,12.33,0,0,0-2.93,8.41,12.13,12.13,0,0,0,2.86,8.35,11.09,11.09,0,0,0,16,0,13.6,13.6,0,0,0,0-16.69,10.12,10.12,0,0,0-8-3.43m0,21.67q-5.78,0-5.77-9.9T189,139q5.76,0,5.77,9.85T189,158.7"/><path class="cls-2" d="M217,160.53h-8.31a4.33,4.33,0,0,1-2.67-.61,2,2,0,0,1-.61-1.69c0-1.5,2.35-2.25,7-2.25a11.45,11.45,0,0,0,7.63-2.67,8.66,8.66,0,0,0,3.16-6.95,8.9,8.9,0,0,0-3-6.61,10.14,10.14,0,0,0-7.29-2.86,10.82,10.82,0,0,0-7.22,2.67,8.66,8.66,0,0,0-3.28,6.8,10.56,10.56,0,0,0,1.12,4.88,6.87,6.87,0,0,0,3.57,3.38v.09c-3.54.75-5.3,2.43-5.3,5s1.36,4.11,4.08,4.64c.93.35,3.82.39,8.65.12s7.24.87,7.24,3.4a3.59,3.59,0,0,1-1.92,3l1.41,1.92a6.91,6.91,0,0,0,4-6.52q0-5.73-8.34-5.72m-8-19.46a4.62,4.62,0,0,1,3.82-2.11,4.68,4.68,0,0,1,3.87,2.11,10.45,10.45,0,0,1,0,11,4.71,4.71,0,0,1-3.87,2.11,4.65,4.65,0,0,1-3.82-2.11,10.45,10.45,0,0,1,0-11"/><path class="cls-2" d="M234,158a2.11,2.11,0,0,1-.63-1.76v-19h-4.83V156a2.37,2.37,0,0,1-.63,1.94,3.63,3.63,0,0,1-2.18.49h-.33v2h10.88v-2h0A3.77,3.77,0,0,1,234,158"/><path class="cls-2" d="M230.74,133.5a3.11,3.11,0,0,0,2.23-.87,2.78,2.78,0,0,0,.92-2.09,2.83,2.83,0,0,0-.92-2.13,3.11,3.11,0,0,0-2.23-.87,3.21,3.21,0,0,0-2.25.87,2.81,2.81,0,0,0-.94,2.13,2.76,2.76,0,0,0,.94,2.09,3.21,3.21,0,0,0,2.25.87"/><path class="cls-2" d="M251.91,146.93l-5-1c-3-.62-4.55-1.75-4.55-3.37a3.06,3.06,0,0,1,1.5-2.68,5.25,5.25,0,0,1,3.14-.84c2.22.09,3.35,1.44,3.38,4H255a5.15,5.15,0,0,0-2.86-4.78,9.27,9.27,0,0,0-5.11-1.13,8.26,8.26,0,0,0-5.33,1.85,6,6,0,0,0-2,4.77,6.19,6.19,0,0,0,1.22,4.08,8,8,0,0,0,4.6,2.34l3.89.84a14.71,14.71,0,0,1,4.22,1.46,3,3,0,0,1,1.36,2.62,3.1,3.1,0,0,1-1.69,2.73,6,6,0,0,1-3.33.93q-6.7,0-8.91-7.41h-1.73v9.1H241c0-1.56.32-2.34.94-2.34a1.11,1.11,0,0,1,.61.23,11.15,11.15,0,0,0,7.18,2.35,8.78,8.78,0,0,0,5.88-2,6.66,6.66,0,0,0,2.32-5.35q0-5.25-6-6.47"/><path class="cls-2" d="M271.09,156.07a3.3,3.3,0,0,1-2.91,1.69c-2.19,0-3.28-1.26-3.28-3.8V139.33h5.21v-2.2H264.9v-9.9h-4.74v28.14a4.72,4.72,0,0,0,1.81,3.8,6.69,6.69,0,0,0,4.43,1.5q4.68,0,6.57-3.28Z"/><path class="cls-1" d="M113.42,169.11H115a.57.57,0,0,0,0,.12v.26a1.77,1.77,0,0,1-.49,1.34,1.89,1.89,0,0,1-1.39.47,2.72,2.72,0,0,1-.89-.14,1.84,1.84,0,0,1-.68-.45,1.88,1.88,0,0,1-.45-.69,2.41,2.41,0,0,1-.15-.85,2.34,2.34,0,0,1,.15-.85,2,2,0,0,1,.47-.69,2.05,2.05,0,0,1,.7-.45,2.41,2.41,0,0,1,.85-.15,2,2,0,0,1,.87.18,1.85,1.85,0,0,1,.67.53l-.48.37a1.29,1.29,0,0,0-1-.48,1.45,1.45,0,0,0-1.08.43,1.49,1.49,0,0,0-.42,1.1,1.52,1.52,0,0,0,.42,1.12,1.42,1.42,0,0,0,1.08.43,1.39,1.39,0,0,0,.89-.26.88.88,0,0,0,.33-.72v-.06h-1Z"/><polygon class="cls-1" points="117.51 171.19 117.51 167.12 118.17 167.12 118.17 170.6 119.65 170.6 119.65 171.19 117.51 171.19"/><path class="cls-1" d="M126.13,169.17a2.26,2.26,0,0,1-.16.82,2,2,0,0,1-.48.69,2.07,2.07,0,0,1-.71.46,2.12,2.12,0,0,1-.83.16,2.17,2.17,0,0,1-1.54-.62,1.89,1.89,0,0,1-.47-.69,2,2,0,0,1-.17-.82,2.12,2.12,0,0,1,.17-.83,2,2,0,0,1,.47-.69,2.23,2.23,0,0,1,.71-.46A2.12,2.12,0,0,1,124,167a2.17,2.17,0,0,1,.84.16,2.3,2.3,0,0,1,.7.46,2.19,2.19,0,0,1,.48.7,2.26,2.26,0,0,1,.16.82m-.69,0a1.51,1.51,0,0,0-.44-1.09,1.31,1.31,0,0,0-.48-.32,1.49,1.49,0,0,0-1.62.32,1.47,1.47,0,0,0-.32.5,1.44,1.44,0,0,0-.11.59,1.43,1.43,0,0,0,.11.58,1.34,1.34,0,0,0,.32.49,1.45,1.45,0,0,0,.48.34,1.53,1.53,0,0,0,1.14,0,1.45,1.45,0,0,0,.48-.34,1.51,1.51,0,0,0,.33-.49,1.62,1.62,0,0,0,.11-.58"/><path class="cls-1" d="M128.65,171.2v-4.08h1a3.33,3.33,0,0,1,.65,0,.85.85,0,0,1,.36.16.94.94,0,0,1,.29.36,1.18,1.18,0,0,1,.11.5.93.93,0,0,1-.15.54.79.79,0,0,1-.44.31.8.8,0,0,1,.56.32,1.08,1.08,0,0,1,.2.68,1.26,1.26,0,0,1-.08.47,1.09,1.09,0,0,1-.25.38,1,1,0,0,1-.41.24,3.89,3.89,0,0,1-.83.07Zm.65-2.36h.25a1.23,1.23,0,0,0,.67-.13.47.47,0,0,0,.2-.43.54.54,0,0,0-.18-.47,1.22,1.22,0,0,0-.69-.14h-.25Zm0,1.8h.23a3.27,3.27,0,0,0,.52,0,.57.57,0,0,0,.27-.09.5.5,0,0,0,.19-.22.6.6,0,0,0,.07-.3.74.74,0,0,0-.08-.34.57.57,0,0,0-.23-.23l-.22-.07-.32,0h-.43Z"/><path class="cls-1" d="M136.39,171.2l-.46-1h-1.61l-.48,1h-.69l2-4.24,2,4.24Zm-1.83-1.6h1.14l-.42-.93c0-.06-.05-.13-.07-.21a1.47,1.47,0,0,1-.08-.25c0,.08,0,.17-.07.24s-.05.15-.08.22Z"/><polygon class="cls-1" points="139.24 171.19 139.24 167.12 139.91 167.12 139.91 170.6 141.38 170.6 141.38 171.19 139.24 171.19"/><rect class="cls-1" x="147.18" y="167.12" width="0.66" height="4.07"/><path class="cls-1" d="M150.56,171.2V167l2.59,2.49.22.23.22.27v-2.83h.62v4.23l-2.64-2.53a2.18,2.18,0,0,1-.21-.22,2.51,2.51,0,0,1-.19-.24v2.84Z"/><path class="cls-1" d="M156.91,171.2V167l2.58,2.49a2.39,2.39,0,0,1,.22.23l.23.27v-2.83h.61v4.23l-2.64-2.53-.21-.22a2.5,2.5,0,0,1-.18-.24v2.84Z"/><path class="cls-1" d="M167.43,169.17a2.08,2.08,0,0,1-.17.82,2,2,0,0,1-.47.69,2.17,2.17,0,0,1-.71.46,2.12,2.12,0,0,1-.83.16,2.17,2.17,0,0,1-1.54-.62,2,2,0,0,1-.48-.69,2.22,2.22,0,0,1-.16-.82,2.31,2.31,0,0,1,.16-.83,2.15,2.15,0,0,1,.48-.69,2.17,2.17,0,0,1,1.54-.62,2.12,2.12,0,0,1,.83.16,2.23,2.23,0,0,1,.71.46,2.16,2.16,0,0,1,.47.7,2.08,2.08,0,0,1,.17.82m-.69,0a1.63,1.63,0,0,0-.44-1.09,1.49,1.49,0,0,0-2.1,0,1.5,1.5,0,0,0-.33.5,1.61,1.61,0,0,0,0,1.17,1.37,1.37,0,0,0,.33.49,1.45,1.45,0,0,0,.48.34,1.53,1.53,0,0,0,1.14,0,1.45,1.45,0,0,0,.48-.34,1.34,1.34,0,0,0,.32-.49,1.43,1.43,0,0,0,.12-.58"/><path class="cls-1" d="M171.24,171.35l-1.81-4.23h.69l.91,2.17c.05.13.1.25.13.35a2,2,0,0,1,.08.31c0-.11.06-.21.1-.32a2.92,2.92,0,0,1,.13-.34l.91-2.17h.68Z"/><path class="cls-1" d="M177.93,171.2l-.46-1h-1.62l-.47,1h-.69l2-4.24,2,4.24Zm-1.83-1.6h1.13l-.41-.93c0-.06,0-.13-.08-.21l-.08-.25a1.68,1.68,0,0,1-.07.24c0,.08-.05.15-.07.22Z"/><polygon class="cls-1" points="182.09 167.69 182.09 171.19 181.43 171.19 181.43 167.69 180.35 167.69 180.35 167.12 183.17 167.12 183.17 167.69 182.09 167.69"/><rect class="cls-1" x="185.46" y="167.12" width="0.66" height="4.07"/><path class="cls-1" d="M193,169.17a2.07,2.07,0,0,1-.16.82,2,2,0,0,1-.48.69,2.07,2.07,0,0,1-.71.46,2.1,2.1,0,0,1-.82.16,2.13,2.13,0,0,1-.84-.16,2.23,2.23,0,0,1-.71-.46,2.07,2.07,0,0,1-.63-1.51,2.08,2.08,0,0,1,.63-1.52,2.23,2.23,0,0,1,.71-.46,2.26,2.26,0,0,1,1.67,0,2.18,2.18,0,0,1,1.18,1.16,2.07,2.07,0,0,1,.16.82m-.69,0a1.51,1.51,0,0,0-.44-1.09,1.27,1.27,0,0,0-.47-.32,1.44,1.44,0,0,0-1.15,0,1.39,1.39,0,0,0-.48.32,1.47,1.47,0,0,0-.32.5,1.44,1.44,0,0,0-.11.59,1.43,1.43,0,0,0,.11.58,1.34,1.34,0,0,0,.32.49,1.45,1.45,0,0,0,.48.34,1.58,1.58,0,0,0,.58.11,1.55,1.55,0,0,0,.56-.11,1.45,1.45,0,0,0,.48-.34,1.51,1.51,0,0,0,.33-.49,1.62,1.62,0,0,0,.11-.58"/><path class="cls-1" d="M195.54,171.2V167l2.58,2.49.22.23.23.27v-2.83h.61v4.23l-2.64-2.53-.21-.22a1.5,1.5,0,0,1-.18-.24v2.84Z"/><path class="cls-2" d="M79.57,166.53a1,1,0,1,0-1.22.67,1,1,0,0,0,1.22-.67"/><path class="cls-1" d="M80.25,163.62a1,1,0,0,0-.8-1.14,1,1,0,0,0-1.14.8,1,1,0,0,0,1.94.34"/><path class="cls-1" d="M78.58,169.34a1,1,0,0,0-1.82-.75,1,1,0,1,0,1.82.75"/><path class="cls-1" d="M75.7,174.57a1,1,0,1,0-1.37.24,1,1,0,0,0,1.37-.24"/><path class="cls-1" d="M80.32,154.69a1,1,0,1,0-1.94.31,1,1,0,0,0,1.94-.31"/><path class="cls-1" d="M80.6,160.65a1,1,0,0,0-.92-1.05,1,1,0,1,0,.92,1.05"/><path class="cls-1" d="M80.62,157.66a1,1,0,1,0-.93,1,1,1,0,0,0,.93-1"/><path class="cls-1" d="M77.28,172a1,1,0,1,0-1.33.38,1,1,0,0,0,1.33-.38"/><path class="cls-1" d="M63,183.36a1,1,0,0,0,1.29.51,1,1,0,1,0-.78-1.8,1,1,0,0,0-.51,1.29"/><path class="cls-2" d="M60.21,184.25a1,1,0,1,0,.65-1.23,1,1,0,0,0-.65,1.23"/><path class="cls-2" d="M73.85,176.92a1,1,0,1,0-1.39.08,1,1,0,0,0,1.39-.08"/><path class="cls-2" d="M59.32,184.47a1,1,0,0,0-1.15-.79,1,1,0,1,0,.36,1.94,1,1,0,0,0,.79-1.15"/><path class="cls-1" d="M71.75,179a1,1,0,1,0-1.32-1.45A1,1,0,1,0,71.75,179"/><path class="cls-1" d="M69.43,180.93a1,1,0,1,0-1.38-.22,1,1,0,0,0,1.38.22"/><path class="cls-2" d="M65.57,182.17a1,1,0,1,0,.37-1.34,1,1,0,0,0-.37,1.34"/><path class="cls-2" d="M83.56,161.17a1,1,0,0,0-1-1,1,1,0,1,0,1,1"/><path class="cls-1" d="M83.38,158.19a1,1,0,1,0-.86,1.09,1,1,0,0,0,.86-1.09"/><path class="cls-1" d="M83.4,164.16a1,1,0,1,0-1.09.87,1,1,0,0,0,1.09-.87"/><path class="cls-1" d="M82.11,170a1,1,0,0,0-1.86-.63,1,1,0,1,0,1.86.63"/><path class="cls-1" d="M80.93,149.6a1,1,0,1,0-.46,1.31,1,1,0,0,0,.46-1.31"/><path class="cls-1" d="M82.88,155.24a1,1,0,0,0-1.17-.74,1,1,0,1,0,.43,1.92,1,1,0,0,0,.74-1.18"/><path class="cls-1" d="M82.06,152.37a1,1,0,0,0-1.25-.61,1,1,0,0,0-.6,1.25,1,1,0,0,0,1.25.61,1,1,0,0,0,.6-1.25"/><path class="cls-1" d="M82.91,167.1a1,1,0,0,0-.74-1.17,1,1,0,1,0-.43,1.92,1,1,0,0,0,1.17-.75"/><path class="cls-1" d="M72.36,182a1,1,0,0,0,1.38.13,1,1,0,0,0,.13-1.39,1,1,0,0,0-1.39-.13,1,1,0,0,0-.12,1.39"/><path class="cls-2" d="M70,183.64a1,1,0,0,0,1.36.28,1,1,0,0,0,.28-1.37A1,1,0,1,0,70,183.64"/><path class="cls-2" d="M81,172.75a1,1,0,0,0-.47-1.3,1,1,0,1,0-.83,1.78,1,1,0,0,0,1.3-.48"/><path class="cls-2" d="M69.19,184.1a1,1,0,1,0-.43,1.32,1,1,0,0,0,.43-1.32"/><path class="cls-1" d="M79.58,175.39a1,1,0,1,0-1.68-1,1,1,0,0,0,1.68,1"/><path class="cls-1" d="M77.89,177.85a1,1,0,0,0-.18-1.38,1,1,0,0,0-1.38.17,1,1,0,0,0,1.56,1.21"/><path class="cls-2" d="M74.54,180.13a1,1,0,1,0,0-1.39,1,1,0,0,0,0,1.39"/><path class="cls-2" d="M85.87,154.91a1,1,0,1,0-.67,1.22,1,1,0,0,0,.67-1.22"/><path class="cls-1" d="M84.86,152.1a1,1,0,1,0-.52,1.29,1,1,0,0,0,.52-1.29"/><path class="cls-1" d="M86.56,157.82a1,1,0,1,0-.8,1.14,1,1,0,0,0,.8-1.14"/><path class="cls-1" d="M87,163.77a1,1,0,1,0-1,.94,1,1,0,0,0,1-.94"/><path class="cls-1" d="M80.09,144.55a1,1,0,1,0-.08,1.39,1,1,0,0,0,.08-1.39"/><path class="cls-1" d="M83.55,149.41a1,1,0,1,0-.38,1.34,1,1,0,0,0,.38-1.34"/><path class="cls-1" d="M82,146.89a1,1,0,1,0-.24,1.37,1,1,0,0,0,.24-1.37"/><path class="cls-1" d="M86.93,160.78a1,1,0,0,0-1.05-.91,1,1,0,0,0-.92,1,1,1,0,0,0,1.05.91,1,1,0,0,0,.92-1.05"/><path class="cls-1" d="M81,178.06a1,1,0,0,0,1.1-1.63,1,1,0,0,0-1.37.27,1,1,0,0,0,.27,1.36"/><path class="cls-2" d="M79.18,180.29a1,1,0,0,0,1.38-.11,1,1,0,1,0-1.5-1.27,1,1,0,0,0,.12,1.38"/><path class="cls-2" d="M86.68,166.74a1,1,0,1,0-1.12.83,1,1,0,0,0,1.12-.83"/><path class="cls-2" d="M78.55,181a1,1,0,1,0,0,1.39,1,1,0,0,0,0-1.39"/><path class="cls-1" d="M86.06,169.67a1,1,0,1,0-1.2.69,1,1,0,0,0,1.2-.69"/><path class="cls-1" d="M85.13,172.51a1,1,0,1,0-1.27.56,1,1,0,0,0,1.27-.56"/><path class="cls-2" d="M82.57,175.64a1,1,0,0,0,.91-1.74,1,1,0,1,0-.91,1.74"/><path class="cls-2" d="M86.32,148.25A1,1,0,0,0,85,148a1,1,0,1,0,1.36.29"/><path class="cls-1" d="M84.56,145.84A1,1,0,1,0,83,147.08a1,1,0,0,0,1.52-1.24"/><path class="cls-1" d="M87.8,150.85a1,1,0,0,0-1.32-.44,1,1,0,0,0,.88,1.76,1,1,0,0,0,.44-1.32"/><path class="cls-1" d="M89.87,156.44a1,1,0,0,0-1.19-.71,1,1,0,1,0,1.19.71"/><path class="cls-1" d="M77.86,139.94a1,1,0,0,0-1.36.32,1,1,0,1,0,1.36-.32"/><path class="cls-1" d="M82.55,143.63a1,1,0,1,0,0,1.39,1,1,0,0,0,0-1.39"/><path class="cls-1" d="M80.3,141.66a1,1,0,1,0,.17,1.38,1,1,0,0,0-.17-1.38"/><path class="cls-1" d="M89,153.59a1,1,0,1,0-1.84.68,1,1,0,1,0,1.84-.68"/><path class="cls-1" d="M88.18,171.84a1,1,0,1,0-.64-1.24,1,1,0,0,0,.64,1.24"/><path class="cls-2" d="M87.06,174.49a1,1,0,1,0-.5-1.3,1,1,0,0,0,.5,1.3"/><path class="cls-2" d="M90.43,159.38a1,1,0,1,0-1.94.26,1,1,0,1,0,1.94-.26"/><path class="cls-2" d="M86.64,175.31a1,1,0,0,0-1.34.35,1,1,0,1,0,1.7,1,1,1,0,0,0-.36-1.34"/><path class="cls-1" d="M90.67,162.36a1,1,0,0,0-1-1,1,1,0,0,0-1,1,1,1,0,0,0,2,0"/><path class="cls-1" d="M90.58,165.34a1,1,0,0,0-.9-1.06,1,1,0,0,0-1.06.89,1,1,0,0,0,.89,1.07,1,1,0,0,0,1.07-.9"/><path class="cls-2" d="M89,169.07a1,1,0,1,0-.77-1.15,1,1,0,0,0,.77,1.15"/><path class="cls-2" d="M84.88,141.73a1,1,0,1,0,.1,1.39,1,1,0,0,0-.1-1.39"/><path class="cls-1" d="M82.51,139.91a1,1,0,0,0-1.11,1.63,1,1,0,0,0,1.11-1.63"/><path class="cls-1" d="M87,143.81a1,1,0,1,0,0,1.39,1,1,0,0,0,0-1.39"/><path class="cls-1" d="M90.6,148.59a1,1,0,1,0-.36,1.35,1,1,0,0,0,.36-1.35"/><path class="cls-1" d="M74.41,136.15a1,1,0,1,0,.69,1.21,1,1,0,0,0-.69-1.21"/><path class="cls-1" d="M80,138.36a1,1,0,1,0,.41,1.33,1,1,0,0,0-.41-1.33"/><path class="cls-1" d="M77.24,137.1a1,1,0,0,0-.73,1.83,1,1,0,1,0,.73-1.83"/><path class="cls-1" d="M89,146.1a1,1,0,0,0-1.38-.2,1,1,0,0,0-.2,1.37,1,1,0,0,0,1.37.21A1,1,0,0,0,89,146.1"/><path class="cls-1" d="M93.31,163.84a1,1,0,1,0,0-2,1,1,0,0,0,0,2"/><path class="cls-2" d="M93,166.7a1,1,0,1,0-.85-1.11A1,1,0,0,0,93,166.7"/><path class="cls-2" d="M92,151.25a1,1,0,1,0-.5,1.3,1,1,0,0,0,.5-1.3"/><path class="cls-2" d="M92.82,167.6a1,1,0,1,0,.72,1.19,1,1,0,0,0-.72-1.19"/><path class="cls-1" d="M93,154a1,1,0,1,0-.64,1.24A1,1,0,0,0,93,154"/><path class="cls-1" d="M93.78,156.93a1,1,0,1,0-.77,1.16,1,1,0,0,0,.77-1.16"/><path class="cls-2" d="M93.32,161a1,1,0,1,0-1.07-.9,1,1,0,0,0,1.07.9"/><path class="cls-2" d="M81.65,135.89a1,1,0,0,0-.81,1.79,1,1,0,0,0,.81-1.79"/><path class="cls-1" d="M78.87,134.81a1,1,0,1,0,.63,1.24,1,1,0,0,0-.63-1.24"/><path class="cls-1" d="M84.3,137.27a1,1,0,0,0-1,1.69,1,1,0,1,0,1-1.69"/><path class="cls-1" d="M89.07,140.85a1,1,0,1,0,.05,1.4,1,1,0,0,0-.05-1.4"/><path class="cls-1" d="M70,133.48a1,1,0,1,0,1,1,1,1,0,0,0-1-1"/><path class="cls-1" d="M76,134a1,1,0,1,0,.76,1.17A1,1,0,0,0,76,134"/><path class="cls-1" d="M73,133.6a1,1,0,1,0,.89,1.07A1,1,0,0,0,73,133.6"/><path class="cls-1" d="M86.79,138.93a1,1,0,1,0,.19,1.38,1,1,0,0,0-.19-1.38"/><path class="cls-1" d="M96,154.72a1,1,0,0,0,.69-1.21,1,1,0,1,0-1.9.52,1,1,0,0,0,1.21.69"/><path class="cls-2" d="M96.48,157.55a1,1,0,1,0-1.13-.82,1,1,0,0,0,1.13.82"/><path class="cls-2" d="M91.13,143a1,1,0,1,0-.11,1.39,1,1,0,0,0,.11-1.39"/><path class="cls-2" d="M96.57,158.47a1,1,0,1,0,1,.93,1,1,0,0,0-1-.93"/><path class="cls-1" d="M92.94,145.4a1,1,0,1,0-1.62,1.1,1,1,0,0,0,1.62-1.1"/><path class="cls-1" d="M94.48,148a1,1,0,1,0-1.74.92,1,1,0,0,0,1.74-.92"/><path class="cls-2" d="M95.18,152a1,1,0,1,0-1.28-.55,1,1,0,0,0,1.28.55"/><path class="cls-2" d="M76.91,131.19a1,1,0,1,0-.27,1.95,1,1,0,1,0,.27-1.95"/><path class="cls-1" d="M73.94,130.94a1,1,0,1,0-.06,2,1,1,0,0,0,.06-2"/><path class="cls-1" d="M79.84,131.77a1,1,0,1,0-.48,1.9,1,1,0,1,0,.48-1.9"/><path class="cls-1" d="M85.43,133.86a1,1,0,1,0,.44,1.32,1,1,0,0,0-.44-1.32"/><path class="cls-1" d="M65.09,132.16a1,1,0,1,0,1.23.65,1,1,0,0,0-1.23-.65"/><path class="cls-1" d="M71,131a1,1,0,1,0,1.06.9A1,1,0,0,0,71,131"/><path class="cls-1" d="M68,131.43a1,1,0,1,0,1.15.78,1,1,0,0,0-1.15-.78"/><path class="cls-1" d="M82.7,132.66A1,1,0,1,0,82,134.5a1,1,0,0,0,1.26-.57,1,1,0,0,0-.57-1.27"/><path class="cls-1" d="M96,145.21a1,1,0,1,0-1.36-.32,1,1,0,0,0,1.36.32"/><path class="cls-2" d="M97.24,147.8a1,1,0,1,0-1.31-.47,1,1,0,0,0,1.31.47"/><path class="cls-2" d="M88,135.36a1,1,0,1,0,.28,1.36,1,1,0,0,0-.28-1.36"/><path class="cls-2" d="M97.59,148.64A1,1,0,0,0,97,149.9a1,1,0,0,0,1.86-.65,1,1,0,0,0-1.25-.61"/><path class="cls-1" d="M90.43,137.13a1,1,0,0,0-1.39.13,1,1,0,1,0,1.52,1.25,1,1,0,0,0-.13-1.38"/><path class="cls-1" d="M92.62,139.15a1,1,0,0,0-1.41,1.37,1,1,0,1,0,1.41-1.37"/><path class="cls-2" d="M94.42,142.78a1,1,0,1,0-1.39-.17,1,1,0,0,0,1.39.17"/><path class="cls-2" d="M71,128a1,1,0,1,0,1.12.83A1,1,0,0,0,71,128"/><path class="cls-1" d="M68.11,128.62a1,1,0,0,0,.5,1.9,1,1,0,0,0-.5-1.9"/><path class="cls-1" d="M74,127.75a1,1,0,1,0,1,.94,1,1,0,0,0-1-.94"/><path class="cls-1" d="M80,128.18a1,1,0,0,0-.36,1.94,1,1,0,0,0,.36-1.94"/><path class="cls-1" d="M60,132.28a1,1,0,0,0-.27,1.37,1,1,0,1,0,.27-1.37"/><path class="cls-1" d="M65.27,129.54a1,1,0,1,0,1.27.56,1,1,0,0,0-1.27-.56"/><path class="cls-1" d="M62.54,130.76a1,1,0,1,0,.91,1.75,1,1,0,0,0,.42-1.32,1,1,0,0,0-1.33-.43"/><path class="cls-1" d="M77,127.8a1,1,0,1,0,.91,1,1,1,0,0,0-.91-1"/><path class="cls-1" d="M93.27,136.1a1,1,0,0,0-.07-1.39,1,1,0,0,0-1.32,1.46,1,1,0,0,0,1.39-.07"/><path class="cls-2" d="M95.23,138.22a1,1,0,1,0-1.39-.08,1,1,0,0,0,1.39.08"/><path class="cls-2" d="M82.87,128.89a1,1,0,0,0-1.23.65,1,1,0,0,0,1.89.57,1,1,0,0,0-.66-1.22"/><path class="cls-2" d="M95.8,138.93a1,1,0,1,0,1.37.24,1,1,0,0,0-1.37-.24"/><path class="cls-1" d="M85.68,129.9a1,1,0,1,0,.52,1.29,1,1,0,0,0-.52-1.29"/><path class="cls-1" d="M88.36,131.23a1,1,0,1,0,.37,1.34,1,1,0,0,0-.37-1.34"/><path class="cls-2" d="M91.1,134.21a1,1,0,1,0-1.37.22,1,1,0,0,0,1.37-.22"/><path class="cls-2" d="M64.51,126.64a1,1,0,1,0,1.31.48,1,1,0,0,0-1.31-.48"/><path class="cls-1" d="M61.87,128a1,1,0,1,0,1.35.33,1,1,0,0,0-1.35-.33"/><path class="cls-1" d="M67.29,125.53a1,1,0,1,0,1.24.62,1,1,0,0,0-1.24-.62"/><path class="cls-1" d="M73.12,124.27a1,1,0,1,0,1.08.88,1,1,0,0,0-1.08-.88"/><path class="cls-1" d="M55.09,133.85a1,1,0,0,0,1.51,1.26,1,1,0,1,0-1.51-1.26"/><path class="cls-1" d="M59.4,129.72a1,1,0,1,0,1.38.18,1,1,0,0,0-1.38-.18"/><path class="cls-1" d="M57.13,131.67a1,1,0,0,0,1.36,1.42,1,1,0,1,0-1.36-1.42"/><path class="cls-1" d="M70.17,124.74a1,1,0,0,0-.76,1.17,1,1,0,1,0,.76-1.17"/><path class="cls-1" d="M88.12,128.11a1,1,0,1,0-1.77-.85,1,1,0,1,0,1.77.85"/><path class="cls-2" d="M90.59,129.6a1,1,0,1,0-1.35.31,1,1,0,0,0,1.35-.31"/><path class="cls-2" d="M76.1,124.13a1,1,0,0,0-1,1,1,1,0,1,0,2,0,1,1,0,0,0-1-1"/><path class="cls-2" d="M91.34,130.12a1,1,0,1,0,1.38-.16,1,1,0,0,0-1.38.16"/><path class="cls-1" d="M79.09,124.31a1,1,0,1,0-.23,2,1,1,0,0,0,.23-2"/><path class="cls-1" d="M82,124.83a1,1,0,0,0-1.18.73,1,1,0,1,0,1.18-.73"/><path class="cls-2" d="M85.5,126.91a1,1,0,1,0-1.25.61,1,1,0,0,0,1.25-.61"/><path class="cls-2" d="M57.85,127.15a1,1,0,0,0-.09,1.39,1,1,0,1,0,.09-1.39"/><path class="cls-1" d="M55.72,129.24a1,1,0,1,0,1.39-.06,1,1,0,0,0-1.39.06"/><path class="cls-1" d="M60.21,125.31a1,1,0,0,0-.25,1.37,1,1,0,0,0,1.37.24,1,1,0,1,0-1.12-1.61"/><path class="cls-1" d="M65.45,122.45a1,1,0,1,0,1.28.54,1,1,0,0,0-1.28-.54"/><path class="cls-1" d="M50.85,136.72a1,1,0,1,0,1.3-.51,1,1,0,0,0-1.3.51"/><path class="cls-1" d="M53.82,131.55a1,1,0,1,0,1.38-.21,1,1,0,0,0-1.38.21"/><path class="cls-1" d="M52.2,134.05a1,1,0,1,0,1.34-.36,1,1,0,0,0-1.34.36"/><path class="cls-1" d="M62.75,123.73a1,1,0,0,0-.39,1.34,1,1,0,0,0,1.72-.94,1,1,0,0,0-1.33-.4"/><path class="cls-1" d="M80.92,121.91a1,1,0,0,0-1.94-.32,1,1,0,1,0,1.94.32"/><path class="cls-2" d="M83.71,122.63a1,1,0,1,0-1.21.69,1,1,0,0,0,1.21-.69"/><path class="cls-2" d="M68.27,121.47a1,1,0,0,0-.67,1.22,1,1,0,0,0,1.21.67,1,1,0,1,0-.54-1.89"/><path class="cls-2" d="M84.58,122.93a1,1,0,1,0,1.28-.55,1,1,0,0,0-1.28.55"/><path class="cls-1" d="M71.18,120.81a1,1,0,1,0,1.14.81,1,1,0,0,0-1.14-.81"/><path class="cls-1" d="M74.15,120.47a1,1,0,0,0-.92,1,1,1,0,0,0,2-.12,1,1,0,0,0-1-.92"/><path class="cls-2" d="M78.07,121.49a1,1,0,1,0-1,.94,1,1,0,0,0,1-.94"/><path class="cls-2" d="M51.61,129.52a1,1,0,1,0,1.36-.31,1,1,0,0,0-1.36.31"/><path class="cls-1" d="M50.15,132.12a1,1,0,1,0,1.32-.45,1,1,0,0,0-1.32.45"/><path class="cls-1" d="M53.35,127.09a1,1,0,0,0,.15,1.38,1,1,0,0,0,1.39-.15,1,1,0,0,0-1.54-1.23"/><path class="cls-1" d="M57.57,122.87A1,1,0,1,0,59,123a1,1,0,0,0-1.39-.15"/><path class="cls-1" d="M47.6,140.68a1,1,0,1,0,1.95.24,1,1,0,0,0-1.95-.24"/><path class="cls-1" d="M49,134.88a1,1,0,0,0,1.85.66,1,1,0,1,0-1.85-.66"/><path class="cls-1" d="M48.13,137.74a1,1,0,0,0,1.92.46,1,1,0,0,0-1.92-.46"/><path class="cls-1" d="M55.35,124.86a1,1,0,1,0,1.39,1.39,1,1,0,0,0-1.39-1.39"/><path class="cls-1" d="M72.27,118a1,1,0,1,0-.85,1.1,1,1,0,0,0,.85-1.1"/><path class="cls-2" d="M75.15,117.89a1,1,0,1,0-1,1,1,1,0,0,0,1-1"/><path class="cls-2" d="M60,121.13a1,1,0,1,0,1.35.31,1,1,0,0,0-1.35-.31"/><path class="cls-2" d="M76.06,117.93a1,1,0,1,0,1.08-.89,1,1,0,0,0-1.08.89"/><path class="cls-1" d="M62.61,119.68a1,1,0,1,0,1.32.45,1,1,0,0,0-1.32-.45"/><path class="cls-1" d="M65.37,118.51a1,1,0,1,0,1.26.6,1,1,0,0,0-1.26-.6"/><path class="cls-2" d="M69.42,118.39a1,1,0,1,0-.73,1.19,1,1,0,0,0,.73-1.19"/><path class="cls-2" d="M46.3,133.55a1,1,0,1,0,1.89.54,1,1,0,0,0-1.89-.54"/><path class="cls-1" d="M45.63,136.46a1,1,0,1,0,1.14-.8,1,1,0,0,0-1.14.8"/><path class="cls-1" d="M47.28,130.73a1,1,0,0,0,.53,1.28,1,1,0,1,0-.53-1.28"/><path class="cls-1" d="M50.14,125.49a1,1,0,1,0,1.37-.24,1,1,0,0,0-1.37.24"/><path class="cls-1" d="M45.59,145.39a1,1,0,1,0,.81-1.13,1,1,0,0,0-.81,1.13"/><path class="cls-1" d="M45.29,139.43a1,1,0,1,0,1-.92,1,1,0,0,0-1,.92"/><path class="cls-1" d="M45.27,142.42a1,1,0,1,0,.94-1,1,1,0,0,0-.94,1"/><path class="cls-1" d="M48.56,128a1,1,0,1,0,1.34-.39,1,1,0,0,0-1.34.39"/><path class="cls-1" d="M62.86,116.66a1,1,0,1,0-.51,1.29,1,1,0,0,0,.51-1.29"/><path class="cls-2" d="M65.6,115.76A1,1,0,1,0,65,117a1,1,0,0,0,.65-1.23"/><path class="cls-2" d="M52,123.14a1,1,0,1,0,1.39-.09,1,1,0,0,0-1.39.09"/><path class="cls-2" d="M66.48,115.53a1,1,0,1,0,.78-1.15,1,1,0,0,0-.78,1.15"/><path class="cls-1" d="M54.07,121A1,1,0,0,0,54,122.4a1,1,0,1,0,.06-1.39"/><path class="cls-1" d="M56.39,119.11a1,1,0,1,0,1.16,1.59,1,1,0,0,0-1.16-1.59"/><path class="cls-2" d="M60.24,117.85a1,1,0,1,0-.37,1.35,1,1,0,0,0,.37-1.35"/><path class="cls-2" d="M42.33,138.92a1,1,0,1,0,1-1,1,1,0,0,0-1,1"/><path class="cls-1" d="M42.51,141.9a1,1,0,1,0,.87-1.09,1,1,0,0,0-.87,1.09"/><path class="cls-1" d="M42.48,135.93a1,1,0,1,0,1.08-.87,1,1,0,0,0-1.08.87"/><path class="cls-1" d="M43.74,130.1a1,1,0,0,0,1.87.63,1,1,0,0,0-1.87-.63"/><path class="cls-1" d="M45,150.48a1,1,0,1,0,.46-1.31,1,1,0,0,0-.46,1.31"/><path class="cls-1" d="M43,144.85a1,1,0,1,0,.74-1.18,1,1,0,0,0-.74,1.18"/><path class="cls-1" d="M43.85,147.72a1,1,0,1,0,.61-1.26,1,1,0,0,0-.61,1.26"/><path class="cls-1" d="M43,133a1,1,0,1,0,1.17-.75A1,1,0,0,0,43,133"/><path class="cls-1" d="M53.46,118a1,1,0,0,0-1.39-.12A1,1,0,0,0,52,119.3,1,1,0,1,0,53.46,118"/><path class="cls-2" d="M55.83,116.41a1,1,0,1,0-.28,1.36,1,1,0,0,0,.28-1.36"/><path class="cls-2" d="M44.85,127.33a1,1,0,1,0,1.31-.48,1,1,0,0,0-1.31.48"/><path class="cls-2" d="M56.62,115.94a1,1,0,1,0,.42-1.32,1,1,0,0,0-.42,1.32"/><path class="cls-1" d="M46.25,124.69a1,1,0,1,0,1.36-.33,1,1,0,0,0-1.36.33"/><path class="cls-1" d="M47.94,122.22a1,1,0,1,0,1.38-.18,1,1,0,0,0-1.38.18"/><path class="cls-2" d="M51.28,119.93a1,1,0,0,0-1.36,1.42,1,1,0,1,0,1.36-1.42"/><path class="cls-2" d="M40,145.19A1,1,0,1,0,40.7,144a1,1,0,0,0-.66,1.23"/><path class="cls-1" d="M41.06,148a1,1,0,1,0,.52-1.29,1,1,0,0,0-.52,1.29"/><path class="cls-1" d="M39.34,142.28a1,1,0,1,0,.79-1.14,1,1,0,0,0-.79,1.14"/><path class="cls-1" d="M38.91,136.33a1,1,0,1,0,1-.94,1,1,0,0,0-1,.94"/><path class="cls-1" d="M45.85,155.53a1,1,0,1,0,.08-1.39,1,1,0,0,0-.08,1.39"/><path class="cls-1" d="M42.38,150.68a1,1,0,1,0,.37-1.34,1,1,0,0,0-.37,1.34"/><path class="cls-1" d="M44,153.2a1,1,0,1,0,.23-1.37A1,1,0,0,0,44,153.2"/><path class="cls-1" d="M39,139.32a1,1,0,1,0,.91-1,1,1,0,0,0-.91,1"/><path class="cls-1" d="M44.83,122a1,1,0,1,0,.27,1.36,1,1,0,0,0-.27-1.36"/><path class="cls-2" d="M46.64,119.78a1,1,0,1,0-1.26,1.51,1,1,0,0,0,1.26-1.51"/><path class="cls-2" d="M39.19,133.36a1,1,0,1,0,1.12-.83,1,1,0,0,0-1.12.83"/><path class="cls-2" d="M47.27,119.11a1,1,0,1,0,0-1.39,1,1,0,0,0,0,1.39"/><path class="cls-1" d="M39.79,130.43a1,1,0,1,0,1.2-.7,1,1,0,0,0-1.2.7"/><path class="cls-1" d="M40.71,127.59a1,1,0,0,0,1.84.71,1,1,0,1,0-1.84-.71"/><path class="cls-2" d="M43.27,124.44a1,1,0,1,0,.42,1.33,1,1,0,0,0-.42-1.33"/><path class="cls-2" d="M39.61,151.85a1,1,0,1,0,1.65-1.08,1,1,0,0,0-1.36-.28,1,1,0,0,0-.29,1.36"/><path class="cls-1" d="M41.38,154.26a1,1,0,0,0,1.38.13A1,1,0,0,0,42.9,153a1,1,0,1,0-1.52,1.25"/><path class="cls-1" d="M38.12,149.26a1,1,0,1,0,.43-1.32,1,1,0,0,0-.43,1.32"/><path class="cls-1" d="M36,143.67a1,1,0,0,0,1.91-.48,1,1,0,0,0-1.91.48"/><path class="cls-1" d="M48.11,160.13a1,1,0,0,0,1-1.68,1,1,0,1,0-1,1.68"/><path class="cls-1" d="M43.4,156.46a1,1,0,1,0,0-1.39,1,1,0,0,0,0,1.39"/><path class="cls-1" d="M45.65,158.42a1,1,0,1,0,1.21-1.55,1,1,0,0,0-1.21,1.55"/><path class="cls-1" d="M36.92,146.52a1,1,0,1,0,1.84-.68,1,1,0,1,0-1.84.68"/><path class="cls-1" d="M37.67,128.27a1,1,0,0,0-1.23.65,1,1,0,0,0,.64,1.23,1,1,0,0,0,1.23-.65,1,1,0,0,0-.64-1.23"/><path class="cls-2" d="M38.78,125.61a1,1,0,0,0-1.3.51,1,1,0,0,0,.51,1.29,1,1,0,1,0,.79-1.8"/><path class="cls-2" d="M35.46,140.74a1,1,0,1,0,.84-1.11,1,1,0,0,0-.84,1.11"/><path class="cls-2" d="M39.19,124.79a1,1,0,0,0,1.35-.36,1,1,0,1,0-1.35.36"/><path class="cls-1" d="M35.21,137.76a1,1,0,1,0,1-1,1,1,0,0,0-1,1"/><path class="cls-1" d="M35.29,134.77a1,1,0,0,0,.9,1.07,1,1,0,1,0-.9-1.07"/><path class="cls-2" d="M36.86,131a1,1,0,0,0-1.16.77,1,1,0,0,0,.78,1.16,1,1,0,0,0,1.15-.78,1,1,0,0,0-.77-1.15"/><path class="cls-2" d="M41.08,158.36a1,1,0,0,0,1.28-1.5,1,1,0,1,0-1.28,1.5"/><path class="cls-1" d="M43.45,160.17a1,1,0,1,0,1.11-1.63,1,1,0,0,0-1.37.27,1,1,0,0,0,.26,1.36"/><path class="cls-1" d="M38.92,156.3a1,1,0,1,0,0-1.39,1,1,0,0,0,0,1.39"/><path class="cls-1" d="M35.34,151.52a1,1,0,1,0,1.69-1,1,1,0,0,0-1.35-.34,1,1,0,0,0-.34,1.34"/><path class="cls-1" d="M51.56,163.91a1,1,0,1,0-.69-1.21,1,1,0,0,0,.69,1.21"/><path class="cls-1" d="M46,161.71a1,1,0,1,0-.41-1.33,1,1,0,0,0,.41,1.33"/><path class="cls-1" d="M48.73,163a1,1,0,0,0,1.27-.55,1,1,0,1,0-1.82-.72,1,1,0,0,0,.55,1.27"/><path class="cls-1" d="M37,154a1,1,0,0,0,1.58-1.18,1,1,0,0,0-1.38-.2A1,1,0,0,0,37,154"/><path class="cls-1" d="M32.56,136.29a1,1,0,1,0,1,1,1,1,0,0,0-1-1"/><path class="cls-2" d="M32.88,133.42a1,1,0,1,0,.85,1.1,1,1,0,0,0-.85-1.1"/><path class="cls-2" d="M34,148.87a1,1,0,1,0,.49-1.3,1,1,0,0,0-.49,1.3"/><path class="cls-2" d="M33,132.52a1,1,0,1,0-.72-1.18,1,1,0,0,0,.72,1.18"/><path class="cls-1" d="M32.88,146.08a1,1,0,1,0,.64-1.23,1,1,0,0,0-.64,1.23"/><path class="cls-1" d="M32.12,143.2a1,1,0,1,0,.77-1.17,1,1,0,0,0-.77,1.17"/><path class="cls-2" d="M32.57,139.17a1,1,0,1,0,1.07.89,1,1,0,0,0-1.07-.89"/><path class="cls-2" d="M44.32,164.19a1,1,0,1,0-.49-1.3,1,1,0,0,0,.49,1.3"/><path class="cls-1" d="M47.11,165.26a1,1,0,1,0,.6-1.87,1,1,0,0,0-.6,1.87"/><path class="cls-1" d="M41.67,162.82a1,1,0,1,0-.35-1.34,1,1,0,0,0,.35,1.34"/><path class="cls-1" d="M36.88,159.26a1,1,0,1,0,0-1.4,1,1,0,0,0,0,1.4"/><path class="cls-1" d="M56,166.56a1,1,0,1,0-1-1,1,1,0,0,0,1,1"/><path class="cls-1" d="M50,166a1,1,0,1,0-.76-1.16A1,1,0,0,0,50,166"/><path class="cls-1" d="M53,166.45a1,1,0,1,0-.89-1.07,1,1,0,0,0,.89,1.07"/><path class="cls-1" d="M39.18,161.17a1,1,0,0,0,1.37-.2A1,1,0,1,0,39,159.8a1,1,0,0,0,.2,1.37"/><path class="cls-2" d="M34.82,157.1a1,1,0,0,0,1.49-1.28,1,1,0,1,0-1.49,1.28"/><path class="cls-1" d="M33,154.73a1,1,0,0,0,1.62-1.11A1,1,0,1,0,33,154.73"/><path class="cls-1" d="M31.45,152.17a1,1,0,1,0,.41-1.33,1,1,0,0,0-.41,1.33"/><path class="cls-2" d="M30.74,148.18a1,1,0,1,0,.73,1.83,1,1,0,1,0-.73-1.83"/><path class="cls-2" d="M49.08,168.88a1,1,0,0,0,1.11-.85,1,1,0,1,0-1.11.85"/><path class="cls-1" d="M52.06,169.11a1,1,0,1,0,0-2,1,1,0,0,0-1,1,1,1,0,0,0,1,1"/><path class="cls-1" d="M46.15,168.31a1,1,0,1,0-.72-1.19,1,1,0,0,0,.72,1.19"/><path class="cls-1" d="M40.55,166.24a1,1,0,0,0,1.32-.44,1,1,0,0,0-.44-1.32,1,1,0,0,0-1.32.43,1,1,0,0,0,.44,1.33"/><path class="cls-1" d="M60.9,167.87a1,1,0,0,0,.64-1.24,1,1,0,0,0-1.88.59,1,1,0,0,0,1.24.65"/><path class="cls-1" d="M55.05,169a1,1,0,0,0,.89-1.06,1,1,0,1,0-2,.17,1,1,0,0,0,1.07.89"/><path class="cls-1" d="M58,168.61a1,1,0,1,0-.38-1.93,1,1,0,0,0-.77,1.15,1,1,0,0,0,1.15.78"/><path class="cls-1" d="M43.29,167.43a1,1,0,1,0-.58-1.27,1,1,0,0,0,.58,1.27"/><path class="cls-2" d="M38,164.75a1,1,0,0,0,1.36-.29A1,1,0,0,0,39,163.1,1,1,0,1,0,38,164.75"/><path class="cls-1" d="M35.55,163a1,1,0,0,0,1.38-.14,1,1,0,0,0-.14-1.39A1,1,0,0,0,35.55,163"/><path class="cls-1" d="M33.34,161a1,1,0,0,0,1.39,0,1,1,0,1,0-1.39,0"/><path class="cls-2" d="M31.54,157.34a1,1,0,1,0,1.38.17,1,1,0,0,0-1.38-.17"/><path class="cls-2" d="M55,172a1,1,0,1,0-1.12-.82A1,1,0,0,0,55,172"/><path class="cls-1" d="M57.89,171.41a1,1,0,1,0-1.2-.69,1,1,0,0,0,1.2.69"/><path class="cls-1" d="M52,172.31a1,1,0,1,0-1-.94,1,1,0,0,0,1,.94"/><path class="cls-1" d="M46,171.9a1,1,0,0,0,.35-1.94A1,1,0,0,0,46,171.9"/><path class="cls-1" d="M66,167.72a1,1,0,0,0,.27-1.36,1,1,0,0,0-1.37-.27,1,1,0,1,0,1.1,1.63"/><path class="cls-1" d="M60.73,170.48a1,1,0,1,0-.71-1.83,1,1,0,0,0-.56,1.28,1,1,0,0,0,1.27.55"/><path class="cls-1" d="M63.45,169.25a1,1,0,0,0,.42-1.33,1,1,0,0,0-1.75.91,1,1,0,0,0,1.33.42"/><path class="cls-1" d="M49,172.27a1,1,0,0,0,1-.91,1,1,0,0,0-.91-1.05,1,1,0,0,0-.14,2"/><path class="cls-1" d="M32.7,164a1,1,0,1,0,1.39-.08,1,1,0,0,0-1.39.08"/><path class="cls-2" d="M30.74,161.91a1,1,0,1,0,1.39.08,1,1,0,0,0-1.39-.08"/><path class="cls-2" d="M43.13,171.2a1,1,0,1,0-.66-1.22,1,1,0,0,0,.66,1.22"/><path class="cls-1" d="M40.32,170.19a1,1,0,1,0,.76-1.81,1,1,0,0,0-.76,1.81"/><path class="cls-1" d="M37.63,168.88a1,1,0,1,0-.37-1.34,1,1,0,0,0,.37,1.34"/><path class="cls-2" d="M34.88,165.91a1,1,0,1,0,1.6,1.14,1,1,0,0,0-1.6-1.14"/><path class="cls-2" d="M61.5,173.39a1,1,0,1,0-1.31-.48,1,1,0,0,0,1.31.48"/><path class="cls-1" d="M64.13,172a1,1,0,0,0,.33-1.35,1,1,0,1,0-1.68,1,1,1,0,0,0,1.35.32"/><path class="cls-1" d="M58.73,174.5a1,1,0,1,0-1.25-.62,1,1,0,0,0,1.25.62"/><path class="cls-1" d="M52.9,175.78a1,1,0,1,0-1.08-.87,1,1,0,0,0,1.08.87"/><path class="cls-1" d="M70.89,166.14a1,1,0,0,0-1.51-1.26,1,1,0,0,0,.13,1.39,1,1,0,0,0,1.38-.13"/><path class="cls-1" d="M66.6,170.28a1,1,0,1,0-1.21-1.55,1,1,0,0,0-.17,1.37,1,1,0,0,0,1.38.18"/><path class="cls-1" d="M68.86,168.33a1,1,0,1,0-1.39,0,1,1,0,0,0,1.39,0"/><path class="cls-1" d="M55.85,175.3a1,1,0,1,0-1.18-.75,1,1,0,0,0,1.18.75"/><path class="cls-1" d="M37.88,172a1,1,0,0,0,.47,1.31,1,1,0,0,0,1.31-.46,1,1,0,0,0-1.78-.85"/><path class="cls-2" d="M35.41,170.52a1,1,0,1,0,1.67,1,1,1,0,0,0-.32-1.35,1,1,0,0,0-1.35.32"/><path class="cls-2" d="M49.91,175.94a1,1,0,0,0,0-2,1,1,0,1,0,0,2"/><path class="cls-2" d="M34.65,170a1,1,0,1,0-1.54-1.22A1,1,0,1,0,34.65,170"/><path class="cls-1" d="M46.93,175.76a1,1,0,1,0,.22-1.95,1,1,0,0,0-.22,1.95"/><path class="cls-1" d="M44,175.26a1,1,0,0,0,1.17-.74,1,1,0,1,0-1.17.74"/><path class="cls-2" d="M40.51,173.18a1,1,0,1,0,1.25-.6,1,1,0,0,0-1.25.6"/><path class="cls-2" d="M68.15,172.85a1,1,0,1,0-1.39-.09,1,1,0,0,0,1.39.09"/><path class="cls-1" d="M70.28,170.75a1,1,0,0,0-.07-1.39,1,1,0,1,0,.07,1.39"/><path class="cls-1" d="M65.81,174.7a1,1,0,0,0,.24-1.37,1,1,0,0,0-1.38-.24,1,1,0,1,0,1.14,1.61"/><path class="cls-1" d="M60.58,177.57a1,1,0,0,0,.53-1.28,1,1,0,0,0-1.29-.53,1,1,0,0,0-.53,1.28,1,1,0,0,0,1.29.53"/><path class="cls-1" d="M75.12,163.25a1,1,0,1,0-1.29.51,1,1,0,0,0,1.29-.51"/><path class="cls-1" d="M72.17,168.44a1,1,0,0,0-1.6-1.16,1,1,0,0,0,.22,1.37,1,1,0,0,0,1.38-.21"/><path class="cls-1" d="M73.79,165.92a1,1,0,0,0-.37-1.34,1,1,0,1,0,.37,1.34"/><path class="cls-1" d="M63.27,176.28a1,1,0,1,0-1.34-.39,1,1,0,0,0,1.34.39"/><path class="cls-1" d="M45.1,178.17a1,1,0,1,0,1.13-.81,1,1,0,0,0-1.13.81"/><path class="cls-2" d="M42.31,177.46a1,1,0,1,0,1.21-.69,1,1,0,0,0-1.21.69"/><path class="cls-2" d="M57.76,178.56a1,1,0,1,0-1.22-.67,1,1,0,0,0,1.22.67"/><path class="cls-2" d="M41.44,177.17a1,1,0,0,0-.55-1.28,1,1,0,1,0,.55,1.28"/><path class="cls-1" d="M54.85,179.24a1,1,0,0,0-.34-1.94,1,1,0,1,0,.34,1.94"/><path class="cls-1" d="M51.88,179.59a1,1,0,1,0-1.05-.92,1,1,0,0,0,1.05.92"/><path class="cls-2" d="M48,178.58a1,1,0,1,0,2,.09,1,1,0,0,0-.94-1,1,1,0,0,0-1,.94"/><path class="cls-2" d="M74.38,170.46a1,1,0,1,0-1.35.31,1,1,0,0,0,1.35-.31"/><path class="cls-1" d="M75.83,167.85a1,1,0,0,0-.45-1.32,1,1,0,0,0-1.32.46,1,1,0,0,0,.46,1.31,1,1,0,0,0,1.31-.45"/><path class="cls-1" d="M72.65,172.9a1,1,0,0,0-.15-1.39,1,1,0,1,0,.15,1.39"/><path class="cls-1" d="M68.45,177.13a1,1,0,1,0-1.24-1.53,1,1,0,0,0-.15,1.38,1,1,0,0,0,1.39.15"/><path class="cls-1" d="M78.36,159.28a1,1,0,1,0-1.09.86,1,1,0,0,0,1.09-.86"/><path class="cls-1" d="M77,165.09a1,1,0,0,0-.6-1.25,1,1,0,0,0-1.25.59,1,1,0,0,0,.59,1.26,1,1,0,0,0,1.26-.6"/><path class="cls-1" d="M77.84,162.23A1,1,0,0,0,77.1,161a1,1,0,0,0-1.18.73,1,1,0,1,0,1.92.46"/><path class="cls-1" d="M70.67,175.13a1,1,0,1,0-1.39,0,1,1,0,0,0,1.39,0"/><path class="cls-1" d="M53.77,182.07a1,1,0,1,0,.85-1.1,1,1,0,0,0-.85,1.1"/><path class="cls-2" d="M50.89,182.17a1,1,0,1,0,1-1,1,1,0,0,0-1,1"/><path class="cls-2" d="M66,178.87a1,1,0,1,0-1.36-.3,1,1,0,0,0,1.36.3"/><path class="cls-2" d="M50,182.14a1,1,0,1,0-2-.19,1,1,0,0,0,2,.19"/><path class="cls-1" d="M63.42,180.34a1,1,0,1,0-.87-1.76,1,1,0,0,0-.45,1.31,1,1,0,0,0,1.32.45"/><path class="cls-1" d="M60.67,181.51a1,1,0,0,0,.59-1.26,1,1,0,1,0-.59,1.26"/><path class="cls-2" d="M56.62,181.65a1,1,0,0,0,1.19.72,1,1,0,0,0,.72-1.18,1,1,0,1,0-1.91.46"/></svg>