<svg id="Layer_1" data-name="Layer 1" xmlns="http://www.w3.org/2000/svg" viewBox="0 0 300 300"><defs><style>.cls-1{fill:#111c4e;}.cls-2{fill:#fff;}.cls-3{fill:#d82027;}</style></defs><path class="cls-1" d="M105.7,199.7c-2.77,0-4.5,0-5.19-.08-1.81-.16-3-.8-3.44-1.92a14.05,14.05,0,0,1-.4-4.32V171.62l-9.91,23a22.61,22.61,0,0,1-2.4,4.24c-.64.53-2,.8-4,.8H76.2L64.12,171.62V199.7q-6.32,0-7.67-.92t-1.36-5.4V158.67H60c3.41,0,5.5.19,6.24.56q1.51.81,3.36,5,3,7,10.8,25.75,3.75-9.19,10.87-25.75,1.77-3.91,2.8-4.64,1.36-.88,5.92-.88h5.75Z"/><path class="cls-1" d="M152.49,199.7c-3,0-5,0-5.76-.08a5.85,5.85,0,0,1-3.84-1.28,11.15,11.15,0,0,1-1.76-3.36L140,192.1H121.38l-1,2.88c-.85,2.34-1.76,3.72-2.72,4.12s-3.84.6-8.64.6l14.16-36q1.44-3.6,2.52-4.32c.72-.48,2.39-.72,5-.72H136Zm-15-14.4-6.88-18.87-6.8,18.87Z"/><path class="cls-1" d="M180.48,199.7H163.36c-3.41,0-5.48-.27-6.23-.8-.91-.7-1.37-2.56-1.37-5.6V158.75q6.65,0,7.81.92c.77.61,1.16,2.47,1.16,5.56v27.11h9.19q4.4,0,5.48,1C180.12,194,180.48,196.13,180.48,199.7Z"/><path class="cls-1" d="M215.66,199.7H193.11q-5.6,0-6.8-1c-.8-.65-1.19-2.51-1.19-5.6V165.31c0-3.09.39-5,1.19-5.6s3.07-1,6.8-1h15.76c3.19,0,5.13.34,5.79,1s1,2.82,1,6.44H194.07v9H207c3.14,0,5.05.33,5.71,1s1,2.79,1,6.36H194.07v9.76h14.32q5.19,0,6.24,1T215.66,199.7Z"/><path class="cls-1" d="M228.94,113.42a23.25,23.25,0,0,0-1.24-7,9.26,9.26,0,0,0-1.68-2.72,2.65,2.65,0,0,0-1-.73.59.59,0,0,0-.22-.05h0l.08,0h0l-.06,0a.31.31,0,0,0,.14-.07,0,0,0,0,0,0,0s0,0-.05,0a4.48,4.48,0,0,0-.46,1.34c-.06.29-.1.53-.14.86s-.12.68-.19,1a19,19,0,0,1-1.29,3.79,11.58,11.58,0,0,1-2.3,3.31,6.78,6.78,0,0,1-3.49,1.93.23.23,0,0,1-.26-.19.22.22,0,0,1,.12-.24,8.86,8.86,0,0,0,4.15-5.53,19,19,0,0,0,.76-3.48c0-.29.07-.6.09-.86s.06-.69.11-1a6.46,6.46,0,0,1,.67-2.24,2.91,2.91,0,0,1,.55-.69l.21-.17a1.93,1.93,0,0,1,.34-.19l.06,0h0l.13,0,.22-.06a3.09,3.09,0,0,1,1.64.08,5,5,0,0,1,2.13,1.39,9.14,9.14,0,0,1,2.21,3.71,12.09,12.09,0,0,1-.43,8,.44.44,0,0,1-.58.25A.45.45,0,0,1,228.94,113.42Z"/><path class="cls-1" d="M264.06,128.13a4.73,4.73,0,0,0-.57-1.61,3.12,3.12,0,0,0-1.61-1.4,2.83,2.83,0,0,0-.61-.16,1.09,1.09,0,0,0-.24,0h-.26a2.78,2.78,0,0,0-1.17.24,2.24,2.24,0,0,0-.63.4h0a4.31,4.31,0,0,1-1.67.84,35.42,35.42,0,0,1-9.38.18,51.08,51.08,0,0,1-5.73-.95,48.58,48.58,0,0,1-5.28-1.46,20.18,20.18,0,0,0,5.23-8.08,19.64,19.64,0,0,0,1.11-5,8.29,8.29,0,0,0-.2-2.85,4,4,0,0,0-.82-1.62,2.91,2.91,0,0,0-.9-.69,2.66,2.66,0,0,0-.58-.21,1.65,1.65,0,0,0-.32-.06,2.38,2.38,0,0,0-.4,0,3,3,0,0,0-2.3.91,4,4,0,0,0-.7.94,4.19,4.19,0,0,0-.43,1.05l0-.11a4.5,4.5,0,0,1-1.66,1.81,15.38,15.38,0,0,1-2.67,1.51c-.22.11-.53.23-.66.28l-.84.31a17,17,0,0,0-1.65.7,18.67,18.67,0,0,0-3.13,1.9,10.69,10.69,0,0,0-4.09,6.13,9.71,9.71,0,0,0,1.16,7,.23.23,0,0,0,.25.11.23.23,0,0,0,.16-.28v0a10.5,10.5,0,0,1,.18-6.29,9.44,9.44,0,0,1,3.85-4.53,16.54,16.54,0,0,1,2.77-1.45c.49-.19,1-.38,1.49-.56l.75-.26c.41-.14.62-.23.92-.35a16.37,16.37,0,0,0,3.24-1.79,7.06,7.06,0,0,0,2.67-3.27h0a.36.36,0,0,0,0-.11,1.94,1.94,0,0,1,.16-.37,1.29,1.29,0,0,1,.2-.3c.14-.12.11-.11.26-.13l.11,0h0l.17,0h0a0,0,0,0,1,0,0h-.11a1.41,1.41,0,0,1,.29.54,6.88,6.88,0,0,1,.24,2,19.82,19.82,0,0,1-.57,4.55,24.88,24.88,0,0,1-3.85,8.62h0a.15.15,0,0,0,0,.06.22.22,0,0,0,.11.29h0a50.28,50.28,0,0,0,5.52,2.19,53,53,0,0,0,5.75,1.56,31,31,0,0,0,10.41.78,3.12,3.12,0,0,0,1.34-.48,3,3,0,0,0,.63-.65.93.93,0,0,1,.71-.38.69.69,0,0,1,.59.36,2.34,2.34,0,0,1,.32.82,11.53,11.53,0,0,1-.06,4.6,17.53,17.53,0,0,1-1.55,4.63l-.29.52-.12.2-.18.21a6.35,6.35,0,0,1-.82.82,3.5,3.5,0,0,1-1.93.88h0a.61.61,0,0,0-.54.26.6.6,0,0,0,.17.83l.14.09a1.22,1.22,0,0,1,.37.38.62.62,0,0,1,.07.39,2.1,2.1,0,0,1-.61,1l0,.07a17.27,17.27,0,0,1-3.5,3,23.45,23.45,0,0,1-4.17,2.14,27.06,27.06,0,0,1-4.53,1.32c-1.58.28-3.26.64-4.87,1a89.6,89.6,0,0,0-9.65,2.69,34.7,34.7,0,0,0-9.09,4.29.23.23,0,0,0-.07.29.22.22,0,0,0,.3.1h0a50.56,50.56,0,0,1,9.33-3c3.2-.74,6.42-1.39,9.65-2,1.63-.32,3.2-.55,4.89-.86a24.15,24.15,0,0,0,5-1.51,20.87,20.87,0,0,0,4.53-2.62,15.09,15.09,0,0,0,3.64-3.86l0,.06a5,5,0,0,0,.52-.92,2.78,2.78,0,0,0,.24-1.19,2,2,0,0,0-.3-1,5.76,5.76,0,0,0,1.37-.72,7.77,7.77,0,0,0,1.08-.91l.26-.26,0,0,.06-.07.05-.07.1-.15a5.72,5.72,0,0,0,.39-.57,18.93,18.93,0,0,0,2.65-7.67A10.2,10.2,0,0,0,264.06,128.13Z"/><path class="cls-1" d="M60,118.26a6.16,6.16,0,0,1,4.37,6.83A5.32,5.32,0,0,1,60,127.44c-3.06.09-6.25-5.5-.15-9.19"/><path class="cls-2" d="M60.73,124.07c0,1.8-.42,3-1.52,3s-2-1.46-2-3.26.9-3.25,2-3.25S60.73,122.27,60.73,124.07Z"/><path class="cls-1" d="M51.3,129.48a17.78,17.78,0,0,1-4.82-1.56c-2.09-1-2.1,2.43-1.22,3a13,13,0,0,0,7.9,2C57.05,132.48,52.75,129.64,51.3,129.48Z"/><path class="cls-3" d="M80.68,149.75A3.16,3.16,0,0,1,79,152.69a8.65,8.65,0,0,1-4.32.94H61.55a9.66,9.66,0,0,1-2.16-.24,6.21,6.21,0,0,1-1.89-.74,4.3,4.3,0,0,1-1.33-1.2,2.75,2.75,0,0,1-.5-1.67H74.5v-3.47H61.29a9.12,9.12,0,0,1-2.12-.24,5.82,5.82,0,0,1-1.8-.74,4.13,4.13,0,0,1-1.24-1.22,3.14,3.14,0,0,1-.46-1.72v-3.07a3.72,3.72,0,0,1,1.7-3.26,5.4,5.4,0,0,1,1.8-.76,9.34,9.34,0,0,1,2.16-.24H74.8a8.62,8.62,0,0,1,4.27.91,3.14,3.14,0,0,1,1.61,3H62v3.45H74.76a11.26,11.26,0,0,1,2.18.2,6.37,6.37,0,0,1,1.89.65,3.83,3.83,0,0,1,1.33,1.16,2.72,2.72,0,0,1,.52,1.65Z"/><path class="cls-3" d="M108,135.88a2.67,2.67,0,0,1-.55,1.81,3.08,3.08,0,0,1-1.35.89,7.52,7.52,0,0,1-1.65.31c-.57,0-1.06.05-1.48.05H98.66v10.81a3.94,3.94,0,0,1-.94,3,5.17,5.17,0,0,1-3.5.89H92.41V138.94H82.9v-.51A2.91,2.91,0,0,1,84,135.76a6.15,6.15,0,0,1,3.2-.7H108Z"/><path class="cls-3" d="M128.19,153.63l-8.84-11.24H129v-3.45H116.42V149.2q0,2.63-1.59,3.54a4.84,4.84,0,0,1-1.85.64,16.26,16.26,0,0,1-2.11.14h-.62V135.06h19.23a7.35,7.35,0,0,1,4.11,1,3.26,3.26,0,0,1,1.52,2.88v3.52a3.21,3.21,0,0,1-1.39,2.77,7.23,7.23,0,0,1-3.94,1.12l5.92,7.28Z"/><path class="cls-3" d="M162.78,149.86a3,3,0,0,1-.44,1.68,3.78,3.78,0,0,1-1.2,1.15,5.82,5.82,0,0,1-1.8.69,11.14,11.14,0,0,1-2.22.22H143.43a8.14,8.14,0,0,1-2.14-.28,6.3,6.3,0,0,1-1.76-.78,3.79,3.79,0,0,1-1.18-1.18,2.88,2.88,0,0,1-.43-1.58V138.83a2.91,2.91,0,0,1,.43-1.53,3.61,3.61,0,0,1,1.18-1.22,5.52,5.52,0,0,1,1.76-.76,8.59,8.59,0,0,1,2.14-.26h13.69a7.58,7.58,0,0,1,4.09,1,3.17,3.17,0,0,1,1.57,2.87Zm-6.17-10.92H144.1v10.84h12.51Z"/><path class="cls-3" d="M187.23,153.52c-.31,0-.71,0-1.18-.05a10.53,10.53,0,0,1-1.52-.26,10,10,0,0,1-1.63-.59,5.83,5.83,0,0,1-1.51-1.06l-6.62-6.22-2.48-2.29v10.47h-6.18V135.06h1.26c.32,0,.72,0,1.22.06a8.7,8.7,0,0,1,1.53.25,9.85,9.85,0,0,1,1.63.6,6,6,0,0,1,1.54,1.05l6.58,6.22.41.37c.24.22.57.51,1,.88s.75.7,1.07,1V138.8a3,3,0,0,1,1.58-2.85,8.23,8.23,0,0,1,4.12-.89h.48v18.46Z"/><path class="cls-3" d="M216.68,149.75a3.1,3.1,0,0,1-.45,1.7,3.79,3.79,0,0,1-1.2,1.19,5.93,5.93,0,0,1-1.79.72,9.67,9.67,0,0,1-2.19.24H197.33a8.08,8.08,0,0,1-2.11-.28,6.44,6.44,0,0,1-1.76-.78,3.92,3.92,0,0,1-1.2-1.2,2.88,2.88,0,0,1-.44-1.59V138.83a2.68,2.68,0,0,1,.44-1.5,4.1,4.1,0,0,1,1.2-1.18,6.78,6.78,0,0,1,1.76-.8,7.81,7.81,0,0,1,2.15-.29h13.68a7.72,7.72,0,0,1,4.11.94,3.22,3.22,0,0,1,1.52,2.94H198v10.84h12.55v-3.47H206.1a7.52,7.52,0,0,1-3.83-.93,3.23,3.23,0,0,1-1.8-2.29v-.7h16.21Z"/><path class="cls-1" d="M225.28,115.8c-7.09-.07-14.35.49-21.38.22-3.51-.18-6.85-1-10.28-1.46a56.24,56.24,0,0,0-14.83.45c-36.48,8.56-40.49,4.29-57.66.8a93.32,93.32,0,0,0-13.68-1.44,108.43,108.43,0,0,0-13.84.08h.11a58.28,58.28,0,0,0-12.51,1.68,44.66,44.66,0,0,0-11.73,4.7,56,56,0,0,0-5.24,3.48,19.53,19.53,0,0,1-2.47,1.55c-.43.23-.87.45-1.31.66a2.21,2.21,0,0,1-1.07.29,2.6,2.6,0,0,1-2-1,3.38,3.38,0,0,1-.56-2.43c0-.11,0-.22.06-.34a.81.81,0,0,1,.08-.28,6,6,0,0,1,.27-.65,7.26,7.26,0,0,1,.75-1.22,7.94,7.94,0,0,1,2.15-2l0,0a.29.29,0,0,0,.15-.27.31.31,0,0,0-.32-.31h0a10.21,10.21,0,0,0-3.3.21,8.88,8.88,0,0,0-3.14,1.39,8.74,8.74,0,0,0-2.35,2.73,8.57,8.57,0,0,0-1,4.68,8.37,8.37,0,0,0,.19,1.22,7.27,7.27,0,0,0,1,2.26,7.39,7.39,0,0,0,2,2,19.49,19.49,0,0,0-2.23,1.94,22,22,0,0,0-3,3.85A20.78,20.78,0,0,0,46,142.94a19.15,19.15,0,0,0-1,4.51,19.27,19.27,0,0,0-3.78,2.88,18.83,18.83,0,0,0-3.17,3.95,15.8,15.8,0,0,0-2,4.88,14.25,14.25,0,0,0-.12,5.29,10.39,10.39,0,0,0,.25,1.34c.1.42.23.84.37,1.25a13.53,13.53,0,0,0,1.13,2.37,10.92,10.92,0,0,0,3.8,3.78,9.4,9.4,0,0,0,5.05,1.2A9.5,9.5,0,0,0,51.26,173a.22.22,0,0,0,.11-.15.24.24,0,0,0-.17-.3c-1.55-.41-3-.73-4.23-1.16a13.79,13.79,0,0,1-3.34-1.59,8,8,0,0,1-2.42-2.5,8.29,8.29,0,0,1-.82-1.63c-.11-.29-.21-.58-.29-.87a7.68,7.68,0,0,1-.2-.8l0-.16a12.55,12.55,0,0,1-.21-4.06,15,15,0,0,1,1.12-4.08,22.71,22.71,0,0,1,2.16-3.9,30.7,30.7,0,0,1,2.88-3.58A.35.35,0,0,0,46,148l0-.15a29.78,29.78,0,0,1,1.71-4.2,29.21,29.21,0,0,1,2.34-3.79,33.09,33.09,0,0,1,6.15-6.28s.84-.53.81-1.12-.92-1-.92-1a9.58,9.58,0,0,1-1.37-1,5.76,5.76,0,0,1-1-1.24,6.48,6.48,0,0,1-.82-2.26c0-.13,0-.27,0-.4v-.33h0v-.05h0a7.66,7.66,0,0,1,.47-2.63,5.92,5.92,0,0,1,1.44-2.21,8.91,8.91,0,0,1,3.37-2,7.83,7.83,0,0,0-.9.83,9.12,9.12,0,0,0-1,1.31c-.14.24-.27.48-.39.74a3.21,3.21,0,0,0-.16.45,2.73,2.73,0,0,0-.1.41,4.66,4.66,0,0,0,.52,3.47,4.23,4.23,0,0,0,3.11,2,3.88,3.88,0,0,0,1.92-.29c.51-.17,1-.37,1.5-.58a25.07,25.07,0,0,0,2.89-1.44c1.73-1,3.5-2,5.3-2.83A62.71,62.71,0,0,1,82,119.32a55.08,55.08,0,0,1,11.8-1.7h.11a110.33,110.33,0,0,1,13.39-.32c4.49.13,9,.44,13.46,1s7.55,1.78,12,2.41c27.06,3.78,37.94-3.75,51.85-4a52,52,0,0,1,9.08.18c3.61.34,6.74,1,10.3.91a179.85,179.85,0,0,0,21.27-1.53.25.25,0,0,0,.21-.24A.24.24,0,0,0,225.28,115.8Z"/></svg>