<svg id="Layer_1" data-name="Layer 1" xmlns="http://www.w3.org/2000/svg" viewBox="0 0 300 300"><defs><style>.cls-1{fill:#e1251b;}.cls-1,.cls-2,.cls-4{fill-rule:evenodd;}.cls-2,.cls-3{fill:#fff;}.cls-4,.cls-5{fill:#215aa8;}</style></defs><path class="cls-1" d="M271.37,150.49V165S235,176.84,172,180l-19.32.68L128.1,180c-62.87-3.16-99.47-14.57-99.47-14.57v-15Z"/><polygon class="cls-2" points="40 162.06 41.63 162.06 41.63 160.27 45.37 160.27 45.37 159.05 41.63 159.05 41.63 158.07 45.55 158.07 45.55 156.81 40 156.81 40 162.06"/><path class="cls-2" d="M55.05,156.76H52.44c-1.48,0-2.35.36-2.35,1.89v1.57c0,1.54.87,1.9,2.35,1.9h2.61c1.47,0,2.34-.36,2.34-1.9v-1.57c0-1.53-.87-1.89-2.34-1.89m.67,3c0,.76-.17,1.05-.94,1.05H52.7c-.77,0-.94-.29-.94-1.05v-.56c0-.66.17-1.06,1-1.06h1.9c.86,0,1,.4,1,1.05Z"/><path class="cls-2" d="M65.53,158.8c-1.74,0-1.94,0-1.94-.46,0-.29.25-.41.62-.41H66c.75,0,.8.16.8.54h1.63v-.16c0-.92-.18-1.55-2.06-1.55H64.1c-2,0-2.14.73-2.14,1.68,0,1.29.28,1.58,2.73,1.58,2.1,0,2.29,0,2.29.48s-.35.45-.69.45h-2c-.47,0-.7,0-.71-.61H62v.37c0,1.13.6,1.41,2.08,1.41h2c2.16,0,2.65-.23,2.65-1.65s-.59-1.68-3.13-1.67"/><polygon class="cls-2" points="73.33 162.06 74.97 162.06 74.97 160.27 78.7 160.27 78.7 159.05 74.97 159.05 74.97 158.07 78.89 158.07 78.89 156.81 73.33 156.81 73.33 162.06"/><path class="cls-2" d="M85.5,156.81l-2.88,5.25h1.82l.48-.93h3.3l.51.93h1.81l-2.92-5.25Zm0,3.19,1-2,1,2Z"/><polygon class="cls-2" points="93.86 158.12 96.15 158.12 96.15 162.06 97.78 162.06 97.78 158.12 100.08 158.12 100.08 156.81 93.86 156.81 93.86 158.12"/><path class="cls-2" d="M109.3,156.76h-2.61c-1.47,0-2.35.36-2.35,1.89v1.57c0,1.54.88,1.9,2.35,1.9h2.61c1.47,0,2.34-.36,2.34-1.9v-1.57c0-1.53-.87-1.89-2.34-1.89m.67,3c0,.76-.16,1.05-.93,1.05H107c-.77,0-.93-.29-.93-1.05v-.56c0-.66.16-1.06,1-1.06H109c.86,0,1,.4,1,1.05Z"/><polygon class="cls-2" points="127.95 160.19 126.1 156.81 123.6 156.81 123.6 162.06 125.18 162.06 125.18 158.29 125.2 158.29 127.34 162.06 128.55 162.06 130.69 158.29 130.71 158.29 130.71 162.06 132.29 162.06 132.29 156.81 129.79 156.81 127.95 160.19"/><path class="cls-2" d="M141.91,156.76h-2.62c-1.47,0-2.34.36-2.34,1.89v1.57c0,1.54.87,1.9,2.34,1.9h2.62c1.47,0,2.34-.36,2.34-1.9v-1.57c0-1.53-.87-1.89-2.34-1.89m.67,3c0,.76-.17,1.05-.94,1.05h-2.08c-.77,0-.94-.29-.94-1.05v-.56c0-.66.17-1.06,1-1.06h1.91c.85,0,1,.4,1,1.05Z"/><polygon class="cls-2" points="154.51 160.63 154.5 160.63 151.43 156.81 148.91 156.81 148.91 162.06 150.54 162.06 150.54 158.25 150.55 158.25 153.62 162.06 156.14 162.06 156.14 156.81 154.51 156.81 154.51 160.63"/><path class="cls-2" d="M165.75,156.76h-2.61c-1.47,0-2.34.36-2.34,1.89v1.57c0,1.54.87,1.9,2.34,1.9h2.61c1.47,0,2.35-.36,2.35-1.9v-1.57c0-1.53-.88-1.89-2.35-1.89m.67,3c0,.76-.16,1.05-.93,1.05H163.4c-.77,0-.93-.29-.93-1.05v-.56c0-.66.16-1.06,1-1.06h1.91c.86,0,1,.4,1,1.05Z"/><path class="cls-2" d="M177.73,156.81h-4.92v5.25h4.92c1.63,0,2.21-.53,2.21-1.83v-1.59c0-1.3-.58-1.83-2.21-1.83m.58,3c0,.75-.28.94-1,.94h-2.89v-2.59h2.89c.7,0,1,.19,1,.94Z"/><rect class="cls-3" x="184.68" y="156.81" width="1.63" height="5.25"/><path class="cls-2" d="M195.4,160.77h-1.74c-.77,0-.93-.29-.93-1.05v-.56c0-.66.16-1.06,1-1.06h1.78c.48,0,.76.11.76.49v.14h1.63c0-1.48-.28-2-2.61-2H193.4c-1.47,0-2.35.36-2.35,1.89v1.57c0,1.54.88,1.9,2.35,1.9H196c1.64,0,2-.69,2-1.58v-.49h-1.63c0,.65-.22.72-1,.72"/><path class="cls-2" d="M205,156.81l-2.88,5.25h1.82l.48-.93h3.31l.51.93h1.81l-2.93-5.25Zm0,3.19,1-2,1.06,2Z"/><polygon class="cls-2" points="215.93 156.81 214.3 156.81 214.3 162.06 219.59 162.06 219.59 160.72 215.93 160.72 215.93 156.81"/><path class="cls-2" d="M228.19,160.77h-1.74c-.78,0-.94-.29-.94-1.05v-.56c0-.66.16-1.06,1-1.06h1.78c.49,0,.76.11.76.49v.14h1.64c0-1.48-.29-2-2.61-2h-1.92c-1.47,0-2.34.36-2.34,1.89v1.57c0,1.54.87,1.9,2.34,1.9h2.63c1.64,0,2-.69,2-1.58v-.49h-1.63c0,.65-.22.72-.95.72"/><rect class="cls-3" x="235.52" y="156.81" width="1.63" height="5.25"/><path class="cls-2" d="M246.24,160.77H244.5c-.77,0-.94-.29-.94-1.05v-.56c0-.66.17-1.06,1-1.06h1.78c.49,0,.77.11.77.49v.14h1.63c0-1.48-.29-2-2.61-2h-1.92c-1.46,0-2.34.36-2.34,1.89v1.57c0,1.54.88,1.9,2.34,1.9h2.63c1.64,0,2-.69,2-1.58v-.49h-1.63c0,.65-.22.72-.95.72"/><path class="cls-2" d="M258.32,156.76h-2.61c-1.47,0-2.35.36-2.35,1.89v1.57c0,1.54.88,1.9,2.35,1.9h2.61c1.47,0,2.34-.36,2.34-1.9v-1.57c0-1.53-.87-1.89-2.34-1.89m.67,3c0,.76-.16,1.05-.93,1.05H256c-.77,0-.94-.29-.94-1.05v-.56c0-.66.17-1.06,1-1.06H258c.86,0,1,.4,1,1.05Z"/><polygon class="cls-2" points="205.01 156.07 206.52 154.91 208.73 154.91 207.15 156.07 205.01 156.07"/><polygon class="cls-4" points="43.83 143.58 32.31 119.58 28.7 119.58 41.85 146.9 45.8 146.9 58.95 119.58 55.34 119.58 43.83 143.58"/><rect class="cls-5" x="62.89" y="119.58" width="3.22" height="27.32"/><polygon class="cls-4" points="91.2 142.48 77.33 119.58 72.31 119.58 72.31 146.9 75.52 146.9 75.52 122.9 75.58 122.9 90.06 146.9 92.35 146.9 106.82 122.9 106.89 122.9 106.89 146.9 110.11 146.9 110.11 119.58 105.09 119.58 91.2 142.48"/><rect class="cls-5" x="116.31" y="119.58" width="3.22" height="27.32"/><polygon class="cls-4" points="125.92 146.9 129.14 146.9 129.14 134.33 147.81 134.33 147.81 131.31 129.14 131.31 129.14 122.6 148.56 122.6 148.56 119.58 125.92 119.58 125.92 146.9"/><path class="cls-4" d="M175,119.28H161.29c-6.43,0-8.47,3.32-8.47,10.22V137c0,6.9,2,10.22,8.47,10.22H175c6.43,0,8.46-3.32,8.46-10.22V129.5c0-6.9-2-10.22-8.46-10.22m5.24,19.09c0,4.75-2.49,5.81-5.58,5.81h-13c-3.08,0-5.58-1.06-5.58-5.81V128.11c0-4.76,2.5-5.81,5.58-5.81h13c3.09,0,5.58,1,5.58,5.81Z"/><path class="cls-4" d="M206.93,131.5h-9.51c-5,0-5.91-1.09-5.91-4.34,0-4.48,2.2-4.86,8.4-4.86h3.41c8.43,0,8.83.79,8.89,5.13h3v-.94c0-4.87-2-7.21-10-7.21h-6.92c-6.63,0-9.85,1.39-9.85,7.62,0,7.25,3.22,7.92,13,7.92h6.1c4,0,5.19.87,5.19,4.3,0,3.93-1.38,5.06-6,5.06h-10c-4,0-5.25-1.28-5.25-4v-1.93h-3v2c0,6,4.13,6.91,8.82,6.91h8.93c4.75,0,9.54-.49,9.54-7.21v-1.77c0-4.64-2.62-6.72-8.89-6.72"/><path class="cls-4" d="M230.85,137.69l7.52-.45c8.5-.53,9.78-1.89,9.78-9.93,0-5.69-1.78-8-8.6-8H230c-6.57,0-9.32,1.81-9.32,7.21v3.2h6.89v-1.17c0-2.83,1-3.36,4-3.36h4.82c4.66,0,4.85.5,4.85,2.72,0,2.68-.36,2.79-5.67,3.17l-8.34.6c-4.69.38-6.59,2.61-6.59,6v9.28h27.82V141H227.34c0-2.45.46-3.13,3.51-3.32"/><polygon class="cls-4" points="262.15 119.58 252.08 127.12 255.4 132.6 264.16 126.15 264.16 146.9 270.85 146.9 270.85 119.58 262.15 119.58"/></svg>