<svg class="btn-phone" xmlns="http://www.w3.org/2000/svg" viewBox="0 0 22.742 22.742">
<path id="Trazado_62" data-name="Trazado 62" d="M617.617,99.268a6.539,6.539,0,0,1,2.181-2.511,2.723,2.723,0,0,1,4.1,1.372,27.064,27.064,0,0,1,.861,3.159,2.466,2.466,0,0,1-.635,2.152,1.246,1.246,0,0,1-.249.248c-.785.5-.762,1.117-.418,1.919a10.842,10.842,0,0,0,6.672,6.249.652.652,0,0,0,.826-.2,3.259,3.259,0,0,1,2.224-1.343,1.152,1.152,0,0,1,.352-.021,24.514,24.514,0,0,1,3.716,1.064,2.66,2.66,0,0,1,.633,4.454,6.059,6.059,0,0,0-.643.641,3.014,3.014,0,0,1-1.522,1.013h-1.516c-.679-.1-1.367-.159-2.036-.308-7.4-1.643-12.11-6.113-14.054-13.45-.244-.917-.328-1.878-.487-2.819Z" transform="translate(-617.617 -94.719)" fill="#fff"/>
<path id="Trazado_63" data-name="Trazado 63" d="M628.569,94.919c.684.144,1.379.25,2.053.438a11.328,11.328,0,0,1,8.171,9.59,1.649,1.649,0,0,0,.084.282v1.011h-1.4a10.048,10.048,0,0,0-9.92-9.914V94.919Z" transform="translate(-616.135 -94.919)" fill="#fff"/>
<path id="Trazado_64" data-name="Trazado 64" d="M627.54,99.993V98.654a7.037,7.037,0,0,1,7.058,7.025h-1.342c-.4-3.408-2.29-5.306-5.715-5.687" transform="translate(-616.138 -94.362)" fill="#fff"/>
<path id="Trazado_65" data-name="Trazado 65" d="M630.342,105.119h-1.366a1.532,1.532,0,0,0-1.284-1.351c-.072-.011-.159-.2-.165-.3-.02-.352-.007-.7-.007-1.054a2.7,2.7,0,0,1,2.822,2.709" transform="translate(-616.142 -93.807)" fill="#fff"/>
</svg>