<svg id="Layer_1" data-name="Layer 1" xmlns="http://www.w3.org/2000/svg" viewBox="0 0 622.58 300"><defs><style>.cls-1{fill:#fff;}</style></defs><path class="cls-1" d="M470.48,188.2c-4.11,0-8.39-.77-11.81-3.15-4.31-3-6.5-8-6.5-14.65,0-24.21,12.25-33.79,18.18-34.64,2.68-.38,20.63.44,37.19,2.53,31.81,4,37.22,9.52,38.53,13.33a7,7,0,0,1-.55,5.58c-6,11.6-46.44,24-51,25.41a2.8,2.8,0,1,1-1.61-5.36c16.48-4.95,44-15.46,47.66-22.61.39-.75.27-1.08.23-1.21-.19-.57-2.79-5.66-33.76-9.57-17.82-2.26-34.19-2.78-35.87-2.56-2.2.31-13.38,6.64-13.38,29.1,0,4.83,1.35,8.12,4.11,10.06,5.87,4.11,17.29,1.32,21.19-.1a2.8,2.8,0,0,1,1.92,5.25A47.13,47.13,0,0,1,470.48,188.2Z"/><path class="cls-1" d="M538,165.81c-1.59,0-2.59-.06-2.78-.07a2.79,2.79,0,0,1,.33-5.58c.21,0,21.47,1.13,31.65-8.47a16.76,16.76,0,0,0,5.3-12.86c0-6-1.91-10.85-5.67-14.46-8.71-8.35-24.61-7.77-24.77-7.76h-.2c-24-.7-39-5.35-44.58-13.81A12.45,12.45,0,0,1,495.54,92a2.79,2.79,0,0,1,5.23,2A7,7,0,0,0,502,99.85c2.63,3.81,11.32,10.32,39.89,11.16,1.68-.07,18.6-.4,28.75,9.31,4.92,4.7,7.41,10.93,7.41,18.51A22.36,22.36,0,0,1,571,155.77C561.38,164.85,544.62,165.81,538,165.81Z"/><path class="cls-1" d="M544.62,155.19a2.8,2.8,0,0,1-1.58-5.11,47,47,0,0,0,11-11.33c5.87-8.8,6.3-17.51,1.28-25.88a14.05,14.05,0,0,0-10-7.13c-14.5-2.58-34.83,13.66-35,13.82a2,2,0,0,1-.39.26c-46.49,26.09-59.22,6.72-59.74,5.89a2.8,2.8,0,0,1,4.74-3c.22.33,11.15,15.23,52.07-7.67,2.34-1.86,23-17.71,39.32-14.82A19.57,19.57,0,0,1,560.11,110c11.87,19.77-3.91,37.89-13.92,44.71A2.77,2.77,0,0,1,544.62,155.19Z"/><path class="cls-1" d="M552.06,196.13a2.8,2.8,0,0,1-2.15-1L535.56,177.9l-16.17-4.82a2.8,2.8,0,0,1,1.6-5.36l17,5.06a2.82,2.82,0,0,1,1.35.89l14.89,17.87a2.8,2.8,0,0,1-.35,3.94A2.84,2.84,0,0,1,552.06,196.13Z"/><path class="cls-1" d="M530.31,212.51a2.79,2.79,0,0,1-2.69-2.06l-5.71-20.83L506.58,178a2.8,2.8,0,0,1,3.39-4.45l16.08,12.21a2.82,2.82,0,0,1,1,1.49L533,209a2.8,2.8,0,0,1-2,3.44A2.64,2.64,0,0,1,530.31,212.51Z"/><path class="cls-1" d="M449.75,186.59a13.79,13.79,0,0,1-6.92-1.82c-9.29-5.28-11.94-20.82-12.69-29.62-1-11.21,1.5-18.17,16.95-20.58,14.35-2.22,21.11,2.36,21.39,2.56a2.8,2.8,0,0,1-3.18,4.6c-.16-.1-5.58-3.46-17.35-1.63-12.1,1.89-13,5.69-12.24,14.57.53,6.2,2.56,21.07,9.88,25.24,2.91,1.64,6.45,1.41,10.83-.71a2.8,2.8,0,0,1,2.45,5A21.06,21.06,0,0,1,449.75,186.59Z"/><path class="cls-1" d="M428.36,187.71a14.81,14.81,0,0,1-3.74-.48c-10.9-2.79-19.7-17-21.57-24.2-3-11.49.47-17.14,12.74-20.82s18.88-.69,19.58-.33a2.8,2.8,0,0,1-2.52,5c-.16-.07-5.33-2.33-15.45.7-10.57,3.17-10.84,6.72-8.93,14.06,2.62,10.1,12.3,18.84,17.54,20.18,3.6.92,6.85-.22,9.94-3.5a2.8,2.8,0,0,1,4.08,3.83C436,186.45,431.82,187.71,428.36,187.71Z"/><path class="cls-1" d="M409.92,190.71a26.58,26.58,0,0,1-8-1.3c-9.53-3-19.05-10.9-20.79-17.28-2.49-9.18-1.78-15.33,9.24-19.57,10-3.86,15.69-1.14,16.3-.82a2.8,2.8,0,0,1-2.57,5c-.25-.11-4.18-1.83-11.72,1.07-7.35,2.83-7.88,5.43-5.85,12.88,1,3.6,8.11,10.61,17.06,13.42,4.17,1.3,10.1,2,14.7-1.83a2.8,2.8,0,0,1,3.6,4.29A18.3,18.3,0,0,1,409.92,190.71Z"/><path class="cls-1" d="M395.37,195.83c-9.06,0-20.86-4.53-26.5-9.3-4.47-3.78-6.58-7.41-6.46-11.09.12-3.48,2.16-6.63,6.25-9.65,8.34-6.15,14.37-4.85,15-4.68a2.8,2.8,0,0,1-1.33,5.43c-.26,0-4.27-.75-10.38,3.75-2.58,1.91-3.92,3.7-4,5.34-.07,1.83,1.44,4.06,4.48,6.63,5.17,4.37,17.54,8.85,25.15,7.84,2.3-.3,3.88-1.06,4.69-2.24a2.8,2.8,0,0,1,4.6,3.19c-1.75,2.53-4.63,4.08-8.56,4.6A24.07,24.07,0,0,1,395.37,195.83Z"/><path class="cls-1" d="M375.09,203.49c-5.27,0-10.37-.82-13.61-2.24-4.69-2.06-7.41-4.58-8.3-7.71-.79-2.79-.05-5.87,2.21-9.15,4.79-7,10.06-7.31,10.65-7.33a2.8,2.8,0,0,1,.22,5.59c-.23,0-3.17.41-6.27,4.91-1.26,1.84-1.74,3.34-1.43,4.45.4,1.38,2.18,2.81,5.17,4.12,5.22,2.29,17.55,2.52,23.5-.37,1.41-.68,2.29-1.48,2.48-2.24a2.8,2.8,0,0,1,5.42,1.4c-.63,2.44-2.46,4.42-5.45,5.87C385.82,202.66,380.38,203.49,375.09,203.49Z"/><path class="cls-1" d="M357.82,217c-.41,0-.78,0-1.13,0-4-.41-6.64-1.76-8-4.11s-1.13-5.6.76-9.62c3.47-7.33,7.74-9.15,8.22-9.33a2.8,2.8,0,0,1,2.08,5.19c-.16.08-2.82,1.42-5.24,6.54-1.47,3.1-1.09,4.2-.94,4.47s.77,1,3.66,1.29c6.29.64,21-5.85,21.75-10.52a2.79,2.79,0,1,1,5.52.88C383.13,210.54,365.57,217,357.82,217Z"/><path class="cls-1" d="M364.12,262.28a4.09,4.09,0,0,1-1-.12c-4.2-1.05-6.59-7.2-7.95-13.53a3.73,3.73,0,0,1-2.55,1.24c-3.88.36-5.62-4.88-6.36-7.11-5.1-15.29,3.42-30.79,3.78-31.44a2.8,2.8,0,0,1,4.89,2.73h0c-.08.14-7.67,14-3.37,26.94.22.64.42,1.17.59,1.61a38.87,38.87,0,0,0,1.43-6.47,2.76,2.76,0,0,1,2.87-2.41,2.8,2.8,0,0,1,2.7,2.6c.61,8.74,2.49,16.3,4.17,19.18.79-5.06.23-19.13-2.29-37.37a2.8,2.8,0,0,1,5.54-.76c0,.09,1.32,9.62,2.1,19.47,1.46,18.6-.09,22.73-2,24.43A3.91,3.91,0,0,1,364.12,262.28Z"/><path class="cls-1" d="M465.09,209.83l-.26,0a2.79,2.79,0,0,1-2.52-3.05l1.07-11.31-8.74-10.12a2.8,2.8,0,0,1,4.23-3.66l9.53,11a2.82,2.82,0,0,1,.67,2.1l-1.19,12.5A2.81,2.81,0,0,1,465.09,209.83Z"/><path class="cls-1" d="M438.28,204.47a2.86,2.86,0,0,1-1.4-.38,2.8,2.8,0,0,1-1-3.83l4.69-8.08-3.19-8.42a2.8,2.8,0,1,1,5.23-2l3.66,9.66a2.81,2.81,0,0,1-.19,2.4l-5.36,9.23A2.8,2.8,0,0,1,438.28,204.47Z"/><path class="cls-1" d="M415.06,204.17a2.8,2.8,0,0,1-1.43-5.21l5.42-3.2,1.38-8.91a2.8,2.8,0,0,1,5.53.86l-1.59,10.22a2.83,2.83,0,0,1-1.34,2l-6.55,3.87A2.84,2.84,0,0,1,415.06,204.17Z"/><circle class="cls-1" cx="512.02" cy="153.35" r="5.8"/><path class="cls-1" d="M243.28,224.31a3,3,0,0,1-3-2.45c-.13-.71-3.24-17.58,2.47-35.13a3,3,0,0,1,5.73,1.87c-3.69,11.32-3.33,22.55-2.78,28.26,21.68-11,31.05-34,31.15-34.26a3,3,0,1,1,5.59,2.22C282,186,271,213,244.44,224.08A3.15,3.15,0,0,1,243.28,224.31Z"/><path class="cls-1" d="M239.38,190.06c-37.69,0-72.76-9.28-90.62-24.23-41-34.26-85,7.73-85.4,8.16a2.94,2.94,0,0,1-2.23.85,3,3,0,0,1-2.15-1c-25-29.2-12.66-81.91.19-94.35a3,3,0,0,1,3.75-.35c55.14,36.22,76.72,25.11,106.58,9.73,19.78-10.18,42.19-21.73,78.89-22.09l2.26,0c78.23,0,104.12,41.37,107.47,47.38,11,12,12.17,24.44,3,33.24C324.43,182.61,273.21,189.18,246,190Q242.65,190.07,239.38,190.06ZM113.7,146.32c12.39,0,25.77,3.9,38.92,14.9C185.68,188.86,297.22,200.41,357,143c9.11-8.76,1.72-19.47-3.49-25.08a3.44,3.44,0,0,1-.49-.69c-2.51-4.63-26.8-45.2-104.51-44.47-35.28.35-57,11.55-76.2,21.43-30.11,15.5-54,27.78-110.48-8.64-10.38,13.27-19.13,56.5-.14,81.94C68.55,161.68,89.15,146.32,113.7,146.32Z"/><path class="cls-1" d="M144,104.41a3,3,0,0,1-2.48-1.3c-.5-.55-2.95-3.07-14.63-14.17-6.74-6.4-9.79-12.38-9.06-17.76a11.73,11.73,0,0,1,5.76-8.44c91.74-41.71,146.72-18.9,149-17.92a3,3,0,0,1,.9.61c13.38,13,26.14,27.32,26.27,27.46a3,3,0,1,1-4.5,4c-.12-.14-12.48-14-25.53-26.73-5.55-2.1-58.92-20.43-143.36,17.91a5.73,5.73,0,0,0-2.6,4c-.28,2.3.74,6.34,7.25,12.52,17.07,16.22,17.07,16.22,15.43,18.55A3,3,0,0,1,144,104.41Z"/><path class="cls-1" d="M157.81,199.49c-9.87,0-21.84-2.16-35.54-8.63a5.62,5.62,0,0,1-3.1-3c-1.42-3.08-.66-7.47,2.31-13.42a215.45,215.45,0,0,1,12.06-20.9,3,3,0,1,1,5,3.34,214,214,0,0,0-11.68,20.25c-2.56,5.12-2.52,7.56-2.26,8.17l.07,0c36.92,17.53,59.68,1.39,60.63.69a3,3,0,0,1,3.58,4.84C188.19,191.39,176.93,199.49,157.81,199.49Zm-33.69-14.35Zm0,0Z"/><path class="cls-1" d="M315.69,175.64a3,3,0,0,1-1.09-.21c-12.25-4.78-20.33-12.22-24-22.12-6.46-17.35,3.07-35.72,3.48-36.5a3,3,0,0,1,5.32,2.81c-.08.17-8.68,16.82-3.14,31.62,3.06,8.21,10,14.46,20.55,18.58a3,3,0,0,1-1.1,5.82Z"/><path class="cls-1" d="M105.19,152.49a3,3,0,0,1-2.71-1.69c-9.58-19.56-3.52-35.4-3.26-36.06a3,3,0,0,1,5.6,2.2c-.08.22-5.26,14.19,3.07,31.21a3,3,0,0,1-2.7,4.34Z"/><path class="cls-1" d="M266.73,170.27A44.19,44.19,0,0,1,252.17,168c-15.66-5.51-20.9-16.54-21.12-17a3,3,0,0,1,1.66-4.08c33.93-12.92,57-4.32,58-4a3,3,0,0,1-2.16,5.62c-.21-.08-20.43-7.5-50.18,2.7a33.43,33.43,0,0,0,15.85,11c13.43,4.71,28.71-.54,28.87-.59a3,3,0,0,1,2,5.67A60,60,0,0,1,266.73,170.27Z"/><circle class="cls-1" cx="335.87" cy="120.79" r="6.04"/></svg>