<svg id="Layer_1" data-name="Layer 1" xmlns="http://www.w3.org/2000/svg" viewBox="0 0 300 300"><defs><style>.cls-1{fill:#0091d0;}</style></defs><g id="A3cGYp"><path class="cls-1" d="M256.55,160.16c-4.35,0-8-.49-11.16,2.76-2.26,2.34-6.74,2-8.83-.22-.65-.7-.64-2-.94-3,1-.19,2.24-.87,2.86-.49,2.83,1.77,4.45.27,6-1.79,1-1.33,2.07-2.65,3.2-3.88s2.22-2.11,3.79-3.59c-4.52-2.65-8.58-5.39-12.94-7.5-6.35-3.07-12.92-5.67-19.4-8.48-2.19-1-3.53-.17-4.58,1.9-4.47,8.75-5.61,17.74-2.3,27.13.24.68.78,1.37.71,2a25.82,25.82,0,0,1-.9,3.72c-1.08-.65-2.75-1.06-3.17-2-4.16-9.33-4.14-18.82-.49-28.32.77-2,1.67-3.92,2.89-6.75-8.47-1-16.47-2.38-24.54-3-22.08-1.69-43.09,3.52-63.81,10.45-12.72,4.27-25.48,8.44-38.24,12.62a41.65,41.65,0,0,1-4.52,1.17c-5.67,1.15-6.66.55-9.91-4.29a115.41,115.41,0,0,0-22.41-24.69c-.81-.67-1.74-1.19-3.49-2.37.75,1.56,1,2.25,1.39,2.87,2,3.15,3.93,6.3,6,9.42,7.73,11.95,7.7,24.56,3.37,37.61a54,54,0,0,0-2.3,11c2.17-3,4.38-6,6.48-9.08,1.09-1.57,1.77-3.48,3.05-4.84.88-.94,2.47-1.2,3.74-1.76,0,1.3.42,2.92-.19,3.84-4.58,6.85-9.34,13.59-14.13,20.3a4.55,4.55,0,0,1-2.57,1.79c-1.28.22-3.13.26-3.87-.48s-.79-2.72-.34-3.83a136.49,136.49,0,0,0,8.2-29.29c1.3-8.05-.93-15.23-4.93-22-3-5.05-6.45-9.82-9.44-14.87-.85-1.44-.77-3.42-1.11-5.16,1.91-.25,4.17-1.26,5.66-.58,3.55,1.6,7.29,3.47,10,6.19,6.94,7.09,13.64,14.47,19.84,22.2,2.49,3.11,4.78,4,8.22,2.95,8.46-2.68,16.85-5.56,25.34-8.11,15.37-4.61,30.69-9.46,46.23-13.42,11.9-3,24.2-3.3,36.48-2.19,1,.09,2.1,0,3.63,0-1.88-8.22-6.95-13.44-13.75-18-.81,1.32-1.53,2.37-2.13,3.49-5.74,10.64-15,13-27.37,12.29-.82,0-1.57-1.43-2.36-2.18.78-.76,1.47-2,2.35-2.17a40.7,40.7,0,0,1,6.45-.3c8.41-.13,14.25-4.06,17.89-11.64,2.68-5.58,3.74-5.87,8.88-2.48,7.12,4.69,12.63,10.76,14.28,19.45.48,2.5,2,2.65,3.79,2.85,19.39,2.23,36.68,9.86,52.77,20.57,5.18,3.46,5.24,3.81.46,7.81-.36.3-.79.5-2.1,1.33,2.82.35,4.53.49,6.21.78,3.8.66,5.07,3.54,2.57,6.48a17,17,0,0,1-5.82,4.67c-9.42,4.06-18.83,8.27-28.56,11.47-7.22,2.37-14.95,3.16-22.39,4.92a11.94,11.94,0,0,0-4.86,2.92c-3.71,3.34-7.11,7-10.89,10.29a12.14,12.14,0,0,1-5.24,2.22c-3.41.74-5.29-1.36-4.54-4.75.24-1,.58-2.08.8-3.14,1-4.62-.25-6.21-5.06-6.27a148.89,148.89,0,0,1-47.21-8.49c-10.07-3.46-20.36-6.31-30.66-9-4.49-1.17-9.28-1.08-13.88-1.91-1.28-.23-2.34-1.69-3.5-2.58,1.25-.62,2.52-1.83,3.74-1.78a119.64,119.64,0,0,1,39.18,8.54c29.93,11.89,60.66,13.11,92,7.53a130.08,130.08,0,0,0,38.36-13.58,29.31,29.31,0,0,0,3-2A9.39,9.39,0,0,0,256.55,160.16ZM184.08,193.1l1.06.78,9.7-8.49-.67-1-9.78.48c0,1.79,0,3.09,0,4.39S184.18,191.8,184.08,193.1Z"/><path class="cls-1" d="M236.26,148.67c-.25,2.82-1.7,4.5-4.52,4.56s-4.42-1.61-4.67-4.35a4.53,4.53,0,0,1,4.69-4.75C234.55,144.3,236,145.93,236.26,148.67Z"/></g></svg>