<svg id="Layer_1" data-name="Layer 1" xmlns="http://www.w3.org/2000/svg" viewBox="0 0 300 300"><defs><style>.cls-1{fill:#fff;}</style></defs><path class="cls-1" d="M124.19,189.71a2.84,2.84,0,0,0-1.51-.44H104.11a3.16,3.16,0,0,0-2.62,1.55l-9.34,17a3,3,0,0,0-.37,1.53,2.94,2.94,0,0,0,.37,1.51l9.34,17a2.91,2.91,0,0,0,1.11,1.12,3,3,0,0,0,1.51.44h18.57a3,3,0,0,0,1.51-.44,3.11,3.11,0,0,0,1.13-1.12l9.33-17a3.39,3.39,0,0,0,.36-1.51,3.47,3.47,0,0,0-.36-1.53l-9.33-17a3,3,0,0,0-1.13-1.11"/><path class="cls-1" d="M143.23,256c2.81.17,5.65.27,8.49.27,2.54,0,5.07-.08,7.59-.2L159,256Z"/><path class="cls-1" d="M138.88,206.7a3.4,3.4,0,0,0,1.51.44H159a3.32,3.32,0,0,0,1.51-.44,3.22,3.22,0,0,0,1.11-1.12l9.33-17a3.19,3.19,0,0,0,.36-1.53,3.15,3.15,0,0,0-.36-1.5l-9.33-17a3,3,0,0,0-1.11-1.11A3.21,3.21,0,0,0,159,167H140.39a3.28,3.28,0,0,0-1.51.45,3,3,0,0,0-1.11,1.11l-9.33,17a3.21,3.21,0,0,0,0,3l9.33,17a3.22,3.22,0,0,0,1.11,1.12"/><path class="cls-1" d="M171.3,231.56a3.29,3.29,0,0,0-.36-1.51l-9.33-17a3,3,0,0,0-1.12-1.09,3.1,3.1,0,0,0-1.51-.45H140.39a3.17,3.17,0,0,0-1.51.45,3,3,0,0,0-1.11,1.09l-9.33,17a3.35,3.35,0,0,0,0,3l9.33,17a3.12,3.12,0,0,0,1.11,1.14,3.39,3.39,0,0,0,1.51.43H159a3.32,3.32,0,0,0,1.51-.43,3.07,3.07,0,0,0,1.12-1.14l9.33-17a3.26,3.26,0,0,0,.36-1.51"/><path class="cls-1" d="M175.81,228.93a3,3,0,0,0,1.51.44h18.59a2.77,2.77,0,0,0,1.49-.44,3,3,0,0,0,1.13-1.1l9.35-17a3.22,3.22,0,0,0,.34-1.52,3.29,3.29,0,0,0-.34-1.51l-9.35-17a2.71,2.71,0,0,0-1.13-1.12,3,3,0,0,0-1.49-.44H177.32a3.16,3.16,0,0,0-1.51.44,2.85,2.85,0,0,0-1.11,1.12l-9.33,17a3,3,0,0,0-.38,1.51,2.94,2.94,0,0,0,.38,1.52l9.33,17a3.16,3.16,0,0,0,1.11,1.1"/><path class="cls-1" d="M245.15,187.08a3.27,3.27,0,0,0-.35-1.51l-9.33-17a3.1,3.1,0,0,0-1.13-1.09,2.88,2.88,0,0,0-1.51-.45H214.24a3,3,0,0,0-1.51.45,3,3,0,0,0-1.11,1.09l-9.33,17a3.35,3.35,0,0,0,0,3l9.33,17a3.2,3.2,0,0,0,1.11,1.14,3.52,3.52,0,0,0,1.51.43h18.59a3.4,3.4,0,0,0,1.51-.43,3.25,3.25,0,0,0,1.13-1.14l9.33-17a3.25,3.25,0,0,0,.35-1.51"/><path class="cls-1" d="M55.2,188.6l9.35,17a3.22,3.22,0,0,0,1.11,1.12,3.36,3.36,0,0,0,1.51.44H85.76a3.32,3.32,0,0,0,1.51-.44,3.14,3.14,0,0,0,1.11-1.12l9.35-17a3.42,3.42,0,0,0,.34-1.53,3.38,3.38,0,0,0-.34-1.5l-9.35-17a2.89,2.89,0,0,0-1.11-1.11,3.21,3.21,0,0,0-1.51-.45H67.17a3.25,3.25,0,0,0-1.51.45,3,3,0,0,0-1.11,1.11l-9.35,17a3.45,3.45,0,0,0,0,3"/><path class="cls-1" d="M198.54,146.34a2.94,2.94,0,0,0-1.13-1.11,2.84,2.84,0,0,0-1.51-.44H177.32a3.17,3.17,0,0,0-2.61,1.55l-9.35,17a3.08,3.08,0,0,0-.36,1.53,3,3,0,0,0,.36,1.51l9.35,17a2.91,2.91,0,0,0,1.11,1.12,3,3,0,0,0,1.5.44H195.9a3.21,3.21,0,0,0,2.64-1.56l9.33-17a3.39,3.39,0,0,0,.36-1.51,3.44,3.44,0,0,0-.36-1.53Z"/><path class="cls-1" d="M98.08,63.8a3.17,3.17,0,0,0-.36-1.51l-9.33-17a3,3,0,0,0-1.13-1.09,3.15,3.15,0,0,0-1.51-.45H67.18a3.15,3.15,0,0,0-1.51.45,2.9,2.9,0,0,0-1.11,1.09l-9.34,17a3.29,3.29,0,0,0,0,3l9.34,17a3,3,0,0,0,1.11,1.11,3.15,3.15,0,0,0,1.51.45H85.75a3.15,3.15,0,0,0,1.51-.45,3,3,0,0,0,1.13-1.11l9.35-17.13A5.53,5.53,0,0,0,98.08,63.8Z"/><path class="cls-1" d="M161.61,124.09a3,3,0,0,0-1.12-1.09,2.91,2.91,0,0,0-1.51-.45H140.39a3,3,0,0,0-1.51.45,3,3,0,0,0-1.11,1.09l-9.33,17a3.35,3.35,0,0,0,0,3l9.33,17a3.37,3.37,0,0,0,1.11,1.14,3.52,3.52,0,0,0,1.51.43H159a3.44,3.44,0,0,0,1.51-.43,3.31,3.31,0,0,0,1.12-1.14l9.33-17a3.35,3.35,0,0,0,0-3Z"/><path class="cls-1" d="M124.19,145.23a2.84,2.84,0,0,0-1.51-.44H104.11a3.16,3.16,0,0,0-2.62,1.55l-9.34,17a3,3,0,0,0-.37,1.53,2.94,2.94,0,0,0,.37,1.51l9.34,17a2.91,2.91,0,0,0,1.11,1.12,3,3,0,0,0,1.51.44h18.57a3,3,0,0,0,1.51-.44,3.11,3.11,0,0,0,1.13-1.12l9.33-17a3.39,3.39,0,0,0,.36-1.51,3.44,3.44,0,0,0-.36-1.53l-9.33-17a3,3,0,0,0-1.13-1.11"/></svg>