<svg xmlns="http://www.w3.org/2000/svg" width="88.024" height="88.027" viewBox="0 0 88.024 88.027"><g transform="translate(0)"><path d="M903.724,31.19h6.649a7.87,7.87,0,0,0,1.112.3,43.64,43.64,0,0,1,37.77,31.473c.852,2.9,1.219,5.945,1.8,8.921v6.649c-.11.5-.255.987-.321,1.489-2.426,17.669-11.984,29.839-28.491,36.381-3.743,1.483-7.9,1.907-11.875,2.819h-6.649a7.523,7.523,0,0,0-1.119-.292,43.792,43.792,0,0,1-38.2-32.969c-.622-2.432-.921-4.949-1.367-7.428V71.879c.11-.5.255-.987.324-1.486,2.633-18.662,12.971-31.014,30.691-37.164,3.086-1.072,6.438-1.376,9.675-2.039M930.4,97.6c-.248-7.309.053-14.517-.89-21.562-.93-6.954-6.787-10.439-13.556-8.729-2.284.578-4.28,2.328-6.379,3.526v-3.1h-9.845V97.511h9.886c0-5.427-.019-10.7.016-15.978a10.71,10.71,0,0,1,.333-2.891,5.21,5.21,0,0,1,5.508-3.742c2.416.126,3.824,1.449,4.352,4.189a16.4,16.4,0,0,1,.292,2.907c.028,4.3.009,8.607.009,12.908V97.6ZM894.046,67.687h-9.731V97.548h9.731Zm.738-9.289a5.249,5.249,0,0,0-5.577-5.257,5.247,5.247,0,1,0-.054,10.464c3.265-.009,5.641-2.209,5.631-5.207" transform="translate(-863.035 -31.19)" fill="#fff"/></g></svg>