<svg xmlns="http://www.w3.org/2000/svg" width="89.172" height="89.168" viewBox="0 0 89.172 89.168"><path d="M871.255,120.549c-23.341.641-44.717-19-44.636-44.576A44.55,44.55,0,0,1,871.349,31.4c25.088-.031,45.035,21.075,44.428,45.723-.606,24.572-21.308,44-44.523,43.429m26.706-44.466c0-3.768.041-7.535-.013-11.3a15.56,15.56,0,0,0-15.768-15.564q-10.987-.042-21.977,0a15.574,15.574,0,0,0-15.765,15.771q-.038,10.888-.006,21.77a15.751,15.751,0,0,0,15.878,16.186q10.883.174,21.77,0c9.16-.141,15.821-7,15.881-16.189.019-3.557,0-7.114,0-10.674" transform="translate(-826.619 -31.397)" fill="#fff"/><path d="M833.7,61.042c0-3.84-.06-7.683.012-11.52A11.033,11.033,0,0,1,844.777,38.5q11.312-.1,22.618,0a10.915,10.915,0,0,1,11.042,10.816c.151,7.6.135,15.218.028,22.822A11.2,11.2,0,0,1,866.98,83.478q-10.893.156-21.782,0c-6.75-.091-11.447-4.968-11.513-11.758-.031-3.56,0-7.124,0-10.677Zm8.566-.233a13.973,13.973,0,0,0,13.813,14.106,14.186,14.186,0,0,0,13.952-13.857,13.931,13.931,0,0,0-13.71-13.983A13.689,13.689,0,0,0,842.263,60.81m31.269-15.1a3.852,3.852,0,0,0-3.667-3.821,3.92,3.92,0,0,0-3.915,3.595,3.793,3.793,0,1,0,7.582.226" transform="translate(-811.513 -16.296)" fill="#fff"/><path d="M847.248,42.584a9.424,9.424,0,0,1,9.568,9.527,9.666,9.666,0,0,1-9.65,9.562,9.5,9.5,0,0,1-9.373-9.537,9.23,9.23,0,0,1,9.455-9.552" transform="translate(-802.681 -7.431)" fill="#fff"/></svg>