<svg id="Layer_1" data-name="Layer 1" xmlns="http://www.w3.org/2000/svg" viewBox="0 0 300 300"><defs><style>.cls-1{fill:#fff;}</style></defs><g id="Grupo_1226" data-name="Grupo 1226"><g id="Grupo_1221" data-name="Grupo 1221"><g id="Trazado_1258" data-name="Trazado 1258"><path class="cls-1" d="M45.71,225.42c-1.87,0-5.5-.69-6-6l-.77-7.83c-.37-3.6-.74-7.25-1-10.78a33.38,33.38,0,0,1,2.74-17.45l.17-.34a44.84,44.84,0,0,0,3.13-6.79A13.46,13.46,0,0,0,42,164.53a47.66,47.66,0,0,1-8-26.47,69.31,69.31,0,0,1,1.26-15.8l0-.32.15-.92a14.47,14.47,0,0,1-4.12-26.8,11.65,11.65,0,0,1,7.56-1.88,4.62,4.62,0,0,1,4,3c1,2.79-1,5-1.89,5.92l-.08.08v0a2.16,2.16,0,0,0,.16.49,1.8,1.8,0,0,0,2.41.77c2-1.18,3.78-3.44,5.63-5.83,1.08-1.38,2.2-2.81,3.48-4.16A56.06,56.06,0,0,1,79,77.43a93.6,93.6,0,0,1,28.34-2.72,138.89,138.89,0,0,1,22.57,2.92c3.25.68,6.49,1.55,9.22,2.32a156,156,0,0,0,25,4.06c4.92.54,9.85.86,14.61,1.17,10.57.69,21.5,1.4,32.23,4.36a66.77,66.77,0,0,1,8.83,3l.51.27a34.8,34.8,0,0,0,6.9,3.19,5.53,5.53,0,0,0,3.66-1.36l.52-.4a30.27,30.27,0,0,1,8.3-3.74c3.38-1.1,7-2,10.42-2.86,1.79-.44,5.42-1.33,8,.72a5.38,5.38,0,0,1,2,4.39c0,2.37-1.43,4.4-2.55,6-.22.32-.42.61-.57.86l-7.92,13.21a2.56,2.56,0,0,0,0,2.68l.29.59c1.28,3.17,2.74,6.41,4.47,9.9a74.52,74.52,0,0,0,7.21,12.27,9.51,9.51,0,0,0,3.39,3.3,13.91,13.91,0,0,0,2.11.38,12.4,12.4,0,0,1,6.69,2.37c3.83,3.05,2.76,7.38,2.24,9.46L272,168.57c-2.66,10.05-14.13,10.25-19.82,9-2.86-.72-19.91.27-29.16,3a53.9,53.9,0,0,1-24.05-.2l1.91-7.91a45.54,45.54,0,0,0,20.12.24c8.87-2.66,27.84-4.44,33-3.08.87.17,8.85,1.61,10.08-3l3.5-14.68c.1-.41.23-1,.29-1.34a9.44,9.44,0,0,0-2.37-.49,17.45,17.45,0,0,1-4.2-.92l-.42-.19a17.15,17.15,0,0,1-6.57-6.08,80.84,80.84,0,0,1-7.82-13.3c-1.72-3.5-3.23-6.83-4.56-10.1a10.68,10.68,0,0,1,.18-10.79l7.51-12.52c-2.54.64-5.12,1.34-7.6,2.15a22.43,22.43,0,0,0-6,2.63,13.39,13.39,0,0,1-10,3.16l-.85-.18a42.06,42.06,0,0,1-8.84-4,58,58,0,0,0-7.52-2.57c-10-2.74-20-3.4-30.63-4.09-4.85-.32-9.87-.65-14.84-1.19a164.21,164.21,0,0,1-26.33-4.3c-2.72-.76-5.79-1.59-8.83-2.22a130.72,130.72,0,0,0-21.3-2.76A85.32,85.32,0,0,0,81,85.32,47.94,47.94,0,0,0,58.43,98.25c-1,1-1.91,2.22-2.91,3.51-2.14,2.76-4.57,5.88-8.16,8A9.95,9.95,0,0,1,33,103.46a6.35,6.35,0,0,0,6.69,9.6L40,113l1.66,8h0a3.69,3.69,0,0,0,2.57-2,27.12,27.12,0,0,0-.87,4.28l-.1.55a61.82,61.82,0,0,0-1.11,14.1,39.67,39.67,0,0,0,6.61,22,21.61,21.61,0,0,1,2.9,19,53.06,53.06,0,0,1-3.66,8A25.5,25.5,0,0,0,46,200c.32,3.6.68,7.22,1,10.78l.63,6.35,2.16-.18,1.71-.14c.08-.91.07-1.92.06-3s0-2.38.07-3.56c.12-1.6.3-3.2.47-4.79.12-1.1.24-2.19.35-3.28l.09-1a21.19,21.19,0,0,1,2.77-8.09c2.79-5,7.64-7.21,11.93-9.17,1-.45,2-.91,2.95-1.4A117.15,117.15,0,0,0,82,175.67c8.24-5.53,18-13.22,20.08-23.63l8,1.62C107.32,167,96,176,86.5,182.42a124.81,124.81,0,0,1-12.58,7.4c-1.06.54-2.17,1.05-3.28,1.56-3.61,1.65-6.72,3.07-8.25,5.82a13.07,13.07,0,0,0-1.75,5l-.08.83c-.1,1.13-.23,2.27-.35,3.41-.17,1.5-.34,3-.45,4.52-.07.94-.06,1.91,0,2.87a32.81,32.81,0,0,1-.17,4.6,7.23,7.23,0,0,1-4,5.88l-.6.24a9.61,9.61,0,0,1-2.6.42l-1.84.16c-1.49.12-3,.25-4.46.32ZM40.66,101.56l0,0Zm211.43-9.24Z"/></g></g><g id="Grupo_1222" data-name="Grupo 1222"><g id="Trazado_1259" data-name="Trazado 1259"><path class="cls-1" d="M140.72,187.49a128.19,128.19,0,0,1-49.4-9.94L94.44,170a120,120,0,0,0,75.15,5.81l1.94,7.9A129.34,129.34,0,0,1,140.72,187.49Z"/></g></g><g id="Grupo_1223" data-name="Grupo 1223"><g id="Trazado_1260" data-name="Trazado 1260"><path class="cls-1" d="M199.4,225.43h-.33c-1.6,0-3.2,0-4.8-.08a17.21,17.21,0,0,1-5.25-.48l-.85-.32a7.38,7.38,0,0,1-3.43-3.61c-5.54-10.5-11-21.05-16.39-31.6l-.28-.71c-4.32-14.66,1.61-35.67,1.86-36.56l7.82,2.24c-.05.19-5.42,19.27-2,31.67,5.35,10.42,10.71,20.83,16.18,31.19a8.7,8.7,0,0,0,1.91.05h.46l1.64.05c-3.82-8.34-9.48-20.85-5.09-32.92,3.37-9.74,7.07-20.76,7.38-22.23l3.54.77,4.31-1.51c.59,1.68.67,1.9-7.57,25.69-3,8.39.59,17.55,4.91,27l.14.31c2.26,4.76,1.89,8.19-1.09,10.18l-.34.21A5.87,5.87,0,0,1,199.4,225.43Z"/></g></g><g id="Grupo_1224" data-name="Grupo 1224"><g id="Trazado_1261" data-name="Trazado 1261"><path class="cls-1" d="M159.15,225.44a8.3,8.3,0,0,1-3.16-.68c-2.07-1.09-4.84-3.62-3.34-10,.58-2.42,1.28-4.81,2-7.19.48-1.6,1-3.21,1.38-4.82.88-3.3,1.71-6.61,2.55-9.93l.65-2.59,7.89,2-.66,2.59c-.84,3.35-1.68,6.7-2.57,10-.44,1.69-.94,3.36-1.43,5-.66,2.23-1.33,4.48-1.87,6.75,0,.24-.1.46-.13.66.4,0,1,0,1.36,0,.07-.15.15-.32.22-.51,1.64-3.9,3.21-7.57,4.82-11.22l7.44,3.28c-1.59,3.62-3.14,7.25-4.68,10.9a11.31,11.31,0,0,1-1.76,3.08c-2.41,2.69-5.64,2.66-7.6,2.64h-.56Z"/></g></g><g id="Grupo_1225" data-name="Grupo 1225"><g id="Trazado_1262" data-name="Trazado 1262"><path class="cls-1" d="M86.38,225.43h-1c-2,0-5.5.08-7.87-2.28a11.34,11.34,0,0,1-2.22-3.5C73.69,216.21,72,212.57,70.2,209l7.31-3.58c1.79,3.66,3.53,7.33,5.26,11a4.61,4.61,0,0,0,.42.81,14.42,14.42,0,0,0,2.1.08h.25a5.58,5.58,0,0,0-.13-.57c-.58-2.24-1.31-4.45-2-6.66-.56-1.7-1.12-3.41-1.62-5.12-1-3.44-2-6.92-3-10.4l-.62-2.21,7.83-2.2.63,2.23c1,3.42,1.91,6.85,2.93,10.27.49,1.66,1,3.28,1.55,4.9.76,2.31,1.54,4.69,2.17,7.13,1.78,6.79-1.7,9.28-3.28,10A9.77,9.77,0,0,1,86.38,225.43Z"/></g></g></g></svg>