<svg xmlns="http://www.w3.org/2000/svg" width="83.26" height="83.261" viewBox="0 0 83.26 83.261"><path d="M940.718,31.971A41.63,41.63,0,1,0,982.346,73.6a41.633,41.633,0,0,0-41.629-41.632m16.047,58.27a2.52,2.52,0,0,1-3.45.9c-6.627-3.871-14.281-4.493-19.535-4.333a48.207,48.207,0,0,0-10.134,1.339,2.523,2.523,0,0,1-1.339-4.864,52.423,52.423,0,0,1,11.174-1.511,49.358,49.358,0,0,1,10.769.779,36.263,36.263,0,0,1,11.611,4.239,2.528,2.528,0,0,1,.9,3.447m4.685-9.735a2.985,2.985,0,0,1-4.085,1.072c-7.849-4.588-16.915-5.323-23.14-5.134a57.616,57.616,0,0,0-12.006,1.584,2.986,2.986,0,0,1-1.581-5.76,62.359,62.359,0,0,1,13.232-1.788,58.446,58.446,0,0,1,12.757.921,43.1,43.1,0,0,1,13.75,5.021,2.984,2.984,0,0,1,1.072,4.085M967.5,69.838a3.658,3.658,0,0,1-5.012,1.313c-18.662-10.9-42.867-4.421-43.105-4.355a3.663,3.663,0,0,1-1.945-7.064,76.509,76.509,0,0,1,16.239-2.2,71.5,71.5,0,0,1,15.642,1.134,52.873,52.873,0,0,1,16.868,6.156,3.666,3.666,0,0,1,1.313,5.012" transform="translate(-899.086 -31.971)" fill="#fff"/></svg>