<svg id="Layer_1" data-name="Layer 1" xmlns="http://www.w3.org/2000/svg" viewBox="0 0 300 300"><defs><style>.cls-1{fill:#ba692f;}</style></defs><path class="cls-1" d="M231.63,126.1l-16.31-11.65V109c3.46-2.19,11.36-8.32,11.36-18.68h0a2.84,2.84,0,0,0-5.68,0c0,7.16-5.59,11.78-8.32,13.61L202.59,96.2a20,20,0,0,0,9.89-20.29,2.84,2.84,0,0,0-5.66.49,14.49,14.49,0,0,1-9.19,16l-9-6.94c-.8-3.9-1.86-11.55.82-16.44a2.84,2.84,0,1,0-5-2.73,25.83,25.83,0,0,0-2.29,14.2l-4.85-3.73a2.8,2.8,0,0,0-.52-.32,7.34,7.34,0,0,1-2.2-1.91,9.55,9.55,0,0,1-1.85-6.71,2.84,2.84,0,0,0-5.68-.33,14.3,14.3,0,0,0,7,13.93l35.62,27.39v4.29H204a2.72,2.72,0,0,0-1,.19l-.44.17-10.14-5.68h0a2.84,2.84,0,0,0-3.87,1.09c-.06.13-.13.26-.18.39A26,26,0,0,0,187,119.4l-20.13,7.73-10.49-2.61a2.83,2.83,0,0,0-2,.22l-4.84,2.42-43.68-7.71a14.19,14.19,0,0,0-9,1.4c-.5.26-1,.5-1.39.75H81a14.12,14.12,0,0,0-13.18,8.93L65,137.58h0a2.83,2.83,0,0,0,1.59,3.68,2.68,2.68,0,0,0,1,.21h7.08a31.31,31.31,0,0,0-.23,25.44,48.3,48.3,0,0,0,6.88,11.94L70.72,202.8a2.85,2.85,0,0,0-.13,2l8.53,28.41a2.83,2.83,0,0,0,2.72,2H96a2.84,2.84,0,0,0,2.84-2.84v-5.68a2.82,2.82,0,0,0-.84-2l-5-5-2.55-17.87,10.66-16h0a7,7,0,0,1,9.72-2l.31.23a14.4,14.4,0,0,0,8.53,2.84h30.5l2.64,34.29a2.42,2.42,0,0,0,.07.47l2.84,11.37a2.86,2.86,0,0,0,2.76,2.15h14.2a2.84,2.84,0,0,0,2.84-2.84v-5.68a2.87,2.87,0,0,0-.83-2L170,219.92l2.61-36.67c3.62-1.7,10.86-6.74,11.46-20.08a69,69,0,0,0,24.16-18.84h18.48A8.54,8.54,0,0,0,235.2,136v-3.14A8.55,8.55,0,0,0,231.63,126.1ZM193,114.73l5.21,2.92v10.61a11.5,11.5,0,0,1-4.2-4.68A15.78,15.78,0,0,1,193,114.73ZM72,135.67l1.2-3A8.3,8.3,0,0,1,81,127.41h5.33a44.39,44.39,0,0,0-8.23,8.26Zm21,92.24v1.48H84L82.42,224h6.71Zm76.68,1.48h-8.91L159.48,224h6.33l3.94,3.94Zm59.77-93.59a2.84,2.84,0,0,1-2.84,2.84H206.8a2.88,2.88,0,0,0-2.27,1.14,63.64,63.64,0,0,1-24.51,19,2.84,2.84,0,0,0-1.62,2.57c0,14.44-8.86,17-9.21,17.12a2.83,2.83,0,0,0-2.14,2.56l-2.66,37.12h-6.08l-2.63-34.3a2.84,2.84,0,0,0-1.57-2.32,27.55,27.55,0,0,1-5.17-3.58,11.83,11.83,0,0,1-4.62-8.08h0a2.84,2.84,0,1,0-5.68,0,16.27,16.27,0,0,0,5.51,11.36H119.7a8.49,8.49,0,0,1-5.11-1.71h0a12.69,12.69,0,0,0-17.76,2.54c-.15.19-.28.38-.41.58L85.15,199.54a2.84,2.84,0,0,0-.45,2l2.37,16.64H80.54l-4.2-14,10.92-24.6a2.84,2.84,0,0,0-.49-3.07,42.09,42.09,0,0,1-7.06-11.8A25.07,25.07,0,0,1,82,140.23,45.34,45.34,0,0,1,97.44,127c.62-.35,1.29-.72,2-1.11a8.56,8.56,0,0,1,5.42-.84l44.62,7.88a2.89,2.89,0,0,0,1.76-.26l4.74-2.37,10.34,2.58a2.86,2.86,0,0,0,1.71-.1l20.2-7.77c.13.34.27.68.43,1a18.73,18.73,0,0,0,11.5,9.62h0a2.84,2.84,0,0,0,3.61-1.76A2.91,2.91,0,0,0,204,133V119l.52-.2h7.09l16.76,12a2.88,2.88,0,0,1,1.19,2.32Z"/></svg>