<svg id="Layer_1" data-name="Layer 1" xmlns="http://www.w3.org/2000/svg" viewBox="0 0 300 300"><defs><style>.cls-1{fill:#ba6831;}</style></defs><g id="ErFxaq"><path class="cls-1" d="M150.93,70.15c1.9.87,2.52,2.4,2.48,4.42-.08,3.84,0,7.68,0,11.53,0,2.48-1.29,4-3.36,4s-3.4-1.51-3.41-4c0-3.69.08-7.37,0-11.06-.07-2.06.37-3.75,2.17-4.93Z"/><path class="cls-1" d="M229.86,150.94c-.88,1.9-2.4,2.52-4.42,2.47-3.85-.08-7.7,0-11.55,0-2.48,0-4-1.31-4-3.39s1.52-3.37,4-3.38c3.84,0,7.69.06,11.54,0,2,0,3.55.58,4.42,2.48Z"/><path class="cls-1" d="M142.82,156.69H120.26a3.4,3.4,0,0,1-3.27-2,3.33,3.33,0,0,1,.57-3.63l17.12-22.81L157,98.46a3.4,3.4,0,0,1,3.58-1.65,3.17,3.17,0,0,1,2.62,2.56,4.57,4.57,0,0,1,0,1.69q-2.84,17-5.69,34.06c-.07.44-.05.9-.08,1.52h2.7c6.34,0,12.68,0,19,0a3.77,3.77,0,0,1,3.7,1.79c.83,1.48.34,2.78-.51,4.07Q163,171.82,143.71,201.15c-1.58,2.39-3.87,2.81-5.6,1.1a3.83,3.83,0,0,1-.86-3.48c.54-4.22,1.12-8.44,1.69-12.65l3.27-24.68C142.41,159.9,142.61,158.37,142.82,156.69ZM126.73,150H146c2.91,0,4.28,1.54,3.9,4.45-1.08,8.17-2.2,16.34-3.3,24.51-.27,2-.49,4.05-.74,6.07l.32.1,27.49-41.73h-2c-5.92,0-11.85,0-17.77,0-2.8,0-4.29-1.69-3.85-4.38.64-3.94,1.34-7.87,2-11.81.76-4.5,1.49-9,2.24-13.52l-.24-.11Z"/><path class="cls-1" d="M80.05,153.39c-2.07,0-4.15,0-6.22,0-2.23,0-3.68-1.39-3.69-3.36a3.36,3.36,0,0,1,3.65-3.39c4.2,0,8.41,0,12.61,0,2.22,0,3.68,1.39,3.69,3.36s-1.44,3.35-3.66,3.39S82.18,153.39,80.05,153.39Z"/><path class="cls-1" d="M153.38,219.87c0,2.08,0,4.15,0,6.23,0,2.31-1.42,3.79-3.45,3.75s-3.29-1.51-3.3-3.75q0-6.22,0-12.45c0-2.25,1.34-3.71,3.3-3.75s3.4,1.44,3.46,3.75v6.22Z"/><path class="cls-1" d="M104.74,108.63a7.93,7.93,0,0,1-2-1.15c-3.06-3-6.07-6-9-9a3.35,3.35,0,1,1,4.67-4.8c3.08,3,6.11,6.09,9.16,9.14a3.33,3.33,0,0,1,.78,3.87C107.75,108,106.65,108.59,104.74,108.63Z"/><path class="cls-1" d="M207.65,96.1a11.86,11.86,0,0,1-1.36,2.33q-4.46,4.59-9,9a3.35,3.35,0,1,1-4.79-4.67c3-3.08,6.08-6.11,9.14-9.16a3.3,3.3,0,0,1,3.86-.78A3.69,3.69,0,0,1,207.65,96.1Z"/><path class="cls-1" d="M108.85,194.81a12.42,12.42,0,0,1-1.42,2.47c-3,3.06-6,6.07-9,9.05a3.35,3.35,0,1,1-4.74-4.73c3-3.08,6.09-6.11,9.15-9.16a3.27,3.27,0,0,1,3.86-.73A3.79,3.79,0,0,1,108.85,194.81Z"/><path class="cls-1" d="M207.65,204a3.69,3.69,0,0,1-2.1,3.11,3.18,3.18,0,0,1-3.75-.58c-1.8-1.73-3.55-3.51-5.31-5.28-1.33-1.32-2.67-2.62-4-4a3.39,3.39,0,0,1-.21-4.88,3.35,3.35,0,0,1,4.88.08c3.08,3,6.14,6.06,9.14,9.16A10.8,10.8,0,0,1,207.65,204Z"/></g></svg>