<svg id="Layer_1" data-name="Layer 1" xmlns="http://www.w3.org/2000/svg" viewBox="0 0 300 300"><defs><style>.cls-1{fill:#fff;}</style></defs><path class="cls-1" d="M251.49,120.29l-20.28-14.48V99.06c4.29-2.71,14.12-10.33,14.12-23.21h0a3.53,3.53,0,1,0-7.06,0c0,8.89-7,14.64-10.35,16.92l-12.54-9.65a24.9,24.9,0,0,0,12.3-25.22,3.53,3.53,0,0,0-7,.6,18,18,0,0,1-11.43,19.86L198,69.74c-1-4.85-2.32-14.36,1-20.44a3.54,3.54,0,1,0-6.21-3.39A32.12,32.12,0,0,0,190,63.56l-6-4.63a2.65,2.65,0,0,0-.64-.4,9.48,9.48,0,0,1-2.74-2.38,12,12,0,0,1-2.3-8.35,3.53,3.53,0,0,0-7.05-.4,17.74,17.74,0,0,0,8.67,17.31l44.28,34.06v5.33h-7.06a3.49,3.49,0,0,0-1.27.24l-.54.21-12.61-7.06h0a3.53,3.53,0,0,0-4.8,1.35,3.12,3.12,0,0,0-.23.49A32.23,32.23,0,0,0,196,112l-25,9.61-13.05-3.25a3.52,3.52,0,0,0-2.43.27l-6,3L95.16,112a17.68,17.68,0,0,0-11.25,1.74l-1.73.93h-18a17.58,17.58,0,0,0-16.39,11.1l-3.5,8.77h0a3.53,3.53,0,0,0,2,4.58,3.45,3.45,0,0,0,1.3.25h8.8A39,39,0,0,0,56.11,171a60.21,60.21,0,0,0,8.56,14.85L51.44,215.65a3.57,3.57,0,0,0-.16,2.45l10.6,35.3a3.52,3.52,0,0,0,3.38,2.52H82.91a3.54,3.54,0,0,0,3.54-3.53v-7.06a3.59,3.59,0,0,0-1-2.5l-6.23-6.23L76,214.39l13.25-19.88h0a8.72,8.72,0,0,1,12.09-2.42l.39.28a17.7,17.7,0,0,0,10.6,3.53h37.92l3.28,42.64a2.35,2.35,0,0,0,.1.59l3.52,14.12a3.54,3.54,0,0,0,3.43,2.68h17.66a3.53,3.53,0,0,0,3.53-3.52v-7.07a3.5,3.5,0,0,0-1-2.49l-5.91-5.92,3.24-45.6c4.5-2.1,13.5-8.37,14.25-25a85.57,85.57,0,0,0,30-23.42h23a10.61,10.61,0,0,0,10.59-10.36v-3.9A10.64,10.64,0,0,0,251.49,120.29Zm-48.1-14.14,6.48,3.63V123a14.3,14.3,0,0,1-5.21-5.83A19.47,19.47,0,0,1,203.39,106.15Zm-150.33,26,1.48-3.71a10.34,10.34,0,0,1,9.65-6.56h6.63a55.27,55.27,0,0,0-10.23,10.27ZM79.22,246.86v1.84H68L66,242h8.33Zm95.33,1.84H163.47L161.79,242h7.87l4.89,4.9Zm74.31-116.35a3.53,3.53,0,0,1-3.53,3.53H220.61a3.53,3.53,0,0,0-2.82,1.42,79.2,79.2,0,0,1-30.46,23.63,3.49,3.49,0,0,0-2,3.19c0,17.95-11,21.17-11.45,21.29a3.54,3.54,0,0,0-2.67,3.18l-3.3,46.15h-7.56l-3.27-42.65a3.54,3.54,0,0,0-1.95-2.88,34.76,34.76,0,0,1-6.43-4.45,14.72,14.72,0,0,1-5.74-10h0a3.53,3.53,0,0,0-7.06,0,20.26,20.26,0,0,0,6.85,14.12H112.33a10.73,10.73,0,0,1-6.36-2.12h0a15.78,15.78,0,0,0-22.08,3.16c-.19.23-.35.47-.52.72l-14,21a3.57,3.57,0,0,0-.56,2.46l3,20.69H63.65l-5.23-17.42L72,186.74a3.53,3.53,0,0,0-.6-3.82,52,52,0,0,1-8.79-14.67,31.19,31.19,0,0,1,2.79-30.39A56.18,56.18,0,0,1,84.66,121.4c.77-.45,1.6-.9,2.53-1.39a10.67,10.67,0,0,1,6.75-1l55.46,9.79a3.56,3.56,0,0,0,2.2-.32l5.88-3,12.85,3.21a3.48,3.48,0,0,0,2.14-.13l25.1-9.65c.17.42.35.85.55,1.27a23.28,23.28,0,0,0,14.29,12h0a3.53,3.53,0,0,0,4.48-2.19,3.48,3.48,0,0,0,.2-1.15v-17.4l.65-.25h8.8L247.38,126a3.58,3.58,0,0,1,1.48,2.88Z"/></svg>