<svg id="Layer_1" data-name="Layer 1" xmlns="http://www.w3.org/2000/svg" viewBox="0 0 300 300"><defs><style>.cls-1{fill:#ba6831;}</style></defs><g id="jOXgQW"><path class="cls-1" d="M166.15,236.15h-9.22a2.47,2.47,0,0,1-2.45-2.15l-.78-6.16c-.64-5-1.28-10-1.89-15l-1-8.07c-1.12-9.13-2.29-18.58-3.32-27.88l0-.3c-.5-4.56-.81-7.31-1.75-8.23s-3.35-1.25-7.1-1.72l-.39.68a22.14,22.14,0,0,1-3.51,5c-7,6.86-8.18,14.89-3.92,26.05,2.61,6.85,4.89,13.81,6.76,19.71a7.32,7.32,0,0,1-.9,6.29,4,4,0,0,1-3.08,1.32c-.67,0-3,0-4.29-1.32l-1.2-1.22c-2.2-2.2-4.69-4.7-5.65-7.83-2.88-9.35-5.41-19.31-7.51-29.62-.82-4-.24-8.42.43-11.93-7.64,11.43-9,22.72-4.57,35.43a37.68,37.68,0,0,1,2.1,10.23,8,8,0,0,1-1.8,4.78c-.28.43-.56.86-.78,1.28a2.46,2.46,0,0,1-3.55.93,16.52,16.52,0,0,0-1.47-.79c-1.77-.9-3.78-1.91-4.1-4-2.16-14.12-4.39-28.71-5.63-43.29-.36-4.22,2.52-8.57,4.83-12.06l.2-.3c2.94-4.47,3.36-8.56,1.42-14.11a55.1,55.1,0,0,1-2.18-10.47,71.23,71.23,0,0,0-1.22-7.07,20.59,20.59,0,0,0-2.28-4.93c-.42-.72-.81-1.4-1.13-2a2.47,2.47,0,0,1,.75-3.08c1.52-1.12,3-2.24,4.44-3.34,3.19-2.44,6.22-4.74,9.46-6.84,13.33-8.65,26.55-4.2,37.73,1.29,3.07,1.51,4.6,1.65,6.85.62a25.07,25.07,0,0,1,6.64-2.12,10.9,10.9,0,0,0,9-8.81l-4,.37-1.95.18a2.46,2.46,0,0,1-2.68-2.68c.08-.83.11-1.68.15-2.53a26.55,26.55,0,0,1,.79-6.32c1.05-3.63,2.33-7.09,3.69-10.76.36-1,.72-1.93,1.08-2.92-4.2-3.75-5-8.67-2.48-15a2.47,2.47,0,0,1,4-.88L177,72.28l10.61,1.18,13.58-6.93a2.45,2.45,0,0,1,2.22,0,2.47,2.47,0,0,1,1.33,1.79c2,11.79-5.11,14.48-8.27,15.08s-3.54,1.78-3.59,5.29c0,2.51-.12,5-.19,7.55a160.92,160.92,0,0,0,.22,20.37c1.15,12-2.68,22.54-6.38,32.77-.91,2.5-1.82,5-2.66,7.54-.15.47-.32.94-.5,1.41a9.66,9.66,0,0,0-.91,3.89c2.34,15.61,4.88,32.23,8,48.69a28.07,28.07,0,0,0,2.64,6.76,42.83,42.83,0,0,1,2.46,5.65c.59,1.8,0,3.54-.6,5.09a14.59,14.59,0,0,0-.46,1.42,2.48,2.48,0,0,1-1.37,1.66,2.44,2.44,0,0,1-2.14,0,15.47,15.47,0,0,0-1.68-.67c-1.89-.69-4-1.47-4.77-3.51-3.57-9.85-6.91-19.95-10.15-29.71l-2.39-7.24c-1.93-5.77-3.83-11.54-5.88-17.76l-.38-1.15c-2.43,8.35-4.15,16.45-3.16,24.68,1,8.64,2.59,17.41,4.1,25.88.67,3.77,1.34,7.54,2,11.32a2.46,2.46,0,0,1-2.43,2.87Zm-7.05-4.93h4.13q-.72-4.2-1.47-8.4c-1.52-8.54-3.09-17.37-4.15-26.15-1.4-11.7,2.17-23.11,5.62-34.15a2.47,2.47,0,0,1,2.33-1.73h0a2.46,2.46,0,0,1,2.34,1.69l2.81,8.52c2.05,6.22,4,12,5.87,17.76L179,196c3.2,9.65,6.5,19.63,10,29.33a10.42,10.42,0,0,0,1.51.65,4.22,4.22,0,0,0,.28-1.18,41.79,41.79,0,0,0-2.19-5,31.68,31.68,0,0,1-3.06-8c-3.1-16.54-5.65-33.21-8-48.87-.33-2.22.46-4.39,1.16-6.31q.24-.65.45-1.26c.85-2.58,1.78-5.13,2.7-7.68,3.68-10.16,7.15-19.75,6.11-30.62a167.32,167.32,0,0,1-.24-21c.08-2.49.15-5,.19-7.47,0-2.8.12-8.62,7.6-10.06,1.32-.25,4.48-.86,4.61-6l-11,5.6a2.38,2.38,0,0,1-1.39.25l-12.16-1.35a2.49,2.49,0,0,1-1.41-.65l-5.95-5.56c-.41,3.46,1.26,5.26,3.25,6.66a2.47,2.47,0,0,1,.9,2.84c-.57,1.58-1.14,3.12-1.71,4.64-1.32,3.58-2.58,7-3.58,10.4a22.12,22.12,0,0,0-.59,5q2.52-.24,5-.45a4.32,4.32,0,0,1,1.65.24,2.67,2.67,0,0,1,2,2.44,15.92,15.92,0,0,1-13.45,16.07,20.06,20.06,0,0,0-5.33,1.74c-4.16,1.9-7.44,1.1-11.07-.68-10.44-5.13-21.64-8.87-32.88-1.59-3.09,2-6,4.25-9.16,6.63l-2.76,2.09a23.78,23.78,0,0,1,2.78,6.2,75.13,75.13,0,0,1,1.32,7.55,50.2,50.2,0,0,0,2,9.54c2.43,7,1.83,12.68-2,18.44l-.2.3c-1.79,2.71-4.24,6.42-4,8.93,1.22,14.25,3.4,28.6,5.52,42.48a12.45,12.45,0,0,0,1.25.7,5.11,5.11,0,0,0,.73-1.41,32.73,32.73,0,0,0-1.83-8.85c-6.4-18.31-1.84-34.51,14.38-50.95a2.46,2.46,0,0,1,4.06,2.59c-.63,1.67-1.25,3.17-1.81,4.55a38.9,38.9,0,0,0-2.44,7.05c-.63,3.15-1.27,7.22-.57,10.65,2.07,10.14,4.56,19.95,7.39,29.15.61,2,2.55,3.92,4.43,5.8.35.35.7.7,1,1.05l.32,0a3.16,3.16,0,0,0-.06-1.19c-1.86-5.83-4.1-12.71-6.67-19.44-5-13.06-3.38-23,5.06-31.33a17.83,17.83,0,0,0,2.69-3.9c.44-.76.87-1.51,1.33-2.21a2.48,2.48,0,0,1,2.37-1.1C150.07,163.07,151,164,152.36,176l0,.29c1,9.28,2.19,18.71,3.32,27.82l1,8.08c.61,5,1.25,10,1.89,15Zm-26.64-10.58Z"/></g></svg>