<?xml version="1.0" encoding="utf-8"?>
<!-- Generator: Adobe Illustrator 23.1.1, SVG Export Plug-In . SVG Version: 6.00 Build 0)  -->
<svg version="1.1" id="Layer_1" xmlns="http://www.w3.org/2000/svg" xmlns:xlink="http://www.w3.org/1999/xlink" x="0px" y="0px"
	 viewBox="0 0 448 373" style="enable-background:new 0 0 448 373;" xml:space="preserve">
<style type="text/css">
	.st0{fill:#EAEAEA;}
	.st1{fill:#1A2E7E;}
	.st2{fill:#B91F25;}
	.st3{fill:#FFFFFF;}
</style>
<path class="st0" d="M381.9,207l-315.1-0.4c-23.2,0-42.2-19-42.1-42.2l0.2-111.2c0-23.2,19-42.2,42.2-42.1l315.1,0.4
	c23.2,0,42.2,19,42.1,42.2l-0.2,111.2C424.1,188.1,405.1,207,381.9,207z"/>
<g>
	<path class="st1" d="M139,80.9c-0.6,1.5-1.8,2.4-3.4,2.4l-8.3,0c-1.6,0-2.8-1.2-3-2.7l-4.4-31.9l9.5,0l1.9,23.4
		c0.1,1.4,0.2,2.9,0.1,4.3l1.3,0c0.3-1.5,0.8-2.9,1.3-4.2l8.5-23.5l9.9,0L139,80.9z"/>
	<path class="st1" d="M166,55.8c-1.8,0-2.5,0.6-2.7,2.3l-0.5,4.1l13,0l-0.8,6.4l-13.1,0l-0.7,5.2c-0.2,1.6,0.4,2.2,2,2.2l12.4,0
		l-0.2,6.8c-4.7,0.6-10.9,0.5-16.1,0.5c-5.8,0-8.4-3.6-7.7-8.9l2.6-18.8c0.6-4.5,3.6-7.3,8.6-7.3c5.8,0,12.1,0,16.8,0.6l-1.1,6.7
		L166,55.8z"/>
	<path class="st1" d="M202.9,66.9l-0.1,0.4c1.8,0.3,3.9,1.5,4.4,5.4l1.5,10.5l-9.7,0l-1.2-10.6c-0.2-2.1-0.8-2.5-2.4-2.5l-4.7,0
		l-1.8,13l-9.2,0l4.8-34.6c4.3-0.5,7.4-0.5,13.4-0.5c8.9,0,13.7,2.6,12.7,10.8C210.1,63.1,208.3,66.3,202.9,66.9z M197.8,55l-5,0
		l-1.1,8.3l4.5,0c3.4,0,4.5-0.9,5.1-4.5C201.7,55.9,200.8,55,197.8,55z"/>
	<path class="st1" d="M264.5,48.5c2.2,0,3.4,1.4,3.2,3.5l-3.1,31.1l-8.6,0l2.8-27.4l-0.8,0l-6.9,19.5c-0.6,2-1.8,2.8-3.9,2.8l-5.3,0
		c-2.1,0-3.3-1.2-3.4-3.1l-1.7-19.2l-0.8,0l-4.7,27.4l-8.6,0l5.7-31.5c0.4-2.2,1.4-3.2,3.5-3.2l8.3,0c2,0,3.2,1.2,3.3,3.1l1.3,15.4
		c0.2,1.7,0.1,3.3,0.1,5.1h0.6c0.5-1.9,0.9-3.4,1.4-5l5.3-15.8c0.6-2,1.8-2.8,3.8-2.8L264.5,48.5z"/>
	<path class="st1" d="M279.7,75.1l-3.2,8.1l-9.8,0l13.9-32.4c0.6-1.5,1.8-2.3,3.3-2.3l8.7,0c1.5,0,2.9,1.2,3,2.6l4.9,32l-9.4,0
		l-0.9-8.1L279.7,75.1z M288.7,59.1c-0.2-1.2-0.2-2.5-0.2-3.6l-1.4,0c-0.2,1.1-0.6,2.3-1.1,3.6l-3.5,8.9l7,0L288.7,59.1z
		 M284.5,43.2l11.7-7.7l3.1,6.4L286.6,47L284.5,43.2z"/>
	<path class="st1" d="M331.7,49.5l-0.8,6.1c-3,0-7.5-0.1-11.5-0.1c-2.9,0-4.1,0.2-4.4,2.3c-0.2,1.5,0.2,2,2.5,3l6,2.6
		c5.6,2.5,6.8,5.4,6.2,10.5c-0.9,7.9-4.5,9.9-14,9.9c-2.7,0-7.7-0.3-12.8-1.5l0.9-6.6c6.1,0.1,10,0.2,11.4,0.2
		c3.7,0,4.9-0.5,5.2-2.4c0.2-1.5-0.3-2-2.1-2.7l-6.4-2.9c-5.6-2.6-6.7-6-6.2-10.4c0.9-7.7,5.4-9.5,14.2-9.5
		C323.6,47.9,328,48.3,331.7,49.5z"/>
	<path class="st1" d="M81.3,120.4c0,11.7-3.4,15-13.1,15.1c-4.7,0-8.5-0.2-12-0.4l0-29.2c3.6-0.2,7.2-0.4,12-0.4
		C77.9,105.4,81.3,108.7,81.3,120.4z M73,120.4c0-7.2-1-9.1-4.7-9.1l-4,0l0,18.1c1.2,0,2.6,0,4,0C71.9,129.5,73,127.6,73,120.4z"/>
	<path class="st1" d="M85.6,135l0-29.2l7.9,0l0,29.2L85.6,135z"/>
	<path class="st1" d="M119.1,106.5l-0.5,5.2c-2.5,0-6.4-0.1-9.7-0.1c-2.6,0-3.4,0.2-3.4,1.8c0,1.4,0.7,1.9,2.8,2.6l5.4,2.1
		c4.8,1.9,6.4,4.5,6.4,8.8c0,6.6-2.8,8.7-11.4,8.7c-1.9,0-5.9-0.1-10.7-1.3l0.5-5.6c5.2,0.1,8.5,0.2,10.2,0.2c2.8,0,3.5-0.3,3.5-1.8
		c0-1.4-0.6-1.8-2.3-2.5l-5.8-2.3c-4.6-1.9-6.3-4.4-6.3-8.7c0-6.7,3.1-8.3,11.4-8.4C111.9,105.2,115.7,105.4,119.1,106.5z"/>
	<path class="st1" d="M138.3,111.9l0,23.1l-8,0l0-23.1l-8.4,0l0-6.1l24.8,0l0,6.1L138.3,111.9z"/>
	<path class="st1" d="M166.1,135l-2.1-8.8c-0.4-1.7-1.1-2.2-2.8-2.2l-3.6,0l0,11l-7.8,0l0-29.2c3.7-0.4,6.3-0.4,11.8-0.4
		c8.2,0,11.7,2,11.7,8.8c0,3.8-1.4,6.6-5.8,7.1v0.3c1.6,0.3,3.8,1.1,4.5,4.5l2.4,9L166.1,135z M161.5,118.1c3,0,3.8-0.7,3.8-3.5
		c0-2.8-0.8-3.5-3.8-3.5l-3.8,0l0,7L161.5,118.1z"/>
	<path class="st1" d="M177.9,135l0-29.2l7.9,0l0,29.2L177.9,135z"/>
	<path class="st1" d="M208.3,119.9c4.6,0.4,6.2,3.1,6.2,7.8c0,6-3.1,7.6-10.3,7.6c-6,0-9.3,0-13.3-0.3l0-29.2
		c3.6-0.3,6.6-0.3,11.9-0.3c7.9,0,10.7,1.6,10.7,7.6c0,4.2-1.5,6.3-5.2,6.7V119.9z M202.4,111l-3.7,0l0,6.4l3.9,0
		c2.6,0,3.3-0.6,3.3-3.3C205.9,111.5,205.1,111,202.4,111z M202.8,129.7c3,0,3.7-0.7,3.7-3.6c0-3.1-0.8-3.9-3.8-3.9l-4,0l0,7.5
		L202.8,129.7z"/>
	<path class="st1" d="M243,123c0,9.1-3.2,12.5-11.9,12.5c-9.4,0-12.8-3.3-12.8-12.4l0-17.4l8,0l0,17.4c0,5,1,6.4,4.4,6.4
		s4.4-1.4,4.4-6.4l0-17.4l8,0L243,123z"/>
	<path class="st1" d="M247.9,134.9l0-29.2l7.9,0l0,29.2L247.9,134.9z"/>
	<path class="st1" d="M286,120.3c0,11.7-3.4,15-13.1,15.1c-4.7,0-8.5-0.2-12-0.4l0-29.2c3.6-0.2,7.2-0.4,12-0.4
		C282.5,105.2,286,108.5,286,120.3z M277.6,120.3c0-7.2-1-9.1-4.7-9.1l-4,0l0,18.1c1.2,0,2.6,0,4,0
		C276.6,129.3,277.6,127.5,277.6,120.3z"/>
	<path class="st1" d="M315.5,120.2c0,11.9-3.5,15.2-13.1,15.2c-9.7,0-13.1-3.3-13.1-15.2c0-11.9,3.4-15.2,13.1-15.2
		C312,105,315.5,108.3,315.5,120.2z M297.6,120.3c0,7.2,1,9.1,4.8,9.1c3.7,0,4.7-1.9,4.7-9.1c0-7.2-1-9.1-4.8-9.1
		C298.6,111.1,297.6,113.1,297.6,120.3z"/>
	<path class="st1" d="M336,134.9l-2.1-8.8c-0.4-1.7-1.1-2.2-2.8-2.2l-3.6,0l0,11l-7.8,0l0-29.2c3.7-0.4,6.3-0.4,11.8-0.4
		c8.2,0,11.7,2,11.7,8.8c0,3.8-1.4,6.6-5.8,7.1v0.3c1.6,0.3,3.8,1.1,4.5,4.5l2.4,9L336,134.9z M331.4,118c3,0,3.8-0.7,3.8-3.5
		c0-2.8-0.8-3.5-3.8-3.5l-3.8,0l0,7L331.4,118z"/>
	<path class="st1" d="M368.6,134.5c-4.2,0.5-9.7,0.5-14.5,0.5c-4,0-6.7-2.5-6.7-6.3l0-16.9c0-3.8,2.7-6.3,6.6-6.3
		c4.8,0,10.3,0,14.5,0.5l-0.4,5.7l-11,0c-1.2,0-1.8,0.6-1.8,1.8l0,3.6l11.2,0l0,5.5l-11.2,0l0,4.4c0,1.2,0.6,1.8,1.8,1.8l11,0
		L368.6,134.5z"/>
	<path class="st1" d="M393.1,106.3l-0.5,5.2c-2.5,0-6.4-0.1-9.7-0.1c-2.6,0-3.4,0.2-3.4,1.8c0,1.4,0.7,1.9,2.8,2.6l5.4,2.1
		c4.8,1.9,6.4,4.5,6.4,8.8c0,6.6-2.8,8.7-11.4,8.7c-1.9,0-5.9-0.1-10.7-1.3l0.5-5.6c5.2,0.1,8.5,0.2,10.2,0.2c2.8,0,3.5-0.3,3.5-1.8
		c0-1.4-0.6-1.8-2.3-2.5l-5.8-2.3c-4.6-1.9-6.3-4.4-6.3-8.7c0-6.7,3.1-8.3,11.4-8.4C385.9,105,389.7,105.2,393.1,106.3z"/>
</g>
<g>
	<circle class="st2" cx="224.5" cy="259.5" r="90"/>
	<path class="st3" d="M224.5,355c-52.7,0-95.5-42.8-95.5-95.5s42.8-95.5,95.5-95.5c52.7,0,95.5,42.8,95.5,95.5S277.2,355,224.5,355z
		 M224.5,175c-46.6,0-84.5,37.9-84.5,84.5s37.9,84.5,84.5,84.5c46.6,0,84.5-37.9,84.5-84.5S271.1,175,224.5,175z"/>
	<g>
		<path class="st1" d="M224.5,352.3c-51.1,0-92.8-41.6-92.8-92.8s41.6-92.8,92.8-92.8s92.8,41.6,92.8,92.8S275.6,352.3,224.5,352.3z
			 M224.5,172.2c-48.1,0-87.3,39.2-87.3,87.3s39.2,87.3,87.3,87.3s87.3-39.2,87.3-87.3S272.6,172.2,224.5,172.2z"/>
	</g>
	<g>
		<path class="st3" d="M224.5,285.1c0.9,0,1.7-0.3,2.4-0.9l54.8-31.6c1.7-1,2.3-3.1,1.3-4.8l-3.8-6.6c-1-1.7-3.1-2.3-4.8-1.3
			l-49.9,28.8l-49.8-28.8c-1.7-1-3.9-0.4-4.8,1.3l-3.8,6.6c-1,1.7-0.4,3.9,1.3,4.8l54.8,31.6C222.8,284.8,223.6,285.1,224.5,285.1z"
			/>
	</g>
</g>
</svg>
