<svg xmlns="http://www.w3.org/2000/svg" width="83.257" height="83.261" viewBox="0 0 83.257 83.261"><path d="M833.714,31.971A41.63,41.63,0,1,0,875.342,73.6a41.63,41.63,0,0,0-41.629-41.632M856,79.444a9.995,9.995,0,0,1-10,10H820.447a10,10,0,0,1-10-10v-11.9a10,10,0,0,1,10-10h25.559a9.995,9.995,0,0,1,10,10Z" transform="translate(-792.085 -31.971)" fill="#fff"/><path d="M816.328,49.228l-10.976-5.973c-.449-.255-1.986.072-1.986.591V55.484c0,.509,1.524.836,1.973.591L816.8,50.406c.465-.251-.019-.918-.474-1.178" transform="translate(-767.918 -7.988)" fill="#fff"/></svg>