<svg xmlns="http://www.w3.org/2000/svg" viewBox="0 0 300 300"><defs><style>.cls-1{isolation:isolate;}.cls-2{fill:#003da6;}.cls-3{fill:#009ade;}.cls-4{fill:#54c0e8;}.cls-5{mix-blend-mode:multiply;}</style></defs><g class="cls-1"><g id="Layer_1" data-name="Layer 1"><path class="cls-2" d="M219.82,182.32C142.11,176.41,85,229.3,54,223.3,108.81,235.24,128,181.53,219.82,182.32Z"/><path class="cls-3" d="M125.14,209.35l2.88-1.21a6,6,0,0,1,1.34-.41,3.28,3.28,0,0,1,1.16,0,1.83,1.83,0,0,1,.87.39,1.53,1.53,0,0,1,.49.85,2.08,2.08,0,0,1,0,1.08,3,3,0,0,1-.5,1,4.16,4.16,0,0,1-.86.81,5.26,5.26,0,0,1-1.06.6l-1.19.5.81,3.42-2,.86Zm2.93,2.84.66-.28a1.65,1.65,0,0,0,.57-.37,1.58,1.58,0,0,0,.5-1.08,1.94,1.94,0,0,0-.05-.59,1.48,1.48,0,0,0-.26-.58,1,1,0,0,0-.42-.34,1.12,1.12,0,0,0-.52-.09,1.59,1.59,0,0,0-.58.14l-.61.25Z"/><path class="cls-3" d="M134.44,205.48l3.13-1.22a5.89,5.89,0,0,1,1.44-.39,2.84,2.84,0,0,1,1.11,0,1.55,1.55,0,0,1,.74.45,1.59,1.59,0,0,1,.38.78,1.65,1.65,0,0,1,0,.7,2.58,2.58,0,0,1-.27.71,3.45,3.45,0,0,1-.51.68,5.41,5.41,0,0,1-.71.63l3.74,2.64-2.22.87-3.53-2.5-.37.14.74,3.59-2,.8Zm2.78,2.86.45-.18a2.56,2.56,0,0,0,.67-.37,2.11,2.11,0,0,0,.49-.5,1.82,1.82,0,0,0,.28-.6,1.47,1.47,0,0,0,0-.66,1.31,1.31,0,0,0-.22-.54,1,1,0,0,0-.38-.34A1,1,0,0,0,138,205a1.34,1.34,0,0,0-.57.11l-.83.32Z"/><path class="cls-3" d="M150.47,199.51l.12.68-4.21,1.49.43,2.65,3.49-1.23.11.69L146.92,205l.52,3.2,4.2-1.49.14.83-6.26,2.21-1.3-8.05Z"/><path class="cls-3" d="M153.71,198.4l2-.61,3.51,4.71,2.29-6.47,2-.6.86,8.2-2.07.62-.56-5.34-2.19,6.18-.8.24-3.42-4.54.57,5.4-1.31.4Z"/><path class="cls-3" d="M167.21,194.48l2.07-.53.45,8.31-2.08.53Z"/><path class="cls-3" d="M179.27,191.68v.71l-4.24.92,0,2.77,3.53-.76V196l-3.53.76,0,3.33,4.25-.92v.86L173,201.44l-.09-8.4Z"/><path class="cls-3" d="M182.55,191.06l3.19-.52a5.48,5.48,0,0,1,1.43-.06,2.46,2.46,0,0,1,1,.32,1.49,1.49,0,0,1,.59.63,2,2,0,0,1,.16.89,2,2,0,0,1-.17.71,3,3,0,0,1-.43.66,3.91,3.91,0,0,1-.63.58,5.4,5.4,0,0,1-.81.48l2.83,3.57-2.26.37-2.67-3.38-.37.06-.17,3.84-2.08.34Zm1.9,3.57.45-.07a2.68,2.68,0,0,0,.71-.22,2.39,2.39,0,0,0,.58-.4,2,2,0,0,0,.39-.55,1.7,1.7,0,0,0,.17-.67,1.6,1.6,0,0,0-.07-.6,1.09,1.09,0,0,0-.27-.44,1,1,0,0,0-.42-.25,1.26,1.26,0,0,0-.55,0l-.85.13Z"/><path class="cls-3" d="M198.93,188.87l-.07.73-4.23.45-.3,2.82,3.51-.37-.08.73-3.51.37-.35,3.4,4.23-.45-.1.88-6.29.66.9-8.55Z"/><path class="cls-4" d="M219.62,182.31C144.71,173,83.11,229,52.16,223.05,101.6,233.08,129.89,180.41,219.62,182.31Z"/><path class="cls-4" d="M218.86,182h0S218.84,182,218.86,182Z"/><path class="cls-4" d="M182.76,100.05c-17.18,5.15-51.74-6.23-76.23,28.39,0,0,25.35,27.23,76.24-28.37Z"/><path class="cls-4" d="M185.13,88c.18,5.38-.67,9.25-2.37,12v0C195.06,96.44,210.52,105.11,185.13,88Z"/><g class="cls-5"><path class="cls-2" d="M182.72,100.06c-17.19,5.12-51.72-6.21-76.19,28.38C131.64,131.17,129.8,110.64,182.72,100.06Z"/><path class="cls-2" d="M182.75,100.09l0,0h0S182.75,100.08,182.75,100.09Z"/></g><path class="cls-3" d="M106.53,128.44s25.34,27.22,76.21-28.35C141,137.86,121,109.88,106.53,128.44Z"/><path class="cls-3" d="M182.72,100.06h.05v0Z"/><path class="cls-4" d="M237.73,101.23c-11.15,2.58-32.71-6.08-49.72,15,0,0,15,18.39,49.73-15Z"/><path class="cls-4" d="M239.73,93.64c-.1,3.44-.8,5.87-2,7.58h0C245.72,99.43,255.22,105.58,239.73,93.64Z"/><g class="cls-5"><path class="cls-2" d="M237.71,101.23c-11.16,2.56-32.7-6.06-49.7,15C203.89,119,203.56,105.82,237.71,101.23Z"/><path class="cls-2" d="M237.72,101.25h0Z"/></g><path class="cls-3" d="M188,116.2s15,18.38,49.71-15C209.57,123.61,198,105,188,116.2Z"/><path class="cls-3" d="M237.71,101.23h0Z"/><path class="cls-4" d="M191.67,69.51c-7.56,2.26-22.76-2.74-33.54,12.49,0,0,11.16,12,33.55-12.48Z"/><path class="cls-4" d="M192.71,64.21a9.44,9.44,0,0,1-1,5.3h0C197.08,67.92,203.89,71.74,192.71,64.21Z"/><g class="cls-5"><path class="cls-2" d="M191.65,69.51c-7.56,2.26-22.75-2.73-33.52,12.49C169.18,83.2,168.38,74.17,191.65,69.51Z"/><polygon class="cls-2" points="191.67 69.53 191.68 69.52 191.68 69.52 191.67 69.53"/></g><path class="cls-3" d="M158.13,82s11.15,12,33.53-12.47C173.29,86.15,164.5,73.84,158.13,82Z"/><path class="cls-3" d="M191.65,69.51h0Z"/><path class="cls-2" d="M94.86,200.13a56.24,56.24,0,0,1-1.48-8.7q-.51-5-.63-10.73T92.93,169q.28-6,.78-11.77.77-8.44,2-16c.82-5,1.86-9.42,2.57-13.19q1.26-6.63,2.67-12.26a2.88,2.88,0,0,0,.06-1.44.73.73,0,0,0-.61-.63,2.07,2.07,0,0,0-.68,0A6.2,6.2,0,0,0,96.37,116a25.84,25.84,0,0,0-2.71,3.94,29.85,29.85,0,0,0-1.77,3.67,14.38,14.38,0,0,0-.55,1.5c-2.24,3.1-16.77,24.48-21.77,34.11l-.33.6a23.33,23.33,0,0,0-5.58-2.53,13.5,13.5,0,0,0-6.86-.34A5.51,5.51,0,0,0,54,158.38a6.17,6.17,0,0,0-1.45,2.4,8.38,8.38,0,0,0-.39,2.84,11.18,11.18,0,0,0,.39,2.79c.09.36.29.93.59,1.73a19.46,19.46,0,0,0,1.09,2.39,11.62,11.62,0,0,0,1.34,2,1.5,1.5,0,0,0,1.47.68q.51-.12.24-1.11l-.14-.53c-.27-1-.51-2.14-.72-3.37a10.94,10.94,0,0,1-.08-3.46,6.33,6.33,0,0,1,1.14-2.9,4.67,4.67,0,0,1,2.92-1.71,9.17,9.17,0,0,1,4.83.23,18.77,18.77,0,0,1,3,1.25Q64.6,168.22,61.38,175t-5.61,13.22a61.1,61.1,0,0,0-3.33,11.17,24,24,0,0,0,0,9.6c.39,1.47,1,2.22,1.75,1.95,6.05-2.22,7.12-22.66,14-39.34,1-2.31,1.86-5,3.11-7.86a41.6,41.6,0,0,1,4.12,4.07,44.27,44.27,0,0,1,3.44,4.48,41.16,41.16,0,0,1,2.61,4.51,23.52,23.52,0,0,1,1.59,4.08,33.16,33.16,0,0,1,1,8.55c0,3.06.69,29.22,17,16.72C102,204.55,97.28,207.78,94.86,200.13Zm-4.75-66.32c-.87,3.74-2.08,9-2.83,13.2-.6,3.61-1.23,7.72-1.86,12.32s-1.08,9.39-1.33,14.35a1,1,0,0,1,0,.5c-.07.29-.18.45-.32.49s-.39-.22-.76-.75A58.86,58.86,0,0,0,78,167a45.88,45.88,0,0,0-5.59-5.57q2.76-6,6.68-12.81a147.39,147.39,0,0,1,9.71-15.12l.37-.29a1.91,1.91,0,0,1,.69-.36c.22,0,.34,0,.37.12A2,2,0,0,1,90.11,133.81Z"/><path class="cls-2" d="M202.87,159.39c-1.19-2.13-8,3.93-9.84,5.3-1,.73-.72-1.8-.43-3.59.2-1.1.47-2.35.79-3.75q.6-2.55,1.37-5.45t1.52-5.6c.51-1.79,1-3.44,1.4-4.92s.73-2.61.93-3.38a1.11,1.11,0,0,0,.12-.72c-.1-.43-.56-.55-1.36-.35a6.41,6.41,0,0,0-3.15,1.81,15.94,15.94,0,0,0-2.2,2.86,20.39,20.39,0,0,0-1.75,3.68,50.64,50.64,0,0,1-3.26,7.94c-1.33,2.59-2.6,4.92-3.79,7a80.69,80.69,0,0,1-4.5,6.91,6.74,6.74,0,0,1-1.49,1.75,3.23,3.23,0,0,1-1,.54c-.43.11-.73-.18-.9-.86a7.82,7.82,0,0,1-.08-2.74,12.2,12.2,0,0,1,.31-1.94,75.64,75.64,0,0,1,2.77-9.3,52.05,52.05,0,0,1,4.53-9.39,35.28,35.28,0,0,1,6.45-7.79c2.47-2.22,4.25-3.71,7.4-4.49,1.55-.38,2.25-.88,2.09-1.5-.09-.37-1.33-1-4.61-.25a26.16,26.16,0,0,0-11.3,5.76,41.44,41.44,0,0,0-8.25,9.66,54.39,54.39,0,0,0-3.54,6.76s0,0-.06,0q-2.37,4.73-4.25,8.09t-3.28,5.68c-.24.39-.56.91-1,1.58s-.86,1.31-1.3,1.94a16.12,16.12,0,0,1-1.34,1.71,2.82,2.82,0,0,1-1.17.88c-.37.09-.62-.14-.76-.7a6.47,6.47,0,0,1-.09-2,18.54,18.54,0,0,1,.41-2.56c.2-.9.42-1.81.66-2.72s.45-1.75.65-2.52.64-2.34,1.21-4.29,1.17-4,1.8-6.25,1.26-4.36,1.87-6.42,1.06-3.67,1.36-4.86a2.3,2.3,0,0,0,.23-.65,3,3,0,0,0,.08-1.3q-.18-.74-1-.54a8.64,8.64,0,0,0-4.18,2.41,11.32,11.32,0,0,0-2.59,4.09c-.69,2-1.36,3.81-2,5.41s-1.26,3-1.82,4.19c-.66,1.35-1.25,2.54-1.78,3.59-1.24,2.67-2.46,5.06-3.65,7.15s-2.25,3.92-3.18,5.46c-1.07,1.78-2.07,3.34-3,4.68a11.29,11.29,0,0,1-1.33,1.61,2.83,2.83,0,0,1-1.14.77c-.37.09-.61-.08-.71-.51a7,7,0,0,1,.17-2.51c.22-1.23.49-2.58.82-4s.67-2.92,1-4.39.66-2.63.91-3.47c.5-2,1-3.9,1.62-5.82s1.13-3.67,1.65-5.28,1-3.05,1.44-4.34.76-2.32,1-3.09a2.41,2.41,0,0,0,.12-1.12c-.11-.43-.47-.57-1.09-.42a9.43,9.43,0,0,0-3.66,2.53,17.08,17.08,0,0,0-3.67,5.29,23.19,23.19,0,0,0-1,2.66c-.34,1-.69,2.14-1.06,3.31s-.74,2.4-1.11,3.67c-.17.57-.33,1.12-.5,1.68A145,145,0,0,1,128.89,175q-4.24,6.57-8.92,12.74,1.17-4,2.32-8.16c.76-2.74,1.56-5.5,2.39-8.26.14-.5.36-1.26.67-2.29s.63-2.17,1-3.44.72-2.62,1.11-4.06.81-2.91,1.24-4.39c.93-3.38,2.61-9.32,3.74-13.27a20.59,20.59,0,0,0,.4-2.76,6.05,6.05,0,0,0-.06-1.46c-.17-.68-.54-.95-1.09-.82a4,4,0,0,0-2.06,1.64,26.36,26.36,0,0,0-1.92,3c-.69,1.22-1.92,4.5-2.6,6-.14.23-.27.36-.4.39a.55.55,0,0,1-.41-.09,3.32,3.32,0,0,0-.71-.27,5,5,0,0,0-1.22-.14,7.73,7.73,0,0,0-1.94.28,19.38,19.38,0,0,0-7.59,4.3,36.1,36.1,0,0,0-6.33,7.08,53.37,53.37,0,0,0-5,8.89,61,61,0,0,0-3.31,9.53,54.56,54.56,0,0,0-1.54,8.9c-.24,2.78,0,11.69,2.91,11s7.66-8.13,9-10.11q1.74-2.49,3.72-5.69t3.72-6.48l.27-.46c.19-.31.38-.49.56-.53s.21,0,.26.23a1,1,0,0,1,0,.34q0,.15,0,.45c-.32,1.39-.72,3.09-1.2,5.12-.43,1.74-15.81,53.65-14.87,53.7s5.89-2.24,7.15-5.18c.15-.33.3-.75.46-1.22.92-3.2,8.42-31.12,9.91-36.54q6.27-8.13,10.88-15.38c1.82-2.87,3.4-5.42,4.72-7.68l-.83,3.21c-.66,2.4-1.17,4.69-1.55,6.88q-.59,2.81-.89,5.59a13.15,13.15,0,0,0,.09,4.36,2.1,2.1,0,0,0,.62,1.12,1.16,1.16,0,0,0,1.09.23,3.68,3.68,0,0,0,1-.5,10.54,10.54,0,0,0,1.63-1.38,34.13,34.13,0,0,0,2.42-2.77,52.63,52.63,0,0,0,3.27-4.69q1.59-2.35,3.43-5.28,1.56-2.44,3.58-5.85t4.14-7.57q.21-.34.39-.39a.17.17,0,0,1,.23.14l0,.09-1.66,5.63q-1,4-1.74,7.32c-.44,1.95-.8,3.79-1.09,5.54a10.25,10.25,0,0,0-.19,3.64,4.14,4.14,0,0,0,.55,1.24,1.11,1.11,0,0,0,1.32.36,6.94,6.94,0,0,0,2.81-2q1.69-1.69,3.48-3.86t3.34-4.42q1.56-2.25,2.5-3.66,1.69-2.69,3.91-6.48l1.57-2.74a58,58,0,0,0-1.16,5.78,14.72,14.72,0,0,0-.18,1.67c0,.83-.09,1.74-.11,2.73s0,2,0,3a12.43,12.43,0,0,0,.29,2.38,4.15,4.15,0,0,0,1.18,2.37,1.91,1.91,0,0,0,1.64.29,5.76,5.76,0,0,0,2.6-1.63,29.73,29.73,0,0,0,2.28-2.53q1.93-2.55,3.78-5.46,1.65-2.48,3.5-5.54t3.61-6.35a8.74,8.74,0,0,1,.58-.84c.25-.32.43-.5.56-.53a.17.17,0,0,1,.23.14,2.66,2.66,0,0,1-.17.93q-1.05,3.7-1.83,6.95a54.29,54.29,0,0,0-1,5.57,12.14,12.14,0,0,0,0,4.32,1.94,1.94,0,0,0,.53,1,1.12,1.12,0,0,0,1.13.21,4.53,4.53,0,0,0,1.1-.52A9.64,9.64,0,0,0,188,176c.06,0,.24-.25.5-.54a26.53,26.53,0,0,0,2.64-3.08c1.54-1.84,3.36-4.08,4.77-6C202.91,158.26,203.88,161.2,202.87,159.39ZM114.7,175.5A92.34,92.34,0,0,1,109,185a7.29,7.29,0,0,1-1.56,1.66,3.81,3.81,0,0,1-1.14.58c-.55.13-.92-.17-1.1-.91a11.18,11.18,0,0,1,.18-4,54.17,54.17,0,0,1,1.6-6.49c.74-2.45,1.65-5,2.74-7.67a58.84,58.84,0,0,1,3.59-7.38,34.73,34.73,0,0,1,4.22-5.87,9.48,9.48,0,0,1,4.66-3.06,7.48,7.48,0,0,1,.95-.14c.44,0,.71.09.78.4a.86.86,0,0,1,0,.39,82.39,82.39,0,0,1-4.28,12.77Q117.05,171.08,114.7,175.5Z"/></g></g></svg>