<svg xmlns="http://www.w3.org/2000/svg" xmlns:xlink="http://www.w3.org/1999/xlink" viewBox="0 0 300 300"><defs><style>.cls-1{isolation:isolate;}.cls-2{fill:url(#linear-gradient);}.cls-3{fill:url(#linear-gradient-2);}.cls-4{fill:#39b54a;}.cls-14,.cls-5{mix-blend-mode:multiply;}.cls-5{opacity:0.85;}.cls-6{fill:url(#linear-gradient-3);}.cls-7{fill:url(#linear-gradient-4);}.cls-8{fill:url(#linear-gradient-5);}.cls-9{fill:url(#linear-gradient-6);}.cls-10{fill:url(#linear-gradient-7);}.cls-11{fill:url(#linear-gradient-8);}.cls-12{fill:url(#linear-gradient-9);}.cls-13{fill:url(#linear-gradient-10);}.cls-14{opacity:0.58;}.cls-15{fill:url(#linear-gradient-11);}.cls-16{fill:url(#linear-gradient-12);}.cls-17{fill:url(#linear-gradient-13);}.cls-18{fill:#fff;}</style><linearGradient id="linear-gradient" x1="38.87" y1="150" x2="261.13" y2="150" gradientUnits="userSpaceOnUse"><stop offset="0" stop-color="#dedfe0"/><stop offset="0.01" stop-color="#dfe0e1"/><stop offset="0.17" stop-color="#f1f1f2"/><stop offset="0.35" stop-color="#fcfcfc"/><stop offset="0.55" stop-color="#fff"/><stop offset="0.74" stop-color="#fcfcfc"/><stop offset="0.86" stop-color="#f3f4f4"/><stop offset="0.97" stop-color="#e4e5e6"/><stop offset="1" stop-color="#dedfe0"/></linearGradient><linearGradient id="linear-gradient-2" x1="119.39" y1="167.8" x2="119.39" y2="132.2" gradientUnits="userSpaceOnUse"><stop offset="0.01"/><stop offset="0.02" stop-color="#0e0f0f"/><stop offset="0.03" stop-color="#28292a"/><stop offset="0.05" stop-color="#3d3e40"/><stop offset="0.07" stop-color="#4d4f51"/><stop offset="0.09" stop-color="#595b5c"/><stop offset="0.12" stop-color="#5f6163"/><stop offset="0.22" stop-color="#616365"/><stop offset="0.35" stop-color="#585a5b"/><stop offset="0.57" stop-color="#3f4042"/><stop offset="0.86" stop-color="#171718"/><stop offset="1"/></linearGradient><linearGradient id="linear-gradient-3" x1="111.52" y1="167.79" x2="111.52" y2="141.35" gradientUnits="userSpaceOnUse"><stop offset="0" stop-color="#616365" stop-opacity="0"/><stop offset="1"/></linearGradient><linearGradient id="linear-gradient-4" x1="80.42" y1="165.76" x2="80.42" y2="139.12" xlink:href="#linear-gradient-3"/><linearGradient id="linear-gradient-5" x1="53.34" y1="166.3" x2="53.34" y2="137.15" xlink:href="#linear-gradient-3"/><linearGradient id="linear-gradient-6" x1="148.6" y1="161.14" x2="148.6" y2="144.88" xlink:href="#linear-gradient-3"/><linearGradient id="linear-gradient-7" x1="174.25" y1="165.76" x2="174.25" y2="147.53" xlink:href="#linear-gradient-3"/><linearGradient id="linear-gradient-8" x1="189" y1="165.76" x2="189" y2="149.06" xlink:href="#linear-gradient-3"/><linearGradient id="linear-gradient-9" x1="132.17" y1="165.76" x2="132.17" y2="144.12" xlink:href="#linear-gradient-3"/><linearGradient id="linear-gradient-10" x1="161.11" y1="165.76" x2="161.11" y2="146.44" xlink:href="#linear-gradient-3"/><linearGradient id="linear-gradient-11" x1="216.71" y1="165.76" x2="216.71" y2="147.95" gradientUnits="userSpaceOnUse"><stop offset="0" stop-color="#616365" stop-opacity="0"/><stop offset="0.16" stop-color="#5e645f" stop-opacity="0.09"/><stop offset="0.43" stop-color="#54674f" stop-opacity="0.32"/><stop offset="0.77" stop-color="#456b35" stop-opacity="0.7"/><stop offset="1" stop-color="#396e21"/></linearGradient><linearGradient id="linear-gradient-12" x1="199.48" y1="165.76" x2="199.48" y2="150.68" xlink:href="#linear-gradient-11"/><linearGradient id="linear-gradient-13" x1="244.39" y1="165.76" x2="244.39" y2="146.2" xlink:href="#linear-gradient-11"/></defs><g class="cls-1"><g id="Layer_1" data-name="Layer 1"><path class="cls-2" d="M107.65,169.09a5,5,0,0,1-2.81-.85L95,161.71a5.09,5.09,0,0,1-2.12-5.35l2-8.56a8.68,8.68,0,0,1-4.23,3.85,6,6,0,0,1,1.65,4.52l.6,10.89H81.44l-.25-10.61c0-1-.07-1.07-1.13-1.07H77.29l-2.48,11.68h-11L71,133.58l.94-.09A112.07,112.07,0,0,1,84.67,133c5.7,0,8.87.92,10.62,3.08a7,7,0,0,1,1.4,4.8,5,5,0,0,1,2.13-2l14.51-7.4a5.09,5.09,0,0,1,2.3-.55,5,5,0,0,1,2.8.85l9.8,6.53a5,5,0,0,1,2.19,3.44l1.07-4.26a4.85,4.85,0,0,1,4.95-4H144a4,4,0,0,1,3,1.08,3.87,3.87,0,0,1,1,2.88V149l5.06-12.07a5.24,5.24,0,0,1,5-3.45h7.68a3.79,3.79,0,0,1,3,1.17,4,4,0,0,1,.66,3.35l-5,29.06H154.1l3.12-18.1L152.88,159a5.11,5.11,0,0,1-5,3.39H143.1a4.08,4.08,0,0,1-3-1.08,3.78,3.78,0,0,1-1-2.82l-.08-9.8-4.5,18.33h-10.4l1.74-6.9a5.2,5.2,0,0,1-1.34,1l-14.52,7.4a5.05,5.05,0,0,1-2.29.55ZM81.6,146.64c2.6,0,3.07-.35,3.56-2.7.33-1.52.13-1.82.11-1.85s-.35-.32-2.09-.32h-3l-1,4.87Zm-30.4,21c-5.12,0-8.41-1.11-10.33-3.49-2.24-2.77-2.58-7.12-1.09-14.11,2.64-12.43,7.58-17.06,18.23-17.06a31.29,31.29,0,0,1,9.91,1.18l1.27.37-2.63,8.39-1,0c-2.82-.08-4.84-.13-9.09-.13-2.56,0-3.83.74-5.34,7.82-.52,2.45-1.12,5.82-.33,6.79.1.12.4.49,1.9.49a86.66,86.66,0,0,0,9.73-.35L64,157.3l-.88,8.58-.81.26A33.76,33.76,0,0,1,51.2,167.6Zm191.59-.54,1.38-6.51h-10.8a4.24,4.24,0,0,1-3.18-1.28l-1.66,7.79H195.37l-2-7.65-5.41,7.65H166.61l7.14-33.58h11l-6.82,32.12,11.29-15.94-4.29-16.18h10.71l2,7.65,5.42-7.65h11l-12.33,17.4,2.49,9.39a6.67,6.67,0,0,1,2.08-3.24l8.51-7.21c5.22-4.35,6.5-6.32,6.76-7.16a14.73,14.73,0,0,0-1.79-.08c-3.12,0-5.38,0-9.63.22l-2.67.14,6.73-9.5.57-.07a59,59,0,0,1,7.58-.43c3.41,0,7.59.33,9.64,2.86,1.21,1.49,1.54,3.58,1,6.21-.84,3.94-2.42,6.17-7.33,10.37l-5.93,4.81h9.41a5.16,5.16,0,0,1,.82-3.43l12.27-20.28h10.87l-11.29,18.86h4l1.6-7.5,11.71-6.52-3,14h4.89L254.62,160l-1.51,7.08Z"/><path class="cls-3" d="M95,143.67c1.53-7.19-1.69-9.34-10.36-9.34a110.8,110.8,0,0,0-12.63.45l-6.58,31h8.31l2.48-11.67h3.81c1.71,0,2.36.54,2.43,2.33l.21,9.34h8.85L91,156.2c0-3.55-2.14-4.49-3.75-4.76l.06-.27C92.06,150.67,94.18,147.66,95,143.67Zm-8.6.54c-.63,3-1.65,3.72-4.83,3.72h-4l1.59-7.45h4C86.37,140.48,87.06,141.24,86.43,144.21Zm-36.54,6.06c1.48-7,2.91-8.85,6.6-8.85,4.13,0,6.09.05,9.13.14l1.94-6.2A29.9,29.9,0,0,0,58,134.24c-9.92,0-14.46,4.22-17,16s.23,16,10.16,16A32.5,32.5,0,0,0,62,164.91l.63-6.15a89,89,0,0,1-9.87.36C49,159.12,48.41,157.23,49.89,150.27Zm115.88-15.49h-7.68a3.91,3.91,0,0,0-3.84,2.65l-5.74,13.69c-.6,1.53-1.1,3.06-1.64,4.54h-.5c.14-1.48.28-3,.33-4.49V137.43c0-1.76-.92-2.65-2.71-2.65h-7.55a3.54,3.54,0,0,0-3.69,3l-7,28h7.73l6-24.56h.72l.13,17.33c0,1.71.93,2.61,2.77,2.61h4.76a3.85,3.85,0,0,0,3.83-2.61l7.46-17.33h.72l-4.24,24.56h7.73l4.82-28C168.51,135.81,167.79,134.78,165.77,134.78Zm-36.67,8.56a3.77,3.77,0,0,0-1.59-4l-9.79-6.52a3.75,3.75,0,0,0-3.8-.22L99.4,140a3.77,3.77,0,0,0-2,2.51l-3.26,14.14a3.78,3.78,0,0,0,1.58,4l9.8,6.52a3.75,3.75,0,0,0,3.8.22L123.87,160a3.77,3.77,0,0,0,2-2.51Zm68.87,4h0l-.2-.87-3.1-11.7h-8l4,15.13-11.23,15.85h7.87l11.34-16Zm-23.18-12.57-6.58,31h8.35l6.59-31Z"/><path class="cls-4" d="M200.4,147.35h0l.62,2.34,10.56-14.91h-7.86l-4.84,6.83,1.29,4.87Zm54.24,6.29,2.72-12.8-8.71,4.85L247,153.64H240.9c-.72,0-1.07-.45-.53-1.3l10.51-17.56H243l-11.9,19.67c-1.51,2.42-.35,4.8,2.25,4.8h12.4l-1.39,6.51h7.68l1.39-6.51h.09l4.78-5.61Zm-60.08,5.29,1.81,6.83h8l-4-15.08Zm30.32-7.54c5-4.26,6.18-6.28,6.9-9.65,1.29-6.07-2.76-7.5-9.36-7.5a56.37,56.37,0,0,0-7.42.41l-4.86,6.86c4.28-.22,6.52-.22,9.7-.22,2.38,0,3.39.13,3.11,1.44-.33,1.75-3,4.53-7.24,8.08L207.22,158a5.75,5.75,0,0,0-1.89,3.37l-.93,4.4h23.08l1.55-7.27H216.15Z"/><g class="cls-5"><path class="cls-6" d="M129,143.94l-31-2.59a4,4,0,0,0-.49,1.17l-3.26,14.14a3.78,3.78,0,0,0,1.58,4l9.8,6.52a3.75,3.75,0,0,0,3.8.22L123.87,160a3.77,3.77,0,0,0,2-2.51Z"/><path class="cls-7" d="M95,143.67a15,15,0,0,0,.35-2.53l-24.26-2-5.66,26.64h8.31l2.48-11.67h3.81c1.71,0,2.36.54,2.43,2.33l.21,9.34h8.85L91,156.2c0-3.55-2.14-4.49-3.75-4.76l.06-.27C92.06,150.67,94.18,147.66,95,143.67Zm-8.6.54c-.63,3-1.65,3.72-4.83,3.72h-4l1.59-7.45h4C86.37,140.48,87.06,141.24,86.43,144.21Z"/><path class="cls-8" d="M49.89,150.27c1.48-7,2.91-8.85,6.6-8.85,4.13,0,6.09.05,9.13.14l.88-2.83-19-1.58c-3.14,2.47-5.12,6.66-6.5,13.12-2.51,11.81.23,16,10.16,16A32.5,32.5,0,0,0,62,164.91l.63-6.15a89,89,0,0,1-9.87.36C49,159.12,48.41,157.23,49.89,150.27Z"/><path class="cls-9" d="M150.76,145.75l-2.25,5.37c-.6,1.53-1.1,3.06-1.64,4.54h-.5c.14-1.48.28-3,.33-4.49v-5.75l-6.48-.54.11,13.65c0,1.71.93,2.61,2.77,2.61h4.76a3.85,3.85,0,0,0,3.83-2.61L157,146.27Z"/><polygon class="cls-10" points="172.08 147.53 168.21 165.76 176.56 165.76 180.29 148.22 172.08 147.53"/><polygon class="cls-11" points="190.62 149.91 179.39 165.76 187.26 165.76 198.6 149.74 190.39 149.06 190.62 149.91"/><polygon class="cls-12" points="131.16 144.12 125.72 165.76 133.45 165.76 138.61 144.74 131.16 144.12"/><polygon class="cls-13" points="158.96 146.44 155.63 165.76 163.36 165.76 166.58 147.07 158.96 146.44"/></g><g class="cls-14"><path class="cls-15" d="M224.88,151.39a43.6,43.6,0,0,0,3.66-3.44l-10.29.65c-.77.7-1.62,1.43-2.54,2.21L207.22,158a5.75,5.75,0,0,0-1.89,3.37l-.93,4.4h23.08l1.55-7.27H216.15Z"/><polygon class="cls-16" points="194.56 158.93 196.37 165.76 204.4 165.76 200.4 150.68 194.56 158.93"/><path class="cls-17" d="M256.22,146.2l-7.78.5L247,153.64H240.9c-.72,0-1.07-.45-.53-1.3l3.19-5.34-8.25.52-4.19,6.93c-1.51,2.42-.35,4.8,2.25,4.8h12.4l-1.39,6.51h7.68l1.39-6.51h.09l4.78-5.61h-3.68Z"/></g><path class="cls-18" d="M122,149.5l-2.89-8.59a1.08,1.08,0,0,0-.44-.56,1.31,1.31,0,0,0-.72-.23h-9.38a1.8,1.8,0,0,0-.81.23,2,2,0,0,0-.68.56l-6.54,8.59a2,2,0,0,0-.35.77,1.54,1.54,0,0,0,0,.77l2.89,8.59a1.08,1.08,0,0,0,.44.56,1.4,1.4,0,0,0,.72.23h9.38a1.93,1.93,0,0,0,.81-.23,2,2,0,0,0,.68-.56l6.54-8.59a2,2,0,0,0,.35-.77A1.54,1.54,0,0,0,122,149.5Zm-1.06,1.08-6.54,8.59a.86.86,0,0,1-.26.2.64.64,0,0,1-.3.09h-9.38a.45.45,0,0,1-.26-.09.42.42,0,0,1-.17-.2l-2.89-8.59a.78.78,0,0,1,0-.31.92.92,0,0,1,.13-.31l6.54-8.59a.86.86,0,0,1,.26-.2.69.69,0,0,1,.3-.1h9.38a.48.48,0,0,1,.26.1.42.42,0,0,1,.17.2L121,150a.78.78,0,0,1,0,.31A.92.92,0,0,1,120.9,150.58Z"/><polygon class="cls-18" points="116.75 147.16 117.11 145.47 112.71 142.75 107.29 145.65 105.65 153.36 108.13 154.92 109.72 154.18 107.23 152.45 108.51 146.43 112.22 144.48 116.75 147.16"/><polygon class="cls-18" points="110.54 156.21 111.87 157.03 117.05 154.31 118.23 148.76 112.17 144.93 108.86 146.6 108.49 148.33 111.91 146.51 116.72 149.55 115.86 153.49 110.54 156.21"/><polygon class="cls-18" points="106.4 148 104.74 148.81 103.57 154.31 107.98 157.06 115.49 153.1 116.16 149.94 114.97 149.15 114.25 152.4 108.32 155.48 105.22 153.53 106.4 148"/></g></g></svg>