<?xml version="1.0" encoding="utf-8"?>
<!-- Generator: Adobe Illustrator 26.0.0, SVG Export Plug-In . SVG Version: 6.00 Build 0)  -->
<svg version="1.1" id="Layer_1" xmlns="http://www.w3.org/2000/svg" xmlns:xlink="http://www.w3.org/1999/xlink" x="0px" y="0px"
	 viewBox="0 0 700 700" style="enable-background:new 0 0 700 700;" xml:space="preserve">
<style type="text/css">
	.st0{fill:#001F60;}
	.st1{fill:#D0B787;}
</style>
<g>
	<path class="st0" d="M614.1,571.6c62.9-155.1-11.8-331.9-166.9-394.9C292,113.7,113,192,50,347.1l7.1-21.7
		c62.9-155.1,245-231.7,400.2-168.8c155.2,63,229.9,239.7,166.9,394.9L614.1,571.6z"/>
	<path class="st1" d="M617.5,565.4c62.9-155.1-11.8-331.9-166.9-394.9c-155.2-63-334.1,15.3-397.1,170.5l7.1-21.7
		c62.9-155.2,245-231.7,400.2-168.8c155.2,63,229.9,239.7,166.9,394.9L617.5,565.4z"/>
	<path class="st0" d="M346.3,361.2l-15.3,118l-39.9,3.7l1.6-10.8c-4.5,4.3-9,7.9-13.3,10.6c-4.3,2.7-9.9,4.3-16.7,5
		c-8.7,0.8-16.4-0.8-23.2-4.9c-6.8-4.1-12.1-9.8-16-17.3c-3.8-7.4-5.9-15.8-6.1-25c-0.2-7.6,0.8-15.6,3.2-23.8
		c2.4-8.2,6.8-16.3,13.3-24.2c6.5-7.9,15.8-14.7,27.9-20.3c12.1-5.7,27.1-9.3,45-11c7.5-0.7,13.7-1,18.6-0.9
		C330.3,360.4,337.2,360.7,346.3,361.2z M303.5,389.9l-7.5,0.7c-7.2,0.7-13.8,3.3-19.7,7.8c-5.9,4.5-10.4,10.2-13.6,17.3
		c-3.2,7-4.7,14.4-4.4,22.2c0.1,5.3,1.7,9.7,4.6,13.2c2.9,3.5,7,5,12.2,4.5c2.6-0.2,5.5-1.2,8.7-2.7c3.2-1.6,7.3-4.2,12.3-7.8
		L303.5,389.9z"/>
	<path class="st0" d="M457.5,350.8l-4.4,37c-7.9-1.7-12.9-2.7-15-2.9c-4.6-0.7-9.4-0.8-14.4-0.3c-9.2,0.9-16.7,3.3-22.5,7.2
		c-5.8,3.9-9.9,8.5-12.4,13.6c-2.5,5.1-3.7,9.7-3.6,13.6c0.2,5.2,2.1,10,6,14.5c3.8,4.5,11.3,6.3,22.5,5.2
		c5.7-0.5,11.4-1.8,16.9-3.9c5.6-2.1,13-5.6,22.3-10.8l-5.3,40.2c-5,2-9.1,3.5-12.1,4.5c-3.1,1-6.4,1.8-10.1,2.5
		c-3.6,0.7-7.4,1.2-11.2,1.6c-26.4,2.4-44.5-2-54.5-13.2c-10-11.3-15.1-23.7-15.5-37.3c-0.3-8.6,1.8-18.2,6.2-28.6
		c4.4-10.4,12.3-19.9,23.8-28.4c11.5-8.5,27.1-13.7,46.9-15.5C432.4,348.8,444.6,349.1,457.5,350.8z"/>
	<path class="st0" d="M573.8,389.2c0.2,5.6-0.2,11.4-1.2,17.4l-77.7,7.2c0.5,16.3,9,23.7,25.7,22.1c8.3-0.8,15.7-2.4,22.2-4.8
		c6.5-2.5,14.2-5.9,23.2-10.3l-5.3,29.5c-8.5,4.1-15.4,7-20.5,8.6c-5.2,1.6-11.7,2.8-19.6,3.5c-16.7,1.6-29.9-0.2-39.7-5.3
		c-9.7-5.1-16.4-11.6-20.1-19.5c-3.7-7.9-5.6-15.9-5.9-24.1c-0.4-12.1,2.2-23.6,7.7-34.4c5.5-10.8,13.2-19.8,23.2-26.8
		c10-7,21.4-11.1,34.2-12.3c9.6-0.9,18.3,0.3,26.4,3.5c8,3.2,14.5,8.7,19.5,16.3C570.8,367.7,573.4,377.4,573.8,389.2z M534.9,389.2
		c0-0.6,0-1.1,0-1.6c0-0.5,0-1.3,0-2.3c-0.4-13.3-5.4-19.5-14.9-18.6c-5.8,0.5-10.3,3.2-13.5,7.8c-3.2,4.7-6.2,10.7-8.8,18.1
		L534.9,389.2z"/>
	<path class="st1" d="M349.5,358.2l-15.3,118l-39.9,3.7l1.6-10.8c-4.5,4.4-9,7.9-13.3,10.6c-4.3,2.7-9.9,4.3-16.7,5
		c-8.7,0.8-16.4-0.8-23.2-4.9c-6.8-4.1-12.1-9.8-16-17.3c-3.8-7.5-5.9-15.8-6.1-24.9c-0.2-7.7,0.9-15.6,3.3-23.8
		c2.4-8.2,6.8-16.3,13.3-24.2c6.5-7.9,15.8-14.7,27.9-20.3c12.1-5.6,27.1-9.3,45-11c7.5-0.7,13.8-1,18.6-0.9
		C333.5,357.3,340.5,357.7,349.5,358.2z M306.8,386.9l-7.5,0.7c-7.2,0.7-13.8,3.3-19.7,7.7c-5.9,4.5-10.4,10.3-13.6,17.3
		c-3.2,7-4.7,14.4-4.4,22.2c0.2,5.3,1.7,9.8,4.6,13.2c2.9,3.5,7,5,12.2,4.5c2.6-0.2,5.5-1.2,8.7-2.7c3.2-1.6,7.3-4.2,12.3-7.8
		L306.8,386.9z"/>
	<path class="st1" d="M460.8,347.8l-4.4,37c-8-1.7-12.9-2.7-15-2.9c-4.6-0.7-9.4-0.8-14.4-0.3c-9.2,0.9-16.7,3.3-22.5,7.2
		c-5.8,3.9-9.9,8.5-12.4,13.6c-2.5,5.1-3.7,9.7-3.6,13.6c0.1,5.2,2.1,10,6,14.5c3.8,4.5,11.3,6.2,22.5,5.2
		c5.7-0.5,11.4-1.8,16.9-3.9c5.6-2.1,13-5.7,22.3-10.8l-5.3,40.2c-5,2-9.1,3.5-12.1,4.5c-3.1,1-6.5,1.8-10.1,2.5
		c-3.7,0.7-7.4,1.2-11.2,1.6c-26.4,2.4-44.5-1.9-54.5-13.2c-10-11.3-15.1-23.7-15.5-37.3c-0.2-8.6,1.8-18.2,6.2-28.6
		c4.4-10.4,12.3-19.9,23.8-28.4c11.5-8.5,27.1-13.6,46.9-15.5C435.7,345.8,447.8,346.1,460.8,347.8z"/>
	<path class="st1" d="M577,386.2c0.1,5.6-0.2,11.3-1.2,17.4l-77.6,7.2c0.5,16.3,9,23.7,25.7,22.1c8.3-0.7,15.7-2.4,22.2-4.8
		c6.5-2.5,14.2-5.9,23.2-10.3l-5.3,29.5c-8.5,4.1-15.4,7-20.5,8.6c-5.2,1.6-11.7,2.8-19.6,3.5c-16.7,1.6-29.9-0.2-39.7-5.3
		c-9.7-5-16.4-11.6-20.1-19.5c-3.7-7.9-5.6-16-5.9-24.1c-0.3-12.1,2.2-23.6,7.6-34.4c5.5-10.8,13.2-19.8,23.2-26.8
		c10-7,21.4-11.1,34.2-12.3c9.6-0.9,18.3,0.3,26.4,3.5c8.1,3.2,14.5,8.6,19.5,16.3C574.1,364.6,576.7,374.4,577,386.2z M538.1,386.2
		c0-0.5,0-1.1,0-1.6c0-0.5,0-1.3,0-2.3c-0.4-13.3-5.4-19.5-14.9-18.6c-5.8,0.5-10.3,3.1-13.5,7.8c-3.2,4.7-6.2,10.7-8.9,18.1
		L538.1,386.2z"/>
	<path class="st0" d="M352.1,355.7l-15.3,118l-39.9,3.7l1.6-10.8c-4.5,4.4-9,7.9-13.3,10.6c-4.3,2.7-9.9,4.3-16.7,5
		c-8.7,0.8-16.4-0.8-23.2-4.9c-6.8-4-12.1-9.8-16-17.3c-3.8-7.5-5.9-15.8-6.1-25c-0.2-7.6,0.8-15.6,3.3-23.8
		c2.4-8.2,6.8-16.3,13.3-24.2c6.5-7.9,15.8-14.7,27.9-20.3c12.1-5.7,27.1-9.3,45-11c7.5-0.7,13.8-1,18.6-0.9
		C336.2,354.8,343.1,355.1,352.1,355.7z M309.4,384.4L302,385c-7.2,0.7-13.8,3.2-19.7,7.7c-5.9,4.5-10.4,10.3-13.6,17.3
		c-3.2,7-4.6,14.4-4.4,22.2c0.2,5.3,1.7,9.7,4.6,13.2c2.9,3.5,7,5,12.2,4.5c2.6-0.2,5.5-1.1,8.7-2.7c3.2-1.6,7.3-4.2,12.3-7.8
		L309.4,384.4z"/>
	<g>
		<path class="st0" d="M509.4,472.7l-8.1,62.4l-21.1,1.9l0.9-5.7c-2.4,2.3-4.8,4.2-7,5.6c-2.3,1.4-5.2,2.3-8.8,2.6
			c-4.6,0.4-8.7-0.4-12.3-2.6c-3.6-2.2-6.4-5.2-8.4-9.1c-2.1-3.9-3.1-8.3-3.3-13.2c-0.1-4,0.4-8.2,1.7-12.6c1.3-4.4,3.6-8.6,7-12.8
			c3.4-4.2,8.4-7.8,14.8-10.8c6.4-3,14.3-4.9,23.8-5.8c4-0.4,7.3-0.5,9.8-0.5C501,472.2,504.6,472.4,509.4,472.7z M486.8,487.9
			l-4,0.4c-3.8,0.4-7.3,1.7-10.4,4.1c-3.1,2.4-5.5,5.4-7.2,9.1c-1.7,3.7-2.5,7.6-2.4,11.8c0.1,2.8,0.9,5.1,2.4,7
			c1.5,1.8,3.7,2.6,6.4,2.4c1.4-0.1,2.9-0.6,4.6-1.4c1.7-0.8,3.9-2.2,6.5-4.1L486.8,487.9z"/>
		<path class="st1" d="M511.2,471.1l-8.1,62.4l-21.1,2l0.9-5.7c-2.4,2.3-4.8,4.2-7,5.6c-2.3,1.4-5.2,2.3-8.9,2.6
			c-4.6,0.4-8.7-0.4-12.3-2.6c-3.6-2.1-6.4-5.2-8.4-9.1c-2-3.9-3.1-8.4-3.3-13.2c-0.1-4,0.4-8.2,1.7-12.6c1.3-4.4,3.6-8.6,7-12.8
			c3.5-4.2,8.4-7.8,14.8-10.8c6.4-3,14.3-4.9,23.8-5.8c4-0.4,7.3-0.5,9.8-0.5C502.7,470.6,506.4,470.8,511.2,471.1z M488.6,486.3
			l-3.9,0.4c-3.8,0.3-7.3,1.7-10.4,4.1c-3.1,2.4-5.5,5.4-7.2,9.2c-1.7,3.7-2.5,7.6-2.4,11.7c0.1,2.8,0.9,5.2,2.4,7
			c1.5,1.8,3.7,2.6,6.5,2.4c1.4-0.1,2.9-0.6,4.6-1.5c1.7-0.8,3.9-2.2,6.5-4.1L488.6,486.3z"/>
		<path class="st0" d="M512.6,469.7l-8.1,62.4l-21.1,2l0.9-5.7c-2.4,2.3-4.8,4.2-7,5.6c-2.3,1.4-5.2,2.3-8.8,2.6
			c-4.6,0.4-8.7-0.4-12.3-2.5c-3.6-2.2-6.4-5.2-8.5-9.2c-2-4-3.1-8.4-3.2-13.2c-0.1-4,0.5-8.2,1.7-12.6c1.3-4.4,3.6-8.6,7-12.8
			c3.4-4.2,8.4-7.8,14.8-10.8c6.4-3,14.3-4.9,23.8-5.8c4-0.4,7.3-0.6,9.8-0.5C504.1,469.3,507.7,469.4,512.6,469.7z M489.9,484.9
			l-3.9,0.4c-3.8,0.4-7.3,1.7-10.4,4.1c-3.1,2.4-5.5,5.4-7.2,9.1c-1.7,3.7-2.5,7.7-2.4,11.8c0.1,2.8,0.9,5.1,2.4,7
			c1.5,1.8,3.7,2.6,6.4,2.4c1.4-0.1,2.9-0.6,4.6-1.4c1.7-0.8,3.9-2.2,6.5-4.1L489.9,484.9z"/>
	</g>
	<path class="st0" d="M463.4,345.2l-4.4,37c-8-1.7-12.9-2.7-15-2.9c-4.6-0.6-9.4-0.7-14.4-0.3c-9.2,0.9-16.7,3.3-22.5,7.2
		c-5.8,3.9-9.9,8.5-12.4,13.6c-2.5,5.2-3.7,9.7-3.6,13.6c0.2,5.2,2.1,10,6,14.5c3.8,4.5,11.4,6.3,22.5,5.2
		c5.7-0.5,11.3-1.8,16.9-3.9c5.6-2.1,13-5.7,22.3-10.8l-5.3,40.2c-5,2-9,3.5-12.1,4.5c-3.1,1-6.4,1.8-10.1,2.5
		c-3.7,0.7-7.4,1.2-11.3,1.6c-26.4,2.5-44.5-2-54.5-13.2c-10-11.3-15.1-23.7-15.5-37.3c-0.2-8.6,1.8-18.2,6.2-28.6
		c4.4-10.4,12.3-19.9,23.8-28.4c11.5-8.5,27.1-13.7,46.9-15.5C438.3,343.2,450.5,343.6,463.4,345.2z"/>
	<path class="st0" d="M579.7,383.6c0.2,5.6-0.3,11.4-1.2,17.4l-77.7,7.2c0.5,16.3,9,23.7,25.7,22.1c8.3-0.8,15.7-2.4,22.2-4.8
		c6.5-2.5,14.3-5.9,23.2-10.3l-5.3,29.5c-8.5,4.1-15.3,7-20.5,8.6c-5.2,1.6-11.7,2.8-19.5,3.6c-16.7,1.6-29.9-0.2-39.7-5.3
		c-9.7-5.1-16.4-11.6-20.1-19.5c-3.7-7.9-5.6-16-5.9-24.1c-0.3-12.1,2.2-23.6,7.7-34.4c5.5-10.8,13.2-19.8,23.2-26.8
		c10-7,21.4-11.1,34.2-12.3c9.6-0.9,18.4,0.3,26.4,3.5c8,3.2,14.5,8.6,19.5,16.3C576.7,362.1,579.3,371.8,579.7,383.6z M540.7,383.6
		c0-0.5,0-1.1,0-1.6c0-0.5,0-1.3,0-2.3c-0.4-13.3-5.3-19.5-14.9-18.6c-5.8,0.6-10.3,3.1-13.5,7.8c-3.2,4.7-6.2,10.7-8.8,18.1
		L540.7,383.6z"/>
	<g>
		<path class="st0" d="M434.9,327c2-0.2,3.7-1.2,3.9,0.8c0.2,2-1.3,3.7-3.3,3.9c-2,0.2-3.7-1.3-3.9-3.3
			C431.4,326.5,432.9,327.2,434.9,327z"/>
		<path class="st0" d="M436,316.4c-7,1.9-5,6.8-4.8,9.7C431.2,326.1,430.4,318.6,436,316.4z"/>
		<path class="st0" d="M439.5,327.6c0,0,2.4-2.2,1-8.2C440.4,319.3,440.7,324.4,439.5,327.6z"/>
		<path class="st0" d="M432.4,296.7c2-0.2,3.9,0.5,3.7-1.5c-0.2-2-1.9-3.5-3.9-3.3c-2,0.2-3.5,1.9-3.3,3.9
			C429.1,297.8,430.5,296.8,432.4,296.7z"/>
		<path class="st0" d="M435.2,307c-7.3-0.8-6-5.9-6.3-8.8C428.9,298.2,429.3,305.7,435.2,307z"/>
		<path class="st0" d="M436.8,295.4c0,0,2.7,1.7,2.3,8C439.1,303.4,438.6,298.3,436.8,295.4z"/>
		<path class="st0" d="M434.2,311.3c1.6-1.1,1.6-3.5,1.6-3.5s-0.3,1-2.3,2.6c-2.3,1.8-1.7,2.7,0.3,3.7c1.9,1,2.8,2.3,2.8,2.3
			s-0.2-2.4-2.3-3.4C432.5,312.2,434.2,311.3,434.2,311.3z"/>
		<path class="st0" d="M442.7,319c0,0,4.8,3.8,16.1,0.1c11.9-4.3,16.5-6.8,21.2-6.3c0,0,0.3-3.2-21.5,5.7
			C448.1,321.6,442.7,319,442.7,319z"/>
		<path class="st0" d="M441.2,301.2c0,0,4-4.7,15.8-3.1c12.5,2,17.5,3.6,22,2.2c0,0,0.9,3.1-22.2-1.5
			C446.1,297.6,441.2,301.2,441.2,301.2z"/>
		<path class="st0" d="M456,308.8c0,0,35.3-2,49.9-4.5C506,304.3,493.8,304.4,456,308.8z"/>
		<path class="st0" d="M459.8,313.9c0,0,13.6-3.4,25.1-2.4c0,0-2.9-1.9-12.1-0.5C463.5,312.8,459.8,313.9,459.8,313.9z"/>
		<path class="st0" d="M458.9,303c0,0,13.9,1.1,25.1-1.7c0,0-2.6,2.3-11.8,2.5C462.8,303.5,458.9,303,458.9,303z"/>
		<path class="st0" d="M535.3,308.8c0,0-4.5-2.4-4.8-6.2c-0.3-3.8,3.7-6.3,3.7-6.3S528.3,302.2,535.3,308.8z"/>
		<path class="st0" d="M534.6,305.6c0,0,4.5,0.4,4.8-1.6c-0.2-1.8-2.2-1.3-4.9-1.4c0,0,5.7-1.6,5.7,1.3
			C539.8,306.3,534.6,305.6,534.6,305.6z"/>
		<path class="st0" d="M534,298.9c0,0,4.4-1.1,5,0.8c0.1,1.8-1.9,1.7-4.6,2.2c0,0,5.9,0.7,5.5-2.2C539.1,297.4,534,298.9,534,298.9z
			"/>
		<path class="st0" d="M530.2,306.3c0,0,0.3-3.7-4.9-3.5c0,0,4,0.1,4.7-3.8c0,0,0.3,3.3-1.4,3.7
			C528.5,302.7,530.2,302.8,530.2,306.3z"/>
		<path class="st0" d="M463.2,319.7c0,0-2.2,3.7,3,9.5C466.3,329.2,463.3,324.4,463.2,319.7z"/>
		<path class="st0" d="M466,318.4c0,0,0.1,2.4,2,4.2c1.9,1.8,1.7,5.8,1.7,5.8s1.4-2.6-1-6.2C467.2,320.6,466,318.4,466,318.4z"/>
		<path class="st0" d="M464.5,285.8c0,0,0,2.7-0.3,4.5c-0.3,2.5,0.1,4.2,0.6,4.7c0.5,0.6,0,3.1,0,3.1s1.4-2.1,0.6-3.6
			c-0.6-1.3-0.8-1.4-0.5-5.1C465.1,288.2,464.5,285.8,464.5,285.8z"/>
		<path class="st0" d="M468.3,298.7c0,0-0.3-2.5,0.1-3.4c0.4-0.9,1.7-2.5,2.3-4.5c0.5-2,0.5-3.3,0.5-3.3s0.8,1.8,0.4,3.3
			c-0.4,1.5-0.9,3.3-2.4,4.4C468.3,295.9,468.3,298.7,468.3,298.7z"/>
		<path class="st0" d="M473.6,289.2c0,0,0.1,3.1-0.1,6.2c-0.1,1.7-0.6,4-0.6,4.6C472.2,298,473.6,289.2,473.6,289.2z"/>
		<path class="st0" d="M475.5,299.5c0,0,0.3-1.7,1.4-4.2c0.9-2.4,2.9-5.1,2.9-5.1s-0.4,3.2-2.2,5.6
			C477.6,295.8,476.2,298.5,475.5,299.5z"/>
		<path class="st0" d="M462,297.5c0,0-0.5-3.2,0-4.5c0.5-1.3,0.2-1.8-1.4-5c0,0,1.5,3.7,0.6,4.9C460.3,294.2,462,297.5,462,297.5z"
			/>
		<path class="st0" d="M458,297.5c0,0-2.6-2.5-2.2-3.6c0.4-1.1,1.8-3.8,1.8-3.8s-2.7,3-2.7,4.3C454.9,295.6,457.2,297.5,458,297.5z"
			/>
		<path class="st0" d="M469.8,317.1c0,0,0.1,2.5,0.7,3.4c0.6,0.9,2.1,2.2,3,4c0.9,1.9,1.1,3.2,1.1,3.2s0.5-1.8-0.2-3.3
			c-0.6-1.5-1.5-3.1-3-3.9C470.3,319.9,469.8,317.1,469.8,317.1z"/>
		<path class="st0" d="M476.5,325.6c0,0-0.4-3-1.1-6.1c-0.4-1.7-1.2-3.8-1.4-4.5C473.8,317.1,476.5,325.6,476.5,325.6z"/>
		<path class="st0" d="M476.8,315.1c0,0,0.5,1.7,2.1,3.9c1.3,2.2,3.7,4.6,3.7,4.6s-1-3-3-5.1C479.5,318.4,477.7,316,476.8,315.1z"/>
		<path class="st0" d="M459.8,319.9c0,0-2.2,2.9-1.6,3.9c0.6,1,2.4,3.5,2.4,3.5s-3.2-2.6-3.4-3.8C457,322.3,459,320.1,459.8,319.9z"
			/>
		<path class="st0" d="M543.3,306.3c0,0,9.4,3.5,10.9-0.6c1.5-4.1-4.3-3.8-4.3-3.8s3.9,0.9,3,3.4
			C551.5,308.2,543.3,306.3,543.3,306.3z"/>
		<path class="st0" d="M542.6,297.8c0,0,8.7-5,10.9-1.2c2.1,3.8-3.6,4.4-3.6,4.4s3.7-1.5,2.4-3.9
			C550.4,294.6,542.6,297.8,542.6,297.8z"/>
		<path class="st0" d="M414.5,323c-0.5-2.7,0.9-5.2,6.2-6.3c0,0,9.2-0.9,11.4-2.3c0,0-4.8,2.2-11.2,3.3
			C414.5,318.7,414.5,323,414.5,323z"/>
		<path class="st0" d="M413,304.3c-0.1,2.7,1.7,4.9,7.1,5.2c0,0,9.2-0.7,11.6,0.4c0,0-5.1-1.4-11.6-1.4
			C413.7,308.5,413,304.3,413,304.3z"/>
		<path class="st0" d="M430.4,312.6c0,0-12.7,1.6-20.8,1.7C409.7,314.3,421,312.5,430.4,312.6z"/>
		<path class="st0" d="M443.2,316.9c0,0-3.6-6-1.1-13.1C442.1,303.8,441.3,309.9,443.2,316.9z"/>
		<path class="st0" d="M488.1,311.3c0,0-4-2.4-3.9-3.5l-2.3,0.2L488.1,311.3z"/>
		<path class="st0" d="M487.2,300.2c0,0-3.5,3.5-3.3,4.7l-2.3,0.2L487.2,300.2z"/>
		<path class="st0" d="M493.7,310.8c0,0-4-2.4-3.9-3.5l-2.3,0.2L493.7,310.8z"/>
		<path class="st0" d="M492.8,299.7c0,0-3.5,3.5-3.3,4.7l-2.3,0.2L492.8,299.7z"/>
		<path class="st0" d="M500.1,310.3c0,0-4-2.4-3.9-3.5l-2.3,0.2L500.1,310.3z"/>
		<path class="st0" d="M499.2,299.2c0,0-3.5,3.5-3.3,4.7l-2.3,0.2L499.2,299.2z"/>
		<path class="st0" d="M508.7,309.6c0,0-4-2.4-3.9-3.5l-2.3,0.2L508.7,309.6z"/>
		<path class="st0" d="M507.8,298.5c0,0-3.5,3.5-3.3,4.7l-2.3,0.2L507.8,298.5z"/>
		<path class="st0" d="M509.3,306c0,0,12-1.9,17.8-0.8C527.1,305.2,520,302.7,509.3,306z"/>
		<path class="st0" d="M509,302.4c0,0,12.2-0.1,17.7-2C526.7,300.3,520.1,303.9,509,302.4z"/>
	</g>
	<path class="st0" d="M523.6,515.9l-11.7-45l21.7-2.5l6.6,36.2l16.3-38.8l22.5-2.6L548.2,528c-9.2,18.2-38,24.5-49.9,25.8
		c-7.1,0.8-26.6,1.2-26.6,1.2s58.2-12.9,54.3-28.6L523.6,515.9z"/>
	<path class="st1" d="M524.5,514.4l-11.7-45l21.7-2.5l6.6,36.2l16.3-38.8l22.4-2.5L549,526.4c-9.2,18.2-38,24.5-49.9,25.8
		c-7.1,0.8-26.6,1.2-26.6,1.2s58.2-12.9,54.3-28.6L524.5,514.4z"/>
	<path class="st0" d="M525.9,512.7l-11.7-45l21.7-2.5l6.6,36.2l16.3-38.8l22.5-2.6l-30.7,64.7c-9.2,18.2-38,24.5-49.9,25.9
		c-7.1,0.8-26.6,1.1-26.6,1.1s58.2-12.9,54.3-28.6L525.9,512.7z"/>
	<path class="st0" d="M379.8,494.4l2.2,21l14-32.5l17.4-2l4.7,30.6l12.8-32.4l20.6-2.3l-28,64.7l-18,2.1l-5-31.1l-14.8,33.4
		l-18.3,2.1l-9-60.5l8.6-1.1C367,486.3,378.2,485.7,379.8,494.4z"/>
	<path class="st0" d="M184.8,441.4l-2.5-3.7c0,0,41.4-7.7,41.7-51.5c0.6-49.1-53.5-46.5-90-40.9c0,0-99.9,15.4-60,96.5
		c0,0-0.5-55.5,71.3-61c0,0,32.3-4.8,32.2,13c-0.3,21.7-40.7,19.8-40.7,19.8l8.3-25c-43,2.6-54.4,27.3-54.4,27.3l-21.6,63.1
		c0,0-15.5,31.8,19.3,27.2l21-2.5l19.7-63.6l2.8,3.3l44.3,52.3c82.4,104.7,288.7,63.9,288.7,63.9
		C283.8,567.5,199.9,462.7,184.8,441.4z"/>
	<path class="st1" d="M380.7,493l2.2,21l14-32.5l17.4-2l4.7,30.6l12.8-32.4l20.6-2.3l-28,64.7l-18,2l-5-31.1l-14.8,33.4l-18.3,2.1
		l-9-60.4l8.6-1.1C367.9,484.9,379.2,484.2,380.7,493z"/>
	<path class="st1" d="M186.7,438.5l-2.5-3.7c0,0,41.4-7.7,41.7-51.5c0.6-49.1-53.5-46.5-90-40.9c0,0-99.9,15.5-60,96.5
		c0,0-0.5-55.5,71.3-61.1c0,0,32.4-4.7,32.2,13c-0.3,21.7-40.7,19.8-40.7,19.8l8.3-25c-43,2.6-54.5,27.3-54.5,27.3L70.9,476
		c0,0-15.5,31.8,19.3,27.2l21-2.5l19.7-63.6l2.7,3.2l44.3,52.3c82.4,104.7,288.7,63.9,288.7,63.9
		C285.6,564.6,201.8,459.8,186.7,438.5z"/>
	<path class="st0" d="M382.2,491.5l2.2,21l14-32.5l17.4-2l4.7,30.6l12.8-32.4l20.6-2.3l-28,64.7l-18,2.1l-5-31.1l-14.8,33.4
		l-18.2,2.1l-9-60.5l8.6-1.1C369.3,483.4,380.6,482.7,382.2,491.5z"/>
	<path class="st0" d="M189.5,435.6l-2.5-3.7c0,0,41.4-7.7,41.7-51.5c0.6-49.1-53.5-46.5-90-41c0,0-99.9,15.4-60,96.6
		c0,0-0.5-55.5,71.3-61.1c0,0,32.3-4.8,32.2,13c-0.3,21.7-40.7,19.8-40.7,19.8l8.3-25c-43,2.6-54.5,27.3-54.5,27.3L73.8,473
		c0,0-15.5,31.8,19.3,27.2l21-2.5l19.7-63.6l2.7,3.2l44.3,52.3c82.4,104.7,288.7,63.9,288.7,63.9
		C288.5,561.6,204.6,456.8,189.5,435.6z"/>
	<g>
		<g>
			<path class="st1" d="M242.1,351.5c-3.6,0.4-7,0.3-10-0.6c-3-0.8-5.7-2.2-8-4.1l5.8-7.6c4,2.9,8.1,4.1,12,3.6
				c1.2-0.2,2.2-0.5,2.9-1.1c0.7-0.6,1-1.3,0.9-2.1c0-0.4-0.2-0.7-0.4-1c-0.2-0.3-0.5-0.5-1-0.8c-0.5-0.2-1.2-0.5-2-0.8
				c-0.8-0.3-1.9-0.6-3.3-0.9c-1.5-0.4-3-0.8-4.2-1.3c-1.3-0.5-2.4-1.1-3.3-1.7c-0.9-0.7-1.7-1.5-2.3-2.5c-0.6-1-1-2.1-1.1-3.5
				c-0.2-1.8,0-3.6,0.6-5.2c0.6-1.6,1.5-3.1,2.8-4.4c1.3-1.3,2.8-2.3,4.7-3.2c1.8-0.9,3.9-1.4,6.1-1.7c3.3-0.4,6.3-0.3,8.9,0.4
				c2.7,0.7,5,1.7,7,3.2l-5.5,7.9c-1.6-1.1-3.2-1.9-4.9-2.4c-1.7-0.5-3.5-0.7-5.4-0.5c-1.2,0.1-2.2,0.5-2.8,1.1
				c-0.7,0.6-1,1.3-0.9,2c0.1,0.4,0.2,0.7,0.4,0.9c0.2,0.2,0.6,0.5,1,0.7c0.5,0.2,1.1,0.5,2,0.7c0.9,0.3,2,0.5,3.3,0.9
				c1.5,0.3,2.8,0.8,4.1,1.3c1.3,0.5,2.4,1.1,3.3,1.7c1,0.7,1.7,1.5,2.3,2.6c0.6,1,1,2.2,1.2,3.6c0.2,1.9,0.1,3.7-0.5,5.4
				c-0.6,1.7-1.5,3.2-2.8,4.5c-1.3,1.3-2.8,2.4-4.7,3.2C246.5,350.6,244.4,351.2,242.1,351.5z"/>
			<path class="st1" d="M256.6,352.5l4.5-33.1l10-1.2l-0.5,3.1c1-1.3,2.1-2.3,3.4-3.1c1.3-0.8,2.7-1.3,4.3-1.5
				c1.4-0.2,2.8-0.1,4.1,0.3c1.3,0.4,2.5,1,3.5,1.9c1,0.9,1.9,2,2.6,3.4c0.7,1.4,1.2,3,1.4,4.8c0.3,2.6,0.2,5-0.4,7.3
				c-0.6,2.3-1.4,4.4-2.7,6.2c-1.2,1.8-2.7,3.3-4.4,4.4c-1.8,1.2-3.7,1.9-5.7,2.1c-2.2,0.3-4,0.1-5.5-0.6c-1.5-0.7-2.7-1.6-3.8-2.8
				l-2.2,16.5l-2.3,0.4C255.1,360.8,256.6,352.5,256.6,352.5z M274.1,339.1c1-0.1,1.8-0.4,2.6-1c0.8-0.5,1.5-1.2,2-2
				c0.5-0.8,0.9-1.8,1.2-2.8c0.2-1.1,0.3-2.2,0.2-3.3c-0.2-1.6-0.8-2.7-1.8-3.5c-1-0.8-2.2-1.1-3.7-0.9c-1,0.1-1.8,0.5-2.7,1
				c-0.8,0.6-1.5,1.2-2,2.1c-0.6,0.8-1,1.8-1.2,2.8c-0.2,1-0.3,2.1-0.2,3.2c0.2,1.6,0.8,2.7,1.8,3.6
				C271.3,339,272.6,339.3,274.1,339.1z"/>
			<path class="st1" d="M300.9,331.9c0.3,1.4,0.9,2.5,1.9,3.3c1,0.7,2.3,1,4.1,0.8c1-0.1,2-0.4,2.9-0.9c0.9-0.5,1.9-1.2,2.9-2.1
				l5.3,4.9c-1.3,1.5-2.9,2.7-4.7,3.7c-1.8,1-4,1.7-6.5,2c-2.1,0.3-4.1,0.2-5.8-0.2c-1.8-0.4-3.3-1.1-4.6-2c-1.3-1-2.4-2.2-3.2-3.7
				c-0.8-1.5-1.4-3.2-1.6-5.1c-0.3-2.1-0.1-4.3,0.4-6.4c0.5-2.2,1.5-4.1,2.7-6c1.3-1.8,2.9-3.3,4.9-4.6c2-1.3,4.3-2.1,7-2.4
				c2.1-0.3,4-0.2,5.6,0.3c1.6,0.5,3,1.2,4.1,2.1c1.1,1,2,2.2,2.7,3.5c0.7,1.4,1.1,2.9,1.3,4.4c0.1,1,0.1,2,0.1,3
				c-0.1,1.1-0.2,2-0.5,3L300.9,331.9z M311.1,325.4c0.1-0.6,0.1-1.1,0.1-1.6c-0.1-1-0.5-1.8-1.2-2.5c-0.7-0.6-1.8-0.9-3.1-0.7
				c-1.3,0.2-2.5,0.8-3.7,1.8c-1.1,1-1.9,2.4-2.2,4.2L311.1,325.4z"/>
			<path class="st1" d="M336.2,340c-1.9,0.2-3.8,0.2-5.5-0.2c-1.7-0.4-3.2-1.1-4.6-2c-1.3-0.9-2.4-2.1-3.3-3.6
				c-0.8-1.5-1.4-3.2-1.6-5.1c-0.3-2.4-0.1-4.7,0.5-6.9c0.6-2.2,1.6-4.2,3-6c1.4-1.8,3-3.2,5-4.4c2-1.2,4.2-1.9,6.6-2.2
				c1.6-0.2,3.2-0.2,4.6,0c1.4,0.2,2.6,0.6,3.7,1.2c1.1,0.6,2,1.3,2.9,2.2c0.8,0.9,1.5,1.8,2,2.9l-7.4,5c-0.6-1.1-1.3-1.9-2.2-2.4
				c-0.8-0.5-1.9-0.7-3.2-0.6c-0.9,0.1-1.8,0.5-2.6,1.1c-0.8,0.6-1.4,1.3-2,2.2c-0.5,0.9-0.9,1.8-1.2,2.9c-0.2,1.1-0.3,2.1-0.1,3.2
				c0.2,1.5,0.7,2.6,1.7,3.3c1,0.7,2,1,3.3,0.9c1-0.1,2-0.5,2.8-1c0.8-0.5,1.5-1.3,2.3-2.3l6.8,4.6c-1.2,1.9-2.8,3.4-4.5,4.7
				C341.4,338.8,339.1,339.6,336.2,340z"/>
			<path class="st1" d="M359.2,307.2l3-0.2l-4.2,29.6l-10.1,1.2l3.3-23.4C351.3,314.4,352.1,308.2,359.2,307.2z"/>
			<path class="st1" d="M370.9,335.6c-2.4,0.3-4.4-0.2-6-1.4c-1.6-1.2-2.6-3-2.9-5.4c-0.2-1.6-0.1-3,0.4-4.3
				c0.4-1.3,1.2-2.5,2.2-3.5c1-1,2.2-1.8,3.7-2.5c1.5-0.6,3.2-1.1,5.1-1.3c1.3-0.2,2.6-0.2,3.8-0.2c1.2,0,2.4,0.2,3.6,0.4l0.1-0.4
				c0.1-0.2,0.1-0.5,0.1-0.8c0-0.3,0-0.6,0-1c-0.1-0.9-0.6-1.6-1.4-2.1c-0.8-0.5-2.1-0.6-3.9-0.4c-1.3,0.2-2.7,0.5-4,0.9
				c-1.4,0.5-2.5,0.9-3.5,1.4l-2.3-7.1c1.4-0.7,3.1-1.4,5.1-1.9c1.9-0.6,3.9-1,6-1.2c4.3-0.5,7.6-0.1,9.9,1.2c2.3,1.3,3.6,3.4,4,6.3
				c0.2,1.3,0.1,2.7-0.1,4.2l-2.3,16.3l-9.9,1.2l0.4-3.2c-1.1,1.3-2.3,2.3-3.5,3.1C374,334.9,372.5,335.4,370.9,335.6z M374.8,328.8
				c1.3-0.2,2.4-0.8,3.4-1.9c1-1.1,1.6-2.4,1.8-4l0.2-1c-0.6-0.1-1.2-0.2-1.8-0.2c-0.6,0-1.3,0-2,0.1c-1.6,0.2-2.8,0.7-3.7,1.6
				c-0.9,0.8-1.2,1.9-1.1,3.2c0.1,0.8,0.4,1.4,1,1.8C373.2,328.8,373.9,328.9,374.8,328.8z"/>
			<path class="st1" d="M402,292.3l5-1l-5.6,39.9l-10,1.2l4.6-32.8C395.9,299.7,396.9,293.1,402,292.3z"/>
		</g>
		<polygon class="st1" points="354.5,305.6 352.5,301.1 356,295.8 361.5,295.1 363.5,299.6 360,304.9 		"/>
	</g>
	<g>
		<path class="st0" d="M586.4,490.1c-5.3,0-9.3,3.7-9.3,9.4c0,5.6,4,9.4,9.3,9.4c5.2,0,9.3-3.8,9.3-9.4
			C595.7,493.8,591.6,490.1,586.4,490.1z M588.9,505.6l-2.2-3.9h-1.5v3.9h-2.9v-12.1h4.5c3,0,4.9,1.7,4.9,4.2c0,1.6-0.8,2.8-2.2,3.5
			l2.7,4.5H588.9z"/>
		<path class="st0" d="M587.1,496.2h-2v2.9h2c1.1,0,1.5-0.8,1.5-1.4C588.6,497,588.2,496.2,587.1,496.2z"/>
	</g>
</g>
</svg>
