<svg id="Layer_1" data-name="Layer 1" xmlns="http://www.w3.org/2000/svg" viewBox="0 0 300 300"><defs><style>.cls-1{fill:#211261;}.cls-2{fill:#e1251b;}</style></defs><path class="cls-1" d="M81.1,187.56a5.4,5.4,0,0,1-1,3.56C79,192.35,77,193,74.17,193H71.34v5.36a7.2,7.2,0,0,1-3.11-.36c-.3-.25-.45-1-.45-2.23v-11a7,7,0,0,1,.12-1.7,1.47,1.47,0,0,1,1.39-.82c.23,0,.77,0,1.64,0h3q4.29,0,6,1.83A5,5,0,0,1,81.1,187.56Zm-3.62,0a2.3,2.3,0,0,0-.51-1.64,4,4,0,0,0-2.9-.82H71.3v5h2.84a7,7,0,0,0,2.9-.32c.27-.21.41-1,.41-2.26Z"/><path class="cls-1" d="M94.39,198.33H85.51a5.51,5.51,0,0,1-2.68-.38c-.32-.25-.47-1-.47-2.21v-11c0-1.21.15-1.95.47-2.2a5.51,5.51,0,0,1,2.68-.38h6.2a3.86,3.86,0,0,1,2.29.4c.26.26.39,1.1.39,2.53H85.88v3.53H91a3.85,3.85,0,0,1,2.25.39,4.54,4.54,0,0,1,.39,2.51H85.88v3.84h5.64a4.47,4.47,0,0,1,2.46.38C94.25,196,94.39,196.88,94.39,198.33Z"/><path class="cls-1" d="M109.92,198.33h-2.78a5.14,5.14,0,0,1-2-.35,5.28,5.28,0,0,1-1.56-1.45L99.9,192a1.73,1.73,0,0,1-.38-1.1q0-1.26,1.32-1.26h1a9.17,9.17,0,0,0,3-.24c.22-.16.33-.85.33-2.06,0-1.51-1.13-2.27-3.4-2.27H99.11v13.23A7.14,7.14,0,0,1,96,198c-.3-.25-.46-1-.46-2.19v-11a6.81,6.81,0,0,1,.13-1.7c.17-.48.63-.75,1.38-.82.24,0,.78,0,1.64,0h3q7.13,0,7.12,5.17a5,5,0,0,1-1.42,3.87,4.6,4.6,0,0,1-3.27,1.13Z"/><path class="cls-1" d="M121.82,185.13h-8.25v3.53h5.07c1.2,0,1.93.14,2.19.44a4.54,4.54,0,0,1,.39,2.46H113.6v6.77a7,7,0,0,1-3.07-.36c-.31-.25-.46-1-.46-2.13V184.78a7,7,0,0,1,.13-1.73,1.47,1.47,0,0,1,1.38-.82c.24,0,.77,0,1.61,0h6.17a5.81,5.81,0,0,1,1.61.13,1.17,1.17,0,0,1,.79,1.13C121.8,183.9,121.82,184.46,121.82,185.13Z"/><path class="cls-1" d="M138.1,190.3q0,8.22-8.09,8.22t-8.1-8.26q0-8.25,8.1-8.25T138.1,190.3Zm-3.59,0a6.84,6.84,0,0,0-.85-3.85A4.17,4.17,0,0,0,130,185a15.8,15.8,0,0,0-3.15.19,1.66,1.66,0,0,0-1.17,1.39,26.76,26.76,0,0,0-.15,3.71,6.59,6.59,0,0,0,.88,3.82,4.1,4.1,0,0,0,3.59,1.48,16.33,16.33,0,0,0,3.18-.19,1.63,1.63,0,0,0,1.13-1.39,23.94,23.94,0,0,0,.16-3.68Z"/><path class="cls-1" d="M153.76,198.33H151a5.16,5.16,0,0,1-2-.35,5.28,5.28,0,0,1-1.56-1.45l-3.65-4.5a1.73,1.73,0,0,1-.38-1.1c0-.84.44-1.26,1.33-1.26h1a9.17,9.17,0,0,0,3-.24c.22-.16.33-.85.33-2.06,0-1.51-1.13-2.27-3.4-2.27H143v13.23a7.14,7.14,0,0,1-3.1-.36c-.31-.25-.46-1-.46-2.19v-11a6.81,6.81,0,0,1,.13-1.7c.17-.48.63-.75,1.39-.82.23,0,.77,0,1.63,0h3q7.13,0,7.12,5.17a5,5,0,0,1-1.42,3.87,4.6,4.6,0,0,1-3.27,1.13Z"/><path class="cls-1" d="M173.82,198.33c-1.1,0-1.78,0-2,0a1.49,1.49,0,0,1-1.36-.76,5.83,5.83,0,0,1-.15-1.7v-8.57l-3.91,9.07a8.62,8.62,0,0,1-.94,1.67,2.67,2.67,0,0,1-1.58.32H162.2l-4.76-11.06v11.06a7.19,7.19,0,0,1-3-.36q-.54-.37-.54-2.13V182.17h1.92a7.6,7.6,0,0,1,2.46.22,4.16,4.16,0,0,1,1.32,2q1.2,2.74,4.25,10.15,1.48-3.63,4.29-10.15a5.1,5.1,0,0,1,1.1-1.82,5,5,0,0,1,2.33-.35h2.27Z"/><path class="cls-1" d="M191,198.33c-1.2,0-1.95,0-2.27,0a2.3,2.3,0,0,1-1.51-.51,4.37,4.37,0,0,1-.69-1.32l-.44-1.14h-7.34l-.41,1.14c-.34.92-.69,1.46-1.07,1.62a13,13,0,0,1-3.4.24l5.57-14.17a4,4,0,0,1,1-1.71,4.21,4.21,0,0,1,2-.28h2.11Zm-5.89-5.67-2.71-7.43-2.67,7.43Z"/><path class="cls-1" d="M206.48,198.33h-1.92a5,5,0,0,1-2.07-.27,5.73,5.73,0,0,1-1.4-1.62l-6.49-9.61v11.5a7.27,7.27,0,0,1-3-.36q-.54-.37-.54-2.16V182.17h1.86a6.34,6.34,0,0,1,2,.19,4.31,4.31,0,0,1,1.48,1.54l6.48,9.67v-9.16c0-1.08.19-1.72.56-1.92a8.23,8.23,0,0,1,3-.32Z"/><path class="cls-1" d="M221,198.39h-5.33q-7.84,0-7.84-8.13t7.84-8.09H221c0,1.47-.12,2.33-.37,2.57a3.8,3.8,0,0,1-2.15.36h-2.77c-2.18,0-3.42.17-3.71.5s-.51,2-.51,4.66a6.68,6.68,0,0,0,.82,3.75,3.83,3.83,0,0,0,3.4,1.42h2.62c1.26,0,2,.15,2.3.44A4.57,4.57,0,0,1,221,198.39Z"/><path class="cls-1" d="M234.19,198.33h-8.88a5.51,5.51,0,0,1-2.68-.38c-.31-.25-.47-1-.47-2.21v-11c0-1.21.16-1.95.47-2.2a5.51,5.51,0,0,1,2.68-.38h6.21a3.84,3.84,0,0,1,2.28.4c.26.26.39,1.1.39,2.53h-8.5v3.53h5.07a3.82,3.82,0,0,1,2.25.39,4.54,4.54,0,0,1,.39,2.51h-7.71v3.84h5.64a4.45,4.45,0,0,1,2.45.38C234.05,196,234.19,196.88,234.19,198.33Z"/><path class="cls-2" d="M76.23,177.67a23.37,23.37,0,0,1-5.56-1.39,11.44,11.44,0,0,1-2.17-1.18,2.32,2.32,0,0,1-1-1.89V148.82H80.83v22.69c0,.52.6.91,1.8,1.16A60.88,60.88,0,0,0,91,173a71,71,0,0,0,9.59-1c1.67-.25,3.41-.56,5.24-.92l-2.5,6.16A46,46,0,0,1,91,178.69,91.65,91.65,0,0,1,76.23,177.67Z"/><path class="cls-2" d="M145.08,178.5l13.85-29.39h20.25l13.9,29.39H179.82l-10.77-22.7-10.71,22.7Z"/><path class="cls-2" d="M124,155.37v5h20.11v6.54H124V172h21.21v6.54h-39V148.83h39v6.54Z"/><path class="cls-2" d="M193.73,148.83H210.5L223.1,167h.1V148.83h11.07v29.72H218.81l-12.46-18.21h-.1v18.21H193.73Z"/><path class="cls-2" d="M70.5,208.41h-.66v-5.28H68.42v-.61h3.51v.61H70.5Z"/><path class="cls-2" d="M72.67,202.52h3v.61h-2.4v1.75h2.33v.61H73.32v2.31h2.4v.61h-3Z"/><path class="cls-2" d="M81.39,203.81a2.61,2.61,0,0,0-.82-.58,2.49,2.49,0,0,0-1-.2,2,2,0,0,0-.92.2,2.38,2.38,0,0,0-1.26,1.31,2.23,2.23,0,0,0-.19.92,2.28,2.28,0,0,0,.19.93,2.51,2.51,0,0,0,.51.78,2.42,2.42,0,0,0,.76.53,2.25,2.25,0,0,0,.93.2,2.31,2.31,0,0,0,1-.21,3.17,3.17,0,0,0,.82-.57v.81a3.34,3.34,0,0,1-.84.43,3,3,0,0,1-2.1-.09,3.11,3.11,0,0,1-1-.65,2.94,2.94,0,0,1-.66-1,2.73,2.73,0,0,1-.25-1.17,3,3,0,0,1,.24-1.19,3.38,3.38,0,0,1,.66-1,3.13,3.13,0,0,1,1-.66,3,3,0,0,1,1.19-.24,2.84,2.84,0,0,1,1.76.58Z"/><path class="cls-2" d="M82.6,202.27l4.59,4.81v-4.56h.66v6.15l-4.6-4.8v4.54H82.6Z"/><path class="cls-2" d="M91.91,202.42a3,3,0,0,1,1.19.24,3.06,3.06,0,0,1,1,.65,3.21,3.21,0,0,1,.66,1,3.07,3.07,0,0,1,0,2.38,2.94,2.94,0,0,1-.66,1,3.06,3.06,0,0,1-1,.65,3,3,0,0,1-1.19.24,3.11,3.11,0,0,1-2.17-.89,2.94,2.94,0,0,1-.66-1,3.07,3.07,0,0,1,0-2.38,3.21,3.21,0,0,1,.66-1,3.11,3.11,0,0,1,2.17-.89Zm0,.61a2.3,2.3,0,0,0-1,.19,2.43,2.43,0,0,0-.77.52,2.63,2.63,0,0,0-.51.78,2.5,2.5,0,0,0-.19.94,2.43,2.43,0,0,0,.19.94,2.48,2.48,0,0,0,.52.78,2.35,2.35,0,0,0,.77.53,2.26,2.26,0,0,0,.94.19,2.32,2.32,0,0,0,.94-.19,2.58,2.58,0,0,0,.77-.53,2.45,2.45,0,0,0,.51-.78,2.26,2.26,0,0,0,.19-.94,2.32,2.32,0,0,0-.19-.94,2.29,2.29,0,0,0-.51-.78,2.43,2.43,0,0,0-.77-.52A2.26,2.26,0,0,0,91.91,203Z"/><path class="cls-2" d="M96.58,207.8h1.63v.61H95.93v-5.89h.65Z"/><path class="cls-2" d="M101.69,202.42a3,3,0,0,1,1.19.24,3.11,3.11,0,0,1,1,.65,3.21,3.21,0,0,1,.66,1,3.07,3.07,0,0,1,0,2.38,2.94,2.94,0,0,1-.66,1,3.11,3.11,0,0,1-1,.65,3.07,3.07,0,0,1-2.38,0,3.08,3.08,0,0,1-1.64-1.61,3.07,3.07,0,0,1,0-2.38,3.4,3.4,0,0,1,.66-1,3.11,3.11,0,0,1,1-.65A3,3,0,0,1,101.69,202.42Zm0,.61a2.34,2.34,0,0,0-1,.19,2.39,2.39,0,0,0-.76.52,2.29,2.29,0,0,0-.51.78,2.32,2.32,0,0,0-.19.94,2.26,2.26,0,0,0,.19.94,2.29,2.29,0,0,0,.51.78,2.58,2.58,0,0,0,.77.53,2.32,2.32,0,0,0,.94.19,2.29,2.29,0,0,0,.94-.19,2.48,2.48,0,0,0,1.29-1.31,2.42,2.42,0,0,0,.18-.94,2.39,2.39,0,0,0-.7-1.72,2.39,2.39,0,0,0-.76-.52A2.3,2.3,0,0,0,101.69,203Z"/><path class="cls-2" d="M111.19,205.45a5.24,5.24,0,0,1,0,.57,3.08,3.08,0,0,1-.08.53,2.34,2.34,0,0,1-.19.5,2.67,2.67,0,0,1-.32.48,2.75,2.75,0,0,1-1,.72,2.9,2.9,0,0,1-1.19.26,2.93,2.93,0,0,1-1.18-.24,3.07,3.07,0,0,1-1.61-1.61,2.93,2.93,0,0,1-.24-1.18,3.09,3.09,0,0,1,1.87-2.82,3.06,3.06,0,0,1,1.2-.24,2.92,2.92,0,0,1,1.4.33,3.46,3.46,0,0,1,1.09.94l-.48.45a2.93,2.93,0,0,0-.87-.82,2.26,2.26,0,0,0-1.15-.29,2.12,2.12,0,0,0-.94.2,2.46,2.46,0,0,0-.77.53,2.92,2.92,0,0,0-.51.78,2.52,2.52,0,0,0-.19,1,2.17,2.17,0,0,0,.19.9,2.39,2.39,0,0,0,.5.76,2.81,2.81,0,0,0,.77.54,2,2,0,0,0,.9.21,2.21,2.21,0,0,0,.76-.13,2.38,2.38,0,0,0,.68-.38,2,2,0,0,0,.48-.58,1.61,1.61,0,0,0,.19-.75h-1.76v-.61Z"/><path class="cls-2" d="M113.51,200.87l-1.19,1.21-.39-.22.93-1.28Zm-.66,7.54h-.66v-5.89h.66Z"/><path class="cls-2" d="M115,206.74l-.71,1.67h-.72l2.72-6.17,2.65,6.17h-.73l-.7-1.67Zm1.27-3-1,2.36h2Z"/><path class="cls-2" d="M125.41,207.58c-.13.12-.27.23-.41.34s-.3.21-.45.3a2.33,2.33,0,0,1-.49.21,2,2,0,0,1-.54.08,1.77,1.77,0,0,1-.64-.12,1.68,1.68,0,0,1-.55-.33,1.48,1.48,0,0,1-.38-.51,1.41,1.41,0,0,1-.14-.65,1.67,1.67,0,0,1,.12-.65,2,2,0,0,1,.32-.5,2.71,2.71,0,0,1,.47-.42l.53-.37.07,0-.2-.29a2.9,2.9,0,0,1-.19-.29,2.22,2.22,0,0,1-.14-.32,1.41,1.41,0,0,1-.05-.35,1.36,1.36,0,0,1,.09-.51,1.28,1.28,0,0,1,.27-.4,1.33,1.33,0,0,1,.41-.25,1.46,1.46,0,0,1,.52-.09,1.5,1.5,0,0,1,.47.08,1.47,1.47,0,0,1,.4.24,1.14,1.14,0,0,1,.27.37,1,1,0,0,1,.1.46,1.21,1.21,0,0,1-.09.48,2.14,2.14,0,0,1-.23.38,2.58,2.58,0,0,1-.34.32l-.37.29,1.24,1.59.66-.77.48.39-.75.87,1,1.29H126Zm-2-2-.34.24a2.8,2.8,0,0,0-.31.28,1,1,0,0,0-.23.33,1,1,0,0,0-.09.41,1.11,1.11,0,0,0,.08.41,1.5,1.5,0,0,0,.23.33,1,1,0,0,0,.33.24.9.9,0,0,0,.4.09,1.35,1.35,0,0,0,.43-.08,2.14,2.14,0,0,0,.4-.2,2.42,2.42,0,0,0,.36-.27l.34-.28-1.31-1.69Zm.5-1.06.25-.19.24-.21a1,1,0,0,0,.17-.24.66.66,0,0,0,.07-.32.53.53,0,0,0-.19-.43A.68.68,0,0,0,124,203a.64.64,0,0,0-.46.19.62.62,0,0,0-.19.46.7.7,0,0,0,.12.4l.24.35.14.2Z"/><path class="cls-2" d="M130.05,202.52h3.06v.61h-2.4v1.75H133v.61h-2.33v2.31h2.4v.61h-3.06Z"/><path class="cls-2" d="M133.94,202.52h.75l1.2,2.22,1.21-2.22h.75l-1.6,2.84,1.74,3h-.74L135.89,206l-1.35,2.42h-.75l1.75-3Z"/><path class="cls-2" d="M139.41,208.41h-.66v-5.89h1a6.33,6.33,0,0,1,.76,0,1.56,1.56,0,0,1,.7.26,1.51,1.51,0,0,1,.5.59,1.79,1.79,0,0,1,.16.76,1.64,1.64,0,0,1-.14.69,1.51,1.51,0,0,1-.42.57,1.41,1.41,0,0,1-.66.32,3.71,3.71,0,0,1-.74.07h-.47Zm0-3.19h.44a2.1,2.1,0,0,0,.51-.05,1.23,1.23,0,0,0,.43-.16.85.85,0,0,0,.29-.33,1.11,1.11,0,0,0,.11-.52,1.14,1.14,0,0,0-.13-.57.81.81,0,0,0-.36-.3,1.27,1.27,0,0,0-.49-.13,5.12,5.12,0,0,0-.56,0h-.24Z"/><path class="cls-2" d="M142.74,202.52h3.06v.61h-2.4v1.75h2.33v.61H143.4v2.31h2.4v.61h-3.06Z"/><path class="cls-2" d="M147.63,208.41H147v-5.89h.85a4.11,4.11,0,0,1,.8.07,1.88,1.88,0,0,1,.69.24,1.36,1.36,0,0,1,.48.5,1.61,1.61,0,0,1-1.29,2.44l1.87,2.64h-.8l-1.78-2.59h-.17Zm0-3.16h.2a4.91,4.91,0,0,0,.55,0,1.23,1.23,0,0,0,.48-.15.87.87,0,0,0,.34-.32,1.09,1.09,0,0,0,.13-.55,1.14,1.14,0,0,0-.13-.57.73.73,0,0,0-.33-.32,1.42,1.42,0,0,0-.48-.14,5.12,5.12,0,0,0-.56,0h-.2Z"/><path class="cls-2" d="M151.94,208.41h-.65v-5.89h.65Z"/><path class="cls-2" d="M153.2,202.52h3.05v.61h-2.4v1.75h2.33v.61h-2.33v2.31h2.4v.61H153.2Z"/><path class="cls-2" d="M157.47,202.27l4.59,4.81v-4.56h.66v6.15l-4.59-4.8v4.54h-.66Z"/><path class="cls-2" d="M168.5,203.81a2.61,2.61,0,0,0-.82-.58,2.53,2.53,0,0,0-1-.2,2.1,2.1,0,0,0-.93.2,2.49,2.49,0,0,0-.75.53,2.77,2.77,0,0,0-.51.78,2.39,2.39,0,0,0-.18.92,2.44,2.44,0,0,0,.18.93,2.92,2.92,0,0,0,.51.78,2.58,2.58,0,0,0,.77.53,2.25,2.25,0,0,0,.93.2,2.31,2.31,0,0,0,1-.21,3.17,3.17,0,0,0,.82-.57v.81a3.34,3.34,0,0,1-.84.43,2.91,2.91,0,0,1-.92.15,3,3,0,0,1-1.19-.24,3.06,3.06,0,0,1-1-.65,2.94,2.94,0,0,1-.66-1,2.73,2.73,0,0,1-.25-1.17,3,3,0,0,1,.24-1.19,3,3,0,0,1,.66-1,3.13,3.13,0,0,1,1-.66,3,3,0,0,1,1.19-.24,2.84,2.84,0,0,1,1.76.58Z"/><path class="cls-2" d="M170.34,208.41h-.66v-5.89h.66Z"/><path class="cls-2" d="M172.48,206.74l-.71,1.67h-.72l2.72-6.17,2.64,6.17h-.72l-.7-1.67Zm1.27-3-1,2.36h2Z"/><path class="cls-2" d="M179.58,202.52h3.06v.61h-2.4v1.75h2.33v.61h-2.33v2.31h2.4v.61h-3.06Z"/><path class="cls-2" d="M183.86,202.27l4.59,4.81v-4.56h.66v6.15l-4.6-4.8v4.54h-.65Z"/><path class="cls-2" d="M192.9,202.27l4.59,4.81v-4.56h.66v6.15l-4.59-4.8v4.54h-.66Z"/><path class="cls-2" d="M200.08,206v.33a2.06,2.06,0,0,0,0,.35,1.32,1.32,0,0,0,.08.33,1.4,1.4,0,0,0,.15.3,1.31,1.31,0,0,0,.53.42,1.74,1.74,0,0,0,.66.14,1.48,1.48,0,0,0,.64-.14,1.32,1.32,0,0,0,.51-.38,1.09,1.09,0,0,0,.18-.31,1.89,1.89,0,0,0,.09-.34,2,2,0,0,0,0-.35v-3.86h.66v3.69c0,.16,0,.31,0,.45a2.63,2.63,0,0,1-.07.42,1.88,1.88,0,0,1-.16.39,1.8,1.8,0,0,1-.28.37,2,2,0,0,1-.72.5,2.27,2.27,0,0,1-.86.17,2.33,2.33,0,0,1-.82-.15,1.92,1.92,0,0,1-.7-.45,1.73,1.73,0,0,1-.31-.38,1.55,1.55,0,0,1-.17-.4,2.14,2.14,0,0,1-.08-.44c0-.16,0-.32,0-.48v-3.69h.66Z"/><path class="cls-2" d="M206.41,208.41h-.66v-5.28h-1.42v-.61h3.52v.61h-1.44Z"/><path class="cls-2" d="M209.24,208.41h-.66v-5.89h.85a4.28,4.28,0,0,1,.81.07,1.88,1.88,0,0,1,.69.24,1.36,1.36,0,0,1,.48.5,1.62,1.62,0,0,1,.17.81,1.52,1.52,0,0,1-1.47,1.63l1.88,2.64h-.81l-1.78-2.59h-.16Zm0-3.16h.2a4.56,4.56,0,0,0,.54,0,1.23,1.23,0,0,0,.48-.15.81.81,0,0,0,.34-.32,1,1,0,0,0,.13-.55,1.15,1.15,0,0,0-.12-.57.8.8,0,0,0-.34-.32,1.36,1.36,0,0,0-.47-.14,5.17,5.17,0,0,0-.57,0h-.19Z"/><path class="cls-2" d="M213.55,208.41h-.66v-5.89h.66Z"/><path class="cls-2" d="M219.29,203.81a2.46,2.46,0,0,0-.81-.58,2.53,2.53,0,0,0-1-.2,2.1,2.1,0,0,0-.93.2,2.37,2.37,0,0,0-.75.53,2.57,2.57,0,0,0-.51.78,2.4,2.4,0,0,0-.19.92,2.45,2.45,0,0,0,.19.93,2.7,2.7,0,0,0,.51.78,2.53,2.53,0,0,0,.76.53,2.29,2.29,0,0,0,.93.2,2.35,2.35,0,0,0,1-.21,3,3,0,0,0,.81-.57v.81a3.11,3.11,0,0,1-.83.43,2.91,2.91,0,0,1-.92.15,3,3,0,0,1-1.19-.24,3,3,0,0,1-1-.65,3.13,3.13,0,0,1-.67-1,2.88,2.88,0,0,1-.24-1.17,3,3,0,0,1,.24-1.19,3,3,0,0,1,.66-1,3,3,0,0,1,2.17-.9,2.81,2.81,0,0,1,1.75.58Z"/><path class="cls-2" d="M221.14,208.41h-.66v-5.89h.66Z"/><path class="cls-2" d="M225.17,202.42a3,3,0,0,1,1.19.24,3.06,3.06,0,0,1,1,.65,3.21,3.21,0,0,1,.66,1,3.07,3.07,0,0,1,0,2.38,2.94,2.94,0,0,1-.66,1,3.06,3.06,0,0,1-1,.65,3.1,3.1,0,0,1-2.39,0,3.06,3.06,0,0,1-1-.65,2.94,2.94,0,0,1-.66-1,3.07,3.07,0,0,1,0-2.38,3.21,3.21,0,0,1,.66-1,3.06,3.06,0,0,1,1-.65A3,3,0,0,1,225.17,202.42Zm0,.61a2.3,2.3,0,0,0-.95.19,2.35,2.35,0,0,0-1.28,1.3,2.32,2.32,0,0,0-.19.94,2.26,2.26,0,0,0,.19.94,2.48,2.48,0,0,0,.52.78,2.42,2.42,0,0,0,.76.53,2.45,2.45,0,0,0,1.89,0,2.58,2.58,0,0,0,.77-.53,2.45,2.45,0,0,0,.51-.78,2.26,2.26,0,0,0,.19-.94,2.32,2.32,0,0,0-.19-.94,2.29,2.29,0,0,0-.51-.78,2.43,2.43,0,0,0-.77-.52A2.29,2.29,0,0,0,225.17,203Zm1.1-2.16-1.19,1.21-.39-.22.93-1.28Z"/><path class="cls-2" d="M229.23,202.27l4.59,4.81v-4.56h.65v6.15l-4.59-4.8v4.54h-.65Z"/><path class="cls-1" d="M185.88,103.61a18,18,0,0,0,2.27-2.23,20.64,20.64,0,0,1,4.16-4.85c1.88-1.47.77-2.47,4.38-5.2,0,0,3.58,1.38,1.86,5.79l.15-1.74a4.27,4.27,0,0,0-1.84-3.31c-3.62,2.73-2.51,3.73-4.39,5.2a20.64,20.64,0,0,0-4.16,4.85,15.55,15.55,0,0,1-2.67,1.95Z"/><path class="cls-1" d="M194.42,108.88a19.29,19.29,0,0,1,4-4.89c2.19-1.69,2.12-2.31,3-3.65a3.94,3.94,0,0,0,.6-2.82s2.3-2.06,3.6-.15c2.32,3.16-.13,5.47.16,4.64a6.33,6.33,0,0,0-.28-3.51,1.82,1.82,0,0,0-2.95-.13,4,4,0,0,1-.6,2.83c-.92,1.34-.85,2-3,3.65a30.94,30.94,0,0,0-3.67,4.19,12,12,0,0,0-1.85,3.39A9.35,9.35,0,0,1,194.42,108.88Z"/><path class="cls-1" d="M202.62,114.06s.07-3.29.67-4.3.89-5,1.89-6.14a8.3,8.3,0,0,0-1.85,4.11A36.57,36.57,0,0,0,202.62,114.06Z"/><path class="cls-1" d="M196.91,122.52s-3-3.5-.34-10.23,2.78-6.22,5-9.07c0,0-1.48,3.56-2.17,5.49s-3.56,7-2.5,11.16A19.17,19.17,0,0,0,196.91,122.52Z"/><path class="cls-1" d="M66.91,142.6a21.25,21.25,0,0,1,0-12.79c-2.46,3.84-2.17,8.12-.72,12.42,0,0,1,2.94,2.23,3.88A28,28,0,0,1,66.91,142.6Z"/><path class="cls-1" d="M67.59,127.72s1.31-3,.81-4.56c0,0,.57-1-3.67-6.24,0,0-4.11-5.21,0-8.71,0,0-2.21,3.22,1.06,7.67C68.7,119.76,71.67,121.77,67.59,127.72Z"/><path class="cls-1" d="M72.07,114.78s-3.24-.38-3.56-4.31C68.51,110.47,68.62,115.91,72.07,114.78Z"/><path class="cls-1" d="M163.78,107.33s11.13,1.45,25.07,1.87A166.13,166.13,0,0,0,163.78,107.33Z"/><path class="cls-1" d="M73.89,113.72s3.54-9.55,20.59-9.84C94.48,103.88,80,104.31,73.89,113.72Z"/><path class="cls-1" d="M97,103.53s19.8-2.47,37.64-1,23.43,2.49,30,2.64,16.86,1.95,19.7,1.83c0,0-7.25,0-19.59-.85-6.56,0-22.84-1.91-30.09-2.55S106,101.9,97,103.53Z"/><path class="cls-1" d="M207.35,107.91a16.91,16.91,0,0,1,5.25,7.45c1.37,4.46,7,7,9.13,11.14s7.11,5.95,7.11,5.95-4.4-.16-7.67-5c-2-2.93-3.56-5.46-6-6.91a14.86,14.86,0,0,1-3.66-5.76C211,113,209.75,110.94,207.35,107.91Z"/><path class="cls-1" d="M230.62,133.48a1.4,1.4,0,0,0,2.22.53c1.39-1.1,3-1.6,3.38,2.41s-1,8.92-3.77,8.84c0,0,1,2,3.13-1.58a12.64,12.64,0,0,0,1.42-7.75s-.34-5.65-4.19-2.6A1.58,1.58,0,0,1,230.62,133.48Z"/></svg>