<svg id="Layer_1" data-name="Layer 1" xmlns="http://www.w3.org/2000/svg" viewBox="0 0 300 300"><defs><style>.cls-1{fill:#1d1d1d;}</style></defs><path class="cls-1" d="M60.21,147.12v-51h19l5.36,30.23h.14L90.08,96.1h19v51H96.66v-38l-7.16,38H79.8l-7.15-38v38Z"/><path class="cls-1" d="M111.66,105.68V96.1h12.86v9.58Zm0,41.44V108.46h12.86v38.66Z"/><path class="cls-1" d="M127.24,147.12v-51H140.1v51Z"/><path class="cls-1" d="M142.25,147.12v-51h12.86v25.73l7.19-13.37h13.82L165.4,124.4l12.08,22.72H163.76l-6.51-13.29-2.14,3.36v9.93Z"/><path class="cls-1" d="M81.08,170.24v-2.86a14.64,14.64,0,0,0-.82-5.86,2.91,2.91,0,0,0-2.83-1.64q-2.93,0-3.78,3.57-.72,3.15-.72,13.94t.72,13.93q.85,3.57,3.78,3.57t3.79-5.14a70.18,70.18,0,0,0,.22-7.36H94.3v3.78q0,17.73-16.87,17.73-10.86,0-14.72-6.15-3.49-5.5-3.5-20.36t4-20.62q4-5.9,14.25-5.9,16.51,0,16.51,16.15v3.22Z"/><path class="cls-1" d="M95.66,202.9v-51h12.86v16.64a9.47,9.47,0,0,1,9-5.28q10.14,0,10.15,10.5V202.9H114.81V177.39q0-4.57-3.15-4.58c-2.1,0-3.14,1.53-3.14,4.58V202.9Z"/><path class="cls-1" d="M161.68,183.6q0,9.38-2.78,13.94-3.79,6.36-13.65,6.36-10.29,0-13.87-6-2.56-4.27-2.57-14.36,0-9.36,2.79-13.93,3.78-6.36,13.65-6.36,10.29,0,13.86,6Q161.69,173.53,161.68,183.6Zm-20,0q0,6.08.15,7,.65,5,3.43,5c1.85,0,3-1.67,3.43-5q.13-1,.14-7c0-4,0-6.4-.14-7.07-.43-3.34-1.58-5-3.43-5s-3,1.69-3.43,5.07Q141.67,177.53,141.67,183.6Z"/><path class="cls-1" d="M163,161.45v-9.57H175.9v9.57Zm0,41.45V164.24H175.9V202.9Z"/><path class="cls-1" d="M209.2,179.39H197.63c0-3-.28-5-.82-6.15a3,3,0,0,0-2.9-1.71c-1.48,0-2.48.83-3,2.5s-.79,4.86-.79,9.57.27,7.9.79,9.54a3,3,0,0,0,3,2.47q3.72,0,3.72-6.36v-2.5H209.2q0,9.28-3.43,13.07-3.65,4.08-11.86,4.08t-12-3.57q-4.65-4.52-4.65-16.08,0-12.58,5-17.37,3.87-3.65,12.29-3.64,8.08,0,11.65,4.43Q209.2,171.53,209.2,179.39Z"/><path class="cls-1" d="M240.79,185.75H221.64v5.07c0,3.48,1.16,5.22,3.5,5.22s3.64-2.24,3.64-6.72h11.58q-.21,14.58-15.15,14.58-9.22,0-12.83-4.57t-3.61-15.73q0-11,3.87-15.68t12.61-4.68c5.34,0,9.24,1.33,11.67,4q3.87,4.35,3.87,14.58Zm-12-7-.07-1.71c0-4-1.19-5.93-3.57-5.93s-3.5,2-3.5,5.93v1.71Z"/></svg>