<svg id="Layer_1" data-name="Layer 1" xmlns="http://www.w3.org/2000/svg" viewBox="0 0 300 300"><defs><style>.cls-1{fill:#bc593b;}</style></defs><path class="cls-1" d="M94.78,171.48a3.91,3.91,0,0,0-2.06-.51,17.88,17.88,0,0,0-3.56.52,17.85,17.85,0,0,0,5.36-2.35,4.25,4.25,0,0,0,1.41-1.84,8.47,8.47,0,0,0,.37-2.89l0-3.13c0-2.2-.7-3.72-1.92-4.56A4.06,4.06,0,0,0,92.1,156a17.8,17.8,0,0,0-3.84.52l-24.34,5.32a7.11,7.11,0,0,1,1.28,4.38l.13,22.13a9.82,9.82,0,0,1-1.23,4.93L88.44,188a19.51,19.51,0,0,0,3.85-1.18,6.9,6.9,0,0,0,2.24-1.7,8,8,0,0,0,1.86-5.39l0-4.33c0-2-.55-3.25-1.58-3.87m-18.16-7.24,6.52-1.42c.82-.18,1.37-.07,1.65.32a5.07,5.07,0,0,1,.43,2.59V167a4.87,4.87,0,0,1-.46,2.54,2.83,2.83,0,0,1-1.87,1l-6.23,1.36ZM85.26,182a1.94,1.94,0,0,1-.31.76,4.27,4.27,0,0,1-2.59,1.33l-5.61,1.23,0-8.23,5.92-1.29a9.69,9.69,0,0,1,1.63-.27.83.83,0,0,1,.64.33,1.71,1.71,0,0,1,.33.87,19.17,19.17,0,0,1,.08,2.17v1.48a12.34,12.34,0,0,1,0,1.62m96.64-19.68c-1.56.34-2.61.31-3.14-.08s-.82-1.34-.83-2.81l-.07-13.33a15.16,15.16,0,0,1,.09-2.26,2.86,2.86,0,0,1,.46-1.14,2.24,2.24,0,0,1,.88-.77,9.7,9.7,0,0,1,1.89-.55l6.29-1.38a18.25,18.25,0,0,1,3.47-.52,4.69,4.69,0,0,1,2.15.59L192,133.83l-17.94,3.92a9.36,9.36,0,0,0-5.81,3.83,8.91,8.91,0,0,0-1.44,2.92,15.54,15.54,0,0,0-.37,3.93l.07,13.43a13.65,13.65,0,0,0,.42,3.76,5.22,5.22,0,0,0,1.47,2.28q2.1,2.06,5.85,1.29l18.44-4,.89-6.37a16.84,16.84,0,0,1-5.74,2.24Zm46.4-11.46-8.92-13.8,4.12-5.79a23,23,0,0,1,4.77-5.37l-10,2.17a4.4,4.4,0,0,1,.18,1,6,6,0,0,1-1.34,3.43l-8.27,11.75,0-9.49a9.54,9.54,0,0,1,1.22-4.92l-13.92,3a7.11,7.11,0,0,1,1.28,4.38l.12,22.13a9.72,9.72,0,0,1-1.22,4.93l13.93-3.05a6.89,6.89,0,0,1-1.28-4.38l0-5.13,2.88-4.16,7,11.8,13.86-3a32.62,32.62,0,0,1-4.35-5.55m-67.49-7.65a5.32,5.32,0,0,0-2.63-1.3,8.16,8.16,0,0,0-3.37.05l-17.46,3.82A10,10,0,0,0,134,147.2a9.43,9.43,0,0,0-2.61,2.44c-1.1,1.49-1.66,3.76-1.65,6.82l.07,13.43q.06,4.58,1.74,6.07a5.14,5.14,0,0,0,2.63,1.29,8,8,0,0,0,3.37,0L155,173.39a10,10,0,0,0,3.36-1.42,9.43,9.43,0,0,0,2.61-2.44q1.66-2.24,1.66-6.82l-.08-13.43q0-4.58-1.73-6.07m-10.16,25.25a3.79,3.79,0,0,1-2.4,1.22l-4,.88c-1.28.3-2.14.17-2.6-.37a5.8,5.8,0,0,1-.39-2.66l-.08-13.71a6.25,6.25,0,0,1,.5-3,3,3,0,0,1,2-1.19l4.44-1c1.28-.3,2.15-.17,2.61.37a6.09,6.09,0,0,1,.39,2.66l.08,13.71a5.81,5.81,0,0,1-.55,3.11m-38.12,9-.13-21.6a9.6,9.6,0,0,1,1.23-4.93L99.7,154a7.11,7.11,0,0,1,1.28,4.38l.13,22.13a9.68,9.68,0,0,1-1.23,4.92l26.26-5.74.93-6.56a7.45,7.45,0,0,1-3.8,2Zm12.26-40.79-1.92.43-.2,6.17a6.37,6.37,0,0,0,.15,1.59,3.41,3.41,0,0,0,.42,1l-8.77,2a8.88,8.88,0,0,0,.51-1.66,13.92,13.92,0,0,0,.18-2l.48-14.43a6.37,6.37,0,0,0-.15-1.59,3.2,3.2,0,0,0-.42-1l14.62-3.26a16.62,16.62,0,0,1,2.29-.39,3.21,3.21,0,0,1,1.33.24,4,4,0,0,1,1.54,1,3.14,3.14,0,0,1,.83,1.5,4.67,4.67,0,0,1,.12,1.31l-.12,3.52a16.48,16.48,0,0,1-.16,1.71,1.87,1.87,0,0,1-.34.72,3.89,3.89,0,0,1-2.44,1.4l-.51.09,2.61,5.91a4.75,4.75,0,0,0,.67,1.14,4.3,4.3,0,0,0,1.05.82l-8.27,1.84ZM123,133.59l3.64-.81a2.37,2.37,0,0,0,1.23-.52,1.77,1.77,0,0,0,.34-1.12l.06-2.06a2.72,2.72,0,0,0,0-.68c-.12-.5-.55-.66-1.32-.49l-3.75.83Zm30.62-15,7.06,15.58a11.06,11.06,0,0,0,1,1.88,4.12,4.12,0,0,0,1.11,1l-9.23,2a3.45,3.45,0,0,0,.13-1.64,9.17,9.17,0,0,0-.6-1.68l-.87-1.95-9.19,2-1.49,3.76a3,3,0,0,0-.29,1.69,2.83,2.83,0,0,0,.17.47L136.16,143a15.9,15.9,0,0,0,1.85-3.32l7.08-18a3.45,3.45,0,0,0-.84-.51,5,5,0,0,0-1-.24ZM150.91,131l-3.18-7.16-3.35,8.62ZM172,114.5l8.55,13.92L181,115.2a5.93,5.93,0,0,0-.16-1.58,3.3,3.3,0,0,0-.42-1l4.48-1a8.93,8.93,0,0,0-.51,1.68,12.19,12.19,0,0,0-.18,2l-.59,17.16-8.3,1.85-8.36-13.68-.43,12.92a6.23,6.23,0,0,0,.14,1.6,3.42,3.42,0,0,0,.43,1l-4.47,1a9.44,9.44,0,0,0,.51-1.66,13.92,13.92,0,0,0,.18-2l.49-14.43a6,6,0,0,0-.16-1.59,3.42,3.42,0,0,0-.41-1Zm30.63-6.82.43,3.91a7.16,7.16,0,0,0-1.38-.2,6.28,6.28,0,0,0-1.38.2l-5.19,1.15a4,4,0,0,0-1.65.63,2.13,2.13,0,0,0-.39,1.38l-.35,10.41a4,4,0,0,0,0,.93.79.79,0,0,0,.84.66,5.52,5.52,0,0,0,1.27-.19l5-1.11a6.11,6.11,0,0,0,2.86-1.34l-.73,4.25-10.08,2.25c-1.49.3-2.42.47-2.77.52a3.82,3.82,0,0,1-1.15-.06,3.35,3.35,0,0,1-1.76-.9,3.4,3.4,0,0,1-1-1.73,8.33,8.33,0,0,1-.08-1.85l.37-10.9a5,5,0,0,1,1.65-3.82,5.14,5.14,0,0,1,1.49-1,22.91,22.91,0,0,1,2.85-.77ZM216.73,116l-5.29,1.18-.22,6.37a6.3,6.3,0,0,0,.16,1.6,3.11,3.11,0,0,0,.41,1l-8.77,2a9.44,9.44,0,0,0,.51-1.66,14.07,14.07,0,0,0,.18-2L204.2,110a6.5,6.5,0,0,0-.16-1.59,3.41,3.41,0,0,0-.42-1l8.78-2a9.9,9.9,0,0,0-.52,1.68,13.71,13.71,0,0,0-.17,2l-.16,4.64,5.29-1.18.19-5.44a6.71,6.71,0,0,0-.16-1.59,3,3,0,0,0-.43-1l8.79-2a8.78,8.78,0,0,0-.51,1.69,13.57,13.57,0,0,0-.18,2l-.49,14.42a5.85,5.85,0,0,0,.14,1.61,3.42,3.42,0,0,0,.43,1l-8.77,2a9.36,9.36,0,0,0,.51-1.65,17.6,17.6,0,0,0,.18-2Z"/><path class="cls-1" d="M237.5,153.35a24.46,24.46,0,0,1-3.23-4.16l-6-9.26,1.16-1.63a15.61,15.61,0,0,1,3-3.53,7.38,7.38,0,0,0,2.32-9,7.67,7.67,0,0,0-.36-.7l.39-2.7a7.35,7.35,0,0,0-1.18-5.2l0-4a6.51,6.51,0,0,0,0-.77,7.44,7.44,0,0,0,.69-4.49l-.59-3.65A7.37,7.37,0,0,0,226.35,98a7.79,7.79,0,0,0-1.58.17l-16.93,3.7a7.66,7.66,0,0,0-1.59.55h-.1a7.08,7.08,0,0,0-1.58.17l-13.87,3a18.63,18.63,0,0,0-4,1.28l-.3.15a7.17,7.17,0,0,0-1-.08,7.72,7.72,0,0,0-1.58.17l-4.78,1a7.39,7.39,0,0,0-3.12,1.51,7.42,7.42,0,0,0-1.89-.25,7.16,7.16,0,0,0-1.58.18L161.93,112a7.36,7.36,0,0,0-4,2.33,7.39,7.39,0,0,0-3-.63,7,7,0,0,0-1.57.17l-8.49,1.85a7.39,7.39,0,0,0-4.94,3.74,10,10,0,0,0-4.54-1.23h-.34a18.13,18.13,0,0,0-3.93.5l-15.82,3.46a7.38,7.38,0,0,0-5,10.6l.07,13.44a8.64,8.64,0,0,0-.38.9l-9,2a7.37,7.37,0,0,0-3.65,2,12.64,12.64,0,0,0-2-.22H95a24.54,24.54,0,0,0-5.15.68L66.1,156.69A7.38,7.38,0,0,0,61.53,168a2.32,2.32,0,0,0,0,.24l.13,21.38a4.72,4.72,0,0,1-.15,1.18A7.38,7.38,0,0,0,67.86,202a7.79,7.79,0,0,0,1.58-.17l23.74-5.19a24.61,24.61,0,0,0,5.36-1.7,13.91,13.91,0,0,0,1.77-1,7.31,7.31,0,0,0,2.46.42,7,7,0,0,0,1.58-.17l25.62-5.6a7.33,7.33,0,0,0,4.12-2.51l.65.14a14.34,14.34,0,0,0,3,.31,15.92,15.92,0,0,0,3.35-.37l17-3.72a17,17,0,0,0,5.72-2.41,17.41,17.41,0,0,0,3.4-2.85,12.85,12.85,0,0,0,6.22,1.53,17.42,17.42,0,0,0,3.46-.38l18-3.94a7,7,0,0,0,1.72-.6h.25a7.14,7.14,0,0,0,1.58-.17l13.59-3a7.4,7.4,0,0,0,3.87-2.24,7.45,7.45,0,0,0,2.88.59,7.79,7.79,0,0,0,1.58-.17l13.53-3a7.39,7.39,0,0,0,3.6-12.48m.26,6.83a5.65,5.65,0,0,1-4.23,4l-13.53,3a5.47,5.47,0,0,1-1.21.13,5.72,5.72,0,0,1-2.2-.44,1.63,1.63,0,0,0-.68-.14,1.74,1.74,0,0,0-1.27.56,5.6,5.6,0,0,1-3,1.71l-13.59,3a6.14,6.14,0,0,1-1.21.13,2.92,2.92,0,0,0-1,.18,5.51,5.51,0,0,1-1.31.46l-18,3.94a15.49,15.49,0,0,1-3.09.33,11.23,11.23,0,0,1-5.4-1.31,1.75,1.75,0,0,0-.82-.21A1.73,1.73,0,0,0,166,176a15.8,15.8,0,0,1-3.06,2.56,15.28,15.28,0,0,1-5.14,2.16l-17,3.73a13.73,13.73,0,0,1-3,.32,13.25,13.25,0,0,1-2.66-.26l-.56-.13a1.59,1.59,0,0,0-.43-.06,1.73,1.73,0,0,0-1.33.63,5.63,5.63,0,0,1-3.16,1.93L104,192.47a5.41,5.41,0,0,1-1.21.13,5.82,5.82,0,0,1-1.89-.32,1.59,1.59,0,0,0-.57-.1,1.74,1.74,0,0,0-1,.29,13.79,13.79,0,0,1-1.55.88,22.66,22.66,0,0,1-5,1.56L69.07,200.1a5.48,5.48,0,0,1-1.21.14A5.67,5.67,0,0,1,63,191.67a1,1,0,0,0,.15-.33,5.65,5.65,0,0,0,.25-1.71l-.13-21.42c0-.07,0-.37,0-.44A1.8,1.8,0,0,0,63,167a5.66,5.66,0,0,1,3.51-8.65l23.75-5.2a23.17,23.17,0,0,1,4.78-.64h.36a10.29,10.29,0,0,1,1.67.19,1.32,1.32,0,0,0,.34,0,1.73,1.73,0,0,0,1.22-.51,5.65,5.65,0,0,1,2.8-1.53l9-2a1.7,1.7,0,0,0,1.26-1.12A6.76,6.76,0,0,1,112,147a1.74,1.74,0,0,0,.18-.77l-.07-13.45a1.64,1.64,0,0,0-.19-.78,5.67,5.67,0,0,1,3.82-8.13l15.82-3.46a16.57,16.57,0,0,1,3.56-.46h.29a8.1,8.1,0,0,1,3.76,1,1.76,1.76,0,0,0,.83.21,1.57,1.57,0,0,0,.49-.07,1.75,1.75,0,0,0,1-.84,5.61,5.61,0,0,1,3.78-2.86l8.48-1.86a5.53,5.53,0,0,1,1.21-.13,5.6,5.6,0,0,1,2.29.48,1.73,1.73,0,0,0,.7.15,1.71,1.71,0,0,0,1.29-.58,5.54,5.54,0,0,1,3-1.78l10.45-2.29a5.53,5.53,0,0,1,1.21-.13,5.45,5.45,0,0,1,1.45.19,1.69,1.69,0,0,0,1.54-.34,5.67,5.67,0,0,1,2.39-1.16l4.78-1a5.41,5.41,0,0,1,1.21-.13,5.29,5.29,0,0,1,.8.05l.24,0a1.64,1.64,0,0,0,.78-.19l.25-.12a16.9,16.9,0,0,1,3.66-1.15l13.88-3a5.47,5.47,0,0,1,1.21-.13A2.17,2.17,0,0,0,207,104a5.65,5.65,0,0,1,1.22-.41l16.93-3.7a5.55,5.55,0,0,1,1.21-.14,5.62,5.62,0,0,1,3.19,1,5.69,5.69,0,0,1,2.4,3.77l.59,3.66a5.65,5.65,0,0,1-.53,3.43,1.7,1.7,0,0,0-.17,1,5.74,5.74,0,0,1,0,.6l0,4a1.78,1.78,0,0,0,.3,1,5.68,5.68,0,0,1,.91,4l-.4,2.7a1.72,1.72,0,0,0,.22,1.13,5.36,5.36,0,0,1,.28.53,5.7,5.7,0,0,1-1.78,6.9,17.13,17.13,0,0,0-3.38,3.93l-1.14,1.61a1.72,1.72,0,0,0,0,1.93l6,9.27a26.37,26.37,0,0,0,3.46,4.45,5.65,5.65,0,0,1,1.47,5.6"/></svg>