<svg id="Layer_1" data-name="Layer 1" xmlns="http://www.w3.org/2000/svg" viewBox="0 0 300 300"><defs><style>.cls-1{fill:#3d251d;}.cls-2{fill:#fff;}</style></defs><path class="cls-1" d="M121.45,203.68a2.16,2.16,0,0,1-1.78-.62l-4.84-3.86-.13-.12a2.18,2.18,0,0,1-.36-2.22,16.7,16.7,0,0,0,.86-2.76,23.67,23.67,0,0,0,.31-3.44l.68-18.27-.22,0a7.42,7.42,0,0,0-2.61,1.07,2.19,2.19,0,0,1-2.42,0l-.07-.05-4.72-3.77s0,0,0,0a2.19,2.19,0,0,1-1-2.22l.54-2.92-4.13.93h0L89.72,168.1l-.23,0a2.21,2.21,0,0,1-1.78-.61c-.57-.44-2.49-2-2.51-2-1.18-1-1.85-1.53-2.23-1.88v.21a7.26,7.26,0,0,0,.2,1.85,3,3,0,0,0,.36.84,2.18,2.18,0,0,1-1.4,3.26l-13.2,2.94-.22,0a2.18,2.18,0,0,1-1.78-.61c-.21-.16-.78-.6-2.41-1.9A29.64,29.64,0,0,1,62,168.18a2.18,2.18,0,0,1-.36-2.23,11.27,11.27,0,0,0,.65-2.08,20.06,20.06,0,0,0,.23-2.69l.72-21.71a7.23,7.23,0,0,0-.19-1.85,2.91,2.91,0,0,0-.37-.84,2.19,2.19,0,0,1,1.4-3.26l22-4.91c1.43-.32,2.49-.51,3.25-.6l.57,0a7.15,7.15,0,0,1,2.9.51,8,8,0,0,1,2.31,1.35l5.55,4.52a.6.6,0,0,1,.08.08,7,7,0,0,1,1.8,3.27,8.7,8.7,0,0,1,.21,1.46l4-10.3-1-.81a2.19,2.19,0,0,1,.7-4L122,120.57l.23,0a2.19,2.19,0,0,1,1.78.63l4.47,3.55a2.23,2.23,0,0,1,.82.93l5.77,12.72.5-15.06a7.62,7.62,0,0,0-.19-1.84,3,3,0,0,0-.37-.84,2.18,2.18,0,0,1,1.4-3.26l13.18-2.94.22,0a2.17,2.17,0,0,1,1.78.61l4.42,3.5.1.09h0a2.24,2.24,0,0,1,.63.67l4.39,7.12.29-8.84a7.11,7.11,0,0,0-.19-1.84,2.82,2.82,0,0,0-.37-.86,2.17,2.17,0,0,1-.13-2,2.23,2.23,0,0,1,1.53-1.27l6.73-1.5.23,0a2.22,2.22,0,0,1,1.74.58l.29.23a1.84,1.84,0,0,1,.22.17l.25-.21a10.51,10.51,0,0,1,3.09-1.82c.86-.3,2.73-.78,6-1.56l19.3-4.31.23,0a2.16,2.16,0,0,1,1.5.39l.05,0,.69.56a2.23,2.23,0,0,1,1.7-1.87l26.14-5.83.23,0a2.2,2.2,0,0,1,1.53.4l0,0,4.68,3.74.12.08a2.19,2.19,0,0,1,.89,1.56l.56,5.74a2.17,2.17,0,0,1-1.92,2.38,2.26,2.26,0,0,1-.82-.06,3.69,3.69,0,0,0-1.06-.17l-.33,0c-.28,0-.63.1-1,.18l3.2,2.55a2.17,2.17,0,0,1,1,1.92l-.2,6.27a2.19,2.19,0,0,1-.92,1.71,2.09,2.09,0,0,1-1,.39,2,2,0,0,1-.9-.09,3.08,3.08,0,0,0-1.08,0l3.41,2.72a2.18,2.18,0,0,1,1,2.19l-1,6a2.15,2.15,0,0,1-1.68,1.78l-5.16,1.16.2.16.29.23.28.22.29.23.28.23.29.22.28.23.28.22.29.23.28.23.29.22a11.57,11.57,0,0,1,1,.92,9.21,9.21,0,0,1,2.47,4.4,24.51,24.51,0,0,1,.2,7.28,9.87,9.87,0,0,1-1.34,4.13,8.12,8.12,0,0,1-1.59,2,6.26,6.26,0,0,1,2.17,3.61,7.53,7.53,0,0,1,.17,2l-.19,5.32a19.76,19.76,0,0,1-.47,4.13,9.83,9.83,0,0,1-1.53,3.19,9.64,9.64,0,0,1-3.68,3.13,25.93,25.93,0,0,1-5.82,1.83l-30.51,6.68-.22,0a2.15,2.15,0,0,1-1.77-.61l-1.85-1.47c0,.08-.09.15-.14.23l0,.05a9.92,9.92,0,0,1-4.31,3.27,12.24,12.24,0,0,1-2.52.87l-21.56,4.72c-.88.2-2.08.39-3.55.57l-.16,0a8,8,0,0,1-5.86-1.47l0,0-4.9-3.9a8.67,8.67,0,0,1-3.21-5.26,17.56,17.56,0,0,1-.31-4.34l.54-14.22-4.28.93-1,25.87a9.42,9.42,0,0,0,.21,2.47,4.44,4.44,0,0,0,.54,1.2,2.18,2.18,0,0,1-1.4,3.27l-16.62,3.64-.22,0"/><path class="cls-2" d="M155.17,118.9l-4.46-3.52a1.33,1.33,0,0,0-1.1-.41l-.14,0-13.18,2.94a1.33,1.33,0,0,0-.92.76,1.32,1.32,0,0,0,.09,1.19,4.22,4.22,0,0,1,.47,1.11,8.38,8.38,0,0,1,.21,2.06l-.63,18.79-7.31-16.11a1.34,1.34,0,0,0-.52-.58l-4.55-3.62a1.29,1.29,0,0,0-1.1-.4h-.14l-15.62,3.49a1.31,1.31,0,0,0-.38,2.41l1.55,1.25-6.07,15.5.13-3.88a9.21,9.21,0,0,0-.2-2.31,6.32,6.32,0,0,0-1.58-2.87l-5.56-4.52A7.3,7.3,0,0,0,92.09,129a6.1,6.1,0,0,0-2.54-.45c-.15,0-.32,0-.52.05-.72.08-1.75.27-3.15.58l-22,4.91a1.33,1.33,0,0,0-.92.76,1.31,1.31,0,0,0,.08,1.2,3.7,3.7,0,0,1,.47,1.1,8,8,0,0,1,.21,2.06L63,160.94a20.09,20.09,0,0,1-.24,2.81,12.15,12.15,0,0,1-.7,2.26,1.29,1.29,0,0,0,.21,1.33c.1.12,4.78,3.84,4.89,3.9a1.28,1.28,0,0,0,1.09.4l.14,0,13.2-3a1.31,1.31,0,0,0,.92-.76,1.29,1.29,0,0,0-.08-1.19,4.17,4.17,0,0,1-.47-1.1,8.56,8.56,0,0,1-.21-2.07l.11-3.48,1,2.31c.11.26,5,4.16,5.08,4.22a1.32,1.32,0,0,0,1.1.4l.14,0,11.8-2.63h0l5.42-1.21-.78,4.22a1.31,1.31,0,0,0,.57,1.33l.06,0,4.78,3.81a1.34,1.34,0,0,0,1.45,0,8,8,0,0,1,2.91-1.2l1.32-.29-.71,19.4a25.47,25.47,0,0,1-.33,3.58,17.61,17.61,0,0,1-.91,2.91,1.33,1.33,0,0,0,.22,1.34l4.88,3.89a1.3,1.3,0,0,0,1.1.4l.13,0,16.63-3.64a1.32,1.32,0,0,0,.83-2,4.75,4.75,0,0,1-.64-1.47,10.21,10.21,0,0,1-.23-2.69l1-26.54,6-1.32-.58,15.35a16.73,16.73,0,0,0,.29,4.12,7.85,7.85,0,0,0,2.89,4.76l4.91,3.9a7.17,7.17,0,0,0,5.24,1.31l.16,0c1.45-.18,2.62-.36,3.47-.55L182.7,189a12.61,12.61,0,0,0,2.36-.83,9,9,0,0,0,3.94-3l0,0a6.89,6.89,0,0,0,.61-1l.13.09,2.56,2a1.28,1.28,0,0,0,1.09.4l.14,0L224.06,180a25.64,25.64,0,0,0,5.62-1.75,9.32,9.32,0,0,0,4.75-5.77,18.72,18.72,0,0,0,.43-3.94l.2-5.32a6.75,6.75,0,0,0-.15-1.8,5.37,5.37,0,0,0-2.06-3.26,3.15,3.15,0,0,0-.29-.22,3.11,3.11,0,0,0-.28-.23l-.12-.09a7.05,7.05,0,0,0,2.27-2.39,9.16,9.16,0,0,0,1.22-3.78,23.38,23.38,0,0,0-.19-7,8.23,8.23,0,0,0-2.24-4,7.6,7.6,0,0,0-1-.84l-.28-.23-.29-.22a2,2,0,0,0-.28-.23l-.29-.23-.28-.22-.29-.23-.28-.22a2.83,2.83,0,0,0-.28-.23l-.29-.23-.28-.22-.28-.23-.29-.22c-.1-.08-.18-.16-.28-.23l-.29-.23-.28-.22-.21-.17,6.94-1.56a1.29,1.29,0,0,0,1-1.07l.95-6a1.29,1.29,0,0,0-.61-1.32h0l-4.81-3.83a.88.88,0,0,0-.26-.12l.55-.12a9.86,9.86,0,0,1,1.26-.22,4.34,4.34,0,0,1,1.68.06,1.25,1.25,0,0,0,.54,0,1.3,1.3,0,0,0,.62-.23,1.35,1.35,0,0,0,.55-1l.2-6.28a1.32,1.32,0,0,0-.64-1.17h0l-4.55-3.62-.12-.11,1.57-.35c.54-.11,1-.2,1.34-.24l.41,0a5.07,5.07,0,0,1,1.3.19,1.42,1.42,0,0,0,.5,0,1.31,1.31,0,0,0,.69-.31,1.3,1.3,0,0,0,.46-1.12l-.56-5.75a1.29,1.29,0,0,0-.53-.93l-.11-.07-4.72-3.77a1.33,1.33,0,0,0-.92-.25l-.14,0-26.14,5.84a1.28,1.28,0,0,0-.92.75,1.31,1.31,0,0,0,.08,1.2,3.91,3.91,0,0,1,.47,1.11c0,.11,0,.21.06.32l-.06,0a1.06,1.06,0,0,0-.2-.17l-.09-.06-2.47-2a1.3,1.3,0,0,0-.9-.23l-.14,0-19.3,4.3c-3.24.76-5.13,1.24-5.95,1.53a10,10,0,0,0-2.83,1.68,8.43,8.43,0,0,0-.76.69.88.88,0,0,0-.24-.19,1.63,1.63,0,0,0-.29-.23,1.18,1.18,0,0,0-.28-.22,1.09,1.09,0,0,0-.29-.23,1.27,1.27,0,0,0-1.09-.4l-.14,0-6.73,1.5a1.36,1.36,0,0,0-.92.76,1.32,1.32,0,0,0,.08,1.19,3.86,3.86,0,0,1,.47,1.11,7.55,7.55,0,0,1,.21,2.06L161.62,129l-5.91-9.59a1.32,1.32,0,0,0-.45-.43"/><path class="cls-1" d="M204.51,104.06a5.08,5.08,0,0,1,.63,1.49,9.19,9.19,0,0,1,.24,2.39l-.72,21.72a24.34,24.34,0,0,1-.26,3,13.6,13.6,0,0,1-.78,2.51l26-5.8.94-6a8.25,8.25,0,0,1-3,1.36L216,127.31l.26-8.15,10.17-2.27a7.39,7.39,0,0,1,3.61-.13l.21-6.27a10.65,10.65,0,0,1-2.82,1.08l-11,2.46.25-7.6L227.54,104a10.16,10.16,0,0,1,2-.3,6.2,6.2,0,0,1,1.67.25l-.56-5.74Zm-34.73,33a5.36,5.36,0,0,0,1.15,2.28,5.76,5.76,0,0,0,2.07,1.58,5.05,5.05,0,0,0,2.17.36,20.51,20.51,0,0,0,3.47-.54l9.27-2.07a4.78,4.78,0,0,0,2.48-1.14,4.68,4.68,0,0,0,1-2.5l.57,2.75,9.34-2.09a4.54,4.54,0,0,1-.65-1.49,9.9,9.9,0,0,1-.24-2.39l.31-9a20.93,20.93,0,0,1,.26-3,14.46,14.46,0,0,1,.77-2.5l-18.42,4.11-.18,5.68a11.3,11.3,0,0,1,3.4-1.3l2.83-.64-.18,5.09a6,6,0,0,1-.42,2.6,2.5,2.5,0,0,1-1.66.88l-3.75.84c-1.35.3-2.14,0-2.36-1a5.12,5.12,0,0,1,0-1.14l.53-15.7a3,3,0,0,1,.66-2.11,5.12,5.12,0,0,1,2.42-1l11.31-2.53a13.54,13.54,0,0,1,5.23-.37l-.73-5.73-19.29,4.31q-4.67,1.08-5.81,1.49a8.53,8.53,0,0,0-2.45,1.46,6.47,6.47,0,0,0-2,2.53,10.23,10.23,0,0,0-.68,3.68l-.53,15.47a13.51,13.51,0,0,0,.16,3.14m-63.53,11.46,13.83-3.08,1.31,2.91a14.58,14.58,0,0,1,.91,2.54,5.22,5.22,0,0,1-.2,2.47l13.89-3.1,6.43-1.44a4.68,4.68,0,0,1-.65-1.48,9.34,9.34,0,0,1-.22-2.4l.64-19.46,12.59,20.59,12.49-2.79.87-25.83a22.15,22.15,0,0,1,.26-3,14.22,14.22,0,0,1,.78-2.53l-6.73,1.5a5.26,5.26,0,0,1,.62,1.5,9.23,9.23,0,0,1,.24,2.39l-.65,19.89-12.9-20.94-13.18,2.94a5.31,5.31,0,0,1,.63,1.49,9.69,9.69,0,0,1,.24,2.39l-.72,21.72a22.71,22.71,0,0,1-.27,3,14.41,14.41,0,0,1-.69,2.28,6.25,6.25,0,0,1-1.45-1.4,17.45,17.45,0,0,1-1.5-2.83l-10.65-23.44-15.62,3.48a9.21,9.21,0,0,1,1.52.35,5.76,5.76,0,0,1,1.27.77L98.69,154.22a25,25,0,0,1-2.51,4.64,6.11,6.11,0,0,1-1.24-1,6.92,6.92,0,0,1-1-1.71L90,147.23l.76-.14A5.87,5.87,0,0,0,94.43,145,2.8,2.8,0,0,0,95,143.9a24.72,24.72,0,0,0,.23-2.58l.18-5.29a7.5,7.5,0,0,0-.17-2,4.92,4.92,0,0,0-1.26-2.25,6.13,6.13,0,0,0-2.32-1.57,4.83,4.83,0,0,0-2-.36,23.93,23.93,0,0,0-3.44.6l-22,4.92a5.1,5.1,0,0,1,.62,1.48,9.35,9.35,0,0,1,.24,2.4L64.31,161a21.22,21.22,0,0,1-.26,3,13.37,13.37,0,0,1-.78,2.51l13.2-2.95a5.26,5.26,0,0,1-.62-1.49,9.15,9.15,0,0,1-.24-2.39l.3-9.29,2.9-.64,5.26,12.11,11.84-2.64h0l7.92-1.77a4.12,4.12,0,0,1-.25-.71,4.62,4.62,0,0,1,.43-2.54Zm7-18.21,4.81,10.76-9.84,2.2ZM84,138.26l-.11,3.11a2.58,2.58,0,0,1-.49,1.68,3.79,3.79,0,0,1-1.85.79l-5.48,1.22.23-7.3L82,136.5c1.15-.25,1.81,0,2,.74a4.2,4.2,0,0,1,.08,1m143.41-.75a6.85,6.85,0,0,0-3.11-1.85c-1.16-.32-3.06-.19-5.72.4l-28.91,6.33a6.27,6.27,0,0,1,.78,1.88,11.92,11.92,0,0,1,.29,3l-1,27.33a26.29,26.29,0,0,1-.34,3.76,18.15,18.15,0,0,1-1,3.17l30.51-6.69a24.37,24.37,0,0,0,5.32-1.65,7.49,7.49,0,0,0,2.87-2.45,7.34,7.34,0,0,0,1.19-2.46,17.63,17.63,0,0,0,.4-3.67l.2-5.33a5.44,5.44,0,0,0-.13-1.46,4,4,0,0,0-2.44-3,10.33,10.33,0,0,0-4.7-.4,30.14,30.14,0,0,0,4.65-1.62,5.43,5.43,0,0,0,2.17-2.14,7.79,7.79,0,0,0,1-3.23,22.37,22.37,0,0,0-.16-6.6,7,7,0,0,0-1.9-3.34m-12.9,24.72-.16,4.2a5,5,0,0,1-.54,2.58,3.42,3.42,0,0,1-2,1l-7.77,1.7.36-10.3,6.79-1.49a4.33,4.33,0,0,1,2.31-.06,1.59,1.59,0,0,1,1,1.28,4.38,4.38,0,0,1,.06,1.09m.6-16.27-.12,3.47a5.81,5.81,0,0,1-.61,2.7,2.37,2.37,0,0,1-.87.76,14.63,14.63,0,0,1-2.08.57l-6.8,1.48.34-9.49,7.23-1.59q2.47-.54,2.85,1.17a3.41,3.41,0,0,1,.06.93m-29.33.24a18.53,18.53,0,0,1,1-3.17l-8.47,1.85a6.75,6.75,0,0,1,.78,1.91,11.2,11.2,0,0,1,.28,3l-.86,23.46a19.68,19.68,0,0,1-.14,2.36,2.8,2.8,0,0,1-.51,1,4.35,4.35,0,0,1-2.71,1.4l-11.33,2.48a6.44,6.44,0,0,1-2.91.19,1.79,1.79,0,0,1-1.08-1.48,6.66,6.66,0,0,1-.09-1.75l.83-22.08a27.8,27.8,0,0,1,.33-3.74,17.84,17.84,0,0,1,1-3.18l-16.63,3.65a6.41,6.41,0,0,1,.82,1.9,12,12,0,0,1,.28,3l-.88,23.29a15,15,0,0,0,.26,3.78,6.52,6.52,0,0,0,2.47,4,5.87,5.87,0,0,0,4.45,1c1.43-.18,2.55-.35,3.36-.53l21.6-4.73a12.63,12.63,0,0,0,2.11-.75,7.71,7.71,0,0,0,3.38-2.53,6.94,6.94,0,0,0,1.1-2.55,30.27,30.27,0,0,0,.38-4.47l.88-23.66a26,26,0,0,1,.35-3.75m-43,6.47-34.48,7.55L107,167.58a9.54,9.54,0,0,1,3.37-1.39l8-1.75-1,26a24.86,24.86,0,0,1-.36,3.78,17.49,17.49,0,0,1-1,3.14l16.62-3.64a6,6,0,0,1-.8-1.87,12,12,0,0,1-.27-3l1-27.56,7.58-1.66a7.7,7.7,0,0,1,3.41,0Z"/><path class="cls-1" d="M189.7,126v-.31l-2.83.64a11.32,11.32,0,0,0-3.12,1.15l0,.39a11.52,11.52,0,0,1,3.41-1.3Z"/><path class="cls-1" d="M201.31,123.55a21,21,0,0,1,.26-3,14,14,0,0,1,.78-2.5l-.39.09a13.23,13.23,0,0,0-.65,2.17,21,21,0,0,0-.26,3l-.3,9a9.52,9.52,0,0,0,.23,2.4,4.85,4.85,0,0,0,.65,1.48l-9.14,2,.06.28,9.34-2.08a4.86,4.86,0,0,1-.65-1.49,10,10,0,0,1-.24-2.39Z"/><path class="cls-1" d="M201.44,111.17a13.55,13.55,0,0,0-5.23.37l-11.3,2.53a5.17,5.17,0,0,0-2.43,1,3.12,3.12,0,0,0-.66,2.12l-.52,15.69a4.24,4.24,0,0,0,0,1.15,1.4,1.4,0,0,0,.54.87,1.66,1.66,0,0,1-.28-.63,4.64,4.64,0,0,1-.05-1.14l.52-15.71a3.06,3.06,0,0,1,.66-2.11,5.12,5.12,0,0,1,2.42-1l11.31-2.52a13.39,13.39,0,0,1,5.23-.38l-.73-5.72-.22,0Z"/><polygon class="cls-1" points="163.02 137.69 163.03 137.51 150.38 116.98 150.29 117 163.02 137.69"/><path class="cls-1" d="M168.77,114.93a20.74,20.74,0,0,0-.26,3l-.87,25.83-12.39,2.77.15.26L167.9,144l.87-25.84a20.44,20.44,0,0,1,.26-3,15,15,0,0,1,.77-2.53l-.38.08a13.06,13.06,0,0,0-.65,2.2"/><path class="cls-1" d="M191,138.23a4.17,4.17,0,0,0,.87-2l-.17-.78a4.6,4.6,0,0,1-1,2.5,4.78,4.78,0,0,1-2.47,1.14L179,141.2a19.53,19.53,0,0,1-3.47.54,4.93,4.93,0,0,1-2.17-.36,5.49,5.49,0,0,1-1.39-.89,5.77,5.77,0,0,0,1.65,1.13,5.08,5.08,0,0,0,2.17.37,20.36,20.36,0,0,0,3.47-.54l9.28-2.08a4.86,4.86,0,0,0,2.48-1.14"/><path class="cls-1" d="M133.18,146.34a17,17,0,0,0,1.5,2.83,6,6,0,0,0,.88,1,5.84,5.84,0,0,1-.62-.71,16.61,16.61,0,0,1-1.5-2.83L122.8,123.14l-.14,0Z"/><path class="cls-1" d="M204.41,172.17l.27-.06.35-10,6.8-1.48a4.42,4.42,0,0,1,2.3-.07,1.38,1.38,0,0,1,.32.17,1.34,1.34,0,0,0-.58-.41,4.43,4.43,0,0,0-2.31.06l-6.79,1.49Z"/><path class="cls-1" d="M142.4,148.05a9,9,0,0,1-.22-2.4l.63-19.29-.25-.41-.65,19.46a9.27,9.27,0,0,0,.23,2.39,4.6,4.6,0,0,0,.65,1.49l-6.35,1.42s0,.07,0,.11l-.11-.08-13.48,3-.09.32,13.9-3.1,6.43-1.44a4.78,4.78,0,0,1-.65-1.48"/><path class="cls-1" d="M212.6,144.32l-7.22,1.59L205,155.4l.27-.05.32-9.2,7.23-1.58a2.81,2.81,0,0,1,2.24.18c-.45-.55-1.28-.69-2.5-.43"/><polygon class="cls-1" points="113.86 131.19 113.67 130.77 108.64 143.73 109.02 143.65 113.86 131.19"/><path class="cls-1" d="M108.69,127a4.58,4.58,0,0,1,1,.56v0a6.19,6.19,0,0,0-1.27-.77,6.9,6.9,0,0,0-.78-.21l-.47.1a8,8,0,0,1,1.51.36"/><path class="cls-1" d="M161,181a2.48,2.48,0,0,1-.49-1.07,7,7,0,0,1-.09-1.74l.83-22.08a27.48,27.48,0,0,1,.33-3.74,17.6,17.6,0,0,1,1-3.18l-.38.08a17.49,17.49,0,0,0-.85,2.85,27.82,27.82,0,0,0-.33,3.75l-.83,22.07a6.66,6.66,0,0,0,.09,1.75A2,2,0,0,0,161,181"/><path class="cls-1" d="M94.29,132.26a4.92,4.92,0,0,1,1.26,2.25,7.54,7.54,0,0,1,.17,2l-.18,5.3c-.08,1.37-.16,2.23-.22,2.57a2.84,2.84,0,0,1-.53,1.08,5.83,5.83,0,0,1-3.67,2.11c-.18,0-.44.09-.75.15l3.93,8.88a6.47,6.47,0,0,0,1,1.71,3.45,3.45,0,0,0,.43.42l-.17-.17a6.82,6.82,0,0,1-1-1.71l-3.94-8.89c.32-.06.58-.1.77-.15a5.86,5.86,0,0,0,3.67-2.11,2.77,2.77,0,0,0,.51-1.08A24.1,24.1,0,0,0,95.8,142l.18-5.3a7.42,7.42,0,0,0-.17-2,4.9,4.9,0,0,0-1.26-2.26c-.15-.16-.31-.31-.47-.45l.21.21"/><path class="cls-1" d="M186.44,146.91a19.85,19.85,0,0,1,1-3.18l-.38.09a17.08,17.08,0,0,0-.86,2.85,24.6,24.6,0,0,0-.34,3.75L185,174.07a30.5,30.5,0,0,1-.37,4.47,7,7,0,0,1-1.11,2.54,7.68,7.68,0,0,1-3.37,2.54,11.72,11.72,0,0,1-2.12.74l-21.6,4.74c-.81.18-1.93.36-3.35.53a5.92,5.92,0,0,1-4.46-1c-.14-.11-.28-.22-.4-.33a5.2,5.2,0,0,0,.66.57,6,6,0,0,0,4.46,1c1.42-.18,2.54-.36,3.35-.54l21.6-4.73a11.47,11.47,0,0,0,2.11-.75,7.64,7.64,0,0,0,3.38-2.53,7.14,7.14,0,0,0,1.11-2.55,30.5,30.5,0,0,0,.37-4.47l.88-23.66a27.19,27.19,0,0,1,.35-3.74"/><path class="cls-1" d="M228.07,156.21a4.16,4.16,0,0,1,1.09,2.09,5.76,5.76,0,0,1,.12,1.44l-.2,5.34a18.49,18.49,0,0,1-.39,3.67,7.61,7.61,0,0,1-1.2,2.47,7.52,7.52,0,0,1-2.86,2.44,24.13,24.13,0,0,1-5.33,1.65l-30.12,6.61-.12.32,30.51-6.68a24.74,24.74,0,0,0,5.32-1.65A8,8,0,0,0,229,169a18.47,18.47,0,0,0,.39-3.66l.2-5.34a5.8,5.8,0,0,0-.12-1.45,4.11,4.11,0,0,0-1.35-2.33"/><path class="cls-1" d="M230,129.82l-25.61,5.72-.12.33,26-5.8.95-6a4,4,0,0,1-.34.23Z"/><path class="cls-1" d="M231.05,99l.53,5.45a6.32,6.32,0,0,0-1.68-.25,11,11,0,0,0-2,.3l-10.85,2.43-.26,7.59.28-.06.23-7.29,10.86-2.43a11.1,11.1,0,0,1,2-.3,6.32,6.32,0,0,1,1.68.25l-.56-5.74Z"/><path class="cls-1" d="M230.41,117.23a7.31,7.31,0,0,0-3.62.13l-10.16,2.27-.27,8.14.27-.06.26-7.84,10.16-2.27a7.31,7.31,0,0,1,3.62-.13l.2-6.27-.27.15Z"/><path class="cls-1" d="M228.07,138.22c-.14-.15-.28-.27-.42-.4l.16.16a6.83,6.83,0,0,1,1.9,3.33,21.71,21.71,0,0,1,.16,6.6,7.73,7.73,0,0,1-1,3.24,5.47,5.47,0,0,1-2.16,2.14A30.3,30.3,0,0,1,222,154.9c.47,0,.91-.06,1.33-.07a24.7,24.7,0,0,0,3.59-1.3,5.47,5.47,0,0,0,2.16-2.14,7.75,7.75,0,0,0,1-3.23,22.29,22.29,0,0,0-.17-6.6,6.89,6.89,0,0,0-1.9-3.34"/><path class="cls-1" d="M143.41,153.37l-.22,0,.77,6.65a7.71,7.71,0,0,0-3.41,0L133,161.77l-1,27.56a11.43,11.43,0,0,0,.26,3,6.07,6.07,0,0,0,.81,1.88l-16.24,3.55c0,.11-.08.22-.13.33l16.63-3.64a6.38,6.38,0,0,1-.81-1.87,11.58,11.58,0,0,1-.26-3l1-27.55,7.58-1.66a7.71,7.71,0,0,1,3.41,0Z"/><path class="cls-1" d="M118.68,164.9l-8,1.75a9.75,9.75,0,0,0-3,1.17l-.09.46a9.7,9.7,0,0,1,3.37-1.39l7.72-1.69Z"/><path class="cls-1" d="M106.88,149.23l13.69-3.06-.12-.27L106.62,149l-2.25,5.67a4.63,4.63,0,0,0-.43,2.54,5.24,5.24,0,0,0,.25.71l-7.39,1.65h0l-.51.11-11.71,2.62.12.27,11.85-2.65h0l7.91-1.78a5.76,5.76,0,0,1-.25-.71,4.72,4.72,0,0,1,.43-2.54Z"/></svg>