<?xml version="1.0" encoding="utf-8"?>
<!-- Generator: Adobe Illustrator 26.0.0, SVG Export Plug-In . SVG Version: 6.00 Build 0)  -->
<svg version="1.1" id="Layer_1" xmlns="http://www.w3.org/2000/svg" xmlns:xlink="http://www.w3.org/1999/xlink" x="0px" y="0px"
	 viewBox="0 0 700 700" style="enable-background:new 0 0 700 700;" xml:space="preserve">
<style type="text/css">
	.st0{fill:#001F60;}
	.st1{fill:#ED1C24;}
	.st2{fill:#FFFFFF;}
</style>
<g>
	<g>
		<path class="st0" d="M512.9,515.7h-2.2v3.1h2.2c1.1,0,1.6-0.8,1.6-1.5C514.4,516.5,514,515.7,512.9,515.7z M512,509.1
			c-5.7,0-10,3.9-10,10.1c0,6.1,4.3,10.1,10,10.1c5.6,0,10-4,10-10.1C522.1,513,517.7,509.1,512,509.1z M514.7,525.8l-2.4-4.2h-1.6
			v4.2h-3.1v-13h4.9c3.3,0,5.2,1.8,5.2,4.5c0,1.8-0.8,3.1-2.3,3.8l2.9,4.8H514.7z"/>
		<g>
			<g>
				<g>
					<path class="st1" d="M363.7,322.6c-2.1-6.3-7.1-6.8-7.1-6.8S361,318.5,363.7,322.6z"/>
					<path class="st1" d="M361.4,277.4c0,0-2.4-2.9-10.9-1.9l4.3,1C356.7,277.2,358.3,276.6,361.4,277.4z"/>
					<path class="st1" d="M353.9,311.7c0,0,5.1,0.6,7.4,1.4C358,310.1,353.9,311.7,353.9,311.7z"/>
					<path class="st1" d="M330.1,343.1c14-5.5,8.9-11.2,8.9-11.2c1.5,6.8-6.4,8.8-9.8,11.1c-2.1,1.5-3.2,5.8-3.5,9.3
						C325.8,352.3,327.7,345,330.1,343.1z"/>
					<path class="st1" d="M324.4,275.1c4.1,0.2,14.5-0.1,16.4-0.3c1.1-0.1,4.2,0,6.9,0.3c0,0,0.5-0.5-5.6-1.5
						c-6-1-12.4,0.8-17.6,0.2c-4.6,0.1-6.8,2.9-6.8,2.9C319.1,276.1,322.2,275,324.4,275.1z"/>
					<path class="st1" d="M387.4,314c0.4,1.9,1.6,2.1,3.5,2.4c0.4,0.1,0.6,0,0.4-0.1c-1.4-0.2-2.3-0.4-2.7-1.9
						c-0.3-1.5,1.7-1.9,1.7-1.9c0.9-0.1,1.2,0.3,1.4,0.4c-0.2-1-0.2-1.6-2.1-1.4C389.6,311.6,387,312.1,387.4,314z"/>
					<path class="st1" d="M307.3,323c1.8,0.2,3.7,2.1,5.8,4.6c3.9,2.6,5.2,3.6,7,4.6c1.8,1,5.9,4.4,5.9,4.4s-2.8-2.2-5.4-4.9
						c-2.6-2.7-5.3-2.7-7.1-5.1c-1.8-2.4-4.3-4.3-6.2-4.3c-1.1,0-3.1-0.3-5-1.3C303.8,322,306.4,322.9,307.3,323z"/>
					<path class="st1" d="M314.9,313.7c0,0,10,3.9,15.4,12.1c-1.3-2-3.8-5.9-5.9-7.7C320.7,315.1,314.9,313.7,314.9,313.7z"/>
					<path class="st1" d="M333.1,328.6c8.7,7.7-6.5,12.4-6.5,12.4C340.7,337.4,338.5,331.8,333.1,328.6z"/>
					<path class="st1" d="M383.2,311.7c-8.1,0.2-10.2,1.9-10.2,1.9S386.1,311.9,383.2,311.7z"/>
					<path class="st1" d="M310.7,317c-1.4,1.1-5.2-0.7-5.2-0.7c0.6,1.1,1.8,2.2,4.6,2c0,0,3.6,7.5,6.9,7.5
						C312.7,322.7,310.7,317,310.7,317z"/>
					<path class="st1" d="M323.2,326.2c0,0,6,0,7.3,6.5c0,0-0.2,1.2-0.3,2c0-0.5-0.7-1.9-0.4-1.9c0,0-1.1-4.8-6.3-5.8l-4.1-0.6
						L323.2,326.2z"/>
					<path class="st1" d="M323.8,315.4c1.7,3.5,4.9,2.3,4.9,2.3c-5.2-0.5-4.6-5.8-4.6-5.8C323.5,312.5,322.9,313.4,323.8,315.4z"/>
					<path class="st1" d="M383.5,277.5c-4.8,0-7.7,0.5-11.6-0.6c-3.9-1.1-8.3,0.9-8.3,0.9c2.3,0.2,4.7-0.2,8.1,0.2
						C376.4,278.5,380.2,279.2,383.5,277.5z"/>
					<path class="st1" d="M438.8,291c1.4-0.6,5.9-3.2,7-4.5c1.5-1.5,15.6,1.7,15.6,1.7c-4.4-2-10.8-4.2-15.7-3c0,0-6.7,4.6-7.6,4.8
						c-0.8,0.2-3.6,3.1-6.3,5.6C431.8,295.7,436.2,292.1,438.8,291z"/>
					<path class="st1" d="M448.5,288.7c8.9-2.6,18.8,4.2,18.8,4.2c-5.5-3.6-14.2-4.6-18.2-3.5c-2.1,0.5-12,4.8-16.7,6.9
						C432.4,296.3,442.6,290.4,448.5,288.7z"/>
					<path class="st1" d="M445.8,302.6l-2.1-2.3c0,0-3.3,1.5-5.6,2.8c-2.2,1.3-9.8,2.2-13.9,3.7c-4.3,1.6-8.6,3.9-8.6,3.9
						s3.8-1.1,8.7-2.8c4.9-1.7,13.5-3.6,14.9-2.9c1.3,0.7-0.3-2.1,2.4-1.3c2.7,0.8,1.1-1.3,0.7-2.2
						C441.8,300.5,445.8,302.6,445.8,302.6z"/>
					<path class="st1" d="M452.2,274.7c0,0-1.8,5.7-5.6,7.8c0,0,15.2,1.4,19.9,8.3c-3.9-8.7-16.8-9.3-16.8-9.3
						C451.9,278.9,452.2,274.7,452.2,274.7z"/>
					<path class="st1" d="M450.6,292.7c6.4-1,19.3,3.7,19.3,3.7s-10.8-6.7-19.7-4.7c0,0-12.1,4.7-22,10
						C428.1,301.7,447.5,292.8,450.6,292.7z"/>
					<path class="st1" d="M449.1,271.6c-1.8,0.6-2.5,3.7-2.6,4.8c-0.1,1.2-4.6,6.4-4.6,6.4s1.8-1,3.9-2.4c0,0,0.8-0.7,1.9-3.9
						c1-3.1,2.2-4.2,2.2-4.2c2.5-0.9,3.6-3.1,3.6-3.1c2.9-0.2,6.8-1.5,8.1-2.2c1.2-0.7,0.9-4,0.9-4s-0.4,1.8-1.6,3.1
						c-1.3,1.3-7.4,1.8-7.4,1.8S450.9,271,449.1,271.6z"/>
					<path class="st1" d="M423.2,254.5l6-6l-0.9,3.9l6.7-6.4l-1.8,4.1l7.4-6.7l-1.2,3.2l5.5-4.8l0.9,2.3l1.2-6.1l-5.3,5.1l0.5-3
						l-5.9,6l0.6-3.2l-6.9,6.4l0.5-3.8l-6.5,6.5l-0.5-2.2l-7.5,8.1l-0.7,0.2l-0.6,1.9c0,0,7.1-5.7,8.2-7.5L423.2,254.5z"/>
					<path class="st1" d="M456.8,262.6c-1.1,1-1.7,1.6-1.7,1.6C455.4,264,456,263.4,456.8,262.6z"/>
					<path class="st1" d="M477.3,237.9c0,0-3.9,5.1-7.7,9.7c-3.1,3.7-9.5,11.5-12.8,15C460.9,258.6,471.6,248,477.3,237.9z"/>
					<path class="st1" d="M452.6,318.4c-4.4-5.6-10.7-8.6-10.7-8.6c12.8,8.1,13.6,19.7,13.6,19.7c-4.6-13.8-17.5-18.1-17.5-18.1
						c9.8,5.8,11.9,7.9,14.3,14.4c2.4,6.4,7.3,8.3,7.3,8.3c-2.4-2.2-2.8-5.4-2.8-5.4S455.6,322.3,452.6,318.4z"/>
					<path class="st1" d="M387.8,275.2c-2.4,1.2-3.4,1.8-1.7,1C386.3,276.1,386.9,275.7,387.8,275.2z"/>
					<path class="st1" d="M413.6,259.2c0,0-6.9,3.2-9.5,5.3c-2.2,1.8-12.2,8.2-16.3,10.7c4.7-2.5,14.3-7.5,16.9-9.6
						C407.9,263.1,411.5,260.6,413.6,259.2z"/>
					<path class="st1" d="M389.3,336.1c0,0,1.2-9.1-3.9-12.3c0,0,0.1-2.8-1.5-2.9c-1.6-0.1,0.8-1-2.4-2.5c0,0,1,1.1,0.8,2.4
						c-0.1,1.3,0.1,2,1.8,3C388.9,326.8,388.8,340.1,389.3,336.1z"/>
					<path class="st1" d="M388.7,317c-3.4,2.7-4.8-2.4-4.8-2.4c-0.1,0.9,0.5,6,5.1,3.4c1.6-0.3,3.5,2.6,3.5,2.6
						c0.3,1.5,1.2,3.2,2.2,4.3c-0.3-0.6-0.7-1.6-0.8-3.2C393.4,318.1,390,315.9,388.7,317z"/>
					<path class="st1" d="M420.2,312.2c7.1-2,7.1-2,7.1-2s-11.1,2.5-13.2,2.4c-2.2-0.1-3.6-0.5-3.6-0.5l-1,1.4l-8.1,3
						c0,0,5.1-1.4,10.3-2.6C414.7,313.1,417.5,312.9,420.2,312.2z"/>
					<path class="st1" d="M446.5,298.6c1.5,1.6,2.8,2,2.8,2c-2.4-3.7-3-5.5-9.6-1.9C439.7,298.7,445,297,446.5,298.6z"/>
					<path class="st1" d="M404.8,321.8c0,0,0.4,0.2,0.5-0.4c0.1-0.9,0.1-1.4,0.1-1.4s-4.5,0.4-8.3-0.7
						C397,319.3,400.6,320.4,404.8,321.8z"/>
					<path class="st1" d="M293.9,326.8c-9,4-11.2,3.1-11.2,3.1C284,332,290.1,328.7,293.9,326.8z"/>
					<path class="st1" d="M396.9,328.6c0.1-0.1,0.1-0.2,0.1-0.2C397,328.5,397,328.5,396.9,328.6z"/>
					<path class="st1" d="M412.5,320.4c1.8,1.1,4.5,0.1,2.9-2.5c-1.6-2.6,5.1-1.6,5.1-1.6s-7.4-1.5-6.5,1.2c1.3,4.3-1.8,0.7-4.4,1.3
						c-2.6,0.6-2.4,3.5-2.4,3.5C407.4,321.2,409.6,318.7,412.5,320.4z"/>
					<path class="st1" d="M402.6,326.3l-5.2-4c0,0,2.8,2.9,3.2,3.7c0.4,0.9-2.3,1.7-2.9,6.7c-0.6,5-4.7,9.9-5.9,11.4
						c-1.2,1.4-4.6,6.1-4.6,6.1s1.7-2,5.7-5.8c4-3.8,5.3-8.6,6-12.2C399.6,328.5,402.6,326.3,402.6,326.3z"/>
					<path class="st1" d="M336.4,323.5c-2.9-1.5-6.7-4.1-6.7-4.1c1.7,2.2,5,4.8,6.1,5.1c1.9,1,3.4,2.5,4.1,3.5
						C339.5,326.7,338.3,324.5,336.4,323.5z"/>
					<path class="st1" d="M392.1,338.4c4.4-8.1,4.2-9.1,4.8-9.9c-0.7,0.7-3.4,4.8-4.9,8.1c-1.7,3.7-4.4,6.9-5.9,8.9
						c-1.5,2-1.3,4.1-1.3,4.1c-0.1-0.5,0.3-1.5,1.7-3.2C388,344.5,390.5,341.4,392.1,338.4z"/>
					<path class="st1" d="M365.9,328.6c0.3,7.3-2,13.4-3.3,15.5c0,0,7.4-8.9,2.6-18.8C364.6,324.3,365.8,327.4,365.9,328.6z"/>
					<path class="st1" d="M384.8,343.7c1-4.1-1.6-9.7-2.7-11.4c-1.2-1.7-0.7-5-0.7-5c-1.6,3.1-1.6,3.4-0.3,5.5
						C384.4,338.4,384.8,343.7,384.8,343.7z"/>
					<path class="st1" d="M370.1,319c-6.1-1.2-7.5-3.1-7.5-3.1c3,4.7,10.1,2.3,14.8,8.7C377.4,324.7,377,321.2,370.1,319z"/>
					<path class="st1" d="M491.9,317c-3.6-3.1-3.7-3.4-13.4-6.1c-9.7-2.7-25.2-4.2-25.2-4.2s17.1,3.4,25.3,5.2
						c8.2,1.9,9,3.4,12.3,5.7c2.7,1.9,6,4.4,8.2,3.1C499.1,320.7,496.4,320.8,491.9,317z"/>
					<path class="st1" d="M423.4,332.6c-1.6-0.6-8.1-3.2-14.2-5.6l13.8,7.2c0,0,1.9,0.4,1.6,2.2c-0.4,1.8,1.6,5.1,1.6,5.1
						s-0.9-1.3-0.1-4.6C426.9,333.6,426.6,333.8,423.4,332.6z"/>
					<path class="st1" d="M454.5,311.5c0,0,6.8,2.2,13.3,2.9c7.6,0.8,17.7,5.5,25,8.1c-5.1-2.5-11.8-8-25.1-9
						C457.6,312.2,455.1,311.7,454.5,311.5z"/>
					<path class="st1" d="M480.2,229c-1.9-1.5-4.9,1.5-4.9,1.5c0.1-2.9,0.1-9,0.1-9l-4.3,7.7l-1-2.5l-1.5,2.9l-1.5-3.3
						c-1.3,4.7-5.7,9.2-5.7,9.2c-4.3,1.5-5.8,3.4-5.8,3.4l-7.9,1.8c0,0,2.3,0.6,4.5,0.1c3.9-0.9,3.9-0.9,3.9-0.9s2.9-2.7,6-3.5
						c2.2-0.6,5.3-6.6,5.3-6.6l0.1,2.3l2.4-2.1l0.6,2l3.5-5.8l-0.5,7.3c0,0,3-2.2,4.8-3c1.1-0.4,1,1.5-0.1,4.7
						C478.3,235.2,482.7,231.1,480.2,229z"/>
					<path class="st1" d="M357.9,328.6c-1.7,1.3-0.9,4.7-2.7,11.3c-1.8,6.6-4.8,18.5-4.8,18.5s6.6-7.6,10.2-11.8l-8.2,8.4
						c0,0,2.7-12.1,3.6-15C356.9,337.1,357.1,333,357.9,328.6z"/>
					<path class="st1" d="M427.8,329.4l-16.9-5.2c6.6,2.8,14.8,5.2,16.6,6.7c1.9,1.5,3,3,2.4,9.2c-0.3,2.2-2.2,3.2-2.2,3.2
						s2.6-0.5,3.6-3C432.3,337.7,432.4,330.9,427.8,329.4z"/>
					<path class="st1" d="M453.6,330.5c-4.9-7.8-10-10-12.3-11.6c-6.1-4-10.3-6.2-10.3-6.2l8.6,6.5c0,0,8.8,4.1,15.9,16.2
						c0,0-2.4-1-3.9-2.8C449,327.2,436,321,436,321l-12.8-6.1c0,0,7.5,4.3,12,7c4.3,2.5,12.4,6,15.1,11.2c2.3,4.4,9.1,4.8,10.6,5.3
						C459.9,338,457.3,336.5,453.6,330.5z"/>
					<path class="st1" d="M459.5,322.9c-2.1-7.9-4-10-7.7-12.8c-2.8-2.3-7.9-0.8-7.9-0.8c1.5-0.3,3.6-0.4,5.2,0.7
						c7.8,3.9,7.8,11.2,9.3,14c2,3.5,6.4,2.7,6.4,2.7S460.4,327,459.5,322.9z"/>
					<path class="st1" d="M407.3,328.8c-0.6,2,1.3,1.7-0.2,3.2c-1.4,1.5-2.1,6.4-3.2,8.3c-1.2,1.9-3.1,4.8-3.1,4.8s0.2-4.3,1.9-8.6
						c0.8-2.2,1.9-7.3,2.3-10.7c0-0.4-0.4-0.7-0.4-0.7s-1.2,6.8-3.9,13.8c-1,4.3-0.9,9.1-0.9,9.1l5.3-7.4c0,0,1.6-7.4,3.4-8.1
						c1.8-0.8-0.6-2.6,0.2-4.5C408.6,325,407.4,328.4,407.3,328.8z"/>
					<path class="st1" d="M355.2,327.1c-7.5-6.4-6.1-9.9-6.1-9.9c-2.8,0.6-4.7-4.6-4.7-4.6c-0.1,1,0,2.3,1.1,3.8
						c1,1.4,2.6,1.9,2.6,1.9s0,1.8,1.7,4C351.6,324.4,356.7,328.3,355.2,327.1z"/>
					<path class="st1" d="M315.3,312.2c0,0,6.6-1.9,10-1.5C320.6,308.8,315.3,312.2,315.3,312.2z"/>
					<path class="st1" d="M314.5,277.4c0,0-8-1.3-15.9,5.8C304.1,280.5,305.8,278.7,314.5,277.4z"/>
					<path class="st1" d="M298.8,317.5c0,0,1.7-2.3,6.2-3.6C299.9,313.3,298.8,317.5,298.8,317.5z"/>
					<path class="st1" d="M340.9,340.5c-6.9,3.1-9,7.4-9,7.4c-6.6,4.4-6.4,7.9-6.4,7.9s0.9-3.1,6.7-7.3c5.8-8.8,13.5-6.5,17.4-12.4
						C349.7,336.1,347.3,338.5,340.9,340.5z"/>
					<path class="st1" d="M276,296.9c5.1-4.8,10-8.8,17.8-11.5C280.2,286.7,276,296.9,276,296.9z"/>
					<path class="st1" d="M345.3,310.6c-4.2-3-8.4-0.4-10.1-0.8c-1.7-0.4-5.3,0.9-5.3,0.9s3.6-0.2,5.2,0
						C335.1,310.7,341.1,309.5,345.3,310.6z"/>
					<path class="st1" d="M340.1,314.7c0.4,1.7,4.3,4.5,4.3,4.5s1.8,4.3,3.3,5.9c2.7,2.5,3.5,9.2,3.7,7.5c0.3-3.9-1.3-6-2.6-7.7
						c-1.6-2.2-3.6-6.4-3.6-6.4s-3.4-2-4.3-4.4c-0.7-1.6-3.3-2.2-5.3-2.3C335.5,311.8,339.7,313,340.1,314.7z"/>
					<path class="st1" d="M294.4,324.3l-1.7-2.5C293.3,322.8,292.8,324.3,294.4,324.3z"/>
					<path class="st1" d="M296.4,328.4c-13.9,9.8-16.5,3.7-16.5,3.7s-0.3,4.7,6.9,2.3C291.7,332.9,298.3,327.1,296.4,328.4z"/>
					<path class="st1" d="M262.9,338.4c-0.4,0.9-7.1,4-7.1,4c2.9-0.2,7.7-2.9,7.7-2.9c3.6-0.2,6.7-1.9,11.1-4.2
						c3-1.4,5.6-4.6,5.6-4.6C269.1,338.3,262.9,338.4,262.9,338.4z"/>
					<path class="st1" d="M316.5,343.7l3.3-2.1l-6.3,1.2l4.4-2.2l-2.5,0.8c-3.6,1.3-8.9,3.5-8.9,3.5l9.6-2l-3.3,2.6
						c0,0,4.9-1.1,12-2.9L316.5,343.7z"/>
					<path class="st1" d="M303.5,329.1c-1.7-1.4-5.4-1.4-5.4-1.4c0.8,1.2,4,1.6,4.6,2.3c0,0,2,3.3,2,2.7
						C304.7,330.7,303.5,329.1,303.5,329.1z"/>
					<path class="st1" d="M308.7,332.2c1.1,2.6,5.6,7.8,5.6,7.8s-4.5-3.4-5.8-6.7c0,0-0.4-1.9-2.1-1.9
						C306.4,331.4,308.2,331,308.7,332.2z"/>
					<path class="st1" d="M288,322.9l2.4-1.8c-4.2,0.7-6.6,5.8-6.6,5.8S287.1,323.6,288,322.9z"/>
					<path class="st1" d="M274.3,298.3c0,0-24,1.8-32.6,26.9C241.7,325.2,250.5,302.8,274.3,298.3z"/>
					<path class="st1" d="M243.3,357.1c-1.5,1.1-1.6,4.2-4.4,6.4c-2.8,2.2-4.1,5.2-4.8,7.9c-0.8,2.7-5.9,2.2-9.7,12l0.7-3.8l3.4-7.2
						c0.8-2.3,13-21.9,13-21.9l-6.8,6l-5,5.4c0,0-0.5-4.2,5.2-13.4c5.7-9.2,6.2-20,6.2-20s-3.1,13.2-7.2,19
						c-4.1,5.8-5.8,15.7-5.8,15.7l-1.2,3.4c0,0,7.9-8,9.8-10c-1.9,2.5-9.3,14.9-9.7,17c-0.5,2.2-5,8.7-5,8.7l2-1.6l-1.6,5.8
						c0,0,3,0.2,4.2-4.4c1.3-4.6,5.5-5.8,7.8-8.4c2.3-2.6,1.6-5,5.8-9.4c2.6-2.7,3.6-4.3,4.4-6.2c0.5-1.2,2.2-2.4,2.2-4.2
						c4-3.6,4.5-7,6.3-9.2c0,0-5.6,6-7.6,8.6C245.3,353.2,244.7,356,243.3,357.1z"/>
					<path class="st1" d="M241.5,326.8c0,0,2.9,1.5,4.2,3.1c1.3,1.6,0.7,2.4,1.8,4.6c1.1,2.3,1.1,1.7,4.2,1.4c3-0.3,3.9,3.4,4,4.1
						l-0.6,1.5c0,0-0.9-4.9-3.5-4.5c-2.6,0.4-4.7,0.7-5.2-1.7c-0.5-2.4-0.7-3.9-1.9-5C243.4,329.2,241.5,326.8,241.5,326.8z"/>
					<path class="st1" d="M460.8,242.4c-1.8-0.5-4.2-0.6-5.6,0.7c1.4-0.7,3.2-0.5,4.7-0.1c2.7,0.8,7.3,3.8,5.2,8.5
						c-0.5,1-1,1.7-1.6,2.3c0.9-0.5,1.8-1.4,2.4-2.8C468.1,246.2,463.5,243.1,460.8,242.4z"/>
					<path class="st1" d="M455.4,253.4c0,0-2.6-2.1-2.4-6.4c0.1-1.4,0.5-2.3,1.2-3c-1.1,0.6-1.9,1.6-2,3.5c-0.2,4.3,2.4,6.4,2.4,6.4
						s4.8,3.5,8,0.7C459.4,256.3,455.4,253.4,455.4,253.4z"/>
					<path class="st1" d="M276.9,298.7c0,0,11.2,10.9,13.8,20.8C290.7,319.4,288.5,304.7,276.9,298.7z"/>
					<path class="st1" d="M295.3,285.6c0,0,1.9,12.3,10,26.7C305.4,312.3,295.1,299.9,295.3,285.6z"/>
					<path class="st1" d="M316.5,278.1c0,0,7.3,18.8,7.4,31C323.9,309.1,325.6,292.3,316.5,278.1z"/>
					<path class="st1" d="M349.7,276.2c0,0,3.1,19.9-5.2,33C344.4,309.2,354.8,297.4,349.7,276.2z"/>
					<path class="st1" d="M362.7,278.7c0,0,6.2,18.2,2.6,32.6C365.3,311.3,372,299.4,362.7,278.7z"/>
					<path class="st1" d="M384.8,310.8c0,0-0.2-3.4,1.3-13.1c1.5-9.7-0.9-18-0.9-18s3.5,9.6,2,17.7
						C385.7,305.4,384.8,310.8,384.8,310.8z"/>
					<path class="st1" d="M436,276.3l9-14.4l-6.9-0.6l3.9-6.9l-2.9,1.6l2-5.8l-5.3,9.1l3.7-2.4l-3.4,5.6l6.5,0.7l-10.8,16.6
						c0,0,9.2-5.9,11.6-3.7C443.4,276.2,440.5,273.6,436,276.3z"/>
					<path class="st1" d="M461.9,318.3c0,0,0.7,3.1,2.4,6.4C464.3,324.7,460.6,322.8,461.9,318.3z"/>
					<path class="st1" d="M405.1,340.7"/>
					<path class="st1" d="M395.5,312.5c0,0,6.2,1,15.9-3.2c9.7-4.2,14.1-8.7,14.1-8.7S408.4,312.3,395.5,312.5z"/>
				</g>
				<g>
					<path class="st0" d="M60.8,515.8l20.8-74.1c0,0,18.8-20.9,51.6-23.6l-5.8,19.1l30.9-2.7c8.2-0.7,14.4-2.7,18.7-5.9
						c4.3-3.2,6.5-7.3,6.6-12.3c0.1-3.6-1.6-5.9-4.6-7.7c-3-1.8-7.7-2.3-15-2.2c0,0-89.7-2.1-103.4,62.4c0,0-14.7-85.7,104.9-93.4
						c11.3-1,45.7-1.6,56.2,18.8c1.9,4.4,2.8,9.2,2.7,14.2c-0.2,10.1-5.6,31.1-33.2,38.8c7.3,1.9,13.3,5.3,17.8,10.1
						c4.5,4.8,6.7,11.3,6.6,19.5c-0.1,6.8-1.7,13.3-4.8,19.5c-3.1,6.2-7.8,11.7-14.1,16.5c-6.3,4.9-14.2,8.9-23.6,12.3
						c-9.5,3.3-20.6,5.5-33.3,6.6l-65.3,6C51,540.8,60.8,515.8,60.8,515.8z M144,495.7c8-0.7,14.3-2.8,18.8-6.2
						c4.5-3.5,6.8-7.7,6.9-12.6c0.2-8.3-6.5-11.8-20-10.6l-31.6,2.7l-8.8,29.8L144,495.7z"/>
					<g>
						<path class="st0" d="M366,506.9c-7.4,0.9-14,0.3-19.8-1.2c-5.9-1.5-10.8-3.9-14.8-7.2c-4-3.3-7.1-7.5-9.2-12.5
							c-2.2-5-3.2-10.7-3.1-17.2c0.1-7.1,1.5-14.2,4.4-21.4c2.8-7.2,6.9-13.7,12.2-19.6s11.6-10.9,19-15c7.4-4.1,15.7-6.5,24.9-7.4
							c7.4-0.7,13.7-0.2,19,1.5c5.3,1.7,9.7,4.2,13.1,7.5c3.4,3.3,5.9,7.3,7.5,11.9c1.6,4.6,2.4,9.6,2.3,14.7
							c-0.1,3.3-0.4,6.7-1.1,10.1c-0.7,3.4-1.7,6.7-3,9.9l-66.1,6.2c-7,21.8,46.8,19.7,65-3.1C416.2,464.3,416.3,500.8,366,506.9z
							 M389.3,446.7c0.6-1.8,1-3.6,1-5.2c0-3.3-1-6.1-3.2-8.3c-2.2-2.2-5.6-3.1-10.3-2.7s-9.1,2.3-13.4,5.6
							c-4.3,3.3-7.5,7.9-9.6,13.9L389.3,446.7z"/>
						<path class="st0" d="M467.8,500.6c-7.4,0.9-14,0.3-19.8-1.2c-5.9-1.5-10.8-3.9-14.8-7.2c-4-3.3-7.1-7.5-9.2-12.5
							c-2.1-5-3.2-10.7-3.1-17.2c0.1-7.1,1.5-14.2,4.4-21.4c2.8-7.2,6.9-13.7,12.2-19.6c5.3-5.9,11.6-10.9,19-15
							c7.4-4.1,15.7-6.5,24.9-7.4c7.4-0.7,13.7-0.2,19,1.5c5.3,1.7,9.7,4.2,13,7.5c3.4,3.3,5.9,7.3,7.5,12c1.6,4.6,2.4,9.5,2.3,14.7
							c0,3.3-0.4,6.7-1.1,10.1c-0.7,3.4-1.7,6.7-3,9.9l-66.1,6.2c-7,21.8,46.8,19.7,65-3.1C518,458,518.1,494.5,467.8,500.6z
							 M491.1,440.4c0.6-1.8,0.9-3.6,1-5.2c0-3.3-1-6.1-3.2-8.3c-2.2-2.2-5.6-3.1-10.3-2.7c-4.7,0.4-9.1,2.3-13.4,5.6
							c-4.3,3.3-7.5,7.9-9.6,13.9L491.1,440.4z"/>
						<g>
							<path class="st0" d="M524.4,480.8l12.5-44.2c0,0,6.9-16,35.2-20l-13.7,47.8l10-1c6.3-0.6,12.2-2.1,17.6-4.4
								c5.4-2.3,9.9-5.3,13.6-9.1c2.9-3,5.2-6.5,6.9-10.4c1.7-3.9,2.5-7.9,2.5-12c0-3.1-0.5-5.8-1.4-8c-0.9-2.2-2.3-4.1-4-5.6
								c-2.1-1.8-4.8-3-8.3-3.8c-53.4-5.7-71.4,34.8-71.4,34.8c7.3-59.2,61.7-60.9,61.7-60.9c10.6-1,19.3-0.7,26.2,1.1
								c6.9,1.8,12.4,4.4,16.5,8c7.9,6.7,11.8,16.4,11.8,29c0,7.8-1.5,15.2-4.5,22.4c-3,7.2-7.5,13.8-13.4,20
								c-6.6,6.8-14.6,12.3-24,16.5c-9.4,4.2-20.5,6.9-33.2,8.1l-26,2.5C519.2,494,524.4,480.8,524.4,480.8z"/>
						</g>
					</g>
					<path class="st0" d="M296.3,471.1l-1.7-2.2c0,0,27.4-7.6,27.8-35.5c0.5-31.3-35.2-26.1-59.4-20.2c0,0-66.1,16.3-40,65.3
						c0,0-0.1-35.3,47.3-43.5c0,0,21.4-5.1,21.2,6.1c-0.3,13.8-26.9,15.2-26.9,15.2l5.6-16.4c-28.4,4.4-36.1,20.9-36.1,20.9
						l-14.5,41.6c0,0-10.4,21.3,12.7,16l13.9-2.9l13.2-41.8l1.8,1.9l29.1,30.4c54.1,61.2,190.6,21.8,190.6,21.8
						C361.3,544.8,306.2,483.6,296.3,471.1z"/>
				</g>
				<g>
					<path class="st2" d="M61.6,512.2l20.8-74.1c0,0,18.8-21,51.6-23.6l-5.8,19.2l30.9-2.7c8.2-0.7,14.4-2.7,18.7-5.9
						c4.3-3.2,6.5-7.3,6.6-12.3c0.1-3.6-1.6-5.9-4.6-7.8c-3-1.8-7.7-2.3-15-2.2c0,0-89.7-2.1-103.4,62.4c0,0-14.7-85.7,104.9-93.4
						c11.3-1,45.7-1.7,56.3,18.8c1.9,4.5,2.8,9.2,2.7,14.2C225,415,219.6,436,192,443.6c7.3,1.9,13.3,5.3,17.8,10.1
						c4.5,4.8,6.7,11.3,6.6,19.5c-0.1,6.8-1.7,13.3-4.8,19.5c-3.1,6.2-7.8,11.7-14.1,16.5c-6.3,4.9-14.2,8.9-23.6,12.3
						c-9.5,3.3-20.6,5.5-33.3,6.6l-65.2,6C51.8,537.3,61.6,512.2,61.6,512.2z M144.8,492.1c8-0.7,14.3-2.8,18.8-6.3
						c4.5-3.5,6.8-7.7,6.9-12.6c0.2-8.3-6.5-11.8-20-10.6l-31.6,2.7l-8.8,29.8L144.8,492.1z"/>
					<g>
						<path class="st2" d="M366.8,503.3c-7.4,0.9-14,0.3-19.8-1.2c-5.9-1.5-10.8-3.9-14.8-7.2c-4-3.3-7.1-7.5-9.2-12.5
							c-2.2-5-3.2-10.7-3.1-17.2c0.1-7.1,1.6-14.2,4.4-21.4c2.8-7.2,6.9-13.7,12.2-19.6c5.3-5.9,11.6-10.9,19-14.9
							c7.4-4.1,15.7-6.5,24.9-7.4c7.4-0.7,13.7-0.2,19,1.5c5.3,1.7,9.7,4.2,13.1,7.5c3.4,3.3,5.9,7.3,7.5,12
							c1.6,4.6,2.4,9.5,2.3,14.7c0,3.3-0.4,6.7-1.1,10.1c-0.7,3.4-1.7,6.7-3,9.9l-66,6.2c-7,21.8,46.8,19.7,65-3.1
							C416.9,460.7,417,497.2,366.8,503.3z M390.1,443.1c0.6-1.8,1-3.6,1-5.2c0-3.3-1-6.1-3.2-8.3s-5.6-3.1-10.3-2.7
							c-4.7,0.4-9.1,2.3-13.4,5.6c-4.3,3.3-7.5,7.9-9.6,13.9L390.1,443.1z"/>
						<path class="st2" d="M468.6,497.1c-7.4,0.9-14,0.3-19.8-1.2c-5.9-1.5-10.8-3.9-14.8-7.2c-4-3.4-7.1-7.5-9.2-12.5
							c-2.1-5-3.2-10.7-3.1-17.2c0.1-7.1,1.5-14.2,4.4-21.4c2.8-7.2,6.9-13.7,12.2-19.6c5.3-5.9,11.6-10.9,19-15
							c7.4-4,15.7-6.5,24.9-7.4c7.4-0.7,13.7-0.2,19,1.5c5.3,1.7,9.7,4.2,13.1,7.5c3.4,3.3,5.9,7.3,7.5,12c1.6,4.6,2.4,9.5,2.3,14.7
							c0,3.3-0.4,6.7-1.1,10.1c-0.7,3.4-1.7,6.7-3,9.9l-66.1,6.2c-7,21.8,46.8,19.7,65-3.1C518.7,454.4,518.8,491,468.6,497.1z
							 M491.9,436.8c0.6-1.8,0.9-3.6,1-5.2c0-3.3-1-6.1-3.2-8.3c-2.2-2.2-5.6-3.1-10.3-2.7c-4.7,0.4-9.1,2.3-13.4,5.6
							c-4.3,3.3-7.5,7.9-9.6,13.9L491.9,436.8z"/>
						<g>
							<path class="st2" d="M525.2,477.2l12.5-44.2c0,0,6.9-16,35.2-20l-13.7,47.8l10-1c6.3-0.6,12.2-2.1,17.6-4.4
								c5.4-2.3,9.9-5.3,13.6-9.1c2.9-3,5.2-6.5,6.9-10.4c1.7-3.9,2.5-7.9,2.5-12c0-3.1-0.5-5.8-1.4-8c-0.9-2.2-2.3-4.1-4-5.6
								c-2.1-1.8-4.8-3-8.3-3.8c-53.4-5.7-71.4,34.9-71.4,34.9c7.3-59.2,61.6-60.9,61.6-60.9c10.6-1,19.3-0.7,26.2,1.1
								c6.9,1.8,12.4,4.4,16.5,8c7.9,6.7,11.8,16.4,11.8,29c0,7.7-1.5,15.2-4.5,22.4c-3,7.1-7.5,13.8-13.4,20
								c-6.5,6.8-14.6,12.3-24,16.5c-9.5,4.2-20.5,6.9-33.2,8.1l-26,2.5C520,490.4,525.2,477.2,525.2,477.2z"/>
						</g>
					</g>
					<path class="st2" d="M297.1,467.5l-1.7-2.2c0,0,27.4-7.6,27.8-35.5c0.5-31.3-35.2-26.1-59.4-20.2c0,0-66.1,16.3-40,65.3
						c0,0-0.2-35.3,47.3-43.5c0,0,21.4-5.1,21.2,6.1c-0.3,13.8-27,15.2-27,15.2l5.6-16.5c-28.4,4.4-36.1,20.9-36.1,20.9l-14.5,41.5
						c0,0-10.4,21.3,12.7,16l13.9-3l13.2-41.8l1.8,1.9l29.1,30.3c54.1,61.2,190.6,21.8,190.6,21.8C362,541.2,307,480,297.1,467.5z"
						/>
				</g>
				<g>
					<path class="st1" d="M62.1,510.5l20.8-74.1c0,0,18.8-20.9,51.6-23.6l-5.8,19.1l30.9-2.7c8.2-0.7,14.4-2.7,18.7-5.9
						c4.3-3.2,6.5-7.3,6.6-12.3c0.1-3.6-1.6-5.9-4.6-7.7c-3-1.8-7.7-2.3-15-2.3c0,0-89.7-2.1-103.4,62.4c0,0-14.7-85.7,104.9-93.4
						c11.3-1,45.7-1.7,56.3,18.8c1.9,4.5,2.8,9.2,2.7,14.2c-0.2,10.1-5.6,31.1-33.2,38.7c7.4,1.9,13.3,5.3,17.8,10.1
						c4.5,4.8,6.7,11.3,6.6,19.5c-0.1,6.8-1.7,13.3-4.8,19.5c-3.1,6.2-7.8,11.7-14.1,16.5c-6.3,4.9-14.2,8.9-23.6,12.2
						c-9.5,3.3-20.6,5.5-33.3,6.6l-65.2,6C52.3,535.5,62.1,510.5,62.1,510.5z M145.3,490.4c8-0.7,14.3-2.8,18.8-6.2
						c4.5-3.5,6.8-7.7,6.9-12.6c0.2-8.3-6.5-11.8-20-10.6l-31.6,2.7l-8.8,29.8L145.3,490.4z"/>
					<g>
						<path class="st1" d="M367.3,501.6c-7.4,0.9-14,0.3-19.8-1.2c-5.9-1.5-10.8-3.9-14.8-7.2c-4-3.3-7.1-7.5-9.2-12.5
							c-2.1-5-3.2-10.7-3.1-17.2c0.1-7.1,1.6-14.2,4.4-21.4c2.8-7.2,6.9-13.7,12.2-19.6c5.3-5.9,11.6-10.9,19-15
							c7.4-4.1,15.7-6.5,24.9-7.4c7.4-0.7,13.7-0.2,19,1.5c5.3,1.7,9.7,4.2,13,7.5c3.4,3.3,5.9,7.3,7.5,11.9
							c1.6,4.6,2.4,9.6,2.3,14.7c0,3.3-0.4,6.7-1.1,10.1c-0.7,3.4-1.7,6.7-3,9.9l-66.1,6.2c-7,21.8,46.8,19.7,65-3.1
							C417.5,458.9,417.6,495.5,367.3,501.6z M390.6,441.4c0.6-1.8,1-3.6,1-5.2c0-3.3-1-6.1-3.2-8.3c-2.2-2.2-5.6-3.1-10.3-2.7
							c-4.7,0.4-9.1,2.3-13.4,5.6c-4.3,3.3-7.5,7.9-9.6,13.9L390.6,441.4z"/>
						<path class="st1" d="M469.1,495.3c-7.4,0.9-14,0.3-19.8-1.2c-5.9-1.5-10.8-3.9-14.8-7.2c-4-3.3-7.1-7.5-9.2-12.5
							c-2.1-5-3.2-10.7-3.1-17.2c0.1-7.1,1.5-14.2,4.4-21.4c2.8-7.2,6.9-13.7,12.2-19.6c5.3-5.9,11.6-10.9,19-14.9
							c7.4-4.1,15.7-6.5,24.9-7.4c7.4-0.7,13.7-0.2,19,1.5c5.3,1.7,9.7,4.2,13.1,7.5c3.4,3.3,5.9,7.3,7.5,12
							c1.6,4.6,2.4,9.5,2.3,14.7c0,3.3-0.4,6.7-1.1,10.1c-0.7,3.4-1.7,6.7-3,9.9l-66.1,6.2c-7,21.8,46.8,19.7,65-3.1
							C519.2,452.7,519.3,489.2,469.1,495.3z M492.4,435.1c0.6-1.8,1-3.6,1-5.2c0-3.3-1-6.1-3.2-8.3c-2.2-2.2-5.6-3.1-10.3-2.7
							c-4.7,0.4-9.1,2.3-13.4,5.6c-4.3,3.3-7.5,7.9-9.6,13.9L492.4,435.1z"/>
						<g>
							<path class="st1" d="M525.7,475.4l12.5-44.2c0,0,6.9-16,35.2-20l-13.7,47.8l10-1c6.3-0.6,12.2-2.1,17.6-4.4
								c5.4-2.3,9.9-5.3,13.6-9.1c2.9-3,5.2-6.5,6.9-10.4c1.7-3.9,2.5-7.9,2.5-12c0-3.1-0.5-5.8-1.4-8c-0.9-2.2-2.3-4.1-4-5.6
								c-2.1-1.8-4.8-3-8.3-3.8c-53.4-5.7-71.4,34.8-71.4,34.8c7.3-59.2,61.6-60.9,61.6-60.9c10.6-1,19.3-0.7,26.2,1.1
								c6.8,1.8,12.4,4.4,16.5,8c7.9,6.7,11.8,16.4,11.8,29c0,7.7-1.5,15.2-4.5,22.4c-3,7.2-7.5,13.8-13.4,20
								c-6.5,6.8-14.5,12.3-24,16.5c-9.4,4.2-20.5,6.9-33.2,8.1l-25.9,2.5C520.5,488.7,525.7,475.4,525.7,475.4z"/>
						</g>
					</g>
					<path class="st1" d="M297.6,465.8l-1.7-2.2c0,0,27.4-7.6,27.8-35.5c0.5-31.3-35.2-26.1-59.4-20.2c0,0-66.1,16.3-40,65.3
						c0,0-0.2-35.3,47.3-43.5c0,0,21.4-5.1,21.2,6.1c-0.3,13.8-26.9,15.2-26.9,15.2l5.6-16.4c-28.5,4.4-36.1,20.9-36.1,20.9
						l-14.5,41.5c0,0-10.4,21.3,12.7,16l13.9-3l13.2-41.8l1.8,1.9l29.1,30.4c54.1,61.2,190.6,21.8,190.6,21.8
						C362.6,539.5,307.5,478.3,297.6,465.8z"/>
				</g>
				<path class="st0" d="M266.5,402.8c-5.3,0.4-10.1,0-14.5-1.4c-4.4-1.4-8.2-3.5-11.3-6.4l8.8-10.7c5.7,4.5,11.4,6.4,17.2,6
					c1.8-0.1,3.2-0.6,4.3-1.4c1.1-0.8,1.6-1.8,1.5-3.1c0-0.5-0.2-1-0.5-1.4c-0.3-0.4-0.8-0.8-1.5-1.2c-0.7-0.4-1.7-0.8-2.8-1.2
					c-1.2-0.4-2.8-1-4.7-1.5c-2.2-0.6-4.2-1.4-6-2.1c-1.8-0.7-3.3-1.7-4.6-2.7c-1.3-1.1-2.3-2.3-3.1-3.7c-0.8-1.4-1.2-3.2-1.4-5.2
					c-0.2-2.7,0.2-5.2,1.1-7.5c1-2.4,2.4-4.4,4.3-6.2c1.9-1.8,4.2-3.2,6.9-4.4c2.7-1.1,5.7-1.8,9-2.1c4.8-0.4,9.1,0,12.8,1.1
					c3.8,1.1,7.1,2.8,9.9,5.1l-8.4,11.1c-2.2-1.6-4.5-2.9-6.9-3.8c-2.4-0.9-5-1.2-7.8-1c-1.8,0.1-3.2,0.6-4.2,1.5
					c-1,0.8-1.5,1.8-1.4,2.9c0.1,0.6,0.2,1,0.5,1.4c0.3,0.4,0.8,0.7,1.5,1.1c0.7,0.4,1.6,0.8,2.8,1.2c1.2,0.4,2.8,0.9,4.7,1.5
					c2.1,0.6,4.1,1.3,5.9,2.1c1.8,0.8,3.4,1.7,4.7,2.8c1.3,1.1,2.4,2.3,3.2,3.8c0.8,1.5,1.3,3.2,1.5,5.2c0.2,2.8-0.1,5.3-1.1,7.7
					c-0.9,2.4-2.4,4.5-4.3,6.3c-1.9,1.8-4.2,3.3-7,4.4C272.9,401.9,269.8,402.6,266.5,402.8z"/>
				<path class="st0" d="M306,357.6l-16.2,1.3l2.5-13.4l47.2-3.8l-2.4,13.4l-16.2,1.3l-7.6,41.7l-15,1.2L306,357.6z"/>
				<path class="st0" d="M339.3,341.7l20.3-1.7c4.5-0.4,8.3-0.2,11.4,0.5c3.1,0.7,5.6,1.9,7.6,3.6c1.5,1.3,2.7,2.9,3.5,4.7
					c0.8,1.8,1.3,3.8,1.5,6c0.4,4.5-0.6,8.6-3,12.1c-2.3,3.6-6.2,6.3-11.6,8.3l9.8,17.5l-16.5,1.3l-8.5-15.7l-6.6,0.5l-3.1,16.7
					l-15,1.2L339.3,341.7z M358,366.2c3.4-0.3,6-1.2,7.9-2.7c1.9-1.5,2.7-3.4,2.5-5.7c-0.1-1.4-0.7-2.6-1.7-3.5
					c-1.3-1.1-3.6-1.6-6.8-1.3l-8.1,0.6l-2.5,13.3L358,366.2z"/>
				<path class="st0" d="M445.2,333.1l13.9-1.1l16.4,28.8l5.7-30.6L496,329l-10.1,55.1l-13.1,1.1l-17.1-29.9l-5.8,31.7l-14.9,1.2
					L445.2,333.1z"/>
				<path class="st0" d="M519.9,382.4c-3.2,0.3-6.4,0.1-9.6-0.6c-3.2-0.7-6.1-1.9-8.7-3.6c-2.6-1.8-4.8-4.1-6.5-6.9
					c-1.7-2.9-2.8-6.4-3.1-10.5c-0.3-4.3,0.2-8.5,1.5-12.5c1.4-4,3.5-7.6,6.3-10.9c2.8-3.2,6.3-5.9,10.4-8c4.1-2.1,8.7-3.3,13.9-3.8
					c2.7-0.2,5.2-0.2,7.6,0.2c2.4,0.3,4.5,0.8,6.5,1.5c1.9,0.7,3.7,1.6,5.2,2.5c1.5,1,2.8,2,3.8,3.2l-9.2,10.5
					c-1.7-1.5-3.7-2.6-6-3.5c-2.3-0.9-4.9-1.2-7.8-1c-2.7,0.2-5.2,0.9-7.3,2.1c-2.2,1.2-4,2.6-5.4,4.4c-1.5,1.8-2.6,3.9-3.3,6.2
					c-0.7,2.3-1,4.7-0.8,7.2c0.2,1.9,0.6,3.6,1.4,5c0.8,1.4,1.7,2.5,2.9,3.4c1.2,0.9,2.5,1.5,4,1.9c1.5,0.4,3.1,0.5,4.7,0.3
					c1.5-0.1,2.8-0.4,4-0.8c1.1-0.4,2.2-0.8,3.1-1.3l1.6-7.5l-10.4,0.8l2-11.2l24.7-2l-5.5,27.8c-2.5,1.8-5.5,3.3-8.8,4.6
					C527.6,381.3,524,382.1,519.9,382.4z"/>
				<path class="st0" d="M427.3,337.1l-30.3,2.3l-16.2,28.1l14.1,25.8l30.3-2.3l16.2-28.1L427.3,337.1z M417.7,377.3l-14.1,1.1
					l-6.6-12.1l7.5-13.1l14.1-1l6.6,12.1L417.7,377.3z"/>
				<path class="st1" d="M327.1,259l-0.1-1.3c56.4-4.3,80.5-38.1,99.8-65.3c11.8-16.5,21.9-30.8,36.4-32.5
					c11.5-1.3,24.9,5.2,42.2,20.5c10.1,10.1,14.3,20.8,12.5,32c-4.8,29.8-49.7,52.4-51.7,53.4l-0.6-1.2c0.5-0.2,46.2-23.3,50.9-52.4
					c1.7-10.8-2.3-21.2-12.1-30.9c-17-15-30-21.4-41.1-20.1c-13.9,1.6-23.5,15-35.5,31.9C408.4,220.6,384.1,254.7,327.1,259z"/>
				<path class="st1" d="M336.2,269.3c-17.2-1.5-34.2-8.5-50.7-21l0.8-1c60.5,45.8,110.6,6.1,129.3-13.1
					c17.5-19.6,48.2-30.2,68.4-23.5c11.8,3.9,18.6,13.1,19.8,26.7c-0.1,15.2-4.4,26-12.8,32.3c-13.5,10.1-33.1,4.5-33.3,4.4l0.4-1.3
					c0.2,0.1,19.2,5.4,32.2-4.2c8-6,12.2-16.5,12.3-31.1c-1.2-13-7.7-21.8-18.9-25.5c-19.4-6.4-50.1,4.2-67,23.1
					c-9.3,9.6-28.8,26.5-54.5,32.4C353.4,269.4,344.7,270,336.2,269.3z"/>
			</g>
		</g>
	</g>
</g>
</svg>
