<?xml version="1.0" encoding="utf-8"?>
<!-- Generator: Adobe Illustrator 26.0.0, SVG Export Plug-In . SVG Version: 6.00 Build 0)  -->
<svg version="1.1" id="Layer_1" xmlns="http://www.w3.org/2000/svg" xmlns:xlink="http://www.w3.org/1999/xlink" x="0px" y="0px"
	 viewBox="0 0 700 700" style="enable-background:new 0 0 700 700;" xml:space="preserve">
<style type="text/css">
	.st0{fill:#E370AA;}
	.st1{fill:#010101;}
</style>
<g>
	<path class="st0" d="M384,378.6c-0.4,0.7-1.3,1.2-2.1,1.2h-17.1c-0.8,0-1.1-0.5-0.7-1.2l20-33.6c0.4-0.7,0.4-1.7,0-2.4l-19-31.7
		c-0.4-0.6-0.1-1.2,0.7-1.2h16.3c0.8,0,1.7,0.5,2.1,1.2l18.5,31.7c0.4,0.7,0.4,1.7,0,2.4L384,378.6z"/>
	<path class="st1" d="M226.8,290.8c0-0.7,0.6-1.3,1.3-1.3h14.4c0.7,0,1.3,0.6,1.3,1.3v11.5c0,0.7-0.6,1.3-1.3,1.3h-14.4
		c-0.7,0-1.3-0.6-1.3-1.3V290.8z"/>
	<path class="st1" d="M73.4,308.8c0-0.7-0.6-1.3-1.3-1.3H52c-0.7,0-1.3-0.6-1.3-1.3V294c0-0.7,0.6-1.3,1.3-1.3h59
		c0.7,0,1.3,0.6,1.3,1.3v12.3c0,0.7-0.6,1.3-1.3,1.3H91c-0.7,0-1.3,0.6-1.3,1.3v55.7c0,0.7-0.6,1.3-1.3,1.3H74.6
		c-0.7,0-1.3-0.6-1.3-1.3V308.8z"/>
	<path class="st1" d="M100.9,338.1v-0.2c0-16.1,13.2-29.1,30.9-29.1c17.6,0,30.7,12.8,30.7,28.9v0.2c0,16.1-13.2,29.1-30.9,29.1
		C113.9,366.9,100.9,354.1,100.9,338.1 M146.6,338.1v-0.2c0-8.2-6.1-15.4-15-15.4c-9.2,0-14.8,7-14.8,15.2v0.2
		c0,8.2,6.1,15.4,15,15.4C141,353.3,146.6,346.3,146.6,338.1"/>
	<path class="st1" d="M227.2,311.1c0-0.7,0.6-1.3,1.3-1.3h13.6c0.7,0,1.3,0.6,1.3,1.3v53.4c0,0.7-0.6,1.3-1.3,1.3h-13.6
		c-0.7,0-1.3-0.6-1.3-1.3V311.1z"/>
	<path class="st1" d="M292.7,317l-4.6,8.1c-0.7,1.3-2.3,0.4-2.3,0.4c-5.1-2.7-10.1-4.3-13.8-4.3c-3.9,0-6,1.7-6,3.9v0.2
		c0,3.1,5.4,4.6,11.6,6.7c8,2.6,17.2,6.4,17.2,16.6v0.2c0,12.4-9.5,18-21.8,18c-7.4,0-15.6-2.3-22.8-7.3c-1.6-1.1-0.5-2.8-0.5-2.8
		l4.9-7.4c0,0,0.9-1.4,2.4-0.4c5.7,3.7,11.6,5.7,16.5,5.7c4.7,0,6.8-1.7,6.8-4.2v-0.2c0-3.4-5.5-4.6-11.8-6.5c-8-2.3-17-5.9-17-16.8
		v-0.2c0-11.4,9.4-17.7,20.8-17.7c6.6,0,13.8,2,19.7,5.5C293.8,315.5,292.7,317,292.7,317"/>
	<path class="st1" d="M301.4,290.8c0-0.7,0.6-1.3,1.3-1.3h14.4c0.7,0,1.3,0.6,1.3,1.3v11.5c0,0.7-0.6,1.3-1.3,1.3h-14.4
		c-0.7,0-1.3-0.6-1.3-1.3V290.8z M301.8,311.1c0-0.7,0.6-1.3,1.3-1.3h13.6c0.7,0,1.3,0.6,1.3,1.3v53.4c0,0.7-0.6,1.3-1.3,1.3h-13.6
		c-0.7,0-1.3-0.6-1.3-1.3V311.1z"/>
	<path class="st1" d="M405.5,338.2c0.3,0.6,0.9,0.6,1.3,0l16.4-27c0.4-0.6,0.1-1.1-0.6-1.1h-16.9c-0.7,0-1.6,0.5-2,1.1l-6.5,10.7
		c-0.4,0.6-0.4,1.6,0,2.2L405.5,338.2z"/>
	<path class="st1" d="M183.9,335.8v28.7c0,0.7-0.6,1.3-1.3,1.3H169c-0.7,0-1.3-0.6-1.3-1.3v-53.4c0-0.7,0.6-1.3,1.3-1.3h13.6
		c0.7,0,1.3,0.6,1.3,1.3v5.4c0,0.7,0.3,0.8,0.8,0.3c0,0,0.3-0.3,0.6-0.7l0.2-0.2c3.5-4,7.9-7.1,15.1-7.1c12.2,0,19.3,7.9,19.3,20.8
		v16.3v18.6c0,0.7-0.6,1.3-1.3,1.3H205c-0.7,0-1.3-0.6-1.3-1.3v-18.6v-11.3c0-7.5-3.6-11.4-9.8-11.4c-6.2,0-10.1,3.9-10.1,11.4
		V335.8z"/>
	<path class="st1" d="M358.5,364.1c-3.1,1.6-6.7,2.6-11.5,2.6c-9.9,0-16.6-3.9-16.6-16.8v-9.9v-15.3c0-0.7-0.6-1.3-1.3-1.3h-4.2
		c-0.7,0-1.3-0.6-1.3-1.3v-11c0-0.7,0.6-1.3,1.3-1.3h4.2c0.7,0,1.3-0.6,1.3-1.3v-11.8c0-0.7,0.6-1.3,1.3-1.3h13.6
		c0.7,0,1.3,0.6,1.3,1.3v11.8c0,0.7,0.6,1.3,1.3,1.3h10.8c0.7,0,1.3,0.6,1.3,1.3v11c0,0.7-0.6,1.3-1.3,1.3h-10.8
		c-0.7,0-1.3,0.6-1.3,1.3v12.7v9.9c0,3.6,1.6,5.4,5.2,5.4c2.4,0,4.6-0.5,6.6-1.3c0,0,1.4-0.8,1.4,0.6v10.3
		C359.8,362.3,359.8,363.4,358.5,364.1"/>
	<path class="st0" d="M641.8,242.7H514.6c-6.7,0-14.8,4.7-18.2,10.5l-22.6,39h3.4h16.7c18,0,28.8,10.4,28.8,25.5v0.2
		c0,17.1-13.5,25.9-30.4,25.9h-7h-3.8c-1,0-1.8,0.8-1.8,1.7v18.6c0,1-0.8,1.8-1.8,1.8h-13c-1,0-1.8-0.8-1.8-1.8v-53.8l-79.2,136.4
		c-3.3,5.8-0.6,10.5,6,10.5h251.7c6.6,0,12.1-5.4,12.1-12.1V254.8C653.9,248.2,648.4,242.7,641.8,242.7 M556.7,318.7l5.4-7.5
		c0.6-0.8,1.8-1.4,2.8-1.4h15.1c1,0,1.3,0.6,0.8,1.4l-15,20.6c-0.6,0.8-1.5,0.8-2,0l-7.1-10.3C556.1,320.8,556.1,319.5,556.7,318.7
		 M539.1,365.9h-14.5c-1,0-1.3-0.6-0.8-1.4l18.5-26.1c0.6-0.8,0.6-2.1,0-2.9L524.7,311c-0.6-0.8-0.2-1.4,0.8-1.4h13.7
		c1,0,2.2,0.6,2.8,1.4l17.1,24.5c0.5,0.8,0.6,2.1,0,2.9l-17.2,26C541.4,365.3,540.1,365.9,539.1,365.9 M580.8,366.2h-16
		c-1,0-2.2-0.7-2.8-1.5l-5.6-8.3c-0.5-0.8-0.5-2.1,0-2.9l7.4-11.2c0.5-0.8,1.4-0.8,2,0l15.8,22.4
		C582.2,365.5,581.8,366.2,580.8,366.2 M481.6,329.4c-1,0-1.8-0.8-1.8-1.7v-19.1c0-1,0.8-1.8,1.8-1.8h8.2h2.8
		c8.3,0,13.4,3.9,13.4,11.2v0.2c0,6.3-4.8,11.2-13.1,11.2h-2.8H481.6"/>
</g>
</svg>
