<svg xmlns="http://www.w3.org/2000/svg" xmlns:xlink="http://www.w3.org/1999/xlink" viewBox="0 0 300 300"><defs><style>.cls-1{isolation:isolate;}.cls-2{fill:#f5333f;}.cls-3{fill:#79242f;}.cls-4{mix-blend-mode:multiply;opacity:0.63;fill:url(#linear-gradient);}</style><linearGradient id="linear-gradient" x1="147.15" y1="216.69" x2="147.15" y2="175.82" gradientUnits="userSpaceOnUse"><stop offset="0.45" stop-color="#fff"/><stop offset="1" stop-color="#821d20"/></linearGradient></defs><g class="cls-1"><g id="Layer_1" data-name="Layer 1"><path class="cls-2" d="M82.51,179.61c-.46,0-1,0-1.46.08l-2.35.22-1.83,12.53,2.67-.25a8,8,0,0,0,7.63-7.28c.27-1.83,0-3.18-.7-4S84.43,179.61,82.51,179.61Zm3.63,5.15a7,7,0,0,1-6.69,6.39l-1.37.13,1.52-10.41,1.55-.14a12.91,12.91,0,0,1,1.36-.07c1.57,0,2.66.31,3.19.91A4.15,4.15,0,0,1,86.14,184.76Zm53.77-41.49.84-5.72a1.74,1.74,0,0,0-.31.56,5.22,5.22,0,0,1-1,1.28l-.56,3.73a1.05,1.05,0,0,1-.92.89l-4.35.41c-.4.32-.71.57-.75.62a2.45,2.45,0,0,1-.94.58l6.13-.58A2.06,2.06,0,0,0,139.91,143.27Zm-27.57,56a1.94,1.94,0,0,0,.23,1.46,1.75,1.75,0,0,0,1.27.4l.43,0c2.2-.22,3.08-1.62,3.75-6C114.68,195.59,112.67,197.06,112.34,199.29Zm4.4-2.83c-.65,3.19-1.5,3.53-2.9,3.65a4.18,4.18,0,0,1-.43,0s0,0,0,0a1.49,1.49,0,0,1,0-.66C113.62,197.73,115.14,196.88,116.74,196.46Zm31.54-41c-2.19.21-3.9,3.09-4.6,7.7-.57,4,.21,5.39.57,5.81a1.21,1.21,0,0,0,1,.44c2.13-.19,3.92-3.52,4.61-8.28.53-3.6,0-4.87-.39-5.31a1.11,1.11,0,0,0-.93-.37v-1Zm.36,1s.7.85.16,4.48c-.69,4.7-2.38,7.28-3.76,7.31-.09-.1-.89-1.15-.32-5,.58-4,2-6.67,3.65-6.82h.27Zm47.86,7.76c2.38-.23,3.32-1.74,4-6.47-3.62.46-5.8,2-6.16,4.45a2.12,2.12,0,0,0,.26,1.6,1.9,1.9,0,0,0,1.4.44A3.94,3.94,0,0,0,196.5,164.27Zm-1.1-1.87c.29-1.94,2-2.87,3.86-3.32-.72,3.66-1.65,4-3.23,4.18a1.53,1.53,0,0,1-.6-.09A1.3,1.3,0,0,1,195.4,162.4Zm39.46,9.89c-1.6-1.85-4.28-2.88-7.94-3.07a24,24,0,0,0,8.25-3.95,2.11,2.11,0,0,0,.75-2.25l-1.07-3.7a2.09,2.09,0,0,0-1.09-1.29,2.23,2.23,0,0,0-.91-.2,2,2,0,0,0-.79.15,16.9,16.9,0,0,1-3,1,4.33,4.33,0,0,1,0-2.05l4.24-28.86a2.14,2.14,0,0,0-.61-1.79,2.19,2.19,0,0,0-1.64-.56H231l-16.26,2.75a2.09,2.09,0,0,0-1.71,1.75l-.75,5.14a2.08,2.08,0,0,0,2,2.38l1.51-.14-1.28,8.71a8.16,8.16,0,0,0-1.06-1.57c-2-2.28-5.07-3.38-9.48-3.38-1,0-2,.05-3.13.16a52.34,52.34,0,0,0-14,3.43l-.16.07a2,2,0,0,0-.41-.74,2,2,0,0,0-1.57-.72l-3.82.35.73-5a2.06,2.06,0,0,0-.64-1.83,2.13,2.13,0,0,0-1.41-.56,3.25,3.25,0,0,0-.45.06L167,139.31a2.09,2.09,0,0,0-1.61,1.73l-.68,4.59-1.78.35a2,2,0,0,0-1.65,1.73l-.24,1.61c-2.08-1.58-5-2.37-8.75-2.37-1,0-2,.06-3.09.16-11.62,1.11-18.54,6.95-20,16.88a18.14,18.14,0,0,0-.18,4l-.25.06a15.69,15.69,0,0,1-3.58.83,7.41,7.41,0,0,1-.78,0,2.14,2.14,0,0,1-1.49-.37c-.19-.23-.59-1-.2-3.76l2.73-18.52,1.88-.18a1,1,0,0,0,0-.34c-.06-.18.06-.43.23-.72l-3,.29-2.84,19.32c-.34,2.34-.2,3.85.44,4.59a2.89,2.89,0,0,0,2.27.73c.28,0,.57,0,.88-.05a15.73,15.73,0,0,0,3.83-.89,1.27,1.27,0,0,1,.34-.05,1.24,1.24,0,0,1,.47.1,1.09,1.09,0,0,1,.29.23,16.29,16.29,0,0,1,0-5.13c1.4-9.41,8-14.94,19.07-16,1.06-.1,2.07-.15,3-.15,4.31,0,7.43,1.09,9.3,3.25l.19.23.53-3.61a1,1,0,0,1,.83-.87l2.5-.48.78-5.32a1,1,0,0,1,.81-.86l12.18-2.67a.78.78,0,0,1,.22,0,1.06,1.06,0,0,1,.71.28,1,1,0,0,1,.31.91l-.91,6.27,5-.48a1.06,1.06,0,0,1,.79.37,1,1,0,0,1,.21.93l-1.39,5.4a1,1,0,0,1-.9.78l-4.84.46-1.41,9.63c-.26,1.84-.05,2.53.18,2.79,0,.06.22.26.86.26a6.83,6.83,0,0,0,2.24-.52,1.19,1.19,0,0,1,.37-.06,1,1,0,0,1,.53.14.76.76,0,0,1,.22.18,9.08,9.08,0,0,1,.12-1.77c.95-6.55,6.67-10,18.54-11.11l.39,0c-.32-1-1.06-1.53-2.92-1.53-.37,0-.77,0-1.2.07a37.72,37.72,0,0,0-7.83,1.81.93.93,0,0,1-.32.05,1,1,0,0,1-.54-.15,1,1,0,0,1-.49-.73l-.71-4.54a1,1,0,0,1,.64-1.11A51.22,51.22,0,0,1,201,142.57c1.08-.1,2.09-.15,3-.15,4.09,0,6.94,1,8.7,3,1.36,1.6,2,3.78,2,6.73l2.3-15.7-2.73.26a1,1,0,0,1-.75-.32,1.07,1.07,0,0,1-.27-.87l.75-5.14a1,1,0,0,1,.85-.87l16.21-2.75a.44.44,0,0,1,.16,0,1,1,0,0,1,.74.3,1,1,0,0,1,.29.89l-4.22,28.86c-.28,1.86-.07,2.57.17,2.83.05.07.23.27.88.27a9.8,9.8,0,0,0,3.32-1,1.16,1.16,0,0,1,.4-.07,1.06,1.06,0,0,1,.46.1,1,1,0,0,1,.54.64l1.08,3.7a1,1,0,0,1-.37,1.12,23.1,23.1,0,0,1-11.32,4.41c-.57,0-1.11.08-1.63.08-2.75,0-4.84-.79-6.18-2.34s-2-4-1.71-7c-2.11,7.61-7.32,11.07-17.57,12q-2.16.21-4,.21c-3.92,0-6.7-.72-8.44-2.2a1,1,0,0,1-.27.28,21.5,21.5,0,0,1-10.76,4.19c-.61.06-1.21.09-1.77.09h0c-2.81,0-4.9-.78-6.24-2.32-1.57-1.82-2.06-4.58-1.5-8.44l1.4-9.52-1.44.14a13.86,13.86,0,0,1,.29,6.19c-1.36,9.37-8.37,15.34-19.24,16.38-1,.09-1.89.13-2.75.13-3.7,0-6.54-.84-8.47-2.5a.86.86,0,0,1-.3.3,31.09,31.09,0,0,1-13.53,4.69,22,22,0,0,1-2.25.11h0c-3.72,0-6.51-1-8.31-3.11-2.17-2.52-2.84-6.44-2-12l2.56-17.48-8.89.85a1.05,1.05,0,0,1-.77-.34,1,1,0,0,1-.26-.86l.86-6a1.05,1.05,0,0,1,.94-.88l29.57-2.83a14.25,14.25,0,0,1,.9-1.13l-30.57,2.92A2.07,2.07,0,0,0,99,140.31l-.87,6a2.08,2.08,0,0,0,2.06,2.37l7.67-.72L105.5,164.1c-.86,5.85-.12,10,2.27,12.8a10.28,10.28,0,0,0,6.64,3.31,48.59,48.59,0,0,0-9.23,2.66,2.07,2.07,0,0,0-1.26,2.24l.67,4.29a2.06,2.06,0,0,0,1,1.45,2.13,2.13,0,0,0,.92.3c-4.31,1.9-6.61,4.8-7.21,8.87a11.25,11.25,0,0,0-.11,1.89c-2.56-.15-4.12-1-6.23-4.23A17.84,17.84,0,0,0,102.34,184c.63-4.34-.1-7.77-2.21-10.22s-5.44-3.71-9.83-3.71c-.8,0-1.61,0-2.45.12L61,172.78a2.05,2.05,0,0,0-1.84,1.76l-.85,5.79a2,2,0,0,0,.56,1.73,2.05,2.05,0,0,0,1.48.64l2.12-.19L58.12,212a2.1,2.1,0,0,0,.54,1.73,2.08,2.08,0,0,0,1.51.65l13.11-1.24a2.07,2.07,0,0,0,1.86-1.77l1.16-7.92c3.28,5.92,7.85,8.7,14.15,8.7.74,0,1.51,0,2.31-.11a21.73,21.73,0,0,0,8.36-2.44,2.05,2.05,0,0,0,1-1.51l.08-.49c1.83,1.2,4.44,1.78,7.91,1.78a39.09,39.09,0,0,0,3.91-.2c6.54-.63,11-2.36,14-5.49l-.22,1.59a2.06,2.06,0,0,0,.54,1.73,2.1,2.1,0,0,0,1.51.65l11.51-1.09a2.07,2.07,0,0,0,1.85-1.77l2.34-15.87a5.13,5.13,0,0,1,2.28-1.31s-1.14,6.64-1.14,6.64c-.7,3.89-.19,6.88,1.49,8.88,1.48,1.76,3.74,2.65,6.69,2.65a14.17,14.17,0,0,0,1.58-.08,15.34,15.34,0,0,0,6-1.78,19.41,19.41,0,0,0-1.08,4.07c-.46,3.15.07,5.64,1.58,7.4s4.14,2.75,7.75,2.75c.78,0,1.63,0,2.52-.12,2.78-.27,7.47-1.08,10.9-1.67l.43-.08c2.19-.37,4-.69,4.76-.76a2.82,2.82,0,0,1,.4,0c.54,0,.76.12.79.16a1.16,1.16,0,0,1,0,.7,2.07,2.07,0,0,0,.52,1.7,2,2,0,0,0,1.53.69l2.88-.13a2.12,2.12,0,0,0,1.57-.84,21,21,0,0,0,3.4-8.47,7,7,0,0,0-1.31-5.82c-1.35-1.57-3.49-2.33-6.55-2.33-.68,0-1.41,0-2.18.11-2.41.23-6.09.91-9.33,1.5-2.42.45-4.92.91-6.1,1l-.68,0c-.85,0-1.17-.19-1.22-.25a1.43,1.43,0,0,1-.08-.81c.88.08,1.82.13,2.8.13,1.24,0,2.54-.07,3.89-.19,13-1.24,21.61-7.67,23-17.17a12.78,12.78,0,0,0,.1-3.25l.9.3a23.42,23.42,0,0,0-.68,3.13c-.64,4.4,0,7.82,2.09,10.18s5.16,3.48,9.43,3.48c.84,0,1.71,0,2.66-.13A35.57,35.57,0,0,0,231,195a2.06,2.06,0,0,0,.94-2.27l-.92-3.73a2.08,2.08,0,0,0-1.05-1.34,2.16,2.16,0,0,0-1-.23h0c3.6-1.74,6.71-4.49,7.36-8.92A7.47,7.47,0,0,0,234.86,172.29ZM187.32,153.2a2,2,0,0,0,1.08.31,5,5,0,0,0,.66-.11l.28-.1c-5.22,2-8,5.15-8.63,9.74,0,.2-.06.39-.07.58a2.15,2.15,0,0,0-.5.12,19,19,0,0,1-1.92.6,4.1,4.1,0,0,1,0-2l1.29-8.83,4-.39a2.06,2.06,0,0,0,1.81-1.55l.58-2.26.37,2.44A2.13,2.13,0,0,0,187.32,153.2ZM213,164.06a7.48,7.48,0,0,0,6.4,5.72c-5,.91-8.91,2.83-11.68,5.71l.34-1.7a2.06,2.06,0,0,0-.47-1.81,2.19,2.19,0,0,0-1.7-.68h-.05c-1.59.15-3.12.34-4.57.56C207,170.59,210.73,168.09,213,164.06ZM162,167.65a8.52,8.52,0,0,0,1.91,4.88c1.54,1.77,3.91,2.68,7,2.68.59,0,1.22,0,1.87-.09a22.3,22.3,0,0,0,11-4.19c1.92,1.29,4.68,1.91,8.39,1.91,1.27,0,2.65-.07,4.12-.21.65-.06,1.3-.13,1.91-.22-1.42.29-2.76.62-4,1a26.13,26.13,0,0,0-5.79-.6c-1.11,0-2.27.05-3.49.16-12,1.15-18.62,6.6-21.44,12.46a7.86,7.86,0,0,0-8.55-9.19c-.44,0-.91,0-1.4.06a20.56,20.56,0,0,0-6.76,2,2,2,0,0,0-.43-.57,1.7,1.7,0,0,0-.34-.26C153.37,176.33,158.89,172.91,162,167.65Zm-29,7.91c2.07,1.47,4.91,2.21,8.45,2.21h.26l-8.77,1.92a2.1,2.1,0,0,0-1.61,1.73l-.31,2.06a7.26,7.26,0,0,0-.59-.78c-1.56-1.81-3.88-2.84-7-3.13A31.94,31.94,0,0,0,133,175.56Zm102.41,2.8c-1.15,7.75-10.44,10-17.88,11,.31.83.92,1.09,2.18,1.09q.53,0,1.14-.06a33.87,33.87,0,0,0,7.87-1.87,1.15,1.15,0,0,1,.36-.07,1.18,1.18,0,0,1,.49.12,1.07,1.07,0,0,1,.52.67L231,193a1,1,0,0,1-.46,1.14,34.42,34.42,0,0,1-13.44,4.1c-.91.09-1.76.13-2.56.13-3.95,0-6.86-1-8.64-3.12s-2.45-5.26-1.85-9.35a21.14,21.14,0,0,1,1.1-4.35.2.2,0,0,1-.1.07,1.17,1.17,0,0,1-.51.13,1,1,0,0,1-.34,0l-2.72-.93a11.18,11.18,0,0,1,.19,4.65c-1.3,9-9.56,15.09-22.06,16.28-1.32.13-2.59.19-3.79.19a25.46,25.46,0,0,1-3.64-.24,3.32,3.32,0,0,0,.08,2.56,2.45,2.45,0,0,0,2.06.69c.25,0,.51,0,.78,0,1.21-.13,3.63-.56,6.19-1,3.22-.59,6.88-1.27,9.24-1.5.73-.06,1.44-.1,2.08-.1,2.73,0,4.63.65,5.77,2a6.06,6.06,0,0,1,1.07,5,20.26,20.26,0,0,1-3.21,8,1.1,1.1,0,0,1-.79.41l-2.83.13a1.05,1.05,0,0,1-1-1.19,2,2,0,0,0-.27-1.54,2.12,2.12,0,0,0-1.58-.52,4.1,4.1,0,0,0-.49,0c-.83.08-2.86.44-5.28.85-3.61.63-8.11,1.4-10.82,1.66-.85.08-1.66.13-2.42.13-3.29,0-5.56-.79-7-2.4S162,211,162.4,208.17a17.77,17.77,0,0,1,3.86-8.7,7.92,7.92,0,0,1-1.89-1.86l.71,2.52a1,1,0,0,1-.37,1.12,15.65,15.65,0,0,1-8.35,3.44c-.51.05-1,.08-1.49.08-2.64,0-4.61-.77-5.89-2.28-1.47-1.76-1.9-4.46-1.27-8l1.12-6.52a1.54,1.54,0,0,0-.19-1.17c0-.07-.17-.22-.58-.22a6.15,6.15,0,0,0-3.49,1.88l-2.38,16.24a1,1,0,0,1-.93.88l-11.41,1.09a1.06,1.06,0,0,1-.76-.33,1.11,1.11,0,0,1-.28-.86l.93-6.27c-2.41,5.53-7.24,8.17-15.78,9-1.36.13-2.64.2-3.81.2-4.2,0-7-.89-8.58-2.7l-.09-.1-.35,2.39a1,1,0,0,1-.51.76,20.92,20.92,0,0,1-8,2.3c-.76.07-1.49.11-2.2.11-6.84,0-11.36-3.35-14.55-10.86l-.19,0-1.6,10.95a1,1,0,0,1-.92.88l-13,1.24a1.09,1.09,0,0,1-.76-.32,1,1,0,0,1-.26-.88l4.51-30.8-3.34.32a1,1,0,0,1-.74-.33,1,1,0,0,1-.26-.86l.83-5.78a1.06,1.06,0,0,1,.93-.89l26.86-2.56c.81-.08,1.59-.11,2.36-.11,4.07,0,7.13,1.12,9,3.34s2.56,5.36,2,9.39a16.89,16.89,0,0,1-9.87,13.41c2.77,4.49,4.7,5.7,8.71,5.7h.16a8.81,8.81,0,0,1,0-2.81c.9-6.2,6.32-9.46,17.54-10.52l.3,0c-.31-.89-1-1.32-2.67-1.32-.34,0-.72,0-1.13.06a35,35,0,0,0-7.37,1.71.88.88,0,0,1-.33.06,1.08,1.08,0,0,1-.54-.15,1.12,1.12,0,0,1-.49-.74L105,185a1,1,0,0,1,.63-1.13,48.66,48.66,0,0,1,12.93-3.16c1-.1,2-.15,2.87-.15,3.87,0,6.56.94,8.23,2.86a8.2,8.2,0,0,1,1.81,4.32l.91-6.13a1,1,0,0,1,.8-.86l11.52-2.53a1.81,1.81,0,0,1,.23,0,1.12,1.12,0,0,1,.72.28,1,1,0,0,1,.3.91l-.07.54a20.52,20.52,0,0,1,7.77-2.56,11.52,11.52,0,0,1,1.29-.07,7.54,7.54,0,0,1,6,2.4c1.36,1.62,1.82,4,1.32,6.83l-1.18,6.89c-.49,2.81-.09,3.29-.07,3.31a3.38,3.38,0,0,0,1.66-.53.91.91,0,0,1,.48-.13,1.33,1.33,0,0,1,.38.07,10.4,10.4,0,0,1-.55-5.69c1-7,7.35-15,22-16.41a33.78,33.78,0,0,1,3.4-.17,24.51,24.51,0,0,1,5.82.65A61.94,61.94,0,0,1,206,172.33H206a1,1,0,0,1,1.05,1.26l-1.4,6.73c2.73-5.78,8.41-9.11,16.94-9.92,1.12-.11,2.16-.16,3.11-.16,4,0,6.79.92,8.36,2.74A6.49,6.49,0,0,1,235.37,178.36Zm-13.43-.9.23,1a1.77,1.77,0,0,1,0,.77c-.15,1-.68,2.05-3.31,2.84.46-1.65,1.3-3.41,2.82-3.56H222l-.07-1-.3,0c-2.65.24-3.71,3.43-4.14,6,3.67-.72,5.4-2,5.7-4.09a2,2,0,0,0-.23-1.57A1.3,1.3,0,0,0,221.94,177.46Zm-37.76,4.84-.31,0c-2.8.26-4.71,2.59-5.27,6.4-.27,1.83-.07,3.24.56,4a2,2,0,0,0,1.66.65l.42,0c3-.29,4.55-3.38,5-6.17.28-1.91,0-3.47-.63-4.25A1.72,1.72,0,0,0,184.18,182.3Zm1,4.68c-.35,2.41-1.61,5.06-4.36,5.3-.63,0-.81-.2-.88-.28-.32-.36-.58-1.39-.32-3.13.49-3.29,2.07-5.3,4.31-5.52h.26a.68.68,0,0,1,.6.23C185.14,184,185.45,185.11,185.18,187Z"/><path class="cls-3" d="M201.61,133.76c.11.15.28,0,.64-.09a12.39,12.39,0,0,0,1.91-1.59s.31-.32.1-.36a.76.76,0,0,0-.67.17c-.26.19-1.84,1.33-2,1.5S201.49,133.61,201.61,133.76Zm6.36,3.63c.36,0,1-1.61,1-1.61a.58.58,0,0,0-.36,0C208.46,135.83,208.37,136.3,208,137.39ZM206.31,123a2.28,2.28,0,0,0,1,.85,3.19,3.19,0,0,1,1,.78,2.14,2.14,0,0,1,.56.17c1,.39,1.46,1.74,1.75,1.89s.47-.94.52-1.53-1.52-1.53-2.49-1.74a3.12,3.12,0,0,1-1.54-.87C206.83,122.69,206.57,122.84,206.31,123Zm3.23,12c.23-.47.35-1.28-.09-1.39,0,0-1.91,2.27-1.74,3.61.4-1.13,1-1.75,1.19-1.72S209.33,135.44,209.54,135Zm1.92-9.6-.17,1.56a3.62,3.62,0,0,0,1.07,1.41,13.69,13.69,0,0,1,2.2,1.51c.16.23.19-.24.37-.23s.56-.15.21-.52S211.87,125.67,211.46,125.37Zm1.43,2.44-.18-.11a1.78,1.78,0,0,1-.5-.58C212.44,127.33,212.66,127.57,212.89,127.81Zm-9.22,1.73a10.51,10.51,0,0,1,.27,2c0,.19.23,0,.31.08s.37.23.39-.15.25-3.5.19-3.86l-.93.68A2.74,2.74,0,0,0,203.67,129.54Zm1.48-6.35-.07,0c-.22.08-.42.17-.62.23a1.87,1.87,0,0,0,.7.83,2.43,2.43,0,0,1,.71.74,1.34,1.34,0,0,1,.44.21c.77.43.94,1.56,1.16,1.72s.47-.69.59-1.16-1-1.4-1.76-1.68A2.75,2.75,0,0,1,205.15,123.19Zm5.6,6.24c-.23-.33-2.18-3.13-2.46-3.41l-.34,1.22a2.91,2.91,0,0,0,.68,1.25,12.44,12.44,0,0,1,1.58,1.48c.08.19.17-.17.31-.14S211,129.77,210.75,129.43Zm-.51,3.54a13,13,0,0,0,.54-2.65s0-.48-.15-.39a.87.87,0,0,0-.47.62c-.08.33-.65,2.37-.63,2.59s0,.29.24.34S210,133.33,210.24,133Zm11.28-10c-.49-.21-4.63-1.92-5.14-2l.5,1.59a3.85,3.85,0,0,0,1.63.91,15.9,15.9,0,0,1,2.79.52c.22.16.07-.31.24-.37S222,123.23,221.52,123Zm-3-.27a2.54,2.54,0,0,1-1-.56l1.55.63C218.85,122.78,218.65,122.75,218.57,122.75Zm4.44,45a22.12,22.12,0,0,0,10.78-4.2l-1.08-3.69a11.51,11.51,0,0,1-3.25,1c-2.49.24-3-1.37-2.55-4.26l4.23-28.85L223.76,129c-.19-.35-.45-.6-.75-.5,0,0,0,.25-.07.64l-2.21.38c.19-.12.34-.36,0-.67-.54-.44-5-4.07-5.54-4.4v2.13s.85,1.4,1.66,1.72a25.52,25.52,0,0,1,2.83,1.4l-4.31.73v-.29s0-.6-.27-.44a1.09,1.09,0,0,0-.45.85c0,.42-.35,3-.29,3.29a.55.55,0,0,0,.09.23l-.06.35a0,0,0,0,1,0,0s-2,3.14-1.5,4.76c.3-1.46.93-2.34,1.14-2.33s.52-.12.7-.74a1.93,1.93,0,0,0,.09-.5l3.36-.32-3.36,22.88C213.68,165.76,217,168.35,223,167.77Zm-5.91-40.12a4,4,0,0,1-1.21-1.26v-.45c1,.78,2.46,2,3.44,2.76C218.45,128.23,217.39,127.76,217.1,127.65ZM172.47,173a20.54,20.54,0,0,0,10.25-4,4.74,4.74,0,0,1-2-3.36,7.93,7.93,0,0,1-2.15.57c-2.46.23-2.94-1.36-2.52-4.22l1.53-10.43,5.64-.54,1.38-5.4-6.24.6,1.11-7.57-12.17,2.67-.89,6-3.23.62-.73,5,3.18-.3-1.59,10.81C163,171.16,166.28,173.61,172.47,173Zm58-63.92c-1.08-.28-3.09.7-3.09.7l-.73,1.2s-.06.52.21.43,4.15-.27,3.77-.7-2.49-.24-2.49-.24S231.59,109.38,230.49,109.1Zm-51.06,27.74c-.64.1-.78-.12-.78-.56a.59.59,0,0,0-.32-.6c-.31,0-1.24,2.29,1.44,1.87,3.12-.47,3.22-6.93,2.77-8.59,1.34,1.64,1.59,3.06.8,5.8,2.36-3.09.28-6-.85-7.21a1.82,1.82,0,0,1-1.08.7,7.74,7.74,0,0,1,.28.92,8.15,8.15,0,0,0-.16,3C181.65,134,180.05,136.75,179.43,136.84Zm16.51,33.69c11.83-1.12,16-5.46,17.34-14.61,1.3-8.85-1.29-13.38-12.31-12.33a50.39,50.39,0,0,0-13.4,3.28l.72,4.53a39.25,39.25,0,0,1,8-1.85c3.71-.36,5.16.65,5.43,3.41l-1.49.15c-12.12,1.15-16.81,4.69-17.62,10.22C181.72,169.59,186.83,171.4,195.94,170.53Zm4.89-13.85.81-.08-.18,1.17c-.66,4.49-1.56,7.18-5,7.51-2.56.24-3.55-1.12-3.26-3.21C193.64,159.31,196,157.14,200.83,156.68ZM171,137.41c-.56.07-.69-.13-.65-.52a.59.59,0,0,0-.28-.54c-.28,0-1.14,2,1.22,1.69,2.74-.33,3-6,2.66-7.48,1.13,1.5,1.31,2.74.54,5.12,2.15-2.64.41-5.25-.55-6.35a1.62,1.62,0,0,1-1,.59,4.77,4.77,0,0,1,.22.81,7.3,7.3,0,0,0-.21,2.64C173,135,171.54,137.34,171,137.41Zm-29-8.16c.3.21.67.18.53.61s-.08,1.66.14,1.77a6.71,6.71,0,0,1,1.17.35,5.26,5.26,0,0,0,.88.44c.19.06.39,1.22.7,1.07,0,0,3.58-.59,4.77-.75a13.51,13.51,0,0,0,4.53-2.54c-.42-.79-.46-3.16-.63-4-.23-1.15.87-1.5.59-2.36s-1.06-.29-1.23-.6a8.73,8.73,0,0,0-2.34-2.86c-.23-.07-.28-.24-.18-.45a2.24,2.24,0,0,0-1,.41c-1.15.83-8.21,5.17-9.44,6.73-.27.36.47.45.81.5S141.62,129,141.93,129.25Zm6.62-7.19c.85-.55,1.47-1,1.76-1.17a.67.67,0,0,0,.11-.07,1.39,1.39,0,0,0,.34.2,9.11,9.11,0,0,1,2,2.48s0,0,0,.06a1,1,0,0,0,.83.47h.34c0,.08,0,.11-.17.42a2.41,2.41,0,0,0-.44,1.85c.06.25.1.73.15,1.22a13.71,13.71,0,0,0,.34,2.44A13,13,0,0,1,150,132c-1,.13-3.45.53-4.42.69a.3.3,0,0,0,0-.1c-.15-.38-.29-.75-.69-.88a5.67,5.67,0,0,1-.75-.38,3.32,3.32,0,0,0-1-.34,3.07,3.07,0,0,1,0-.92,1,1,0,0,0-.67-1.37l0,0c0-.12-.08-.31-.11-.44-.11-.54-.25-1.16-.72-1.38C143.13,125.59,146.58,123.35,148.55,122.06ZM161,113.55c.31-.09-.16-.14,0-.09a.25.25,0,0,0,0,.09Zm-9.73,6.09a8.13,8.13,0,0,1,2.61,2.66c.2.3.94-.31,1.28.54s-.76,1.25-.48,2.38.46,4.77,1.33,4.17c.11-.08-.21.37-.09.32a.55.55,0,0,0,0,.18C155.84,131,157.47,133,158,133s.08-.8.08-.8a2.57,2.57,0,0,0,1.31.4c0,.21,0,.35,0,.35a5.73,5.73,0,0,0-1.08,2.09c-.49,1.31-2.51,2.78-3,2.65s-.51-.34-.36-.65a.5.5,0,0,0-.06-.53c-.23-.06-1.59,1.23.45,1.8,2.36.65,4.47-3.9,4.7-5.23.42,1.6.15,2.68-1.28,4.37,2.65-1.44,2.09-4.17,1.68-5.39l-.14.07c.31-1.06-2.91-2.43-2.91-2.43l0,0a6.14,6.14,0,0,0,.69.11c.39,0,6.31-.92,7-1.66a3.35,3.35,0,0,1-.84-.88c-1.65-2.48,0-5.4.23-5.59s1.07-.54-.14-.88-3.73-4.07-3.32-6a11.43,11.43,0,0,1,0-1.17c-1.06.29-6.52,1.93-9.42,5C151.16,119.05,150.89,119.53,151.29,119.64Zm8.24,12.23h-.14a2,2,0,0,1-.91-.29.74.74,0,0,0-.37-.12.75.75,0,0,0-.53.2.12.12,0,0,0-.05,0,3.43,3.43,0,0,1-.88-1.76s0,0,0-.06v0a.76.76,0,0,0,.28.41l.08,0,.07,0A7.66,7.66,0,0,1,159.53,131.87ZM152.14,119c2.25-2.37,6.19-3.87,8.12-4.49a.08.08,0,0,0,0,0c-.46,2.2,1.93,5.92,3.53,6.76a6,6,0,0,0-.19,6.29l.2.28a41.92,41.92,0,0,1-5.75,1.14l-.3-.06-.26-.05h-.07a.77.77,0,0,0-.65.29.8.8,0,0,0-.07-.2.76.76,0,0,0-.61-.36h0a15.35,15.35,0,0,1-.43-2.26c-.08-.55-.15-1-.23-1.36a1,1,0,0,1,.2-.8,1.82,1.82,0,0,0,.24-1.67,1.37,1.37,0,0,0-1.26-.94h-.22a10.75,10.75,0,0,0-2.37-2.43Zm44.11-8.29c.11.24-1.72,1.85-1.54,4.3A7.94,7.94,0,0,0,196,119s2.17,4.42,8.22,3.32,19.19-11.12,21.84-10.86c-2.48-.82-4.9-3.66-.75-5.84s-3.13.51-4.48,1.87-1.44,2.54-2.44,2.83a9.86,9.86,0,0,0,1.22-2,6.51,6.51,0,0,1,4.5-3.2c-.65-.94-.62-2.8.84-3.23s5.91-.92,5.69-1.57,1.77.17,1.4-.46c2.63-.69,2.88-.73,2.88-.73s-2.48.07-2.88.15a5.55,5.55,0,0,0-2,0c-.38-.36-1.62-.24-2.33-.06,0-.47-1.17,0-1.51.12-.3-.42-.95-.2-1.33,0,0-.42-1.38,0-1.77.17-.12-.35-2.46.49-2.84.72s.29-.48-.12-.45a29.73,29.73,0,0,0-3,1.08s.12-.76-.17-.6-4.48,2.09-4.84,2.15,0-.53-.5-.39-12.78,3.92-14.78,5.72a.75.75,0,0,1,0,.84A6.09,6.09,0,0,0,196.25,110.74Zm.72-.15a8.39,8.39,0,0,1,.54-1.69,1.73,1.73,0,0,0,.21-.91c2.39-1.57,11.48-4.47,13.74-5.16a.82.82,0,0,0,.6.29h.22c.41-.08,2.95-1.25,4.28-1.86a.56.56,0,0,0,.15.16.73.73,0,0,0,.43.16.65.65,0,0,0,.3-.06c.74-.29,1.6-.63,2.18-.83a.73.73,0,0,0,.58.3.85.85,0,0,0,.5-.15,10.45,10.45,0,0,1,2.13-.69.77.77,0,0,0,.29.07.72.72,0,0,0,.25,0l.1,0a6.79,6.79,0,0,1,1-.26l.08.06a.74.74,0,0,0,.34.1.77.77,0,0,0,.34-.07,2.12,2.12,0,0,1,.49-.15.67.67,0,0,0,.51.24.49.49,0,0,0,.26,0l.16,0a5,5,0,0,1,.64-.2h0a.74.74,0,0,0,.42.17.76.76,0,0,0,.21,0,5.69,5.69,0,0,1,1.31-.15,1.07,1.07,0,0,1,.39.06.58.58,0,0,0,.29.15.06.06,0,0,0,0,0,22.67,22.67,0,0,1-3,.67c-.85.16-1.65.31-2.16.46a2.33,2.33,0,0,0-1.6,1.51,3.27,3.27,0,0,0,0,1.91A7.13,7.13,0,0,0,219,108a7.13,7.13,0,0,1-.86,1.47c-.08.13-.19.27-.32.46a.74.74,0,0,0,0,.84.72.72,0,0,0,.57.29.6.6,0,0,0,.23,0,3,3,0,0,0,1.64-1.53,8.34,8.34,0,0,1,1.12-1.48,6,6,0,0,1,1.23-.82,2.84,2.84,0,0,0-.24,1.36,3.91,3.91,0,0,0,1.73,2.69,74.26,74.26,0,0,0-7,3.91c-4.61,2.76-9.83,5.89-13,6.45a9.15,9.15,0,0,1-2.05.17,6.25,6.25,0,0,1-5.39-3.09,1,1,0,0,0-.08-.11,7.66,7.66,0,0,1-1.16-3.57,5.24,5.24,0,0,1,1.14-3.33C196.85,111.27,197.05,111,197,110.59Zm-29.95,0a17.15,17.15,0,0,0-3.2,1.32s-2.23.53-1.88,2.51,1.69,6.18,3,6,.62.67.49.91-2.37,4.43.06,6.13a3.41,3.41,0,0,0,2.79.59.9.9,0,0,0,.06.34c.41,1.21,2.95,2.55,3.51,2.32s-.26-.86-.26-.86,1.51.29,2.19-.64c.75-1.62-4-1.68-4-1.68a2.66,2.66,0,0,0-.42,0,5,5,0,0,0,1.86-2.41c-1.27-2-1.09-5.91-.89-7-1.08-.47-2.52-4.69-2.63-5.51a2.21,2.21,0,0,1,.59-2.16A2.49,2.49,0,0,0,167,110.57Zm2.59,17.69.1,0h.19a7,7,0,0,1,3.17.63,1.61,1.61,0,0,1-1.07.27l-.3,0h-.09a.73.73,0,0,0-.72.43.84.84,0,0,0,0,.17,4.18,4.18,0,0,1-1.84-1.56,0,0,0,0,0,0,0,.73.73,0,0,0,.3.07Zm-.1-9.81c-.17,1.47-.2,4.67.86,6.7a4.34,4.34,0,0,1-1.47,1.76.69.69,0,0,0-.3.52.65.65,0,0,0-.32-.09.66.66,0,0,0-.28,0,1.85,1.85,0,0,1-.5,0,3.08,3.08,0,0,1-1.63-.56c-1.84-1.29,0-4.78.17-5.18l.05-.09a1.33,1.33,0,0,0,.2-1.36,1.14,1.14,0,0,0-1-.56,3.63,3.63,0,0,0-.44,0c-.55-.19-1.75-3.14-2.16-5.44-.21-1.25,1.17-1.63,1.33-1.67a1,1,0,0,0,.21-.09,15.93,15.93,0,0,1,2.76-1.16,3.92,3.92,0,0,0,0,1.38C167,113.23,168.15,117.13,169.51,118.45ZM200.6,134.7c.43-.22,1-.72.73-1,0,0-2.68.52-3.33,1.58.94-.57,1.74-.66,1.82-.54S200.16,134.91,200.6,134.7Zm21.13-11a1.2,1.2,0,0,0-.07,1c.14.43,1,3.08,1.12,3.31s.23.29.49.21.18-.34.16-.91a18.44,18.44,0,0,0-1.25-3.3S221.89,123.42,221.73,123.66Zm-8,13.6c-.23.11-.23.71-.53,2.12.44-.14,1-2.17,1-2.17A.62.62,0,0,0,213.76,137.26Zm-2.23-17-1,.71a2.32,2.32,0,0,0,1.15.3,3.09,3.09,0,0,1,1.3.32,2.24,2.24,0,0,1,.63-.08c1.16-.06,2.16,1.07,2.51,1.1s0-1.11-.17-1.7-2.12-.84-3.14-.63A3.7,3.7,0,0,1,211.53,120.24Zm3.78,1s0,0,0,0l-.25-.13A.71.71,0,0,1,215.31,121.21ZM222.4,118c.38,0,3.74.45,4.18.52a.61.61,0,0,0,.69-.55c0-.22-.11-.3-.52-.54a31.68,31.68,0,0,0-4.5-.29C221.93,117.44,222,118,222.4,118Zm-7.05.24-.6.21c-.66.4-1.34.78-2,1.16a12.77,12.77,0,0,0,3.75-.68,15.79,15.79,0,0,1,5.09-.77s.34-1.12,0-1.11A37,37,0,0,0,215.35,118.27Zm-20.87,16.87c-.71.05-.87-.2-.81-.7a.68.68,0,0,0-.33-.69c-.35,0-1.55,2.45,1.48,2.21,3.52-.28,4.16-7.49,3.79-9.39,1.36,2,1.53,3.55.42,6.55,2.88-3.26.79-6.68-.37-8.12a2.19,2.19,0,0,1-1.27.7,6.42,6.42,0,0,1,.24,1,9.06,9.06,0,0,0-.41,3.35C197.21,132.1,195.19,135.08,194.48,135.14Zm-7.65.29c-.68,0-.81-.2-.76-.67a.65.65,0,0,0-.28-.66c-.35,0-1.53,2.28,1.35,2.12,3.33-.19,4.08-7,3.76-8.82,1.25,1.88,1.39,3.39.27,6.21,2.8-3,.89-6.3-.18-7.69a2,2,0,0,1-1.22.63,6.5,6.5,0,0,1,.21,1,8.69,8.69,0,0,0-.45,3.16C189.47,132.61,187.5,135.39,186.83,135.43Zm21.07-13.24a3.22,3.22,0,0,0,1.41.89,3.84,3.84,0,0,1,1.47.88,2.88,2.88,0,0,1,.8.13c1.45.36,2.25,2.1,2.66,2.26s.47-1.33.44-2.14-2.3-1.81-3.62-1.94a4.27,4.27,0,0,1-2-.76C208.64,121.75,208.27,122,207.9,122.19ZM211,123a5.65,5.65,0,0,1,3,1.29c0,.23,0,.45,0,.65a4.23,4.23,0,0,0-2.2-1.55,5.07,5.07,0,0,0-.68-.14,2.11,2.11,0,0,0-.37-.28Zm-6.88.69a4.26,4.26,0,0,1-.54-.14,1.71,1.71,0,0,0,0,1,2.12,2.12,0,0,1,.08.94,1.55,1.55,0,0,1,.19.4c.31.75-.22,1.67-.16,1.9s.75-.22,1.09-.49.08-1.6-.29-2.23a2.42,2.42,0,0,1-.29-1.31Zm-6,11.84c.3.17,1.66-.56,1.66-.56a.4.4,0,0,0-.24-.21C199.3,134.69,199,135,198.07,135.53Zm26.21-28.61a2,2,0,0,0-.48,2c.36,1.2,2.53,1.87,2.53,1.87s1.15-1.06,0-1.33-.58-.88-.38-1.7S224.28,106.92,224.28,106.92Zm.78,1.08a1.85,1.85,0,0,0-.15,1.24,1.35,1.35,0,0,1-.42-.54,1.3,1.3,0,0,1,.12-1,2.49,2.49,0,0,1,.54.1A2,2,0,0,1,225.06,108Zm-89.8,106.84a.62.62,0,0,0-.33.15.67.67,0,0,0-.17.32l-.42,2.81a2,2,0,0,1-.18.54,1.14,1.14,0,0,1-.39.47,1.24,1.24,0,0,1-.61.21.87.87,0,0,1-.57-.1.57.57,0,0,1-.26-.34,1.23,1.23,0,0,1,0-.58l.42-2.82a.34.34,0,0,0-.08-.29.36.36,0,0,0-.29-.1l-.7.07a.19.19,0,0,0-.18.17l-.09.66c0,.1,0,.15.12.14l.16,0-.34,2.28a2.87,2.87,0,0,0,0,.71,1.44,1.44,0,0,0,.16.52,1.1,1.1,0,0,0,.86.6,2.16,2.16,0,0,0,.68,0,2.88,2.88,0,0,0,.76-.17,2.13,2.13,0,0,0,.66-.39,2.24,2.24,0,0,0,.49-.57,2.82,2.82,0,0,0,.26-.55,2.59,2.59,0,0,0,.12-.52v0l.34-2.27.17,0a.18.18,0,0,0,.17-.17l.1-.66c0-.1,0-.14-.12-.14Zm-35.41,3.78a.26.26,0,0,0-.08-.28.27.27,0,0,0-.28-.1l-3.36.32a.5.5,0,0,0-.34.15.61.61,0,0,0-.16.32l-.11.69c0,.1,0,.14.13.13l.67-.06c.1,0,.15-.06.18-.17v-.15l.67-.06-.63,4.1c0,.1,0,.15.14.14l.66-.07a.16.16,0,0,0,.17-.16l.64-4.11.65-.06,0,.16c0,.1,0,.15.13.13l.67-.06c.1,0,.15-.06.17-.17ZM123.24,216l-3.29.31a.19.19,0,0,0-.18.17l-.1.65c0,.11,0,.15.14.14H120l-.57,3.83a.33.33,0,0,0,.08.29.34.34,0,0,0,.29.1l2.68-.26a.55.55,0,0,0,.33-.15.58.58,0,0,0,.16-.32l.11-.7c0-.1,0-.14-.13-.13l-.62.06a.18.18,0,0,0-.19.16l0,.16-1.63.16.18-1.16,1.47-.15a.17.17,0,0,0,.18-.16l.1-.66c0-.1,0-.15-.12-.14l-1.48.15.17-1.18,1.64-.15,0,.16c0,.1,0,.15.13.14l.63-.06a.19.19,0,0,0,.18-.17l.1-.69a.33.33,0,0,0-.09-.29A.32.32,0,0,0,123.24,216Zm15.9,2.38a.19.19,0,0,0-.18.18l0,.15-1.63.15.58-3.83a.33.33,0,0,0-.08-.29.3.3,0,0,0-.29-.09l-.7.06a.17.17,0,0,0-.18.18l-.1.65c0,.1,0,.15.13.14l.17,0-.59,3.83a.32.32,0,0,0,.08.29.34.34,0,0,0,.29.1l2.68-.26a.5.5,0,0,0,.32-.15.55.55,0,0,0,.18-.32l.1-.69c0-.1,0-.15-.13-.14Zm4.94-3.94a.34.34,0,0,0-.08-.29.35.35,0,0,0-.29-.09l-3.37.31a.58.58,0,0,0-.31.16.52.52,0,0,0-.18.32l-.11.69c0,.1,0,.15.14.14l.66-.07a.16.16,0,0,0,.17-.16l0-.16.66-.06-.62,4.1c0,.11,0,.15.13.14l.66-.06a.19.19,0,0,0,.18-.17l.62-4.11.66-.06,0,.16c0,.1,0,.15.15.14l.65-.07a.17.17,0,0,0,.18-.17Zm-43.46,3.71a.18.18,0,0,0-.18.17l-.09.66c0,.09,0,.14.13.13l.2,0-.5,3.29-.2,0a.18.18,0,0,0-.18.17l-.1.66c0,.1,0,.15.13.14l1.38-.13a.18.18,0,0,0,.18-.17l.1-.66c0-.1,0-.15-.13-.14l-.2,0,.5-3.29.2,0a.18.18,0,0,0,.18-.17l.1-.65c0-.1,0-.15-.14-.14Zm44.23-4.2a.19.19,0,0,0-.19.17l-.09.66c0,.1,0,.15.13.13l.2,0-.5,3.29-.2,0a.19.19,0,0,0-.18.18l-.1.66c0,.09,0,.14.13.13l1.39-.13a.18.18,0,0,0,.17-.17l.11-.66c0-.1,0-.15-.12-.14l-.22,0,.5-3.29h.21a.2.2,0,0,0,.17-.17l.1-.66c0-.1,0-.15-.13-.14Zm-38.73,4.31a1.58,1.58,0,0,0-.32-.31,1.53,1.53,0,0,0-.48-.2,1.55,1.55,0,0,0-.37,0l-2.09.2a.18.18,0,0,0-.18.17l-.09.65c0,.1,0,.15.12.14l.16,0-.62,4.11c0,.1,0,.14.12.14l.68-.07a.18.18,0,0,0,.18-.17l.26-1.73,1-.09a1.87,1.87,0,0,0,.48-.11,1.32,1.32,0,0,0,.41-.21,1.71,1.71,0,0,0,.52-.45,2.23,2.23,0,0,0,.27-.46,2,2,0,0,0,.16-.54v0a1.81,1.81,0,0,0,0-.57A1.21,1.21,0,0,0,106.12,218.24Zm-1,1.61a.86.86,0,0,1-.48.23l-1,.09.21-1.39.94-.1a.5.5,0,0,1,.43.18.68.68,0,0,1,.12.51A.83.83,0,0,1,105.09,219.85Zm4.83-2.68a3.5,3.5,0,0,0-2.11,1,3.3,3.3,0,0,0-1.11,2,2,2,0,0,0,.53,1.83,2.23,2.23,0,0,0,1.88.59,3.58,3.58,0,0,0,2.1-1,3.34,3.34,0,0,0,1.12-2,2,2,0,0,0-.54-1.82A2.18,2.18,0,0,0,109.92,217.17Zm.66,3.8a2.3,2.3,0,0,1-1.32.62,1.42,1.42,0,0,1-1.18-.38,1.26,1.26,0,0,1-.34-1.19,2,2,0,0,1,.71-1.27,2.22,2.22,0,0,1,1.32-.62,1.34,1.34,0,0,1,1.53,1.56A2.22,2.22,0,0,1,110.58,221Zm19.57-27.68c1.22-8.35-1.22-12.62-11.61-11.63a47.13,47.13,0,0,0-12.63,3.1l.66,4.27a36.43,36.43,0,0,1,7.59-1.75c3.49-.34,4.86.61,5.14,3.22l-1.43.14c-11.43,1.08-15.85,4.43-16.61,9.64-.87,5.9,3.95,7.61,12.53,6.79C125,206,128.88,201.92,130.15,193.29Zm-18.91,5.8c.39-2.6,2.62-4.65,7.16-5.08l.77-.08L119,195c-.61,4.23-1.47,6.78-4.7,7.08C111.9,202.34,111,201.06,111.24,199.09Zm5.44,17.52-1.13.1a.18.18,0,0,0-.18.17l-.11.66c0,.11,0,.15.14.13h.16l-.5,3.29-.16,0a.16.16,0,0,0-.17.16l-.1.66c0,.1,0,.16.12.14l1.14-.11a3,3,0,0,0,2.09-1,3.83,3.83,0,0,0,.88-1.89v0a2.13,2.13,0,0,0-.39-1.72A2,2,0,0,0,116.68,216.61Zm1.19,2.48a2.27,2.27,0,0,1-.57,1.22,1.86,1.86,0,0,1-1.17.54h-.08l.49-3.29h.06a1.22,1.22,0,0,1,1,.3,1.47,1.47,0,0,1,.24,1.2Zm12.32-3.67a2.17,2.17,0,0,0-.52-.08,2.26,2.26,0,0,0-.52,0,3.5,3.5,0,0,0-2.11,1,3.26,3.26,0,0,0-1.1,2,2,2,0,0,0,.52,1.83,2.24,2.24,0,0,0,1.88.59,3.58,3.58,0,0,0,1-.26,4.19,4.19,0,0,0,.78-.45.19.19,0,0,0,.09-.12.19.19,0,0,0,0-.08l-.27-.56a.13.13,0,0,0-.1-.07h0s-.08,0-.1.05a2.14,2.14,0,0,1-1.24.53,1.35,1.35,0,0,1-1.17-.38,1.26,1.26,0,0,1-.34-1.17,2.1,2.1,0,0,1,.71-1.29,2.43,2.43,0,0,1,1.33-.62,1.79,1.79,0,0,1,.57,0l0,.16c0,.09,0,.14.13.13l.68-.06c.09,0,.14-.07.16-.17l.11-.67a.11.11,0,0,0,0-.12A1.76,1.76,0,0,0,130.19,215.42Zm92.38-44c-10.82,1-16.4,6.12-17.65,14.61-1.14,7.78,2.26,12.06,11.92,11.14a33.55,33.55,0,0,0,13-3.95l-.92-3.72a35.51,35.51,0,0,1-8.13,1.93c-2.87.28-4.32-.22-4.68-3,10.91-1.26,17.22-4.24,18.1-10.26C234.9,173.44,231.68,170.52,222.57,171.39Zm-6.41,13.3c.49-4.83,2.2-8,5.25-8.28,2.09-.21,3,1.09,2.7,3.08C223.65,182.59,220.83,184,216.16,184.69ZM233,119.55c-.53.25-.71.39-.55.47a7.57,7.57,0,0,1,2.65,2C234.81,121.49,233.48,119.32,233,119.55ZM248.6,93.7a6.92,6.92,0,0,0-2.29-3.56A42.11,42.11,0,0,0,243.42,81C232,54.86,198.17,94.25,181.78,92.62c8.92,2.13,33.71-14.45,33.71-14.45s20.06-13.79,27.26,3.32a43.74,43.74,0,0,1,2.52,7.84c-4.34-2.89-14.23-4.61-36.81,5-32.86,12.64-47.51,9.46-53.9,5.25,22.61,18.28,80.75-22.24,91.15-7.6,1.26,10.33-4.1,15.9-12.07,17,0,0,13.7-1.18,13.09-15.29,8.28,16.18-16.08,17.44-16.08,17.44C254,111.44,248.6,93.7,248.6,93.7Zm-16.47,25.11c-.41-.2-4.27-1.08-4.27-1.08-.6.17-.49.78-.12.82a18.37,18.37,0,0,1,3.57,1,1.17,1.17,0,0,0,1.38,0C233.17,119.31,232.53,119,232.13,118.81ZM149.83,94s.84,3,4.73,5.53A19.63,19.63,0,0,1,149.83,94ZM163,197a4.52,4.52,0,0,1-1.78.64c-1.2.11-2-.52-1.3-4.51l1.17-6.88c1-5.87-2.34-8.45-7.52-8a21.34,21.34,0,0,0-9.21,3.55l.39-2.7-11.52,2.52-3.5,23.85,11.31-1.07,2.44-16.57a7.49,7.49,0,0,1,4.17-2.42c2-.19,2.27,1.63,2.09,2.6l-1.13,6.52c-1.34,7.61,2.52,9.5,7.53,9a14.64,14.64,0,0,0,7.82-3.24Zm-12.39,16.36a.57.57,0,0,0-.47.33l-1.6,3.45-.57-3.23c0-.2-.15-.28-.36-.26l-.55.05a.2.2,0,0,0-.19.17l-.09.65c0,.1,0,.15.12.14h.17l.71,4c0,.07.05.1.12.09l.78-.07c.08,0,.12-.05.16-.12l2-4.28.16,0a.19.19,0,0,0,.18-.17l.09-.65c0-.11,0-.15-.13-.14Zm59.66-7.9-.7,0,.05,1,.69,0a.51.51,0,0,0,0-1Zm-55.57,7.44a3.58,3.58,0,0,0-2.12,1,3.36,3.36,0,0,0-1.1,2,2,2,0,0,0,.53,1.82,2.19,2.19,0,0,0,1.87.59,3.41,3.41,0,0,0,2.11-1,3.32,3.32,0,0,0,1.12-2,2,2,0,0,0-.54-1.82A2.15,2.15,0,0,0,154.73,212.92Zm.65,3.8a2.33,2.33,0,0,1-1.32.62,1.39,1.39,0,0,1-1.17-.39,1.27,1.27,0,0,1-.35-1.17,2.14,2.14,0,0,1,.72-1.29,2.3,2.3,0,0,1,1.32-.62,1.39,1.39,0,0,1,1.17.39,1.28,1.28,0,0,1,.35,1.17A2.11,2.11,0,0,1,155.38,216.72Zm50.54-43.39a61.42,61.42,0,0,0-11.83,2.17A26.42,26.42,0,0,0,185,175c-13.2,1.26-20,8-21.08,15.53-.64,4.37.93,7.15,3.92,8.68a16.16,16.16,0,0,0-4.49,9.07c-.92,6.35,2.8,8.3,9.6,7.65,4.47-.44,14-2.32,16.07-2.51,2.61-.26,3.8,1.1,3.49,3.21l2.78-.13a19.18,19.18,0,0,0,3-7.52c.68-4.67-2.19-6.21-7.79-5.67-4.2.4-12.62,2.25-15.42,2.52-4.34.41-4.88-2.11-3.75-5.43a27.54,27.54,0,0,0,8.06.21c13.14-1.26,20-7.84,21.13-15.39a9,9,0,0,0-1.05-6.24l4.94,1.69Zm-18.79,13.92c-.56,3.74-2.65,6.73-5.9,7-3,.29-4.34-1.88-3.77-5.77s2.73-7,6.2-7.28C186.59,181,187.64,183.71,187.13,187.25Zm22.79,16.12a3.27,3.27,0,1,0,3.41,3.1A3.13,3.13,0,0,0,209.92,203.37Zm1.14,5.35-.85-1.33-.51,0,.06,1.37-1,.05-.21-4.21,1.57-.09c1.06,0,1.73.5,1.77,1.37a1.27,1.27,0,0,1-.69,1.25l1,1.5Zm-72.49-74.88c-.42,1.34,1.27,1.43,2.78.09-.83,1-2.41,2.88-.18,3.43,1.55.38,2.42-1.8,2.83-3.17-.12-.33-.17-.82-.29-.88a5.33,5.33,0,0,1-.82-.55,3,3,0,0,0-.85-.41.12.12,0,0,0,0,.08,5.14,5.14,0,0,1-2.3,1A6.06,6.06,0,0,0,138.57,133.84Zm3.69-.62a.77.77,0,0,1,.19.11c.32.25.53.4.7.51,0,0,.06.27.08.35-.47,1.56-1.14,2.5-1.73,2.48l-.15,0c-.39-.1-.55-.22-.59-.3s.08-.7,1.15-1.95a.72.72,0,0,0,0-1Zm42.66-25c-.57.08-6.07-.22-7.37.39a1.56,1.56,0,0,0-.74,1.36c.09.82.52,5.25,1.48,5.92-.49,1.25-1.88,6.75.68,8,2.16,1.08,4.31,1.78,5.54,1,.8,1.37,3.22,2.78,3.83,2.57s-.25-1.06-.25-1.06,1.8.47,2.69-.6c1-1.9-4.7-2.33-4.7-2.33a4.22,4.22,0,0,0-.74-.11,1.56,1.56,0,0,0-.06-.82c-2.68-1.24-1.51-5.2-.78-6.31s.47-5.17,1.06-6.91a2,2,0,0,1,.76-1C186.37,108,185.37,108.11,184.92,108.17Zm0,.89a14.94,14.94,0,0,0-.45,3.42,10.44,10.44,0,0,1-.54,3.33,7.17,7.17,0,0,0-.81,5.11,3.4,3.4,0,0,0,1.57,2.08,1,1,0,0,1,0,.23.79.79,0,0,0,.16.58.75.75,0,0,0,.54.26,3.15,3.15,0,0,1,.58.08l.12,0c2.17.16,4.06.77,4.16,1.17a0,0,0,0,1,0,0,1.73,1.73,0,0,1-1.3.38,2.88,2.88,0,0,1-.6-.08l-.15,0a.73.73,0,0,0-.67.39.81.81,0,0,0-.09.37,6.22,6.22,0,0,1-2.22-1.91.75.75,0,0,0-.47-.34l-.13,0a.79.79,0,0,0-.42.12,1.76,1.76,0,0,1-1,.21,10.17,10.17,0,0,1-3.8-1.24c-1.84-.93-1-5.52-.32-7.11a.72.72,0,0,0-.26-.87c-.1-.09-.67-.77-1.16-5.2l0-.21c0-.29.29-.56.38-.63.88-.35,4.22-.31,5.66-.29.76,0,1.16,0,1.37,0A.64.64,0,0,1,184.87,109.06Zm-9,0c-.54.21-5.26.12-6.37,1,0,0-1.43.43-1,2.52.15.82,1.78,5,2.88,5.39-.19,1.34-.15,7.33,2.64,8,1,.23,1.33.59,2.06.43a1,1,0,0,0,.08.37c.5,1.37,3.44,2.79,4.07,2.52s-.33-1-.33-1,1.73.27,2.47-.81c.81-1.87-4.62-1.77-4.62-1.77l-.27,0a2.61,2.61,0,0,0,.84-1.31l-.32-.18c-2.53-1.34-1-6.79-.46-8-1-.7-1.26-5.13-1.34-6a1.57,1.57,0,0,1,.8-1.34l.28-.09C177,108.57,176.22,108.86,175.83,109Zm.8,7.24c-.61,1.75-1.84,6.69.69,8.39a2,2,0,0,1-.39.44.74.74,0,0,0-.22.79.72.72,0,0,0,.64.49l.2,0,.1,0h0s.29,0,.72,0c2.18.08,3.11.48,3.24.68a1.89,1.89,0,0,1-1.46.45.93.93,0,0,1-.26,0h-.08a.73.73,0,0,0-.71.45.76.76,0,0,0,0,.3c-.9-.39-2.1-1.17-2.32-1.83a.33.33,0,0,1,0-.14.74.74,0,0,0-.29-.55.64.64,0,0,0-.42-.15.58.58,0,0,0-.18,0,.86.86,0,0,1-.22,0,1.54,1.54,0,0,1-.53-.15,7.39,7.39,0,0,0-1-.3c-2-.45-2.34-5.48-2.09-7.15a.72.72,0,0,0-.46-.78c-.65-.31-2.24-3.87-2.43-4.85-.27-1.43.54-1.68.54-1.69a.75.75,0,0,0,.25-.13c.57-.47,3.2-.63,4.45-.7.44,0,.78,0,1-.08a1.85,1.85,0,0,0,0,.41l0,.21C175.68,113.55,176.05,115.37,176.63,116.25Zm-69.15,48.13c-1.42,9.66,1.78,14.7,11.46,13.77A29.89,29.89,0,0,0,132,173.63a6.87,6.87,0,0,1-2.61-3.69,17.6,17.6,0,0,1-4.08.95c-4.36.41-5.39-1.83-4.71-6.47l3-20.1,4.63-.45c-1.63,2-1.14,2.7-1.14,2.7s.15,1.23,3.31,0a24.9,24.9,0,0,0,6.1-3.49l.85-.77.66-.58a16.48,16.48,0,0,0,3.14-4.11,2.4,2.4,0,0,1-.59-.2,1.26,1.26,0,0,1-.76-.9,2.18,2.18,0,0,1,.41-1.53l-.31.1a10.33,10.33,0,0,1-1.27,2.4l.07-.5h0a11.59,11.59,0,0,0,1-1.84,1.5,1.5,0,0,1-.86-.1,1,1,0,0,1-.48-1.14,75.46,75.46,0,0,0-6.94,3.78l-.56,0c2.61-1.56,7.11-4.21,8.73-4.54a5.36,5.36,0,0,0,2.31-1,3,3,0,0,1,.1-1.77c.2-.4-.17-.43-.44-.67s-.08-1.72-.42-1.8l-.27-.09c-1.93.78-6.5,3.26-11.14,10L101,140.6l-.88,6,10.13-1Zm33-35.59a1.37,1.37,0,0,1,0,.19,1.94,1.94,0,0,0,.41,1.34l.17.14a4.58,4.58,0,0,0-.17,1.45,5.34,5.34,0,0,1-1.62.59c-1.45.3-4.64,2.08-7.82,3.95A25.17,25.17,0,0,1,140.52,128.79Zm-1.07,8.73a2.06,2.06,0,0,0,.58.49c-1.31,2.17-4.16,5.55-10,7.89a5.83,5.83,0,0,1-2,.5,1.22,1.22,0,0,1-.3-.06l0-.09c0-.11,0-.67,1-1.93h.1a6.47,6.47,0,0,0,2.49-.53l.54-.27.25,0a17.71,17.71,0,0,0,6.23-4.43l0-.13A15.06,15.06,0,0,0,139.45,137.52Zm-11.13,5c0-.33.34-1.42,2.71-3.66.6-.37,1.39-.82,2.21-1.3l-.22,0c1.52-.88,3.24-1.86,4.64-2.54a1.52,1.52,0,0,0,.74.72l.09.05c-.94,1.83-3.09,4.5-7.87,6.45a5,5,0,0,1-1.89.43.72.72,0,0,1-.34-.07l-.07-.09Zm2.85,21.78c-1.16,7.87,2.61,12.23,12.8,11.26,10.38-1,17-6.47,18.3-15.48,1.26-8.52-3.46-11.79-13-10.89C138.36,150.2,132.42,155.74,131.17,164.26Zm11.4-1.26c.72-4.93,2.68-8.3,5.51-8.58,2-.2,3.49,1.33,2.68,6.85-.77,5.28-2.82,8.91-5.36,9.15C143.36,170.61,141.75,168.64,142.57,163Zm50.81-55.22a12.85,12.85,0,0,1-2.58-.09c-1.14-.11-3.7-.23-4.28,1.51s-.29,5.72-1.07,6.93-2.08,5.72,1.52,6.54a9.48,9.48,0,0,0,4.53.38,1.17,1.17,0,0,0,.06.47c.46,1.57,3.62,3.41,4.34,3.15s-.29-1.12-.29-1.12,1.91.45,2.84-.69c1.05-2-5-2.36-5-2.36a2.09,2.09,0,0,0-.29,0c1-.57,1.19-1.47,1.85-3a7,7,0,0,1-.08-8.51s-1.11-.6-.91-2.69C194.13,107.9,193.83,107.7,193.38,107.78Zm.77,11.81c-.08.16-.13.32-.2.47-.41,1-.61,1.44-1.17,1.76a.73.73,0,0,0-.36.75.72.72,0,0,0,.62.59l.23,0,.11,0c1.86.1,4.13.59,4.45,1.15,0,0,0,0,0,.08a1.91,1.91,0,0,1-1.47.45,3,3,0,0,1-.58-.07l-.13,0a.74.74,0,0,0-.68.41.65.65,0,0,0-.07.45c-1-.5-2.41-1.55-2.66-2.36a1.74,1.74,0,0,1,0-.18.74.74,0,0,0-.24-.62.73.73,0,0,0-.46-.19h-.17a5.32,5.32,0,0,1-1.43.12,12.86,12.86,0,0,1-2.53-.43l-.27-.06a2.07,2.07,0,0,1-1.62-1.29,5.47,5.47,0,0,1,.55-4.15,9.73,9.73,0,0,0,.76-4,14.41,14.41,0,0,1,.39-3.06c.32-1,1.72-1.12,2.85-1.07l.66,0c.68.07,1.22.11,1.66.13a8.15,8.15,0,0,0,.88,0,3.72,3.72,0,0,0,.69,2.56A7.66,7.66,0,0,0,194.15,119.59Zm32.4-11.81c-.7.76-.62.83-.36,1s1,.56,1,.73,8.25-3.11,10.41-5.27A27.26,27.26,0,0,1,226.55,107.78Zm.44.72s0,0,0,0c.57-.06,1.14-.14,1.67-.23-.53.23-1,.38-1.25.48C227.26,108.65,227.12,108.58,227,108.5Zm15.75-9s-4.21,2.78-5.08,3.15-3.47.43-3.47.8-.39-.47-.85.47a3.62,3.62,0,0,1-2.69,1.81c-1.14.15-3.25-1-3.78-.74a8,8,0,0,0-2.28,1.53c1.31.19,1.87.34,1.9.76s6-.35,10.95-3.2S242.74,99.51,242.74,99.51ZM227,106.67a1.45,1.45,0,0,0-.73-.53,6.56,6.56,0,0,1,.81-.44,6.75,6.75,0,0,1,1.1.29c.38.12.78.26,1.18.35A14.32,14.32,0,0,1,227,106.67Zm6.27-1.47a3.85,3.85,0,0,0,.7-.93l.14,0a.81.81,0,0,0,.57-.23.75.75,0,0,0,.11-.13c.27-.06.76-.13,1.1-.17l.86-.13A24.26,24.26,0,0,1,233.29,105.2ZM194.66,108s-.06,2.29,1,2.63c-.28-1.28.83-1.9.57-2.65S195,107.82,194.66,108Zm35.49-3.41c1.15-.22,1.95-1.1,1.79-2a2.19,2.19,0,1,0-1.79,2Zm-1.64-1.34a.7.7,0,0,1,.13-.51,1.66,1.66,0,0,1,1.07-.61,2,2,0,0,1,.43,0,1.06,1.06,0,0,1,1.08.66c.08.41-.4,1-1.21,1.11a1.46,1.46,0,0,1-.42,0C229,103.91,228.57,103.64,228.51,103.28ZM79.64,220a3.65,3.65,0,0,0-2.12,1,3.36,3.36,0,0,0-1.1,2,2,2,0,0,0,.53,1.82,2.18,2.18,0,0,0,1.87.59,3.55,3.55,0,0,0,2.11-1,3.31,3.31,0,0,0,1.12-2,2,2,0,0,0-.54-1.82A2.23,2.23,0,0,0,79.64,220Zm.65,3.8a2.35,2.35,0,0,1-1.32.63,1.47,1.47,0,0,1-1.18-.38,1.33,1.33,0,0,1-.34-1.19,2.09,2.09,0,0,1,.72-1.28,2.19,2.19,0,0,1,1.32-.62,1.39,1.39,0,0,1,1.17.38,1.29,1.29,0,0,1,.35,1.18A2.09,2.09,0,0,1,80.29,223.84Zm-4.46-3.35-3.36.31a.57.57,0,0,0-.33.16.52.52,0,0,0-.16.31l-.11.7c0,.09,0,.14.12.13l.67-.07a.19.19,0,0,0,.19-.16v-.15l.66-.07-.62,4.11c0,.1,0,.14.14.13l.65-.06a.19.19,0,0,0,.18-.17l.62-4.1.66-.06,0,.15c0,.1,0,.15.13.14l.67-.07a.16.16,0,0,0,.17-.16l.11-.69a.34.34,0,0,0-.08-.29A.3.3,0,0,0,75.83,220.49ZM90.22,219a3.52,3.52,0,0,0-2.1,1A3.27,3.27,0,0,0,87,222a2,2,0,0,0,.54,1.83,2.17,2.17,0,0,0,1.87.59,3.59,3.59,0,0,0,2.12-1,3.41,3.41,0,0,0,1.1-2,2,2,0,0,0-.54-1.82A2.17,2.17,0,0,0,90.22,219Zm.66,3.81a2.17,2.17,0,0,1-1.32.61A1.3,1.3,0,0,1,88,221.89a2,2,0,0,1,.71-1.27,2.24,2.24,0,0,1,1.32-.62,1.4,1.4,0,0,1,1.18.38,1.32,1.32,0,0,1,.35,1.18A2.12,2.12,0,0,1,90.88,222.84ZM68.4,225.38l-.76-4c0-.06-.06-.09-.13-.09l-.78.08a.2.2,0,0,0-.16.11l-2,4.28-.16,0a.17.17,0,0,0-.18.16l-.09.66c0,.1,0,.15.12.14l.56-.05a.49.49,0,0,0,.45-.34l.53-1.13,1.45-.14.2,1.06a.3.3,0,0,0,.37.26l.57,0c.1,0,.15-.06.17-.17l.1-.66c0-.1,0-.14-.13-.14Zm-2.1-1.19.6-1.29.22,1.22Zm18-4.51-1.15.11A.16.16,0,0,0,83,220l-.11.65c0,.11,0,.15.14.15l.16,0-.5,3.28-.17,0a.18.18,0,0,0-.17.17l-.1.66c0,.1,0,.14.12.14l1.15-.11a3,3,0,0,0,2.09-1,3.82,3.82,0,0,0,.87-1.88v0a2.07,2.07,0,0,0-.39-1.72A2,2,0,0,0,84.28,219.68Zm1.2,2.48a2.29,2.29,0,0,1-.58,1.22,1.84,1.84,0,0,1-1.17.55h-.07l.47-3.29h.06a1.16,1.16,0,0,1,1,.3,1.42,1.42,0,0,1,.24,1.2Zm-22-.18a1.4,1.4,0,0,0-.56-.22,2.17,2.17,0,0,0-.44,0l-2.09.2a.18.18,0,0,0-.18.17l-.1.66c0,.1,0,.14.13.13h.17l-.63,4.1c0,.1,0,.15.14.14l.67-.07a.17.17,0,0,0,.17-.16l.31-2,.84-.08.77,1.94c0,.06.07.08.13.07l.66-.06a.18.18,0,0,0,.18-.17l.1-.66c0-.1,0-.15-.13-.14l-.17,0-.53-1.33a3,3,0,0,0,.39-.32,1.78,1.78,0,0,0,.55-1v0a1.26,1.26,0,0,0-.05-.68A1,1,0,0,0,63.46,222Zm-.89,1.71a.87.87,0,0,1-.43.19l-1,.09.18-1.16.94-.1a.44.44,0,0,1,.4.15.41.41,0,0,1,.11.39A.68.68,0,0,1,62.57,223.69Zm-7.82,1a2.49,2.49,0,0,0,.16-.55v0a1.37,1.37,0,0,0,0-.57,1.14,1.14,0,0,0-.17-.43,1.38,1.38,0,0,0-.32-.32,1.66,1.66,0,0,0-.48-.19,1.53,1.53,0,0,0-.37,0l-2.09.2a.18.18,0,0,0-.18.17l-.1.66c0,.1,0,.15.13.13h.17l-.62,4.11c0,.1,0,.14.13.13l.66-.06a.17.17,0,0,0,.17-.17l.27-1.73,1-.1a1.88,1.88,0,0,0,.47-.1,2,2,0,0,0,.42-.2,2.5,2.5,0,0,0,.51-.47A2.44,2.44,0,0,0,54.75,224.7Zm-1,0a.87.87,0,0,1-.47.23l-1,.09.21-1.4.93-.09a.46.46,0,0,1,.44.18.62.62,0,0,1,.12.5A.82.82,0,0,1,53.7,224.73Zm5,1.56-.77-4a.1.1,0,0,0-.12-.09l-.78.07a.18.18,0,0,0-.16.13l-2,4.27h-.16a.2.2,0,0,0-.18.17l-.09.66c0,.1,0,.15.12.14l.56,0a.57.57,0,0,0,.46-.34l.52-1.14,1.45-.13.2,1.08a.29.29,0,0,0,.37.24l.57-.05a.17.17,0,0,0,.17-.17l.1-.66c0-.1,0-.15-.12-.14Zm-2.11-1.18.59-1.3.25,1.23Zm44-21.16c-5.27.13-7.46-1.62-10.71-7.19a15.93,15.93,0,0,0,10.34-13.08c1.33-9.06-4.18-12.2-12.24-11.43l-26.84,2.56-.85,5.78,4.55-.43-4.71,32.1L73,211l1.72-11.74,1.75-.17c3.33,8.29,8.1,11.57,16,10.81a20,20,0,0,0,7.54-2.17ZM88.14,185a9,9,0,0,1-8.55,8.16l-4,.38,2.14-14.63,3.15-.31C86,178.13,88.89,179.82,88.14,185Z"/><path class="cls-4" d="M187,187.15c-.55,3.77-2.64,6.77-5.91,7.08-3,.29-4.31-1.9-3.75-5.8a5.4,5.4,0,0,1,.11-.58c-4.41.47-8.86.85-13.4,1.14-.1.48-.2,1-.28,1.44-.64,4.41.93,7.2,3.92,8.74a16.21,16.21,0,0,0-4.48,9.11c-.93,6.4,2.79,8.35,9.59,7.7,4.46-.43,14-2.33,16.08-2.53,2.6-.25,3.79,1.11,3.47,3.24l2.77-.13a19.28,19.28,0,0,0,3-7.57c.67-4.69-2.19-6.24-7.79-5.7-4.2.4-12.62,2.26-15.42,2.54-4.33.41-4.88-2.13-3.73-5.46a27.74,27.74,0,0,0,8,.21c13.13-1.27,20-7.88,21.12-15.49a5.9,5.9,0,0,0,.06-.59c-4.36.81-8.83,1.54-13.38,2.17C187.08,186.83,187.05,187,187,187.15ZM60.49,178.89l-.23,1.56,4.36-.42C63.23,179.66,61.85,179.27,60.49,178.89Zm173.62-3.07C230.87,176.94,227.5,178,224,179a2.73,2.73,0,0,1,0,.38c-.45,3.12-3.27,4.55-7.94,5.23a19.61,19.61,0,0,1,.7-3.64q-5.59,1.41-11.46,2.61a19,19,0,0,0-.47,2.34c-1.14,7.82,2.25,12.14,11.91,11.21a33,33,0,0,0,13-4l-.92-3.74a34.37,34.37,0,0,1-8.11,1.94c-2.88.28-4.33-.23-4.69-3,10.91-1.28,17.23-4.27,18.1-10.32A7.13,7.13,0,0,0,234.11,175.82ZM109.44,188.07l-3.12-.33.2,1.2C107.48,188.62,108.46,188.32,109.44,188.07Zm-19.6,8.64a16,16,0,0,0,9.55-9.81c-3.86-.52-7.62-1.1-11.34-1.74a9,9,0,0,1-8.51,8l-4,.38L77.08,183q-6.31-1.36-12.29-3L60.1,212.3,73,211.06l1.72-11.81,1.76-.18c3.32,8.35,8.09,11.64,16,10.88a19.8,19.8,0,0,0,7.54-2.19l.56-3.81C95.27,204.08,93.08,202.31,89.84,196.71ZM163,197a4.31,4.31,0,0,1-1.78.64c-1.2.12-2-.52-1.29-4.53l.65-3.88c-3.67.21-7.38.34-11.13.41l-.84,4.92c-1.33,7.66,2.54,9.55,7.53,9.08a14.45,14.45,0,0,0,7.82-3.27Zm-32.58-7.49q-5.84-.21-11.51-.61a5.12,5.12,0,0,1,.37,1.54l-1.41.15c-11.42,1.1-15.85,4.45-16.62,9.69-.85,5.94,4,7.66,12.54,6.83,11.14-1.07,15.09-5.18,16.35-13.86A24.28,24.28,0,0,0,130.37,189.48ZM118.94,195c-.61,4.25-1.46,6.81-4.68,7.12-2.41.23-3.36-1.06-3.06-3,.37-2.62,2.6-4.67,7.15-5.11l.76-.07Zm13.1-5.45-2.34,16,11.3-1.08,2.15-14.77h-.73C138.93,189.69,135.47,189.63,132,189.53Z"/></g></g></svg>