<svg id="Layer_1" data-name="Layer 1" xmlns="http://www.w3.org/2000/svg" viewBox="0 0 300 300"><defs><style>.cls-1{fill:#76777a;}.cls-2{fill:#5eb3e4;}</style></defs><path class="cls-1" d="M52.26,188.63l-12-65.14H55.69l5.85,49.08h.16l5.85-49.08H83L71,188.63Z"/><path class="cls-1" d="M81.83,135.72V123.49h14v12.23Zm0,52.91V139.28h14v49.35Z"/><path class="cls-1" d="M119.13,188.63V156.06q0-5.84-3.43-5.84t-3.43,5.84v32.57h-14V139.28H111.8v6H112q2.73-7.31,10.23-7.3,7.72,0,10.3,7.57,3-7.57,10.61-7.57,11,0,11,13.41v37.22h-14V156.06c0-3.89-1.15-5.84-3.43-5.84s-3.44,1.95-3.44,5.84v32.57Z"/><path class="cls-1" d="M156.44,188.63V139.28h14.05v49.35Z"/><path class="cls-1" d="M173.45,188.63V123.49H187.5v65.14Z"/><path class="cls-1" d="M224.41,188.63H210.83a41.6,41.6,0,0,1-.86-5.57q-2.43,6.85-9.59,6.85-11.79,0-11.79-14.51,0-6.93,2.54-10.49t9.17-5.38l5.54-1.55a5.15,5.15,0,0,0,4.13-5.39c0-3-1.19-4.56-3.59-4.56a3.27,3.27,0,0,0-3,1.42q-.9,1.41-1,5.15H190.23q0-9.39,5.7-13.59,4-3,10.45-3,8.12,0,12,3.1,4.68,3.74,4.68,12.77V178C223.08,183.13,223.53,186.69,224.41,188.63Zm-18.81-9.76q4.38,0,4.37-8.12v-5.93a3.53,3.53,0,0,1-2,1.19,25,25,0,0,0-2.86,1.09c-2,1-3,3.16-3,6.39Q202.17,178.88,205.6,178.87Z"/><path class="cls-1" d="M259.76,158.62H247.12q0-5.66-.9-7.85a3.19,3.19,0,0,0-3.16-2.19c-1.61,0-2.7,1.07-3.28,3.19s-.85,6.21-.85,12.23.28,10.08.85,12.18,1.67,3.15,3.28,3.15q4.06,0,4.06-8.12V168h12.64q0,11.87-3.74,16.7-4,5.19-13,5.2T230,185.35q-5.07-5.74-5.07-20.53,0-16,5.46-22.17,4.22-4.65,13.42-4.65,8.82,0,12.72,5.65Q259.77,148.58,259.76,158.62Z"/><path class="cls-2" d="M97.76,134.31V110.85H103v18.47h6.43v5Z"/><path class="cls-2" d="M109.52,134.31V116.53h5.06v17.78Zm.33-19.42,1.24-4.8h4.73l-2.7,4.8Z"/><path class="cls-2" d="M115.56,134.31V116.53h4.89v2.17h.06a3.66,3.66,0,0,1,3.68-2.63q4,0,4,4.84v13.4H123.1V122.58c0-1.4-.42-2.1-1.24-2.1s-1.24.7-1.24,2.1v11.73Z"/><path class="cls-2" d="M141.2,126.43h-7.53v2.33q0,2.4,1.38,2.4c.95,0,1.43-1,1.43-3.09H141q-.08,6.7-6,6.7c-2.41,0-4.1-.7-5-2.1s-1.42-3.81-1.42-7.23.5-5.78,1.52-7.22,2.67-2.15,5-2.15a5.49,5.49,0,0,1,4.59,1.84c1,1.34,1.52,3.57,1.52,6.71Zm-4.72-3.22,0-.79c0-1.82-.47-2.73-1.4-2.73s-1.38.91-1.38,2.73v.79Z"/><path class="cls-2" d="M153.77,134.31h-4.89a13.36,13.36,0,0,1-.31-2,3.39,3.39,0,0,1-3.46,2.46q-4.25,0-4.24-5.22a6.47,6.47,0,0,1,.91-3.78,5.82,5.82,0,0,1,3.3-1.94l2-.56a1.85,1.85,0,0,0,1.49-1.94c0-1.09-.43-1.64-1.29-1.64a1.2,1.2,0,0,0-1.09.51,4,4,0,0,0-.35,1.86h-4.38q0-3.39,2-4.9a6.11,6.11,0,0,1,3.77-1.09,7,7,0,0,1,4.33,1.12q1.68,1.35,1.68,4.6v8.68A10.41,10.41,0,0,0,153.77,134.31ZM147,130.8c1,0,1.58-1,1.58-2.93v-2.13a1.26,1.26,0,0,1-.72.42,9,9,0,0,0-1,.4,2.35,2.35,0,0,0-1.06,2.3C145.76,130.15,146.17,130.8,147,130.8Z"/><path class="cls-1" d="M170.07,129.67l-3-5.47a.93.93,0,0,0-.36-.35.87.87,0,0,0-.48-.14h-6a.87.87,0,0,0-.48.14,1,1,0,0,0-.36.35l-3,5.47a1,1,0,0,0-.11.48,1,1,0,0,0,.11.49l3,5.46a1,1,0,0,0,.36.36,1,1,0,0,0,.48.14h6a1,1,0,0,0,.84-.5l3-5.46a1,1,0,0,0,.11-.49A1,1,0,0,0,170.07,129.67Z"/></svg>